<?xml version="1.0" standalone="no"?> <!DOCTYPE svg PUBLIC "-//W3C//DTD SVG 1.0//EN" "http://www.w3.org/TR/2001/REC-SVG-20010904/DTD/svg10.dtd" > <svg xmlns="http://www.w3.org/2000/svg" width="100%" height="100%">
<defs >
<font horiz-adv-x="495" ><font-face
    font-family=""
    units-per-em="1000"
    panose-1="2 11 11 3 3 2 2 6 2 3"
    ascent="809"
    descent="-191"
    alphabetic="0" />
<missing-glyph horiz-adv-x="426" />
<glyph unicode=" " glyph-name="space" horiz-adv-x="123" />
<glyph unicode="!" glyph-name="exclam" horiz-adv-x="273" d="M15 693H258L225 226H47L15 693ZM39 177H234V0H39V177Z" />
<glyph unicode="&quot;" glyph-name="quotedbl" horiz-adv-x="432" d="M14 693H201L185 459H31L14 693ZM230 693H417L401 459H247L230 693Z" />
<glyph unicode="#" glyph-name="numbersign" horiz-adv-x="513" d="M48 553H118L135 693H269L253 553H308L325 693H460L443 553H495V391H424L413 304H465V142H393L377 0H244L260 142H204L188 0H55L71 142H18V304H89L100 391H48V553ZM223 304H279L289 391H233L223 304Z" />
<glyph unicode="$" glyph-name="dollar" horiz-adv-x="511" d="M122 -1Q90 4 64 12T19 32V191Q54 179 88 170T160 155L186 261Q145 270 113 286T58 328T23 392T11 479Q11 527 25 568T70 639T147 686T259 703H277Q286 703 294 702L310 765H397L380 695Q409 690
428 683T462 667V508Q437 518 407 526T341 539L317 440Q365 430 400 414T457 373T489 313T500 230Q500 110 430 50T236 -10H221Q214 -10 206 -9L180 -118H94L122 -1ZM304 201Q304 218 297 228T269 245L246 152Q276 155 290 166T304 201ZM201 497Q201 483 207 473T234
456L255 544Q224 542 213 531T201 497Z" />
<glyph unicode="%" glyph-name="percent" horiz-adv-x="842" d="M537 713H674L298 -40H161L537 713ZM186 311Q105 311 58 357T10 504V509Q10 609 58 656T185 703Q222 703 254 693T310 659T347 600T361 512V508Q361 455 348 418T311 357T256 322T186 311ZM186 414Q194
414 199 416T208 426T212 448T214 485V527Q214 574 207 587T186 601Q170 601 165 587T159 528V486Q159 441 165 428T186 414ZM657 -9Q576 -9 529 37T481 184V189Q481 289 529 336T656 383Q693 383 725 373T781 339T818 280T832 192V188Q832 135 819 98T782 37T727
2T657 -9ZM657 94Q665 94 670 96T679 106T683 128T685 165V207Q685 254 678 267T657 281Q641 281 636 267T630 208V166Q630 121 636 108T657 94Z" />
<glyph unicode="&amp;" glyph-name="ampersand" horiz-adv-x="660" d="M261 -9Q134 -9 72 45T10 195Q10 269 48 317T149 393Q129 424 120 452T110 519Q110 558 124 592T167 650T238 689T335 703Q445 703 496 658T547 540Q547 479 514 438T411 362L469 281Q482
317 488 364H643Q639 295 619 241T566 143L669 0H425L409 22Q372 6 334 -1T261 -9ZM300 136H313Q320 136 327 138L234 271Q228 259 225 245T221 214Q221 177 241 157T300 136ZM314 533Q314 516 320 499T341 459Q372 489 372 535Q372 578 344 578Q331 578 323 570T314
533Z" />
<glyph unicode="&apos;" glyph-name="quotesingle" horiz-adv-x="216" d="M14 693H201L185 459H31L14 693Z" />
<glyph unicode="(" glyph-name="parenleft" horiz-adv-x="362" d="M194 -116Q164 -91 133 -52T77 40T35 157T19 298V322Q19 398 35 462T76 579T133 670T194 735H361Q335 700 311 656T268 561T238 451T227 330V296Q227 230 238 171T267 60T310 -36T361 -116H194Z" />
<glyph unicode=")" glyph-name="parenright" horiz-adv-x="362" d="M1 -116Q27 -81 51 -37T93 58T123 167T134 289V323Q134 387 123 446T94 558T51 655T1 735H168Q198 709 229 670T285 579T327 463T343 322V297Q343 221 327 157T285 40T228 -51T168 -116H1Z" />
<glyph unicode="*" glyph-name="asterisk" horiz-adv-x="375" d="M241 595L315 656L376 541L282 505L376 469L316 356L241 416L249 317H126L133 416L59 356L0 468L93 505L-1 541L60 655L133 595L126 693H249L241 595Z" />
<glyph unicode="+" glyph-name="plus" horiz-adv-x="475" d="M148 267H17V437H148V582H326V437H458V267H326V121H148V267Z" />
<glyph unicode="," glyph-name="comma" horiz-adv-x="235" d="M23 181H223L172 -62H12L23 181Z" />
<glyph unicode="-" glyph-name="hyphen" horiz-adv-x="291" d="M18 374H274V210H18V374Z" />
<glyph unicode="." glyph-name="period" horiz-adv-x="230" d="M17 181H212V0H17V181Z" />
<glyph unicode="/" glyph-name="slash" horiz-adv-x="375" d="M196 735H378L163 -116H-18L196 735Z" />
<glyph unicode="0" glyph-name="zero" horiz-adv-x="618" d="M308 -9Q242 -9 189 9T97 68T38 170T17 322V371Q17 460 39 523T100 626T192 684T308 703Q372 703 425 686T518 631T579 530T601 377V329Q601 236 578 172T514 67T421 9T308 -9ZM309 160Q321 160 330
165T344 184T351 224T354 291V398Q354 443 351 469T342 510T328 528T308 533Q297 533 289 529T275 510T268 471T265 403V295Q265 254 267 228T274 186T288 166T309 160Z" />
<glyph unicode="1" glyph-name="one" horiz-adv-x="371" d="M98 475L12 469V607L186 693H332V0H98V475Z" />
<glyph unicode="2" glyph-name="two" horiz-adv-x="478" d="M13 156L116 274Q136 297 153 316T184 355T204 394T212 440Q212 522 116 522Q85 522 61 516T18 501V667Q44 678 93 690T210 703Q274 703 321 687T400 642T446 574T461 487Q461 441 450 405T420 337T376
277T320 220L269 171V168H460V0H13V156Z" />
<glyph unicode="3" glyph-name="three" horiz-adv-x="489" d="M208 -9Q137 -9 88 2T11 28V182Q36 174 69 170T134 166Q187 166 206 179T226 224Q226 254 208 264T154 274H94V426H154Q195 426 211 437T228 476Q228 502 209 515T139 528Q110 528 79 524T25 515V670Q57
684 105 693T217 703Q332 703 396 660T461 526Q461 457 430 418T347 364V360Q377 355 401 344T441 315T466 268T475 199Q475 99 407 45T208 -9Z" />
<glyph unicode="4" glyph-name="four" horiz-adv-x="583" d="M267 131H12V281L269 694H498V291H571V131H498V0H267V131ZM271 291V445H268L178 294V291H271Z" />
<glyph unicode="5" glyph-name="five" horiz-adv-x="484" d="M200 -9Q130 -9 85 1T9 26V184Q34 178 62 174T121 169Q173 169 195 183T218 230Q218 264 197 279T119 295Q94 295 75 294T32 289L49 693H442V523H215L212 440Q224 442 237 443T272 445Q374 445 421
393T468 232Q468 115 398 53T200 -9Z" />
<glyph unicode="6" glyph-name="six" horiz-adv-x="576" d="M297 141Q317 141 325 158T334 223Q334 250 331 266T322 292T308 303T287 306Q278 306 270 305T258 301V244Q258 212 260 192T266 161T278 145T297 141ZM302 -9Q162 -9 90 67T17 302V350Q17 444 39 511T104
620T206 683T343 703Q410 703 452 696T518 678V512Q498 517 464 521T395 525Q355 525 329 519T287 501T265 469T257 423Q275 431 302 438T375 445Q466 445 516 397T566 239Q566 185 552 140T506 61T424 10T302 -9Z" />
<glyph unicode="7" glyph-name="seven" horiz-adv-x="492" d="M234 511V516H11V693H476V538L293 0H37L234 511Z" />
<glyph unicode="8" glyph-name="eight" horiz-adv-x="565" d="M272 -9Q135 -9 73 39T10 170Q10 224 39 262T124 323Q83 348 55 388T26 498Q26 595 95 649T292 703Q416 703 476 653T536 516Q536 466 509 431T435 379Q467 363 489 346T526 308T548 260T555 199Q555
92 481 42T272 -9ZM268 135Q325 135 325 188Q325 212 309 230T244 263Q229 250 219 233T209 190Q209 166 223 151T268 135ZM311 440Q322 448 332 464T342 505Q342 528 332 542T295 556Q271 556 260 543T249 509Q249 483 263 468T311 440Z" />
<glyph unicode="9" glyph-name="nine" horiz-adv-x="579" d="M236 -9Q167 -9 121 -1T52 19V184Q72 179 108 174T180 168Q222 168 248 174T290 192T312 224T319 271Q301 263 275 256T213 249Q164 249 127 260T63 297T24 363T10 459Q10 510 24 554T70 632T153 684T277
703Q417 703 489 625T562 396V343Q562 251 541 185T477 75T375 12T236 -9ZM290 387Q298 387 306 388T318 392V450Q318 481 316 501T309 532T297 548T279 552Q259 552 251 536T242 471Q242 443 245 427T254 401T269 390T290 387Z" />
<glyph unicode=":" glyph-name="colon" horiz-adv-x="233" d="M19 181H214V0H19V181ZM19 468H214V287H19V468Z" />
<glyph unicode=";" glyph-name="semicolon" horiz-adv-x="240" d="M23 181H223L172 -62H12L23 181ZM22 468H217V287H22V468Z" />
<glyph unicode="&lt;" glyph-name="less" horiz-adv-x="399" d="M21 243V402L375 570V394L200 323L375 252V76L21 243Z" />
<glyph unicode="=" glyph-name="equal" horiz-adv-x="444" d="M20 489H424V328H20V489ZM20 273H424V111H20V273Z" />
<glyph unicode="&gt;" glyph-name="greater" horiz-adv-x="399" d="M24 252L198 323L24 394V570L378 402V243L24 76V252Z" />
<glyph unicode="?" glyph-name="question" horiz-adv-x="414" d="M68 261Q68 286 70 305T80 341T100 373T134 407Q146 417 155 425T171 442T180 460T183 483Q183 509 165 523T99 537Q70 537 50 534T12 527V677Q41 688 85 695T185 703Q289 703 346 658T403 516Q403
481 398 456T381 410T355 373T320 341Q298 324 284 313T261 293T249 272T245 244V226H68V261ZM60 177H256V0H60V177Z" />
<glyph unicode="@" glyph-name="at" horiz-adv-x="843" d="M411 -162Q328 -162 256 -140T131 -72T47 48T16 223Q16 328 49 412T141 556T282 646T462 678Q546 678 613 656T729 591T802 486T828 343Q828 264 808 206T754 110T677 52T586 33Q531 33 501 48T457 91H453Q437
72 408 55T337 37Q310 37 286 45T244 73T216 122T205 196Q205 253 217 303T254 390T313 449T394 471Q423 471 445 464T481 446H485L490 464H650L595 186Q591 165 594 153T614 141Q633 141 650 155T680 195T700 257T708 337Q708 392 695 436T651 510T571 556T451
572Q385 572 328 550T229 485T164 376T140 225Q140 146 161 92T219 5T307 -43T418 -57Q499 -56 558 -42T666 -6V-97Q626 -123 561 -142T411 -162ZM400 149Q417 149 425 158L462 368Q454 374 438 374Q423 374 411 356T391 311T378 251T374 192Q374 169 380 159T400
149Z" />
<glyph unicode="A" glyph-name="A" horiz-adv-x="638" d="M174 693H461L641 0H400L381 93H232L214 0H-3L174 693ZM302 472Q300 454 296 432Q293 413 289 388T279 334L262 241H349L331 335Q325 364 321 389T313 433Q309 454 306 472H302Z" />
<glyph unicode="B" glyph-name="B" horiz-adv-x="602" d="M30 693H351Q451 693 507 651T563 517Q563 450 534 413T448 363V360Q479 355 505 344T550 314T579 265T590 192Q590 150 577 115T534 54T461 14T353 0H30V693ZM298 147Q319 147 332 164T346 223Q346 261
333 277T294 293H262V147H298ZM298 414Q318 414 329 428T340 483Q340 521 329 535T297 549H262V414H298Z" />
<glyph unicode="C" glyph-name="C" horiz-adv-x="512" d="M328 -10Q252 -10 194 9T97 69T37 173T16 326V361Q16 457 40 522T107 628T208 685T334 703Q389 703 429 696T492 679V512Q474 517 451 520T398 524Q329 524 300 489T271 370V339Q271 253 296 211T391 169Q428
169 453 174T495 184V19Q471 8 429 -1T328 -10Z" />
<glyph unicode="D" glyph-name="D" horiz-adv-x="623" d="M30 693H296Q367 693 424 679T522 628T585 532T607 378V322Q607 230 584 169T519 70T420 16T296 0H30V693ZM294 167Q327 167 343 198T360 314V382Q360 424 356 451T344 495T324 519T295 526H267V167H294Z" />
<glyph unicode="E" glyph-name="E" horiz-adv-x="505" d="M30 693H475V525H265V434H441V270H265V168H489V0H30V693Z" />
<glyph unicode="F" glyph-name="F" horiz-adv-x="493" d="M28 693H475V525H265V404H439V240H265V0H28V693Z" />
<glyph unicode="G" glyph-name="G" horiz-adv-x="600" d="M337 -9Q261 -9 202 6T101 60T38 163T16 326V366Q16 462 40 526T109 630T215 686T351 703Q423 703 472 693T545 671V500Q522 507 486 514T402 521Q360 521 333 514T291 490T269 448T263 387V270Q263 210
276 185T330 159Q341 159 348 160T360 163V252H312V403H579V35Q562 27 537 20T479 6T411 -5T337 -9Z" />
<glyph unicode="H" glyph-name="H" horiz-adv-x="632" d="M30 693H267V440H365V693H602V0H365V270H267V0H30V693Z" />
<glyph unicode="I" glyph-name="I" horiz-adv-x="298" d="M30 693H268V0H30V693Z" />
<glyph unicode="J" glyph-name="J" horiz-adv-x="404" d="M161 -7Q107 -7 71 1T13 22V182Q21 180 35 178T64 176Q98 176 119 188T141 238V693H378V199Q378 152 366 114T327 49T260 8T161 -7Z" />
<glyph unicode="K" glyph-name="K" horiz-adv-x="631" d="M30 693H267V419L388 693H630L475 372L641 0H377L267 284V0H30V693Z" />
<glyph unicode="L" glyph-name="L" horiz-adv-x="468" d="M30 693H267V168H454V0H30V693Z" />
<glyph unicode="M" glyph-name="M" horiz-adv-x="806" d="M30 693H336L375 518Q383 485 388 456T398 406Q402 381 406 361H409Q412 381 416 406Q420 427 425 456T439 518L478 693H776V0H556V153Q556 206 556 256T559 347Q560 394 562 436H559Q551 402 543 362Q535
328 527 286T508 198L465 0H315L272 197Q263 235 254 277T236 355Q226 396 218 436H215Q216 397 217 351Q218 312 219 261T220 153V0H30V693Z" />
<glyph unicode="N" glyph-name="N" horiz-adv-x="629" d="M30 693H272L347 514Q358 487 369 459T389 408Q399 381 408 355H411Q409 375 407 404Q405 429 404 465T403 549V693H599V0H378L300 177Q284 212 270 247T245 312Q232 346 221 378H218Q220 351 222 315Q224
284 224 239T226 134V0H30V693Z" />
<glyph unicode="O" glyph-name="O" horiz-adv-x="642" d="M320 -10Q254 -10 198 8T102 67T39 171T16 324V369Q16 459 41 522T108 626T205 684T321 703Q385 703 440 686T537 631T602 529T626 374V331Q626 236 601 171T533 66T435 8T320 -10ZM322 163Q336 163 346
168T363 189T373 229T376 295V396Q376 439 373 465T362 506T345 525T320 530Q306 530 296 525T279 504T269 464T266 398V297Q266 254 269 228T280 187T297 168T322 163Z" />
<glyph unicode="P" glyph-name="P" horiz-adv-x="587" d="M30 693H323Q459 693 519 635T579 459Q579 331 520 271T325 210H267V0H30V693ZM292 357Q319 357 330 377T342 446Q342 498 330 515T294 533H267V357H292Z" />
<glyph unicode="Q" glyph-name="Q" horiz-adv-x="642" d="M293 -21Q236 -6 186 13T98 69T38 166T16 324V369Q16 459 41 522T108 626T205 684T322 703Q386 703 442 687T540 632T605 531T629 378V339Q629 283 619 242T591 171T550 124T499 95L636 74L595 -97L293
-21ZM323 159Q337 159 347 164T364 185T374 225T377 291V396Q377 439 374 465T363 506T346 525T321 530Q307 530 297 525T281 504T271 464T268 398V293Q268 250 271 224T282 183T299 164T323 159Z" />
<glyph unicode="R" glyph-name="R" horiz-adv-x="606" d="M30 693H337Q462 693 522 642T583 472Q583 404 561 365T501 303V300L611 0H372L295 233H267V0H30V693ZM296 371Q325 371 336 392T347 456Q347 496 336 515T295 535H263V371H296Z" />
<glyph unicode="S" glyph-name="S" horiz-adv-x="499" d="M220 -9Q161 -9 107 -1T19 24V195Q53 183 93 174T182 165Q223 165 240 172T258 200Q258 219 246 226T201 246L163 260Q81 290 47 343T12 478Q12 583 75 643T269 703Q343 703 383 696T449 676V509Q419 519
382 525T299 532Q265 532 251 525T236 500Q236 482 252 475T294 459L334 446Q370 434 398 418T447 376T477 315T488 232Q488 110 420 51T220 -9Z" />
<glyph unicode="T" glyph-name="T" horiz-adv-x="529" d="M146 525H11V693H518V525H383V0H146V525Z" />
<glyph unicode="U" glyph-name="U" horiz-adv-x="613" d="M312 -10Q234 -10 180 5T92 51T42 127T26 232V693H263V230Q263 198 273 182T315 165Q346 165 356 182T367 230V693H587V232Q587 114 521 52T312 -10Z" />
<glyph unicode="V" glyph-name="V" horiz-adv-x="635" d="M1 693H245L294 429Q299 397 305 365T316 306Q321 274 326 245H330Q335 273 340 304Q345 330 350 362T362 429L410 693H634L459 0H177L1 693Z" />
<glyph unicode="W" glyph-name="W" horiz-adv-x="868" d="M3 693H238L268 482Q273 451 277 421T285 366Q289 338 293 312H296Q299 338 303 366Q306 390 311 420T321 483L357 693H539L574 483Q579 451 583 421T592 366Q596 338 599 312H602Q606 335 610 362Q614
385 618 416T629 483L662 693H865L732 0H497L463 199Q458 228 454 256T446 307Q442 333 439 357H436Q432 332 428 305Q424 282 420 254T411 199L377 0H136L3 693Z" />
<glyph unicode="X" glyph-name="X" horiz-adv-x="646" d="M157 353L17 693H275L309 587Q314 569 319 552T329 521Q333 505 337 490H340Q343 504 347 520Q350 534 355 551T365 587L397 693H629L487 367L643 0H386L341 130Q325 173 319 198Q315 211 313 222H309Q307
212 303 199Q299 188 294 171T280 131L234 0H2L157 353Z" />
<glyph unicode="Y" glyph-name="Y" horiz-adv-x="601" d="M185 254L-2 693H251L282 592Q290 566 297 543T309 502Q314 481 318 462H321Q324 480 329 501Q334 519 340 542T356 592L386 693H603L422 260V0H185V254Z" />
<glyph unicode="Z" glyph-name="Z" horiz-adv-x="519" d="M23 162L227 522V525H30V693H489V531L286 171V168H497V0H23V162Z" />
<glyph unicode="[" glyph-name="bracketleft" horiz-adv-x="346" d="M31 735H332V581H240V38H332V-116H31V735Z" />
<glyph unicode="\" glyph-name="backslash" horiz-adv-x="375" d="M-3 735H179L393 -116H211L-3 735Z" />
<glyph unicode="]" glyph-name="bracketright" horiz-adv-x="346" d="M14 38H106V581H14V735H314V-116H14V38Z" />
<glyph unicode="^" glyph-name="asciicircum" horiz-adv-x="435" d="M132 693H303L436 428H271L218 529L164 428H-1L132 693Z" />
<glyph unicode="_" glyph-name="underscore" horiz-adv-x="367" d="M-3 -45H371V-175H-3V-45Z" />
<glyph unicode="`" glyph-name="grave" horiz-adv-x="427" d="M63 735H270L317 576H150L63 735Z" />
<glyph unicode="a" glyph-name="a" horiz-adv-x="497" d="M164 -8Q92 -8 50 31T7 149Q7 192 20 222T57 273T116 305T194 324L265 336V344Q265 373 248 384T184 395Q149 395 111 391T51 379V520Q86 534 140 543T266 553Q372 553 424 513T476 376V0H299L287 36H282Q268
16 239 4T164 -8ZM242 124Q250 124 256 126T265 132V226L245 225Q226 225 219 214T211 177Q211 147 218 136T242 124Z" />
<glyph unicode="b" glyph-name="b" horiz-adv-x="542" d="M253 -8Q180 -8 122 2T23 32V735H234V503H238Q258 524 288 538T361 553Q396 553 427 541T481 500T517 426T530 313V281Q530 199 513 144T460 55T374 7T253 -8ZM263 129Q275 129 284 134T299 152T308 188T311
248V287Q311 321 309 341T301 371T287 385T267 389Q245 389 235 381V135Q240 133 247 131T263 129Z" />
<glyph unicode="c" glyph-name="c" horiz-adv-x="413" d="M264 -8Q133 -8 73 57T12 257V278Q12 415 76 484T270 553Q317 553 347 548T398 535V381Q381 387 364 390T321 394Q281 394 256 374T231 296V262Q231 202 249 177T318 151Q343 151 363 155T400 164V20Q382
9 347 1T264 -8Z" />
<glyph unicode="d" glyph-name="d" horiz-adv-x="541" d="M193 -8Q154 -8 121 5T63 50T26 130T12 250V280Q12 357 27 409T71 493T138 539T225 553Q256 553 276 548T307 538V735H519V0H334L323 38H319Q298 19 269 6T193 -8ZM276 146Q296 146 307 154V404Q303 406
297 408T280 411Q267 411 258 406T243 388T234 352T231 292V254Q231 220 234 199T242 166T256 150T276 146Z" />
<glyph unicode="e" glyph-name="e" horiz-adv-x="506" d="M286 -8Q146 -8 79 59T12 264V281Q12 342 27 392T74 478T152 533T262 553Q329 553 374 535T446 480T484 392T496 271V218H226Q231 173 256 157T338 140Q376 140 413 149T473 166V35Q443 18 396 5T286 -8ZM264
414Q255 414 248 411T237 399T229 371T225 324H299Q299 352 297 369T291 397T280 410T264 414Z" />
<glyph unicode="f" glyph-name="f" horiz-adv-x="357" d="M57 398H5V545H57V583Q57 626 70 656T107 706T165 734T241 743Q280 743 311 739T358 729V599Q351 601 341 601T320 602Q291 602 280 591T269 557V545H350V398H269V0H57V398Z" />
<glyph unicode="g" glyph-name="g" horiz-adv-x="511" d="M233 -196Q104 -196 47 -165T-10 -80Q-10 -36 15 -14T80 20V25Q54 37 39 59T23 116Q23 155 43 182T91 229Q59 246 37 279T15 364V381Q15 424 31 456T77 509T148 542T241 553Q270 553 292 551T332 545H505V427H452Q456
419 459 407T462 381V369Q462 284 406 242T246 199Q207 199 183 202Q179 194 179 184Q179 173 186 169T210 164H334Q426 164 470 125T514 5Q514 -92 447 -144T233 -196ZM239 -73Q284 -73 301 -63T319 -35Q319 -17 307 -11T269 -5H190Q170 -17 170 -39Q170 -55 184
-64T239 -73ZM242 306Q256 306 264 317T272 367V380Q272 401 270 414T264 433T254 442T241 444Q225 444 218 432T210 381V369Q210 330 217 318T242 306Z" />
<glyph unicode="h" glyph-name="h" horiz-adv-x="534" d="M23 735H234V500H238Q261 522 293 537T375 553Q438 553 475 522T513 414V0H301V359Q301 376 292 381T269 386Q259 386 250 384T234 380V0H23V735Z" />
<glyph unicode="i" glyph-name="i" horiz-adv-x="260" d="M24 545H236V0H24V545ZM23 735H237V576H23V735Z" />
<glyph unicode="j" glyph-name="j" horiz-adv-x="261" d="M48 -195Q12 -195 -15 -189T-56 -176V-44Q-46 -46 -29 -46Q-3 -46 11 -35T25 6V545H237V-17Q237 -59 227 -92T195 -148T136 -183T48 -195ZM24 735H238V576H24V735Z" />
<glyph unicode="k" glyph-name="k" horiz-adv-x="533" d="M234 345L326 545H534L412 299L536 0H315L234 222V0H23V735H234V345Z" />
<glyph unicode="l" glyph-name="l" horiz-adv-x="259" d="M24 735H236V0H24V735Z" />
<glyph unicode="m" glyph-name="m" horiz-adv-x="797" d="M23 545H228V498H232Q256 520 289 536T374 553Q417 553 446 539T491 493H495Q523 519 559 536T644 553Q707 553 741 522T776 415V0H564V360Q564 376 557 381T536 386Q517 386 505 380V0H293V360Q293 376
286 381T265 386Q257 386 249 384T234 380V0H23V545Z" />
<glyph unicode="n" glyph-name="n" horiz-adv-x="534" d="M23 545H228V498H232Q257 521 290 537T374 553Q439 553 476 522T513 414V0H301V359Q301 376 292 381T269 386Q259 386 250 384T234 380V0H23V545Z" />
<glyph unicode="o" glyph-name="o" horiz-adv-x="540" d="M270 -8Q139 -8 76 62T12 259V287Q12 355 31 405T84 488T165 537T269 553Q528 553 528 291V265Q528 195 509 144T456 59T374 9T270 -8ZM271 141Q281 141 288 145T300 161T307 192T310 243V298Q310 334
308 355T300 387T287 401T269 404Q258 404 251 401T239 386T232 354T230 301V246Q230 212 232 192T240 160T252 145T271 141Z" />
<glyph unicode="p" glyph-name="p" horiz-adv-x="541" d="M23 545H228V499H232Q253 522 284 537T363 553Q400 553 430 541T483 500T517 424T529 308V281Q529 198 514 143T470 54T401 6T310 -8Q280 -8 262 -5T234 1V-191H23V545ZM262 129Q275 129 284 133T299 151T308
187T311 248V286Q311 320 309 340T301 370T287 384T267 388Q256 388 248 386T234 380V134Q244 129 262 129Z" />
<glyph unicode="q" glyph-name="q" horiz-adv-x="542" d="M304 28Q282 8 257 0T195 -8Q157 -8 124 5T66 48T27 126T12 243V274Q12 352 29 405T83 491T172 538T298 553Q371 553 429 543T519 520V-191H308V28H304ZM278 408Q265 408 256 404T242 386T234 350T231
289V252Q231 217 233 197T241 166T255 152T274 148Q285 148 293 150T307 156V403Q303 405 296 406T278 408Z" />
<glyph unicode="r" glyph-name="r" horiz-adv-x="375" d="M23 545H228V483H232Q269 551 338 551Q356 551 364 548V351Q358 353 344 354T316 355Q292 355 272 353T234 344V0H23V545Z" />
<glyph unicode="s" glyph-name="s" horiz-adv-x="418" d="M178 -8Q129 -8 85 0T14 22V163Q40 154 71 146T142 137Q180 137 193 142T206 161Q206 175 196 179L166 191L125 206Q69 226 40 267T10 373Q10 465 66 509T228 553Q275 553 311 548T377 532V392Q351 400
322 405T255 410Q228 410 216 407T204 388Q204 376 216 372T247 361L282 350Q344 330 375 293T406 186Q406 85 351 39T178 -8Z" />
<glyph unicode="t" glyph-name="t" horiz-adv-x="361" d="M224 -8Q183 -8 152 -1T99 23T68 68T57 140V399H5V545H57V666H269V545H346V399H269V180Q269 163 278 156T308 149Q318 149 327 150T344 153V15Q330 6 297 -1T224 -8Z" />
<glyph unicode="u" glyph-name="u" horiz-adv-x="532" d="M164 -8Q97 -8 60 25T22 140V545H233V184Q233 167 242 162T265 156Q274 156 283 158T298 162V545H509V0H323L309 47H305Q280 25 247 9T164 -8Z" />
<glyph unicode="v" glyph-name="v" horiz-adv-x="534" d="M-4 545H215L259 312Q261 302 264 288T269 259Q272 243 275 226H278Q281 243 284 259Q286 273 288 287T293 312L337 545H538L384 0H150L-4 545Z" />
<glyph unicode="w" glyph-name="w" horiz-adv-x="729" d="M1 545H210L234 399Q239 370 242 346T247 304Q250 283 252 267H254Q256 284 260 304Q263 321 267 345T276 399L301 545H461L486 399Q491 370 494 346T501 304Q505 283 507 267H510Q511 285 514 306Q516
324 519 348T528 400L551 545H728L611 0H413L390 114Q385 138 381 163T373 209Q369 233 365 256H363Q359 233 355 208Q351 187 347 162T338 114L315 0H120L1 545Z" />
<glyph unicode="x" glyph-name="x" horiz-adv-x="541" d="M128 285L9 545H237L260 478L279 421Q283 407 286 395H287L295 423Q299 435 303 449T312 478L334 545H528L413 290L542 0H313L282 85Q276 100 271 114T261 141L253 167H252Q248 155 244 142Q240 131 235
116T224 84L194 0H-1L128 285Z" />
<glyph unicode="y" glyph-name="y" horiz-adv-x="525" d="M147 -196Q119 -196 90 -192T40 -183V-40Q52 -42 66 -44T92 -46Q122 -46 138 -39T160 -13L164 1L-3 545H214L245 392Q250 366 254 341T263 296Q267 273 270 252H274Q279 275 283 299Q287 319 291 343T301
391L331 545H528L359 -42Q347 -83 330 -112T287 -160T228 -187T147 -196Z" />
<glyph unicode="z" glyph-name="z" horiz-adv-x="440" d="M14 150L181 395V398H16V545H428V408L250 150V147H424V0H14V150Z" />
<glyph unicode="{" glyph-name="braceleft" horiz-adv-x="367" d="M353 -118Q274 -117 221 -107T136 -75T91 -20T77 58V162Q77 201 60 214T12 230V386Q42 389 59 399T77 449V553Q77 598 90 632T136 690T221 724T353 737V579Q338 577 325 574T303 564T289 546T284
515V441Q284 389 260 356T169 309V306Q236 293 260 259T284 173V99Q284 80 289 69T303 52T325 44T353 40V-118Z" />
<glyph unicode="|" glyph-name="bar" horiz-adv-x="236" d="M39 735H197V-120H39V735Z" />
<glyph unicode="}" glyph-name="braceright" horiz-adv-x="367" d="M14 40Q29 42 41 44T63 53T77 71T82 103V179Q82 231 106 265T198 312V315Q130 328 106 361T82 447V518Q82 537 77 548T63 565T42 574T14 579V737Q92 736 145 725T230 692T276 636T290 557V456Q290
417 307 405T355 390V235Q324 232 307 220T290 169V62Q290 17 277 -16T231 -72T145 -106T14 -118V40Z" />
<glyph unicode="~" glyph-name="asciitilde" horiz-adv-x="417" d="M10 217Q11 271 22 306T50 364T89 395T135 404Q156 404 173 399T204 388T230 376T253 371Q265 371 271 379T280 401H407Q405 351 395 316T367 258T328 225T281 215Q260 215 244 220T213 231T187
242T164 247Q150 247 145 238T137 217H10Z" />
<glyph unicode="&#xa0;" glyph-name="uni00A0" horiz-adv-x="123" />
<glyph unicode="&#xa1;" glyph-name="exclamdown" horiz-adv-x="273" d="M47 348H225L258 -120H15L47 348ZM39 573H234V397H39V573Z" />
<glyph unicode="&#xa2;" glyph-name="cent" horiz-adv-x="437" d="M225 -5Q12 19 12 257V278Q12 415 81 484T285 553H298Q304 553 311 552L320 612H407L396 542Q411 539 425 534V383Q403 390 373 394L335 149Q361 149 385 153T427 162V21Q412 12 381 4T311 -7L294
-118H208L225 -5ZM223 261Q223 197 252 171L286 391Q257 383 240 362T223 297V261Z" />
<glyph unicode="&#xa3;" glyph-name="sterling" horiz-adv-x="503" d="M20 415H69V476Q69 536 87 579T139 649T221 690T331 703Q388 703 424 696T480 679V515Q463 520 443 521T401 523Q356 523 333 506T310 447V415H428V270H308Q302 232 283 209T237 170V168H492V0H18V158Q39
166 54 184T69 234V270H20V415Z" />
<glyph unicode="&#xa5;" glyph-name="yen" horiz-adv-x="595" d="M178 86H48V220H178V257H48V391H131L-6 693H244L275 594Q292 539 303 499Q309 477 314 459H316Q321 477 327 499Q332 518 339 542T355 594L387 693H601L464 391H548V257H419V220H548V86H419V0H178V86Z" />
<glyph unicode="&#xa6;" glyph-name="brokenbar" horiz-adv-x="264" d="M39 283H225V-120H39V283ZM39 735H225V366H39V735Z" />
<glyph unicode="&#xa7;" glyph-name="section" horiz-adv-x="521" d="M225 -130Q168 -130 123 -121T49 -97V47Q74 37 110 28T193 19Q233 19 248 27T264 52Q264 67 256 74T226 87L172 101Q134 110 104 122T53 154T21 200T10 266Q10 318 32 348T93 392Q70 411 56
442T41 521Q41 609 98 656T285 703Q339 703 378 696T444 677V534Q415 542 382 549T310 556Q275 556 263 550T250 527Q250 511 262 504T297 492L346 480Q386 471 417 459T469 429T501 383T512 316Q512 261 491 232T434 186Q456 168 468 141T480 64Q480 22 467 -14T424
-75T346 -115T225 -130ZM308 281Q308 296 299 305T255 324L241 328Q226 324 217 317T207 294Q207 283 212 276T232 261Q237 259 246 256T263 251Q264 250 265 250T268 249Q270 248 271 248Q308 256 308 281Z" />
<glyph unicode="&#xa8;" glyph-name="dieresis" horiz-adv-x="427" d="M232 729H401V576H232V729ZM26 729H195V576H26V729Z" />
<glyph unicode="&#xa9;" glyph-name="copyright" horiz-adv-x="666" d="M334 -11Q263 -11 205 13T105 82T40 194T17 345Q17 430 40 496T105 607T205 677T333 701Q402 701 460 677T560 608T626 496T650 345Q650 263 627 198T562 86T462 14T334 -11ZM333 45Q390
45 437 64T517 121T568 215T586 345Q586 417 568 473T517 567T436 625T332 645Q275 645 229 625T149 567T99 473T81 345Q81 271 99 215T150 122T229 65T333 45ZM353 141Q264 141 218 185T171 332V354Q171 409 185 446T224 507T283 541T356 551Q391 551 413 547T451
535V421Q443 423 432 425T407 427Q370 427 355 414T340 359V341Q340 297 352 281T403 264Q419 264 431 266T452 271V158Q437 153 414 147T353 141Z" />
<glyph unicode="&#xaa;" glyph-name="ordfeminine" horiz-adv-x="447" d="M145 211Q82 211 45 246T8 349Q8 387 19 413T53 456T105 483T174 499L237 510V519Q237 545 222 554T165 564Q133 564 100 560T46 550V673Q76 686 126 694T239 703Q333 703 380 668T428
547V219H267L256 250H252Q240 233 213 222T145 211ZM215 328Q223 328 228 330T237 335V417L219 416Q202 416 195 407T188 375Q188 349 194 339T215 328Z" />
<glyph unicode="&#xab;" glyph-name="guillemotleft" horiz-adv-x="491" d="M19 229V278L91 456H258L183 254L258 52H91L19 229ZM231 229V278L303 456H470L395 254L470 52H303L231 229Z" />
<glyph unicode="&#xae;" glyph-name="registered" horiz-adv-x="396" d="M199 300Q158 300 125 314T67 354T30 417T16 502Q16 548 29 585T67 648T124 689T198 703Q237 703 270 689T328 649T366 586T380 502Q380 457 367 420T329 356T272 315T199 300ZM198 334Q264
335 302 378T340 502Q340 579 302 624T198 669Q132 669 94 624T56 502Q56 422 94 379T198 334ZM114 609H214Q249 609 268 593T288 541Q288 523 281 510T263 491V489L295 400H221L198 468H188V400H114V609ZM198 516Q214 516 214 535Q214 555 198 555H187V516H198Z"
/>
<glyph unicode="&#xaf;" glyph-name="macron" horiz-adv-x="427" d="M71 704H357V576H71V704Z" />
<glyph unicode="&#xb0;" glyph-name="degree" horiz-adv-x="363" d="M182 399Q146 399 117 410T68 442T36 490T25 551Q25 583 36 610T67 658T117 689T182 701Q218 701 246 690T295 659T327 612T338 551Q338 518 327 491T296 443T247 411T182 399ZM182 493Q208
493 220 509T233 551Q233 575 221 591T182 608Q156 608 143 592T130 551Q130 526 143 510T182 493Z" />
<glyph unicode="&#xb4;" glyph-name="acute" horiz-adv-x="427" d="M153 735H361L273 576H107L153 735Z" />
<glyph unicode="&#xb6;" glyph-name="paragraph" horiz-adv-x="543" d="M241 320H219Q122 320 71 366T20 506Q20 594 68 643T217 693H514V-120H404V583H350V-120H241V320Z" />
<glyph unicode="&#xb7;" glyph-name="periodcentered" horiz-adv-x="228" d="M16 391H212V210H16V391Z" />
<glyph unicode="&#xb8;" glyph-name="cedilla" horiz-adv-x="427" d="M154 -154Q194 -152 212 -145T231 -122Q231 -108 220 -103T176 -96V16H263V-38Q317 -41 341 -61T366 -122Q366 -172 316 -198T154 -228V-154Z" />
<glyph unicode="&#xba;" glyph-name="ordmasculine" horiz-adv-x="475" d="M238 212Q123 212 67 274T11 446V470Q11 529 28 573T75 646T146 689T237 703Q464 703 464 474V451Q464 389 447 344T400 270T329 227T238 212ZM238 343Q257 343 264 360T272 432V479Q272
510 270 528T264 556T253 568T237 571Q228 571 222 568T211 555T205 528T203 482V434Q203 405 205 387T211 360T222 347T238 343Z" />
<glyph unicode="&#xbb;" glyph-name="guillemotright" horiz-adv-x="491" d="M96 254L21 456H188L260 278V229L188 52H21L96 254ZM308 254L233 456H400L472 278V229L400 52H233L308 254Z" />
<glyph unicode="&#xbc;" glyph-name="onequarter" horiz-adv-x="787" d="M70 550L13 545V637L129 693H236V266H70V550ZM525 713H661L226 -40H91L525 713ZM574 76H418V176L576 426H732V182H773V76H732V0H574V76ZM579 180V268H577L526 182V180H579Z" />
<glyph unicode="&#xbd;" glyph-name="onehalf" horiz-adv-x="813" d="M522 713H658L223 -40H88L522 713ZM70 550L13 545V637L129 693H236V266H70V550ZM501 103L567 172Q591 196 605 217T619 264Q619 290 606 301T568 312Q547 312 531 308T505 299V409Q523 417
555 425T635 433Q717 433 754 396T791 294Q791 245 771 209T709 139L680 115V113H789V0H501V103Z" />
<glyph unicode="&#xbe;" glyph-name="threequarters" horiz-adv-x="819" d="M140 261Q93 261 62 268T13 284V385Q29 380 47 378T86 376Q118 376 129 383T141 405Q141 421 132 427T103 433H62V530H103Q127 530 135 537T144 559Q144 570 133 578T90 586Q73 586 55
584T22 579V679Q42 687 73 693T146 699Q221 699 262 673T303 590Q303 548 283 524T231 490V488Q270 482 290 461T311 389Q311 328 268 295T140 261ZM555 710H691L256 -43H121L555 710ZM606 76H450V176L608 426H764V182H805V76H764V0H606V76ZM611 180V268H609L558
182V180H611Z" />
<glyph unicode="&#xbf;" glyph-name="questiondown" horiz-adv-x="414" d="M229 -130Q125 -130 68 -85T11 57Q11 91 16 117T33 163T59 199T94 232Q116 249 130 260T153 280T165 301T169 329V348H346V312Q346 287 344 268T334 232T314 200T280 166Q255 145 243
130T231 90Q231 64 249 50T315 36Q344 36 364 39T402 46V-104Q373 -115 329 -122T229 -130ZM158 573H354V397H158V573Z" />
<glyph unicode="&#xc0;" glyph-name="Agrave" horiz-adv-x="638" d="M174 693H461L641 0H400L381 93H232L214 0H-3L174 693ZM302 472Q300 454 296 432Q293 413 289 388T279 334L262 241H349L331 335Q325 364 321 389T313 433Q309 454 306 472H302ZM163 863H371L416
720H250L163 863Z" />
<glyph unicode="&#xc1;" glyph-name="Aacute" horiz-adv-x="638" d="M174 693H461L641 0H400L381 93H232L214 0H-3L174 693ZM302 472Q300 454 296 432Q293 413 289 388T279 334L262 241H349L331 335Q325 364 321 389T313 433Q309 454 306 472H302ZM273 862H481L394
720H229L273 862Z" />
<glyph unicode="&#xc2;" glyph-name="Acircumflex" horiz-adv-x="638" d="M174 693H461L641 0H400L381 93H232L214 0H-3L174 693ZM302 472Q300 454 296 432Q293 413 289 388T279 334L262 241H349L331 335Q325 364 321 389T313 433Q309 454 306 472H302ZM230 857H401L496
720H350L315 757L281 720H134L230 857Z" />
<glyph unicode="&#xc3;" glyph-name="Atilde" horiz-adv-x="638" d="M174 693H461L641 0H400L381 93H232L214 0H-3L174 693ZM302 472Q300 454 296 432Q293 413 289 388T279 334L262 241H349L331 335Q325 364 321 389T313 433Q309 454 306 472H302ZM141 720Q145
763 156 791T184 835T221 859T263 866Q280 866 295 862T322 854T344 846T362 842Q373 842 377 847T384 863H505Q501 820 490 792T462 747T425 723T383 716Q365 716 351 719T324 727T302 736T284 740Q273 740 268 735T261 720H141Z" />
<glyph unicode="&#xc4;" glyph-name="Adieresis" horiz-adv-x="638" d="M174 693H461L641 0H400L381 93H232L214 0H-3L174 693ZM302 472Q300 454 296 432Q293 413 289 388T279 334L262 241H349L331 335Q325 364 321 389T313 433Q309 454 306 472H302ZM334 863H507V720H334V863ZM122
863H295V720H122V863Z" />
<glyph unicode="&#xc5;" glyph-name="Aring" horiz-adv-x="638" d="M174 693H461L641 0H400L381 93H232L214 0H-3L174 693ZM302 472Q300 454 296 432Q293 413 289 388T279 334L262 241H349L331 335Q325 364 321 389T313 433Q309 454 306 472H302ZM318 707Q263
707 228 739T192 824Q192 877 226 909T318 942Q375 942 410 910T445 826Q445 772 410 740T318 707ZM318 785Q335 785 345 795T356 824Q356 844 346 854T318 865Q302 865 292 855T281 824Q281 807 291 796T318 785Z" />
<glyph unicode="&#xc6;" glyph-name="AE" horiz-adv-x="842" d="M266 693H813V525H616V434H779V270H616V168H826V0H383V108H243L205 0H-4L266 693ZM297 256H383V504H379L297 256Z" />
<glyph unicode="&#xc7;" glyph-name="Ccedilla" horiz-adv-x="512" d="M328 -10H313Q307 -10 300 -9V-38Q357 -40 379 -62T401 -122Q401 -173 351 -199T193 -228V-154Q233 -150 249 -144T266 -122Q266 -108 256 -103T214 -96V3Q117 29 67 106T16 326V361Q16 457
40 522T107 628T208 685T334 703Q389 703 429 696T492 679V512Q474 517 451 520T398 524Q329 524 300 489T271 370V339Q271 253 296 211T391 169Q428 169 453 174T495 184V19Q471 8 429 -1T328 -10Z" />
<glyph unicode="&#xc8;" glyph-name="Egrave" horiz-adv-x="505" d="M98 863H306L351 720H185L98 863ZM30 693H475V525H265V434H441V270H265V168H489V0H30V693Z" />
<glyph unicode="&#xc9;" glyph-name="Eacute" horiz-adv-x="505" d="M209 862H417L330 720H165L209 862ZM30 693H475V525H265V434H441V270H265V168H489V0H30V693Z" />
<glyph unicode="&#xca;" glyph-name="Ecircumflex" horiz-adv-x="505" d="M170 857H341L436 720H290L255 757L221 720H74L170 857ZM30 693H475V525H265V434H441V270H265V168H489V0H30V693Z" />
<glyph unicode="&#xcb;" glyph-name="Edieresis" horiz-adv-x="505" d="M30 693H475V525H265V434H441V270H265V168H489V0H30V693ZM274 863H447V720H274V863ZM62 863H235V720H62V863Z" />
<glyph unicode="&#xcc;" glyph-name="Igrave" horiz-adv-x="298" d="M31 693H269V0H31V693ZM247 863H455L500 720H334L247 863Z" />
<glyph unicode="&#xcd;" glyph-name="Iacute" horiz-adv-x="298" d="M31 693H269V0H31V693ZM363 862H571L484 720H319L363 862Z" />
<glyph unicode="&#xce;" glyph-name="Icircumflex" horiz-adv-x="298" d="M66 857H237L332 720H186L151 757L117 720H-30L66 857ZM31 693H269V0H31V693Z" />
<glyph unicode="&#xcf;" glyph-name="Idieresis" horiz-adv-x="298" d="M165 863H314V720H165V863ZM-17 863H133V720H-17V863ZM31 693H269V0H31V693Z" />
<glyph unicode="&#xd0;" glyph-name="Eth" horiz-adv-x="631" d="M7 426H38V693H303Q375 693 432 679T530 628T593 532T615 378V322Q615 230 592 169T527 70T428 16T304 0H38V268H7V426ZM304 167Q337 167 353 198T370 314V382Q370 424 366 451T354 495T334 519T305
526H273V426H329V268H273V167H304Z" />
<glyph unicode="&#xd1;" glyph-name="Ntilde" horiz-adv-x="629" d="M149 720Q153 763 164 791T192 835T229 859T271 866Q288 866 303 862T330 854T352 846T370 842Q381 842 385 847T392 863H513Q509 820 498 792T470 747T433 723T391 716Q373 716 359 719T332
727T310 736T292 740Q281 740 276 735T269 720H149ZM30 693H272L347 514Q358 487 369 459T389 408Q399 381 408 355H411Q409 375 407 404Q405 429 404 465T403 549V693H599V0H378L300 177Q284 212 270 247T245 312Q232 346 221 378H218Q220 351 222 315Q224 284
224 239T226 134V0H30V693Z" />
<glyph unicode="&#xd2;" glyph-name="Ograve" horiz-adv-x="642" d="M161 863H369L414 720H248L161 863ZM320 -10Q254 -10 198 8T102 67T39 171T16 324V369Q16 459 41 522T108 626T205 684T321 703Q385 703 440 686T537 631T602 529T626 374V331Q626 236 601 171T533
66T435 8T320 -10ZM322 163Q336 163 346 168T363 189T373 229T376 295V396Q376 439 373 465T362 506T345 525T320 530Q306 530 296 525T279 504T269 464T266 398V297Q266 254 269 228T280 187T297 168T322 163Z" />
<glyph unicode="&#xd3;" glyph-name="Oacute" horiz-adv-x="642" d="M269 862H477L390 720H225L269 862ZM320 -10Q254 -10 198 8T102 67T39 171T16 324V369Q16 459 41 522T108 626T205 684T321 703Q385 703 440 686T537 631T602 529T626 374V331Q626 236 601 171T533
66T435 8T320 -10ZM322 163Q336 163 346 168T363 189T373 229T376 295V396Q376 439 373 465T362 506T345 525T320 530Q306 530 296 525T279 504T269 464T266 398V297Q266 254 269 228T280 187T297 168T322 163Z" />
<glyph unicode="&#xd4;" glyph-name="Ocircumflex" horiz-adv-x="642" d="M236 857H407L502 720H356L321 757L287 720H140L236 857ZM320 -10Q254 -10 198 8T102 67T39 171T16 324V369Q16 459 41 522T108 626T205 684T321 703Q385 703 440 686T537 631T602 529T626
374V331Q626 236 601 171T533 66T435 8T320 -10ZM322 163Q336 163 346 168T363 189T373 229T376 295V396Q376 439 373 465T362 506T345 525T320 530Q306 530 296 525T279 504T269 464T266 398V297Q266 254 269 228T280 187T297 168T322 163Z" />
<glyph unicode="&#xd5;" glyph-name="Otilde" horiz-adv-x="642" d="M140 720Q144 763 155 791T183 835T220 859T262 866Q279 866 294 862T321 854T343 846T361 842Q372 842 376 847T383 863H504Q500 820 489 792T461 747T424 723T382 716Q364 716 350 719T323
727T301 736T283 740Q272 740 267 735T260 720H140ZM320 -10Q254 -10 198 8T102 67T39 171T16 324V369Q16 459 41 522T108 626T205 684T321 703Q385 703 440 686T537 631T602 529T626 374V331Q626 236 601 171T533 66T435 8T320 -10ZM322 163Q336 163 346 168T363
189T373 229T376 295V396Q376 439 373 465T362 506T345 525T320 530Q306 530 296 525T279 504T269 464T266 398V297Q266 254 269 228T280 187T297 168T322 163Z" />
<glyph unicode="&#xd6;" glyph-name="Odieresis" horiz-adv-x="642" d="M341 863H514V720H341V863ZM129 863H302V720H129V863ZM320 -10Q254 -10 198 8T102 67T39 171T16 324V369Q16 459 41 522T108 626T205 684T321 703Q385 703 440 686T537 631T602 529T626 374V331Q626
236 601 171T533 66T435 8T320 -10ZM322 163Q336 163 346 168T363 189T373 229T376 295V396Q376 439 373 465T362 506T345 525T320 530Q306 530 296 525T279 504T269 464T266 398V297Q266 254 269 228T280 187T297 168T322 163Z" />
<glyph unicode="&#xd7;" glyph-name="multiply" horiz-adv-x="484" d="M15 222L124 335L14 447L134 566L241 456L350 567L470 448L359 335L470 222L351 104L241 215L133 104L15 222Z" />
<glyph unicode="&#xd8;" glyph-name="Oslash" horiz-adv-x="642" d="M323 -10Q276 -10 232 1T149 35L123 0H3L78 101Q50 139 34 191T18 314V369Q18 459 42 522T109 626T206 684T324 703Q369 703 413 693T497 659L522 693H641L568 596Q597 558 613 506T630 384V331Q630
236 605 171T537 66T439 8T323 -10ZM325 157Q341 157 353 163T373 184T385 226T390 295V357L269 195Q277 172 291 165T325 157ZM258 340L378 501Q370 522 356 529T323 536Q307 536 295 530T275 509T262 467T258 399V340Z" />
<glyph unicode="&#xd9;" glyph-name="Ugrave" horiz-adv-x="613" d="M156 863H364L409 720H243L156 863ZM312 -10Q234 -10 180 5T92 51T42 127T26 232V693H263V230Q263 198 273 182T315 165Q346 165 356 182T367 230V693H587V232Q587 114 521 52T312 -10Z" />
<glyph unicode="&#xda;" glyph-name="Uacute" horiz-adv-x="613" d="M262 862H470L383 720H218L262 862ZM312 -10Q234 -10 180 5T92 51T42 127T26 232V693H263V230Q263 198 273 182T315 165Q346 165 356 182T367 230V693H587V232Q587 114 521 52T312 -10Z" />
<glyph unicode="&#xdb;" glyph-name="Ucircumflex" horiz-adv-x="613" d="M229 857H400L495 720H349L314 757L280 720H133L229 857ZM312 -10Q234 -10 180 5T92 51T42 127T26 232V693H263V230Q263 198 273 182T315 165Q346 165 356 182T367 230V693H587V232Q587
114 521 52T312 -10Z" />
<glyph unicode="&#xdc;" glyph-name="Udieresis" horiz-adv-x="613" d="M312 -10Q234 -10 180 5T92 51T42 127T26 232V693H263V230Q263 198 273 182T315 165Q346 165 356 182T367 230V693H587V232Q587 114 521 52T312 -10ZM333 863H506V720H333V863ZM121 863H294V720H121V863Z"
/>
<glyph unicode="&#xdd;" glyph-name="Yacute" horiz-adv-x="601" d="M185 254L-2 693H251L282 592Q290 566 297 543T309 502Q314 481 318 462H321Q324 480 329 501Q334 519 340 542T356 592L386 693H603L422 260V0H185V254ZM275 862H483L396 720H231L275 862Z" />
<glyph unicode="&#xde;" glyph-name="Thorn" horiz-adv-x="596" d="M30 693H271V590H340Q409 590 456 576T531 533T572 462T585 363Q585 305 573 261T532 188T456 144T341 129H271V0H30V693ZM301 274Q328 274 338 290T349 354Q349 379 346 394T337 417T323 428T303
431H271V274H301Z" />
<glyph unicode="&#xdf;" glyph-name="germandbls" horiz-adv-x="612" d="M409 -8Q359 -8 329 -3T270 11V148Q288 143 312 138T365 133Q407 133 407 158Q407 172 400 178T376 193L353 207Q307 235 286 266T264 348Q264 385 276 413T302 464T329 510T341 558Q341
578 330 589T298 600Q266 600 253 581T239 518V0H27V522Q27 641 99 692T304 744Q432 744 491 699T551 576Q551 538 535 510T501 459T466 419T450 386Q450 374 456 367T477 351L504 336Q527 323 546 309T578 275T599 231T606 171Q606 83 553 38T409 -8Z" />
<glyph unicode="&#xe0;" glyph-name="agrave" horiz-adv-x="497" d="M164 -8Q92 -8 50 31T7 149Q7 192 20 222T57 273T116 305T194 324L265 336V344Q265 373 248 384T184 395Q149 395 111 391T51 379V520Q86 534 140 543T266 553Q372 553 424 513T476 376V0H299L287
36H282Q268 16 239 4T164 -8ZM242 124Q250 124 256 126T265 132V226L245 225Q226 225 219 214T211 177Q211 147 218 136T242 124ZM96 735H303L350 576H183L96 735Z" />
<glyph unicode="&#xe1;" glyph-name="aacute" horiz-adv-x="497" d="M164 -8Q92 -8 50 31T7 149Q7 192 20 222T57 273T116 305T194 324L265 336V344Q265 373 248 384T184 395Q149 395 111 391T51 379V520Q86 534 140 543T266 553Q372 553 424 513T476 376V0H299L287
36H282Q268 16 239 4T164 -8ZM242 124Q250 124 256 126T265 132V226L245 225Q226 225 219 214T211 177Q211 147 218 136T242 124ZM217 735H425L337 576H171L217 735Z" />
<glyph unicode="&#xe2;" glyph-name="acircumflex" horiz-adv-x="497" d="M164 -8Q92 -8 50 31T7 149Q7 192 20 222T57 273T116 305T194 324L265 336V344Q265 373 248 384T184 395Q149 395 111 391T51 379V520Q86 534 140 543T266 553Q372 553 424 513T476 376V0H299L287
36H282Q268 16 239 4T164 -8ZM242 124Q250 124 256 126T265 132V226L245 225Q226 225 219 214T211 177Q211 147 218 136T242 124ZM173 735H344L439 576H293L259 622L225 576H78L173 735Z" />
<glyph unicode="&#xe3;" glyph-name="atilde" horiz-adv-x="497" d="M164 -8Q92 -8 50 31T7 149Q7 192 20 222T57 273T116 305T194 324L265 336V344Q265 373 248 384T184 395Q149 395 111 391T51 379V520Q86 534 140 543T266 553Q372 553 424 513T476 376V0H299L287
36H282Q268 16 239 4T164 -8ZM242 124Q250 124 256 126T265 132V226L245 225Q226 225 219 214T211 177Q211 147 218 136T242 124ZM75 581Q80 663 114 700T199 738Q220 738 235 734T262 724T284 715T305 710Q316 710 321 717T329 736H445Q439 655 404 617T318 579Q298
579 284 583T257 593T235 602T215 607Q204 607 199 600T191 581H75Z" />
<glyph unicode="&#xe4;" glyph-name="adieresis" horiz-adv-x="497" d="M164 -8Q92 -8 50 31T7 149Q7 192 20 222T57 273T116 305T194 324L265 336V344Q265 373 248 384T184 395Q149 395 111 391T51 379V520Q86 534 140 543T266 553Q372 553 424 513T476 376V0H299L287
36H282Q268 16 239 4T164 -8ZM242 124Q250 124 256 126T265 132V226L245 225Q226 225 219 214T211 177Q211 147 218 136T242 124ZM275 729H444V576H275V729ZM69 729H238V576H69V729Z" />
<glyph unicode="&#xe5;" glyph-name="aring" horiz-adv-x="497" d="M164 -8Q92 -8 50 31T7 149Q7 192 20 222T57 273T116 305T194 324L265 336V344Q265 373 248 384T184 395Q149 395 111 391T51 379V520Q86 534 140 543T266 553Q372 553 424 513T476 376V0H299L287
36H282Q268 16 239 4T164 -8ZM242 124Q250 124 256 126T265 132V226L245 225Q226 225 219 214T211 177Q211 147 218 136T242 124ZM258 573Q204 573 169 605T134 688Q134 739 168 771T258 803Q313 803 347 772T382 689Q382 637 348 605T258 573ZM258 649Q275 649
285 659T295 688Q295 707 285 717T258 727Q242 727 232 717T222 688Q222 671 231 660T258 649Z" />
<glyph unicode="&#xe6;" glyph-name="ae" horiz-adv-x="752" d="M536 -8Q396 -8 329 61Q300 24 261 8T167 -8Q93 -8 50 31T7 149Q7 192 20 221T57 270T116 301T194 320L266 332V344Q266 373 249 384T184 395Q149 395 111 391T51 379V520Q86 534 136 543T251 553Q340
553 380 516Q405 534 438 543T517 553Q582 553 625 535T694 480T731 392T742 271V218H472Q477 173 502 157T584 140Q622 140 659 149T719 166V35Q689 18 644 5T536 -8ZM282 142Q276 161 272 182T266 226H246Q226 226 219 215T211 178Q211 147 219 136T243 124Q255
124 264 129T282 142ZM510 414Q501 414 494 411T483 399T475 372T471 325H545Q545 353 543 370T537 397T526 410T510 414Z" />
<glyph unicode="&#xe7;" glyph-name="ccedilla" horiz-adv-x="413" d="M247 -8V-38Q301 -41 325 -61T350 -122Q350 -172 300 -198T138 -228V-154Q178 -152 196 -145T215 -122Q215 -108 204 -103T160 -96V5Q84 28 48 90T12 257V278Q12 415 76 484T270 553Q317 553
347 548T398 535V381Q381 387 364 390T321 394Q281 394 256 374T231 296V262Q231 202 249 177T318 151Q343 151 363 155T400 164V20Q382 9 347 1T264 -8H247Z" />
<glyph unicode="&#xe8;" glyph-name="egrave" horiz-adv-x="506" d="M286 -8Q146 -8 79 59T12 264V281Q12 342 27 392T74 478T152 533T262 553Q329 553 374 535T446 480T484 392T496 271V218H226Q231 173 256 157T338 140Q376 140 413 149T473 166V35Q443 18 396
5T286 -8ZM264 414Q255 414 248 411T237 399T229 371T225 324H299Q299 352 297 369T291 397T280 410T264 414ZM100 735H307L354 576H187L100 735Z" />
<glyph unicode="&#xe9;" glyph-name="eacute" horiz-adv-x="506" d="M222 735H430L342 576H176L222 735ZM286 -8Q146 -8 79 59T12 264V281Q12 342 27 392T74 478T152 533T262 553Q329 553 374 535T446 480T484 392T496 271V218H226Q231 173 256 157T338 140Q376
140 413 149T473 166V35Q443 18 396 5T286 -8ZM264 414Q255 414 248 411T237 399T229 371T225 324H299Q299 352 297 369T291 397T280 410T264 414Z" />
<glyph unicode="&#xea;" glyph-name="ecircumflex" horiz-adv-x="506" d="M177 735H348L443 576H297L263 622L229 576H82L177 735ZM286 -8Q146 -8 79 59T12 264V281Q12 342 27 392T74 478T152 533T262 553Q329 553 374 535T446 480T484 392T496 271V218H226Q231
173 256 157T338 140Q376 140 413 149T473 166V35Q443 18 396 5T286 -8ZM264 414Q255 414 248 411T237 399T229 371T225 324H299Q299 352 297 369T291 397T280 410T264 414Z" />
<glyph unicode="&#xeb;" glyph-name="edieresis" horiz-adv-x="506" d="M284 729H453V576H284V729ZM78 729H247V576H78V729ZM286 -8Q146 -8 79 59T12 264V281Q12 342 27 392T74 478T152 533T262 553Q329 553 374 535T446 480T484 392T496 271V218H226Q231 173
256 157T338 140Q376 140 413 149T473 166V35Q443 18 396 5T286 -8ZM264 414Q255 414 248 411T237 399T229 371T225 324H299Q299 352 297 369T291 397T280 410T264 414Z" />
<glyph unicode="&#xec;" glyph-name="igrave" horiz-adv-x="260" d="M24 545H236V0H24V545ZM223 735H430L477 576H310L223 735Z" />
<glyph unicode="&#xed;" glyph-name="iacute" horiz-adv-x="260" d="M347 735H555L467 576H301L347 735ZM24 545H236V0H24V545Z" />
<glyph unicode="&#xee;" glyph-name="icircumflex" horiz-adv-x="260" d="M44 735H214L304 576H160L129 622L99 576H-46L44 735ZM25 545H237V0H25V545Z" />
<glyph unicode="&#xef;" glyph-name="idieresis" horiz-adv-x="260" d="M146 729H306V576H146V729ZM-48 729H111V576H-48V729ZM24 545H236V0H24V545Z" />
<glyph unicode="&#xf0;" glyph-name="eth" horiz-adv-x="543" d="M159 648Q136 672 112 693T64 735H296Q309 727 321 718T346 699L438 725L457 652L411 639Q465 580 497 501T529 316V292Q529 214 511 157T460 64T378 10T270 -8Q139 -8 76 56T12 257V284Q12 350
26 397T64 473T122 517T193 531Q213 531 228 527T253 517H257Q247 535 236 551T213 585L94 552L74 625L159 648ZM311 310Q311 333 309 355T301 399Q296 401 289 403T273 405Q261 405 253 402T240 387T232 357T230 306V258Q230 218 232 194T239 157T252 140T271
135Q294 135 302 160T311 253V310Z" />
<glyph unicode="&#xf1;" glyph-name="ntilde" horiz-adv-x="534" d="M23 545H228V498H232Q257 521 290 537T374 553Q439 553 476 522T513 414V0H301V359Q301 376 292 381T269 386Q259 386 250 384T234 380V0H23V545ZM88 581Q93 663 127 700T212 738Q233 738 248
734T275 724T297 715T318 710Q329 710 334 717T342 736H458Q452 655 417 617T331 579Q311 579 297 583T270 593T248 602T228 607Q217 607 212 600T204 581H88Z" />
<glyph unicode="&#xf2;" glyph-name="ograve" horiz-adv-x="540" d="M270 -8Q139 -8 76 62T12 259V287Q12 355 31 405T84 488T165 537T269 553Q528 553 528 291V265Q528 195 509 144T456 59T374 9T270 -8ZM271 141Q281 141 288 145T300 161T307 192T310 243V298Q310
334 308 355T300 387T287 401T269 404Q258 404 251 401T239 386T232 354T230 301V246Q230 212 232 192T240 160T252 145T271 141ZM104 735H311L358 576H191L104 735Z" />
<glyph unicode="&#xf3;" glyph-name="oacute" horiz-adv-x="540" d="M226 735H434L346 576H180L226 735ZM270 -8Q139 -8 76 62T12 259V287Q12 355 31 405T84 488T165 537T269 553Q528 553 528 291V265Q528 195 509 144T456 59T374 9T270 -8ZM271 141Q281 141 288
145T300 161T307 192T310 243V298Q310 334 308 355T300 387T287 401T269 404Q258 404 251 401T239 386T232 354T230 301V246Q230 212 232 192T240 160T252 145T271 141Z" />
<glyph unicode="&#xf4;" glyph-name="ocircumflex" horiz-adv-x="540" d="M184 735H355L450 576H304L270 622L236 576H89L184 735ZM270 -8Q139 -8 76 62T12 259V287Q12 355 31 405T84 488T165 537T269 553Q528 553 528 291V265Q528 195 509 144T456 59T374 9T270
-8ZM271 141Q281 141 288 145T300 161T307 192T310 243V298Q310 334 308 355T300 387T287 401T269 404Q258 404 251 401T239 386T232 354T230 301V246Q230 212 232 192T240 160T252 145T271 141Z" />
<glyph unicode="&#xf5;" glyph-name="otilde" horiz-adv-x="540" d="M270 -8Q139 -8 76 62T12 259V287Q12 355 31 405T84 488T165 537T269 553Q528 553 528 291V265Q528 195 509 144T456 59T374 9T270 -8ZM271 141Q281 141 288 145T300 161T307 192T310 243V298Q310
334 308 355T300 387T287 401T269 404Q258 404 251 401T239 386T232 354T230 301V246Q230 212 232 192T240 160T252 145T271 141ZM84 581Q89 663 123 700T208 738Q229 738 244 734T271 724T293 715T314 710Q325 710 330 717T338 736H454Q448 655 413 617T327 579Q307
579 293 583T266 593T244 602T224 607Q213 607 208 600T200 581H84Z" />
<glyph unicode="&#xf6;" glyph-name="odieresis" horiz-adv-x="540" d="M288 729H457V576H288V729ZM82 729H251V576H82V729ZM270 -8Q139 -8 76 62T12 259V287Q12 355 31 405T84 488T165 537T269 553Q528 553 528 291V265Q528 195 509 144T456 59T374 9T270 -8ZM271
141Q281 141 288 145T300 161T307 192T310 243V298Q310 334 308 355T300 387T287 401T269 404Q258 404 251 401T239 386T232 354T230 301V246Q230 212 232 192T240 160T252 145T271 141Z" />
<glyph unicode="&#xf7;" glyph-name="divide" horiz-adv-x="452" d="M14 426H438V263H14V426ZM131 227H320V55H131V227ZM131 635H320V463H131V635Z" />
<glyph unicode="&#xf8;" glyph-name="oslash" horiz-adv-x="540" d="M271 -8Q229 -8 193 0T125 27L104 0H1L64 79Q39 111 26 153T12 249V287Q12 355 31 405T84 488T166 537T269 553Q309 553 345 546T413 521L432 545H535L476 470Q501 440 515 398T529 301V265Q529
195 510 144T457 59T375 9T271 -8ZM272 129Q298 129 309 152T321 243V274L229 158Q236 141 246 135T272 129ZM220 277L310 391Q303 406 294 411T270 416Q257 416 248 411T232 394T223 359T220 301V277Z" />
<glyph unicode="&#xf9;" glyph-name="ugrave" horiz-adv-x="532" d="M164 -8Q97 -8 60 25T22 140V545H233V184Q233 167 242 162T265 156Q274 156 283 158T298 162V545H509V0H323L309 47H305Q280 25 247 9T164 -8ZM104 735H311L358 576H191L104 735Z" />
<glyph unicode="&#xfa;" glyph-name="uacute" horiz-adv-x="532" d="M229 735H437L349 576H183L229 735ZM164 -8Q97 -8 60 25T22 140V545H233V184Q233 167 242 162T265 156Q274 156 283 158T298 162V545H509V0H323L309 47H305Q280 25 247 9T164 -8Z" />
<glyph unicode="&#xfb;" glyph-name="ucircumflex" horiz-adv-x="532" d="M185 735H356L451 576H305L271 622L237 576H90L185 735ZM164 -8Q97 -8 60 25T22 140V545H233V184Q233 167 242 162T265 156Q274 156 283 158T298 162V545H509V0H323L309 47H305Q280 25
247 9T164 -8Z" />
<glyph unicode="&#xfc;" glyph-name="udieresis" horiz-adv-x="532" d="M286 729H455V576H286V729ZM80 729H249V576H80V729ZM164 -8Q97 -8 60 25T22 140V545H233V184Q233 167 242 162T265 156Q274 156 283 158T298 162V545H509V0H323L309 47H305Q280 25 247 9T164 -8Z" />
<glyph unicode="&#xfd;" glyph-name="yacute" horiz-adv-x="525" d="M147 -196Q119 -196 90 -192T40 -183V-40Q52 -42 66 -44T92 -46Q122 -46 138 -39T160 -13L164 1L-3 545H214L245 392Q250 366 254 341T263 296Q267 273 270 252H274Q279 275 283 299Q287 319
291 343T301 391L331 545H528L359 -42Q347 -83 330 -112T287 -160T228 -187T147 -196ZM228 735H436L348 576H182L228 735Z" />
<glyph unicode="&#xfe;" glyph-name="thorn" horiz-adv-x="546" d="M26 739H238L237 503H241Q263 525 293 539T365 553Q400 553 431 541T484 500T520 425T533 311V270Q533 191 519 138T477 53T410 6T321 -8Q292 -8 270 -4T238 5V-195H26V739ZM267 129Q280 129
289 133T304 151T312 187T315 248V287Q315 321 312 341T304 371T290 385T270 389Q249 389 238 381V135Q243 133 250 131T267 129Z" />
<glyph unicode="&#xff;" glyph-name="ydieresis" horiz-adv-x="525" d="M147 -196Q119 -196 90 -192T40 -183V-40Q52 -42 66 -44T92 -46Q122 -46 138 -39T160 -13L164 1L-3 545H214L245 392Q250 366 254 341T263 296Q267 273 270 252H274Q279 275 283 299Q287
319 291 343T301 391L331 545H528L359 -42Q347 -83 330 -112T287 -160T228 -187T147 -196ZM289 729H458V576H289V729ZM83 729H252V576H83V729Z" />
<glyph unicode="&#x100;" glyph-name="Amacron" horiz-adv-x="638" d="M174 693H461L641 0H400L381 93H232L214 0H-3L174 693ZM302 472Q300 454 296 432Q293 413 289 388T279 334L262 241H349L331 335Q325 364 321 389T313 433Q309 454 306 472H302ZM170 843H463V720H170V843Z"
/>
<glyph unicode="&#x101;" glyph-name="amacron" horiz-adv-x="497" d="M164 -8Q92 -8 50 31T7 149Q7 192 20 222T57 273T116 305T194 324L265 336V344Q265 373 248 384T184 395Q149 395 111 391T51 379V520Q86 534 140 543T266 553Q372 553 424 513T476 376V0H299L287
36H282Q268 16 239 4T164 -8ZM242 124Q250 124 256 126T265 132V226L245 225Q226 225 219 214T211 177Q211 147 218 136T242 124ZM116 704H402V576H116V704Z" />
<glyph unicode="&#x102;" glyph-name="Abreve" horiz-adv-x="638" d="M174 693H461L641 0H400L381 93H232L214 0H-3L174 693ZM302 472Q300 454 296 432Q293 413 289 388T279 334L262 241H349L331 335Q325 364 321 389T313 433Q309 454 306 472H302ZM320 715Q281
715 252 726T202 756T171 802T158 858H286Q288 843 297 834T320 825Q334 825 343 834T354 858H484Q482 828 471 802T440 757T390 726T320 715Z" />
<glyph unicode="&#x103;" glyph-name="abreve" horiz-adv-x="497" d="M164 -8Q92 -8 50 31T7 149Q7 192 20 222T57 273T116 305T194 324L265 336V344Q265 373 248 384T184 395Q149 395 111 391T51 379V520Q86 534 140 543T266 553Q372 553 424 513T476 376V0H299L287
36H282Q268 16 239 4T164 -8ZM242 124Q250 124 256 126T265 132V226L245 225Q226 225 219 214T211 177Q211 147 218 136T242 124ZM265 576Q187 576 146 618T102 729H231Q234 695 265 695Q297 695 299 729H429Q427 660 385 618T265 576Z" />
<glyph unicode="&#x104;" glyph-name="Aogonek" horiz-adv-x="638" d="M539 -196Q481 -196 451 -172T421 -108Q421 -68 447 -43T508 0H395L376 93H227L209 0H-3L178 693H450L630 5Q579 -27 579 -57Q579 -70 586 -75T604 -81Q611 -81 616 -80T624 -79V-181Q612
-188 589 -192T539 -196ZM297 472Q295 454 291 432Q288 413 284 388T274 334L257 241H344L326 335Q320 364 316 389T308 433Q304 454 301 472H297Z" />
<glyph unicode="&#x105;" glyph-name="aogonek" horiz-adv-x="497" d="M164 -8Q92 -8 50 31T7 149Q7 192 20 222T57 271T116 302T194 321L265 333V344Q265 373 248 384T184 395Q149 395 111 391T51 379V520Q86 534 140 543T266 553Q372 553 424 513T476 376V4Q457
-11 446 -26T434 -57Q434 -70 441 -75T459 -81Q466 -81 472 -80T480 -79V-181Q467 -188 444 -192T395 -196Q336 -196 306 -172T276 -108Q276 -88 283 -72T301 -43T328 -19T359 0H299L287 36H282Q268 16 239 4T164 -8ZM242 124Q250 124 256 126T265 132V226L245
225Q226 225 219 214T211 177Q211 147 218 136T242 124Z" />
<glyph unicode="&#x106;" glyph-name="Cacute" horiz-adv-x="512" d="M328 -10Q252 -10 194 9T97 69T37 173T16 326V361Q16 457 40 522T107 628T208 685T334 703Q389 703 429 696T492 679V512Q474 517 451 520T398 524Q329 524 300 489T271 370V339Q271 253 296
211T391 169Q428 169 453 174T495 184V19Q471 8 429 -1T328 -10ZM257 862H465L378 720H213L257 862Z" />
<glyph unicode="&#x107;" glyph-name="cacute" horiz-adv-x="413" d="M188 735H396L308 576H142L188 735ZM264 -8Q133 -8 73 57T12 257V278Q12 415 76 484T270 553Q317 553 347 548T398 535V381Q381 387 364 390T321 394Q281 394 256 374T231 296V262Q231 202
249 177T318 151Q343 151 363 155T400 164V20Q382 9 347 1T264 -8Z" />
<glyph unicode="&#x108;" glyph-name="Ccircumflex" horiz-adv-x="512" d="M223 857H394L489 720H343L308 757L274 720H127L223 857ZM328 -10Q252 -10 194 9T97 69T37 173T16 326V361Q16 457 40 522T107 628T208 685T334 703Q389 703 429 696T492 679V512Q474
517 451 520T398 524Q329 524 300 489T271 370V339Q271 253 296 211T391 169Q428 169 453 174T495 184V19Q471 8 429 -1T328 -10Z" />
<glyph unicode="&#x109;" glyph-name="ccircumflex" horiz-adv-x="413" d="M149 735H320L415 576H269L235 622L201 576H54L149 735ZM264 -8Q133 -8 73 57T12 257V278Q12 415 76 484T270 553Q317 553 347 548T398 535V381Q381 387 364 390T321 394Q281 394 256
374T231 296V262Q231 202 249 177T318 151Q343 151 363 155T400 164V20Q382 9 347 1T264 -8Z" />
<glyph unicode="&#x10a;" glyph-name="Cdotaccent" horiz-adv-x="512" d="M328 -10Q252 -10 194 9T97 69T37 173T16 326V361Q16 457 40 522T107 628T208 685T334 703Q389 703 429 696T492 679V512Q474 517 451 520T398 524Q329 524 300 489T271 370V339Q271 253
296 211T391 169Q428 169 453 174T495 184V19Q471 8 429 -1T328 -10ZM208 863H410V720H208V863Z" />
<glyph unicode="&#x10b;" glyph-name="cdotaccent" horiz-adv-x="413" d="M264 -8Q133 -8 73 57T12 257V278Q12 415 76 484T270 553Q317 553 347 548T398 535V381Q381 387 364 390T321 394Q281 394 256 374T231 296V262Q231 202 249 177T318 151Q343 151 363 155T400
164V20Q382 9 347 1T264 -8ZM127 735H339V576H127V735Z" />
<glyph unicode="&#x10c;" glyph-name="Ccaron" horiz-adv-x="512" d="M390 720H219L123 857H270L304 821L339 857H485L390 720ZM328 -10Q252 -10 194 9T97 69T37 173T16 326V361Q16 457 40 522T107 628T208 685T334 703Q389 703 429 696T492 679V512Q474 517 451
520T398 524Q329 524 300 489T271 370V339Q271 253 296 211T391 169Q428 169 453 174T495 184V19Q471 8 429 -1T328 -10Z" />
<glyph unicode="&#x10d;" glyph-name="ccaron" horiz-adv-x="413" d="M321 576H150L55 735H202L236 689L270 735H416L321 576ZM264 -8Q133 -8 73 57T12 257V278Q12 415 76 484T270 553Q317 553 347 548T398 535V381Q381 387 364 390T321 394Q281 394 256 374T231
296V262Q231 202 249 177T318 151Q343 151 363 155T400 164V20Q382 9 347 1T264 -8Z" />
<glyph unicode="&#x10e;" glyph-name="Dcaron" horiz-adv-x="623" d="M370 720H199L103 857H250L284 821L319 857H465L370 720ZM30 693H296Q367 693 424 679T522 628T585 532T607 378V322Q607 230 584 169T519 70T420 16T296 0H30V693ZM294 167Q327 167 343 198T360
314V382Q360 424 356 451T344 495T324 519T295 526H267V167H294Z" />
<glyph unicode="&#x10f;" glyph-name="dcaron" horiz-adv-x="541" d="M544 578L547 735H675L648 578H544ZM193 -8Q154 -8 121 5T63 50T26 130T12 250V280Q12 357 27 409T71 493T138 539T225 553Q256 553 276 548T307 538V735H519V0H334L323 38H319Q298 19 269
6T193 -8ZM276 146Q296 146 307 154V404Q303 406 297 408T280 411Q267 411 258 406T243 388T234 352T231 292V254Q231 220 234 199T242 166T256 150T276 146Z" />
<glyph unicode="&#x110;" glyph-name="Dcroat" horiz-adv-x="623" d="M7 426H38V693H303Q375 693 432 679T530 628T593 532T615 378V322Q615 230 592 169T527 70T428 16T304 0H38V268H7V426ZM304 167Q337 167 353 198T370 314V382Q370 424 366 451T354 495T334
519T305 526H273V426H329V268H273V167H304Z" />
<glyph unicode="&#x111;" glyph-name="dcroat" horiz-adv-x="541" d="M202 680H307V735H519V680H563V590H519V0H334L323 38H319Q298 19 269 6T193 -8Q154 -8 121 5T63 50T26 130T12 250V280Q12 357 27 409T71 493T138 539T225 553Q256 553 276 548T307 538V590H202V680ZM276
146Q296 146 307 154V404Q303 406 297 408T280 411Q267 411 258 406T243 388T234 352T231 292V254Q231 220 234 199T242 166T256 150T276 146Z" />
<glyph unicode="&#x112;" glyph-name="Emacron" horiz-adv-x="505" d="M30 693H475V525H265V434H441V270H265V168H489V0H30V693ZM106 843H399V720H106V843Z" />
<glyph unicode="&#x113;" glyph-name="emacron" horiz-adv-x="506" d="M286 -8Q146 -8 79 59T12 264V281Q12 342 27 392T74 478T152 533T262 553Q329 553 374 535T446 480T484 392T496 271V218H226Q231 173 256 157T338 140Q376 140 413 149T473 166V35Q443 18
396 5T286 -8ZM264 414Q255 414 248 411T237 399T229 371T225 324H299Q299 352 297 369T291 397T280 410T264 414ZM123 704H409V576H123V704Z" />
<glyph unicode="&#x114;" glyph-name="Ebreve" horiz-adv-x="505" d="M30 693H475V525H265V434H441V270H265V168H489V0H30V693ZM255 715Q216 715 187 726T137 756T106 802T93 858H221Q223 843 232 834T255 825Q269 825 278 834T289 858H419Q417 828 406 802T375
757T325 726T255 715Z" />
<glyph unicode="&#x115;" glyph-name="ebreve" horiz-adv-x="506" d="M286 -8Q146 -8 79 59T12 264V281Q12 342 27 392T74 478T152 533T262 553Q329 553 374 535T446 480T484 392T496 271V218H226Q231 173 256 157T338 140Q376 140 413 149T473 166V35Q443 18
396 5T286 -8ZM264 414Q255 414 248 411T237 399T229 371T225 324H299Q299 352 297 369T291 397T280 410T264 414ZM262 576Q184 576 143 618T99 729H228Q231 695 262 695Q294 695 296 729H426Q424 660 382 618T262 576Z" />
<glyph unicode="&#x116;" glyph-name="Edotaccent" horiz-adv-x="505" d="M155 863H357V720H155V863ZM30 693H475V525H265V434H441V270H265V168H489V0H30V693Z" />
<glyph unicode="&#x117;" glyph-name="edotaccent" horiz-adv-x="506" d="M286 -8Q146 -8 79 59T12 264V281Q12 342 27 392T74 478T152 533T262 553Q329 553 374 535T446 480T484 392T496 271V218H226Q231 173 256 157T338 140Q376 140 413 149T473 166V35Q443
18 396 5T286 -8ZM264 414Q255 414 248 411T237 399T229 371T225 324H299Q299 352 297 369T291 397T280 410T264 414ZM161 735H373V576H161V735Z" />
<glyph unicode="&#x118;" glyph-name="Eogonek" horiz-adv-x="505" d="M447 0Q433 -14 423 -28T413 -57Q413 -81 438 -81Q445 -81 450 -80T458 -79V-181Q446 -188 423 -192T373 -196Q314 -196 284 -172T254 -108Q254 -70 277 -44T333 0H30V693H475V525H265V434H441V270H265V168H489V0H447Z"
/>
<glyph unicode="&#x119;" glyph-name="eogonek" horiz-adv-x="506" d="M343 -196Q284 -196 254 -172T224 -108Q224 -72 245 -48T295 -8H286Q146 -8 79 59T12 264V281Q12 342 27 392T74 478T152 533T262 553Q329 553 374 535T446 480T484 392T496 271V218H226Q231
175 256 158T338 140Q376 140 413 149T473 166V35Q459 25 446 16T420 -2Q403 -16 393 -29T383 -57Q383 -81 408 -81Q415 -81 420 -80T428 -79V-181Q416 -188 393 -192T343 -196ZM264 414Q255 414 248 411T237 399T229 371T225 324H299Q299 352 297 369T291 397T280
410T264 414Z" />
<glyph unicode="&#x11a;" glyph-name="Ecaron" horiz-adv-x="505" d="M338 720H167L71 857H218L252 821L287 857H433L338 720ZM30 693H475V525H265V434H441V270H265V168H489V0H30V693Z" />
<glyph unicode="&#x11b;" glyph-name="ecaron" horiz-adv-x="506" d="M349 576H178L83 735H230L264 689L298 735H444L349 576ZM286 -8Q146 -8 79 59T12 264V281Q12 342 27 392T74 478T152 533T262 553Q329 553 374 535T446 480T484 392T496 271V218H226Q231 173
256 157T338 140Q376 140 413 149T473 166V35Q443 18 396 5T286 -8ZM264 414Q255 414 248 411T237 399T229 371T225 324H299Q299 352 297 369T291 397T280 410T264 414Z" />
<glyph unicode="&#x11c;" glyph-name="Gcircumflex" horiz-adv-x="600" d="M244 857H415L510 720H364L329 757L295 720H148L244 857ZM337 -9Q261 -9 202 6T101 60T38 163T16 326V366Q16 462 40 526T109 630T215 686T351 703Q423 703 472 693T545 671V500Q522 507
486 514T402 521Q360 521 333 514T291 490T269 448T263 387V270Q263 210 276 185T330 159Q341 159 348 160T360 163V252H312V403H579V35Q562 27 537 20T479 6T411 -5T337 -9Z" />
<glyph unicode="&#x11d;" glyph-name="gcircumflex" horiz-adv-x="511" d="M166 735H337L432 576H286L252 622L218 576H71L166 735ZM233 -196Q104 -196 47 -165T-10 -80Q-10 -36 15 -14T80 20V25Q54 37 39 59T23 116Q23 155 43 182T91 229Q59 246 37 279T15 364V381Q15
424 31 456T77 509T148 542T241 553Q270 553 292 551T332 545H505V427H452Q456 419 459 407T462 381V369Q462 284 406 242T246 199Q207 199 183 202Q179 194 179 184Q179 173 186 169T210 164H334Q426 164 470 125T514 5Q514 -92 447 -144T233 -196ZM239 -73Q284
-73 301 -63T319 -35Q319 -17 307 -11T269 -5H190Q170 -17 170 -39Q170 -55 184 -64T239 -73ZM242 306Q256 306 264 317T272 367V380Q272 401 270 414T264 433T254 442T241 444Q225 444 218 432T210 381V369Q210 330 217 318T242 306Z" />
<glyph unicode="&#x11e;" glyph-name="Gbreve" horiz-adv-x="600" d="M331 715Q292 715 263 726T213 756T182 802T169 858H297Q299 843 308 834T331 825Q345 825 354 834T365 858H495Q493 828 482 802T451 757T401 726T331 715ZM337 -9Q261 -9 202 6T101 60T38
163T16 326V366Q16 462 40 526T109 630T215 686T351 703Q423 703 472 693T545 671V500Q522 507 486 514T402 521Q360 521 333 514T291 490T269 448T263 387V270Q263 210 276 185T330 159Q341 159 348 160T360 163V252H312V403H579V35Q562 27 537 20T479 6T411 -5T337
-9Z" />
<glyph unicode="&#x11f;" glyph-name="gbreve" horiz-adv-x="511" d="M233 -196Q104 -196 47 -165T-10 -80Q-10 -36 15 -14T80 20V25Q54 37 39 59T23 116Q23 155 43 182T91 229Q59 246 37 279T15 364V381Q15 424 31 456T77 509T148 542T241 553Q270 553 292 551T332
545H505V427H452Q456 419 459 407T462 381V369Q462 284 406 242T246 199Q207 199 183 202Q179 194 179 184Q179 173 186 169T210 164H334Q426 164 470 125T514 5Q514 -92 447 -144T233 -196ZM239 -73Q284 -73 301 -63T319 -35Q319 -17 307 -11T269 -5H190Q170 -17
170 -39Q170 -55 184 -64T239 -73ZM242 306Q256 306 264 317T272 367V380Q272 401 270 414T264 433T254 442T241 444Q225 444 218 432T210 381V369Q210 330 217 318T242 306ZM257 576Q179 576 138 618T94 729H223Q226 695 257 695Q289 695 291 729H421Q419 660
377 618T257 576Z" />
<glyph unicode="&#x120;" glyph-name="Gdotaccent" horiz-adv-x="600" d="M229 863H431V720H229V863ZM337 -9Q261 -9 202 6T101 60T38 163T16 326V366Q16 462 40 526T109 630T215 686T351 703Q423 703 472 693T545 671V500Q522 507 486 514T402 521Q360 521 333
514T291 490T269 448T263 387V270Q263 210 276 185T330 159Q341 159 348 160T360 163V252H312V403H579V35Q562 27 537 20T479 6T411 -5T337 -9Z" />
<glyph unicode="&#x121;" glyph-name="gdotaccent" horiz-adv-x="511" d="M233 -196Q104 -196 47 -165T-10 -80Q-10 -36 15 -14T80 20V25Q54 37 39 59T23 116Q23 155 43 182T91 229Q59 246 37 279T15 364V381Q15 424 31 456T77 509T148 542T241 553Q270 553 292
551T332 545H505V427H452Q456 419 459 407T462 381V369Q462 284 406 242T246 199Q207 199 183 202Q179 194 179 184Q179 173 186 169T210 164H334Q426 164 470 125T514 5Q514 -92 447 -144T233 -196ZM239 -73Q284 -73 301 -63T319 -35Q319 -17 307 -11T269 -5H190Q170
-17 170 -39Q170 -55 184 -64T239 -73ZM242 306Q256 306 264 317T272 367V380Q272 401 270 414T264 433T254 442T241 444Q225 444 218 432T210 381V369Q210 330 217 318T242 306ZM147 735H359V576H147V735Z" />
<glyph unicode="&#x122;" glyph-name="Gcommaaccent" horiz-adv-x="600" d="M247 -32H422L376 -182H235L247 -32ZM337 -9Q261 -9 202 6T101 60T38 163T16 326V366Q16 462 40 526T109 630T215 686T351 703Q423 703 472 693T545 671V500Q522 507 486 514T402 521Q360
521 333 514T291 490T269 448T263 387V270Q263 210 276 185T330 159Q341 159 348 160T360 163V252H312V403H579V35Q562 27 537 20T479 6T411 -5T337 -9Z" />
<glyph unicode="&#x123;" glyph-name="gcommaaccent" horiz-adv-x="511" d="M334 580H156L205 730H345L334 580ZM233 -196Q104 -196 47 -165T-10 -80Q-10 -36 15 -14T80 20V25Q54 37 39 59T23 116Q23 155 43 182T91 229Q59 246 37 279T15 364V381Q15 424 31 456T77
509T148 542T241 553Q270 553 292 551T332 545H505V427H452Q456 419 459 407T462 381V369Q462 284 406 242T246 199Q207 199 183 202Q179 194 179 184Q179 173 186 169T210 164H334Q426 164 470 125T514 5Q514 -92 447 -144T233 -196ZM239 -73Q284 -73 301 -63T319
-35Q319 -17 307 -11T269 -5H190Q170 -17 170 -39Q170 -55 184 -64T239 -73ZM242 306Q256 306 264 317T272 367V380Q272 401 270 414T264 433T254 442T241 444Q225 444 218 432T210 381V369Q210 330 217 318T242 306Z" />
<glyph unicode="&#x124;" glyph-name="Hcircumflex" horiz-adv-x="632" d="M30 693H267V440H365V693H602V0H365V270H267V0H30V693ZM229 857H400L495 720H349L314 757L280 720H133L229 857Z" />
<glyph unicode="&#x125;" glyph-name="hcircumflex" horiz-adv-x="534" d="M23 735H234V500H238Q261 522 293 537T375 553Q438 553 475 522T513 414V0H301V359Q301 376 292 381T269 386Q259 386 250 384T234 380V0H23V735ZM187 900H358L453 763H307L272 800L238
763H91L187 900Z" />
<glyph unicode="&#x126;" glyph-name="Hbar" horiz-adv-x="632" d="M-5 602H28V693H263V602H364V693H601V602H634V502H601V0H364V270H263V0H28V502H-5V602ZM364 436V502H263V436H364Z" />
<glyph unicode="&#x127;" glyph-name="hbar" horiz-adv-x="534" d="M-22 680H23V735H234V680H339V590H234V500H238Q261 522 293 537T375 553Q438 553 475 522T513 414V0H301V359Q301 376 292 381T269 386Q259 386 250 384T234 380V0H23V590H-22V680Z" />
<glyph unicode="&#x128;" glyph-name="Itilde" horiz-adv-x="298" d="M31 693H269V0H31V693ZM225 720Q229 763 240 791T268 835T305 859T347 866Q364 866 379 862T406 854T428 846T446 842Q457 842 461 847T468 863H589Q585 820 574 792T546 747T509 723T467 716Q449
716 435 719T408 727T386 736T368 740Q357 740 352 735T345 720H225Z" />
<glyph unicode="&#x129;" glyph-name="itilde" horiz-adv-x="260" d="M-42 585Q-38 628 -27 658T0 707T35 734T74 743Q90 743 103 739T128 729T147 720T163 715Q174 715 178 722T185 740H299Q296 697 285 667T258 618T223 591T184 582Q167 582 154 586T129 596T109
605T93 610Q83 610 79 603T71 585H-42ZM24 545H236V0H24V545Z" />
<glyph unicode="&#x12a;" glyph-name="Imacron" horiz-adv-x="298" d="M31 693H269V0H31V693ZM3 854H296V720H3V854Z" />
<glyph unicode="&#x12b;" glyph-name="imacron" horiz-adv-x="260" d="M1 705H259V576H1V705ZM24 545H236V0H24V545Z" />
<glyph unicode="&#x12c;" glyph-name="Ibreve" horiz-adv-x="298" d="M31 693H269V0H31V693ZM410 715Q371 715 342 726T292 756T261 802T248 858H376Q378 843 387 834T410 825Q424 825 433 834T444 858H574Q572 828 561 802T530 757T480 726T410 715Z" />
<glyph unicode="&#x12d;" glyph-name="ibreve" horiz-adv-x="260" d="M129 578Q53 578 16 619T-24 727H102Q104 696 129 696Q154 696 156 727H282Q280 660 243 619T129 578ZM24 545H236V0H24V545Z" />
<glyph unicode="&#x12e;" glyph-name="Iogonek" horiz-adv-x="298" d="M64 -108Q64 -69 88 -43T145 0H31V693H269V4Q247 -10 235 -26T222 -57Q222 -70 229 -75T247 -81Q255 -81 260 -80T268 -79V-181Q255 -188 232 -192T182 -196Q124 -196 94 -172T64 -108Z" />
<glyph unicode="&#x12f;" glyph-name="iogonek" horiz-adv-x="260" d="M35 -108Q35 -69 59 -43T115 0H24V545H236V3Q216 -11 205 -26T194 -57Q194 -81 219 -81Q226 -81 231 -80T239 -79V-181Q227 -188 204 -192T154 -196Q95 -196 65 -172T35 -108ZM23 735H237V576H23V735Z"
/>
<glyph unicode="&#x130;" glyph-name="Idotaccent" horiz-adv-x="298" d="M31 693H269V0H31V693ZM307 863H509V720H307V863Z" />
<glyph unicode="&#x131;" glyph-name="dotlessi" horiz-adv-x="259" d="M24 545H236V0H24V545Z" />
<glyph unicode="&#x132;" glyph-name="IJ" horiz-adv-x="680" d="M446 -7Q393 -7 358 1T301 21V182Q309 180 321 178T348 176Q380 176 400 188T420 238V693H658V199Q658 152 646 114T609 49T543 8T446 -7ZM31 693H269V0H31V693Z" />
<glyph unicode="&#x133;" glyph-name="ij" horiz-adv-x="260" d="M24 545H236V0H24V545ZM23 735H237V576H23V735ZM305 -195Q269 -195 242 -189T201 -176V-44Q211 -46 228 -46Q254 -46 268 -35T282 6V545H494V-17Q494 -59 484 -92T452 -148T393 -183T305 -195ZM281
735H495V576H281V735Z" />
<glyph unicode="&#x134;" glyph-name="Jcircumflex" horiz-adv-x="404" d="M172 857H343L438 720H292L257 757L223 720H76L172 857ZM161 -7Q107 -7 71 1T13 22V182Q21 180 35 178T64 176Q98 176 119 188T141 238V693H378V199Q378 152 366 114T327 49T260 8T161 -7Z" />
<glyph unicode="&#x135;" glyph-name="jcircumflex" horiz-adv-x="261" d="M43 735H214L304 576H160L129 622L98 576H-47L43 735ZM48 -195Q12 -195 -15 -189T-56 -176V-44Q-46 -46 -29 -46Q-2 -46 12 -35T26 6V545H237V-17Q237 -59 227 -92T195 -148T136 -183T48 -195Z" />
<glyph unicode="&#x136;" glyph-name="Kcommaaccent" horiz-adv-x="627" d="M229 -32H404L358 -182H217L229 -32ZM30 693H267V419L388 693H630L475 372L641 0H377L267 284V0H30V693Z" />
<glyph unicode="&#x137;" glyph-name="kcommaaccent" horiz-adv-x="533" d="M185 -32H360L314 -182H173L185 -32ZM234 345L326 545H534L412 299L536 0H315L234 222V0H23V735H234V345Z" />
<glyph unicode="&#x139;" glyph-name="Lacute" horiz-adv-x="468" d="M355 862H563L476 720H311L355 862ZM30 693H267V168H454V0H30V693Z" />
<glyph unicode="&#x13a;" glyph-name="lacute" horiz-adv-x="259" d="M341 905H549L462 763H297L341 905ZM24 735H236V0H24V735Z" />
<glyph unicode="&#x13b;" glyph-name="Lcommaaccent" horiz-adv-x="467" d="M162 -32H337L291 -182H150L162 -32ZM30 693H267V168H454V0H30V693Z" />
<glyph unicode="&#x13c;" glyph-name="lcommaaccent" horiz-adv-x="259" d="M305 -32H480L434 -182H293L305 -32ZM24 735H236V0H24V735Z" />
<glyph unicode="&#x13d;" glyph-name="Lcaron" horiz-adv-x="468" d="M293 506L300 693H453L422 506H293ZM30 693H267V168H454V0H30V693Z" />
<glyph unicode="&#x13e;" glyph-name="lcaron" horiz-adv-x="259" d="M259 578L262 735H390L363 578H259ZM24 735H236V0H24V735Z" />
<glyph unicode="&#x13f;" glyph-name="Ldot" horiz-adv-x="468" d="M304 442H471V287H304V442ZM30 693H267V168H454V0H30V693Z" />
<glyph unicode="&#x140;" glyph-name="ldot" horiz-adv-x="430" d="M266 433H424V284H266V433ZM24 735H236V0H24V735Z" />
<glyph unicode="&#x141;" glyph-name="Lslash" horiz-adv-x="475" d="M2 356L40 369V693H275V450L395 493V334L275 291V168H462V0H40V210L2 197V356Z" />
<glyph unicode="&#x142;" glyph-name="lslash" horiz-adv-x="290" d="M0 385L38 404V735H250V507L291 527V368L250 347V0H38V245L0 226V385Z" />
<glyph unicode="&#x143;" glyph-name="Nacute" horiz-adv-x="629" d="M282 862H490L403 720H238L282 862ZM30 693H272L347 514Q358 487 369 459T389 408Q399 381 408 355H411Q409 375 407 404Q405 429 404 465T403 549V693H599V0H378L300 177Q284 212 270 247T245
312Q232 346 221 378H218Q220 351 222 315Q224 284 224 239T226 134V0H30V693Z" />
<glyph unicode="&#x144;" glyph-name="nacute" horiz-adv-x="534" d="M219 735H427L339 576H173L219 735ZM23 545H228V498H232Q257 521 290 537T374 553Q439 553 476 522T513 414V0H301V359Q301 376 292 381T269 386Q259 386 250 384T234 380V0H23V545Z" />
<glyph unicode="&#x145;" glyph-name="Ncommaaccent" horiz-adv-x="629" d="M234 -29H409L363 -179H222L234 -29ZM30 693H272L347 514Q358 487 369 459T389 408Q399 381 408 355H411Q409 375 407 404Q405 429 404 465T403 549V693H599V0H378L300 177Q284 212 270
247T245 312Q232 346 221 378H218Q220 351 222 315Q224 284 224 239T226 134V0H30V693Z" />
<glyph unicode="&#x146;" glyph-name="ncommaaccent" horiz-adv-x="534" d="M186 -32H361L315 -182H174L186 -32ZM23 545H228V498H232Q257 521 290 537T374 553Q439 553 476 522T513 414V0H301V359Q301 376 292 381T269 386Q259 386 250 384T234 380V0H23V545Z" />
<glyph unicode="&#x147;" glyph-name="Ncaron" horiz-adv-x="629" d="M409 720H238L142 857H289L323 821L358 857H504L409 720ZM30 693H272L347 514Q358 487 369 459T389 408Q399 381 408 355H411Q409 375 407 404Q405 429 404 465T403 549V693H599V0H378L300
177Q284 212 270 247T245 312Q232 346 221 378H218Q220 351 222 315Q224 284 224 239T226 134V0H30V693Z" />
<glyph unicode="&#x148;" glyph-name="ncaron" horiz-adv-x="534" d="M359 576H188L93 735H240L274 689L308 735H454L359 576ZM23 545H228V498H232Q257 521 290 537T374 553Q439 553 476 522T513 414V0H301V359Q301 376 292 381T269 386Q259 386 250 384T234 380V0H23V545Z"
/>
<glyph unicode="&#x149;" glyph-name="napostrophe" horiz-adv-x="650" d="M209 693H396L351 459H194L209 693ZM139 545H344V498H348Q373 521 406 537T490 553Q555 553 592 522T629 414V0H417V359Q417 376 408 381T385 386Q375 386 366 384T350 380V0H139V545Z" />
<glyph unicode="&#x14a;" glyph-name="Eng" horiz-adv-x="629" d="M30 693H271L345 513Q355 490 365 463T386 412L408 356H411Q409 382 407 413Q405 439 404 474T403 549V693H599V10Q599 -35 589 -70T554 -128T489 -164T390 -177Q348 -177 319 -169T275 -153V-23Q281
-25 294 -27T323 -29Q351 -29 366 -24T388 -4L305 177Q292 204 278 238T251 304Q236 340 221 378H218Q220 344 222 304Q224 270 224 226T226 134V0H30V693Z" />
<glyph unicode="&#x14b;" glyph-name="eng" horiz-adv-x="534" d="M327 -195Q289 -195 263 -189T222 -177L223 -48Q233 -50 249 -50Q275 -50 288 -39T301 2V359Q301 376 292 381T269 386Q259 386 250 384T234 380V0H23V545H228V498H232Q257 521 290 537T374 553Q439
553 476 522T513 414V-17Q513 -101 471 -148T327 -195Z" />
<glyph unicode="&#x14c;" glyph-name="Omacron" horiz-adv-x="642" d="M174 843H467V720H174V843ZM320 -10Q254 -10 198 8T102 67T39 171T16 324V369Q16 459 41 522T108 626T205 684T321 703Q385 703 440 686T537 631T602 529T626 374V331Q626 236 601 171T533
66T435 8T320 -10ZM322 163Q336 163 346 168T363 189T373 229T376 295V396Q376 439 373 465T362 506T345 525T320 530Q306 530 296 525T279 504T269 464T266 398V297Q266 254 269 228T280 187T297 168T322 163Z" />
<glyph unicode="&#x14d;" glyph-name="omacron" horiz-adv-x="540" d="M127 704H413V576H127V704ZM270 -8Q139 -8 76 62T12 259V287Q12 355 31 405T84 488T165 537T269 553Q528 553 528 291V265Q528 195 509 144T456 59T374 9T270 -8ZM271 141Q281 141 288 145T300
161T307 192T310 243V298Q310 334 308 355T300 387T287 401T269 404Q258 404 251 401T239 386T232 354T230 301V246Q230 212 232 192T240 160T252 145T271 141Z" />
<glyph unicode="&#x14e;" glyph-name="Obreve" horiz-adv-x="642" d="M320 715Q281 715 252 726T202 756T171 802T158 858H286Q288 843 297 834T320 825Q334 825 343 834T354 858H484Q482 828 471 802T440 757T390 726T320 715ZM320 -10Q254 -10 198 8T102 67T39
171T16 324V369Q16 459 41 522T108 626T205 684T321 703Q385 703 440 686T537 631T602 529T626 374V331Q626 236 601 171T533 66T435 8T320 -10ZM322 163Q336 163 346 168T363 189T373 229T376 295V396Q376 439 373 465T362 506T345 525T320 530Q306 530 296 525T279
504T269 464T266 398V297Q266 254 269 228T280 187T297 168T322 163Z" />
<glyph unicode="&#x14f;" glyph-name="obreve" horiz-adv-x="540" d="M270 -8Q139 -8 76 62T12 259V287Q12 355 31 405T84 488T165 537T269 553Q528 553 528 291V265Q528 195 509 144T456 59T374 9T270 -8ZM271 141Q281 141 288 145T300 161T307 192T310 243V298Q310
334 308 355T300 387T287 401T269 404Q258 404 251 401T239 386T232 354T230 301V246Q230 212 232 192T240 160T252 145T271 141ZM269 576Q191 576 150 618T106 729H235Q238 695 269 695Q301 695 303 729H433Q431 660 389 618T269 576Z" />
<glyph unicode="&#x150;" glyph-name="Ohungarumlaut" horiz-adv-x="642" d="M385 863H567L500 720H342L385 863ZM174 863H355L289 720H131L174 863ZM320 -10Q254 -10 198 8T102 67T39 171T16 324V369Q16 459 41 522T108 626T205 684T321 703Q385 703 440 686T537
631T602 529T626 374V331Q626 236 601 171T533 66T435 8T320 -10ZM322 163Q336 163 346 168T363 189T373 229T376 295V396Q376 439 373 465T362 506T345 525T320 530Q306 530 296 525T279 504T269 464T266 398V297Q266 254 269 228T280 187T297 168T322 163Z" />
<glyph unicode="&#x151;" glyph-name="ohungarumlaut" horiz-adv-x="540" d="M335 735H516L454 576H297L335 735ZM129 735H310L248 576H91L129 735ZM270 -8Q139 -8 76 62T12 259V287Q12 355 31 405T84 488T165 537T269 553Q528 553 528 291V265Q528 195 509 144T456
59T374 9T270 -8ZM271 141Q281 141 288 145T300 161T307 192T310 243V298Q310 334 308 355T300 387T287 401T269 404Q258 404 251 401T239 386T232 354T230 301V246Q230 212 232 192T240 160T252 145T271 141Z" />
<glyph unicode="&#x152;" glyph-name="OE" horiz-adv-x="821" d="M327 0Q254 0 197 16T99 70T38 170T16 326V369Q16 458 37 519T99 619T195 675T319 693H791V525H594V434H757V270H594V168H805V0H327ZM358 165V528H332Q314 528 302 523T283 503T272 459T268 385V311Q268
264 271 236T282 192T302 171T331 165H358Z" />
<glyph unicode="&#x153;" glyph-name="oe" horiz-adv-x="806" d="M262 -8Q136 -8 74 62T12 259V287Q12 355 31 405T83 488T161 537T260 553Q319 553 359 538T426 495Q449 522 484 537T571 553Q635 553 678 535T747 480T784 392T796 271V218H525Q530 173 555 157T638
140Q676 140 712 149T772 166V35Q742 18 698 5T599 -8Q536 -8 493 9T423 57Q368 -8 262 -8ZM271 141Q281 141 288 145T300 161T307 192T310 243V298Q310 334 308 355T300 387T287 401T269 404Q258 404 251 401T239 386T232 354T230 301V246Q230 212 232 192T240
160T252 145T271 141ZM564 414Q555 414 548 411T536 399T528 371T524 324H598Q598 352 596 369T590 397T580 410T564 414Z" />
<glyph unicode="&#x154;" glyph-name="Racute" horiz-adv-x="606" d="M237 862H445L358 720H193L237 862ZM30 693H337Q462 693 522 642T583 472Q583 404 561 365T501 303V300L611 0H372L295 233H267V0H30V693ZM296 371Q325 371 336 392T347 456Q347 496 336 515T295
535H263V371H296Z" />
<glyph unicode="&#x155;" glyph-name="racute" horiz-adv-x="375" d="M153 735H361L273 576H107L153 735ZM23 545H228V483H232Q269 551 338 551Q356 551 364 548V351Q358 353 344 354T316 355Q292 355 272 353T234 344V0H23V545Z" />
<glyph unicode="&#x156;" glyph-name="Rcommaaccent" horiz-adv-x="606" d="M228 -32H403L357 -182H216L228 -32ZM30 693H337Q462 693 522 642T583 472Q583 404 561 365T501 303V300L611 0H372L295 233H267V0H30V693ZM296 371Q325 371 336 392T347 456Q347 496
336 515T295 535H263V371H296Z" />
<glyph unicode="&#x157;" glyph-name="rcommaaccent" horiz-adv-x="377" d="M301 -32H476L430 -182H289L301 -32ZM23 545H228V483H232Q269 551 338 551Q356 551 364 548V351Q358 353 344 354T316 355Q292 355 272 353T234 344V0H23V545Z" />
<glyph unicode="&#x158;" glyph-name="Rcaron" horiz-adv-x="606" d="M375 720H204L108 857H255L289 821L324 857H470L375 720ZM30 693H337Q462 693 522 642T583 472Q583 404 561 365T501 303V300L611 0H372L295 233H267V0H30V693ZM296 371Q325 371 336 392T347
456Q347 496 336 515T295 535H263V371H296Z" />
<glyph unicode="&#x159;" glyph-name="rcaron" horiz-adv-x="375" d="M304 576H133L38 735H185L219 689L253 735H399L304 576ZM23 545H228V483H232Q269 551 338 551Q356 551 364 548V351Q358 353 344 354T316 355Q292 355 272 353T234 344V0H23V545Z" />
<glyph unicode="&#x15a;" glyph-name="Sacute" horiz-adv-x="499" d="M220 -9Q161 -9 107 -1T19 24V195Q53 183 93 174T182 165Q223 165 240 172T258 200Q258 219 246 226T201 246L163 260Q81 290 47 343T12 478Q12 583 75 643T269 703Q343 703 383 696T449 676V509Q419
519 382 525T299 532Q265 532 251 525T236 500Q236 482 252 475T294 459L334 446Q370 434 398 418T447 376T477 315T488 232Q488 110 420 51T220 -9ZM203 862H411L324 720H159L203 862Z" />
<glyph unicode="&#x15b;" glyph-name="sacute" horiz-adv-x="418" d="M157 735H365L277 576H111L157 735ZM178 -8Q129 -8 85 0T14 22V163Q40 154 71 146T142 137Q180 137 193 142T206 161Q206 175 196 179L166 191L125 206Q69 226 40 267T10 373Q10 465 66 509T228
553Q275 553 311 548T377 532V392Q351 400 322 405T255 410Q228 410 216 407T204 388Q204 376 216 372T247 361L282 350Q344 330 375 293T406 186Q406 85 351 39T178 -8Z" />
<glyph unicode="&#x15c;" glyph-name="Scircumflex" horiz-adv-x="499" d="M169 857H340L435 720H289L254 757L220 720H73L169 857ZM220 -9Q161 -9 107 -1T19 24V195Q53 183 93 174T182 165Q223 165 240 172T258 200Q258 219 246 226T201 246L163 260Q81 290 47
343T12 478Q12 583 75 643T269 703Q343 703 383 696T449 676V509Q419 519 382 525T299 532Q265 532 251 525T236 500Q236 482 252 475T294 459L334 446Q370 434 398 418T447 376T477 315T488 232Q488 110 420 51T220 -9Z" />
<glyph unicode="&#x15d;" glyph-name="scircumflex" horiz-adv-x="418" d="M128 735H299L394 576H248L214 622L180 576H33L128 735ZM178 -8Q129 -8 85 0T14 22V163Q40 154 71 146T142 137Q180 137 193 142T206 161Q206 175 196 179L166 191L125 206Q69 226 40
267T10 373Q10 465 66 509T228 553Q275 553 311 548T377 532V392Q351 400 322 405T255 410Q228 410 216 407T204 388Q204 376 216 372T247 361L282 350Q344 330 375 293T406 186Q406 85 351 39T178 -8Z" />
<glyph unicode="&#x15e;" glyph-name="Scedilla" horiz-adv-x="499" d="M142 -154Q182 -152 200 -145T219 -122Q219 -108 208 -103T164 -96V-7Q120 -3 82 4T19 24V195Q53 183 93 174T182 165Q223 165 240 172T258 200Q258 219 246 226T201 246L163 260Q81 290
47 343T12 478Q12 583 75 643T269 703Q343 703 383 696T449 676V509Q419 519 382 525T299 532Q265 532 251 525T236 500Q236 482 252 475T294 459L334 446Q370 434 398 418T447 376T477 315T488 232Q488 117 427 58T251 -8V-38Q305 -41 329 -61T354 -122Q354 -172
304 -198T142 -228V-154Z" />
<glyph unicode="&#x15f;" glyph-name="scedilla" horiz-adv-x="418" d="M109 -154Q149 -152 167 -145T186 -122Q186 -108 175 -103T131 -96V-6Q96 -3 65 4T14 22V163Q40 154 71 146T142 137Q180 137 193 142T206 161Q206 175 196 179L166 191L125 206Q69 226 40
267T10 373Q10 465 66 509T228 553Q275 553 311 548T377 532V392Q351 400 322 405T255 410Q228 410 216 407T204 388Q204 376 216 372T247 361L282 350Q344 330 375 293T406 186Q406 94 360 48T218 -6V-38Q272 -41 296 -61T321 -122Q321 -172 271 -198T109 -228V-154Z"
/>
<glyph unicode="&#x160;" glyph-name="Scaron" horiz-adv-x="499" d="M334 720H163L67 857H214L248 821L283 857H429L334 720ZM220 -9Q161 -9 107 -1T19 24V195Q53 183 93 174T182 165Q223 165 240 172T258 200Q258 219 246 226T201 246L163 260Q81 290 47 343T12
478Q12 583 75 643T269 703Q343 703 383 696T449 676V509Q419 519 382 525T299 532Q265 532 251 525T236 500Q236 482 252 475T294 459L334 446Q370 434 398 418T447 376T477 315T488 232Q488 110 420 51T220 -9Z" />
<glyph unicode="&#x161;" glyph-name="scaron" horiz-adv-x="418" d="M553 576H382L287 735H434L468 689L502 735H648L553 576ZM178 -8Q129 -8 85 0T14 22V163Q40 154 71 146T142 137Q180 137 193 142T206 161Q206 175 196 179L166 191L125 206Q69 226 40 267T10
373Q10 465 66 509T228 553Q275 553 311 548T377 532V392Q351 400 322 405T255 410Q228 410 216 407T204 388Q204 376 216 372T247 361L282 350Q344 330 375 293T406 186Q406 85 351 39T178 -8Z" />
<glyph unicode="&#x162;" glyph-name="Tcommaaccent" horiz-adv-x="529" d="M180 -32H355L309 -182H168L180 -32ZM146 525H11V693H518V525H383V0H146V525Z" />
<glyph unicode="&#x163;" glyph-name="tcommaaccent" horiz-adv-x="361" d="M379 -32H554L508 -182H367L379 -32ZM224 -8Q183 -8 152 -1T99 23T68 68T57 140V399H5V545H57V666H269V545H346V399H269V180Q269 163 278 156T308 149Q318 149 327 150T344 153V15Q330
6 297 -1T224 -8Z" />
<glyph unicode="&#x164;" glyph-name="Tcaron" horiz-adv-x="529" d="M350 720H179L83 857H230L264 821L299 857H445L350 720ZM146 525H11V693H518V525H383V0H146V525Z" />
<glyph unicode="&#x165;" glyph-name="tcaron" horiz-adv-x="361" d="M298 578L301 735H429L402 578H298ZM224 -8Q183 -8 152 -1T99 23T68 68T57 140V399H5V545H57V666H269V545H346V399H269V180Q269 163 278 156T308 149Q318 149 327 150T344 153V15Q330 6 297
-1T224 -8Z" />
<glyph unicode="&#x166;" glyph-name="Tbar" horiz-adv-x="529" d="M48 410H146V525H11V693H518V525H383V410H480V292H383V0H146V292H48V410Z" />
<glyph unicode="&#x167;" glyph-name="tbar" horiz-adv-x="361" d="M5 346H57V399H5V545H57V666H269V545H346V399H269V346H346V246H269V180Q269 163 278 156T308 149Q318 149 327 150T344 153V15Q330 6 297 -1T224 -8Q183 -8 152 -1T99 23T68 68T57 140V246H5V346Z" />
<glyph unicode="&#x168;" glyph-name="Utilde" horiz-adv-x="613" d="M312 -10Q234 -10 180 5T92 51T42 127T26 232V693H263V230Q263 198 273 182T315 165Q346 165 356 182T367 230V693H587V232Q587 114 521 52T312 -10ZM134 720Q138 763 149 791T177 835T214
859T256 866Q273 866 288 862T315 854T337 846T355 842Q366 842 370 847T377 863H498Q494 820 483 792T455 747T418 723T376 716Q358 716 344 719T317 727T295 736T277 740Q266 740 261 735T254 720H134Z" />
<glyph unicode="&#x169;" glyph-name="utilde" horiz-adv-x="532" d="M164 -8Q97 -8 60 25T22 140V545H233V184Q233 167 242 162T265 156Q274 156 283 158T298 162V545H509V0H323L309 47H305Q280 25 247 9T164 -8ZM83 581Q88 663 122 700T207 738Q228 738 243
734T270 724T292 715T313 710Q324 710 329 717T337 736H453Q447 655 412 617T326 579Q306 579 292 583T265 593T243 602T223 607Q212 607 207 600T199 581H83Z" />
<glyph unicode="&#x16a;" glyph-name="Umacron" horiz-adv-x="613" d="M312 -10Q234 -10 180 5T92 51T42 127T26 232V693H263V230Q263 198 273 182T315 165Q346 165 356 182T367 230V693H587V232Q587 114 521 52T312 -10ZM168 843H461V720H168V843Z" />
<glyph unicode="&#x16b;" glyph-name="umacron" horiz-adv-x="532" d="M164 -8Q97 -8 60 25T22 140V545H233V184Q233 167 242 162T265 156Q274 156 283 158T298 162V545H509V0H323L309 47H305Q280 25 247 9T164 -8ZM125 704H411V576H125V704Z" />
<glyph unicode="&#x16c;" glyph-name="Ubreve" horiz-adv-x="613" d="M312 -10Q234 -10 180 5T92 51T42 127T26 232V693H263V230Q263 198 273 182T315 165Q346 165 356 182T367 230V693H587V232Q587 114 521 52T312 -10ZM314 715Q275 715 246 726T196 756T165
802T152 858H280Q282 843 291 834T314 825Q328 825 337 834T348 858H478Q476 828 465 802T434 757T384 726T314 715Z" />
<glyph unicode="&#x16d;" glyph-name="ubreve" horiz-adv-x="532" d="M164 -8Q97 -8 60 25T22 140V545H233V184Q233 167 242 162T265 156Q274 156 283 158T298 162V545H509V0H323L309 47H305Q280 25 247 9T164 -8ZM267 576Q189 576 148 618T104 729H233Q236 695
267 695Q299 695 301 729H431Q429 660 387 618T267 576Z" />
<glyph unicode="&#x16e;" glyph-name="Uring" horiz-adv-x="613" d="M312 -10Q234 -10 180 5T92 51T42 127T26 232V693H263V230Q263 198 273 182T315 165Q346 165 356 182T367 230V693H587V232Q587 114 521 52T312 -10ZM314 956Q259 956 224 988T188 1073Q188
1126 222 1158T314 1191Q371 1191 406 1159T441 1075Q441 1021 406 989T314 956ZM314 1034Q331 1034 341 1044T352 1073Q352 1093 342 1103T314 1114Q298 1114 288 1104T277 1073Q277 1056 287 1045T314 1034Z" />
<glyph unicode="&#x16f;" glyph-name="uring" horiz-adv-x="532" d="M267 573Q213 573 178 605T143 688Q143 739 177 771T267 803Q322 803 356 772T391 689Q391 637 357 605T267 573ZM267 649Q284 649 294 659T304 688Q304 707 294 717T267 727Q251 727 241 717T231
688Q231 671 240 660T267 649ZM164 -8Q97 -8 60 25T22 140V545H233V184Q233 167 242 162T265 156Q274 156 283 158T298 162V545H509V0H323L309 47H305Q280 25 247 9T164 -8Z" />
<glyph unicode="&#x170;" glyph-name="Uhungarumlaut" horiz-adv-x="613" d="M378 863H560L493 720H335L378 863ZM167 863H348L282 720H124L167 863ZM312 -10Q234 -10 180 5T92 51T42 127T26 232V693H263V230Q263 198 273 182T315 165Q346 165 356 182T367 230V693H587V232Q587
114 521 52T312 -10Z" />
<glyph unicode="&#x171;" glyph-name="uhungarumlaut" horiz-adv-x="532" d="M164 -8Q97 -8 60 25T22 140V545H233V184Q233 167 242 162T265 156Q274 156 283 158T298 162V545H509V0H323L309 47H305Q280 25 247 9T164 -8ZM328 735H509L447 576H290L328 735ZM122
735H303L241 576H84L122 735Z" />
<glyph unicode="&#x172;" glyph-name="Uogonek" horiz-adv-x="613" d="M587 232Q587 145 553 91T445 9Q432 4 419 -2T396 -17T380 -35T374 -57Q374 -71 381 -76T399 -81Q406 -81 411 -80T419 -79V-181Q407 -188 384 -192T334 -196Q276 -196 246 -172T216 -108Q216
-73 235 -49T280 -9H270Q140 -1 83 60T26 232V693H263V230Q263 198 273 182T315 165Q346 165 356 182T367 230V693H587V232Z" />
<glyph unicode="&#x173;" glyph-name="uogonek" horiz-adv-x="532" d="M427 -196Q368 -196 338 -172T308 -108Q308 -88 315 -72T333 -43T360 -19T391 0H323L309 47H305Q280 25 247 9T164 -8Q97 -8 60 25T22 140V545H233V184Q233 167 242 162T265 156Q274 156 283
158T298 162V545H509V5Q490 -10 479 -26T467 -57Q467 -81 492 -81Q499 -81 504 -80T512 -79V-181Q500 -188 477 -192T427 -196Z" />
<glyph unicode="&#x174;" glyph-name="Wcircumflex" horiz-adv-x="868" d="M359 857H530L625 720H479L444 757L410 720H263L359 857ZM3 693H238L268 482Q273 451 277 421T285 366Q289 338 293 312H296Q299 338 303 366Q306 390 311 420T321 483L357 693H539L574
483Q579 451 583 421T592 366Q596 338 599 312H602Q606 335 610 362Q614 385 618 416T629 483L662 693H865L732 0H497L463 199Q458 228 454 256T446 307Q442 333 439 357H436Q432 332 428 305Q424 282 420 254T411 199L377 0H136L3 693Z" />
<glyph unicode="&#x175;" glyph-name="wcircumflex" horiz-adv-x="729" d="M295 735H466L561 576H415L381 622L347 576H200L295 735ZM1 545H210L234 399Q239 370 242 346T247 304Q250 283 252 267H254Q256 284 260 304Q263 321 267 345T276 399L301 545H461L486
399Q491 370 494 346T501 304Q505 283 507 267H510Q511 285 514 306Q516 324 519 348T528 400L551 545H728L611 0H413L390 114Q385 138 381 163T373 209Q369 233 365 256H363Q359 233 355 208Q351 187 347 162T338 114L315 0H120L1 545Z" />
<glyph unicode="&#x176;" glyph-name="Ycircumflex" horiz-adv-x="601" d="M185 254L-2 693H251L282 592Q290 566 297 543T309 502Q314 481 318 462H321Q324 480 329 501Q334 519 340 542T356 592L386 693H603L422 260V0H185V254ZM235 857H406L501 720H355L320
757L286 720H139L235 857Z" />
<glyph unicode="&#x177;" glyph-name="ycircumflex" horiz-adv-x="525" d="M147 -196Q119 -196 90 -192T40 -183V-40Q52 -42 66 -44T92 -46Q122 -46 138 -39T160 -13L164 1L-3 545H214L245 392Q250 366 254 341T263 296Q267 273 270 252H274Q279 275 283 299Q287
319 291 343T301 391L331 545H528L359 -42Q347 -83 330 -112T287 -160T228 -187T147 -196ZM184 735H355L450 576H304L270 622L236 576H89L184 735Z" />
<glyph unicode="&#x178;" glyph-name="Ydieresis" horiz-adv-x="601" d="M185 254L-2 693H251L282 592Q290 566 297 543T309 502Q314 481 318 462H321Q324 480 329 501Q334 519 340 542T356 592L386 693H603L422 260V0H185V254ZM338 863H511V720H338V863ZM126
863H299V720H126V863Z" />
<glyph unicode="&#x179;" glyph-name="Zacute" horiz-adv-x="519" d="M219 862H427L340 720H175L219 862ZM23 162L227 522V525H30V693H489V531L286 171V168H497V0H23V162Z" />
<glyph unicode="&#x17a;" glyph-name="zacute" horiz-adv-x="440" d="M174 735H382L294 576H128L174 735ZM14 150L181 395V398H16V545H428V408L250 150V147H424V0H14V150Z" />
<glyph unicode="&#x17b;" glyph-name="Zdotaccent" horiz-adv-x="519" d="M23 162L227 522V525H30V693H489V531L286 171V168H497V0H23V162ZM172 863H374V720H172V863Z" />
<glyph unicode="&#x17c;" glyph-name="zdotaccent" horiz-adv-x="440" d="M14 150L181 395V398H16V545H428V408L250 150V147H424V0H14V150ZM120 735H332V576H120V735Z" />
<glyph unicode="&#x17d;" glyph-name="Zcaron" horiz-adv-x="519" d="M351 720H180L84 857H231L265 821L300 857H446L351 720ZM23 162L227 522V525H30V693H489V531L286 171V168H497V0H23V162Z" />
<glyph unicode="&#x17e;" glyph-name="zcaron" horiz-adv-x="440" d="M313 576H142L47 735H194L228 689L262 735H408L313 576ZM14 150L181 395V398H16V545H428V408L250 150V147H424V0H14V150Z" />
<glyph unicode="&#x192;" glyph-name="florin" horiz-adv-x="433" d="M31 416H92L103 505Q116 607 171 653T321 700Q358 700 385 694T427 679V539Q419 541 411 542T392 544Q366 544 354 532T337 481L329 416H402V270H312L285 21Q273 -82 222 -131T62 -181Q30 -181
3 -174T-33 -162V-23Q-28 -25 -21 -26T-5 -27Q15 -27 28 -16T45 24L74 270H31V416Z" />
<glyph unicode="&#x1fa;" glyph-name="Aringacute" horiz-adv-x="638" d="M174 693H461L641 0H400L381 93H232L214 0H-3L174 693ZM302 472Q300 454 296 432Q293 413 289 388T279 334L262 241H349L331 335Q325 364 321 389T313 433Q309 454 306 472H302ZM284 1097H492L405
955H240L284 1097ZM320 707Q265 707 230 739T194 824Q194 877 228 909T320 942Q377 942 412 910T447 826Q447 772 412 740T320 707ZM320 785Q337 785 347 795T358 824Q358 844 348 854T320 865Q304 865 294 855T283 824Q283 807 293 796T320 785Z" />
<glyph unicode="&#x1fb;" glyph-name="aringacute" horiz-adv-x="497" d="M164 -8Q92 -8 50 31T7 149Q7 192 20 222T57 273T116 305T194 324L265 336V344Q265 373 248 384T184 395Q149 395 111 391T51 379V520Q86 534 140 543T266 553Q372 553 424 513T476 376V0H299L287
36H282Q268 16 239 4T164 -8ZM242 124Q250 124 256 126T265 132V226L245 225Q226 225 219 214T211 177Q211 147 218 136T242 124ZM265 573Q211 573 176 605T141 688Q141 739 175 771T265 803Q320 803 354 772T389 689Q389 637 355 605T265 573ZM265 649Q282 649
292 659T302 688Q302 707 292 717T265 727Q249 727 239 717T229 688Q229 671 238 660T265 649ZM225 965H433L346 823H181L225 965Z" />
<glyph unicode="&#x1fc;" glyph-name="AEacute" horiz-adv-x="842" d="M478 862H686L599 720H434L478 862ZM266 693H813V525H616V434H779V270H616V168H826V0H383V108H243L205 0H-4L266 693ZM297 256H383V504H379L297 256Z" />
<glyph unicode="&#x1fd;" glyph-name="aeacute" horiz-adv-x="752" d="M352 735H560L472 576H306L352 735ZM536 -8Q396 -8 329 61Q300 24 261 8T167 -8Q93 -8 50 31T7 149Q7 192 20 221T57 270T116 301T194 320L266 332V344Q266 373 249 384T184 395Q149 395 111
391T51 379V520Q86 534 136 543T251 553Q340 553 380 516Q405 534 438 543T517 553Q582 553 625 535T694 480T731 392T742 271V218H472Q477 173 502 157T584 140Q622 140 659 149T719 166V35Q689 18 644 5T536 -8ZM282 142Q276 161 272 182T266 226H246Q226 226
219 215T211 178Q211 147 219 136T243 124Q255 124 264 129T282 142ZM510 414Q501 414 494 411T483 399T475 372T471 325H545Q545 353 543 370T537 397T526 410T510 414Z" />
<glyph unicode="&#x1fe;" glyph-name="Oslashacute" horiz-adv-x="642" d="M323 -10Q276 -10 232 1T149 35L123 0H3L78 101Q50 139 34 191T18 314V369Q18 459 42 522T109 626T206 684T324 703Q369 703 413 693T497 659L522 693H641L568 596Q597 558 613 506T630
384V331Q630 236 605 171T537 66T439 8T323 -10ZM325 157Q341 157 353 163T373 184T385 226T390 295V357L269 195Q277 172 291 165T325 157ZM258 340L378 501Q370 522 356 529T323 536Q307 536 295 530T275 509T262 467T258 399V340ZM269 862H477L390 720H225L269
862Z" />
<glyph unicode="&#x1ff;" glyph-name="oslashacute" horiz-adv-x="540" d="M271 -8Q229 -8 193 0T125 27L104 0H1L64 79Q39 111 26 153T12 249V287Q12 355 31 405T84 488T166 537T269 553Q309 553 345 546T413 521L432 545H535L476 470Q501 440 515 398T529 301V265Q529
195 510 144T457 59T375 9T271 -8ZM272 129Q298 129 309 152T321 243V274L229 158Q236 141 246 135T272 129ZM220 277L310 391Q303 406 294 411T270 416Q257 416 248 411T232 394T223 359T220 301V277ZM219 735H427L339 576H173L219 735Z" />
<glyph unicode="&#x218;" glyph-name="Scommaaccent" horiz-adv-x="499" d="M156 -32H331L285 -182H144L156 -32ZM220 -9Q161 -9 107 -1T19 24V195Q53 183 93 174T182 165Q223 165 240 172T258 200Q258 219 246 226T201 246L163 260Q81 290 47 343T12 478Q12 583
75 643T269 703Q343 703 383 696T449 676V509Q419 519 382 525T299 532Q265 532 251 525T236 500Q236 482 252 475T294 459L334 446Q370 434 398 418T447 376T477 315T488 232Q488 110 420 51T220 -9Z" />
<glyph unicode="&#x219;" glyph-name="scommaaccent" horiz-adv-x="418" d="M375 -32H550L504 -182H363L375 -32ZM178 -8Q129 -8 85 0T14 22V163Q40 154 71 146T142 137Q180 137 193 142T206 161Q206 175 196 179L166 191L125 206Q69 226 40 267T10 373Q10 465
66 509T228 553Q275 553 311 548T377 532V392Q351 400 322 405T255 410Q228 410 216 407T204 388Q204 376 216 372T247 361L282 350Q344 330 375 293T406 186Q406 85 351 39T178 -8Z" />
<glyph unicode="&#x21a;" glyph-name="uni021A" horiz-adv-x="529" d="M180 -32H355L309 -182H168L180 -32ZM146 525H11V693H518V525H383V0H146V525Z" />
<glyph unicode="&#x21b;" glyph-name="uni021B" horiz-adv-x="361" d="M379 -32H554L508 -182H367L379 -32ZM224 -8Q183 -8 152 -1T99 23T68 68T57 140V399H5V545H57V666H269V545H346V399H269V180Q269 163 278 156T308 149Q318 149 327 150T344 153V15Q330 6 297
-1T224 -8Z" />
<glyph unicode="&#x237;" glyph-name="uni0237" horiz-adv-x="261" d="M48 -195Q12 -195 -15 -189T-56 -176V-44Q-46 -46 -29 -46Q-2 -46 12 -35T26 6V545H237V-17Q237 -59 227 -92T195 -148T136 -183T48 -195Z" />
<glyph unicode="&#x2c6;" glyph-name="circumflex" horiz-adv-x="427" d="M128 735H299L394 576H248L214 622L180 576H33L128 735Z" />
<glyph unicode="&#x2c7;" glyph-name="caron" horiz-adv-x="427" d="M299 576H128L33 735H180L214 689L248 735H394L299 576Z" />
<glyph unicode="&#x2d8;" glyph-name="breve" horiz-adv-x="427" d="M213 576Q135 576 94 618T50 729H179Q182 695 213 695Q245 695 247 729H377Q375 660 333 618T213 576Z" />
<glyph unicode="&#x2d9;" glyph-name="dotaccent" horiz-adv-x="427" d="M107 735H319V576H107V735Z" />
<glyph unicode="&#x2da;" glyph-name="ring" horiz-adv-x="427" d="M213 573Q159 573 124 605T89 688Q89 739 123 771T213 803Q268 803 302 772T337 689Q337 637 303 605T213 573ZM213 649Q230 649 240 659T250 688Q250 707 240 717T213 727Q197 727 187 717T177
688Q177 671 186 660T213 649Z" />
<glyph unicode="&#x2db;" glyph-name="ogonek" horiz-adv-x="427" d="M214 -196Q155 -196 125 -172T95 -108Q95 -88 102 -72T120 -43T147 -19T178 0H288Q275 -13 265 -27T254 -57Q254 -81 279 -81Q286 -81 291 -80T299 -79V-181Q287 -188 264 -192T214 -196Z" />
<glyph unicode="&#x2dc;" glyph-name="tilde" horiz-adv-x="427" d="M29 581Q34 663 68 700T153 738Q174 738 189 734T216 724T238 715T259 710Q270 710 275 717T283 736H399Q393 655 358 617T272 579Q252 579 238 583T211 593T189 602T169 607Q158 607 153 600T145
581H29Z" />
<glyph unicode="&#x2dd;" glyph-name="hungarumlaut" horiz-adv-x="427" d="M278 735H459L397 576H240L278 735ZM72 735H253L191 576H34L72 735Z" />
</font>
</defs>
</svg>
