<?xml version="1.0" standalone="no"?> <!DOCTYPE svg PUBLIC "-//W3C//DTD SVG 1.0//EN" "http://www.w3.org/TR/2001/REC-SVG-20010904/DTD/svg10.dtd" > <svg xmlns="http://www.w3.org/2000/svg" width="100%" height="100%">
<defs >
<font horiz-adv-x="486" ><font-face
    font-family=""
    units-per-em="1000"
    panose-1="2 11 10 3 3 2 2 6 2 3"
    ascent="809"
    descent="-191"
    alphabetic="0" />
<missing-glyph horiz-adv-x="425" />
<glyph unicode=" " glyph-name="space" horiz-adv-x="129" />
<glyph unicode="!" glyph-name="exclam" horiz-adv-x="273" d="M93 693H309L205 222H47L93 693ZM30 163H206L180 0H4L30 163Z" />
<glyph unicode="&quot;" glyph-name="quotedbl" horiz-adv-x="414" d="M288 693H457L406 468H268L288 693ZM86 693H254L203 468H65L86 693Z" />
<glyph unicode="#" glyph-name="numbersign" horiz-adv-x="497" d="M81 542H151L186 693H307L273 542H336L371 693H493L458 542H516L494 396H424L404 302H463L440 156H370L334 0H214L248 156H185L150 0H29L64 156H5L28 302H97L118 396H58L81 542ZM218 302H282L303
396H240L218 302Z" />
<glyph unicode="$" glyph-name="dollar" horiz-adv-x="487" d="M87 3Q59 9 35 18T-8 40L17 181Q44 167 73 156T137 140L189 284L179 288Q48 342 48 479Q48 497 50 516T58 553Q82 631 144 667T308 703H322Q329 703 340 702L363 765H443L416 692Q442 686 462 678T498
662L474 523Q454 532 428 541T367 555L320 425L325 423Q405 391 435 345T465 228Q465 182 451 140Q428 69 366 31T198 -8H182Q174 -8 164 -7L124 -117H44L87 3ZM289 207Q289 236 258 254L215 135Q239 136 253 142T276 162Q289 178 289 207ZM220 501Q220 486 226
475T250 454L289 560Q263 558 250 553T228 535Q223 526 222 517T220 501Z" />
<glyph unicode="%" glyph-name="percent" horiz-adv-x="823" d="M205 316Q130 316 89 354T48 465Q48 511 59 554T94 630T154 683T240 703Q312 703 354 668T397 557Q397 506 384 462T346 386T286 335T205 316ZM608 -8Q533 -8 492 30T451 139Q451 186 462 229T498
305T558 358T642 378Q715 378 757 343T800 232Q800 181 787 137T750 61T689 11T608 -8ZM114 -40L599 713H721L235 -40H114ZM209 411Q223 411 233 427T251 490L258 545Q261 564 261 574Q261 609 237 609Q220 609 211 593T194 530Q185 470 185 448Q185 411 209 411ZM611
86Q626 86 636 102T654 164Q659 202 661 220T664 250Q664 265 658 274T639 284Q623 284 614 268T597 205Q588 145 588 123Q588 86 611 86Z" />
<glyph unicode="&amp;" glyph-name="ampersand" horiz-adv-x="638" d="M220 -9Q114 -9 58 38T2 174Q2 216 14 250T49 311T100 358T165 393Q153 417 146 444T138 504Q138 546 152 582T193 645T263 687T362 703Q411 703 446 691T505 659T539 611T550 553Q550 486
512 443T396 365L450 267Q460 287 466 309T478 357H619Q608 292 584 239T521 140L600 0H385L367 30Q332 10 297 1T220 -9ZM259 122Q271 122 283 125T306 135L224 284Q207 263 199 243T191 197Q191 165 207 144T259 122ZM344 454Q369 475 380 496T392 548Q392 588
362 588Q345 588 334 573T323 523Q323 507 329 489T344 454Z" />
<glyph unicode="&apos;" glyph-name="quotesingle" horiz-adv-x="212" d="M87 693H256L203 468H65L87 693Z" />
<glyph unicode="(" glyph-name="parenleft" horiz-adv-x="349" d="M143 -117Q122 -92 101 -57T63 20T36 112T25 217Q25 300 42 374T91 514T166 634T262 735H420Q374 683 336 622T271 494T228 355T212 207Q212 107 236 25T292 -117H143Z" />
<glyph unicode=")" glyph-name="parenright" horiz-adv-x="349" d="M-58 -117Q-12 -65 26 -4T92 124T135 263T151 411Q151 511 127 593T70 735H219Q240 709 261 675T299 598T326 507T337 402Q337 316 319 240T268 99T194 -20T102 -117H-58Z" />
<glyph unicode="*" glyph-name="asterisk" horiz-adv-x="367" d="M158 436L70 383L35 486L133 518L46 556L117 656L182 596L191 693H304L280 592L365 646L402 541L305 510L390 470L321 372L254 433L246 334H134L158 436Z" />
<glyph unicode="+" glyph-name="plus" horiz-adv-x="468" d="M153 276H20L44 428H177L200 574H362L339 428H472L448 276H314L291 128H130L153 276Z" />
<glyph unicode="," glyph-name="comma" horiz-adv-x="233" d="M17 167H197L120 -67H-24L17 167Z" />
<glyph unicode="-" glyph-name="hyphen" horiz-adv-x="295" d="M43 362H282L258 215H19L43 362Z" />
<glyph unicode="." glyph-name="period" horiz-adv-x="233" d="M13 166H189L163 0H-14L13 166Z" />
<glyph unicode="/" glyph-name="slash" horiz-adv-x="368" d="M270 735H435L92 -117H-71L270 735Z" />
<glyph unicode="0" glyph-name="zero" horiz-adv-x="599" d="M274 -9Q217 -9 172 6T94 52T44 127T26 231Q25 269 29 309T42 397Q56 479 84 537T151 631T239 685T344 702Q401 702 447 687T526 642T577 566T595 461Q595 396 580 302Q566 217 538 158T470 61T380
8T274 -9ZM281 143Q314 143 330 182T361 312Q373 391 378 429T383 487Q383 522 372 536T339 551Q323 551 312 543T291 514T274 462T259 381Q247 305 242 265T237 205Q237 171 248 157T281 143Z" />
<glyph unicode="1" glyph-name="one" horiz-adv-x="351" d="M134 498L46 491L66 613L248 694H372L263 0H56L134 498Z" />
<glyph unicode="2" glyph-name="two" horiz-adv-x="466" d="M-4 140L133 272Q194 330 221 373T248 463Q248 541 162 541Q133 541 108 536T63 523L86 668Q114 682 156 692T257 703Q311 703 351 689T418 648T458 586T472 507Q472 423 428 355T304 222L226 153V151H424L399
0H-26L-4 140Z" />
<glyph unicode="3" glyph-name="three" horiz-adv-x="455" d="M159 -9Q89 -9 47 2T-21 29L2 167Q25 159 52 153T113 147Q176 147 196 179Q210 197 210 230Q210 283 136 283H90L112 421H158Q185 421 206 428T238 452Q249 469 249 494Q249 546 171 546Q138 546 113
543T65 533L87 671Q119 685 155 694T251 703Q351 703 405 660T459 540Q459 468 419 424T318 364V360Q369 350 399 317T429 225Q429 174 412 131T360 57T276 9T159 -9Z" />
<glyph unicode="4" glyph-name="four" horiz-adv-x="551" d="M241 139H-8L14 272L335 694H532L467 282H544L522 139H444L423 0H219L241 139ZM266 282L293 454H290L163 285V282H266Z" />
<glyph unicode="5" glyph-name="five" horiz-adv-x="471" d="M146 -9Q92 -9 49 1T-22 26L0 168Q23 160 48 155T108 150Q181 150 207 184Q224 206 224 244Q224 273 202 289T127 305Q99 305 80 304T38 297L109 693H479L454 541H237L217 437Q230 439 240 440T270
441Q357 441 402 395T447 270Q447 201 427 149T367 62T272 9T146 -9Z" />
<glyph unicode="6" glyph-name="six" horiz-adv-x="559" d="M264 -9Q143 -9 83 53T23 224Q23 254 26 292T40 380Q50 430 65 470T108 555Q155 632 224 667T387 703Q453 703 492 693T551 672L528 525Q511 531 482 537T410 544Q376 544 351 537T307 509Q288 493 277
469T258 412Q278 424 306 433T371 442Q455 442 496 396T537 267Q537 202 519 151T465 65T379 10T264 -9ZM269 127Q286 127 296 137T316 172Q324 193 327 217T331 262Q331 290 321 302T286 315Q273 315 262 312T243 303Q241 295 240 284T237 260T234 236T232 215Q229
169 236 148Q244 127 269 127Z" />
<glyph unicode="7" glyph-name="seven" horiz-adv-x="480" d="M286 530V535H58L82 693H529L507 554L242 0H17L286 530Z" />
<glyph unicode="8" glyph-name="eight" horiz-adv-x="556" d="M247 -9Q183 -9 137 4T62 39T19 93T5 160Q5 224 42 266T147 331Q102 364 85 402T67 483Q67 585 134 644T328 703Q436 703 495 658T555 537Q555 476 521 437T430 373Q472 347 499 309T526 216Q526 107
452 49T247 -9ZM250 122Q283 122 301 142T319 194Q319 221 300 238T245 274Q217 256 202 234T187 182Q187 156 202 139T250 122ZM328 432Q351 449 365 470T379 520Q379 540 368 555T328 570Q297 570 283 553T268 506Q268 483 282 467T328 432Z" />
<glyph unicode="9" glyph-name="nine" horiz-adv-x="559" d="M193 -9Q130 -9 89 2T27 27L50 174Q73 163 103 156T171 149Q206 149 233 157T279 184Q316 218 325 281Q305 270 277 261T212 252Q128 252 86 298T44 423Q44 489 63 541T117 629T203 684T318 703Q440
703 499 641T558 468Q558 407 549 338T512 198Q491 139 461 100T392 36T303 2T193 -9ZM296 378Q320 378 340 391L345 431Q348 455 350 478Q355 526 347 544Q339 566 312 566Q289 566 278 550T259 502Q254 481 252 462T250 430Q250 402 260 390T296 378Z" />
<glyph unicode=":" glyph-name="colon" horiz-adv-x="236" d="M60 454H236L210 289H33L60 454ZM14 166H191L164 0H-11L14 166Z" />
<glyph unicode=";" glyph-name="semicolon" horiz-adv-x="237" d="M15 167H197L118 -67H-26L15 167ZM61 454H237L210 289H34L61 454Z" />
<glyph unicode="&lt;" glyph-name="less" horiz-adv-x="400" d="M22 253L44 397L419 563L393 402L194 322L368 238L343 82L22 253Z" />
<glyph unicode="=" glyph-name="equal" horiz-adv-x="446" d="M59 477H453L430 333H37L59 477ZM27 271H421L398 125H4L27 271Z" />
<glyph unicode="&gt;" glyph-name="greater" horiz-adv-x="399" d="M25 245L223 323L50 408L74 563L395 391L373 247L-1 82L25 245Z" />
<glyph unicode="?" glyph-name="question" horiz-adv-x="398" d="M71 261Q75 287 80 306T95 340T120 371T159 405Q191 430 205 449T220 499Q220 524 204 539T145 554Q115 554 95 551T56 542L77 677Q103 687 138 695T223 703Q326 703 374 658T422 532Q422 476 398
433T315 344Q291 325 275 313T249 290T234 268T227 241L225 222H65L71 261ZM48 163H225L199 0H22L48 163Z" />
<glyph unicode="@" glyph-name="at" horiz-adv-x="851" d="M372 -160Q297 -160 234 -139T123 -75T50 30T22 176Q21 285 55 377T151 536T301 640T495 678Q579 678 642 655T748 591T813 493T835 367Q835 286 814 224T756 119T671 55T571 33Q520 33 492 49T453 93H450Q433
65 401 50T336 35Q282 35 251 71T219 178Q219 206 225 242T243 313Q271 395 330 435T467 475Q529 475 569 465T635 443Q621 365 610 303Q605 277 601 252T594 206T588 173L586 161Q584 149 588 141T607 132Q631 132 652 149T689 197T714 270T724 360Q724 408 711
448T670 517T597 563T489 580Q404 580 339 549T228 462T160 334T137 177Q137 114 155 69T207 -6T286 -49T387 -63Q465 -63 525 -49T635 -13L624 -104Q586 -127 519 -143T372 -160ZM405 145Q416 145 423 149T437 159L473 372Q468 376 453 376Q411 376 390 284Q384
261 380 232T376 184Q376 145 405 145Z" />
<glyph unicode="A" glyph-name="A" horiz-adv-x="605" d="M252 693H497L560 0H358L355 111H199L157 0H-40L252 693ZM249 245H349L343 367Q342 390 342 412V490H338Q332 472 325 452Q319 435 312 413T295 367L249 245Z" />
<glyph unicode="B" glyph-name="B" horiz-adv-x="567" d="M99 693H367Q463 693 513 652T561 536Q561 506 553 476Q540 430 509 404T428 365V362Q483 351 514 320T545 227Q545 190 536 156Q518 84 456 42T280 0H-8L99 693ZM256 134Q282 134 299 146T325 190Q327
201 329 215T331 241Q331 270 320 284T279 298H244L218 134H256ZM296 410Q317 410 333 421T357 464Q360 475 361 487T363 512Q363 562 317 562H285L261 410H296Z" />
<glyph unicode="C" glyph-name="C" horiz-adv-x="490" d="M284 -9Q156 -9 90 55T23 244Q23 284 27 327T43 421Q76 563 157 633T374 703Q434 703 472 693T530 673L507 524Q488 532 463 537T405 543Q372 543 348 533T308 505T280 460T262 403Q251 355 247 320T243
255Q243 198 269 174T344 150Q379 150 408 156T457 171L433 21Q413 10 374 1T284 -9Z" />
<glyph unicode="D" glyph-name="D" horiz-adv-x="605" d="M100 693H320Q467 693 534 633T601 454Q601 412 596 368T583 284Q569 209 544 155T479 67T386 16T261 0H-8L100 693ZM260 150Q284 150 301 158T330 184T350 229T366 294Q369 312 372 335T379 382T383 427T385
462Q385 509 368 526T313 543H284L223 150H260Z" />
<glyph unicode="E" glyph-name="E" horiz-adv-x="480" d="M100 693H515L491 542H283L265 427H435L411 279H241L222 151H441L417 0H-8L100 693Z" />
<glyph unicode="F" glyph-name="F" horiz-adv-x="470" d="M100 693H517L493 542H285L263 400H432L409 253H240L199 0H-8L100 693Z" />
<glyph unicode="G" glyph-name="G" horiz-adv-x="588" d="M301 -8Q163 -8 94 54T25 245Q25 273 28 310T40 392Q71 553 156 628T390 703Q472 703 517 690T583 663L559 510Q538 521 501 531T413 541Q376 541 350 531T306 501T275 450T256 376Q253 364 250 344T244
303T239 263T237 234Q235 189 252 165T306 141Q319 141 328 143T345 147L362 256H308L330 393H578L521 27Q486 14 430 3T301 -8Z" />
<glyph unicode="H" glyph-name="H" horiz-adv-x="612" d="M100 693H308L267 432H395L436 693H644L535 0H327L372 279H244L200 0H-8L100 693Z" />
<glyph unicode="I" glyph-name="I" horiz-adv-x="277" d="M101 693H309L200 0H-8L101 693Z" />
<glyph unicode="J" glyph-name="J" horiz-adv-x="381" d="M120 -7Q68 -7 32 1T-24 23L-1 165Q9 162 25 159T58 156Q93 156 109 170T131 220L205 693H414L338 200Q330 147 315 109T273 44T210 6T120 -7Z" />
<glyph unicode="K" glyph-name="K" horiz-adv-x="593" d="M100 693H308L262 401L444 693H652L440 359L547 0H330L248 308L200 0H-8L100 693Z" />
<glyph unicode="L" glyph-name="L" horiz-adv-x="455" d="M100 693H308L224 151H423L399 0H-8L100 693Z" />
<glyph unicode="M" glyph-name="M" horiz-adv-x="766" d="M100 693H366L380 460Q382 434 382 410T384 365Q385 341 386 320H389Q396 341 404 364Q411 384 420 408T438 459L527 693H797L689 0H493L526 212Q532 249 539 293T554 375L570 463H568Q554 427 541 390Q530
358 517 322T492 255L396 -1H259L244 254Q242 285 241 321T237 389L233 463H231Q225 421 219 378Q214 341 208 298T195 213L162 0H-7L100 693Z" />
<glyph unicode="N" glyph-name="N" horiz-adv-x="601" d="M100 693H316L377 441Q382 418 386 394T394 351Q398 328 401 308H404Q406 332 409 359Q411 382 414 411T423 471L458 693H632L524 0H324L265 234Q257 263 250 294T238 352Q232 383 226 413H223Q219 380
215 345Q211 314 207 276T196 198L166 0H-8L100 693Z" />
<glyph unicode="O" glyph-name="O" horiz-adv-x="621" d="M283 -10Q226 -10 179 6T97 54T44 136T25 252Q25 278 27 307T34 369Q60 534 142 618T359 703Q419 703 467 687T548 639T600 557T619 442Q619 414 616 378T608 312Q580 153 499 72T283 -10ZM293 145Q311
145 325 154T350 186T370 244T388 335Q391 350 393 369T398 407T402 445T404 477Q404 515 390 532T350 549Q333 549 320 539T295 507T274 447T255 356Q252 338 250 319T245 280T242 245T240 216Q240 178 253 162T293 145Z" />
<glyph unicode="P" glyph-name="P" horiz-adv-x="558" d="M100 693H350Q411 693 454 680T524 643T564 584T577 506Q577 484 575 462T567 417Q547 319 484 271T303 222H233L198 0H-9L100 693ZM287 355Q318 355 335 376T361 445Q364 469 364 492Q364 523 352 536T312
549H283L253 355H287Z" />
<glyph unicode="Q" glyph-name="Q" horiz-adv-x="619" d="M223 -14Q123 17 74 80T24 252Q24 279 27 312T35 375Q61 538 142 620T358 703Q418 703 466 687T547 639T599 558T618 442Q618 412 615 377T604 309Q583 205 541 150T437 75L587 39L534 -112L223 -14ZM292
145Q310 145 324 154T349 186T370 244T388 335Q390 350 392 369T397 407T401 445T403 477Q403 515 390 532T350 549Q333 549 319 539T294 507T273 447T254 356Q251 338 249 319T244 280T241 245T239 216Q239 178 252 162T292 145Z" />
<glyph unicode="R" glyph-name="R" horiz-adv-x="577" d="M99 693H354Q578 693 578 509Q578 458 565 419Q551 374 525 347T462 302V297L536 0H325L274 245H234L199 0H-8L99 693ZM291 370Q320 370 335 386T358 437Q364 465 364 496Q364 522 353 536T314 550H284L256
370H291Z" />
<glyph unicode="S" glyph-name="S" horiz-adv-x="476" d="M180 -8Q115 -8 64 6T-18 40L8 187Q39 170 74 158T154 146Q183 146 200 152T227 173Q239 188 239 208Q239 228 228 240T191 267L158 287Q104 319 75 362T46 468Q46 489 50 519T70 581Q129 703 309 703Q380
703 424 689T489 662L464 516Q435 530 398 540T315 550Q296 550 282 545T259 528Q250 515 250 498Q250 481 261 470T295 444L331 424Q391 390 422 349T453 243Q453 214 448 183T431 126Q400 57 338 25T180 -8Z" />
<glyph unicode="T" glyph-name="T" horiz-adv-x="509" d="M191 542H53L77 693H562L538 542H400L314 0H106L191 542Z" />
<glyph unicode="U" glyph-name="U" horiz-adv-x="594" d="M270 -10Q203 -10 156 4T80 44T37 106T23 186Q23 216 29 254L97 693H306L234 234Q231 217 231 200Q231 175 244 161T286 146Q323 146 339 167T361 228L434 693H628L556 228Q546 168 526 124T472 50T388
5T270 -10Z" />
<glyph unicode="V" glyph-name="V" horiz-adv-x="592" d="M72 693H277L288 347Q288 325 288 303T289 262V221H293Q298 240 304 260Q309 277 316 299T331 347L460 693H654L364 0H131L72 693Z" />
<glyph unicode="W" glyph-name="W" horiz-adv-x="834" d="M74 693H277L274 427Q273 397 273 370T272 322Q271 297 271 277H274Q280 296 287 318Q293 337 300 362T318 417L410 693H579L583 418Q583 392 583 367T582 321Q581 297 581 276H585Q590 296 597 319Q602
339 610 364T626 417L710 693H893L658 0H447L445 251Q444 274 444 299T445 344V390H442Q436 368 429 345Q423 325 416 301T400 251L316 0H94L74 693Z" />
<glyph unicode="X" glyph-name="X" horiz-adv-x="605" d="M173 355L88 693H309L330 565Q332 550 334 534T338 503Q340 487 342 472H346Q352 486 358 502Q369 531 386 566L447 693H659L460 361L556 0H337L308 150Q306 164 304 179T299 208Q296 223 295 236H291Q285
223 279 209Q274 197 267 182T251 150L175 0H-37L173 355Z" />
<glyph unicode="Y" glyph-name="Y" horiz-adv-x="561" d="M173 261L68 693H276L299 552Q302 529 304 508T309 471Q311 452 312 436H314Q320 452 327 471Q333 487 342 508T362 553L429 693H625L382 256L342 0H133L173 261Z" />
<glyph unicode="Z" glyph-name="Z" horiz-adv-x="495" d="M1 146L271 539V542H72L96 693H535L512 547L239 154V151H454L430 0H-21L1 146Z" />
<glyph unicode="[" glyph-name="bracketleft" horiz-adv-x="333" d="M105 735H386L365 596H269L179 22H275L253 -117H-27L105 735Z" />
<glyph unicode="\" glyph-name="backslash" horiz-adv-x="371" d="M76 735H231L314 -117H157L76 735Z" />
<glyph unicode="]" glyph-name="bracketright" horiz-adv-x="333" d="M-18 22H78L168 596H72L94 735H375L242 -117H-39L-18 22Z" />
<glyph unicode="^" glyph-name="asciicircum" horiz-adv-x="429" d="M207 693H359L447 433H303L262 547L183 433H34L207 693Z" />
<glyph unicode="_" glyph-name="underscore" horiz-adv-x="351" d="M-51 -47H306L287 -163H-69L-51 -47Z" />
<glyph unicode="`" glyph-name="grave" horiz-adv-x="425" d="M133 733H311L348 578H207L133 733Z" />
<glyph unicode="a" glyph-name="a" horiz-adv-x="510" d="M144 -8Q82 -8 45 33T7 161Q7 195 11 234T26 312Q42 375 70 420T136 493T221 534T323 547Q392 547 443 537T520 515L439 0H284L279 55H275Q251 26 219 9T144 -8ZM236 127Q249 127 258 132T274 142L316
411Q308 414 294 414Q264 414 246 388T215 298Q213 286 210 270T205 236T202 202T200 173Q200 127 236 127Z" />
<glyph unicode="b" glyph-name="b" horiz-adv-x="517" d="M216 -8Q144 -8 88 2T-9 29L101 735H289L251 496H255Q278 516 306 531T380 547Q443 547 476 503T510 382Q510 355 508 325T501 267Q490 204 471 153T418 67T335 12T216 -8ZM227 116Q244 116 255 122T275
144T290 184T303 246Q305 257 307 271T311 300T314 327T315 349Q315 380 305 390T278 401Q264 401 253 396T234 386L193 122Q199 120 208 118T227 116Z" />
<glyph unicode="c" glyph-name="c" horiz-adv-x="398" d="M218 -8Q112 -8 61 46T9 194Q9 211 11 237T18 295Q30 357 51 404T107 483T188 531T299 547Q344 547 375 539T422 521L400 387Q386 394 368 399T321 405Q273 405 246 380T208 293Q208 288 207 280T204 262T202
243T201 230Q197 181 215 158T279 135Q308 135 330 141T368 152L347 22Q330 11 300 2T218 -8Z" />
<glyph unicode="d" glyph-name="d" horiz-adv-x="517" d="M150 -8Q84 -8 46 34T8 163Q8 187 10 217T20 286Q43 421 103 484T251 547Q286 547 308 540T342 527L374 735H562Q561 730 556 698T543 614T525 498T505 368T484 237T466 122T453 37T447 0H288L284 49H280Q258
26 225 9T150 -8ZM236 128Q251 128 262 132T282 142L324 410Q317 413 309 416T289 419Q273 419 261 412T240 388T224 344T210 276Q205 247 203 221T201 178Q201 153 208 141T236 128Z" />
<glyph unicode="e" glyph-name="e" horiz-adv-x="478" d="M240 -8Q122 -8 66 45T10 196Q10 222 12 249T20 302Q41 426 108 486T277 547Q334 547 373 532T436 487T468 418T471 327Q469 301 465 272T456 220H197Q196 216 196 213T197 206Q197 165 215 146T287 126Q330
126 367 134T428 151L410 33Q381 16 341 4T240 -8ZM209 319H297Q300 337 301 353T304 380Q304 422 271 422Q248 422 234 403T212 335L209 319Z" />
<glyph unicode="f" glyph-name="f" horiz-adv-x="333" d="M77 407H26L47 539H98L105 582Q120 670 170 706T305 743Q343 743 368 737T408 725L390 610Q383 612 371 613T347 615Q321 615 309 605T291 570L286 539H367L346 407H265L173 -191H-15L77 407Z" />
<glyph unicode="g" glyph-name="g" horiz-adv-x="518" d="M173 -198Q115 -198 62 -188T-23 -159L-2 -28Q27 -39 63 -48T142 -57Q177 -57 199 -51T236 -34T256 -5T267 36L272 68H268Q246 45 217 32T149 19Q82 19 47 61T11 184Q11 208 13 240T23 308Q34 363 57 407T117
483T205 530T324 547Q356 547 387 544T445 536T493 526T529 514L451 19Q433 -97 366 -147T173 -198ZM239 145Q252 145 264 150T285 160L324 411Q319 413 311 415T295 417Q266 417 247 392T217 303Q212 273 209 245T205 194Q205 145 239 145Z" />
<glyph unicode="h" glyph-name="h" horiz-adv-x="513" d="M101 735H288L251 491H255Q279 514 314 530T394 547Q509 547 509 432Q509 421 508 408T504 380L445 0H257L311 349Q312 354 312 360T313 371Q313 385 307 391T283 398Q270 398 258 394T234 382L174 0H-14L101
735Z" />
<glyph unicode="i" glyph-name="i" horiz-adv-x="246" d="M71 539H259L174 0H-14L71 539ZM100 729H289L266 582H77L100 729Z" />
<glyph unicode="j" glyph-name="j" horiz-adv-x="248" d="M-26 -195Q-59 -195 -86 -188T-127 -172L-106 -56Q-89 -61 -69 -61Q-44 -61 -32 -51T-14 -11L72 539H261L171 -33Q159 -110 114 -152T-26 -195ZM101 729H290L267 582H79L101 729Z" />
<glyph unicode="k" glyph-name="k" horiz-adv-x="510" d="M211 247L172 0H-14L100 735H288L222 316L360 539H546L380 286L465 0H272L211 247Z" />
<glyph unicode="l" glyph-name="l" horiz-adv-x="244" d="M101 735H289Q288 730 283 698T270 614T252 498T232 368T211 237T193 122T179 37T173 0H-14L101 735Z" />
<glyph unicode="m" glyph-name="m" horiz-adv-x="764" d="M70 539H253L244 485H248Q274 510 308 528T392 547Q474 547 494 479H497Q527 508 564 527T650 547Q707 547 733 518T760 434Q760 423 759 411T756 387L696 0H508L562 349Q563 354 564 360T565 372Q565
398 540 398Q528 398 517 394T494 383Q494 382 494 377T492 367L435 0H247L301 349Q304 362 304 373Q304 398 278 398Q266 398 255 394T233 383L174 0H-14L70 539Z" />
<glyph unicode="n" glyph-name="n" horiz-adv-x="513" d="M70 539H254L245 485H249Q275 510 311 528T395 547Q451 547 480 518T509 432Q509 421 508 408T504 380L445 0H257L311 351Q312 356 312 361T313 371Q313 385 307 391T283 398Q269 398 257 394T234 382L174
0H-14L70 539Z" />
<glyph unicode="o" glyph-name="o" horiz-adv-x="510" d="M221 -8Q120 -8 65 48T10 200Q10 222 12 246T19 293Q29 350 50 397T105 477T182 529T282 547Q337 547 378 532T446 489T487 425T501 343Q501 322 499 295T492 241Q483 185 462 139T408 61T328 10T221 -8ZM233
126Q257 126 272 152T298 247Q304 283 307 313T311 360Q311 389 302 401T275 414Q251 414 236 387T210 291Q205 262 201 231T197 179Q197 151 206 139T233 126Z" />
<glyph unicode="p" glyph-name="p" horiz-adv-x="516" d="M70 539H253L245 491H249Q274 514 303 530T379 547Q437 547 474 508T511 384Q511 345 506 304T491 217Q468 102 410 47T262 -8Q208 -8 174 8L143 -191H-44L70 539ZM227 116Q243 116 254 122T274 144T290
186T304 254Q309 282 311 308T314 349Q314 378 304 389T277 400Q263 400 253 395T233 384L193 123Q205 116 227 116Z" />
<glyph unicode="q" glyph-name="q" horiz-adv-x="515" d="M263 35H259Q240 17 211 5T144 -8Q81 -8 44 33T7 161Q7 190 9 219T17 276Q40 416 113 481T315 547Q381 547 438 537T525 514L415 -191H227L263 35ZM236 132Q250 132 261 136T281 146L321 409Q316 412 310
414T290 417Q273 417 261 411T240 388T224 345T210 278Q204 237 202 216T200 179Q200 153 208 143T236 132Z" />
<glyph unicode="r" glyph-name="r" horiz-adv-x="351" d="M70 539H253L242 474H246Q267 507 294 526T357 546Q374 546 382 542L355 365Q348 367 335 367T310 368Q285 368 267 364T229 352L174 0H-13L70 539Z" />
<glyph unicode="s" glyph-name="s" horiz-adv-x="402" d="M150 -8Q124 -8 99 -5T52 4T13 17T-17 32L3 158Q29 145 63 135T131 124Q156 124 168 128T187 142Q192 151 192 162Q192 175 182 183T152 201L117 218Q28 265 28 365Q28 375 29 390T36 419Q57 490 112 518T251
547Q300 547 336 537T394 515L373 388Q351 399 320 408T258 418Q218 418 209 402Q205 395 205 385Q205 373 216 365T246 348L279 331Q330 306 353 274T376 190Q376 182 375 171T371 145Q357 69 301 31T150 -8Z" />
<glyph unicode="t" glyph-name="t" horiz-adv-x="346" d="M181 -8Q97 -8 62 30T39 154L79 408H28L48 539H100L119 661H307L288 539H371L350 408H268L231 171Q227 150 236 141T268 132Q279 132 290 133T309 137L290 13Q276 5 247 -1T181 -8Z" />
<glyph unicode="u" glyph-name="u" horiz-adv-x="510" d="M123 -8Q66 -8 36 23T6 110Q6 123 7 137T12 174L69 539H257L203 191Q200 174 200 165Q200 139 229 139Q242 139 254 143T277 155L337 539H525L441 0H278L272 56H268Q239 28 204 10T123 -8Z" />
<glyph unicode="v" glyph-name="v" horiz-adv-x="504" d="M45 539H234L238 273Q238 259 238 245T237 220V194H240Q244 207 248 221Q252 232 256 246T266 273L362 539H544L302 0H93L45 539Z" />
<glyph unicode="w" glyph-name="w" horiz-adv-x="697" d="M46 539H228L225 356Q224 335 224 314T223 275Q222 255 221 237H223Q228 254 234 273Q239 290 246 311T261 355L325 539H472V356Q472 333 472 312T471 274Q470 255 470 237H473Q478 256 484 276Q489 293
495 314T508 356L571 539H737L529 0H356L353 136Q352 162 352 187V234Q352 259 353 281H350Q343 257 335 232Q328 211 320 185T303 136L253 0H70L46 539Z" />
<glyph unicode="x" glyph-name="x" horiz-adv-x="497" d="M126 280L53 539H245L261 456Q263 442 265 429T269 404Q271 391 273 379L285 403Q290 414 296 427T309 455L351 539H531L378 284L453 0H261L242 98Q239 112 237 125T232 150Q229 163 228 176Q222 163 215
150Q202 126 189 98L137 0H-43L126 280Z" />
<glyph unicode="y" glyph-name="y" horiz-adv-x="495" d="M53 -196Q22 -196 -3 -191T-45 -178L-25 -53Q-14 -55 1 -58T32 -61Q59 -61 76 -53T103 -21L113 1L42 539H230L239 350Q239 328 239 307T240 268Q240 248 241 229H244Q249 248 255 267Q260 284 267 304T282
345L357 539H536L274 -47Q256 -87 236 -115T191 -161T132 -187T53 -196Z" />
<glyph unicode="z" glyph-name="z" horiz-adv-x="420" d="M-4 134L201 404V407H40L62 539H445L426 416L209 136V133H384L363 0H-25L-4 134Z" />
<glyph unicode="{" glyph-name="braceleft" horiz-adv-x="354" d="M274 -118Q205 -116 161 -106T91 -76T56 -28T50 37Q50 41 51 48T53 64T55 81T56 94Q57 97 59 109T63 134T67 159T69 171Q74 210 60 224T11 241L33 381Q68 383 87 395T113 449L131 565Q138 610
155 642T204 696T286 727T408 738L386 597Q368 595 355 592T333 582T319 562T310 528L296 442Q288 387 260 355T164 311V308Q218 297 239 270T257 197Q257 192 255 176T251 150Q251 148 249 138T246 116T242 95L241 86Q236 50 249 39T296 23L274 -118Z" />
<glyph unicode="|" glyph-name="bar" horiz-adv-x="272" d="M72 735H214V-116H72V735Z" />
<glyph unicode="}" glyph-name="braceright" horiz-adv-x="355" d="M-18 23Q0 25 13 28T35 39T49 59T58 92L71 178Q79 233 107 265T203 309V312Q149 323 128 350T110 423Q110 428 112 444T116 470Q116 472 118 482T122 504T125 524L127 534Q130 552 128 563T119
581T101 591T72 597L94 738Q163 736 207 726T277 696T312 648T318 583Q318 579 317 572T315 556T313 539T311 527Q311 524 309 512T305 487T301 462T299 449Q293 411 308 396T357 379L335 239Q300 237 281 225T255 172L237 55Q230 10 213 -23T164 -77T82 -108T-40
-118L-18 23Z" />
<glyph unicode="~" glyph-name="asciitilde" horiz-adv-x="399" d="M12 222Q13 270 24 303T53 356T92 385T137 394Q157 394 174 389T205 378T232 366T256 361Q279 361 286 392H400Q399 349 389 317T361 263T322 231T276 220Q256 220 239 225T207 236T180 248T156
253Q142 253 135 244T125 222H12Z" />
<glyph unicode="&#xa0;" glyph-name="uni00A0" horiz-adv-x="129" />
<glyph unicode="&#xa1;" glyph-name="exclamdown" horiz-adv-x="273" d="M71 352H228L182 -120H-32L71 352ZM95 573H271L247 410H71L95 573Z" />
<glyph unicode="&#xa2;" glyph-name="cent" horiz-adv-x="425" d="M176 -3Q95 10 54 61T12 198Q12 252 23 307Q34 362 57 406T115 482T199 530T310 547Q318 547 325 547T340 546L358 607H438L416 534Q425 531 433 528T447 522L426 390Q416 394 404 397T377 403L297
132Q323 133 349 138T392 148L373 21Q357 11 327 3T255 -7L223 -117H142L176 -3ZM198 221Q198 172 222 151L297 404Q262 396 240 371T207 295Q198 248 198 221Z" />
<glyph unicode="&#xa3;" glyph-name="sterling" horiz-adv-x="479" d="M44 408H95L107 484Q116 545 139 586T198 654T280 691T384 703Q430 703 463 694T511 676L489 532Q476 537 459 540T421 543Q372 543 348 524T316 457L308 408H429L408 278H288Q277 224 253
197T196 153V151H443L419 0H-22L0 141Q29 152 45 173T69 239L75 278H22L44 408Z" />
<glyph unicode="&#xa5;" glyph-name="yen" horiz-adv-x="557" d="M145 96H21L40 218H164L171 262H47L67 384H153L65 693H278L300 569Q304 545 307 523T312 484Q315 464 316 447H318Q325 463 333 482Q340 499 349 520T372 568L433 693H626L444 384H528L508 262H385L378
218H501L482 96H359L344 0H131L145 96Z" />
<glyph unicode="&#xa6;" glyph-name="brokenbar" horiz-adv-x="287" d="M65 281H232V-120H65V281ZM65 734H232V363H65V734Z" />
<glyph unicode="&#xa7;" glyph-name="section" horiz-adv-x="506" d="M431 72Q431 28 416 -8T370 -72T291 -114T175 -129Q113 -129 70 -115T2 -85L22 44Q48 30 82 18T165 5Q208 5 223 19Q236 30 236 51Q236 67 228 77T194 97L151 114Q118 126 93 139T52 170T27
209T19 261Q19 317 48 351T134 399Q114 419 102 446T90 509Q90 597 147 649T322 702Q392 702 432 691T492 668L472 540Q452 550 417 560T337 570Q319 570 306 567T286 555Q277 547 277 528Q277 513 286 503T320 485L369 466Q400 455 424 443T464 414T490 375T499
321Q499 261 470 228T390 179Q410 160 420 136T431 72ZM244 339Q224 334 212 323T200 292Q200 278 208 269T239 250Q241 248 245 246T255 242Q260 239 267 237Q313 249 313 285Q313 299 305 308T270 327L244 339Z" />
<glyph unicode="&#xa8;" glyph-name="dieresis" horiz-adv-x="425" d="M305 724H459L436 582H283L305 724ZM108 724H262L239 582H86L108 724Z" />
<glyph unicode="&#xa9;" glyph-name="copyright" horiz-adv-x="683" d="M353 -11Q283 -11 225 13T126 84T62 196T39 345Q39 428 62 494T126 606T225 676T352 701Q421 701 478 677T578 606T643 494T667 345Q667 265 644 199T580 87T480 15T353 -11ZM352 44Q409
44 456 64T536 122T587 217T605 345Q605 416 587 472T536 566T456 625T352 646Q295 646 249 626T170 567T120 472T102 345Q102 273 119 217T170 123T249 64T352 44ZM371 142Q286 142 241 186T195 333V355Q195 409 208 446T246 507T302 540T373 550Q408 550 430
545T467 533V428Q457 432 445 434T415 437Q377 437 362 421T347 360V340Q347 292 361 274T413 255Q432 255 445 258T468 264V161Q453 155 430 149T371 142Z" />
<glyph unicode="&#xaa;" glyph-name="ordfeminine" horiz-adv-x="464" d="M160 213Q102 213 69 251T36 362Q36 389 39 424T51 495Q79 606 148 654T316 703Q379 703 426 693T496 674L425 220H283L278 269H275Q254 243 226 228T160 213ZM241 332Q252 332 260 336T275
346L311 584Q301 588 291 588Q264 588 249 563T223 483Q219 459 215 427T211 373Q211 353 217 343T241 332Z" />
<glyph unicode="&#xab;" glyph-name="guillemotleft" horiz-adv-x="479" d="M223 230L230 276L333 455H487L373 250L417 53H269L223 230ZM19 230L25 276L129 455H283L167 250L214 53H66L19 230Z" />
<glyph unicode="&#xae;" glyph-name="registered" horiz-adv-x="401" d="M234 303Q195 303 162 317T105 357T68 420T55 504Q55 550 68 586T105 649T161 689T233 703Q272 703 305 690T362 650T399 587T413 504Q413 459 400 422T363 358T306 318T234 303ZM234 336Q299
337 336 380T374 504Q374 581 337 625T233 670Q168 670 131 626T94 504Q94 424 131 381T234 336ZM154 609H247Q320 609 320 544Q320 524 313 511T295 493V491L328 403H259L234 473H222V403H154V609ZM233 518Q251 518 251 538Q251 559 233 559H221V518H233Z" />
<glyph unicode="&#xaf;" glyph-name="macron" horiz-adv-x="425" d="M144 700H414L395 583H125L144 700Z" />
<glyph unicode="&#xb0;" glyph-name="degree" horiz-adv-x="335" d="M204 407Q136 407 98 446T59 548Q59 580 70 608T103 656T153 689T217 701Q286 701 324 663T362 563Q362 530 351 502T318 452T268 419T204 407ZM207 492Q235 492 250 512T265 561Q265 584 252
600T213 617Q186 617 171 598T156 550Q156 525 168 509T207 492Z" />
<glyph unicode="&#xb4;" glyph-name="acute" horiz-adv-x="425" d="M263 733H445L336 578H191L263 733Z" />
<glyph unicode="&#xb6;" glyph-name="paragraph" horiz-adv-x="532" d="M247 323H232Q152 323 103 364T54 486Q54 529 68 566T110 632T181 676T283 693H562L435 -120H335L445 593H390L278 -120H178L247 323Z" />
<glyph unicode="&#xb7;" glyph-name="periodcentered" horiz-adv-x="225" d="M47 397H224L195 231H18L47 397Z" />
<glyph unicode="&#xb8;" glyph-name="cedilla" horiz-adv-x="425" d="M99 -156Q141 -153 161 -146T182 -121Q182 -109 171 -103T129 -95L146 15H226L218 -41Q261 -43 283 -62T305 -114Q305 -165 254 -194T88 -226L99 -156Z" />
<glyph unicode="&#xba;" glyph-name="ordmasculine" horiz-adv-x="468" d="M234 212Q139 212 89 262T38 397Q38 438 46 481Q55 531 74 572T122 642T192 687T284 703Q335 703 372 689T434 651T471 593T484 522Q484 502 483 478T476 428Q467 380 449 340T400 272T329
228T234 212ZM242 332Q264 332 276 353T300 435Q305 467 308 493T311 538Q311 585 280 585Q257 585 245 562T222 479Q217 452 214 425T210 378Q210 353 218 343T242 332Z" />
<glyph unicode="&#xbb;" glyph-name="guillemotright" horiz-adv-x="476" d="M305 257L260 455H408L455 275L448 230L345 53H191L305 257ZM101 257L56 455H204L251 275L243 230L140 53H-13L101 257Z" />
<glyph unicode="&#xbc;" glyph-name="onequarter" horiz-adv-x="785" d="M127 564L65 558L78 642L201 694H296L229 269H81L127 564ZM586 713H712L176 -40H51L586 713ZM556 83H405L419 172L613 424H752L713 178H756L741 83H698L685 0H543L556 83ZM575 177L590 275H588L523
179V177H575Z" />
<glyph unicode="&#xbd;" glyph-name="onehalf" horiz-adv-x="811" d="M585 713H711L175 -40H50L585 713ZM127 564L65 558L78 642L201 694H296L229 269H81L127 564ZM479 92L560 168Q597 203 615 227T633 281Q633 302 620 312T582 322Q561 322 546 319T519 310L534
408Q553 417 584 424T650 431Q722 431 757 398T792 310Q792 262 765 221T682 138L641 105V103H767L751 0H464L479 92Z" />
<glyph unicode="&#xbe;" glyph-name="threequarters" horiz-adv-x="811" d="M133 263Q97 263 68 270T22 286L37 378Q51 373 67 370T102 367Q128 367 145 378T162 410Q162 439 122 439H92L106 529H136Q161 529 174 537T187 567Q187 581 176 589T138 597Q120 597
106 595T78 589L91 680Q111 688 136 693T199 699Q263 699 299 673T335 596Q335 552 309 526T247 491V490Q279 482 296 463T314 406Q314 342 268 303T133 263ZM610 711H736L200 -42H75L610 711ZM581 83H430L444 172L638 424H777L738 178H781L766 83H723L710 0H568L581
83ZM600 177L615 275H613L548 179V177H600Z" />
<glyph unicode="&#xbf;" glyph-name="questiondown" horiz-adv-x="397" d="M179 -132Q75 -132 28 -87T-20 39Q-20 95 4 138T87 227Q111 246 126 258T152 281T167 303T174 330L177 350H337L331 310Q327 284 322 265T307 231T282 200T243 166Q211 141 197 122T182
72Q182 47 198 32T258 17Q287 17 307 20T346 29L325 -106Q298 -116 263 -124T179 -132ZM203 573H380L354 410H177L203 573Z" />
<glyph unicode="&#xc0;" glyph-name="Agrave" horiz-adv-x="605" d="M252 693H497L560 0H358L355 111H199L157 0H-40L252 693ZM249 245H349L343 367Q342 390 342 412V490H338Q332 472 325 452Q319 435 312 413T295 367L249 245ZM251 862H429L452 723H311L251 862Z" />
<glyph unicode="&#xc1;" glyph-name="Aacute" horiz-adv-x="605" d="M252 693H497L560 0H358L355 111H199L157 0H-40L252 693ZM249 245H349L343 367Q342 390 342 412V490H338Q332 472 325 452Q319 435 312 413T295 367L249 245ZM360 861H544L440 723H296L360 861Z" />
<glyph unicode="&#xc2;" glyph-name="Acircumflex" horiz-adv-x="605" d="M252 693H497L560 0H358L355 111H199L157 0H-40L252 693ZM249 245H349L343 367Q342 390 342 412V490H338Q332 472 325 452Q319 435 312 413T295 367L249 245ZM318 856H469L541 723H413L381
764L336 723H202L318 856Z" />
<glyph unicode="&#xc3;" glyph-name="Atilde" horiz-adv-x="605" d="M252 693H497L560 0H358L355 111H199L157 0H-40L252 693ZM249 245H349L343 367Q342 390 342 412V490H338Q332 472 325 452Q319 435 312 413T295 367L249 245ZM198 725Q203 764 216 790T246 832T282
855T321 862Q339 862 353 858T380 849T403 840T423 836Q443 836 449 860H557Q551 821 539 795T510 752T473 728T432 721Q415 721 401 725T375 735T353 744T333 749Q322 749 315 743T306 725H198Z" />
<glyph unicode="&#xc4;" glyph-name="Adieresis" horiz-adv-x="605" d="M252 693H497L560 0H358L355 111H199L157 0H-40L252 693ZM249 245H349L343 367Q342 390 342 412V490H338Q332 472 325 452Q319 435 312 413T295 367L249 245ZM420 857H576L556 724H400L420
857ZM220 857H376L355 724H200L220 857Z" />
<glyph unicode="&#xc5;" glyph-name="Aring" horiz-adv-x="605" d="M252 693H497L560 0H358L355 111H199L157 0H-40L252 693ZM249 245H349L343 367Q342 390 342 412V490H338Q332 472 325 452Q319 435 312 413T295 367L249 245ZM382 711Q329 711 297 741T265 820Q265
871 300 902T388 934Q441 934 472 905T504 827Q504 775 469 743T382 711ZM384 782Q401 782 411 793T422 825Q422 843 412 853T385 864Q368 864 358 853T347 821Q347 804 356 793T384 782Z" />
<glyph unicode="&#xc6;" glyph-name="AE" horiz-adv-x="817" d="M341 693H852L828 542H630L613 427H772L749 279H589L570 151H779L754 0H342L361 124H214L148 0H-43L341 693ZM382 258Q383 264 385 278T390 312T396 355T404 403Q413 458 424 525H420Q386 458 358
403Q346 379 334 356T312 313T294 279T284 258H382Z" />
<glyph unicode="&#xc7;" glyph-name="Ccedilla" horiz-adv-x="490" d="M284 -9H271Q265 -9 259 -8L254 -41Q298 -43 319 -62T341 -114Q341 -165 291 -194T125 -226L136 -156Q179 -153 199 -146T219 -121Q219 -109 208 -103T166 -95L182 4Q104 27 64 87T23 244Q23
284 27 327T43 421Q76 563 157 633T374 703Q434 703 472 693T530 673L507 524Q488 532 463 537T405 543Q372 543 348 533T308 505T280 460T262 403Q251 355 247 320T243 255Q243 198 269 174T344 150Q379 150 408 156T457 171L433 21Q413 10 374 1T284 -9Z" />
<glyph unicode="&#xc8;" glyph-name="Egrave" horiz-adv-x="480" d="M192 862H370L393 723H252L192 862ZM100 693H515L491 542H283L265 427H435L411 279H241L222 151H441L417 0H-8L100 693Z" />
<glyph unicode="&#xc9;" glyph-name="Eacute" horiz-adv-x="480" d="M556 861H740L636 723H492L556 861ZM100 693H515L491 542H283L265 427H435L411 279H241L222 151H441L417 0H-8L100 693Z" />
<glyph unicode="&#xca;" glyph-name="Ecircumflex" horiz-adv-x="480" d="M261 856H412L484 723H356L324 764L279 723H145L261 856ZM100 693H515L491 542H283L265 427H435L411 279H241L222 151H441L417 0H-8L100 693Z" />
<glyph unicode="&#xcb;" glyph-name="Edieresis" horiz-adv-x="480" d="M100 693H515L491 542H283L265 427H435L411 279H241L222 151H441L417 0H-8L100 693ZM358 857H514L494 724H338L358 857ZM158 857H314L293 724H138L158 857Z" />
<glyph unicode="&#xcc;" glyph-name="Igrave" horiz-adv-x="277" d="M101 693H309L200 0H-8L101 693ZM346 862H524L547 723H406L346 862Z" />
<glyph unicode="&#xcd;" glyph-name="Iacute" horiz-adv-x="277" d="M101 693H309L200 0H-8L101 693ZM450 861H634L530 723H386L450 861Z" />
<glyph unicode="&#xce;" glyph-name="Icircumflex" horiz-adv-x="277" d="M101 693H309L200 0H-8L101 693ZM156 856H307L379 723H251L219 764L174 723H40L156 856Z" />
<glyph unicode="&#xcf;" glyph-name="Idieresis" horiz-adv-x="277" d="M101 693H309L200 0H-8L101 693ZM254 857H410L390 724H234L254 857ZM54 857H210L189 724H34L54 857Z" />
<glyph unicode="&#xd0;" glyph-name="Eth" horiz-adv-x="607" d="M22 418H58L101 693H324Q471 693 538 633T605 454Q605 416 601 375T589 296Q576 218 551 162T487 70T392 17T264 0H-7L36 276H0L22 418ZM262 150Q310 150 332 184T368 294Q371 312 374 335T381
383T386 428T388 462Q388 509 370 526T316 543H283L264 418H337L314 276H242L222 150H262Z" />
<glyph unicode="&#xd1;" glyph-name="Ntilde" horiz-adv-x="601" d="M210 725Q215 764 228 790T258 832T294 855T333 862Q351 862 365 858T392 849T415 840T435 836Q455 836 461 860H569Q563 821 551 795T522 752T485 728T444 721Q427 721 413 725T387 735T365
744T345 749Q334 749 327 743T318 725H210ZM100 693H316L377 441Q382 418 386 394T394 351Q398 328 401 308H404Q406 332 409 359Q411 382 414 411T423 471L458 693H632L524 0H324L265 234Q257 263 250 294T238 352Q232 383 226 413H223Q219 380 215 345Q211 314
207 276T196 198L166 0H-8L100 693Z" />
<glyph unicode="&#xd2;" glyph-name="Ograve" horiz-adv-x="621" d="M248 862H426L449 723H308L248 862ZM283 -10Q226 -10 179 6T97 54T44 136T25 252Q25 278 27 307T34 369Q60 534 142 618T359 703Q419 703 467 687T548 639T600 557T619 442Q619 414 616 378T608
312Q580 153 499 72T283 -10ZM293 145Q311 145 325 154T350 186T370 244T388 335Q391 350 393 369T398 407T402 445T404 477Q404 515 390 532T350 549Q333 549 320 539T295 507T274 447T255 356Q252 338 250 319T245 280T242 245T240 216Q240 178 253 162T293 145Z"
/>
<glyph unicode="&#xd3;" glyph-name="Oacute" horiz-adv-x="621" d="M359 861H543L439 723H295L359 861ZM283 -10Q226 -10 179 6T97 54T44 136T25 252Q25 278 27 307T34 369Q60 534 142 618T359 703Q419 703 467 687T548 639T600 557T619 442Q619 414 616 378T608
312Q580 153 499 72T283 -10ZM293 145Q311 145 325 154T350 186T370 244T388 335Q391 350 393 369T398 407T402 445T404 477Q404 515 390 532T350 549Q333 549 320 539T295 507T274 447T255 356Q252 338 250 319T245 280T242 245T240 216Q240 178 253 162T293 145Z"
/>
<glyph unicode="&#xd4;" glyph-name="Ocircumflex" horiz-adv-x="621" d="M316 856H467L539 723H411L379 764L334 723H200L316 856ZM283 -10Q226 -10 179 6T97 54T44 136T25 252Q25 278 27 307T34 369Q60 534 142 618T359 703Q419 703 467 687T548 639T600 557T619
442Q619 414 616 378T608 312Q580 153 499 72T283 -10ZM293 145Q311 145 325 154T350 186T370 244T388 335Q391 350 393 369T398 407T402 445T404 477Q404 515 390 532T350 549Q333 549 320 539T295 507T274 447T255 356Q252 338 250 319T245 280T242 245T240 216Q240
178 253 162T293 145Z" />
<glyph unicode="&#xd5;" glyph-name="Otilde" horiz-adv-x="621" d="M203 725Q208 764 221 790T251 832T287 855T326 862Q344 862 358 858T385 849T408 840T428 836Q448 836 454 860H562Q556 821 544 795T515 752T478 728T437 721Q420 721 406 725T380 735T358
744T338 749Q327 749 320 743T311 725H203ZM283 -10Q226 -10 179 6T97 54T44 136T25 252Q25 278 27 307T34 369Q60 534 142 618T359 703Q419 703 467 687T548 639T600 557T619 442Q619 414 616 378T608 312Q580 153 499 72T283 -10ZM293 145Q311 145 325 154T350
186T370 244T388 335Q391 350 393 369T398 407T402 445T404 477Q404 515 390 532T350 549Q333 549 320 539T295 507T274 447T255 356Q252 338 250 319T245 280T242 245T240 216Q240 178 253 162T293 145Z" />
<glyph unicode="&#xd6;" glyph-name="Odieresis" horiz-adv-x="621" d="M415 857H571L551 724H395L415 857ZM215 857H371L350 724H195L215 857ZM283 -10Q226 -10 179 6T97 54T44 136T25 252Q25 278 27 307T34 369Q60 534 142 618T359 703Q419 703 467 687T548
639T600 557T619 442Q619 414 616 378T608 312Q580 153 499 72T283 -10ZM293 145Q311 145 325 154T350 186T370 244T388 335Q391 350 393 369T398 407T402 445T404 477Q404 515 390 532T350 549Q333 549 320 539T295 507T274 447T255 356Q252 338 250 319T245 280T242
245T240 216Q240 178 253 162T293 145Z" />
<glyph unicode="&#xd7;" glyph-name="multiply" horiz-adv-x="485" d="M15 222L146 338L52 453L171 557L263 443L393 558L487 452L354 334L448 220L332 116L237 232L106 115L15 222Z" />
<glyph unicode="&#xd8;" glyph-name="Oslash" horiz-adv-x="621" d="M282 -10Q178 -10 113 43L76 0H-35L58 108Q25 166 25 252Q25 279 27 311T34 372Q61 537 143 620T360 703Q463 703 528 655L561 693H673L585 590Q620 531 620 442Q620 410 617 371T605 299Q576
146 495 68T282 -10ZM292 140Q312 140 328 149T358 181T381 241T400 334Q402 345 403 357T407 384L232 181Q245 140 292 140ZM238 317L409 517Q402 536 387 545T352 554Q332 554 316 545T287 512T264 452T244 357L238 317Z" />
<glyph unicode="&#xd9;" glyph-name="Ugrave" horiz-adv-x="594" d="M239 862H417L440 723H299L239 862ZM270 -10Q203 -10 156 4T80 44T37 106T23 186Q23 216 29 254L97 693H306L234 234Q231 217 231 200Q231 175 244 161T286 146Q323 146 339 167T361 228L434
693H628L556 228Q546 168 526 124T472 50T388 5T270 -10Z" />
<glyph unicode="&#xda;" glyph-name="Uacute" horiz-adv-x="594" d="M358 861H542L438 723H294L358 861ZM270 -10Q203 -10 156 4T80 44T37 106T23 186Q23 216 29 254L97 693H306L234 234Q231 217 231 200Q231 175 244 161T286 146Q323 146 339 167T361 228L434
693H628L556 228Q546 168 526 124T472 50T388 5T270 -10Z" />
<glyph unicode="&#xdb;" glyph-name="Ucircumflex" horiz-adv-x="594" d="M313 856H464L536 723H408L376 764L331 723H197L313 856ZM270 -10Q203 -10 156 4T80 44T37 106T23 186Q23 216 29 254L97 693H306L234 234Q231 217 231 200Q231 175 244 161T286 146Q323
146 339 167T361 228L434 693H628L556 228Q546 168 526 124T472 50T388 5T270 -10Z" />
<glyph unicode="&#xdc;" glyph-name="Udieresis" horiz-adv-x="594" d="M270 -10Q203 -10 156 4T80 44T37 106T23 186Q23 216 29 254L97 693H306L234 234Q231 217 231 200Q231 175 244 161T286 146Q323 146 339 167T361 228L434 693H628L556 228Q546 168 526 124T472
50T388 5T270 -10ZM413 857H569L549 724H393L413 857ZM213 857H369L348 724H193L213 857Z" />
<glyph unicode="&#xdd;" glyph-name="Yacute" horiz-adv-x="561" d="M173 261L68 693H276L299 552Q302 529 304 508T309 471Q311 452 312 436H314Q320 452 327 471Q333 487 342 508T362 553L429 693H625L382 256L342 0H133L173 261ZM348 861H532L428 723H284L348 861Z" />
<glyph unicode="&#xde;" glyph-name="Thorn" horiz-adv-x="568" d="M100 693H308L292 587H349Q464 587 517 540T570 406Q570 357 556 309Q545 267 526 235T477 181T403 148T302 136H221L200 0H-8L100 693ZM281 269Q313 269 330 286T354 339L357 370Q360 411 348
427T306 443H269L241 269H281Z" />
<glyph unicode="&#xdf;" glyph-name="germandbls" horiz-adv-x="583" d="M68 526Q86 638 157 691T346 744Q461 744 515 703T569 593Q569 549 548 518T503 461Q472 429 454 413T436 376Q436 364 442 356T460 338L484 319Q520 292 540 262T561 181Q561 155 553 127T530
76Q481 -8 352 -8Q306 -8 272 0T214 20L234 145Q253 135 275 128T326 120Q340 120 349 122T366 131Q380 140 380 159Q380 170 373 178T351 197L328 214Q295 236 278 263T260 327Q260 370 277 401T319 465Q348 503 364 525T381 574Q381 591 369 602T335 613Q300
613 282 591T255 520L144 -191H-43L68 526Z" />
<glyph unicode="&#xe0;" glyph-name="agrave" horiz-adv-x="510" d="M144 -8Q82 -8 45 33T7 161Q7 195 11 234T26 312Q42 375 70 420T136 493T221 534T323 547Q392 547 443 537T520 515L439 0H284L279 55H275Q251 26 219 9T144 -8ZM236 127Q249 127 258 132T274
142L316 411Q308 414 294 414Q264 414 246 388T215 298Q213 286 210 270T205 236T202 202T200 173Q200 127 236 127ZM193 733H371L408 578H267L193 733Z" />
<glyph unicode="&#xe1;" glyph-name="aacute" horiz-adv-x="510" d="M144 -8Q82 -8 45 33T7 161Q7 195 11 234T26 312Q42 375 70 420T136 493T221 534T323 547Q392 547 443 537T520 515L439 0H284L279 55H275Q251 26 219 9T144 -8ZM236 127Q249 127 258 132T274
142L316 411Q308 414 294 414Q264 414 246 388T215 298Q213 286 210 270T205 236T202 202T200 173Q200 127 236 127ZM317 733H499L390 578H245L317 733Z" />
<glyph unicode="&#xe2;" glyph-name="acircumflex" horiz-adv-x="510" d="M144 -8Q82 -8 45 33T7 161Q7 195 11 234T26 312Q42 375 70 420T136 493T221 534T323 547Q392 547 443 537T520 515L439 0H284L279 55H275Q251 26 219 9T144 -8ZM236 127Q249 127 258 132T274
142L316 411Q308 414 294 414Q264 414 246 388T215 298Q213 286 210 270T205 236T202 202T200 173Q200 127 236 127ZM284 733H434L501 578H373L343 629L295 578H161L284 733Z" />
<glyph unicode="&#xe3;" glyph-name="atilde" horiz-adv-x="510" d="M144 -8Q82 -8 45 33T7 161Q7 195 11 234T26 312Q42 375 70 420T136 493T221 534T323 547Q392 547 443 537T520 515L439 0H284L279 55H275Q251 26 219 9T144 -8ZM236 127Q249 127 258 132T274
142L316 411Q308 414 294 414Q264 414 246 388T215 298Q213 286 210 270T205 236T202 202T200 173Q200 127 236 127ZM160 585Q169 662 205 697T287 732Q306 732 320 728T347 717T370 707T392 702Q416 702 421 731H525Q517 660 483 622T398 584Q378 584 364 588T337
598T314 608T293 613Q281 613 274 605T265 585H160Z" />
<glyph unicode="&#xe4;" glyph-name="adieresis" horiz-adv-x="510" d="M144 -8Q82 -8 45 33T7 161Q7 195 11 234T26 312Q42 375 70 420T136 493T221 534T323 547Q392 547 443 537T520 515L439 0H284L279 55H275Q251 26 219 9T144 -8ZM236 127Q249 127 258 132T274
142L316 411Q308 414 294 414Q264 414 246 388T215 298Q213 286 210 270T205 236T202 202T200 173Q200 127 236 127ZM374 724H528L505 582H352L374 724ZM177 724H331L308 582H155L177 724Z" />
<glyph unicode="&#xe5;" glyph-name="aring" horiz-adv-x="510" d="M144 -8Q82 -8 45 33T7 161Q7 195 11 234T26 312Q42 375 70 420T136 493T221 534T323 547Q392 547 443 537T520 515L439 0H284L279 55H275Q251 26 219 9T144 -8ZM236 127Q249 127 258 132T274
142L316 411Q308 414 294 414Q264 414 246 388T215 298Q213 286 210 270T205 236T202 202T200 173Q200 127 236 127ZM335 574Q286 574 255 603T223 680Q223 730 256 761T344 793Q395 793 426 764T458 689Q458 635 424 605T335 574ZM339 643Q356 643 367 654T378
687Q378 704 369 713T342 723Q325 723 314 713T303 681Q303 664 312 654T339 643Z" />
<glyph unicode="&#xe6;" glyph-name="ae" horiz-adv-x="726" d="M488 -8Q419 -8 372 10T296 64Q267 30 227 11T135 -8Q64 -8 28 29T-8 126Q-8 143 -6 160T2 193Q19 247 64 274T192 314L274 326L277 342Q278 347 278 352T279 362Q279 385 261 395T204 405Q169 405
133 400T73 386L93 513Q128 527 170 537T269 547Q363 547 405 505Q434 527 467 537T536 547Q590 547 627 532T686 488T716 418T719 327Q719 318 718 305T713 276L708 246Q706 231 704 220H445V206Q445 165 463 146T535 126Q577 126 614 134T675 151L657 33Q628
16 588 4T488 -8ZM209 112Q239 112 264 135Q258 163 258 196V212Q258 220 259 228L233 227Q213 226 201 219T183 188Q180 177 179 167T178 149Q178 112 209 112ZM457 320H544Q549 346 550 365T546 397Q541 422 518 422Q495 422 482 403T460 335L457 320Z" />
<glyph unicode="&#xe7;" glyph-name="ccedilla" horiz-adv-x="398" d="M209 -8L204 -41Q247 -43 269 -62T291 -114Q291 -165 240 -194T75 -226L86 -156Q128 -153 148 -146T168 -121Q168 -109 157 -103T115 -95L131 4Q69 24 39 73T9 194Q9 211 11 237T18 295Q30
357 51 404T107 483T188 531T299 547Q344 547 375 539T422 521L400 387Q386 394 368 399T321 405Q273 405 246 380T208 293Q208 288 207 280T204 262T202 243T201 230Q197 181 215 158T279 135Q308 135 330 141T368 152L347 22Q330 11 300 2T218 -8H209Z" />
<glyph unicode="&#xe8;" glyph-name="egrave" horiz-adv-x="478" d="M240 -8Q122 -8 66 45T10 196Q10 222 12 249T20 302Q41 426 108 486T277 547Q334 547 373 532T436 487T468 418T471 327Q469 301 465 272T456 220H197Q196 216 196 213T197 206Q197 165 215
146T287 126Q330 126 367 134T428 151L410 33Q381 16 341 4T240 -8ZM209 319H297Q300 337 301 353T304 380Q304 422 271 422Q248 422 234 403T212 335L209 319ZM150 733H328L365 578H224L150 733Z" />
<glyph unicode="&#xe9;" glyph-name="eacute" horiz-adv-x="478" d="M280 733H462L353 578H208L280 733ZM240 -8Q122 -8 66 45T10 196Q10 222 12 249T20 302Q41 426 108 486T277 547Q334 547 373 532T436 487T468 418T471 327Q469 301 465 272T456 220H197Q196
216 196 213T197 206Q197 165 215 146T287 126Q330 126 367 134T428 151L410 33Q381 16 341 4T240 -8ZM209 319H297Q300 337 301 353T304 380Q304 422 271 422Q248 422 234 403T212 335L209 319Z" />
<glyph unicode="&#xea;" glyph-name="ecircumflex" horiz-adv-x="478" d="M242 733H392L459 578H331L301 629L253 578H119L242 733ZM240 -8Q122 -8 66 45T10 196Q10 222 12 249T20 302Q41 426 108 486T277 547Q334 547 373 532T436 487T468 418T471 327Q469 301
465 272T456 220H197Q196 216 196 213T197 206Q197 165 215 146T287 126Q330 126 367 134T428 151L410 33Q381 16 341 4T240 -8ZM209 319H297Q300 337 301 353T304 380Q304 422 271 422Q248 422 234 403T212 335L209 319Z" />
<glyph unicode="&#xeb;" glyph-name="edieresis" horiz-adv-x="478" d="M335 724H489L466 582H313L335 724ZM138 724H292L269 582H116L138 724ZM240 -8Q122 -8 66 45T10 196Q10 222 12 249T20 302Q41 426 108 486T277 547Q334 547 373 532T436 487T468 418T471
327Q469 301 465 272T456 220H197Q196 216 196 213T197 206Q197 165 215 146T287 126Q330 126 367 134T428 151L410 33Q381 16 341 4T240 -8ZM209 319H297Q300 337 301 353T304 380Q304 422 271 422Q248 422 234 403T212 335L209 319Z" />
<glyph unicode="&#xec;" glyph-name="igrave" horiz-adv-x="246" d="M74 536H262L176 0H-11L74 536ZM291 733H469L506 578H365L291 733Z" />
<glyph unicode="&#xed;" glyph-name="iacute" horiz-adv-x="246" d="M424 733H606L497 578H352L424 733ZM74 536H262L176 0H-11L74 536Z" />
<glyph unicode="&#xee;" glyph-name="icircumflex" horiz-adv-x="246" d="M72 539H260L176 0H-13L72 539ZM123 733H273L338 578H210L183 628L136 578H2L123 733Z" />
<glyph unicode="&#xef;" glyph-name="idieresis" horiz-adv-x="246" d="M215 724H359L337 582H192L215 724ZM31 724H176L153 582H9L31 724ZM71 539H260L175 0H-13L71 539Z" />
<glyph unicode="&#xf0;" glyph-name="eth" horiz-adv-x="517" d="M211 649Q192 671 171 692T126 735H330Q341 726 352 717T374 696L467 724L486 656L425 638Q463 587 486 525T510 388Q510 351 506 308T491 219Q468 110 401 51T228 -8Q171 -8 130 7T63 49T23 113T10
194Q10 218 12 250T23 315Q44 417 96 473T232 529Q251 529 266 525T289 515H296Q280 555 257 588L136 553L115 621L211 649ZM319 392Q319 396 319 399T318 408Q311 411 303 413T283 416Q255 416 240 389T214 298Q209 266 204 232T199 177Q199 148 209 135T238 121Q264
121 279 150T305 248Q311 288 315 325T319 392Z" />
<glyph unicode="&#xf1;" glyph-name="ntilde" horiz-adv-x="513" d="M70 539H254L245 485H249Q275 510 311 528T395 547Q451 547 480 518T509 432Q509 421 508 408T504 380L445 0H257L311 351Q312 356 312 361T313 371Q313 385 307 391T283 398Q269 398 257 394T234
382L174 0H-14L70 539ZM137 585Q146 662 182 697T264 732Q283 732 297 728T324 717T347 707T369 702Q393 702 398 731H502Q494 660 460 622T375 584Q355 584 341 588T314 598T291 608T270 613Q258 613 251 605T242 585H137Z" />
<glyph unicode="&#xf2;" glyph-name="ograve" horiz-adv-x="510" d="M221 -8Q120 -8 65 48T10 200Q10 222 12 246T19 293Q29 350 50 397T105 477T182 529T282 547Q337 547 378 532T446 489T487 425T501 343Q501 322 499 295T492 241Q483 185 462 139T408 61T328
10T221 -8ZM233 126Q257 126 272 152T298 247Q304 283 307 313T311 360Q311 389 302 401T275 414Q251 414 236 387T210 291Q205 262 201 231T197 179Q197 151 206 139T233 126ZM156 733H334L371 578H230L156 733Z" />
<glyph unicode="&#xf3;" glyph-name="oacute" horiz-adv-x="510" d="M290 733H472L363 578H218L290 733ZM221 -8Q120 -8 65 48T10 200Q10 222 12 246T19 293Q29 350 50 397T105 477T182 529T282 547Q337 547 378 532T446 489T487 425T501 343Q501 322 499 295T492
241Q483 185 462 139T408 61T328 10T221 -8ZM233 126Q257 126 272 152T298 247Q304 283 307 313T311 360Q311 389 302 401T275 414Q251 414 236 387T210 291Q205 262 201 231T197 179Q197 151 206 139T233 126Z" />
<glyph unicode="&#xf4;" glyph-name="ocircumflex" horiz-adv-x="510" d="M253 733H403L470 578H342L312 629L264 578H130L253 733ZM221 -8Q120 -8 65 48T10 200Q10 222 12 246T19 293Q29 350 50 397T105 477T182 529T282 547Q337 547 378 532T446 489T487 425T501
343Q501 322 499 295T492 241Q483 185 462 139T408 61T328 10T221 -8ZM233 126Q257 126 272 152T298 247Q304 283 307 313T311 360Q311 389 302 401T275 414Q251 414 236 387T210 291Q205 262 201 231T197 179Q197 151 206 139T233 126Z" />
<glyph unicode="&#xf5;" glyph-name="otilde" horiz-adv-x="510" d="M221 -8Q120 -8 65 48T10 200Q10 222 12 246T19 293Q29 350 50 397T105 477T182 529T282 547Q337 547 378 532T446 489T487 425T501 343Q501 322 499 295T492 241Q483 185 462 139T408 61T328
10T221 -8ZM233 126Q257 126 272 152T298 247Q304 283 307 313T311 360Q311 389 302 401T275 414Q251 414 236 387T210 291Q205 262 201 231T197 179Q197 151 206 139T233 126ZM127 585Q136 662 172 697T254 732Q273 732 287 728T314 717T337 707T359 702Q383 702
388 731H492Q484 660 450 622T365 584Q345 584 331 588T304 598T281 608T260 613Q248 613 241 605T232 585H127Z" />
<glyph unicode="&#xf6;" glyph-name="odieresis" horiz-adv-x="510" d="M341 724H495L472 582H319L341 724ZM144 724H298L275 582H122L144 724ZM221 -8Q120 -8 65 48T10 200Q10 222 12 246T19 293Q29 350 50 397T105 477T182 529T282 547Q337 547 378 532T446
489T487 425T501 343Q501 322 499 295T492 241Q483 185 462 139T408 61T328 10T221 -8ZM233 126Q257 126 272 152T298 247Q304 283 307 313T311 360Q311 389 302 401T275 414Q251 414 236 387T210 291Q205 262 201 231T197 179Q197 151 206 139T233 126Z" />
<glyph unicode="&#xf7;" glyph-name="divide" horiz-adv-x="451" d="M43 419H455L431 272H19L43 419ZM133 233H305L280 75H108L133 233ZM194 617H365L340 458H169L194 617Z" />
<glyph unicode="&#xf8;" glyph-name="oslash" horiz-adv-x="510" d="M223 -8Q141 -8 88 31L60 0H-37L39 85Q12 133 12 200Q12 220 14 242T19 286Q28 345 49 393T104 475T183 528T285 547Q327 547 361 538T422 511L448 540H544L472 460Q504 410 504 343Q504 323
503 298T496 246Q487 189 466 142T411 62T331 10T223 -8ZM235 117Q265 117 283 144T313 244L320 290L190 145Q196 130 208 124T235 117ZM200 295Q198 285 197 276T193 257L321 399Q309 422 278 422Q249 422 231 394T200 295Z" />
<glyph unicode="&#xf9;" glyph-name="ugrave" horiz-adv-x="510" d="M123 -8Q66 -8 36 23T6 110Q6 123 7 137T12 174L69 539H257L203 191Q200 174 200 165Q200 139 229 139Q242 139 254 143T277 155L337 539H525L441 0H278L272 56H268Q239 28 204 10T123 -8ZM163
733H341L378 578H237L163 733Z" />
<glyph unicode="&#xfa;" glyph-name="uacute" horiz-adv-x="510" d="M298 733H480L371 578H226L298 733ZM123 -8Q66 -8 36 23T6 110Q6 123 7 137T12 174L69 539H257L203 191Q200 174 200 165Q200 139 229 139Q242 139 254 143T277 155L337 539H525L441 0H278L272
56H268Q239 28 204 10T123 -8Z" />
<glyph unicode="&#xfb;" glyph-name="ucircumflex" horiz-adv-x="510" d="M253 733H403L470 578H342L312 629L264 578H130L253 733ZM123 -8Q66 -8 36 23T6 110Q6 123 7 137T12 174L69 539H257L203 191Q200 174 200 165Q200 139 229 139Q242 139 254 143T277 155L337
539H525L441 0H278L272 56H268Q239 28 204 10T123 -8Z" />
<glyph unicode="&#xfc;" glyph-name="udieresis" horiz-adv-x="510" d="M346 724H500L477 582H324L346 724ZM149 724H303L280 582H127L149 724ZM123 -8Q66 -8 36 23T6 110Q6 123 7 137T12 174L69 539H257L203 191Q200 174 200 165Q200 139 229 139Q242 139 254
143T277 155L337 539H525L441 0H278L272 56H268Q239 28 204 10T123 -8Z" />
<glyph unicode="&#xfd;" glyph-name="yacute" horiz-adv-x="495" d="M53 -196Q22 -196 -3 -191T-45 -178L-25 -53Q-14 -55 1 -58T32 -61Q59 -61 76 -53T103 -21L113 1L42 539H230L239 350Q239 328 239 307T240 268Q240 248 241 229H244Q249 248 255 267Q260 284
267 304T282 345L357 539H536L274 -47Q256 -87 236 -115T191 -161T132 -187T53 -196ZM289 733H471L362 578H217L289 733Z" />
<glyph unicode="&#xfe;" glyph-name="thorn" horiz-adv-x="516" d="M101 735H288L251 497H255Q279 516 307 531T379 547Q437 547 474 508T511 384Q511 352 507 317T496 240Q474 117 416 55T262 -8Q208 -8 174 8L143 -191H-44L101 735ZM227 116Q242 116 253 121T272
138T287 170T298 219Q301 233 304 252T309 289T312 324T314 349Q314 379 304 390T277 401Q263 401 253 396T234 385L193 123Q207 116 227 116Z" />
<glyph unicode="&#xff;" glyph-name="ydieresis" horiz-adv-x="495" d="M53 -196Q22 -196 -3 -191T-45 -178L-25 -53Q-14 -55 1 -58T32 -61Q59 -61 76 -53T103 -21L113 1L42 539H230L239 350Q239 328 239 307T240 268Q240 248 241 229H244Q249 248 255 267Q260
284 267 304T282 345L357 539H536L274 -47Q256 -87 236 -115T191 -161T132 -187T53 -196ZM342 724H496L473 582H320L342 724ZM145 724H299L276 582H123L145 724Z" />
<glyph unicode="&#x100;" glyph-name="Amacron" horiz-adv-x="605" d="M252 693H497L560 0H358L355 111H199L157 0H-40L252 693ZM249 245H349L343 367Q342 390 342 412V490H338Q332 472 325 452Q319 435 312 413T295 367L249 245ZM255 838H533L514 725H238L255 838Z" />
<glyph unicode="&#x101;" glyph-name="amacron" horiz-adv-x="510" d="M144 -8Q82 -8 45 33T7 161Q7 195 11 234T26 312Q42 375 70 420T136 493T221 534T323 547Q392 547 443 537T520 515L439 0H284L279 55H275Q251 26 219 9T144 -8ZM236 127Q249 127 258 132T274
142L316 411Q308 414 294 414Q264 414 246 388T215 298Q213 286 210 270T205 236T202 202T200 173Q200 127 236 127ZM211 700H481L462 583H192L211 700Z" />
<glyph unicode="&#x102;" glyph-name="Abreve" horiz-adv-x="605" d="M252 693H497L560 0H358L355 111H199L157 0H-40L252 693ZM249 245H349L343 367Q342 390 342 412V490H338Q332 472 325 452Q319 435 312 413T295 367L249 245ZM379 719Q340 719 312 730T266
759T239 803T232 857H348Q347 840 355 831T381 821Q417 821 423 857H540Q536 829 524 804T492 760T444 730T379 719Z" />
<glyph unicode="&#x103;" glyph-name="abreve" horiz-adv-x="510" d="M144 -8Q82 -8 45 33T7 161Q7 195 11 234T26 312Q42 375 70 420T136 493T221 534T323 547Q392 547 443 537T520 515L439 0H284L279 55H275Q251 26 219 9T144 -8ZM236 127Q249 127 258 132T274
142L316 411Q308 414 294 414Q264 414 246 388T215 298Q213 286 210 270T205 236T202 202T200 173Q200 127 236 127ZM333 579Q257 579 220 619T188 725H305Q303 688 338 688Q357 688 366 698T380 725H497Q493 694 481 667T448 621T399 590T333 579Z" />
<glyph unicode="&#x104;" glyph-name="Aogonek" horiz-adv-x="605" d="M527 -183Q516 -188 496 -192T452 -197Q396 -197 371 -173T345 -114Q345 -94 353 -77T375 -46T407 -20T444 0H353L347 111H191L149 0H-40L253 693H494L559 6Q535 -11 516 -30T496 -69Q496
-92 521 -92Q528 -92 534 -91T544 -90L527 -183ZM242 245H342L336 367Q334 390 334 413V494H330Q325 475 318 454Q312 436 304 413L288 367L242 245Z" />
<glyph unicode="&#x105;" glyph-name="aogonek" horiz-adv-x="510" d="M339 -197Q284 -197 258 -173T232 -114Q232 -93 241 -76T265 -44T299 -19T338 0H284L279 55H275Q251 26 219 9T144 -8Q82 -8 45 33T7 161Q7 193 11 231T25 308Q41 372 69 417T135 491T220
533T323 547Q392 547 443 537T520 515L440 4Q417 -15 400 -32T383 -70Q383 -92 409 -92Q416 -92 422 -91T431 -90L414 -183Q403 -188 383 -192T339 -197ZM236 127Q249 127 258 132T274 142L316 411Q308 414 294 414Q264 414 246 388T215 298Q213 286 210 270T205
236T202 202T200 173Q200 127 236 127Z" />
<glyph unicode="&#x106;" glyph-name="Cacute" horiz-adv-x="490" d="M284 -9Q156 -9 90 55T23 244Q23 284 27 327T43 421Q76 563 157 633T374 703Q434 703 472 693T530 673L507 524Q488 532 463 537T405 543Q372 543 348 533T308 505T280 460T262 403Q251 355
247 320T243 255Q243 198 269 174T344 150Q379 150 408 156T457 171L433 21Q413 10 374 1T284 -9ZM343 861H527L423 723H279L343 861Z" />
<glyph unicode="&#x107;" glyph-name="cacute" horiz-adv-x="398" d="M277 733H459L350 578H205L277 733ZM218 -8Q112 -8 61 46T9 194Q9 211 11 237T18 295Q30 357 51 404T107 483T188 531T299 547Q344 547 375 539T422 521L400 387Q386 394 368 399T321 405Q273
405 246 380T208 293Q208 288 207 280T204 262T202 243T201 230Q197 181 215 158T279 135Q308 135 330 141T368 152L347 22Q330 11 300 2T218 -8Z" />
<glyph unicode="&#x108;" glyph-name="Ccircumflex" horiz-adv-x="490" d="M300 856H451L523 723H395L363 764L318 723H184L300 856ZM284 -9Q156 -9 90 55T23 244Q23 284 27 327T43 421Q76 563 157 633T374 703Q434 703 472 693T530 673L507 524Q488 532 463 537T405
543Q372 543 348 533T308 505T280 460T262 403Q251 355 247 320T243 255Q243 198 269 174T344 150Q379 150 408 156T457 171L433 21Q413 10 374 1T284 -9Z" />
<glyph unicode="&#x109;" glyph-name="ccircumflex" horiz-adv-x="398" d="M228 733H378L445 578H317L287 629L239 578H105L228 733ZM218 -8Q112 -8 61 46T9 194Q9 211 11 237T18 295Q30 357 51 404T107 483T188 531T299 547Q344 547 375 539T422 521L400 387Q386
394 368 399T321 405Q273 405 246 380T208 293Q208 288 207 280T204 262T202 243T201 230Q197 181 215 158T279 135Q308 135 330 141T368 152L347 22Q330 11 300 2T218 -8Z" />
<glyph unicode="&#x10a;" glyph-name="Cdotaccent" horiz-adv-x="490" d="M284 -9Q156 -9 90 55T23 244Q23 284 27 327T43 421Q76 563 157 633T374 703Q434 703 472 693T530 673L507 524Q488 532 463 537T405 543Q372 543 348 533T308 505T280 460T262 403Q251
355 247 320T243 255Q243 198 269 174T344 150Q379 150 408 156T457 171L433 21Q413 10 374 1T284 -9ZM290 858H475L454 725H270L290 858Z" />
<glyph unicode="&#x10b;" glyph-name="cdotaccent" horiz-adv-x="398" d="M218 -8Q112 -8 61 46T9 194Q9 211 11 237T18 295Q30 357 51 404T107 483T188 531T299 547Q344 547 375 539T422 521L400 387Q386 394 368 399T321 405Q273 405 246 380T208 293Q208 288
207 280T204 262T202 243T201 230Q197 181 215 158T279 135Q308 135 330 141T368 152L347 22Q330 11 300 2T218 -8ZM202 729H390L367 582H179L202 729Z" />
<glyph unicode="&#x10c;" glyph-name="Ccaron" horiz-adv-x="490" d="M431 723H279L208 856H336L368 815L412 856H546L431 723ZM284 -9Q156 -9 90 55T23 244Q23 284 27 327T43 421Q76 563 157 633T374 703Q434 703 472 693T530 673L507 524Q488 532 463 537T405
543Q372 543 348 533T308 505T280 460T262 403Q251 355 247 320T243 255Q243 198 269 174T344 150Q379 150 408 156T457 171L433 21Q413 10 374 1T284 -9Z" />
<glyph unicode="&#x10d;" glyph-name="ccaron" horiz-adv-x="398" d="M132 733H261L290 682L339 733H472L349 578H200L132 733ZM218 -8Q112 -8 61 46T9 194Q9 211 11 237T18 295Q30 357 51 404T107 483T188 531T299 547Q344 547 375 539T422 521L400 387Q386 394
368 399T321 405Q273 405 246 380T208 293Q208 288 207 280T204 262T202 243T201 230Q197 181 215 158T279 135Q308 135 330 141T368 152L347 22Q330 11 300 2T218 -8Z" />
<glyph unicode="&#x10e;" glyph-name="Dcaron" horiz-adv-x="605" d="M423 723H271L200 856H328L360 815L404 856H538L423 723ZM100 693H320Q467 693 534 633T601 454Q601 412 596 368T583 284Q569 209 544 155T479 67T386 16T261 0H-8L100 693ZM260 150Q284 150
301 158T330 184T350 229T366 294Q369 312 372 335T379 382T383 427T385 462Q385 509 368 526T313 543H284L223 150H260Z" />
<glyph unicode="&#x10f;" glyph-name="dcaron" horiz-adv-x="517" d="M563 579L592 735H710L658 579H563ZM150 -8Q84 -8 46 34T8 163Q8 187 10 217T20 286Q43 421 103 484T251 547Q286 547 308 540T342 527L374 735H562Q561 730 556 698T543 614T525 498T505 368T484
237T466 122T453 37T447 0H288L284 49H280Q258 26 225 9T150 -8ZM236 128Q251 128 262 132T282 142L324 410Q317 413 309 416T289 419Q273 419 261 412T240 388T224 344T210 276Q205 247 203 221T201 178Q201 153 208 141T236 128Z" />
<glyph unicode="&#x110;" glyph-name="Dcroat" horiz-adv-x="605" d="M22 418H58L101 693H324Q471 693 538 633T605 454Q605 416 601 376T590 300Q577 222 552 165T488 72T393 18T264 0H-7L36 276H0L22 418ZM262 150Q310 150 332 184T368 294Q371 312 374 335T381
383T386 428T388 462Q388 509 370 526T316 543H283L264 418H337L314 276H242L222 150H262Z" />
<glyph unicode="&#x111;" glyph-name="dcroat" horiz-adv-x="517" d="M258 674H364L374 735H562L553 674H597L584 590H539Q531 537 521 475T501 348T482 223T465 114T452 35T447 0H288L284 49H280Q258 26 225 9T150 -8Q84 -8 46 34T8 163Q8 187 10 217T20 286Q43
421 103 484T251 547Q286 547 308 540T342 527L351 590H244L258 674ZM236 128Q251 128 262 132T282 142L324 410Q317 413 309 416T289 419Q273 419 261 412T240 388T224 344T210 276Q205 247 203 221T201 178Q201 153 208 141T236 128Z" />
<glyph unicode="&#x112;" glyph-name="Emacron" horiz-adv-x="480" d="M100 693H515L491 542H283L265 427H435L411 279H241L222 151H441L417 0H-8L100 693ZM192 838H470L451 725H175L192 838Z" />
<glyph unicode="&#x113;" glyph-name="emacron" horiz-adv-x="478" d="M240 -8Q122 -8 66 45T10 196Q10 222 12 249T20 302Q41 426 108 486T277 547Q334 547 373 532T436 487T468 418T471 327Q469 301 465 272T456 220H197Q196 216 196 213T197 206Q197 165 215
146T287 126Q330 126 367 134T428 151L410 33Q381 16 341 4T240 -8ZM209 319H297Q300 337 301 353T304 380Q304 422 271 422Q248 422 234 403T212 335L209 319ZM171 700H441L422 583H152L171 700Z" />
<glyph unicode="&#x114;" glyph-name="Ebreve" horiz-adv-x="480" d="M100 693H515L491 542H283L265 427H435L411 279H241L222 151H441L417 0H-8L100 693ZM320 719Q281 719 253 730T207 759T180 803T173 857H289Q288 840 296 831T322 821Q358 821 364 857H481Q477
829 465 804T433 760T385 730T320 719Z" />
<glyph unicode="&#x115;" glyph-name="ebreve" horiz-adv-x="478" d="M240 -8Q122 -8 66 45T10 196Q10 222 12 249T20 302Q41 426 108 486T277 547Q334 547 373 532T436 487T468 418T471 327Q469 301 465 272T456 220H197Q196 216 196 213T197 206Q197 165 215
146T287 126Q330 126 367 134T428 151L410 33Q381 16 341 4T240 -8ZM209 319H297Q300 337 301 353T304 380Q304 422 271 422Q248 422 234 403T212 335L209 319ZM298 579Q222 579 185 619T153 725H270Q268 688 303 688Q322 688 331 698T345 725H462Q458 694 446
667T413 621T364 590T298 579Z" />
<glyph unicode="&#x116;" glyph-name="Edotaccent" horiz-adv-x="480" d="M245 858H430L409 725H225L245 858ZM100 693H515L491 542H283L265 427H435L411 279H241L222 151H441L417 0H-8L100 693Z" />
<glyph unicode="&#x117;" glyph-name="edotaccent" horiz-adv-x="478" d="M240 -8Q122 -8 66 45T10 196Q10 222 12 249T20 302Q41 426 108 486T277 547Q334 547 373 532T436 487T468 418T471 327Q469 301 465 272T456 220H197Q196 216 196 213T197 206Q197 165
215 146T287 126Q330 126 367 134T428 151L410 33Q381 16 341 4T240 -8ZM209 319H297Q300 337 301 353T304 380Q304 422 271 422Q248 422 234 403T212 335L209 319ZM217 729H405L382 582H194L217 729Z" />
<glyph unicode="&#x118;" glyph-name="Eogonek" horiz-adv-x="480" d="M100 693H515L491 542H283L265 427H435L411 279H241L222 151H441L417 0H375Q357 -14 340 -32T322 -70Q322 -92 347 -92Q354 -92 360 -91T369 -90L353 -183Q342 -188 321 -192T278 -197Q222
-197 197 -173T171 -114Q171 -94 179 -77T202 -45T234 -20T271 0H-8L100 693Z" />
<glyph unicode="&#x119;" glyph-name="eogonek" horiz-adv-x="478" d="M197 206Q197 165 215 146T287 126Q330 126 367 134T428 151L410 33L378 15Q362 6 349 -2Q326 -19 311 -35T296 -69Q296 -92 321 -92Q328 -92 334 -91T343 -90L327 -182Q316 -188 296 -192T252
-196Q196 -196 171 -173T146 -114Q146 -76 173 -51T235 -8H234Q119 -6 65 46T10 196Q10 222 12 249T20 302Q41 426 108 486T277 547Q334 547 373 532T436 487T467 418T471 327Q471 318 470 305T465 276L460 246Q458 231 456 220H197Q196 216 196 213T197 206ZM209
319H297Q300 337 301 353T304 380Q304 422 271 422Q248 422 234 403T212 335L209 319Z" />
<glyph unicode="&#x11a;" glyph-name="Ecaron" horiz-adv-x="480" d="M383 723H231L160 856H288L320 815L364 856H498L383 723ZM100 693H515L491 542H283L265 427H435L411 279H241L222 151H441L417 0H-8L100 693Z" />
<glyph unicode="&#x11b;" glyph-name="ecaron" horiz-adv-x="478" d="M143 733H272L301 682L350 733H483L360 578H211L143 733ZM240 -8Q122 -8 66 45T10 196Q10 222 12 249T20 302Q41 426 108 486T277 547Q334 547 373 532T436 487T468 418T471 327Q469 301 465
272T456 220H197Q196 216 196 213T197 206Q197 165 215 146T287 126Q330 126 367 134T428 151L410 33Q381 16 341 4T240 -8ZM209 319H297Q300 337 301 353T304 380Q304 422 271 422Q248 422 234 403T212 335L209 319Z" />
<glyph unicode="&#x11c;" glyph-name="Gcircumflex" horiz-adv-x="588" d="M327 856H478L550 723H422L390 764L345 723H211L327 856ZM301 -8Q163 -8 94 54T25 245Q25 273 28 310T40 392Q71 553 156 628T390 703Q472 703 517 690T583 663L559 510Q538 521 501 531T413
541Q376 541 350 531T306 501T275 450T256 376Q253 364 250 344T244 303T239 263T237 234Q235 189 252 165T306 141Q319 141 328 143T345 147L362 256H308L330 393H578L521 27Q486 14 430 3T301 -8Z" />
<glyph unicode="&#x11d;" glyph-name="gcircumflex" horiz-adv-x="518" d="M277 733H427L494 578H366L336 629L288 578H154L277 733ZM173 -198Q115 -198 62 -188T-23 -159L-2 -28Q27 -39 63 -48T142 -57Q177 -57 199 -51T236 -34T256 -5T267 36L272 68H268Q246
45 217 32T149 19Q82 19 47 61T11 184Q11 208 13 240T23 308Q34 363 57 407T117 483T205 530T324 547Q356 547 387 544T445 536T493 526T529 514L451 19Q433 -97 366 -147T173 -198ZM239 145Q252 145 264 150T285 160L324 411Q319 413 311 415T295 417Q266 417
247 392T217 303Q212 273 209 245T205 194Q205 145 239 145Z" />
<glyph unicode="&#x11e;" glyph-name="Gbreve" horiz-adv-x="588" d="M387 719Q348 719 320 730T274 759T247 803T240 857H356Q355 840 363 831T389 821Q425 821 431 857H548Q544 829 532 804T500 760T452 730T387 719ZM301 -8Q163 -8 94 54T25 245Q25 273 28
310T40 392Q71 553 156 628T390 703Q472 703 517 690T583 663L559 510Q538 521 501 531T413 541Q376 541 350 531T306 501T275 450T256 376Q253 364 250 344T244 303T239 263T237 234Q235 189 252 165T306 141Q319 141 328 143T345 147L362 256H308L330 393H578L521
27Q486 14 430 3T301 -8Z" />
<glyph unicode="&#x11f;" glyph-name="gbreve" horiz-adv-x="518" d="M173 -198Q115 -198 62 -188T-23 -159L-2 -28Q27 -39 63 -48T142 -57Q177 -57 199 -51T236 -34T256 -5T267 36L272 68H268Q246 45 217 32T149 19Q82 19 47 61T11 184Q11 208 13 240T23 308Q34
363 57 407T117 483T205 530T324 547Q356 547 387 544T445 536T493 526T529 514L451 19Q433 -97 366 -147T173 -198ZM239 145Q252 145 264 150T285 160L324 411Q319 413 311 415T295 417Q266 417 247 392T217 303Q212 273 209 245T205 194Q205 145 239 145ZM329
579Q253 579 216 619T184 725H301Q299 688 334 688Q353 688 362 698T376 725H493Q489 694 477 667T444 621T395 590T329 579Z" />
<glyph unicode="&#x120;" glyph-name="Gdotaccent" horiz-adv-x="588" d="M308 858H493L472 725H288L308 858ZM301 -8Q163 -8 94 54T25 245Q25 273 28 310T40 392Q71 553 156 628T390 703Q472 703 517 690T583 663L559 510Q538 521 501 531T413 541Q376 541 350
531T306 501T275 450T256 376Q253 364 250 344T244 303T239 263T237 234Q235 189 252 165T306 141Q319 141 328 143T345 147L362 256H308L330 393H578L521 27Q486 14 430 3T301 -8Z" />
<glyph unicode="&#x121;" glyph-name="gdotaccent" horiz-adv-x="518" d="M173 -198Q115 -198 62 -188T-23 -159L-2 -28Q27 -39 63 -48T142 -57Q177 -57 199 -51T236 -34T256 -5T267 36L272 68H268Q246 45 217 32T149 19Q82 19 47 61T11 184Q11 208 13 240T23
308Q34 363 57 407T117 483T205 530T324 547Q356 547 387 544T445 536T493 526T529 514L451 19Q433 -97 366 -147T173 -198ZM239 145Q252 145 264 150T285 160L324 411Q319 413 311 415T295 417Q266 417 247 392T217 303Q212 273 209 245T205 194Q205 145 239 145ZM253
729H441L418 582H230L253 729Z" />
<glyph unicode="&#x122;" glyph-name="Gcommaaccent" horiz-adv-x="588" d="M199 -34H358L292 -181H167L199 -34ZM301 -8Q163 -8 94 54T25 245Q25 273 28 310T40 392Q71 553 156 628T390 703Q472 703 517 690T583 663L559 510Q538 521 501 531T413 541Q376 541
350 531T306 501T275 450T256 376Q253 364 250 344T244 303T239 263T237 234Q235 189 252 165T306 141Q319 141 328 143T345 147L362 256H308L330 393H578L521 27Q486 14 430 3T301 -8Z" />
<glyph unicode="&#x123;" glyph-name="gcommaaccent" horiz-adv-x="518" d="M403 584H241L307 731H432L403 584ZM173 -198Q115 -198 62 -188T-23 -159L-2 -28Q27 -39 63 -48T142 -57Q177 -57 199 -51T236 -34T256 -5T267 36L272 68H268Q246 45 217 32T149 19Q82
19 47 61T11 184Q11 208 13 240T23 308Q34 363 57 407T117 483T205 530T324 547Q356 547 387 544T445 536T493 526T529 514L451 19Q433 -97 366 -147T173 -198ZM239 145Q252 145 264 150T285 160L324 411Q319 413 311 415T295 417Q266 417 247 392T217 303Q212
273 209 245T205 194Q205 145 239 145Z" />
<glyph unicode="&#x124;" glyph-name="Hcircumflex" horiz-adv-x="612" d="M100 693H308L267 432H395L436 693H644L535 0H327L372 279H244L200 0H-8L100 693ZM319 856H470L542 723H414L382 764L337 723H203L319 856Z" />
<glyph unicode="&#x125;" glyph-name="hcircumflex" horiz-adv-x="513" d="M101 735H288L251 491H255Q279 514 314 530T394 547Q509 547 509 432Q509 421 508 408T504 380L445 0H257L311 349Q312 354 312 360T313 371Q313 385 307 391T283 398Q270 398 258 394T234
382L174 0H-14L101 735ZM276 904H427L499 771H371L339 812L294 771H160L276 904Z" />
<glyph unicode="&#x126;" glyph-name="Hbar" horiz-adv-x="624" d="M52 594H89L105 693H313L297 594H426L442 693H650L634 594H672L657 503H620L542 0H333L377 279H248L205 0H-3L75 503H37L52 594ZM401 428L412 503H283L272 428H401Z" />
<glyph unicode="&#x127;" glyph-name="hbar" horiz-adv-x="513" d="M45 674H91L101 735H288L278 674H387L374 590H266L251 491H255Q279 514 314 530T394 547Q509 547 509 432Q509 421 508 408T504 380L445 0H257L311 349Q312 354 312 360T313 371Q313 385 307
391T283 398Q270 398 258 394T234 382L174 0H-14L78 590H33L45 674Z" />
<glyph unicode="&#x128;" glyph-name="Itilde" horiz-adv-x="277" d="M101 693H309L200 0H-8L101 693ZM295 725Q300 764 313 790T343 832T379 855T418 862Q436 862 450 858T477 849T500 840T520 836Q540 836 546 860H654Q648 821 636 795T607 752T570 728T529
721Q512 721 498 725T472 735T450 744T430 749Q419 749 412 743T403 725H295Z" />
<glyph unicode="&#x129;" glyph-name="itilde" horiz-adv-x="246" d="M72 539H260L175 0H-13L72 539ZM14 585Q24 660 55 696T129 732Q147 732 161 728T186 717L206 707Q215 703 224 703Q246 703 249 731H352Q343 659 313 622T237 584Q219 584 205 588T180 598L160
608Q151 613 142 613Q130 613 124 605T116 585H14Z" />
<glyph unicode="&#x12a;" glyph-name="Imacron" horiz-adv-x="277" d="M101 693H310L201 0H-8L101 693ZM95 839H362L343 725H77L95 839Z" />
<glyph unicode="&#x12b;" glyph-name="imacron" horiz-adv-x="246" d="M72 701H313L294 583H52L72 701ZM72 539H261L175 0H-13L72 539Z" />
<glyph unicode="&#x12c;" glyph-name="Ibreve" horiz-adv-x="277" d="M101 693H309L200 0H-8L101 693ZM477 719Q438 719 410 730T364 759T337 803T330 857H446Q445 840 453 831T479 821Q515 821 521 857H638Q634 829 622 804T590 760T542 730T477 719Z" />
<glyph unicode="&#x12d;" glyph-name="ibreve" horiz-adv-x="246" d="M183 582Q144 582 117 593T74 623T50 668T45 725H159Q158 711 164 701T187 690Q215 690 220 725H335Q328 661 289 622T183 582ZM72 539H261L175 0H-13L72 539Z" />
<glyph unicode="&#x12e;" glyph-name="Iogonek" horiz-adv-x="277" d="M94 -197Q38 -197 13 -173T-13 -114Q-13 -93 -5 -76T18 -45T50 -20T87 0H-8L100 693H309L201 4Q176 -13 157 -31T138 -70Q138 -92 164 -92Q171 -92 176 -91T186 -90L170 -183Q159 -188 138
-192T94 -197Z" />
<glyph unicode="&#x12f;" glyph-name="iogonek" horiz-adv-x="246" d="M-33 -114Q-33 -93 -25 -76T-2 -44T31 -19T70 0H-13L72 539H260L175 3Q153 -14 136 -32T118 -70Q118 -92 144 -92Q150 -92 156 -91T165 -90L148 -183Q137 -188 117 -192T74 -197Q18 -197 -7
-173T-33 -114ZM101 729H290L267 582H78L101 729Z" />
<glyph unicode="&#x130;" glyph-name="Idotaccent" horiz-adv-x="277" d="M101 693H309L200 0H-8L101 693ZM396 858H581L560 725H376L396 858Z" />
<glyph unicode="&#x131;" glyph-name="dotlessi" horiz-adv-x="245" d="M74 536H262L176 0H-11L74 536Z" />
<glyph unicode="&#x132;" glyph-name="IJ" horiz-adv-x="656" d="M101 693H309L200 0H-8L101 693ZM395 -7Q344 -7 308 1T252 23L275 165Q285 162 301 159T334 156Q369 156 385 170T407 220L481 693H689L613 200Q605 147 590 109T549 44T485 6T395 -7Z" />
<glyph unicode="&#x133;" glyph-name="ij" horiz-adv-x="246" d="M77 539H265L180 0H-8L77 539ZM106 729H295L272 582H83L106 729ZM222 -195Q189 -195 162 -188T121 -172L142 -56Q159 -61 179 -61Q204 -61 216 -51T234 -11L320 539H509L419 -33Q407 -110 362 -152T222
-195ZM349 729H538L515 582H327L349 729Z" />
<glyph unicode="&#x134;" glyph-name="Jcircumflex" horiz-adv-x="381" d="M254 856H405L477 723H349L317 764L272 723H138L254 856ZM120 -7Q68 -7 32 1T-24 23L-1 165Q9 162 25 159T58 156Q93 156 109 170T131 220L205 693H414L338 200Q330 147 315 109T273 44T210
6T120 -7Z" />
<glyph unicode="&#x135;" glyph-name="jcircumflex" horiz-adv-x="248" d="M123 733H273L337 578H210L182 628L137 578H2L123 733ZM-26 -195Q-59 -195 -86 -188T-127 -172L-106 -56Q-98 -58 -89 -59T-68 -61Q-44 -61 -32 -51T-14 -11L72 539H261L171 -33Q159 -110
114 -152T-26 -195Z" />
<glyph unicode="&#x136;" glyph-name="Kcommaaccent" horiz-adv-x="593" d="M174 -34H333L267 -181H142L174 -34ZM100 693H308L262 401L444 693H652L440 359L547 0H330L248 308L200 0H-8L100 693Z" />
<glyph unicode="&#x137;" glyph-name="kcommaaccent" horiz-adv-x="510" d="M131 -34H290L224 -181H99L131 -34ZM211 247L172 0H-14L100 735H288L222 316L360 539H546L380 286L465 0H272L211 247Z" />
<glyph unicode="&#x139;" glyph-name="Lacute" horiz-adv-x="455" d="M449 861H633L529 723H385L449 861ZM100 693H308L224 151H423L399 0H-8L100 693Z" />
<glyph unicode="&#x13a;" glyph-name="lacute" horiz-adv-x="244" d="M447 904H631L527 766H383L447 904ZM101 735H289Q288 730 283 698T270 614T252 498T232 368T211 237T193 122T179 37T173 0H-14L101 735Z" />
<glyph unicode="&#x13b;" glyph-name="Lcommaaccent" horiz-adv-x="455" d="M116 -34H275L209 -181H84L116 -34ZM100 693H308L224 151H423L399 0H-8L100 693Z" />
<glyph unicode="&#x13c;" glyph-name="lcommaaccent" horiz-adv-x="244" d="M253 -34H412L346 -181H221L253 -34ZM101 735H289Q288 730 283 698T270 614T252 498T232 368T211 237T193 122T179 37T173 0H-14L101 735Z" />
<glyph unicode="&#x13d;" glyph-name="Lcaron" horiz-adv-x="455" d="M100 693H309L225 151H421L398 0H-8L100 693ZM350 693H489L430 510H314L350 693Z" />
<glyph unicode="&#x13e;" glyph-name="lcaron" horiz-adv-x="244" d="M290 579L319 735H437L385 579H290ZM101 735H289Q288 730 283 698T270 614T252 498T232 368T211 237T193 122T179 37T173 0H-14L101 735Z" />
<glyph unicode="&#x13f;" glyph-name="Ldot" horiz-adv-x="455" d="M100 693H308L224 151H423L399 0H-8L100 693ZM319 437H475L450 292H295L319 437Z" />
<glyph unicode="&#x140;" glyph-name="ldot" horiz-adv-x="400" d="M275 427H419L398 289H254L275 427ZM102 735H290Q289 730 284 698T271 614T253 498T233 368T212 237T194 122T180 37T174 0H-13L102 735Z" />
<glyph unicode="&#x141;" glyph-name="Lslash" horiz-adv-x="462" d="M31 217L-15 201L8 344L54 361L106 693H314L274 437L411 486L388 342L251 293L229 151H430L405 0H-3L31 217Z" />
<glyph unicode="&#x142;" glyph-name="lslash" horiz-adv-x="283" d="M21 382L68 404L120 735H308Q308 732 305 712T297 660T285 587T271 499L321 523L299 379L248 355Q238 290 228 228T211 117T198 36T193 0H5L45 260L-1 238L21 382Z" />
<glyph unicode="&#x143;" glyph-name="Nacute" horiz-adv-x="601" d="M357 861H541L437 723H293L357 861ZM100 693H316L377 441Q382 418 386 394T394 351Q398 328 401 308H404Q406 332 409 359Q411 382 414 411T423 471L458 693H632L524 0H324L265 234Q257 263
250 294T238 352Q232 383 226 413H223Q219 380 215 345Q211 314 207 276T196 198L166 0H-8L100 693Z" />
<glyph unicode="&#x144;" glyph-name="nacute" horiz-adv-x="513" d="M290 733H472L363 578H218L290 733ZM70 539H254L245 485H249Q275 510 311 528T395 547Q451 547 480 518T509 432Q509 421 508 408T504 380L445 0H257L311 351Q312 356 312 361T313 371Q313
385 307 391T283 398Q269 398 257 394T234 382L174 0H-14L70 539Z" />
<glyph unicode="&#x145;" glyph-name="Ncommaaccent" horiz-adv-x="601" d="M182 -34H341L275 -181H150L182 -34ZM100 693H316L377 441Q382 418 386 394T394 351Q398 328 401 308H404Q406 332 409 359Q411 382 414 411T423 471L458 693H632L524 0H324L265 234Q257
263 250 294T238 352Q232 383 226 413H223Q219 380 215 345Q211 314 207 276T196 198L166 0H-8L100 693Z" />
<glyph unicode="&#x146;" glyph-name="ncommaaccent" horiz-adv-x="513" d="M132 -34H291L225 -181H100L132 -34ZM70 539H254L245 485H249Q275 510 311 528T395 547Q451 547 480 518T509 432Q509 421 508 408T504 380L445 0H257L311 351Q312 356 312 361T313 371Q313
385 307 391T283 398Q269 398 257 394T234 382L174 0H-14L70 539Z" />
<glyph unicode="&#x147;" glyph-name="Ncaron" horiz-adv-x="601" d="M455 723H303L232 856H360L392 815L436 856H570L455 723ZM100 693H316L377 441Q382 418 386 394T394 351Q398 328 401 308H404Q406 332 409 359Q411 382 414 411T423 471L458 693H632L524 0H324L265
234Q257 263 250 294T238 352Q232 383 226 413H223Q219 380 215 345Q211 314 207 276T196 198L166 0H-8L100 693Z" />
<glyph unicode="&#x148;" glyph-name="ncaron" horiz-adv-x="513" d="M160 733H289L318 682L367 733H500L377 578H228L160 733ZM70 539H254L245 485H249Q275 510 311 528T395 547Q451 547 480 518T509 432Q509 421 508 408T504 380L445 0H257L311 351Q312 356
312 361T313 371Q313 385 307 391T283 398Q269 398 257 394T234 382L174 0H-14L70 539Z" />
<glyph unicode="&#x149;" glyph-name="napostrophe" horiz-adv-x="513" d="M-76 693H94L23 468H-118L-76 693ZM70 539H254L245 485H249Q275 510 311 528T395 547Q451 547 480 518T509 432Q509 421 508 408T504 380L445 0H257L311 351Q312 356 312 361T313 371Q313
385 307 391T283 398Q269 398 257 394T234 382L174 0H-14L70 539Z" />
<glyph unicode="&#x14a;" glyph-name="Eng" horiz-adv-x="601" d="M314 -177Q266 -177 238 -169T194 -152L213 -34Q221 -36 235 -39T270 -43Q296 -43 312 -35T336 -5L260 259Q253 286 247 313T236 363Q231 389 226 414H223Q221 390 218 362Q216 338 212 306T203
238L165 0H-8L100 693H316L376 451L386 405Q391 382 395 362Q399 339 404 318H406Q407 340 410 365Q412 386 415 412T423 467L458 693H632L524 3Q517 -41 503 -74T463 -131T402 -165T314 -177Z" />
<glyph unicode="&#x14b;" glyph-name="eng" horiz-adv-x="513" d="M70 539H254L245 485H249Q275 510 311 528T398 547Q452 547 480 518T509 432Q509 421 508 408T504 380L440 -33Q428 -110 384 -152T249 -195Q214 -195 186 -188T144 -172L167 -58Q174 -60 182
-61T203 -62Q226 -62 238 -52T256 -11L311 351Q312 357 312 361T313 371Q313 385 307 391T283 398Q269 398 257 394T234 382L174 0H-14L70 539Z" />
<glyph unicode="&#x14c;" glyph-name="Omacron" horiz-adv-x="621" d="M256 838H534L515 725H239L256 838ZM283 -10Q226 -10 179 6T97 54T44 136T25 252Q25 278 27 307T34 369Q60 534 142 618T359 703Q419 703 467 687T548 639T600 557T619 442Q619 414 616 378T608
312Q580 153 499 72T283 -10ZM293 145Q311 145 325 154T350 186T370 244T388 335Q391 350 393 369T398 407T402 445T404 477Q404 515 390 532T350 549Q333 549 320 539T295 507T274 447T255 356Q252 338 250 319T245 280T242 245T240 216Q240 178 253 162T293 145Z"
/>
<glyph unicode="&#x14d;" glyph-name="omacron" horiz-adv-x="510" d="M184 700H454L435 583H165L184 700ZM221 -8Q120 -8 65 48T10 200Q10 222 12 246T19 293Q29 350 50 397T105 477T182 529T282 547Q337 547 378 532T446 489T487 425T501 343Q501 322 499 295T492
241Q483 185 462 139T408 61T328 10T221 -8ZM233 126Q257 126 272 152T298 247Q304 283 307 313T311 360Q311 389 302 401T275 414Q251 414 236 387T210 291Q205 262 201 231T197 179Q197 151 206 139T233 126Z" />
<glyph unicode="&#x14e;" glyph-name="Obreve" horiz-adv-x="621" d="M382 719Q343 719 315 730T269 759T242 803T235 857H351Q350 840 358 831T384 821Q420 821 426 857H543Q539 829 527 804T495 760T447 730T382 719ZM283 -10Q226 -10 179 6T97 54T44 136T25
252Q25 278 27 307T34 369Q60 534 142 618T359 703Q419 703 467 687T548 639T600 557T619 442Q619 414 616 378T608 312Q580 153 499 72T283 -10ZM293 145Q311 145 325 154T350 186T370 244T388 335Q391 350 393 369T398 407T402 445T404 477Q404 515 390 532T350
549Q333 549 320 539T295 507T274 447T255 356Q252 338 250 319T245 280T242 245T240 216Q240 178 253 162T293 145Z" />
<glyph unicode="&#x14f;" glyph-name="obreve" horiz-adv-x="510" d="M221 -8Q120 -8 65 48T10 200Q10 222 12 246T19 293Q29 350 50 397T105 477T182 529T282 547Q337 547 378 532T446 489T487 425T501 343Q501 322 499 295T492 241Q483 185 462 139T408 61T328
10T221 -8ZM233 126Q257 126 272 152T298 247Q304 283 307 313T311 360Q311 389 302 401T275 414Q251 414 236 387T210 291Q205 262 201 231T197 179Q197 151 206 139T233 126ZM312 579Q236 579 199 619T167 725H284Q282 688 317 688Q336 688 345 698T359 725H476Q472
694 460 667T427 621T378 590T312 579Z" />
<glyph unicode="&#x150;" glyph-name="Ohungarumlaut" horiz-adv-x="621" d="M448 862H612L540 723H399L448 862ZM251 862H414L343 723H202L251 862ZM283 -10Q226 -10 179 6T97 54T44 136T25 252Q25 278 27 307T34 369Q60 534 142 618T359 703Q419 703 467 687T548
639T600 557T619 442Q619 414 616 378T608 312Q580 153 499 72T283 -10ZM293 145Q311 145 325 154T350 186T370 244T388 335Q391 350 393 369T398 407T402 445T404 477Q404 515 390 532T350 549Q333 549 320 539T295 507T274 447T255 356Q252 338 250 319T245 280T242
245T240 216Q240 178 253 162T293 145Z" />
<glyph unicode="&#x151;" glyph-name="ohungarumlaut" horiz-adv-x="510" d="M381 733H543L467 578H327L381 733ZM187 733H350L273 578H134L187 733ZM221 -8Q120 -8 65 48T10 200Q10 222 12 246T19 293Q29 350 50 397T105 477T182 529T282 547Q337 547 378 532T446
489T487 425T501 343Q501 322 499 295T492 241Q483 185 462 139T408 61T328 10T221 -8ZM233 126Q257 126 272 152T298 247Q304 283 307 313T311 360Q311 389 302 401T275 414Q251 414 236 387T210 291Q205 262 201 231T197 179Q197 151 206 139T233 126Z" />
<glyph unicode="&#x152;" glyph-name="OE" horiz-adv-x="800" d="M295 0Q166 0 96 61T25 253Q25 306 31 356Q51 521 131 607T362 693H835L812 542H606L588 427H755L732 279H565L545 151H761L737 0H295ZM339 148L402 545H363Q339 545 322 536T293 504T272 448T255
362Q252 345 249 325T244 286T241 251T239 224Q239 186 255 167T309 148H339Z" />
<glyph unicode="&#x153;" glyph-name="oe" horiz-adv-x="753" d="M527 -8Q467 -8 429 10T367 61Q338 28 299 10T208 -8Q107 -8 53 48T-1 200Q-1 220 1 242T6 285Q15 344 36 392T91 474T168 528T269 547Q325 547 360 530T416 484Q476 547 568 547Q663 547 708 498T754
363Q754 337 750 301T737 220H477V206Q477 165 495 146T567 126Q609 126 647 134T708 151L690 33Q661 16 622 4T527 -8ZM223 126Q247 126 262 152T288 247Q294 283 298 313T302 360Q301 389 292 401T264 414Q241 414 226 387T199 292Q194 262 191 231T187 180Q187
151 196 139T223 126ZM490 319H576Q584 357 584 380Q584 422 550 422Q528 422 515 403T493 335L490 319Z" />
<glyph unicode="&#x154;" glyph-name="Racute" horiz-adv-x="577" d="M316 861H500L396 723H252L316 861ZM99 693H354Q578 693 578 509Q578 458 565 419Q551 374 525 347T462 302V297L536 0H325L274 245H234L199 0H-8L99 693ZM291 370Q320 370 335 386T358 437Q364
465 364 496Q364 522 353 536T314 550H284L256 370H291Z" />
<glyph unicode="&#x155;" glyph-name="racute" horiz-adv-x="351" d="M486 733H668L559 578H414L486 733ZM70 539H253L242 474H246Q267 507 294 526T357 546Q374 546 382 542L355 365Q348 367 335 367T310 368Q285 368 267 364T229 352L174 0H-13L70 539Z" />
<glyph unicode="&#x156;" glyph-name="Rcommaaccent" horiz-adv-x="577" d="M174 -34H333L267 -181H142L174 -34ZM99 693H354Q578 693 578 509Q578 458 565 419Q551 374 525 347T462 302V297L536 0H325L274 245H234L199 0H-8L99 693ZM291 370Q320 370 335 386T358
437Q364 465 364 496Q364 522 353 536T314 550H284L256 370H291Z" />
<glyph unicode="&#x157;" glyph-name="rcommaaccent" horiz-adv-x="351" d="M254 -34H413L347 -181H222L254 -34ZM70 539H253L242 474H246Q267 507 294 526T357 546Q374 546 382 542L355 365Q348 367 335 367T310 368Q285 368 267 364T229 352L174 0H-13L70 539Z" />
<glyph unicode="&#x158;" glyph-name="Rcaron" horiz-adv-x="577" d="M413 723H261L190 856H318L350 815L394 856H528L413 723ZM99 693H354Q578 693 578 509Q578 458 565 419Q551 374 525 347T462 302V297L536 0H325L274 245H234L199 0H-8L99 693ZM291 370Q320
370 335 386T358 437Q364 465 364 496Q364 522 353 536T314 550H284L256 370H291Z" />
<glyph unicode="&#x159;" glyph-name="rcaron" horiz-adv-x="351" d="M349 733H478L507 682L556 733H689L566 578H417L349 733ZM70 539H253L242 474H246Q267 507 294 526T357 546Q374 546 382 542L355 365Q348 367 335 367T310 368Q285 368 267 364T229 352L174
0H-13L70 539Z" />
<glyph unicode="&#x15a;" glyph-name="Sacute" horiz-adv-x="476" d="M180 -8Q115 -8 64 6T-18 40L8 187Q39 170 74 158T154 146Q183 146 200 152T227 173Q239 188 239 208Q239 228 228 240T191 267L158 287Q104 319 75 362T46 468Q46 489 50 519T70 581Q129 703
309 703Q380 703 424 689T489 662L464 516Q435 530 398 540T315 550Q296 550 282 545T259 528Q250 515 250 498Q250 481 261 470T295 444L331 424Q391 390 422 349T453 243Q453 214 448 183T431 126Q400 57 338 25T180 -8ZM542 861H726L622 723H478L542 861Z" />
<glyph unicode="&#x15b;" glyph-name="sacute" horiz-adv-x="402" d="M487 733H669L560 578H415L487 733ZM150 -8Q124 -8 99 -5T52 4T13 17T-17 32L3 158Q29 145 63 135T131 124Q156 124 168 128T187 142Q192 151 192 162Q192 175 182 183T152 201L117 218Q28
265 28 365Q28 375 29 390T36 419Q57 490 112 518T251 547Q300 547 336 537T394 515L373 388Q351 399 320 408T258 418Q218 418 209 402Q205 395 205 385Q205 373 216 365T246 348L279 331Q330 306 353 274T376 190Q376 182 375 171T371 145Q357 69 301 31T150
-8Z" />
<glyph unicode="&#x15c;" glyph-name="Scircumflex" horiz-adv-x="476" d="M253 856H404L476 723H348L316 764L271 723H137L253 856ZM180 -8Q115 -8 64 6T-18 40L8 187Q39 170 74 158T154 146Q183 146 200 152T227 173Q239 188 239 208Q239 228 228 240T191 267L158
287Q104 319 75 362T46 468Q46 489 50 519T70 581Q129 703 309 703Q380 703 424 689T489 662L464 516Q435 530 398 540T315 550Q296 550 282 545T259 528Q250 515 250 498Q250 481 261 470T295 444L331 424Q391 390 422 349T453 243Q453 214 448 183T431 126Q400
57 338 25T180 -8Z" />
<glyph unicode="&#x15d;" glyph-name="scircumflex" horiz-adv-x="402" d="M456 733H606L673 578H545L515 629L467 578H333L456 733ZM150 -8Q124 -8 99 -5T52 4T13 17T-17 32L3 158Q29 145 63 135T131 124Q156 124 168 128T187 142Q192 151 192 162Q192 175 182
183T152 201L117 218Q28 265 28 365Q28 375 29 390T36 419Q57 490 112 518T251 547Q300 547 336 537T394 515L373 388Q351 399 320 408T258 418Q218 418 209 402Q205 395 205 385Q205 373 216 365T246 348L279 331Q330 306 353 274T376 190Q376 182 375 171T371
145Q357 69 301 31T150 -8Z" />
<glyph unicode="&#x15e;" glyph-name="Scedilla" horiz-adv-x="476" d="M84 -156Q126 -153 146 -146T167 -121Q167 -109 156 -103T114 -95L128 -5Q80 0 43 11T-18 40L8 187Q39 170 74 158T154 146Q183 146 200 152T227 173Q239 188 239 208Q239 228 228 240T191
267L158 287Q104 319 75 362T46 468Q46 489 50 519T70 581Q129 703 309 703Q380 703 424 689T489 662L464 516Q435 530 398 540T315 550Q296 550 282 545T259 528Q250 515 250 498Q250 481 261 470T295 444L331 424Q391 390 422 349T453 243Q453 214 448 183T431
126Q375 2 208 -7L203 -41Q246 -43 268 -62T290 -114Q290 -165 239 -194T73 -226L84 -156Z" />
<glyph unicode="&#x15f;" glyph-name="scedilla" horiz-adv-x="402" d="M58 -156Q100 -153 120 -146T141 -121Q141 -109 130 -103T88 -95L102 -5Q64 0 33 10T-17 32L3 158Q29 145 63 135T131 124Q156 124 168 128T187 142Q192 151 192 162Q192 175 182 183T152
201L117 218Q28 265 28 365Q28 375 29 390T36 419Q57 490 112 518T251 547Q300 547 336 537T394 515L373 388Q351 399 320 408T258 418Q218 418 209 402Q205 395 205 385Q205 373 216 365T246 348L279 331Q330 306 353 274T376 190Q376 182 375 171T371 145Q344
5 182 -7L177 -41Q220 -43 242 -62T264 -114Q264 -165 213 -194T47 -226L58 -156Z" />
<glyph unicode="&#x160;" glyph-name="Scaron" horiz-adv-x="476" d="M374 723H222L151 856H279L311 815L355 856H489L374 723ZM180 -8Q115 -8 64 6T-18 40L8 187Q39 170 74 158T154 146Q183 146 200 152T227 173Q239 188 239 208Q239 228 228 240T191 267L158
287Q104 319 75 362T46 468Q46 489 50 519T70 581Q129 703 309 703Q380 703 424 689T489 662L464 516Q435 530 398 540T315 550Q296 550 282 545T259 528Q250 515 250 498Q250 481 261 470T295 444L331 424Q391 390 422 349T453 243Q453 214 448 183T431 126Q400
57 338 25T180 -8Z" />
<glyph unicode="&#x161;" glyph-name="scaron" horiz-adv-x="402" d="M356 733H485L514 682L563 733H696L573 578H424L356 733ZM150 -8Q124 -8 99 -5T52 4T13 17T-17 32L3 158Q29 145 63 135T131 124Q156 124 168 128T187 142Q192 151 192 162Q192 175 182 183T152
201L117 218Q28 265 28 365Q28 375 29 390T36 419Q57 490 112 518T251 547Q300 547 336 537T394 515L373 388Q351 399 320 408T258 418Q218 418 209 402Q205 395 205 385Q205 373 216 365T246 348L279 331Q330 306 353 274T376 190Q376 182 375 171T371 145Q357
69 301 31T150 -8Z" />
<glyph unicode="&#x162;" glyph-name="Tcommaaccent" horiz-adv-x="509" d="M130 -34H289L223 -181H98L130 -34ZM191 542H53L77 693H562L538 542H400L314 0H106L191 542Z" />
<glyph unicode="&#x163;" glyph-name="tcommaaccent" horiz-adv-x="346" d="M325 -34H484L418 -181H293L325 -34ZM181 -8Q97 -8 62 30T39 154L79 408H28L48 539H100L119 661H307L288 539H371L350 408H268L231 171Q227 150 236 141T268 132Q279 132 290 133T309
137L290 13Q276 5 247 -1T181 -8Z" />
<glyph unicode="&#x164;" glyph-name="Tcaron" horiz-adv-x="509" d="M392 723H240L169 856H297L329 815L373 856H507L392 723ZM191 542H53L77 693H562L538 542H400L314 0H106L191 542Z" />
<glyph unicode="&#x165;" glyph-name="tcaron" horiz-adv-x="346" d="M328 579L357 735H475L423 579H328ZM181 -8Q97 -8 62 30T39 154L79 408H28L48 539H100L119 661H307L288 539H371L350 408H268L231 171Q227 150 236 141T268 132Q279 132 290 133T309 137L290
13Q276 5 247 -1T181 -8Z" />
<glyph unicode="&#x166;" glyph-name="Tbar" horiz-adv-x="509" d="M73 411H171L192 542H54L78 693H563L539 542H401L380 411H480L464 305H363L315 0H107L155 305H56L73 411Z" />
<glyph unicode="&#x167;" glyph-name="tbar" horiz-adv-x="346" d="M18 345H69L79 408H28L48 539H100L119 661H307L288 539H371L350 408H268L258 345H340L325 255H244L231 171Q227 150 236 141T268 132Q279 132 290 133T309 137L290 13Q276 5 247 -1T181 -8Q97
-8 62 30T39 154L55 255H4L18 345Z" />
<glyph unicode="&#x168;" glyph-name="Utilde" horiz-adv-x="594" d="M270 -10Q203 -10 156 4T80 44T37 106T23 186Q23 216 29 254L97 693H306L234 234Q231 217 231 200Q231 175 244 161T286 146Q323 146 339 167T361 228L434 693H628L556 228Q546 168 526 124T472
50T388 5T270 -10ZM201 725Q206 764 219 790T249 832T285 855T324 862Q342 862 356 858T383 849T406 840T426 836Q446 836 452 860H560Q554 821 542 795T513 752T476 728T435 721Q418 721 404 725T378 735T356 744T336 749Q325 749 318 743T309 725H201Z" />
<glyph unicode="&#x169;" glyph-name="utilde" horiz-adv-x="510" d="M123 -8Q66 -8 36 23T6 110Q6 123 7 137T12 174L69 539H257L203 191Q200 174 200 165Q200 139 229 139Q242 139 254 143T277 155L337 539H525L441 0H278L272 56H268Q239 28 204 10T123 -8ZM136
585Q145 662 181 697T263 732Q282 732 296 728T323 717T346 707T368 702Q392 702 397 731H501Q493 660 459 622T374 584Q354 584 340 588T313 598T290 608T269 613Q257 613 250 605T241 585H136Z" />
<glyph unicode="&#x16a;" glyph-name="Umacron" horiz-adv-x="594" d="M270 -10Q203 -10 156 4T80 44T37 106T23 186Q23 216 29 254L97 693H306L234 234Q231 217 231 200Q231 175 244 161T286 146Q323 146 339 167T361 228L434 693H628L556 228Q546 168 526 124T472
50T388 5T270 -10ZM250 838H528L509 725H233L250 838Z" />
<glyph unicode="&#x16b;" glyph-name="umacron" horiz-adv-x="510" d="M123 -8Q66 -8 36 23T6 110Q6 123 7 137T12 174L69 539H257L203 191Q200 174 200 165Q200 139 229 139Q242 139 254 143T277 155L337 539H525L441 0H278L272 56H268Q239 28 204 10T123 -8ZM188
700H458L439 583H169L188 700Z" />
<glyph unicode="&#x16c;" glyph-name="Ubreve" horiz-adv-x="594" d="M270 -10Q203 -10 156 4T80 44T37 106T23 186Q23 216 29 254L97 693H306L234 234Q231 217 231 200Q231 175 244 161T286 146Q323 146 339 167T361 228L434 693H628L556 228Q546 168 526 124T472
50T388 5T270 -10ZM377 719Q338 719 310 730T264 759T237 803T230 857H346Q345 840 353 831T379 821Q415 821 421 857H538Q534 829 522 804T490 760T442 730T377 719Z" />
<glyph unicode="&#x16d;" glyph-name="ubreve" horiz-adv-x="510" d="M123 -8Q66 -8 36 23T6 110Q6 123 7 137T12 174L69 539H257L203 191Q200 174 200 165Q200 139 229 139Q242 139 254 143T277 155L337 539H525L441 0H278L272 56H268Q239 28 204 10T123 -8ZM318
579Q242 579 205 619T173 725H290Q288 688 323 688Q342 688 351 698T365 725H482Q478 694 466 667T433 621T384 590T318 579Z" />
<glyph unicode="&#x16e;" glyph-name="Uring" horiz-adv-x="594" d="M270 -10Q203 -10 156 4T80 44T37 106T23 186Q23 216 29 254L97 693H306L234 234Q231 217 231 200Q231 175 244 161T286 146Q323 146 339 167T361 228L434 693H628L556 228Q546 168 526 124T472
50T388 5T270 -10ZM375 959Q322 959 290 989T258 1068Q258 1119 293 1150T381 1182Q434 1182 465 1153T497 1075Q497 1023 462 991T375 959ZM377 1030Q394 1030 404 1041T415 1073Q415 1091 405 1101T378 1112Q361 1112 351 1101T340 1069Q340 1052 349 1041T377
1030Z" />
<glyph unicode="&#x16f;" glyph-name="uring" horiz-adv-x="510" d="M310 574Q261 574 230 603T198 680Q198 730 231 761T319 793Q370 793 401 764T433 689Q433 635 399 605T310 574ZM314 643Q331 643 342 654T353 687Q353 704 344 713T317 723Q300 723 289 713T278
681Q278 664 287 654T314 643ZM123 -8Q66 -8 36 23T6 110Q6 123 7 137T12 174L69 539H257L203 191Q200 174 200 165Q200 139 229 139Q242 139 254 143T277 155L337 539H525L441 0H278L272 56H268Q239 28 204 10T123 -8Z" />
<glyph unicode="&#x170;" glyph-name="Uhungarumlaut" horiz-adv-x="594" d="M447 862H611L539 723H398L447 862ZM250 862H413L342 723H201L250 862ZM270 -10Q203 -10 156 4T80 44T37 106T23 186Q23 216 29 254L97 693H306L234 234Q231 217 231 200Q231 175 244
161T286 146Q323 146 339 167T361 228L434 693H628L556 228Q546 168 526 124T472 50T388 5T270 -10Z" />
<glyph unicode="&#x171;" glyph-name="uhungarumlaut" horiz-adv-x="510" d="M123 -8Q66 -8 36 23T6 110Q6 123 7 137T12 174L69 539H257L203 191Q200 174 200 165Q200 139 229 139Q242 139 254 143T277 155L337 539H525L441 0H278L272 56H268Q239 28 204 10T123
-8ZM383 733H545L469 578H329L383 733ZM189 733H352L275 578H136L189 733Z" />
<glyph unicode="&#x172;" glyph-name="Uogonek" horiz-adv-x="594" d="M266 -197Q211 -197 186 -173T160 -114Q160 -77 185 -52T245 -9Q184 -7 142 8T73 48T34 108T22 185Q22 217 28 252L97 693H305L233 231Q232 223 232 216T231 200Q231 175 244 161T286 146Q323
146 339 168T360 228L434 693H628L555 228Q547 180 534 145T502 83T457 39T399 8Q362 -8 337 -26T311 -70Q311 -92 336 -92Q343 -92 349 -91T358 -90L341 -183Q330 -188 310 -192T266 -197Z" />
<glyph unicode="&#x173;" glyph-name="uogonek" horiz-adv-x="510" d="M123 -8Q66 -8 36 23T6 110Q6 123 7 137T12 174L69 539H257L203 191Q200 174 200 165Q200 139 229 139Q242 139 254 143T277 155L337 539H525L441 4Q419 -13 401 -31T383 -70Q383 -92 408
-92Q415 -92 421 -91T430 -90L414 -183Q403 -188 383 -192T338 -197Q283 -197 258 -173T232 -114Q232 -93 241 -76T264 -44T298 -19T337 0H278L272 56H268Q239 28 204 10T123 -8Z" />
<glyph unicode="&#x174;" glyph-name="Wcircumflex" horiz-adv-x="834" d="M444 856H595L667 723H539L507 764L462 723H328L444 856ZM74 693H277L274 427Q273 397 273 370T272 322Q271 297 271 277H274Q280 296 287 318Q293 337 300 362T318 417L410 693H579L583
418Q583 392 583 367T582 321Q581 297 581 276H585Q590 296 597 319Q602 339 610 364T626 417L710 693H893L658 0H447L445 251Q444 274 444 299T445 344V390H442Q436 368 429 345Q423 325 416 301T400 251L316 0H94L74 693Z" />
<glyph unicode="&#x175;" glyph-name="wcircumflex" horiz-adv-x="697" d="M350 733H500L567 578H439L409 629L361 578H227L350 733ZM46 539H228L225 356Q224 335 224 314T223 275Q222 255 221 237H223Q228 254 234 273Q239 290 246 311T261 355L325 539H472V356Q472
333 472 312T471 274Q470 255 470 237H473Q478 256 484 276Q489 293 495 314T508 356L571 539H737L529 0H356L353 136Q352 162 352 187V234Q352 259 353 281H350Q343 257 335 232Q328 211 320 185T303 136L253 0H70L46 539Z" />
<glyph unicode="&#x176;" glyph-name="Ycircumflex" horiz-adv-x="561" d="M173 261L68 693H276L299 552Q302 529 304 508T309 471Q311 452 312 436H314Q320 452 327 471Q333 487 342 508T362 553L429 693H625L382 256L342 0H133L173 261ZM299 856H450L522 723H394L362
764L317 723H183L299 856Z" />
<glyph unicode="&#x177;" glyph-name="ycircumflex" horiz-adv-x="495" d="M53 -196Q22 -196 -3 -191T-45 -178L-25 -53Q-14 -55 1 -58T32 -61Q59 -61 76 -53T103 -21L113 1L42 539H230L239 350Q239 328 239 307T240 268Q240 248 241 229H244Q249 248 255 267Q260
284 267 304T282 345L357 539H536L274 -47Q256 -87 236 -115T191 -161T132 -187T53 -196ZM248 733H398L465 578H337L307 629L259 578H125L248 733Z" />
<glyph unicode="&#x178;" glyph-name="Ydieresis" horiz-adv-x="561" d="M173 261L68 693H276L299 552Q302 529 304 508T309 471Q311 452 312 436H314Q320 452 327 471Q333 487 342 508T362 553L429 693H625L382 256L342 0H133L173 261ZM400 857H556L536 724H380L400
857ZM200 857H356L335 724H180L200 857Z" />
<glyph unicode="&#x179;" glyph-name="Zacute" horiz-adv-x="495" d="M558 861H742L638 723H494L558 861ZM1 146L271 539V542H72L96 693H535L512 547L239 154V151H454L430 0H-21L1 146Z" />
<glyph unicode="&#x17a;" glyph-name="zacute" horiz-adv-x="420" d="M513 733H695L586 578H441L513 733ZM-4 134L201 404V407H40L62 539H445L426 416L209 136V133H384L363 0H-25L-4 134Z" />
<glyph unicode="&#x17b;" glyph-name="Zdotaccent" horiz-adv-x="495" d="M1 146L271 539V542H72L96 693H535L512 547L239 154V151H454L430 0H-21L1 146ZM252 858H437L416 725H232L252 858Z" />
<glyph unicode="&#x17c;" glyph-name="zdotaccent" horiz-adv-x="420" d="M-4 134L201 404V407H40L62 539H445L426 416L209 136V133H384L363 0H-25L-4 134ZM193 729H381L358 582H170L193 729Z" />
<glyph unicode="&#x17d;" glyph-name="Zcaron" horiz-adv-x="495" d="M396 723H244L173 856H301L333 815L377 856H511L396 723ZM1 146L271 539V542H72L96 693H535L512 547L239 154V151H454L430 0H-21L1 146Z" />
<glyph unicode="&#x17e;" glyph-name="zcaron" horiz-adv-x="420" d="M123 733H252L281 682L330 733H463L340 578H191L123 733ZM-4 134L201 404V407H40L62 539H445L426 416L209 136V133H384L363 0H-25L-4 134Z" />
<glyph unicode="&#x192;" glyph-name="florin" horiz-adv-x="404" d="M50 423H107L123 520Q137 617 194 662T337 707Q379 707 405 701T443 687L424 562Q416 564 408 565T388 567Q361 567 348 554T328 499L315 423H397L375 291H295L251 10Q237 -90 186 -135T40
-181Q3 -181 -24 -174T-61 -161L-41 -37Q-31 -43 -10 -43Q10 -43 23 -31T42 15L85 291H30L50 423Z" />
<glyph unicode="&#x1fa;" glyph-name="Aringacute" horiz-adv-x="605" d="M252 693H497L560 0H358L355 111H199L157 0H-40L252 693ZM249 245H349L343 367Q342 390 342 412V490H338Q332 472 325 452Q319 435 312 413T295 367L249 245ZM393 1087H577L473 949H329L393
1087ZM383 711Q330 711 298 741T266 820Q266 871 301 902T389 934Q442 934 473 905T505 827Q505 775 470 743T383 711ZM385 782Q402 782 412 793T423 825Q423 843 413 853T386 864Q369 864 359 853T348 821Q348 804 357 793T385 782Z" />
<glyph unicode="&#x1fb;" glyph-name="aringacute" horiz-adv-x="510" d="M144 -8Q82 -8 45 33T7 161Q7 195 11 234T26 312Q42 375 70 420T136 493T221 534T323 547Q392 547 443 537T520 515L439 0H284L279 55H275Q251 26 219 9T144 -8ZM236 127Q249 127 258 132T274
142L316 411Q308 414 294 414Q264 414 246 388T215 298Q213 286 210 270T205 236T202 202T200 173Q200 127 236 127ZM340 574Q291 574 260 603T228 680Q228 730 261 761T349 793Q400 793 431 764T463 689Q463 635 429 605T340 574ZM344 643Q361 643 372 654T383
687Q383 704 374 713T347 723Q330 723 319 713T308 681Q308 664 317 654T344 643ZM356 955H540L436 817H292L356 955Z" />
<glyph unicode="&#x1fc;" glyph-name="AEacute" horiz-adv-x="817" d="M565 861H749L645 723H501L565 861ZM341 693H852L828 542H630L613 427H772L749 279H589L570 151H779L754 0H342L361 124H214L148 0H-43L341 693ZM382 258Q383 264 385 278T390 312T396 355T404
403Q413 458 424 525H420Q386 458 358 403Q346 379 334 356T312 313T294 279T284 258H382Z" />
<glyph unicode="&#x1fd;" glyph-name="aeacute" horiz-adv-x="726" d="M423 733H605L496 578H351L423 733ZM488 -8Q419 -8 372 10T296 64Q267 30 227 11T135 -8Q64 -8 28 29T-8 126Q-8 143 -6 160T2 193Q19 247 64 274T192 314L274 326L277 342Q278 347 278 352T279
362Q279 385 261 395T204 405Q169 405 133 400T73 386L93 513Q128 527 170 537T269 547Q363 547 405 505Q434 527 467 537T536 547Q590 547 627 532T686 488T716 418T719 327Q719 318 718 305T713 276L708 246Q706 231 704 220H445V206Q445 165 463 146T535 126Q577
126 614 134T675 151L657 33Q628 16 588 4T488 -8ZM209 112Q239 112 264 135Q258 163 258 196V212Q258 220 259 228L233 227Q213 226 201 219T183 188Q180 177 179 167T178 149Q178 112 209 112ZM457 320H544Q549 346 550 365T546 397Q541 422 518 422Q495 422
482 403T460 335L457 320Z" />
<glyph unicode="&#x1fe;" glyph-name="Oslashacute" horiz-adv-x="621" d="M282 -10Q178 -10 113 43L76 0H-35L58 108Q25 166 25 252Q25 279 27 311T34 372Q61 537 143 620T360 703Q463 703 528 655L561 693H673L585 590Q620 531 620 442Q620 410 617 371T605
299Q576 146 495 68T282 -10ZM292 140Q312 140 328 149T358 181T381 241T400 334Q402 345 403 357T407 384L232 181Q245 140 292 140ZM238 317L409 517Q402 536 387 545T352 554Q332 554 316 545T287 512T264 452T244 357L238 317ZM349 861H533L429 723H285L349
861Z" />
<glyph unicode="&#x1ff;" glyph-name="oslashacute" horiz-adv-x="510" d="M223 -8Q141 -8 88 31L60 0H-37L39 85Q12 133 12 200Q12 220 14 242T19 286Q28 345 49 393T104 475T183 528T285 547Q327 547 361 538T422 511L448 540H544L472 460Q504 410 504 343Q504
323 503 298T496 246Q487 189 466 142T411 62T331 10T223 -8ZM235 117Q265 117 283 144T313 244L320 290L190 145Q196 130 208 124T235 117ZM200 295Q198 285 197 276T193 257L321 399Q309 422 278 422Q249 422 231 394T200 295ZM289 733H471L362 578H217L289 733Z"
/>
<glyph unicode="&#x218;" glyph-name="Scommaaccent" horiz-adv-x="476" d="M105 -34H264L198 -181H73L105 -34ZM180 -8Q115 -8 64 6T-18 40L8 187Q39 170 74 158T154 146Q183 146 200 152T227 173Q239 188 239 208Q239 228 228 240T191 267L158 287Q104 319 75
362T46 468Q46 489 50 519T70 581Q129 703 309 703Q380 703 424 689T489 662L464 516Q435 530 398 540T315 550Q296 550 282 545T259 528Q250 515 250 498Q250 481 261 470T295 444L331 424Q391 390 422 349T453 243Q453 214 448 183T431 126Q400 57 338 25T180
-8Z" />
<glyph unicode="&#x219;" glyph-name="scommaaccent" horiz-adv-x="402" d="M330 -34H489L423 -181H298L330 -34ZM150 -8Q124 -8 99 -5T52 4T13 17T-17 32L3 158Q29 145 63 135T131 124Q156 124 168 128T187 142Q192 151 192 162Q192 175 182 183T152 201L117
218Q28 265 28 365Q28 375 29 390T36 419Q57 490 112 518T251 547Q300 547 336 537T394 515L373 388Q351 399 320 408T258 418Q218 418 209 402Q205 395 205 385Q205 373 216 365T246 348L279 331Q330 306 353 274T376 190Q376 182 375 171T371 145Q357 69 301
31T150 -8Z" />
<glyph unicode="&#x21a;" glyph-name="uni021A" horiz-adv-x="509" d="M130 -34H289L223 -181H98L130 -34ZM191 542H53L77 693H562L538 542H400L314 0H106L191 542Z" />
<glyph unicode="&#x21b;" glyph-name="uni021B" horiz-adv-x="346" d="M325 -34H484L418 -181H293L325 -34ZM181 -8Q97 -8 62 30T39 154L79 408H28L48 539H100L119 661H307L288 539H371L350 408H268L231 171Q227 150 236 141T268 132Q279 132 290 133T309 137L290
13Q276 5 247 -1T181 -8Z" />
<glyph unicode="&#x237;" glyph-name="uni0237" horiz-adv-x="248" d="M-26 -195Q-59 -195 -86 -188T-127 -172L-106 -56Q-89 -61 -69 -61Q-44 -61 -32 -51T-14 -11L72 539H261L171 -33Q159 -110 114 -152T-26 -195Z" />
<glyph unicode="&#x2c6;" glyph-name="circumflex" horiz-adv-x="425" d="M211 733H361L428 578H300L270 629L222 578H88L211 733Z" />
<glyph unicode="&#x2c7;" glyph-name="caron" horiz-adv-x="425" d="M115 733H244L273 682L322 733H455L332 578H183L115 733Z" />
<glyph unicode="&#x2d8;" glyph-name="breve" horiz-adv-x="425" d="M278 579Q202 579 165 619T133 725H250Q248 688 283 688Q302 688 311 698T325 725H442Q438 694 426 667T393 621T344 590T278 579Z" />
<glyph unicode="&#x2d9;" glyph-name="dotaccent" horiz-adv-x="425" d="M187 729H375L352 582H164L187 729Z" />
<glyph unicode="&#x2da;" glyph-name="ring" horiz-adv-x="425" d="M273 574Q224 574 193 603T161 680Q161 730 194 761T282 793Q333 793 364 764T396 689Q396 635 362 605T273 574ZM277 643Q294 643 305 654T316 687Q316 704 307 713T280 723Q263 723 252 713T241
681Q241 664 250 654T277 643Z" />
<glyph unicode="&#x2db;" glyph-name="ogonek" horiz-adv-x="425" d="M202 -197Q147 -197 122 -173T96 -114Q96 -93 105 -76T129 -44T163 -19T202 0H301Q282 -14 264 -32T246 -70Q246 -92 272 -92Q279 -92 285 -91T294 -90L278 -183Q267 -188 246 -192T202 -197Z" />
<glyph unicode="&#x2dc;" glyph-name="tilde" horiz-adv-x="425" d="M92 585Q101 662 137 697T219 732Q238 732 252 728T279 717T302 707T324 702Q348 702 353 731H457Q449 660 415 622T330 584Q310 584 296 588T269 598T246 608T225 613Q213 613 206 605T197 585H92Z" />
<glyph unicode="&#x2dd;" glyph-name="hungarumlaut" horiz-adv-x="425" d="M330 733H492L416 578H276L330 733ZM136 733H299L222 578H83L136 733Z" />
</font>
</defs>
</svg>
