<?xml version="1.0" standalone="no"?> <!DOCTYPE svg PUBLIC "-//W3C//DTD SVG 1.0//EN" "http://www.w3.org/TR/2001/REC-SVG-20010904/DTD/svg10.dtd" > <svg xmlns="http://www.w3.org/2000/svg" width="100%" height="100%">
<defs >
<font horiz-adv-x="384" ><font-face
    font-family=""
    units-per-em="1000"
    panose-1="2 11 11 3 3 2 2 6 2 3"
    ascent="808"
    descent="-192"
    alphabetic="0" />
<missing-glyph horiz-adv-x="431" />
<glyph unicode=" " glyph-name="space" horiz-adv-x="160" />
<glyph unicode="!" glyph-name="exclam" horiz-adv-x="162" d="M145 693H158L72 154H59L145 693ZM42 44H54L47 0H35L42 44Z" />
<glyph unicode="&quot;" glyph-name="quotedbl" horiz-adv-x="178" d="M180 693H193L172 559H160L180 693ZM111 693H124L103 559H91L111 693Z" />
<glyph unicode="#" glyph-name="numbersign" horiz-adv-x="407" d="M90 464H165L222 693H235L178 464H321L378 693H391L334 464H407L405 453H331L284 262H356L354 250H281L218 0H206L268 250H125L63 0H50L112 250H37L39 262H115L162 453H88L90 464ZM128 262H271L318
453H175L128 262Z" />
<glyph unicode="$" glyph-name="dollar" horiz-adv-x="406" d="M118 -3Q73 3 44 18T-1 48L1 60Q20 45 49 29T121 8L211 361L202 369Q142 402 116 437T90 525Q90 540 92 558T101 593Q118 643 161 671T268 700Q276 700 283 700T297 698L315 766H327L309 697Q343
692 363 681T398 660L396 648Q382 657 361 668T306 685L225 367L240 359Q264 344 285 329T321 294T344 251T353 197Q353 184 352 170T348 142Q342 111 328 84T291 37T236 6T162 -6Q154 -6 146 -6T130 -4L102 -117H90L118 -3ZM222 355L133 7Q139 6 147 6H162Q201
6 231 16T282 45T316 89T336 143Q338 157 339 171T341 197Q341 225 333 247T311 287T278 319T235 348L222 355ZM103 525Q103 476 126 444T207 379L215 373L294 686Q288 687 281 687T267 688Q208 688 168 662T112 588Q107 572 105 556T103 525Z" />
<glyph unicode="%" glyph-name="percent" horiz-adv-x="627" d="M585 214Q585 177 577 138T552 67T507 14T439 -7Q391 -7 363 25T334 115Q334 152 342 191T368 262T413 314T480 335Q529 335 557 304T585 214ZM572 214Q572 266 549 294T480 323Q444 323 419 304T377
255T354 188T346 115Q346 63 370 34T439 5Q476 5 501 24T542 74T565 142T572 214ZM177 357Q129 357 101 388T73 479Q73 516 81 555T106 626T152 678T219 698Q268 698 295 667T323 578Q323 541 315 502T290 431T245 378T177 357ZM177 369Q214 369 239 388T281 438T304
506T311 578Q311 630 288 658T219 687Q183 687 158 668T116 619T93 552T85 479Q85 426 108 398T177 369ZM572 714H587L76 -39H62L572 714Z" />
<glyph unicode="&amp;" glyph-name="ampersand" horiz-adv-x="499" d="M186 -7Q148 -7 118 5T66 40T33 92T21 158Q21 202 35 235T73 296T132 345T206 388Q186 422 169 463T152 547Q152 619 189 659T285 700Q335 700 364 668T394 583Q394 543 379 513T339 460T284
418T222 384L380 113Q429 188 454 303H467Q453 243 434 193T386 103L447 0H434L379 93Q342 45 294 19T186 -7ZM186 5Q245 5 291 30T373 104L212 378Q176 359 144 339T87 293T48 234T34 158Q34 126 44 98T73 50T121 17T186 5ZM217 393Q247 409 277 427T330 467T367
517T382 582Q382 630 356 659T285 688Q231 688 198 651T164 547Q164 504 180 465T217 393Z" />
<glyph unicode="&apos;" glyph-name="quotesingle" horiz-adv-x="109" d="M111 693H124L103 559H91L111 693Z" />
<glyph unicode="(" glyph-name="parenleft" horiz-adv-x="222" d="M135 -120Q121 -96 107 -64T81 10T62 99T54 204Q54 299 74 378T124 522T193 639T267 734H281Q244 691 206 638T137 520T87 376T67 204Q67 149 74 101T93 11T119 -63T147 -120H135Z" />
<glyph unicode=")" glyph-name="parenright" horiz-adv-x="225" d="M-39 -120Q1 -73 39 -18T108 102T156 244T174 410Q174 517 151 597T96 734H108Q139 677 163 597T187 410Q187 318 169 242T121 101T53 -18T-25 -120H-39Z" />
<glyph unicode="*" glyph-name="asterisk" horiz-adv-x="266" d="M169 460H157L175 569L81 522L75 531L171 579L90 639L97 648L178 588L195 693H207L190 586L287 632L292 623L194 576L276 514L269 506L187 567L169 460Z" />
<glyph unicode="+" glyph-name="plus" horiz-adv-x="395" d="M205 345H57L59 356H207L232 515H244L219 356H367L365 345H217L191 184H178L205 345Z" />
<glyph unicode="," glyph-name="comma" horiz-adv-x="122" d="M35 44H48L-5 -92H-17L35 44Z" />
<glyph unicode="-" glyph-name="hyphen" horiz-adv-x="241" d="M47 268H199L197 256H45L47 268Z" />
<glyph unicode="." glyph-name="period" horiz-adv-x="116" d="M20 44H32L25 0H13L20 44Z" />
<glyph unicode="/" glyph-name="slash" horiz-adv-x="256" d="M300 734H313L-43 -121H-56L300 734Z" />
<glyph unicode="0" glyph-name="zero" horiz-adv-x="502" d="M215 -7Q129 -7 86 51T43 208Q43 234 46 276T61 382Q70 431 87 487T133 590T207 669T315 700Q360 700 392 685T446 642T477 573T488 482Q488 454 484 412T469 312Q460 259 442 203T395 100T321 23T215
-7ZM216 5Q274 5 316 33T386 107T431 206T457 313Q467 374 471 414T475 481Q475 579 437 633T315 688Q255 688 214 658T144 582T99 483T73 381Q62 317 59 275T55 208Q55 112 95 59T216 5Z" />
<glyph unicode="1" glyph-name="one" horiz-adv-x="225" d="M193 686L69 644L71 656L200 700H208L96 0H83L193 686Z" />
<glyph unicode="2" glyph-name="two" horiz-adv-x="407" d="M-13 12L186 229Q229 272 265 309T327 383T367 458T382 540Q382 613 346 650T243 688Q198 688 165 677T103 649L105 661Q132 676 164 688T243 700Q312 700 353 660T394 541Q394 496 379 456T338 378T275
302T196 221L3 13V12H326L324 0H-15L-13 12Z" />
<glyph unicode="3" glyph-name="three" horiz-adv-x="391" d="M127 -7Q80 -7 46 5T-11 31L-9 42Q14 29 45 17T127 5Q191 5 240 34T313 122Q322 145 327 171T332 220Q332 291 292 327T182 363H131L133 375H184Q207 375 230 380T274 396T312 425T341 467Q350 485
354 507T359 551Q359 614 326 651T224 688Q190 688 159 680T103 659L105 671Q127 683 160 691T224 700Q298 700 335 660T372 551Q372 528 367 505T352 461Q332 420 299 399T230 370V369Q252 365 273 355T310 326T335 282T345 221Q345 195 340 168T325 117Q299 55
248 24T127 -7Z" />
<glyph unicode="4" glyph-name="four" horiz-adv-x="422" d="M291 206H7L9 218L368 693H381L305 217H402L400 206H304L270 0H258L291 206ZM293 217L364 667H363L24 218V217H293Z" />
<glyph unicode="5" glyph-name="five" horiz-adv-x="389" d="M121 -7Q80 -7 46 4T-9 31L-6 42Q23 24 53 15T122 5Q191 5 239 36T310 126Q321 154 327 185T333 246Q333 324 290 360T173 396Q135 396 110 392T67 383L126 693H387L385 681H136Q134 670 130 648T120
597T109 539T98 480T89 430T82 396Q96 399 121 403T174 408Q212 408 243 399T298 370T333 319T346 246Q346 181 321 120Q295 57 244 25T121 -7Z" />
<glyph unicode="6" glyph-name="six" horiz-adv-x="435" d="M200 -7Q157 -7 126 8T74 52T44 119T34 205Q34 245 40 292T57 388T83 482T116 563Q152 629 205 664T336 699Q373 699 398 692T441 676L439 665Q422 674 397 680T336 687Q269 687 216 656T127 557Q81
467 57 330H58Q92 358 136 380T241 403Q314 403 356 362T399 243Q399 203 390 163T364 89Q340 44 298 19T200 -7ZM200 5Q251 5 290 28T352 93Q369 126 377 165T386 243Q386 314 349 352T241 391Q210 391 184 385T134 368T92 343T55 315Q51 289 49 260T46 205Q46
161 54 125T82 62T130 20T200 5Z" />
<glyph unicode="7" glyph-name="seven" horiz-adv-x="381" d="M412 680V681H88L90 693H428L426 681L59 0H45L412 680Z" />
<glyph unicode="8" glyph-name="eight" horiz-adv-x="446" d="M198 -7Q155 -7 122 5T65 39T30 89T18 148Q18 193 35 226T82 284T149 329T226 366Q200 381 177 398T136 435T108 480T97 536Q97 571 110 601T146 653T203 687T276 700Q314 700 343 689T392 659T422
613T432 555Q432 516 416 486T375 434T317 394T252 364Q286 343 312 323T358 280T387 233T397 179Q397 138 384 104T345 46T282 7T198 -7ZM198 5Q242 5 277 18T336 54T372 109T385 179Q385 233 349 274T239 359Q200 342 163 324T96 281T48 225T30 149Q30 120 41
94T73 48T126 17T198 5ZM240 371Q273 384 305 400T362 439T403 489T419 555Q419 615 382 651T276 688Q239 688 209 677T156 645T122 597T109 536Q109 508 118 485T145 442T186 405T240 371Z" />
<glyph unicode="9" glyph-name="nine" horiz-adv-x="436" d="M127 -5Q89 -5 64 3T22 20L24 31Q41 23 66 15T127 7Q268 7 339 139Q361 184 378 240T406 365Q374 336 329 314T221 291Q147 291 106 332T64 451Q64 500 77 545T117 624T180 679T264 700Q349 700 389
642T429 484Q429 445 424 399T408 305T383 213T350 133Q317 70 263 33T127 -5ZM221 302Q252 302 278 308T328 326T371 350T408 379Q412 403 414 431T416 484Q416 577 381 633T264 689Q220 689 185 670T126 617T90 541T77 451Q77 379 114 341T221 302Z" />
<glyph unicode=":" glyph-name="colon" horiz-adv-x="123" d="M73 357H86L78 312H66L73 357ZM23 45H36L28 0H16L23 45Z" />
<glyph unicode=";" glyph-name="semicolon" horiz-adv-x="129" d="M29 45H43L-10 -93H-22L29 45ZM79 357H92L85 312H72L79 357Z" />
<glyph unicode="&lt;" glyph-name="less" horiz-adv-x="379" d="M48 310L50 321L371 478L369 465L62 315L320 167L318 154L48 310Z" />
<glyph unicode="=" glyph-name="equal" horiz-adv-x="410" d="M69 397H387L385 385H67L69 397ZM44 245H362L360 233H42L44 245Z" />
<glyph unicode="&gt;" glyph-name="greater" horiz-adv-x="379" d="M30 167L336 317L79 465L81 478L350 322L348 311L28 154L30 167Z" />
<glyph unicode="?" glyph-name="question" horiz-adv-x="324" d="M103 226Q107 251 114 270T134 306T166 341T214 385Q243 410 265 430T302 472T324 516T332 570Q332 628 300 658T205 688Q172 688 143 680T85 656L87 668Q114 682 141 691T206 700Q272 700 308
667T345 570Q345 538 337 513T312 466T273 422T221 376Q194 353 176 336T146 302T127 268T116 226L104 154H92L103 226ZM74 44H87L80 0H67L74 44Z" />
<glyph unicode="@" glyph-name="at" horiz-adv-x="759" d="M344 -142Q189 -142 110 -56T30 185Q30 284 61 372T149 526T282 631T452 670Q526 670 579 647T667 583T718 486T735 364Q735 286 717 226T669 124T601 61T524 39Q483 39 469 60T457 113H456Q445 99 431
86T400 61T362 43T318 36Q269 36 243 72T216 169Q216 232 235 289T287 388T361 456T448 481Q477 481 501 474T540 456L474 141Q472 130 470 120T468 102Q468 79 481 65T524 51Q560 51 596 71T660 131T705 229T723 364Q723 428 707 482T658 575T574 636T452 658Q364
658 289 621T159 520T73 369T42 186Q42 34 118 -48T344 -130Q374 -130 404 -126T463 -114T514 -98T555 -80L553 -93Q537 -101 514 -109T464 -125T406 -137T344 -142ZM318 48Q342 48 363 56T402 76T434 104T460 133Q462 144 467 169T479 225T493 291T507 357T519
412T526 449Q514 457 494 463T447 470Q405 470 366 446T296 381T247 286T229 170Q229 113 251 81T318 48Z" />
<glyph unicode="A" glyph-name="A" horiz-adv-x="471" d="M-14 0H-27L311 693H326L417 0H404L371 247H106L-14 0ZM315 673L112 259H370L316 673H315Z" />
<glyph unicode="B" glyph-name="B" horiz-adv-x="469" d="M422 455Q402 415 370 392T296 361V360Q321 357 344 347T385 321T413 281T424 226Q424 184 413 146Q392 74 338 37T204 0H25L136 693H279Q364 693 403 650T442 541Q442 519 437 496T422 455ZM94 355L40
12H205Q278 12 329 47T401 148Q406 168 408 187T411 226Q411 288 368 321T247 355H94ZM96 366H247Q308 366 348 391T409 456Q420 476 424 498T429 540Q429 603 393 642T278 681H146L96 366Z" />
<glyph unicode="C" glyph-name="C" horiz-adv-x="473" d="M394 30Q374 19 338 6T245 -7Q192 -7 154 11T92 60T56 134T44 225Q44 291 56 364T95 503Q134 606 199 653T344 700Q398 700 429 688T481 662L479 650Q458 664 427 676T344 688Q268 688 206 642T106 497Q81
432 69 361T56 226Q56 179 67 139T101 69T159 22T245 5Q299 5 335 17T396 43L394 30Z" />
<glyph unicode="D" glyph-name="D" horiz-adv-x="512" d="M25 0L136 693H265Q319 693 362 679T435 636T482 561T499 452Q499 424 496 387T488 319Q477 245 452 186T387 86T291 22T160 0H25ZM161 12Q231 12 285 33T377 94T440 191T476 320Q481 352 484 389T487
452Q487 572 427 626T264 681H146L40 12H161Z" />
<glyph unicode="E" glyph-name="E" horiz-adv-x="421" d="M347 0H25L136 693H452L450 681H146L96 364H336L334 353H94L40 12H349L347 0Z" />
<glyph unicode="F" glyph-name="F" horiz-adv-x="408" d="M38 0H26L137 693H450L448 681H147L96 360H330L328 348H94L38 0Z" />
<glyph unicode="G" glyph-name="G" horiz-adv-x="501" d="M487 649Q467 663 434 675T348 688Q271 688 210 647T109 513Q96 481 86 444T70 368T60 293T56 229Q56 184 67 144T102 72T164 23T259 5Q304 5 337 12T400 31L443 301H295L297 312H458L412 23Q378 11 342
2T258 -7Q200 -7 159 12T93 63T56 139T44 229Q44 259 47 295T57 369T74 445T98 516Q138 613 203 656T348 700Q405 700 438 687T489 661L487 649Z" />
<glyph unicode="H" glyph-name="H" horiz-adv-x="519" d="M38 0H25L136 693H148L96 367H459L511 693H523L413 0H400L457 355H95L38 0Z" />
<glyph unicode="I" glyph-name="I" horiz-adv-x="149" d="M151 693L40 0H27L139 693H151Z" />
<glyph unicode="J" glyph-name="J" horiz-adv-x="281" d="M-16 24Q-4 18 16 13T63 7Q118 7 149 38T191 137L280 693H292L204 137Q193 65 159 30T63 -5Q35 -5 14 1T-18 13L-16 24Z" />
<glyph unicode="K" glyph-name="K" horiz-adv-x="430" d="M467 693L154 354L373 0H359L140 354L452 693H467ZM149 693L38 0H25L136 693H149Z" />
<glyph unicode="L" glyph-name="L" horiz-adv-x="393" d="M149 693L40 12H335L333 0H25L136 693H149Z" />
<glyph unicode="M" glyph-name="M" horiz-adv-x="632" d="M513 0L622 674H621L282 0H269L147 674H146L38 0H25L136 693H155L278 18H279L616 693H637L526 0H513Z" />
<glyph unicode="N" glyph-name="N" horiz-adv-x="522" d="M526 693L415 0H401L146 672H145L38 0H25L136 693H152L405 23H406L513 693H526Z" />
<glyph unicode="O" glyph-name="O" horiz-adv-x="553" d="M239 -7Q189 -7 152 11T91 62T55 137T43 230Q43 259 46 294T55 365Q70 447 98 510T163 615T247 678T343 700Q393 700 430 682T491 632T527 557T539 465Q539 436 536 399T527 327Q512 244 484 182T418 77T334
14T239 -7ZM239 5Q285 5 328 25T408 85T471 185T514 328Q521 364 524 399T527 465Q527 511 516 551T483 622T426 670T343 688Q296 688 253 668T173 608T110 506T68 363Q61 328 59 294T56 230Q56 183 66 143T99 71T156 23T239 5Z" />
<glyph unicode="P" glyph-name="P" horiz-adv-x="424" d="M89 324H222Q301 324 350 355T417 459Q422 476 423 494T425 529Q425 563 417 591T390 639T340 670T264 681H146L89 324ZM87 312L37 0H24L136 693H266Q313 693 346 682T399 649T429 597T438 529Q438 494
430 459Q411 381 359 347T221 312H87Z" />
<glyph unicode="Q" glyph-name="Q" horiz-adv-x="553" d="M192 -2Q115 18 79 80T43 230Q43 261 46 296T55 364Q70 447 98 510T164 615T247 678T343 700Q393 700 430 682T491 632T527 557T539 465Q539 435 536 399T527 327Q512 245 485 183T420 80T337 17T243 -6L493
-70L489 -82L192 -2ZM239 5Q285 5 328 25T408 85T471 185T514 328Q521 364 524 399T527 465Q527 511 516 551T483 622T426 670T343 688Q296 688 253 668T173 608T110 506T68 363Q61 328 59 294T56 230Q56 183 66 143T99 71T156 23T239 5Z" />
<glyph unicode="R" glyph-name="R" horiz-adv-x="444" d="M38 0H25L137 693H272Q351 693 392 652T433 537Q433 513 429 488T415 439Q396 392 357 364T260 329V328L387 0H374L247 327H90L38 0ZM92 339H230Q296 339 340 366T404 445Q412 467 416 491T421 537Q421
604 384 642T272 681H147L92 339Z" />
<glyph unicode="S" glyph-name="S" horiz-adv-x="409" d="M1 60Q13 51 28 42T62 26T106 13T162 8Q234 8 275 43T330 132Q334 147 336 164T338 194Q338 223 330 245T308 286T274 319T233 348L200 370Q141 404 115 439T89 528Q89 545 92 564T102 602Q120 648 161
674T264 700Q291 700 311 696T347 686T374 673T395 660L393 648Q376 661 346 674T263 688Q148 688 113 597Q101 562 101 528Q101 503 107 483T125 446T157 413T205 380L238 358Q262 343 282 328T318 293T341 249T350 194Q350 181 348 163T342 128Q327 71 284 34T162
-4Q97 -4 59 14T-1 48L1 60Z" />
<glyph unicode="T" glyph-name="T" horiz-adv-x="426" d="M176 0H163L272 681H82L84 693H478L476 681H285L176 0Z" />
<glyph unicode="U" glyph-name="U" horiz-adv-x="515" d="M523 693L447 215Q411 -7 228 -7Q140 -7 96 36T51 157Q51 170 52 184T56 215L132 693H144L68 215Q66 199 65 184T63 157Q63 83 105 44T229 5Q401 5 434 215L511 693H523Z" />
<glyph unicode="V" glyph-name="V" horiz-adv-x="466" d="M101 693L190 21H191L506 693H519L194 0H180L89 693H101Z" />
<glyph unicode="W" glyph-name="W" horiz-adv-x="694" d="M102 693L140 21H141L411 693H427L480 20H481L735 693H748L486 0H470L416 672H415L146 0H129L90 693H102Z" />
<glyph unicode="X" glyph-name="X" horiz-adv-x="452" d="M122 693L246 371L477 693H492L251 358L390 0H377L243 347L-7 0H-21L238 360L109 693H122Z" />
<glyph unicode="Y" glyph-name="Y" horiz-adv-x="411" d="M95 693L216 316H217L458 693H472L220 301L172 0H159L208 302L83 693H95Z" />
<glyph unicode="Z" glyph-name="Z" horiz-adv-x="435" d="M122 693H465L464 682L9 13V12H361L359 0H-9L-7 11L449 680V681H120L122 693Z" />
<glyph unicode="[" glyph-name="bracketleft" horiz-adv-x="232" d="M143 734H280L278 723H154L21 -108H146L144 -120H7L143 734Z" />
<glyph unicode="\" glyph-name="backslash" horiz-adv-x="240" d="M89 734H102L184 -120H171L89 734Z" />
<glyph unicode="]" glyph-name="bracketright" horiz-adv-x="231" d="M-30 -108H93L226 723H101L103 734H240L104 -120H-32L-30 -108Z" />
<glyph unicode="^" glyph-name="asciicircum" horiz-adv-x="357" d="M243 693H255L346 459H333L247 680L90 459H77L243 693Z" />
<glyph unicode="_" glyph-name="underscore" horiz-adv-x="267" d="M-52 -72H213L211 -84H-54L-52 -72Z" />
<glyph unicode="`" glyph-name="grave" horiz-adv-x="406" d="M173 712H186L237 585H224L173 712Z" />
<glyph unicode="a" glyph-name="a" horiz-adv-x="391" d="M282 0L293 65H292Q283 56 269 44T234 21T190 1T138 -7Q78 -7 48 33T18 143Q18 180 24 222T42 303Q57 352 81 390T134 454T196 493T265 507Q307 507 329 501T373 486L295 0H282ZM138 5Q164 5 188 13T232
33T269 58T296 83L358 478Q344 485 325 490T265 495Q197 495 140 444T53 298Q42 260 36 220T30 143Q30 80 57 43T138 5Z" />
<glyph unicode="b" glyph-name="b" horiz-adv-x="402" d="M147 734L99 442H100Q127 467 167 487T255 507Q311 507 346 472T381 358Q381 338 379 312T374 262Q357 136 303 65T154 -6Q117 -6 81 2T19 22L134 734H147ZM254 495Q205 495 166 474T97 427L34 29Q55 18
88 12T154 6Q243 6 293 73T361 262Q365 286 367 312T369 358Q369 430 337 462T254 495Z" />
<glyph unicode="c" glyph-name="c" horiz-adv-x="346" d="M246 507Q284 507 307 499T345 481L343 470Q326 480 304 488T245 496Q178 496 126 447T51 292Q43 256 39 227T35 171Q35 90 70 47T171 4Q213 4 242 16T289 40L287 27Q271 17 243 5T171 -7Q101 -7 62 38T23
171Q23 225 39 296Q64 404 119 455T246 507Z" />
<glyph unicode="d" glyph-name="d" horiz-adv-x="399" d="M289 0L300 63H299Q289 51 274 39T241 17T200 1T152 -6Q86 -6 53 34T19 151Q19 176 22 204T30 262Q41 319 62 364T111 441T175 490T252 507Q293 507 320 495T364 469L407 734H419L302 0H289ZM152 6Q177
6 200 13T242 30T276 54T302 80L362 457Q345 471 317 483T251 495Q173 495 119 433T42 260Q37 231 35 203T32 151Q32 81 61 44T152 6Z" />
<glyph unicode="e" glyph-name="e" horiz-adv-x="373" d="M42 264Q37 235 36 212T35 169Q35 87 71 46T177 5Q219 5 253 18T307 42L304 30Q286 19 254 6T177 -7Q104 -7 63 37T22 169Q22 192 24 220T32 279Q52 387 104 447T235 507Q295 507 326 469T357 359Q357
344 355 321T348 270L347 264H42ZM234 495Q190 495 158 475T103 424T66 353T44 275H337Q340 298 342 320T345 359Q345 425 317 460T234 495Z" />
<glyph unicode="f" glyph-name="f" horiz-adv-x="234" d="M251 488H138L29 -192H16L125 488H54L56 500H127L141 586Q154 666 190 700T280 735Q303 735 318 731T345 720L343 710Q332 715 317 719T279 723Q231 723 199 692T153 585L140 500H253L251 488Z" />
<glyph unicode="g" glyph-name="g" horiz-adv-x="395" d="M-20 -152Q1 -163 33 -173T105 -183Q142 -183 171 -175T222 -149T258 -100T281 -24L297 77H296Q286 65 271 53T237 30T196 13T149 6Q84 6 52 46T19 159Q19 180 22 208T30 265Q40 317 59 361T107 437T172
488T254 507Q295 507 324 500T374 482L293 -26Q278 -119 231 -156T105 -194Q66 -194 33 -184T-22 -163L-20 -152ZM149 18Q174 18 196 25T238 43T273 67T300 94L360 474Q344 482 318 488T253 495Q211 495 177 478T116 429T71 356T42 263Q37 236 35 208T32 159Q32
93 60 56T149 18Z" />
<glyph unicode="h" glyph-name="h" horiz-adv-x="410" d="M147 734L99 438H100Q137 464 185 485T282 507Q333 507 356 482T379 417Q379 402 376 381L315 0H302L363 382Q365 392 366 400T367 417Q367 451 348 473T281 495Q255 495 231 489T183 472T138 449T97 424L29
0H16L134 734H147Z" />
<glyph unicode="i" glyph-name="i" horiz-adv-x="128" d="M110 500L30 0H17L97 500H110ZM135 656L129 618H116L122 656H135Z" />
<glyph unicode="j" glyph-name="j" horiz-adv-x="130" d="M137 656L131 618H118L125 656H137ZM112 500L17 -90Q9 -145 -15 -169T-81 -194Q-98 -194 -109 -191T-127 -185L-125 -174Q-117 -177 -107 -180T-81 -183Q-45 -183 -24 -161T5 -89L100 500H112Z" />
<glyph unicode="k" glyph-name="k" horiz-adv-x="336" d="M147 734L29 0H16L134 734H147ZM354 500L122 268L282 0H268L107 269L337 500H354Z" />
<glyph unicode="l" glyph-name="l" horiz-adv-x="128" d="M147 734L30 0H17L135 734H147Z" />
<glyph unicode="m" glyph-name="m" horiz-adv-x="655" d="M109 500L99 438H100Q136 464 178 485T268 507Q311 507 332 488T358 436Q395 462 440 484T533 507Q582 507 603 484T624 419Q624 404 621 385L560 0H547L609 385Q612 404 612 419Q612 454 595 474T533
495Q485 495 441 473T358 424Q359 417 359 408T356 385L294 0H282L343 385Q346 404 346 419Q346 454 329 474T267 495Q219 495 177 473T97 424L29 0H16L96 500H109Z" />
<glyph unicode="n" glyph-name="n" horiz-adv-x="410" d="M109 500L98 438H99Q137 464 185 485T282 507Q333 507 356 483T379 416Q379 400 376 384L315 0H302L364 385Q365 393 366 400T367 416Q367 451 348 473T281 495Q255 495 231 489T183 472T137 450T96 424L29
0H16L96 500H109Z" />
<glyph unicode="o" glyph-name="o" horiz-adv-x="407" d="M362 230Q368 262 370 288T373 336Q373 414 339 454T239 495Q168 495 116 437T44 271Q39 245 36 219T33 169Q33 88 66 47T165 5Q237 5 290 63T362 230ZM375 228Q354 113 297 53T165 -7Q94 -7 58 38T21
169Q21 193 23 220T31 273Q41 329 61 372T108 446T168 491T239 507Q310 507 348 463T386 336Q386 315 384 288T375 228Z" />
<glyph unicode="p" glyph-name="p" horiz-adv-x="403" d="M109 500L99 436H100Q113 448 130 461T167 484T209 500T255 507Q317 507 350 468T383 357Q383 335 381 309T375 260Q367 203 350 155T307 70T243 14T157 -6Q118 -6 88 6T36 35L-1 -192H-14L97 500H109ZM254
495Q229 495 207 488T165 470T128 446T96 420L38 48Q58 31 89 19T157 6Q203 6 237 24T297 77T338 157T362 260Q365 282 367 309T370 357Q370 424 341 459T254 495Z" />
<glyph unicode="q" glyph-name="q" horiz-adv-x="402" d="M302 67H301Q290 55 275 42T242 19T201 1T153 -6Q86 -6 53 35T20 147Q20 169 22 196T30 255Q53 376 113 441T257 507Q299 507 329 499T381 480L274 -192L261 -191L302 67ZM153 6Q178 6 201 13T243 32T277
57T305 85L367 472Q350 480 323 487T257 495Q179 495 123 434T42 253Q36 222 35 196T33 147Q33 81 62 44T153 6Z" />
<glyph unicode="r" glyph-name="r" horiz-adv-x="239" d="M96 500H109L97 430H98Q111 443 127 456T161 480T199 497T241 504Q249 504 256 504T267 501L265 490Q255 492 241 492Q219 492 199 485T161 467T127 442T95 414L29 0H16L96 500Z" />
<glyph unicode="s" glyph-name="s" horiz-adv-x="311" d="M110 -7Q62 -7 33 6T-12 31L-10 43Q10 30 37 18T110 5Q173 5 204 34T242 106Q244 113 244 121T245 136Q245 175 228 199T171 246L128 270Q90 292 71 318T51 380Q51 402 57 422Q68 460 100 483T189 507Q227
507 251 498T291 477L288 466Q271 477 248 486T189 495Q138 495 109 475T69 420Q64 400 64 380Q64 348 80 325T133 281L176 257Q217 234 237 207T258 136Q258 118 255 105Q247 59 212 26T110 -7Z" />
<glyph unicode="t" glyph-name="t" horiz-adv-x="255" d="M136 -4Q96 -4 77 17T58 76Q58 91 61 109L121 488H53L55 500H124L143 620H156L136 500H264L262 488H134L73 109Q72 100 71 92T70 76Q70 44 86 26T137 8Q153 8 169 12T198 21L196 10Q187 6 170 1T136 -4Z" />
<glyph unicode="u" glyph-name="u" horiz-adv-x="406" d="M129 -7Q78 -7 55 18T31 86Q31 94 32 103T34 119L95 500H107L47 119Q45 111 44 102T43 85Q43 49 64 27T130 5Q179 5 225 27T310 75L377 500H390L310 0H297L308 62H307Q269 36 223 15T129 -7Z" />
<glyph unicode="v" glyph-name="v" horiz-adv-x="359" d="M57 500H70L134 19H135L368 500H381L139 0H124L57 500Z" />
<glyph unicode="w" glyph-name="w" horiz-adv-x="571" d="M61 500H73L114 22H115L320 500H335L376 22H377L580 500H593L381 0H365L325 478H324L119 0H103L61 500Z" />
<glyph unicode="x" glyph-name="x" horiz-adv-x="348" d="M170 258L63 500H76L179 269L350 500H364L184 257L298 0H284L175 245L-6 0H-21L170 258Z" />
<glyph unicode="y" glyph-name="y" horiz-adv-x="367" d="M-12 -195Q-24 -195 -35 -192T-53 -184L-52 -174Q-44 -178 -34 -180T-12 -183Q26 -183 48 -160T92 -90L140 7L53 500H65L149 27H150L377 500H390L104 -94Q81 -143 56 -169T-12 -195Z" />
<glyph unicode="z" glyph-name="z" horiz-adv-x="346" d="M-15 12L345 487V488H70L72 500H364L361 488L0 13V12H281L279 0H-18L-15 12Z" />
<glyph unicode="{" glyph-name="braceleft" horiz-adv-x="247" d="M162 -120Q111 -115 87 -91T63 -22Q63 -6 65 13T72 59Q73 68 77 92T86 142T93 189T97 216Q102 263 82 281T26 303L28 316Q47 317 63 321T93 335T116 365T131 416L161 607Q166 640 175 663T199
703T239 727T300 738L298 726Q268 724 247 717T211 697T188 661T174 607L143 415Q133 356 109 335T50 309V308Q80 302 97 282T110 216Q110 211 107 189T99 141T90 91T85 58Q81 35 79 14T76 -22Q76 -99 164 -108L162 -120Z" />
<glyph unicode="|" glyph-name="bar" horiz-adv-x="197" d="M103 734H115V-120H103V734Z" />
<glyph unicode="}" glyph-name="braceright" horiz-adv-x="247" d="M-35 -108Q-4 -106 17 -99T53 -79T76 -43T90 11L120 203Q125 233 133 252T154 284T181 301T213 309V310Q184 316 167 336T154 402Q154 407 157 429T165 477T173 527T179 560Q182 583 184 604T187
640Q187 717 100 726L102 738Q200 728 200 640Q200 624 198 605T191 559Q189 550 185 526T177 476T170 429T166 402Q164 379 168 363T181 337T205 322T238 315L236 302Q216 300 200 297T170 283T148 253T133 202L102 11Q97 -22 88 -45T64 -85T24 -109T-37 -120L-35
-108Z" />
<glyph unicode="~" glyph-name="asciitilde" horiz-adv-x="381" d="M51 259Q57 289 77 308T129 327Q149 327 166 318T198 299T230 279T264 270Q290 270 306 285T329 325H342Q334 295 314 277T263 258Q243 258 227 267T195 286T163 306T128 315Q102 315 86 299T63 259H51Z" />
<glyph unicode="&#xa0;" glyph-name="uni00A0" horiz-adv-x="160" />
<glyph unicode="&#xa1;" glyph-name="exclamdown" horiz-adv-x="163" d="M101 419H114L28 -120H15L101 419ZM126 573H139L132 529H119L126 573Z" />
<glyph unicode="&#xa2;" glyph-name="cent" horiz-adv-x="347" d="M246 507Q256 507 264 506L287 586H300L277 505Q294 503 307 498Q330 490 345 481L343 470Q326 480 303 488Q291 492 274 494L137 7Q153 4 171 4Q213 4 242 16T289 40L287 27Q271 17 243 5T171
-7Q151 -7 134 -3L103 -114H90L122 0Q86 10 62 38Q23 84 23 171Q23 225 39 296Q64 404 119 455T246 507ZM245 496Q178 496 126 447T51 292Q43 256 39 227T35 171Q35 90 70 47Q92 20 125 10L261 495Q253 496 245 496Z" />
<glyph unicode="&#xa3;" glyph-name="sterling" horiz-adv-x="402" d="M53 347H130L156 508Q165 561 181 598T222 657T275 690T339 700Q375 700 397 692T430 677L428 666Q415 674 393 681T339 688Q306 688 279 679T229 648T192 593T168 508L142 347H319L317 335H140L118
192Q112 153 102 124T78 73T49 38T14 13V12H341L339 0H-9L-7 11Q14 23 32 38T64 74T88 124T105 193L128 335H51L53 347Z" />
<glyph unicode="&#xa5;" glyph-name="yen" horiz-adv-x="417" d="M188 177H36L38 188H189L207 297H56L58 308H206L82 693H96L217 317H218L456 693H470L226 308H371L369 297H219L202 188H352L350 177H200L172 0H159L188 177Z" />
<glyph unicode="&#xa6;" glyph-name="brokenbar" horiz-adv-x="190" d="M94 276H107V-120H94V276ZM94 734H107V350H94V734Z" />
<glyph unicode="&#xa7;" glyph-name="section" horiz-adv-x="407" d="M128 -129Q80 -129 52 -116T7 -90L9 -78Q17 -83 28 -90T53 -103T86 -113T128 -117Q165 -117 193 -106T241 -75T269 -29T279 29Q279 71 259 97T193 146L137 173Q93 194 68 225T43 301Q43 363
81 397T181 442Q126 480 126 551Q126 617 167 658T282 700Q324 700 348 690T388 670L386 659Q369 669 345 678T282 688Q213 688 176 651T138 551Q138 513 156 485T213 437L270 410Q316 388 346 359T376 280Q376 219 339 185T233 138Q263 118 277 93T291 29Q291
-4 281 -32T250 -82T199 -116T128 -129ZM197 157L219 146Q288 157 325 188T363 279Q363 325 336 351T265 399L208 427L200 430Q198 431 194 433Q131 424 94 393T56 301Q56 260 79 232T142 184L197 157Z" />
<glyph unicode="&#xa8;" glyph-name="dieresis" horiz-adv-x="402" d="M179 653H192L186 618H173L179 653ZM288 653H300L294 618H282L288 653Z" />
<glyph unicode="&#xa9;" glyph-name="copyright" horiz-adv-x="680" d="M354 -7Q288 -7 234 17T139 88T77 199T55 346Q55 427 77 492T139 604T233 675T354 700Q420 700 475 675T571 604T633 493T655 346Q655 265 633 200T571 89T476 18T354 -7ZM354 5Q418 5 471
29T562 97T621 204T642 346Q642 424 621 487T562 595T471 664T354 688Q291 688 239 664T148 596T89 488T68 346Q68 267 89 204T148 97T238 29T354 5ZM365 154Q215 154 215 340V359Q215 452 254 497T364 543Q396 543 415 538T447 525V513Q435 520 415 526T364 532Q299
532 263 489T227 360V339Q227 166 365 166Q399 166 418 173T451 189V178Q440 170 420 162T365 154Z" />
<glyph unicode="&#xaa;" glyph-name="ordfeminine" horiz-adv-x="353" d="M160 236Q109 236 81 271T52 375Q52 409 57 445T72 514Q85 558 106 592T155 651T212 687T274 700Q314 700 335 693T373 679L302 242H289L299 301H298Q289 291 275 280T244 259T205 243T160
236ZM160 247Q184 247 205 254T245 272T277 295T302 319L358 672Q347 677 329 682T274 688Q244 688 216 676T162 642T117 586T84 511Q74 479 70 444T65 375Q65 313 89 280T160 247Z" />
<glyph unicode="&#xab;" glyph-name="guillemotleft" horiz-adv-x="314" d="M155 249L156 257L286 440H300L167 252L240 65H227L155 249ZM44 249L45 257L175 440H189L57 252L130 65H117L44 249Z" />
<glyph unicode="&#xae;" glyph-name="registered" horiz-adv-x="362" d="M222 339Q189 339 161 351T112 387T79 443T67 519Q67 562 79 595T111 652T160 687T222 700Q255 700 284 688T334 652T367 596T379 519Q379 477 367 444T334 387T284 352T222 339ZM222 350Q253
350 279 361T324 395T355 448T366 519Q366 600 326 644T222 688Q160 688 120 644T79 519Q79 480 90 449T120 395T165 362T222 350ZM172 612H222Q249 612 264 601T280 560Q280 519 244 510V509L288 429H274L232 507H185V429H172V612ZM227 518Q267 518 267 560Q267
582 257 591T222 600H185V518H227Z" />
<glyph unicode="&#xaf;" glyph-name="macron" horiz-adv-x="418" d="M163 636H329L327 625H161L163 636Z" />
<glyph unicode="&#xb0;" glyph-name="degree" horiz-adv-x="265" d="M178 485Q132 485 106 513T79 582Q79 636 112 667T191 699Q236 699 262 671T289 601Q289 549 257 517T178 485ZM178 496Q220 496 248 525T276 601Q276 637 253 662T190 688Q149 688 121 659T92
582Q92 547 114 522T178 496Z" />
<glyph unicode="&#xb4;" glyph-name="acute" horiz-adv-x="404" d="M309 712H323L235 585H222L309 712Z" />
<glyph unicode="&#xb6;" glyph-name="paragraph" horiz-adv-x="444" d="M264 356H235Q200 356 171 365T120 393T86 439T73 505Q73 543 84 577T118 637T179 678T267 693H447L318 -116H305L433 681H328L200 -116H188L264 356Z" />
<glyph unicode="&#xb7;" glyph-name="periodcentered" horiz-adv-x="112" d="M61 329H74L67 285H54L61 329Z" />
<glyph unicode="&#xb8;" glyph-name="cedilla" horiz-adv-x="421" d="M127 -190Q189 -188 218 -171T247 -121Q247 -97 228 -83T171 -69L182 0H194L185 -58Q216 -60 238 -75T260 -120Q260 -158 227 -178T126 -201L127 -190Z" />
<glyph unicode="&#xba;" glyph-name="ordmasculine" horiz-adv-x="365" d="M183 237Q122 237 88 275T53 388Q53 412 55 437T62 489Q80 589 130 644T249 700Q311 700 345 660T380 545Q380 519 378 492T370 439Q351 342 301 290T183 237ZM183 248Q247 248 294 299T357
441Q362 467 365 494T368 545Q368 617 337 652T249 688Q185 688 138 636T74 487Q65 434 65 388Q65 319 96 284T183 248Z" />
<glyph unicode="&#xbb;" glyph-name="guillemotright" horiz-adv-x="314" d="M257 253L184 440H197L270 256L269 248L139 65H125L257 253ZM147 253L74 440H87L159 256L158 248L28 65H14L147 253Z" />
<glyph unicode="&#xbc;" glyph-name="onequarter" horiz-adv-x="576" d="M173 681L91 653L93 664L180 697H188L124 302H112L173 681ZM530 714H543L19 -39H6L530 714ZM457 117H292L294 128L503 391H514L471 129H528L526 117H470L451 1H438L457 117ZM459 129L496
363H495L310 130V129H459Z" />
<glyph unicode="&#xbd;" glyph-name="onehalf" horiz-adv-x="630" d="M531 714H544L20 -39H7L531 714ZM173 681L91 653L93 664L180 697H188L124 302H112L173 681ZM346 10L467 132Q492 156 511 176T544 217T565 258T573 306Q573 341 555 363T492 386Q470 386 449
379T413 363L415 374Q431 383 450 390T493 397Q541 397 563 372T586 306Q586 279 578 256T556 212T520 170T474 125L364 13V12H548L546 0H345L346 10Z" />
<glyph unicode="&#xbe;" glyph-name="threequarters" horiz-adv-x="624" d="M124 298Q95 298 73 306T38 322L41 334Q55 324 76 317T124 309Q178 309 207 341T237 430Q237 465 214 485T154 506H125L127 518H154Q195 518 224 543T253 617Q253 650 234 669T177 688Q153
688 136 684T104 671L106 683Q121 690 137 694T178 699Q221 699 243 677T265 617Q265 573 243 547T188 513V512Q213 505 231 485T250 430Q250 369 216 334T124 298ZM579 712H592L68 -41H55L579 712ZM505 117H340L342 128L551 391H562L519 129H576L574 117H518L499
1H486L505 117ZM507 129L544 363H543L358 130V129H507Z" />
<glyph unicode="&#xbf;" glyph-name="questiondown" horiz-adv-x="327" d="M133 -127Q67 -127 31 -94T-6 3Q-6 35 2 60T27 107T66 151T118 197Q145 220 163 237T193 271T212 305T223 347L235 419H247L236 347Q232 321 225 303T205 267T173 231T125 188Q96 163
74 143T37 101T15 57T7 3Q7 -55 39 -85T134 -115Q167 -115 196 -107T254 -83L252 -95Q225 -109 198 -118T133 -127ZM259 573H272L265 529H252L259 573Z" />
<glyph unicode="&#xc0;" glyph-name="Agrave" horiz-adv-x="471" d="M-14 0H-27L311 693H326L417 0H404L371 247H106L-14 0ZM315 673L112 259H370L316 673H315ZM275 836H288L327 732H315L275 836Z" />
<glyph unicode="&#xc1;" glyph-name="Aacute" horiz-adv-x="471" d="M-14 0H-27L311 693H326L417 0H404L371 247H106L-14 0ZM315 673L112 259H370L316 673H315ZM385 836H398L328 732H315L385 836Z" />
<glyph unicode="&#xc2;" glyph-name="Acircumflex" horiz-adv-x="471" d="M-14 0H-27L311 693H326L417 0H404L371 247H106L-14 0ZM315 673L112 259H370L316 673H315ZM328 823H338L401 729H388L332 810L247 729H233L328 823Z" />
<glyph unicode="&#xc3;" glyph-name="Atilde" horiz-adv-x="471" d="M-14 0H-27L311 693H326L417 0H404L371 247H106L-14 0ZM315 673L112 259H370L316 673H315ZM221 741Q225 767 241 781T277 795Q292 795 304 789T328 774T351 760T376 753Q393 753 404 764T420
795H431Q426 770 411 756T375 742Q360 742 348 748T325 763T302 777T277 784Q242 784 232 741H221Z" />
<glyph unicode="&#xc4;" glyph-name="Adieresis" horiz-adv-x="471" d="M-14 0H-27L311 693H326L417 0H404L371 247H106L-14 0ZM315 673L112 259H370L316 673H315ZM266 775H279L273 739H260L266 775ZM376 775H388L382 739H370L376 775Z" />
<glyph unicode="&#xc5;" glyph-name="Aring" horiz-adv-x="471" d="M-14 0H-27L311 693H326L417 0H404L371 247H106L-14 0ZM315 673L112 259H370L316 673H315ZM327 718Q298 718 281 736T263 783Q263 813 282 834T333 855Q363 855 380 837T398 792Q398 760 378
739T327 718ZM327 729Q353 729 369 746T385 792Q385 813 372 828T333 844Q307 844 292 827T276 783Q276 760 289 745T327 729Z" />
<glyph unicode="&#xc6;" glyph-name="AE" horiz-adv-x="727" d="M653 0H340L376 222H132L-20 0H-35L445 693H757L755 681H462L412 364H642L640 353H410L355 12H655L653 0ZM141 233H378L449 675H448L141 233Z" />
<glyph unicode="&#xc7;" glyph-name="Ccedilla" horiz-adv-x="473" d="M270 -120Q270 -158 237 -178T136 -201L137 -190Q199 -188 228 -171T257 -121Q257 -97 238 -83T181 -69L192 -1Q153 8 125 28T79 79T53 146T44 225Q44 291 56 364T95 503Q134 606 199 653T344
700Q398 700 429 688T481 662L479 650Q458 664 427 676T344 688Q268 688 206 642T106 497Q81 432 69 361T56 226Q56 179 67 139T101 69T159 22T245 5Q299 5 335 17T396 43L394 30Q374 19 338 6T245 -7Q234 -7 224 -6T203 -3L194 -58Q225 -60 247 -75T270 -120Z"
/>
<glyph unicode="&#xc8;" glyph-name="Egrave" horiz-adv-x="421" d="M254 836H267L306 732H294L254 836ZM347 0H25L136 693H452L450 681H146L96 364H336L334 353H94L40 12H349L347 0Z" />
<glyph unicode="&#xc9;" glyph-name="Eacute" horiz-adv-x="421" d="M605 836H618L548 732H535L605 836ZM347 0H25L136 693H452L450 681H146L96 364H336L334 353H94L40 12H349L347 0Z" />
<glyph unicode="&#xca;" glyph-name="Ecircumflex" horiz-adv-x="421" d="M307 823H317L380 729H367L311 810L226 729H212L307 823ZM347 0H25L136 693H452L450 681H146L96 364H336L334 353H94L40 12H349L347 0Z" />
<glyph unicode="&#xcb;" glyph-name="Edieresis" horiz-adv-x="421" d="M347 0H25L136 693H452L450 681H146L96 364H336L334 353H94L40 12H349L347 0ZM244 775H257L251 739H238L244 775ZM354 775H366L360 739H348L354 775Z" />
<glyph unicode="&#xcc;" glyph-name="Igrave" horiz-adv-x="149" d="M151 693L40 0H27L139 693H151ZM360 836H373L412 732H400L360 836Z" />
<glyph unicode="&#xcd;" glyph-name="Iacute" horiz-adv-x="149" d="M151 693L40 0H27L139 693H151ZM214 836H227L157 732H144L214 836Z" />
<glyph unicode="&#xce;" glyph-name="Icircumflex" horiz-adv-x="149" d="M151 693L40 0H27L139 693H151ZM415 823H425L488 729H475L419 810L334 729H320L415 823Z" />
<glyph unicode="&#xcf;" glyph-name="Idieresis" horiz-adv-x="149" d="M151 693L40 0H27L139 693H151ZM352 775H365L359 739H346L352 775ZM462 775H474L468 739H456L462 775Z" />
<glyph unicode="&#xd0;" glyph-name="Eth" horiz-adv-x="508" d="M21 0L77 347H23L25 359H78L132 693H261Q315 693 358 679T431 636T478 561T495 452Q495 425 492 387T484 319Q473 245 448 186T383 86T287 22T156 0H21ZM157 12Q227 12 281 33T373 94T436 191T472
320Q477 352 480 389T483 452Q483 572 423 626T259 681H142L91 359H270L268 347H89L36 12H157Z" />
<glyph unicode="&#xd1;" glyph-name="Ntilde" horiz-adv-x="522" d="M244 741Q248 767 264 781T300 795Q315 795 327 789T351 774T374 760T399 753Q416 753 427 764T443 795H454Q449 770 434 756T398 742Q383 742 371 748T348 763T325 777T300 784Q265 784 255
741H244ZM526 693L415 0H401L146 672H145L38 0H25L136 693H152L405 23H406L513 693H526Z" />
<glyph unicode="&#xd2;" glyph-name="Ograve" horiz-adv-x="553" d="M306 836H319L358 732H346L306 836ZM239 -7Q189 -7 152 11T91 62T55 137T43 230Q43 259 46 294T55 365Q70 447 98 510T163 615T247 678T343 700Q393 700 430 682T491 632T527 557T539 465Q539
436 536 399T527 327Q512 244 484 182T418 77T334 14T239 -7ZM239 5Q285 5 328 25T408 85T471 185T514 328Q521 364 524 399T527 465Q527 511 516 551T483 622T426 670T343 688Q296 688 253 668T173 608T110 506T68 363Q61 328 59 294T56 230Q56 183 66 143T99
71T156 23T239 5Z" />
<glyph unicode="&#xd3;" glyph-name="Oacute" horiz-adv-x="553" d="M406 836H419L349 732H336L406 836ZM239 -7Q189 -7 152 11T91 62T55 137T43 230Q43 259 46 294T55 365Q70 447 98 510T163 615T247 678T343 700Q393 700 430 682T491 632T527 557T539 465Q539
436 536 399T527 327Q512 244 484 182T418 77T334 14T239 -7ZM239 5Q285 5 328 25T408 85T471 185T514 328Q521 364 524 399T527 465Q527 511 516 551T483 622T426 670T343 688Q296 688 253 668T173 608T110 506T68 363Q61 328 59 294T56 230Q56 183 66 143T99
71T156 23T239 5Z" />
<glyph unicode="&#xd4;" glyph-name="Ocircumflex" horiz-adv-x="553" d="M359 823H369L432 729H419L363 810L278 729H264L359 823ZM239 -7Q189 -7 152 11T91 62T55 137T43 230Q43 259 46 294T55 365Q70 447 98 510T163 615T247 678T343 700Q393 700 430 682T491
632T527 557T539 465Q539 436 536 399T527 327Q512 244 484 182T418 77T334 14T239 -7ZM239 5Q285 5 328 25T408 85T471 185T514 328Q521 364 524 399T527 465Q527 511 516 551T483 622T426 670T343 688Q296 688 253 668T173 608T110 506T68 363Q61 328 59 294T56
230Q56 183 66 143T99 71T156 23T239 5Z" />
<glyph unicode="&#xd5;" glyph-name="Otilde" horiz-adv-x="553" d="M253 741Q257 767 273 781T309 795Q324 795 336 789T360 774T383 760T408 753Q425 753 436 764T452 795H463Q458 770 443 756T407 742Q392 742 380 748T357 763T334 777T309 784Q274 784 264
741H253ZM239 -7Q189 -7 152 11T91 62T55 137T43 230Q43 259 46 294T55 365Q70 447 98 510T163 615T247 678T343 700Q393 700 430 682T491 632T527 557T539 465Q539 436 536 399T527 327Q512 244 484 182T418 77T334 14T239 -7ZM239 5Q285 5 328 25T408 85T471
185T514 328Q521 364 524 399T527 465Q527 511 516 551T483 622T426 670T343 688Q296 688 253 668T173 608T110 506T68 363Q61 328 59 294T56 230Q56 183 66 143T99 71T156 23T239 5Z" />
<glyph unicode="&#xd6;" glyph-name="Odieresis" horiz-adv-x="553" d="M296 775H309L303 739H290L296 775ZM406 775H418L412 739H400L406 775ZM239 -7Q189 -7 152 11T91 62T55 137T43 230Q43 259 46 294T55 365Q70 447 98 510T163 615T247 678T343 700Q393 700
430 682T491 632T527 557T539 465Q539 436 536 399T527 327Q512 244 484 182T418 77T334 14T239 -7ZM239 5Q285 5 328 25T408 85T471 185T514 328Q521 364 524 399T527 465Q527 511 516 551T483 622T426 670T343 688Q296 688 253 668T173 608T110 506T68 363Q61
328 59 294T56 230Q56 183 66 143T99 71T156 23T239 5Z" />
<glyph unicode="&#xd7;" glyph-name="multiply" horiz-adv-x="374" d="M42 207L193 341L87 474L96 482L201 349L350 482L357 473L208 340L314 206L305 198L199 333L49 198L42 207Z" />
<glyph unicode="&#xd8;" glyph-name="Oslash" horiz-adv-x="553" d="M240 -7Q190 -7 153 11T92 62Q86 69 81 77L21 0H6L74 88Q63 111 56 137Q44 180 44 230Q44 259 47 294T56 365Q71 447 99 510T164 615T248 678T344 700Q394 700 431 682T492 631Q493 630 494
629L544 693H558L500 619Q518 592 528 557Q540 514 540 465Q540 436 537 399T528 327Q513 244 485 182T419 77T335 14T240 -7ZM240 5Q286 5 329 25T409 85T472 185T515 328Q522 364 525 399T528 465Q528 511 517 551Q508 583 492 609L89 88Q94 79 100 71Q123 40
157 23T240 5ZM426 670Q392 688 344 688Q297 688 254 668T174 608T111 506T69 363Q62 328 60 294T57 230Q57 183 67 142Q73 119 83 99L486 619Q485 620 483 622Q461 653 426 670Z" />
<glyph unicode="&#xd9;" glyph-name="Ugrave" horiz-adv-x="515" d="M288 836H301L340 732H328L288 836ZM523 693L447 215Q411 -7 228 -7Q140 -7 96 36T51 157Q51 170 52 184T56 215L132 693H144L68 215Q66 199 65 184T63 157Q63 83 105 44T229 5Q401 5 434 215L511
693H523Z" />
<glyph unicode="&#xda;" glyph-name="Uacute" horiz-adv-x="515" d="M382 836H395L325 732H312L382 836ZM523 693L447 215Q411 -7 228 -7Q140 -7 96 36T51 157Q51 170 52 184T56 215L132 693H144L68 215Q66 199 65 184T63 157Q63 83 105 44T229 5Q401 5 434 215L511
693H523Z" />
<glyph unicode="&#xdb;" glyph-name="Ucircumflex" horiz-adv-x="515" d="M342 823H352L415 729H402L346 810L261 729H247L342 823ZM523 693L447 215Q411 -7 228 -7Q140 -7 96 36T51 157Q51 170 52 184T56 215L132 693H144L68 215Q66 199 65 184T63 157Q63 83
105 44T229 5Q401 5 434 215L511 693H523Z" />
<glyph unicode="&#xdc;" glyph-name="Udieresis" horiz-adv-x="515" d="M523 693L447 215Q411 -7 228 -7Q140 -7 96 36T51 157Q51 170 52 184T56 215L132 693H144L68 215Q66 199 65 184T63 157Q63 83 105 44T229 5Q401 5 434 215L511 693H523ZM276 775H289L283
739H270L276 775ZM386 775H398L392 739H380L386 775Z" />
<glyph unicode="&#xdd;" glyph-name="Yacute" horiz-adv-x="411" d="M95 693L216 316H217L458 693H472L220 301L172 0H159L208 302L83 693H95ZM595 836H608L538 732H525L595 836Z" />
<glyph unicode="&#xde;" glyph-name="Thorn" horiz-adv-x="424" d="M202 187Q280 187 328 218T394 320Q402 355 402 391Q402 424 394 450T366 496T316 526T241 537H124L68 187H202ZM66 175L38 0H25L136 693H148L126 549H243Q289 549 322 538T375 505T405 455T415
391Q415 353 406 319Q388 244 336 210T199 175H66Z" />
<glyph unicode="&#xdf;" glyph-name="germandbls" horiz-adv-x="408" d="M106 556Q120 644 162 689T274 735Q329 735 360 708T392 632Q392 585 367 550T308 482L292 467Q262 438 243 413T223 356Q223 328 238 310T278 272L305 250Q331 228 349 201T367 131Q367
115 364 98T354 65Q339 34 310 14T232 -7Q189 -7 164 4T126 24L128 36Q144 25 168 15T233 5Q275 5 302 23T342 69Q349 84 352 100T355 131Q355 170 338 195T298 240L271 262Q246 283 228 304T210 356Q210 391 231 418T285 476L300 490Q314 504 328 519T354 552T373
589T380 632Q380 675 353 699T274 723Q146 723 118 555L-1 -192H-13L106 556Z" />
<glyph unicode="&#xe0;" glyph-name="agrave" horiz-adv-x="391" d="M282 0L293 65H292Q283 56 269 44T234 21T190 1T138 -7Q78 -7 48 33T18 143Q18 180 24 222T42 303Q57 352 81 390T134 454T196 493T265 507Q307 507 329 501T373 486L295 0H282ZM138 5Q164 5
188 13T232 33T269 58T296 83L358 478Q344 485 325 490T265 495Q197 495 140 444T53 298Q42 260 36 220T30 143Q30 80 57 43T138 5ZM201 712H214L265 585H252L201 712Z" />
<glyph unicode="&#xe1;" glyph-name="aacute" horiz-adv-x="391" d="M282 0L293 65H292Q283 56 269 44T234 21T190 1T138 -7Q78 -7 48 33T18 143Q18 180 24 222T42 303Q57 352 81 390T134 454T196 493T265 507Q307 507 329 501T373 486L295 0H282ZM138 5Q164 5
188 13T232 33T269 58T296 83L358 478Q344 485 325 490T265 495Q197 495 140 444T53 298Q42 260 36 220T30 143Q30 80 57 43T138 5ZM325 712H339L251 585H238L325 712Z" />
<glyph unicode="&#xe2;" glyph-name="acircumflex" horiz-adv-x="391" d="M282 0L293 65H292Q283 56 269 44T234 21T190 1T138 -7Q78 -7 48 33T18 143Q18 180 24 222T42 303Q57 352 81 390T134 454T196 493T265 507Q307 507 329 501T373 486L295 0H282ZM138 5Q164
5 188 13T232 33T269 58T296 83L358 478Q344 485 325 490T265 495Q197 495 140 444T53 298Q42 260 36 220T30 143Q30 80 57 43T138 5ZM270 693H280L342 585H329L274 680L184 585H170L270 693Z" />
<glyph unicode="&#xe3;" glyph-name="atilde" horiz-adv-x="391" d="M282 0L293 65H292Q283 56 269 44T234 21T190 1T138 -7Q78 -7 48 33T18 143Q18 180 24 222T42 303Q57 352 81 390T134 454T196 493T265 507Q307 507 329 501T373 486L295 0H282ZM138 5Q164 5
188 13T232 33T269 58T296 83L358 478Q344 485 325 490T265 495Q197 495 140 444T53 298Q42 260 36 220T30 143Q30 80 57 43T138 5ZM159 607Q164 633 179 647T215 662Q231 662 243 656T266 641T289 626T314 619Q331 619 342 630T358 662H370Q365 636 350 622T314
608Q299 608 287 614T263 629T240 643T215 650Q199 650 188 639T171 607H159Z" />
<glyph unicode="&#xe4;" glyph-name="adieresis" horiz-adv-x="391" d="M282 0L293 65H292Q283 56 269 44T234 21T190 1T138 -7Q78 -7 48 33T18 143Q18 180 24 222T42 303Q57 352 81 390T134 454T196 493T265 507Q307 507 329 501T373 486L295 0H282ZM138 5Q164
5 188 13T232 33T269 58T296 83L358 478Q344 485 325 490T265 495Q197 495 140 444T53 298Q42 260 36 220T30 143Q30 80 57 43T138 5ZM204 653H217L211 618H198L204 653ZM313 653H325L319 618H307L313 653Z" />
<glyph unicode="&#xe5;" glyph-name="aring" horiz-adv-x="391" d="M282 0L293 65H292Q283 56 269 44T234 21T190 1T138 -7Q78 -7 48 33T18 143Q18 180 24 222T42 303Q57 352 81 390T134 454T196 493T265 507Q307 507 329 501T373 486L295 0H282ZM138 5Q164 5
188 13T232 33T269 58T296 83L358 478Q344 485 325 490T265 495Q197 495 140 444T53 298Q42 260 36 220T30 143Q30 80 57 43T138 5ZM265 579Q235 579 218 597T200 645Q200 675 219 696T271 718Q301 718 318 699T336 654Q336 622 316 601T265 579ZM265 590Q291 590
307 608T323 654Q323 676 310 691T271 706Q245 706 229 689T213 645Q213 622 226 606T265 590Z" />
<glyph unicode="&#xe6;" glyph-name="ae" horiz-adv-x="633" d="M133 -7Q75 -7 44 26T12 114Q12 183 50 219T166 265L288 279Q298 331 302 357T307 404Q307 449 284 472T208 495Q174 495 148 489T97 471L99 483Q121 493 147 500T209 507Q319 507 319 405Q319 392
316 377V374Q339 434 383 470T490 507Q550 507 581 469T613 359Q613 319 605 279L603 267H299Q294 238 292 213T290 168Q290 83 328 44T433 5Q475 5 508 18T563 44L560 31Q540 18 509 6T432 -7Q382 -7 346 14T292 79Q263 44 224 19T133 -7ZM278 168Q278 188 279
212T286 267L168 253Q94 245 60 212T25 114Q25 64 52 35T134 5Q160 5 182 12T223 31T258 58T288 90Q278 121 278 168ZM593 279Q595 296 598 317T601 359Q601 425 573 460T489 495Q413 495 367 439T300 279H593Z" />
<glyph unicode="&#xe7;" glyph-name="ccedilla" horiz-adv-x="346" d="M194 -120Q194 -158 161 -178T60 -201L61 -190Q123 -188 152 -171T181 -121Q181 -97 162 -83T104 -69L116 2Q71 18 47 60T23 171Q23 225 39 296Q64 404 119 455T246 507Q284 507 307 499T345
481L343 470Q326 480 304 488T245 496Q178 496 126 447T51 292Q43 256 39 227T35 171Q35 90 71 47T171 4Q213 4 242 16T289 40L287 27Q271 17 243 5T171 -7Q148 -7 127 -1L118 -58Q150 -60 172 -75T194 -120Z" />
<glyph unicode="&#xe8;" glyph-name="egrave" horiz-adv-x="373" d="M42 264Q37 235 36 212T35 169Q35 87 71 46T177 5Q219 5 253 18T307 42L304 30Q286 19 254 6T177 -7Q104 -7 63 37T22 169Q22 192 24 220T32 279Q52 387 104 447T235 507Q295 507 326 469T357
359Q357 344 355 321T348 270L347 264H42ZM234 495Q190 495 158 475T103 424T66 353T44 275H337Q340 298 342 320T345 359Q345 425 317 460T234 495ZM185 712H198L249 585H236L185 712Z" />
<glyph unicode="&#xe9;" glyph-name="eacute" horiz-adv-x="373" d="M564 712H578L490 585H477L564 712ZM42 264Q37 235 36 212T35 169Q35 87 71 46T177 5Q219 5 253 18T307 42L304 30Q286 19 254 6T177 -7Q104 -7 63 37T22 169Q22 192 24 220T32 279Q52 387 104
447T235 507Q295 507 326 469T357 359Q357 344 355 321T348 270L347 264H42ZM234 495Q190 495 158 475T103 424T66 353T44 275H337Q340 298 342 320T345 359Q345 425 317 460T234 495Z" />
<glyph unicode="&#xea;" glyph-name="ecircumflex" horiz-adv-x="373" d="M254 693H264L326 585H313L258 680L168 585H154L254 693ZM42 264Q37 235 36 212T35 169Q35 87 71 46T177 5Q219 5 253 18T307 42L304 30Q286 19 254 6T177 -7Q104 -7 63 37T22 169Q22 192
24 220T32 279Q52 387 104 447T235 507Q295 507 326 469T357 359Q357 344 355 321T348 270L347 264H42ZM234 495Q190 495 158 475T103 424T66 353T44 275H337Q340 298 342 320T345 359Q345 425 317 460T234 495Z" />
<glyph unicode="&#xeb;" glyph-name="edieresis" horiz-adv-x="373" d="M189 653H202L196 618H183L189 653ZM298 653H310L304 618H292L298 653ZM42 264Q37 235 36 212T35 169Q35 87 71 46T177 5Q219 5 253 18T307 42L304 30Q286 19 254 6T177 -7Q104 -7 63 37T22
169Q22 192 24 220T32 279Q52 387 104 447T235 507Q295 507 326 469T357 359Q357 344 355 321T348 270L347 264H42ZM234 495Q190 495 158 475T103 424T66 353T44 275H337Q340 298 342 320T345 359Q345 425 317 460T234 495Z" />
<glyph unicode="&#xec;" glyph-name="igrave" horiz-adv-x="128" d="M97 500H110L30 0H17L97 500ZM316 712H329L380 585H367L316 712Z" />
<glyph unicode="&#xed;" glyph-name="iacute" horiz-adv-x="128" d="M444 712H458L370 585H357L444 712ZM97 500H110L30 0H17L97 500Z" />
<glyph unicode="&#xee;" glyph-name="icircumflex" horiz-adv-x="128" d="M173 585L132 680L60 585H46L128 693H138L186 585H173ZM97 500H110L30 0H17L97 500Z" />
<glyph unicode="&#xef;" glyph-name="idieresis" horiz-adv-x="128" d="M171 650L165 618H153L158 650H171ZM78 618L83 650H96L90 618H78ZM97 500H110L30 0H17L97 500Z" />
<glyph unicode="&#xf0;" glyph-name="eth" horiz-adv-x="417" d="M277 651Q259 673 238 693T193 734H210Q252 699 289 656L372 697L376 687L296 648Q338 597 365 532T393 381Q393 336 388 292T375 209Q350 101 296 48T170 -6Q98 -6 60 38T22 169Q22 192 24 217T32
270Q42 321 60 364T106 438T169 488T250 506Q291 506 320 494T372 464Q362 515 340 559T285 642L166 585L161 594L277 651ZM380 381Q380 398 379 415T375 448Q353 467 323 481T250 495Q208 495 175 478T116 431T72 359T44 268Q39 241 37 216T34 169Q34 88 69 47T170
5Q239 5 289 58T362 212Q370 247 375 292T380 381Z" />
<glyph unicode="&#xf1;" glyph-name="ntilde" horiz-adv-x="410" d="M109 500L98 438H99Q137 464 185 485T282 507Q333 507 356 483T379 416Q379 400 376 384L315 0H302L364 385Q365 393 366 400T367 416Q367 451 348 473T281 495Q255 495 231 489T183 472T137
450T96 424L29 0H16L96 500H109ZM154 607Q159 633 174 647T210 662Q226 662 238 656T261 641T284 626T309 619Q326 619 337 630T353 662H365Q360 636 345 622T309 608Q294 608 282 614T258 629T235 643T210 650Q194 650 183 639T166 607H154Z" />
<glyph unicode="&#xf2;" glyph-name="ograve" horiz-adv-x="407" d="M362 230Q368 262 370 288T373 336Q373 414 339 454T239 495Q168 495 116 437T44 271Q39 245 36 219T33 169Q33 88 66 47T165 5Q237 5 290 63T362 230ZM375 228Q354 113 297 53T165 -7Q94 -7
58 38T21 169Q21 193 23 220T31 273Q41 329 61 372T108 446T168 491T239 507Q310 507 348 463T386 336Q386 315 384 288T375 228ZM198 712H211L262 585H249L198 712Z" />
<glyph unicode="&#xf3;" glyph-name="oacute" horiz-adv-x="407" d="M324 712H338L250 585H237L324 712ZM362 230Q368 262 370 288T373 336Q373 414 339 454T239 495Q168 495 116 437T44 271Q39 245 36 219T33 169Q33 88 66 47T165 5Q237 5 290 63T362 230ZM375
228Q354 113 297 53T165 -7Q94 -7 58 38T21 169Q21 193 23 220T31 273Q41 329 61 372T108 446T168 491T239 507Q310 507 348 463T386 336Q386 315 384 288T375 228Z" />
<glyph unicode="&#xf4;" glyph-name="ocircumflex" horiz-adv-x="407" d="M267 693H277L339 585H326L271 680L181 585H167L267 693ZM362 230Q368 262 370 288T373 336Q373 414 339 454T239 495Q168 495 116 437T44 271Q39 245 36 219T33 169Q33 88 66 47T165 5Q237
5 290 63T362 230ZM375 228Q354 113 297 53T165 -7Q94 -7 58 38T21 169Q21 193 23 220T31 273Q41 329 61 372T108 446T168 491T239 507Q310 507 348 463T386 336Q386 315 384 288T375 228Z" />
<glyph unicode="&#xf5;" glyph-name="otilde" horiz-adv-x="407" d="M362 230Q368 262 370 288T373 336Q373 414 339 454T239 495Q168 495 116 437T44 271Q39 245 36 219T33 169Q33 88 66 47T165 5Q237 5 290 63T362 230ZM375 228Q354 113 297 53T165 -7Q94 -7
58 38T21 169Q21 193 23 220T31 273Q41 329 61 372T108 446T168 491T239 507Q310 507 348 463T386 336Q386 315 384 288T375 228ZM155 607Q160 633 175 647T211 662Q227 662 239 656T262 641T285 626T310 619Q327 619 338 630T354 662H366Q361 636 346 622T310
608Q295 608 283 614T259 629T236 643T211 650Q195 650 184 639T167 607H155Z" />
<glyph unicode="&#xf6;" glyph-name="odieresis" horiz-adv-x="407" d="M205 653H218L212 618H199L205 653ZM314 653H326L320 618H308L314 653ZM362 230Q368 262 370 288T373 336Q373 414 339 454T239 495Q168 495 116 437T44 271Q39 245 36 219T33 169Q33 88
66 47T165 5Q237 5 290 63T362 230ZM375 228Q354 113 297 53T165 -7Q94 -7 58 38T21 169Q21 193 23 220T31 273Q41 329 61 372T108 446T168 491T239 507Q310 507 348 463T386 336Q386 315 384 288T375 228Z" />
<glyph unicode="&#xf7;" glyph-name="divide" horiz-adv-x="401" d="M59 357H374L372 345H57L59 357ZM191 241H204L197 198H184L191 241ZM233 501H246L239 458H226L233 501Z" />
<glyph unicode="&#xf8;" glyph-name="oslash" horiz-adv-x="407" d="M381 228Q360 113 303 53T171 -7Q100 -7 63 38Q57 45 53 53L9 0H-6L46 64Q27 105 27 169Q27 193 29 220T37 273Q47 329 67 372T114 446T174 491T245 507Q316 507 354 462Q358 457 362 452L401
500H416L368 441Q392 400 392 336Q392 315 390 288T381 228ZM368 230Q374 262 376 288T379 336Q379 394 360 431L61 63Q66 54 72 46Q106 5 171 5Q243 5 296 63T368 230ZM345 454Q311 495 245 495Q174 495 122 437T50 271Q45 245 42 219T39 169Q39 112 55 75L354
442Q350 449 345 454Z" />
<glyph unicode="&#xf9;" glyph-name="ugrave" horiz-adv-x="406" d="M129 -7Q78 -7 55 18T31 86Q31 94 32 103T34 119L95 500H107L47 119Q45 111 44 102T43 85Q43 49 64 27T130 5Q179 5 225 27T310 75L377 500H390L310 0H297L308 62H307Q269 36 223 15T129 -7ZM196
712H209L260 585H247L196 712Z" />
<glyph unicode="&#xfa;" glyph-name="uacute" horiz-adv-x="406" d="M316 712H330L242 585H229L316 712ZM129 -7Q78 -7 55 18T31 86Q31 94 32 103T34 119L95 500H107L47 119Q45 111 44 102T43 85Q43 49 64 27T130 5Q179 5 225 27T310 75L377 500H390L310 0H297L308
62H307Q269 36 223 15T129 -7Z" />
<glyph unicode="&#xfb;" glyph-name="ucircumflex" horiz-adv-x="406" d="M267 693H277L339 585H326L271 680L181 585H167L267 693ZM129 -7Q78 -7 55 18T31 86Q31 94 32 103T34 119L95 500H107L47 119Q45 111 44 102T43 85Q43 49 64 27T130 5Q179 5 225 27T310
75L377 500H390L310 0H297L308 62H307Q269 36 223 15T129 -7Z" />
<glyph unicode="&#xfc;" glyph-name="udieresis" horiz-adv-x="406" d="M202 653H215L209 618H196L202 653ZM311 653H323L317 618H305L311 653ZM129 -7Q78 -7 55 18T31 86Q31 94 32 103T34 119L95 500H107L47 119Q45 111 44 102T43 85Q43 49 64 27T130 5Q179 5
225 27T310 75L377 500H390L310 0H297L308 62H307Q269 36 223 15T129 -7Z" />
<glyph unicode="&#xfd;" glyph-name="yacute" horiz-adv-x="367" d="M-12 -195Q-24 -195 -35 -192T-53 -184L-52 -174Q-44 -178 -34 -180T-12 -183Q26 -183 48 -160T92 -90L140 7L53 500H65L149 27H150L377 500H390L104 -94Q81 -143 56 -169T-12 -195ZM561 712H575L487
585H474L561 712Z" />
<glyph unicode="&#xfe;" glyph-name="thorn" horiz-adv-x="403" d="M134 734H147L98 436H99Q112 448 129 461T166 484T208 500T254 507Q316 507 349 468T382 357Q382 336 380 309T374 259Q366 202 349 154T306 70T242 14T156 -6Q118 -6 87 6T35 35L-2 -192H-14L134
734ZM156 6Q202 6 237 24T297 77T338 157T362 260Q365 282 367 309T370 357Q370 424 341 459T254 495Q229 495 207 488T165 470T128 446T96 420L37 48Q57 31 88 19T156 6Z" />
<glyph unicode="&#xff;" glyph-name="ydieresis" horiz-adv-x="367" d="M-12 -195Q-24 -195 -35 -192T-53 -184L-52 -174Q-44 -178 -34 -180T-12 -183Q26 -183 48 -160T92 -90L140 7L53 500H65L149 27H150L377 500H390L104 -94Q81 -143 56 -169T-12 -195ZM179
653H192L186 618H173L179 653ZM288 653H300L294 618H282L288 653Z" />
<glyph unicode="&#x100;" glyph-name="Amacron" horiz-adv-x="471" d="M-14 0H-27L311 693H326L417 0H404L371 247H106L-14 0ZM315 673L112 259H370L316 673H315ZM241 759H410L408 748H239L241 759Z" />
<glyph unicode="&#x101;" glyph-name="amacron" horiz-adv-x="391" d="M282 0L293 65H292Q283 56 269 44T234 21T190 1T138 -7Q78 -7 48 33T18 143Q18 180 24 222T42 303Q57 352 81 390T134 454T196 493T265 507Q307 507 329 501T373 486L295 0H282ZM138 5Q164
5 188 13T232 33T269 58T296 83L358 478Q344 485 325 490T265 495Q197 495 140 444T53 298Q42 260 36 220T30 143Q30 80 57 43T138 5ZM181 636H347L345 625H179L181 636Z" />
<glyph unicode="&#x102;" glyph-name="Abreve" horiz-adv-x="471" d="M-14 0H-27L311 693H326L417 0H404L371 247H106L-14 0ZM315 673L112 259H370L316 673H315ZM328 729Q286 729 265 751T244 811H256Q255 779 274 760T328 741Q361 741 383 760T415 811H426Q417
773 391 751T328 729Z" />
<glyph unicode="&#x103;" glyph-name="abreve" horiz-adv-x="391" d="M282 0L293 65H292Q283 56 269 44T234 21T190 1T138 -7Q78 -7 48 33T18 143Q18 180 24 222T42 303Q57 352 81 390T134 454T196 493T265 507Q307 507 329 501T373 486L295 0H282ZM138 5Q164
5 188 13T232 33T269 58T296 83L358 478Q344 485 325 490T265 495Q197 495 140 444T53 298Q42 260 36 220T30 143Q30 80 57 43T138 5ZM263 586Q222 586 200 608T180 670H192Q191 635 209 617T263 598Q297 598 319 617T351 670H362Q353 631 327 609T263 586Z" />
<glyph unicode="&#x104;" glyph-name="Aogonek" horiz-adv-x="471" d="M316 673H315L113 259H370L316 673ZM371 247H107L-14 0H-27L311 693H326L417 -2Q399 -15 382 -30T350 -61T328 -96T319 -135Q319 -156 332 -170T373 -184Q382 -184 391 -182T407 -178L406
-189Q401 -191 391 -193T372 -195Q339 -195 323 -179T306 -136Q306 -115 315 -95T338 -58T369 -26T404 1L371 247Z" />
<glyph unicode="&#x105;" glyph-name="aogonek" horiz-adv-x="391" d="M358 478Q344 485 325 490T265 495Q197 495 140 444T53 298Q42 260 36 220T30 143Q30 80 57 43T138 5Q164 5 188 13T232 33T269 58T296 83L358 478ZM293 65H292Q283 56 269 44T234 21T190
1T138 -7Q78 -7 48 33T18 143Q18 180 24 222T42 303Q57 353 81 391T134 455T196 494T265 507Q307 507 329 501T373 486L295 0Q279 -12 262 -27T231 -59T207 -95T197 -135Q197 -156 210 -170T251 -184Q260 -184 269 -182T285 -178L284 -189Q279 -191 269 -193T250
-195Q217 -195 201 -179T184 -136Q184 -115 193 -95T216 -58T248 -25T283 3L293 65Z" />
<glyph unicode="&#x106;" glyph-name="Cacute" horiz-adv-x="473" d="M394 30Q374 19 338 6T245 -7Q192 -7 154 11T92 60T56 134T44 225Q44 291 56 364T95 503Q134 606 199 653T344 700Q398 700 429 688T481 662L479 650Q458 664 427 676T344 688Q268 688 206
642T106 497Q81 432 69 361T56 226Q56 179 67 139T101 69T159 22T245 5Q299 5 335 17T396 43L394 30ZM398 836H411L341 732H328L398 836Z" />
<glyph unicode="&#x107;" glyph-name="cacute" horiz-adv-x="346" d="M314 712H328L240 585H227L314 712ZM246 507Q284 507 307 499T345 481L343 470Q326 480 304 488T245 496Q178 496 126 447T51 292Q43 256 39 227T35 171Q35 90 70 47T171 4Q213 4 242 16T289
40L287 27Q271 17 243 5T171 -7Q101 -7 62 38T23 171Q23 225 39 296Q64 404 119 455T246 507Z" />
<glyph unicode="&#x108;" glyph-name="Ccircumflex" horiz-adv-x="473" d="M352 823H362L425 729H412L356 810L271 729H257L352 823ZM394 30Q374 19 338 6T245 -7Q192 -7 154 11T92 60T56 134T44 225Q44 291 56 364T95 503Q134 606 199 653T344 700Q398 700 429
688T481 662L479 650Q458 664 427 676T344 688Q268 688 206 642T106 497Q81 432 69 361T56 226Q56 179 67 139T101 69T159 22T245 5Q299 5 335 17T396 43L394 30Z" />
<glyph unicode="&#x109;" glyph-name="ccircumflex" horiz-adv-x="346" d="M256 693H266L328 585H315L260 680L170 585H156L256 693ZM246 507Q284 507 307 499T345 481L343 470Q326 480 304 488T245 496Q178 496 126 447T51 292Q43 256 39 227T35 171Q35 90 70
47T171 4Q213 4 242 16T289 40L287 27Q271 17 243 5T171 -7Q101 -7 62 38T23 171Q23 225 39 296Q64 404 119 455T246 507Z" />
<glyph unicode="&#x10a;" glyph-name="Cdotaccent" horiz-adv-x="473" d="M394 30Q374 19 338 6T245 -7Q192 -7 154 11T92 60T56 134T44 225Q44 291 56 364T95 503Q134 606 199 653T344 700Q398 700 429 688T481 662L479 650Q458 664 427 676T344 688Q268 688
206 642T106 497Q81 432 69 361T56 226Q56 179 67 139T101 69T159 22T245 5Q299 5 335 17T396 43L394 30ZM345 777H358L352 742H340L345 777Z" />
<glyph unicode="&#x10b;" glyph-name="cdotaccent" horiz-adv-x="346" d="M246 507Q284 507 307 499T345 481L343 470Q326 480 304 488T245 496Q178 496 126 447T51 292Q43 256 39 227T35 171Q35 90 70 47T171 4Q213 4 242 16T289 40L287 27Q271 17 243 5T171
-7Q101 -7 62 38T23 171Q23 225 39 296Q64 404 119 455T246 507ZM252 656H265L259 618H246L252 656Z" />
<glyph unicode="&#x10c;" glyph-name="Ccaron" horiz-adv-x="473" d="M347 729H337L274 822H287L343 741L428 822H442L347 729ZM394 30Q374 19 338 6T245 -7Q192 -7 154 11T92 60T56 134T44 225Q44 291 56 364T95 503Q134 606 199 653T344 700Q398 700 429 688T481
662L479 650Q458 664 427 676T344 688Q268 688 206 642T106 497Q81 432 69 361T56 226Q56 179 67 139T101 69T159 22T245 5Q299 5 335 17T396 43L394 30Z" />
<glyph unicode="&#x10d;" glyph-name="ccaron" horiz-adv-x="346" d="M249 584H239L177 691H190L245 596L334 691H348L249 584ZM246 507Q284 507 307 499T345 481L343 470Q326 480 304 488T245 496Q178 496 126 447T51 292Q43 256 39 227T35 171Q35 90 70 47T171
4Q213 4 242 16T289 40L287 27Q271 17 243 5T171 -7Q101 -7 62 38T23 171Q23 225 39 296Q64 404 119 455T246 507Z" />
<glyph unicode="&#x10e;" glyph-name="Dcaron" horiz-adv-x="512" d="M298 729H288L225 822H238L294 741L379 822H393L298 729ZM25 0L136 693H265Q319 693 362 679T435 636T482 561T499 452Q499 424 496 387T488 319Q477 245 452 186T387 86T291 22T160 0H25ZM161
12Q231 12 285 33T377 94T440 191T476 320Q481 352 484 389T487 452Q487 572 427 626T264 681H146L40 12H161Z" />
<glyph unicode="&#x10f;" glyph-name="dcaron" horiz-adv-x="399" d="M441 610L472 734H485L454 610H441ZM289 0L300 63H299Q289 51 274 39T241 17T200 1T152 -6Q86 -6 53 34T19 151Q19 176 22 204T30 262Q41 319 62 364T111 441T175 490T252 507Q293 507 320
495T364 469L407 734H419L302 0H289ZM152 6Q177 6 200 13T242 30T276 54T302 80L362 457Q345 471 317 483T251 495Q173 495 119 433T42 260Q37 231 35 203T32 151Q32 81 61 44T152 6Z" />
<glyph unicode="&#x110;" glyph-name="Dcroat" horiz-adv-x="512" d="M21 0L77 347H23L25 359H78L132 693H261Q315 693 358 679T431 636T478 561T495 452Q495 425 492 387T484 319Q473 245 448 186T383 86T287 22T156 0H21ZM157 12Q227 12 281 33T373 94T436 191T472
320Q477 352 480 389T483 452Q483 572 423 626T259 681H142L91 359H270L268 347H89L36 12H157Z" />
<glyph unicode="&#x111;" glyph-name="dcroat" horiz-adv-x="399" d="M260 610L262 622H457L455 610H260ZM289 0L300 63H299Q289 51 274 39T241 17T200 1T152 -6Q86 -6 53 34T19 151Q19 176 22 204T30 262Q41 319 62 364T111 441T175 490T252 507Q293 507 320
495T364 469L407 734H419L302 0H289ZM152 6Q177 6 200 13T242 30T276 54T302 80L362 457Q345 471 317 483T251 495Q173 495 119 433T42 260Q37 231 35 203T32 151Q32 81 61 44T152 6Z" />
<glyph unicode="&#x112;" glyph-name="Emacron" horiz-adv-x="421" d="M347 0H25L136 693H452L450 681H146L96 364H336L334 353H94L40 12H349L347 0ZM217 759H386L384 748H215L217 759Z" />
<glyph unicode="&#x113;" glyph-name="emacron" horiz-adv-x="373" d="M42 264Q37 235 36 212T35 169Q35 87 71 46T177 5Q219 5 253 18T307 42L304 30Q286 19 254 6T177 -7Q104 -7 63 37T22 169Q22 192 24 220T32 279Q52 387 104 447T235 507Q295 507 326 469T357
359Q357 344 355 321T348 270L347 264H42ZM234 495Q190 495 158 475T103 424T66 353T44 275H337Q340 298 342 320T345 359Q345 425 317 460T234 495ZM165 636H331L329 625H163L165 636Z" />
<glyph unicode="&#x114;" glyph-name="Ebreve" horiz-adv-x="421" d="M347 0H25L136 693H452L450 681H146L96 364H336L334 353H94L40 12H349L347 0ZM301 729Q259 729 238 751T217 811H229Q228 779 247 760T301 741Q334 741 356 760T388 811H399Q390 773 364 751T301 729Z" />
<glyph unicode="&#x115;" glyph-name="ebreve" horiz-adv-x="373" d="M42 264Q37 235 36 212T35 169Q35 87 71 46T177 5Q219 5 253 18T307 42L304 30Q286 19 254 6T177 -7Q104 -7 63 37T22 169Q22 192 24 220T32 279Q52 387 104 447T235 507Q295 507 326 469T357
359Q357 344 355 321T348 270L347 264H42ZM234 495Q190 495 158 475T103 424T66 353T44 275H337Q340 298 342 320T345 359Q345 425 317 460T234 495ZM497 586Q456 586 434 608T414 670H426Q425 635 443 617T497 598Q531 598 553 617T585 670H596Q587 631 561 609T497
586Z" />
<glyph unicode="&#x116;" glyph-name="Edotaccent" horiz-adv-x="421" d="M300 777H313L307 742H295L300 777ZM347 0H25L136 693H452L450 681H146L96 364H336L334 353H94L40 12H349L347 0Z" />
<glyph unicode="&#x117;" glyph-name="edotaccent" horiz-adv-x="373" d="M42 264Q37 235 36 212T35 169Q35 87 71 46T177 5Q219 5 253 18T307 42L304 30Q286 19 254 6T177 -7Q104 -7 63 37T22 169Q22 192 24 220T32 279Q52 387 104 447T235 507Q295 507 326 469T357
359Q357 344 355 321T348 270L347 264H42ZM234 495Q190 495 158 475T103 424T66 353T44 275H337Q340 298 342 320T345 359Q345 425 317 460T234 495ZM247 656H260L254 618H241L247 656Z" />
<glyph unicode="&#x118;" glyph-name="Eogonek" horiz-adv-x="421" d="M25 0L136 693H452L450 681H146L96 364H336L334 353H94L40 12H349L347 0H303Q285 -13 268 -28T236 -60T212 -96T203 -135Q203 -156 216 -170T257 -184Q267 -184 276 -182T292 -178L290 -189Q285
-191 276 -193T257 -195Q223 -195 207 -179T191 -136Q191 -115 199 -96T222 -59T252 -27T286 0H25Z" />
<glyph unicode="&#x119;" glyph-name="eogonek" horiz-adv-x="373" d="M177 5Q219 5 253 18T307 42L304 30Q292 22 282 18T263 9T242 -2T218 -20Q191 -42 167 -71T142 -135Q142 -156 155 -170T196 -184Q206 -184 215 -182T231 -178L229 -189Q224 -191 215 -193T196
-195Q162 -195 146 -179T130 -136Q130 -115 138 -96T161 -60T192 -28Q208 -13 226 0Q215 -3 202 -5Q189 -7 177 -7Q104 -7 63 37T22 169Q22 192 24 220T32 279Q52 387 104 447T235 507Q295 507 326 469T357 359Q357 344 355 321T348 270L347 264H42Q37 235 36 212T35
169Q35 87 71 46T177 5ZM345 359Q345 425 317 460T234 495Q190 495 158 475T103 424T66 353T44 275H337Q340 298 342 320T345 359Z" />
<glyph unicode="&#x11a;" glyph-name="Ecaron" horiz-adv-x="421" d="M303 729H293L230 822H243L299 741L384 822H398L303 729ZM347 0H25L136 693H452L450 681H146L96 364H336L334 353H94L40 12H349L347 0Z" />
<glyph unicode="&#x11b;" glyph-name="ecaron" horiz-adv-x="373" d="M244 584H234L172 691H185L240 596L329 691H343L244 584ZM42 264Q37 235 36 212T35 169Q35 87 71 46T177 5Q219 5 253 18T307 42L304 30Q286 19 254 6T177 -7Q104 -7 63 37T22 169Q22 192 24
220T32 279Q52 387 104 447T235 507Q295 507 326 469T357 359Q357 344 355 321T348 270L347 264H42ZM234 495Q190 495 158 475T103 424T66 353T44 275H337Q340 298 342 320T345 359Q345 425 317 460T234 495Z" />
<glyph unicode="&#x11c;" glyph-name="Gcircumflex" horiz-adv-x="501" d="M356 823H366L429 729H416L360 810L275 729H261L356 823ZM487 649Q467 663 434 675T348 688Q271 688 210 647T109 513Q96 481 86 444T70 368T60 293T56 229Q56 184 67 144T102 72T164
23T259 5Q304 5 337 12T400 31L443 301H295L297 312H458L412 23Q378 11 342 2T258 -7Q200 -7 159 12T93 63T56 139T44 229Q44 259 47 295T57 369T74 445T98 516Q138 613 203 656T348 700Q405 700 438 687T489 661L487 649Z" />
<glyph unicode="&#x11d;" glyph-name="gcircumflex" horiz-adv-x="395" d="M269 693H279L341 585H328L273 680L183 585H169L269 693ZM-20 -152Q1 -163 33 -173T105 -183Q142 -183 171 -175T222 -149T258 -100T281 -24L297 77H296Q286 65 271 53T237 30T196 13T149
6Q84 6 52 46T19 159Q19 180 22 208T30 265Q40 317 59 361T107 437T172 488T254 507Q295 507 324 500T374 482L293 -26Q278 -119 231 -156T105 -194Q66 -194 33 -184T-22 -163L-20 -152ZM149 18Q174 18 196 25T238 43T273 67T300 94L360 474Q344 482 318 488T253
495Q211 495 177 478T116 429T71 356T42 263Q37 236 35 208T32 159Q32 93 60 56T149 18Z" />
<glyph unicode="&#x11e;" glyph-name="Gbreve" horiz-adv-x="501" d="M350 729Q308 729 287 751T266 811H278Q277 779 296 760T350 741Q383 741 405 760T437 811H448Q439 773 413 751T350 729ZM487 649Q467 663 434 675T348 688Q271 688 210 647T109 513Q96 481
86 444T70 368T60 293T56 229Q56 184 67 144T102 72T164 23T259 5Q304 5 337 12T400 31L443 301H295L297 312H458L412 23Q378 11 342 2T258 -7Q200 -7 159 12T93 63T56 139T44 229Q44 259 47 295T57 369T74 445T98 516Q138 613 203 656T348 700Q405 700 438 687T489
661L487 649Z" />
<glyph unicode="&#x11f;" glyph-name="gbreve" horiz-adv-x="395" d="M-20 -152Q1 -163 33 -173T105 -183Q142 -183 171 -175T222 -149T258 -100T281 -24L297 77H296Q286 65 271 53T237 30T196 13T149 6Q84 6 52 46T19 159Q19 180 22 208T30 265Q40 317 59 361T107
437T172 488T254 507Q295 507 324 500T374 482L293 -26Q278 -119 231 -156T105 -194Q66 -194 33 -184T-22 -163L-20 -152ZM149 18Q174 18 196 25T238 43T273 67T300 94L360 474Q344 482 318 488T253 495Q211 495 177 478T116 429T71 356T42 263Q37 236 35 208T32
159Q32 93 60 56T149 18ZM261 586Q220 586 198 608T178 670H190Q189 635 207 617T261 598Q295 598 317 617T349 670H360Q351 631 325 609T261 586Z" />
<glyph unicode="&#x120;" glyph-name="Gdotaccent" horiz-adv-x="501" d="M350 777H363L357 742H345L350 777ZM487 649Q467 663 434 675T348 688Q271 688 210 647T109 513Q96 481 86 444T70 368T60 293T56 229Q56 184 67 144T102 72T164 23T259 5Q304 5 337 12T400
31L443 301H295L297 312H458L412 23Q378 11 342 2T258 -7Q200 -7 159 12T93 63T56 139T44 229Q44 259 47 295T57 369T74 445T98 516Q138 613 203 656T348 700Q405 700 438 687T489 661L487 649Z" />
<glyph unicode="&#x121;" glyph-name="gdotaccent" horiz-adv-x="395" d="M-20 -152Q1 -163 33 -173T105 -183Q142 -183 171 -175T222 -149T258 -100T281 -24L297 77H296Q286 65 271 53T237 30T196 13T149 6Q84 6 52 46T19 159Q19 180 22 208T30 265Q40 317 59
361T107 437T172 488T254 507Q295 507 324 500T374 482L293 -26Q278 -119 231 -156T105 -194Q66 -194 33 -184T-22 -163L-20 -152ZM149 18Q174 18 196 25T238 43T273 67T300 94L360 474Q344 482 318 488T253 495Q211 495 177 478T116 429T71 356T42 263Q37 236
35 208T32 159Q32 93 60 56T149 18ZM256 656H269L263 618H250L256 656Z" />
<glyph unicode="&#x122;" glyph-name="Gcommaaccent" horiz-adv-x="501" d="M186 -151L217 -42H230L198 -151H186ZM487 649Q467 663 434 675T348 688Q271 688 210 647T109 513Q96 481 86 444T70 368T60 293T56 229Q56 184 67 144T102 72T164 23T259 5Q304 5 337
12T400 31L443 301H295L297 312H458L412 23Q378 11 342 2T258 -7Q200 -7 159 12T93 63T56 139T44 229Q44 259 47 295T57 369T74 445T98 516Q138 613 203 656T348 700Q405 700 438 687T489 661L487 649Z" />
<glyph unicode="&#x123;" glyph-name="gcommaaccent" horiz-adv-x="395" d="M295 693L262 584H249L284 693H295ZM-20 -152Q1 -163 33 -173T105 -183Q142 -183 171 -175T222 -149T258 -100T281 -24L297 77H296Q286 65 271 53T237 30T196 13T149 6Q84 6 52 46T19
159Q19 180 22 208T30 265Q40 317 59 361T107 437T172 488T254 507Q295 507 324 500T374 482L293 -26Q278 -119 231 -156T105 -194Q66 -194 33 -184T-22 -163L-20 -152ZM149 18Q174 18 196 25T238 43T273 67T300 94L360 474Q344 482 318 488T253 495Q211 495 177
478T116 429T71 356T42 263Q37 236 35 208T32 159Q32 93 60 56T149 18Z" />
<glyph unicode="&#x124;" glyph-name="Hcircumflex" horiz-adv-x="519" d="M38 0H25L136 693H148L96 367H459L511 693H523L413 0H400L457 355H95L38 0ZM343 823H353L416 729H403L347 810L262 729H248L343 823Z" />
<glyph unicode="&#x125;" glyph-name="hcircumflex" horiz-adv-x="410" d="M147 734L99 438H100Q137 464 185 485T282 507Q333 507 356 482T379 417Q379 402 376 381L315 0H302L363 382Q365 392 366 400T367 417Q367 451 348 473T281 495Q255 495 231 489T183
472T138 449T97 424L29 0H16L134 734H147ZM290 865H300L363 771H350L294 852L209 771H195L290 865Z" />
<glyph unicode="&#x126;" glyph-name="Hbar" horiz-adv-x="520" d="M54 529H554L552 518H52L54 529ZM39 0H26L137 693H149L97 367H460L512 693H524L414 0H401L458 355H96L39 0Z" />
<glyph unicode="&#x127;" glyph-name="hbar" horiz-adv-x="410" d="M56 610L58 622H261L259 610H56ZM146 734L98 438H99Q136 464 184 485T281 507Q332 507 355 482T378 417Q378 402 375 381L314 0H301L362 382Q364 392 365 400T366 417Q366 451 347 473T280 495Q254
495 230 489T182 472T137 449T96 424L28 0H15L133 734H146Z" />
<glyph unicode="&#x128;" glyph-name="Itilde" horiz-adv-x="149" d="M151 693L40 0H27L139 693H151ZM309 741Q313 767 329 781T365 795Q380 795 392 789T416 774T439 760T464 753Q481 753 492 764T508 795H519Q514 770 499 756T463 742Q448 742 436 748T413 763T390
777T365 784Q330 784 320 741H309Z" />
<glyph unicode="&#x129;" glyph-name="itilde" horiz-adv-x="128" d="M30 607Q34 634 48 648T80 662Q94 662 105 656T127 641T148 626T170 619Q200 619 208 662H220Q215 636 202 622T169 608Q155 608 144 614T123 629T102 643T79 650Q65 650 55 639T42 607H30ZM97
500H110L30 0H17L97 500Z" />
<glyph unicode="&#x12a;" glyph-name="Imacron" horiz-adv-x="149" d="M139 693H151L40 0H27L139 693ZM93 759H217L215 748H91L93 759Z" />
<glyph unicode="&#x12b;" glyph-name="imacron" horiz-adv-x="128" d="M68 636H184L182 625H66L68 636ZM97 500H110L30 0H17L97 500Z" />
<glyph unicode="&#x12c;" glyph-name="Ibreve" horiz-adv-x="149" d="M151 693L40 0H27L139 693H151ZM411 729Q369 729 348 751T327 811H339Q338 779 357 760T411 741Q444 741 466 760T498 811H509Q500 773 474 751T411 729Z" />
<glyph unicode="&#x12d;" glyph-name="ibreve" horiz-adv-x="128" d="M57 670Q56 638 72 618T121 598Q153 598 173 617T201 670H213Q205 632 181 609T121 586Q83 586 64 609T46 670H57ZM97 500H110L30 0H17L97 500Z" />
<glyph unicode="&#x12e;" glyph-name="Iogonek" horiz-adv-x="149" d="M139 693H151L40 -1Q24 -14 8 -29T-22 -61T-43 -96T-51 -135Q-51 -156 -39 -170T-1 -184Q8 -184 16 -182T31 -178L30 -189Q25 -191 16 -193T-1 -195Q-32 -195 -48 -179T-64 -136Q-64 -115
-56 -96T-34 -59T-4 -26T28 3L139 693Z" />
<glyph unicode="&#x12f;" glyph-name="iogonek" horiz-adv-x="128" d="M30 -1Q14 -15 -2 -30T-30 -63T-50 -98T-58 -135Q-58 -156 -46 -170T-7 -184Q2 -184 10 -182T25 -178L23 -189Q18 -191 10 -193T-8 -195Q-39 -195 -55 -179T-71 -136Q-71 -116 -63 -97T-43
-59T-14 -26T18 3L97 500H110L30 -1ZM134 653L129 618H116L122 653H134Z" />
<glyph unicode="&#x130;" glyph-name="Idotaccent" horiz-adv-x="149" d="M151 693L40 0H27L139 693H151ZM408 777H421L415 742H403L408 777Z" />
<glyph unicode="&#x131;" glyph-name="dotlessi" horiz-adv-x="125" d="M97 500H110L30 0H17L97 500Z" />
<glyph unicode="&#x132;" glyph-name="IJ" horiz-adv-x="422" d="M151 693L40 0H27L139 693H151ZM125 24Q137 18 157 13T204 7Q259 7 290 38T332 137L421 693H433L345 137Q334 65 300 30T204 -5Q176 -5 155 1T123 13L125 24Z" />
<glyph unicode="&#x133;" glyph-name="ij" horiz-adv-x="258" d="M110 500L30 0H17L97 500H110ZM135 656L129 618H116L122 656H135ZM265 656L259 618H246L253 656H265ZM240 500L145 -90Q137 -145 113 -169T47 -194Q30 -194 19 -191T0 -186L3 -174Q11 -177 21 -179T47
-182Q81 -182 102 -160T132 -89L227 500H240Z" />
<glyph unicode="&#x134;" glyph-name="Jcircumflex" horiz-adv-x="281" d="M301 823H311L374 729H361L305 810L220 729H206L301 823ZM-16 24Q-4 18 16 13T63 7Q118 7 149 38T191 137L280 693H292L204 137Q193 65 159 30T63 -5Q35 -5 14 1T-18 13L-16 24Z" />
<glyph unicode="&#x135;" glyph-name="jcircumflex" horiz-adv-x="130" d="M175 585L135 680L62 585H49L131 693H141L188 585H175ZM-124 -170Q-116 -173 -106 -176T-80 -179Q-44 -179 -23 -157T6 -85L100 500H112L18 -86Q10 -141 -14 -165T-80 -190Q-97 -190 -108
-187T-126 -181L-124 -170Z" />
<glyph unicode="&#x136;" glyph-name="Kcommaaccent" horiz-adv-x="430" d="M150 -151L181 -42H194L162 -151H150ZM467 693L154 354L373 0H359L140 354L452 693H467ZM149 693L38 0H25L136 693H149Z" />
<glyph unicode="&#x137;" glyph-name="kcommaaccent" horiz-adv-x="336" d="M356 -151L387 -42H400L368 -151H356ZM147 734L29 0H16L134 734H147ZM354 500L122 268L282 0H268L107 269L337 500H354Z" />
<glyph unicode="&#x139;" glyph-name="Lacute" horiz-adv-x="393" d="M213 836H226L156 732H143L213 836ZM149 693L40 12H335L333 0H25L136 693H149Z" />
<glyph unicode="&#x13a;" glyph-name="lacute" horiz-adv-x="128" d="M213 878H226L156 774H143L213 878ZM147 734L30 0H17L135 734H147Z" />
<glyph unicode="&#x13b;" glyph-name="Lcommaaccent" horiz-adv-x="393" d="M134 -151L165 -42H178L146 -151H134ZM149 693L40 12H335L333 0H25L136 693H149Z" />
<glyph unicode="&#x13c;" glyph-name="lcommaaccent" horiz-adv-x="128" d="M-17 -151L14 -42H27L-5 -151H-17ZM147 734L30 0H17L135 734H147Z" />
<glyph unicode="&#x13d;" glyph-name="Lcaron" horiz-adv-x="393" d="M469 826L500 950H513L482 826H469ZM149 693L40 12H335L333 0H25L136 693H149Z" />
<glyph unicode="&#x13e;" glyph-name="lcaron" horiz-adv-x="128" d="M426 610L457 734H470L439 610H426ZM147 734L30 0H17L135 734H147Z" />
<glyph unicode="&#x13f;" glyph-name="Ldot" horiz-adv-x="393" d="M322 361L315 318H302L309 361H322ZM149 693L40 12H335L333 0H25L136 693H149Z" />
<glyph unicode="&#x140;" glyph-name="ldot" horiz-adv-x="134" d="M147 734L30 0H17L135 734H147ZM144 384H157L150 340H137L144 384Z" />
<glyph unicode="&#x141;" glyph-name="Lslash" horiz-adv-x="394" d="M7 252L71 285L137 693H150L86 292L309 407L307 394L84 280L41 12H336L334 0H26L69 272L4 239L7 252Z" />
<glyph unicode="&#x142;" glyph-name="lslash" horiz-adv-x="137" d="M150 734L105 452L177 499L175 485L103 438L33 0H20L89 429L23 387L26 401L91 443L138 734H150Z" />
<glyph unicode="&#x143;" glyph-name="Nacute" horiz-adv-x="522" d="M403 836H416L346 732H333L403 836ZM526 693L415 0H401L146 672H145L38 0H25L136 693H152L405 23H406L513 693H526Z" />
<glyph unicode="&#x144;" glyph-name="nacute" horiz-adv-x="410" d="M325 712H339L251 585H238L325 712ZM109 500L98 438H99Q137 464 185 485T282 507Q333 507 356 483T379 416Q379 400 376 384L315 0H302L364 385Q365 393 366 400T367 416Q367 451 348 473T281
495Q255 495 231 489T183 472T137 450T96 424L29 0H16L96 500H109Z" />
<glyph unicode="&#x145;" glyph-name="Ncommaaccent" horiz-adv-x="522" d="M180 -151L211 -42H224L192 -151H180ZM526 693L415 0H401L146 672H145L38 0H25L136 693H152L405 23H406L513 693H526Z" />
<glyph unicode="&#x146;" glyph-name="ncommaaccent" horiz-adv-x="410" d="M381 -151L412 -42H425L393 -151H381ZM109 500L98 438H99Q137 464 185 485T282 507Q333 507 356 483T379 416Q379 400 376 384L315 0H302L364 385Q365 393 366 400T367 416Q367 451 348
473T281 495Q255 495 231 489T183 472T137 450T96 424L29 0H16L96 500H109Z" />
<glyph unicode="&#x147;" glyph-name="Ncaron" horiz-adv-x="522" d="M349 729H339L276 822H289L345 741L430 822H444L349 729ZM526 693L415 0H401L146 672H145L38 0H25L136 693H152L405 23H406L513 693H526Z" />
<glyph unicode="&#x148;" glyph-name="ncaron" horiz-adv-x="410" d="M263 584H253L191 691H204L259 596L348 691H362L263 584ZM109 500L98 438H99Q137 464 185 485T282 507Q333 507 356 483T379 416Q379 400 376 384L315 0H302L364 385Q365 393 366 400T367 416Q367
451 348 473T281 495Q255 495 231 489T183 472T137 450T96 424L29 0H16L96 500H109Z" />
<glyph unicode="&#x149;" glyph-name="napostrophe" horiz-adv-x="410" d="M357 693H370L321 561H309L357 693ZM109 500L98 438H99Q137 464 185 485T282 507Q333 507 356 483T379 416Q379 400 376 384L315 0H302L364 385Q365 393 366 400T367 416Q367 451 348
473T281 495Q255 495 231 489T183 472T137 450T96 424L29 0H16L96 500H109Z" />
<glyph unicode="&#x14a;" glyph-name="Eng" horiz-adv-x="525" d="M145 672H144L37 0H24L135 693H151L405 28H406L512 693H525L409 -32Q397 -106 367 -139T273 -172Q251 -172 234 -168T206 -159L208 -147Q219 -152 236 -156T273 -160Q330 -160 358 -130T396 -31L402
1L145 672Z" />
<glyph unicode="&#x14b;" glyph-name="eng" horiz-adv-x="417" d="M373 385Q374 393 375 400T376 415Q376 451 357 473T290 495Q264 495 240 489T192 472T146 450T105 424L38 0H25L106 500H118L107 438H108Q146 464 194 485T291 507Q342 507 365 483T388 416Q388
400 385 384L310 -85Q302 -140 278 -165T209 -190Q192 -190 181 -187T161 -180L163 -168Q171 -173 182 -176T210 -179Q248 -179 269 -156T298 -85L373 385Z" />
<glyph unicode="&#x14c;" glyph-name="Omacron" horiz-adv-x="553" d="M272 759H441L439 748H270L272 759ZM239 -7Q189 -7 152 11T91 62T55 137T43 230Q43 259 46 294T55 365Q70 447 98 510T163 615T247 678T343 700Q393 700 430 682T491 632T527 557T539 465Q539
436 536 399T527 327Q512 244 484 182T418 77T334 14T239 -7ZM239 5Q285 5 328 25T408 85T471 185T514 328Q521 364 524 399T527 465Q527 511 516 551T483 622T426 670T343 688Q296 688 253 668T173 608T110 506T68 363Q61 328 59 294T56 230Q56 183 66 143T99
71T156 23T239 5Z" />
<glyph unicode="&#x14d;" glyph-name="omacron" horiz-adv-x="407" d="M182 636H348L346 625H180L182 636ZM362 230Q368 262 370 288T373 336Q373 414 339 454T239 495Q168 495 116 437T44 271Q39 245 36 219T33 169Q33 88 66 47T165 5Q237 5 290 63T362 230ZM375
228Q354 113 297 53T165 -7Q94 -7 58 38T21 169Q21 193 23 220T31 273Q41 329 61 372T108 446T168 491T239 507Q310 507 348 463T386 336Q386 315 384 288T375 228Z" />
<glyph unicode="&#x14e;" glyph-name="Obreve" horiz-adv-x="553" d="M357 729Q315 729 294 751T273 811H285Q284 779 303 760T357 741Q390 741 412 760T444 811H455Q446 773 420 751T357 729ZM239 -7Q189 -7 152 11T91 62T55 137T43 230Q43 259 46 294T55 365Q70
447 98 510T163 615T247 678T343 700Q393 700 430 682T491 632T527 557T539 465Q539 436 536 399T527 327Q512 244 484 182T418 77T334 14T239 -7ZM239 5Q285 5 328 25T408 85T471 185T514 328Q521 364 524 399T527 465Q527 511 516 551T483 622T426 670T343 688Q296
688 253 668T173 608T110 506T68 363Q61 328 59 294T56 230Q56 183 66 143T99 71T156 23T239 5Z" />
<glyph unicode="&#x14f;" glyph-name="obreve" horiz-adv-x="407" d="M362 230Q368 262 370 288T373 336Q373 414 339 454T239 495Q168 495 116 437T44 271Q39 245 36 219T33 169Q33 88 66 47T165 5Q237 5 290 63T362 230ZM375 228Q354 113 297 53T165 -7Q94 -7
58 38T21 169Q21 193 23 220T31 273Q41 329 61 372T108 446T168 491T239 507Q310 507 348 463T386 336Q386 315 384 288T375 228ZM260 586Q219 586 197 608T177 670H189Q188 635 206 617T260 598Q294 598 316 617T348 670H359Q350 631 324 609T260 586Z" />
<glyph unicode="&#x150;" glyph-name="Ohungarumlaut" horiz-adv-x="553" d="M435 836H449L394 732H380L435 836ZM347 836H360L305 732H292L347 836ZM239 -7Q189 -7 152 11T91 62T55 137T43 230Q43 259 46 294T55 365Q70 447 98 510T163 615T247 678T343 700Q393
700 430 682T491 632T527 557T539 465Q539 436 536 399T527 327Q512 244 484 182T418 77T334 14T239 -7ZM239 5Q285 5 328 25T408 85T471 185T514 328Q521 364 524 399T527 465Q527 511 516 551T483 622T426 670T343 688Q296 688 253 668T173 608T110 506T68 363Q61
328 59 294T56 230Q56 183 66 143T99 71T156 23T239 5Z" />
<glyph unicode="&#x151;" glyph-name="ohungarumlaut" horiz-adv-x="407" d="M354 712H368L300 585H287L354 712ZM265 712H279L212 585H199L265 712ZM362 230Q368 262 370 288T373 336Q373 414 339 454T239 495Q168 495 116 437T44 271Q39 245 36 219T33 169Q33
88 66 47T165 5Q237 5 290 63T362 230ZM375 228Q354 113 297 53T165 -7Q94 -7 58 38T21 169Q21 193 23 220T31 273Q41 329 61 372T108 446T168 491T239 507Q310 507 348 463T386 336Q386 315 384 288T375 228Z" />
<glyph unicode="&#x152;" glyph-name="OE" horiz-adv-x="775" d="M377 681Q305 681 252 658T162 592T101 490T66 357Q61 322 59 290T56 232Q56 119 113 66T276 12H391L498 681H377ZM274 0Q165 0 105 56T44 232Q44 259 46 290T54 357Q66 435 90 497T155 602T250
669T380 693H806L804 681H511L460 364H691L689 353H458L404 12H703L701 0H274Z" />
<glyph unicode="&#x153;" glyph-name="oe" horiz-adv-x="726" d="M165 5Q237 5 290 63T362 230Q368 262 370 288T373 336Q373 414 339 454T239 495Q169 495 116 437T44 271Q39 245 36 219T33 169Q33 88 66 47T165 5ZM573 495Q529 495 497 476T442 425T405 354T383
275H675Q679 298 681 320T683 359Q683 425 656 460T573 495ZM385 339Q410 419 457 463T574 507Q633 507 664 469T696 359Q696 344 694 322T688 273L686 264H381Q376 235 375 212T373 169Q373 87 410 46T516 5Q558 5 591 18T645 42L643 30Q624 19 592 6T515 -7Q443
-7 403 37T361 167V168Q334 83 283 38T165 -7Q94 -7 58 38T21 169Q21 193 23 220T31 273Q41 329 61 372T108 446T168 491T240 507Q310 507 347 464T385 339Z" />
<glyph unicode="&#x154;" glyph-name="Racute" horiz-adv-x="444" d="M597 836H610L540 732H527L597 836ZM38 0H25L137 693H272Q351 693 392 652T433 537Q433 513 429 488T415 439Q396 392 357 364T260 329V328L387 0H374L247 327H90L38 0ZM92 339H230Q296 339
340 366T404 445Q412 467 416 491T421 537Q421 604 384 642T272 681H147L92 339Z" />
<glyph unicode="&#x155;" glyph-name="racute" horiz-adv-x="239" d="M515 712H529L441 585H428L515 712ZM96 500H109L97 430H98Q111 443 127 456T161 480T199 497T241 504Q249 504 256 504T267 501L265 490Q255 492 241 492Q219 492 199 485T161 467T127 442T95
414L29 0H16L96 500Z" />
<glyph unicode="&#x156;" glyph-name="Rcommaaccent" horiz-adv-x="444" d="M154 -151L185 -42H198L166 -151H154ZM38 0H25L137 693H272Q351 693 392 652T433 537Q433 513 429 488T415 439Q396 392 357 364T260 329V328L387 0H374L247 327H90L38 0ZM92 339H230Q296
339 340 366T404 445Q412 467 416 491T421 537Q421 604 384 642T272 681H147L92 339Z" />
<glyph unicode="&#x157;" glyph-name="rcommaaccent" horiz-adv-x="239" d="M-20 -151L11 -42H24L-8 -151H-20ZM96 500H109L97 430H98Q111 443 127 456T161 480T199 497T241 504Q249 504 256 504T267 501L265 490Q255 492 241 492Q219 492 199 485T161 467T127
442T95 414L29 0H16L96 500Z" />
<glyph unicode="&#x158;" glyph-name="Rcaron" horiz-adv-x="444" d="M276 729H266L203 822H216L272 741L357 822H371L276 729ZM38 0H25L137 693H272Q351 693 392 652T433 537Q433 513 429 488T415 439Q396 392 357 364T260 329V328L387 0H374L247 327H90L38 0ZM92
339H230Q296 339 340 366T404 445Q412 467 416 491T421 537Q421 604 384 642T272 681H147L92 339Z" />
<glyph unicode="&#x159;" glyph-name="rcaron" horiz-adv-x="239" d="M446 584H436L374 691H387L442 596L531 691H545L446 584ZM96 500H109L97 430H98Q111 443 127 456T161 480T199 497T241 504Q249 504 256 504T267 501L265 490Q255 492 241 492Q219 492 199
485T161 467T127 442T95 414L29 0H16L96 500Z" />
<glyph unicode="&#x15a;" glyph-name="Sacute" horiz-adv-x="409" d="M1 60Q13 51 28 42T62 26T106 13T162 8Q234 8 275 43T330 132Q334 147 336 164T338 194Q338 223 330 245T308 286T274 319T233 348L200 370Q141 404 115 439T89 528Q89 545 92 564T102 602Q120
648 161 674T264 700Q291 700 311 696T347 686T374 673T395 660L393 648Q376 661 346 674T263 688Q148 688 113 597Q101 562 101 528Q101 503 107 483T125 446T157 413T205 380L238 358Q262 343 282 328T318 293T341 249T350 194Q350 181 348 163T342 128Q327 71
284 34T162 -4Q97 -4 59 14T-1 48L1 60ZM578 836H591L521 732H508L578 836Z" />
<glyph unicode="&#x15b;" glyph-name="sacute" horiz-adv-x="311" d="M518 712H532L444 585H431L518 712ZM110 -7Q62 -7 33 6T-12 31L-10 43Q10 30 37 18T110 5Q173 5 204 34T242 106Q244 113 244 121T245 136Q245 175 228 199T171 246L128 270Q90 292 71 318T51
380Q51 402 57 422Q68 460 100 483T189 507Q227 507 251 498T291 477L288 466Q271 477 248 486T189 495Q138 495 109 475T69 420Q64 400 64 380Q64 348 80 325T133 281L176 257Q217 234 237 207T258 136Q258 118 255 105Q247 59 212 26T110 -7Z" />
<glyph unicode="&#x15c;" glyph-name="Scircumflex" horiz-adv-x="409" d="M275 823H285L348 729H335L279 810L194 729H180L275 823ZM1 60Q13 51 28 42T62 26T106 13T162 8Q234 8 275 43T330 132Q334 147 336 164T338 194Q338 223 330 245T308 286T274 319T233
348L200 370Q141 404 115 439T89 528Q89 545 92 564T102 602Q120 648 161 674T264 700Q291 700 311 696T347 686T374 673T395 660L393 648Q376 661 346 674T263 688Q148 688 113 597Q101 562 101 528Q101 503 107 483T125 446T157 413T205 380L238 358Q262 343
282 328T318 293T341 249T350 194Q350 181 348 163T342 128Q327 71 284 34T162 -4Q97 -4 59 14T-1 48L1 60Z" />
<glyph unicode="&#x15d;" glyph-name="scircumflex" horiz-adv-x="311" d="M462 693H472L534 585H521L466 680L376 585H362L462 693ZM110 -7Q62 -7 33 6T-12 31L-10 43Q10 30 37 18T110 5Q173 5 204 34T242 106Q244 113 244 121T245 136Q245 175 228 199T171 246L128
270Q90 292 71 318T51 380Q51 402 57 422Q68 460 100 483T189 507Q227 507 251 498T291 477L288 466Q271 477 248 486T189 495Q138 495 109 475T69 420Q64 400 64 380Q64 348 80 325T133 281L176 257Q217 234 237 207T258 136Q258 118 255 105Q247 59 212 26T110
-7Z" />
<glyph unicode="&#x15e;" glyph-name="Scedilla" horiz-adv-x="409" d="M198 -120Q198 -158 165 -178T64 -201L65 -190Q127 -188 156 -171T185 -121Q185 -97 166 -83T108 -69L121 -1Q75 4 46 19T-1 48L1 60Q13 51 28 42T62 26T106 13T162 8Q234 8 275 43T330 132Q334
147 336 163T338 194Q338 223 330 245T308 286T274 319T233 348L200 370Q141 404 115 439T89 528Q89 545 92 564T102 602Q120 648 161 674T264 700Q291 700 311 696T347 686T374 673T395 660L393 648Q376 661 346 674T263 688Q148 688 113 597Q101 562 101 528Q101
503 107 483T125 446T157 413T205 380L238 358Q262 343 282 328T318 293T341 249T350 194Q350 181 349 163T342 128Q327 71 284 34T162 -4H148Q143 -4 133 -3L122 -58Q154 -60 176 -75T198 -120Z" />
<glyph unicode="&#x15f;" glyph-name="scedilla" horiz-adv-x="311" d="M155 -120Q155 -158 122 -178T20 -201L22 -190Q84 -188 113 -171T142 -121Q142 -97 123 -83T65 -69L76 -4Q43 1 22 12T-12 31L-10 43Q10 30 37 18T110 5Q173 5 203 34T242 106Q245 121 245
136Q245 175 228 199T171 246L128 270Q90 292 71 318T51 380Q51 399 57 422Q68 460 100 483T189 507Q227 507 251 498T291 477L288 466Q271 477 248 486T189 495Q138 495 109 476T69 419Q64 402 64 380Q64 348 80 325T133 281L176 257Q217 234 237 207T258 136Q258
120 255 105Q247 59 212 26T110 -7H101Q97 -7 88 -6L79 -58Q111 -60 133 -75T155 -120Z" />
<glyph unicode="&#x160;" glyph-name="Scaron" horiz-adv-x="409" d="M270 729H260L197 822H210L266 741L351 822H365L270 729ZM1 60Q13 51 28 42T62 26T106 13T162 8Q234 8 275 43T330 132Q334 147 336 164T338 194Q338 223 330 245T308 286T274 319T233 348L200
370Q141 404 115 439T89 528Q89 545 92 564T102 602Q120 648 161 674T264 700Q291 700 311 696T347 686T374 673T395 660L393 648Q376 661 346 674T263 688Q148 688 113 597Q101 562 101 528Q101 503 107 483T125 446T157 413T205 380L238 358Q262 343 282 328T318
293T341 249T350 194Q350 181 348 163T342 128Q327 71 284 34T162 -4Q97 -4 59 14T-1 48L1 60Z" />
<glyph unicode="&#x161;" glyph-name="scaron" horiz-adv-x="311" d="M455 584H445L383 691H396L451 596L540 691H554L455 584ZM110 -7Q62 -7 33 6T-12 31L-10 43Q10 30 37 18T110 5Q173 5 204 34T242 106Q244 113 244 121T245 136Q245 175 228 199T171 246L128
270Q90 292 71 318T51 380Q51 402 57 422Q68 460 100 483T189 507Q227 507 251 498T291 477L288 466Q271 477 248 486T189 495Q138 495 109 475T69 420Q64 400 64 380Q64 348 80 325T133 281L176 257Q217 234 237 207T258 136Q258 118 255 105Q247 59 212 26T110
-7Z" />
<glyph unicode="&#x162;" glyph-name="Tcommaaccent" horiz-adv-x="426" d="M386 -151L417 -42H430L398 -151H386ZM176 0H163L272 681H82L84 693H478L476 681H285L176 0Z" />
<glyph unicode="&#x163;" glyph-name="tcommaaccent" horiz-adv-x="255" d="M329 -151L360 -42H373L341 -151H329ZM136 -4Q96 -4 77 17T58 76Q58 91 61 109L121 488H53L55 500H124L143 620H156L136 500H264L262 488H134L73 109Q72 100 71 92T70 76Q70 44 86 26T137
8Q153 8 169 12T198 21L196 10Q187 6 170 1T136 -4Z" />
<glyph unicode="&#x164;" glyph-name="Tcaron" horiz-adv-x="426" d="M292 729H282L219 822H232L288 741L373 822H387L292 729ZM176 0H163L272 681H82L84 693H478L476 681H285L176 0Z" />
<glyph unicode="&#x165;" glyph-name="tcaron" horiz-adv-x="255" d="M233 613L264 737H277L246 613H233ZM136 -4Q96 -4 77 17T58 76Q58 91 61 109L121 488H53L55 500H124L143 620H156L136 500H264L262 488H134L73 109Q72 100 71 92T70 76Q70 44 86 26T137 8Q153
8 169 12T198 21L196 10Q187 6 170 1T136 -4Z" />
<glyph unicode="&#x166;" glyph-name="Tbar" horiz-adv-x="426" d="M373 410H99L101 421H375L373 410ZM176 0H163L272 681H82L84 693H478L476 681H285L176 0Z" />
<glyph unicode="&#x167;" glyph-name="tbar" horiz-adv-x="255" d="M33 351H242L240 339H31L33 351ZM138 -4Q98 -4 79 17T60 76Q60 91 63 109L123 488H55L57 500H126L145 620H158L138 500H266L264 488H136L75 109Q74 100 73 92T72 76Q72 44 88 26T139 8Q155 8
171 12T200 21L198 10Q189 6 172 1T138 -4Z" />
<glyph unicode="&#x168;" glyph-name="Utilde" horiz-adv-x="515" d="M523 693L447 215Q411 -7 228 -7Q140 -7 96 36T51 157Q51 170 52 184T56 215L132 693H144L68 215Q66 199 65 184T63 157Q63 83 105 44T229 5Q401 5 434 215L511 693H523ZM232 741Q236 767 252
781T288 795Q303 795 315 789T339 774T362 760T387 753Q404 753 415 764T431 795H442Q437 770 422 756T386 742Q371 742 359 748T336 763T313 777T288 784Q253 784 243 741H232Z" />
<glyph unicode="&#x169;" glyph-name="utilde" horiz-adv-x="406" d="M129 -7Q78 -7 55 18T31 86Q31 94 32 103T34 119L95 500H107L47 119Q45 111 44 102T43 85Q43 49 64 27T130 5Q179 5 225 27T310 75L377 500H390L310 0H297L308 62H307Q269 36 223 15T129 -7ZM154
607Q159 633 174 647T210 662Q226 662 238 656T261 641T284 626T309 619Q326 619 337 630T353 662H365Q360 636 345 622T309 608Q294 608 282 614T258 629T235 643T210 650Q194 650 183 639T166 607H154Z" />
<glyph unicode="&#x16a;" glyph-name="Umacron" horiz-adv-x="515" d="M523 693L447 215Q411 -7 228 -7Q140 -7 96 36T51 157Q51 170 52 184T56 215L132 693H144L68 215Q66 199 65 184T63 157Q63 83 105 44T229 5Q401 5 434 215L511 693H523ZM255 759H424L422
748H253L255 759Z" />
<glyph unicode="&#x16b;" glyph-name="umacron" horiz-adv-x="406" d="M129 -7Q78 -7 55 18T31 86Q31 94 32 103T34 119L95 500H107L47 119Q45 111 44 102T43 85Q43 49 64 27T130 5Q179 5 225 27T310 75L377 500H390L310 0H297L308 62H307Q269 36 223 15T129 -7ZM177
636H343L341 625H175L177 636Z" />
<glyph unicode="&#x16c;" glyph-name="Ubreve" horiz-adv-x="515" d="M523 693L447 215Q411 -7 228 -7Q140 -7 96 36T51 157Q51 170 52 184T56 215L132 693H144L68 215Q66 199 65 184T63 157Q63 83 105 44T229 5Q401 5 434 215L511 693H523ZM336 729Q294 729 273
751T252 811H264Q263 779 282 760T336 741Q369 741 391 760T423 811H434Q425 773 399 751T336 729Z" />
<glyph unicode="&#x16d;" glyph-name="ubreve" horiz-adv-x="406" d="M129 -7Q78 -7 55 18T31 86Q31 94 32 103T34 119L95 500H107L47 119Q45 111 44 102T43 85Q43 49 64 27T130 5Q179 5 225 27T310 75L377 500H390L310 0H297L308 62H307Q269 36 223 15T129 -7ZM256
586Q215 586 193 608T173 670H185Q184 635 202 617T256 598Q290 598 312 617T344 670H355Q346 631 320 609T256 586Z" />
<glyph unicode="&#x16e;" glyph-name="Uring" horiz-adv-x="515" d="M523 693L447 215Q411 -7 228 -7Q140 -7 96 36T51 157Q51 170 52 184T56 215L132 693H144L68 215Q66 199 65 184T63 157Q63 83 105 44T229 5Q401 5 434 215L511 693H523ZM331 961Q302 961 285
979T267 1026Q267 1056 286 1077T337 1098Q367 1098 384 1080T402 1035Q402 1003 382 982T331 961ZM331 972Q357 972 373 989T389 1035Q389 1056 376 1071T337 1087Q311 1087 296 1070T280 1026Q280 1003 293 988T331 972Z" />
<glyph unicode="&#x16f;" glyph-name="uring" horiz-adv-x="406" d="M261 579Q231 579 214 597T196 645Q196 675 215 696T267 718Q297 718 314 699T332 654Q332 622 312 601T261 579ZM261 590Q287 590 303 608T319 654Q319 676 306 691T267 706Q241 706 225 689T209
645Q209 622 222 606T261 590ZM129 -7Q78 -7 55 18T31 86Q31 94 32 103T34 119L95 500H107L47 119Q45 111 44 102T43 85Q43 49 64 27T130 5Q179 5 225 27T310 75L377 500H390L310 0H297L308 62H307Q269 36 223 15T129 -7Z" />
<glyph unicode="&#x170;" glyph-name="Uhungarumlaut" horiz-adv-x="515" d="M415 836H429L374 732H360L415 836ZM327 836H340L285 732H272L327 836ZM523 693L447 215Q411 -7 228 -7Q140 -7 96 36T51 157Q51 170 52 184T56 215L132 693H144L68 215Q66 199 65 184T63
157Q63 83 105 44T229 5Q401 5 434 215L511 693H523Z" />
<glyph unicode="&#x171;" glyph-name="uhungarumlaut" horiz-adv-x="406" d="M129 -7Q78 -7 55 18T31 86Q31 94 32 103T34 119L95 500H107L47 119Q45 111 44 102T43 85Q43 49 64 27T130 5Q179 5 225 27T310 75L377 500H390L310 0H297L308 62H307Q269 36 223 15T129
-7ZM351 712H365L297 585H284L351 712ZM262 712H276L209 585H196L262 712Z" />
<glyph unicode="&#x172;" glyph-name="Uogonek" horiz-adv-x="515" d="M165 -136Q165 -96 192 -64T252 -5Q246 -6 240 -6T228 -7Q140 -7 96 36T51 157Q51 170 52 184T56 215L132 693H144L68 215Q66 199 65 184T63 157Q63 83 105 44T229 5Q401 5 434 215L511 693H523L447
215Q416 24 274 -1Q256 -14 239 -29T208 -61T186 -96T177 -135Q177 -156 190 -170T231 -184Q241 -184 250 -182T266 -178L264 -189Q259 -191 250 -193T231 -195Q197 -195 181 -179T165 -136Z" />
<glyph unicode="&#x173;" glyph-name="uogonek" horiz-adv-x="406" d="M129 -7Q78 -7 55 18T31 86Q31 94 32 103T34 119L95 500H107L47 119Q45 111 44 102T43 85Q43 49 64 27T130 5Q179 5 225 27T310 75L377 500H390L310 0Q294 -12 277 -27T245 -59T222 -95T212
-135Q212 -156 225 -170T266 -184Q276 -184 285 -182T301 -178L299 -189Q294 -191 285 -193T266 -195Q233 -195 217 -179T200 -136Q200 -114 209 -94T233 -56T264 -23T298 3L308 62H307Q269 36 223 15T129 -7Z" />
<glyph unicode="&#x174;" glyph-name="Wcircumflex" horiz-adv-x="694" d="M430 823H440L503 729H490L434 810L349 729H335L430 823ZM102 693L140 21H141L411 693H427L480 20H481L735 693H748L486 0H470L416 672H415L146 0H129L90 693H102Z" />
<glyph unicode="&#x175;" glyph-name="wcircumflex" horiz-adv-x="571" d="M349 693H359L421 585H408L353 680L263 585H249L349 693ZM61 500H73L114 22H115L320 500H335L376 22H377L580 500H593L381 0H365L325 478H324L119 0H103L61 500Z" />
<glyph unicode="&#x176;" glyph-name="Ycircumflex" horiz-adv-x="411" d="M95 693L216 316H217L458 693H472L220 301L172 0H159L208 302L83 693H95ZM291 823H301L364 729H351L295 810L210 729H196L291 823Z" />
<glyph unicode="&#x177;" glyph-name="ycircumflex" horiz-adv-x="367" d="M-12 -195Q-24 -195 -35 -192T-53 -184L-52 -174Q-44 -178 -34 -180T-12 -183Q26 -183 48 -160T92 -90L140 7L53 500H65L149 27H150L377 500H390L104 -94Q81 -143 56 -169T-12 -195ZM244
693H254L316 585H303L248 680L158 585H144L244 693Z" />
<glyph unicode="&#x178;" glyph-name="Ydieresis" horiz-adv-x="411" d="M95 693L216 316H217L458 693H472L220 301L172 0H159L208 302L83 693H95ZM228 775H241L235 739H222L228 775ZM338 775H350L344 739H332L338 775Z" />
<glyph unicode="&#x179;" glyph-name="Zacute" horiz-adv-x="435" d="M605 836H618L548 732H535L605 836ZM122 693H465L464 682L9 13V12H361L359 0H-9L-7 11L449 680V681H120L122 693Z" />
<glyph unicode="&#x17a;" glyph-name="zacute" horiz-adv-x="346" d="M559 712H573L485 585H472L559 712ZM-15 12L345 487V488H70L72 500H364L361 488L0 13V12H281L279 0H-18L-15 12Z" />
<glyph unicode="&#x17b;" glyph-name="Zdotaccent" horiz-adv-x="435" d="M122 693H465L464 682L9 13V12H361L359 0H-9L-7 11L449 680V681H120L122 693ZM295 777H308L302 742H290L295 777Z" />
<glyph unicode="&#x17c;" glyph-name="zdotaccent" horiz-adv-x="346" d="M-15 12L345 487V488H70L72 500H364L361 488L0 13V12H281L279 0H-18L-15 12ZM485 656H498L492 618H479L485 656Z" />
<glyph unicode="&#x17d;" glyph-name="Zcaron" horiz-adv-x="435" d="M298 729H288L225 822H238L294 741L379 822H393L298 729ZM122 693H465L464 682L9 13V12H361L359 0H-9L-7 11L449 680V681H120L122 693Z" />
<glyph unicode="&#x17e;" glyph-name="zcaron" horiz-adv-x="346" d="M489 584H479L417 691H430L485 596L574 691H588L489 584ZM-15 12L345 487V488H70L72 500H364L361 488L0 13V12H281L279 0H-18L-15 12Z" />
<glyph unicode="&#x192;" glyph-name="florin" horiz-adv-x="276" d="M77 -48Q65 -123 38 -152T-33 -181Q-50 -181 -63 -177T-83 -169L-81 -158Q-72 -163 -60 -166T-33 -170Q6 -170 29 -143T64 -47L141 433H61L63 445H143L168 598Q180 673 209 707T295 742Q315
742 330 738T350 731L348 720Q340 723 327 727T295 731Q244 731 218 698T180 597L155 445H265L263 433H153L77 -48Z" />
<glyph unicode="&#x1fa;" glyph-name="Aringacute" horiz-adv-x="471" d="M-14 0H-27L311 693H326L417 0H404L371 247H106L-14 0ZM315 673L112 259H370L316 673H315ZM394 980H407L337 876H324L394 980ZM323 718Q294 718 277 736T259 783Q259 813 278 834T329 855Q359
855 376 837T394 792Q394 760 374 739T323 718ZM323 729Q349 729 365 746T381 792Q381 813 368 828T329 844Q303 844 288 827T272 783Q272 760 285 745T323 729Z" />
<glyph unicode="&#x1fb;" glyph-name="aringacute" horiz-adv-x="391" d="M282 0L293 65H292Q283 56 269 44T234 21T190 1T138 -7Q78 -7 48 33T18 143Q18 180 24 222T42 303Q57 352 81 390T134 454T196 493T265 507Q307 507 329 501T373 486L295 0H282ZM138 5Q164
5 188 13T232 33T269 58T296 83L358 478Q344 485 325 490T265 495Q197 495 140 444T53 298Q42 260 36 220T30 143Q30 80 57 43T138 5ZM269 579Q239 579 222 597T204 645Q204 675 223 696T275 718Q305 718 322 699T340 654Q340 622 320 601T269 579ZM269 590Q295
590 311 608T327 654Q327 676 314 691T275 706Q249 706 233 689T217 645Q217 622 230 606T269 590ZM599 855H612L542 751H529L599 855Z" />
<glyph unicode="&#x1fc;" glyph-name="AEacute" horiz-adv-x="727" d="M648 836H661L591 732H578L648 836ZM653 0H340L376 222H132L-20 0H-35L445 693H757L755 681H462L412 364H642L640 353H410L355 12H655L653 0ZM141 233H378L449 675H448L141 233Z" />
<glyph unicode="&#x1fd;" glyph-name="aeacute" horiz-adv-x="633" d="M442 712H456L368 585H355L442 712ZM133 -7Q75 -7 44 26T12 114Q12 183 50 219T166 265L288 279Q298 331 302 357T307 404Q307 449 284 472T208 495Q174 495 148 489T97 471L99 483Q121 493
147 500T209 507Q319 507 319 405Q319 392 316 377V374Q339 434 383 470T490 507Q550 507 581 469T613 359Q613 319 605 279L603 267H299Q294 238 292 213T290 168Q290 83 328 44T433 5Q475 5 508 18T563 44L560 31Q540 18 509 6T432 -7Q382 -7 346 14T292 79Q263
44 224 19T133 -7ZM278 168Q278 188 279 212T286 267L168 253Q94 245 60 212T25 114Q25 64 52 35T134 5Q160 5 182 12T223 31T258 58T288 90Q278 121 278 168ZM593 279Q595 296 598 317T601 359Q601 425 573 460T489 495Q413 495 367 439T300 279H593Z" />
<glyph unicode="&#x1fe;" glyph-name="Oslashacute" horiz-adv-x="553" d="M407 836H420L350 732H337L407 836Z" />
<glyph unicode="&#x1ff;" glyph-name="oslashacute" horiz-adv-x="407" d="M326 712H340L252 585H239L326 712Z" />
<glyph unicode="&#x218;" glyph-name="Scommaaccent" horiz-adv-x="409" d="M367 -151L398 -42H411L379 -151H367ZM1 60Q13 51 28 42T62 26T106 13T162 8Q234 8 275 43T330 132Q334 147 336 164T338 194Q338 223 330 245T308 286T274 319T233 348L200 370Q141
404 115 439T89 528Q89 545 92 564T102 602Q120 648 161 674T264 700Q291 700 311 696T347 686T374 673T395 660L393 648Q376 661 346 674T263 688Q148 688 113 597Q101 562 101 528Q101 503 107 483T125 446T157 413T205 380L238 358Q262 343 282 328T318 293T341
249T350 194Q350 181 348 163T342 128Q327 71 284 34T162 -4Q97 -4 59 14T-1 48L1 60Z" />
<glyph unicode="&#x219;" glyph-name="scommaaccent" horiz-adv-x="311" d="M318 -151L349 -42H362L330 -151H318ZM110 -7Q62 -7 33 6T-12 31L-10 43Q10 30 37 18T110 5Q173 5 204 34T242 106Q244 113 244 121T245 136Q245 175 228 199T171 246L128 270Q90 292
71 318T51 380Q51 402 57 422Q68 460 100 483T189 507Q227 507 251 498T291 477L288 466Q271 477 248 486T189 495Q138 495 109 475T69 420Q64 400 64 380Q64 348 80 325T133 281L176 257Q217 234 237 207T258 136Q258 118 255 105Q247 59 212 26T110 -7Z" />
<glyph unicode="&#x21a;" glyph-name="uni021A" horiz-adv-x="426" d="M386 -151L417 -42H430L398 -151H386ZM176 0H163L272 681H82L84 693H478L476 681H285L176 0Z" />
<glyph unicode="&#x21b;" glyph-name="uni021B" horiz-adv-x="255" d="M329 -151L360 -42H373L341 -151H329ZM136 -4Q96 -4 77 17T58 76Q58 91 61 109L121 488H53L55 500H124L143 620H156L136 500H264L262 488H134L73 109Q72 100 71 92T70 76Q70 44 86 26T137
8Q153 8 169 12T198 21L196 10Q187 6 170 1T136 -4Z" />
<glyph unicode="&#x237;" glyph-name="uni0237" horiz-adv-x="128" d="M-124 -170Q-116 -173 -106 -176T-80 -179Q-44 -179 -23 -157T6 -85L100 500H112L18 -86Q10 -141 -14 -165T-80 -190Q-97 -190 -108 -187T-126 -181L-124 -170Z" />
<glyph unicode="&#x2c6;" glyph-name="circumflex" horiz-adv-x="409" d="M244 693H254L316 585H303L248 680L158 585H144L244 693Z" />
<glyph unicode="&#x2c7;" glyph-name="caron" horiz-adv-x="409" d="M236 584H226L164 691H177L232 596L321 691H335L236 584Z" />
<glyph unicode="&#x2d8;" glyph-name="breve" horiz-adv-x="418" d="M243 586Q202 586 180 608T160 670H172Q171 635 189 617T243 598Q277 598 299 617T331 670H342Q333 631 307 609T243 586Z" />
<glyph unicode="&#x2d9;" glyph-name="dotaccent" horiz-adv-x="410" d="M237 656H250L244 618H231L237 656Z" />
<glyph unicode="&#x2da;" glyph-name="ring" horiz-adv-x="423" d="M261 579Q231 579 214 597T196 645Q196 675 215 696T267 718Q297 718 314 699T332 654Q332 622 312 601T261 579ZM261 590Q287 590 303 608T319 654Q319 676 306 691T267 706Q241 706 225 689T209
645Q209 622 222 606T261 590Z" />
<glyph unicode="&#x2db;" glyph-name="ogonek" horiz-adv-x="423" d="M202 -189Q197 -191 187 -193T168 -195Q135 -195 119 -179T102 -136Q102 -115 111 -96T133 -59T164 -27T198 0H215Q197 -13 180 -28T148 -60T124 -96T115 -135Q115 -156 128 -170T169 -184Q178
-184 187 -182T203 -178L202 -189Z" />
<glyph unicode="&#x2dc;" glyph-name="tilde" horiz-adv-x="411" d="M134 607Q139 633 154 647T190 662Q206 662 218 656T241 641T264 626T289 619Q306 619 317 630T333 662H345Q340 636 325 622T289 608Q274 608 262 614T238 629T215 643T190 650Q174 650 163
639T146 607H134Z" />
<glyph unicode="&#x2dd;" glyph-name="hungarumlaut" horiz-adv-x="391" d="M327 712H341L273 585H260L327 712ZM238 712H252L185 585H172L238 712Z" />
</font>
</defs>
</svg>
