<?xml version="1.0" standalone="no"?> <!DOCTYPE svg PUBLIC "-//W3C//DTD SVG 1.0//EN" "http://www.w3.org/TR/2001/REC-SVG-20010904/DTD/svg10.dtd" > <svg xmlns="http://www.w3.org/2000/svg" width="100%" height="100%">
<defs >
<font horiz-adv-x="500" ><font-face
    font-family=""
    units-per-em="1000"
    panose-1="2 11 11 3 3 2 2 6 2 3"
    ascent="809"
    descent="-191"
    alphabetic="0" />
<missing-glyph horiz-adv-x="426" />
<glyph unicode=" " glyph-name="space" horiz-adv-x="123" />
<glyph unicode="!" glyph-name="exclam" horiz-adv-x="280" d="M82 693H325L218 226H41L82 693ZM25 177H220L192 0H-3L25 177Z" />
<glyph unicode="&quot;" glyph-name="quotedbl" horiz-adv-x="435" d="M297 693H484L430 459H276L297 693ZM81 693H267L213 459H59L81 693Z" />
<glyph unicode="#" glyph-name="numbersign" horiz-adv-x="506" d="M81 553H150L182 693H316L284 553H340L372 693H507L474 553H529L504 391H436L417 304H473L448 142H379L347 0H214L246 142H190L158 0H25L57 142H1L26 304H94L113 391H56L81 553ZM227 304H283L303
391H247L227 304Z" />
<glyph unicode="$" glyph-name="dollar" horiz-adv-x="503" d="M85 3Q58 9 34 17T-9 39L19 196Q48 182 78 172T143 157L187 274L180 277Q111 303 77 350T42 472Q42 490 44 511T52 549Q78 630 143 666T315 703H331Q339 703 350 702L374 765H459L431 692Q457 686
477 679T515 663L488 509Q468 518 439 526T373 539L333 434L337 433Q381 417 409 398T455 354T478 300T485 234Q485 186 471 144Q447 70 381 31T206 -8H186Q176 -8 166 -7L124 -118H39L85 3ZM289 207Q289 221 282 229T261 245L226 152Q246 153 256 157T274 167Q289
180 289 207ZM234 499Q234 488 239 479T259 462L290 543Q269 542 259 539T243 528Q238 521 236 514T234 499Z" />
<glyph unicode="%" glyph-name="percent" horiz-adv-x="850" d="M215 414Q226 414 233 428T248 486Q254 526 256 545T259 574Q259 601 241 601Q228 601 221 587T207 528Q202 496 200 475T197 443Q197 426 201 420T215 414ZM634 94Q646 94 654 108T668 166Q674
208 676 226T679 254Q679 281 661 281Q648 281 641 267T627 208Q622 176 620 156T617 124Q617 107 621 101T634 94ZM211 311Q133 311 89 349T45 463Q45 511 57 554T94 631T156 683T244 703Q320 703 365 668T410 553Q410 501 396 457T357 381T294 330T211 311ZM122
-40L607 713H739L254 -40H122ZM631 -8Q553 -8 509 30T465 143Q465 191 477 234T515 311T577 363T664 383Q740 383 785 348T830 234Q830 182 817 138T778 62T715 11T631 -8Z" />
<glyph unicode="&amp;" glyph-name="ampersand" horiz-adv-x="662" d="M223 -9Q114 -9 56 37T-3 176Q-3 218 9 252T44 314T96 361T161 394Q150 416 144 441T137 498Q137 541 151 578T195 643T269 687T375 703Q427 703 464 691T526 657T562 608T574 549Q574 481
536 439T420 364L465 284Q473 301 479 320T490 361H646Q635 295 609 242T544 144L626 0H383L368 25Q333 8 299 0T223 -9ZM270 136Q277 136 285 136T301 140L227 273Q217 253 213 239T209 204Q209 176 223 156T270 136ZM363 460Q382 479 390 498T399 543Q399 560
394 569T375 578Q363 578 354 566T345 521Q345 507 350 490T363 460Z" />
<glyph unicode="&apos;" glyph-name="quotesingle" horiz-adv-x="219" d="M82 693H269L213 459H59L82 693Z" />
<glyph unicode="(" glyph-name="parenleft" horiz-adv-x="366" d="M139 -116Q118 -91 97 -57T59 19T31 110T20 214Q20 299 38 374T89 515T165 636T263 735H440Q394 682 355 621T288 492T245 351T229 202Q229 102 252 22T307 -116H139Z" />
<glyph unicode=")" glyph-name="parenright" horiz-adv-x="363" d="M-63 -116Q-17 -64 22 -3T89 127T132 268T148 417Q148 517 124 597T70 735H237Q258 710 279 677T318 601T346 510T357 406Q357 318 338 241T285 99T208 -21T115 -116H-63Z" />
<glyph unicode="*" glyph-name="asterisk" horiz-adv-x="376" d="M154 419L66 364L28 478L128 509L38 546L116 657L181 596L189 693H313L289 592L374 647L414 532L315 501L403 463L326 354L260 416L253 317H129L154 419Z" />
<glyph unicode="+" glyph-name="plus" horiz-adv-x="475" d="M145 267H14L40 437H172L195 582H375L352 437H484L457 267H325L302 121H122L145 267Z" />
<glyph unicode="," glyph-name="comma" horiz-adv-x="235" d="M10 181H210L130 -62H-30L10 181Z" />
<glyph unicode="-" glyph-name="hyphen" horiz-adv-x="299" d="M38 373H293L267 210H12L38 373Z" />
<glyph unicode="." glyph-name="period" horiz-adv-x="236" d="M7 181H202L173 0H-22L7 181Z" />
<glyph unicode="/" glyph-name="slash" horiz-adv-x="383" d="M269 735H453L108 -116H-75L269 735Z" />
<glyph unicode="0" glyph-name="zero" horiz-adv-x="612" d="M283 -9Q223 -9 175 7T92 54T40 131T21 238Q21 276 25 316T37 401Q51 483 80 540T149 634T240 686T348 702Q407 702 456 687T539 640T593 563T612 455Q612 389 597 299Q583 212 553 153T482 58T389
7T283 -9ZM290 161Q302 161 310 169T325 194T338 240T350 308Q356 350 360 380T368 431T372 465T373 487Q373 513 365 523T343 533Q331 533 323 526T308 502T296 457T283 385Q270 306 265 265T260 206Q260 180 268 171T290 161Z" />
<glyph unicode="1" glyph-name="one" horiz-adv-x="365" d="M124 475L41 469L63 607L248 693H393L284 0H50L124 475Z" />
<glyph unicode="2" glyph-name="two" horiz-adv-x="476" d="M-4 156L123 274Q153 302 174 325T208 370T226 410T232 450Q232 522 150 522Q124 522 101 517T58 506L83 668Q112 682 156 692T261 703Q317 703 359 688T429 647T471 583T485 503Q485 419 444 353T319
223L253 171V168H439L412 0H-29L-4 156Z" />
<glyph unicode="3" glyph-name="three" horiz-adv-x="467" d="M166 -9Q93 -9 49 2T-23 29L2 183Q25 176 51 171T110 165Q138 165 156 169T183 187Q196 203 196 232Q196 255 180 264T132 274H85L108 426H157Q180 426 199 430T227 449Q237 464 237 485Q237 528 164
528Q132 528 107 525T59 516L84 670Q101 677 118 683T155 693T200 700T258 703Q359 703 416 660T474 539Q474 466 434 423T333 364V360Q384 350 414 317T444 225Q444 172 426 129T373 56T286 8T166 -9Z" />
<glyph unicode="4" glyph-name="four" horiz-adv-x="571" d="M236 131H-9L15 281L331 694H555L491 291H565L540 131H466L446 0H215L236 131ZM264 291L287 435H284L178 294V291H264Z" />
<glyph unicode="5" glyph-name="five" horiz-adv-x="483" d="M150 -9Q94 -9 49 1T-26 26L-1 184Q22 178 46 174T104 169Q171 169 194 193Q202 201 206 214T211 245Q211 270 190 282T119 295Q92 295 74 294T33 288L105 693H492L465 523H248L232 441Q245 443 255
444T284 445Q372 445 418 400T464 277Q464 202 442 148T378 59T278 8T150 -9Z" />
<glyph unicode="6" glyph-name="six" horiz-adv-x="580" d="M275 -9Q148 -9 84 54T20 229Q20 258 23 294T37 382Q42 407 48 428T62 469T80 509T105 552Q154 630 226 666T396 703Q465 703 506 693T569 672L543 507Q526 513 496 519T423 525Q361 525 331 502Q312
489 301 469T283 419Q303 430 329 437T393 445Q476 445 518 401T560 272Q560 135 485 63T275 -9ZM281 141Q295 141 302 151T316 184Q322 204 325 226T328 266Q328 289 321 297T295 306Q279 306 267 299Q265 293 264 283T261 261T258 238T256 218Q254 198 254 183T256
158Q261 141 281 141Z" />
<glyph unicode="7" glyph-name="seven" horiz-adv-x="499" d="M274 511L275 516H53L81 693H549L525 538L267 0H12L274 511Z" />
<glyph unicode="8" glyph-name="eight" horiz-adv-x="573" d="M253 -9Q185 -9 137 4T59 39T15 93T1 160Q1 224 38 263T141 325Q95 358 79 396T62 476Q62 583 133 643T338 703Q450 703 513 658T576 535Q576 474 541 437T452 376Q493 351 520 314T547 222Q547 165
527 122T469 50T377 6T253 -9ZM256 135Q283 135 298 151T313 197Q313 219 297 233T249 262Q228 246 217 228T205 185Q205 163 217 149T256 135ZM340 441Q357 454 369 471T381 517Q381 533 372 544T339 556Q313 556 301 542T289 501Q289 483 300 469T340 441Z" />
<glyph unicode="9" glyph-name="nine" horiz-adv-x="578" d="M202 -9Q135 -9 93 2T27 27L53 192Q76 181 107 175T176 168Q240 168 273 192Q310 219 317 274Q298 264 272 257T209 249Q126 249 83 294T40 419Q40 558 116 630T327 703Q455 703 517 640T580 465Q580
409 572 347T540 215Q518 151 487 108T414 39T320 2T202 -9ZM306 387Q323 387 334 395Q336 408 339 430T345 476Q350 521 345 535Q340 552 319 552Q301 552 293 538T279 494Q275 474 274 456T272 427Q272 404 279 396T306 387Z" />
<glyph unicode=":" glyph-name="colon" horiz-adv-x="238" d="M53 467H248L219 286H24L53 467ZM8 181H203L174 0H-20L8 181Z" />
<glyph unicode=";" glyph-name="semicolon" horiz-adv-x="238" d="M8 181H209L128 -62H-32L8 181ZM53 467H248L219 286H24L53 467Z" />
<glyph unicode="&lt;" glyph-name="less" horiz-adv-x="399" d="M17 245L42 406L423 571L395 393L207 323L372 248L345 76L17 245Z" />
<glyph unicode="=" glyph-name="equal" horiz-adv-x="446" d="M56 489H459L434 328H31L56 489ZM22 273H426L400 111H-3L22 273Z" />
<glyph unicode="&gt;" glyph-name="greater" horiz-adv-x="398" d="M21 255L208 324L43 400L70 571L398 400L373 239L-7 76L21 255Z" />
<glyph unicode="?" glyph-name="question" horiz-adv-x="411" d="M66 261Q70 287 75 306T88 340T111 370T149 403Q178 426 192 442T207 488Q207 510 192 523T136 537Q107 537 88 534T51 527L75 677Q102 687 139 695T227 703Q336 703 385 657T434 527Q434 471 410
428T329 340Q305 321 289 309T262 287T247 265T240 239L238 226H60L66 261ZM45 177H240L212 0H17L45 177Z" />
<glyph unicode="@" glyph-name="at" horiz-adv-x="873" d="M378 -162Q303 -162 239 -141T126 -77T50 29T21 177Q20 288 54 380T153 538T306 641T505 678Q592 678 658 655T768 589T835 489T857 363Q857 279 834 217T772 114T684 53T581 33Q528 33 499 49T458 93H455Q437
64 405 50T341 35Q288 35 256 72T223 181Q223 207 229 242T246 312Q274 396 333 435T474 474Q540 474 581 463T649 441L604 168Q602 157 606 149T623 141Q646 141 666 157T702 202T727 270T736 356Q736 402 723 441T682 510T608 555T498 572Q413 572 348 542T237
459T169 335T146 179Q146 115 165 70T217 -3T296 -44T396 -57Q478 -57 538 -43T651 -6L639 -104Q601 -127 532 -144T378 -162ZM419 155Q427 155 431 157T440 163L472 364Q469 367 458 367Q440 367 428 346T408 281Q403 260 400 232T396 187Q396 169 402 162T419
155Z" />
<glyph unicode="A" glyph-name="A" horiz-adv-x="627" d="M245 693H522L583 0H355V93H212L179 0H-42L245 693ZM266 241H350L348 336Q347 362 347 385V467H343Q337 448 330 427Q324 409 316 386T299 336L266 241Z" />
<glyph unicode="B" glyph-name="B" horiz-adv-x="585" d="M92 693H385Q480 693 532 653T582 536Q582 521 580 507T575 479Q562 431 530 405T446 365V362Q503 351 534 321T565 227Q565 210 563 193T558 160Q541 88 478 44T295 0H-15L92 693ZM265 147Q284 147 298
156T319 195Q321 205 323 219T325 245Q325 269 317 281T286 293H263L240 147H265ZM308 414Q323 414 336 424T355 463Q360 483 360 508Q360 549 326 549H303L282 414H308Z" />
<glyph unicode="C" glyph-name="C" horiz-adv-x="495" d="M290 -9Q158 -9 88 55T18 247Q18 287 22 329T38 419Q71 567 156 635T379 703Q440 703 479 694T538 676L512 510Q475 524 418 524Q386 524 363 515T325 490T300 450T284 398Q275 351 272 319T268 259Q268
211 292 190T362 169Q394 169 421 174T466 186L440 19Q420 9 382 0T290 -9Z" />
<glyph unicode="D" glyph-name="D" horiz-adv-x="620" d="M93 693H328Q483 693 551 632T619 454Q619 410 614 365T600 279Q586 204 560 151T494 65T400 16T274 0H-15L93 693ZM271 167Q305 167 323 194T353 285Q356 303 360 328T367 378T372 427T374 464Q374 499
362 512T321 526H302L246 167H271Z" />
<glyph unicode="E" glyph-name="E" horiz-adv-x="489" d="M93 693H526L499 525H301L286 434H450L424 270H260L245 168H456L430 0H-15L93 693Z" />
<glyph unicode="F" glyph-name="F" horiz-adv-x="483" d="M93 693H530L503 525H303L284 404H449L423 240H258L220 0H-15L93 693Z" />
<glyph unicode="G" glyph-name="G" horiz-adv-x="601" d="M308 -8Q164 -8 92 55T20 249Q20 274 23 309T34 389Q64 552 152 627T393 703Q481 703 528 690T596 664L570 493Q548 503 510 512T422 521Q387 521 363 512T322 485T295 438T278 371Q276 365 273 346T267
304T262 262T259 235Q257 197 270 178T311 159Q322 159 328 160T340 163L353 252H312L335 403H596L538 27Q502 14 443 3T308 -8Z" />
<glyph unicode="H" glyph-name="H" horiz-adv-x="627" d="M93 693H329L289 440H388L428 693H664L555 0H319L362 270H262L220 0H-15L93 693Z" />
<glyph unicode="I" glyph-name="I" horiz-adv-x="294" d="M94 693H330L221 0H-15L94 693Z" />
<glyph unicode="J" glyph-name="J" horiz-adv-x="392" d="M126 -7Q71 -7 34 1T-25 23L0 183Q9 181 23 179T53 176Q85 176 101 188T122 234L194 693H430L356 212Q347 156 331 115T288 47T221 7T126 -7Z" />
<glyph unicode="K" glyph-name="K" horiz-adv-x="617" d="M93 693H329L287 426L444 693H678L477 359L572 0H327L264 279L221 0H-15L93 693Z" />
<glyph unicode="L" glyph-name="L" horiz-adv-x="467" d="M93 693H329L247 168H437L411 0H-15L93 693Z" />
<glyph unicode="M" glyph-name="M" horiz-adv-x="787" d="M92 693H388L397 508Q399 482 399 458T401 413Q402 390 403 369H406Q413 390 421 413Q428 433 437 457T455 507L524 693H824L716 0H493L520 167Q527 208 534 254T550 342Q558 390 567 436H565Q551 396
536 356Q523 322 509 283T483 211L407 -1H262L252 211Q250 244 249 283T245 357Q243 397 241 436H239Q232 392 226 346Q220 307 214 260T200 167L174 0H-15L92 693Z" />
<glyph unicode="N" glyph-name="N" horiz-adv-x="614" d="M93 693H333L380 486Q385 461 389 437T398 393Q402 370 405 349H408Q410 375 414 405Q417 430 420 462T429 526L455 693H650L542 0H320L274 189Q267 218 261 250T248 311Q241 344 234 375H231Q227 339
223 300Q219 267 214 226T202 143L180 0H-15L93 693Z" />
<glyph unicode="O" glyph-name="O" horiz-adv-x="635" d="M289 -10Q229 -10 180 6T96 55T41 138T21 258Q21 284 22 314T29 371Q55 539 141 621T364 703Q426 703 476 687T562 638T617 555T636 437Q636 409 633 373T625 308Q597 152 513 71T289 -10ZM301 163Q315
163 325 171T344 199T360 252T375 334Q377 348 380 367T385 407T390 445T392 478Q392 508 382 519T354 530Q342 530 332 522T313 495T296 442T280 357Q277 339 275 319T270 280T266 243T264 215Q264 186 274 175T301 163Z" />
<glyph unicode="P" glyph-name="P" horiz-adv-x="580" d="M93 693H364Q428 693 473 680T546 641T587 581T600 501Q600 479 598 456T590 411Q570 310 505 260T317 210H251L218 0H-15L93 693ZM298 357Q321 357 335 376T357 441Q360 465 360 486Q360 512 351 522T321
533H301L274 357H298Z" />
<glyph unicode="Q" glyph-name="Q" horiz-adv-x="631" d="M230 -16Q122 16 71 81T19 257Q19 286 22 319T30 379Q58 544 142 623T363 703Q425 703 475 687T560 638T614 555T633 437Q633 406 630 371T619 304Q598 208 558 158T462 89L604 58L545 -111L230 -16ZM300
163Q313 163 323 171T343 199T359 252T374 334Q376 348 379 367T384 407T388 445T390 478Q390 508 380 519T353 530Q341 530 331 522T312 495T295 442T279 357Q276 339 273 319T268 280T265 243T263 215Q263 186 273 175T300 163Z" />
<glyph unicode="R" glyph-name="R" horiz-adv-x="599" d="M92 693H369Q602 693 602 505Q602 453 590 416Q576 371 551 344T493 299V295L560 0H322L281 234H252L220 0H-15L92 693ZM303 371Q326 371 338 386T356 434Q358 448 359 462T361 491Q361 511 354 523T323
535H302L276 371H303Z" />
<glyph unicode="S" glyph-name="S" horiz-adv-x="489" d="M184 -8Q119 -8 65 5T-21 39L8 202Q39 187 73 176T152 165Q178 165 192 169T215 181Q227 191 227 210Q227 227 218 236T185 258L153 276Q97 308 68 351T39 458Q39 481 44 515T67 581Q99 645 161 674T318
703Q390 703 436 689T504 663L476 500Q447 514 409 523T325 532Q311 532 300 530T280 520Q270 510 270 495Q270 481 279 472T311 452L346 434Q376 419 399 402T437 363T461 314T470 253Q470 220 464 186T445 125Q412 55 346 24T184 -8Z" />
<glyph unicode="T" glyph-name="T" horiz-adv-x="524" d="M183 525H48L75 693H578L551 525H419L336 0H100L183 525Z" />
<glyph unicode="U" glyph-name="U" horiz-adv-x="607" d="M272 -10Q200 -10 151 4T72 45T29 108T15 189Q15 221 21 256L89 693H325L253 232Q252 225 252 219T251 206Q251 188 260 177T294 165Q324 165 336 182T353 230L426 693H645L573 232Q563 169 542 123T484
48T396 4T272 -10Z" />
<glyph unicode="V" glyph-name="V" horiz-adv-x="614" d="M69 693H300L305 378V244H309Q314 263 320 285Q325 304 332 328T349 379L460 693H678L391 0H126L69 693Z" />
<glyph unicode="W" glyph-name="W" horiz-adv-x="859" d="M71 693H300L295 476Q294 442 294 413T293 360Q292 334 292 311H295Q300 331 308 355Q314 375 323 403T343 465L415 693H601V464Q601 435 601 408T600 358Q599 332 599 310H603Q610 332 617 357Q623 378
631 405T648 464L714 693H920L687 0H451L452 209V306Q452 332 453 356H450Q443 333 436 308Q430 287 422 261T406 209L340 0H91L71 693Z" />
<glyph unicode="X" glyph-name="X" horiz-adv-x="632" d="M164 355L87 693H336L349 575Q351 560 352 543T355 512Q357 495 358 480H362Q368 495 374 511Q379 525 385 541T399 575L449 693H687L495 362L586 0H338L317 139Q315 154 313 170T309 199Q307 214 306
229H302L290 201Q285 188 279 173T264 141L199 0H-39L164 355Z" />
<glyph unicode="Y" glyph-name="Y" horiz-adv-x="585" d="M170 260L66 693H301L316 574Q319 550 320 529T324 490Q326 471 327 454H329Q335 471 342 490Q348 507 356 528T376 574L429 693H651L407 255L367 0H130L170 260Z" />
<glyph unicode="Z" glyph-name="Z" horiz-adv-x="508" d="M2 164L249 522V525H66L92 693H547L521 529L271 171V168H471L444 0H-23L2 164Z" />
<glyph unicode="[" glyph-name="bracketleft" horiz-adv-x="343" d="M97 735H398L374 580H282L197 39H289L265 -116H-35L97 735Z" />
<glyph unicode="\" glyph-name="backslash" horiz-adv-x="387" d="M71 735H246L332 -116H155L71 735Z" />
<glyph unicode="]" glyph-name="bracketright" horiz-adv-x="343" d="M-18 39H74L159 580H67L91 735H392L259 -116H-42L-18 39Z" />
<glyph unicode="^" glyph-name="asciicircum" horiz-adv-x="438" d="M202 693H373L462 428H301L264 533L192 428H26L202 693Z" />
<glyph unicode="_" glyph-name="underscore" horiz-adv-x="367" d="M-52 -45H322L301 -175H-72L-52 -45Z" />
<glyph unicode="`" glyph-name="grave" horiz-adv-x="427" d="M127 735H325L361 576H204L127 735Z" />
<glyph unicode="a" glyph-name="a" horiz-adv-x="527" d="M141 -8Q79 -8 42 33T4 162Q4 194 8 233T23 312Q40 378 69 423T137 498T225 540T331 553Q404 553 459 542T542 519L461 0H286L280 58H276Q251 28 219 10T141 -8ZM249 142Q257 142 263 145T273 152L312
402Q307 405 297 405Q273 405 260 381T236 298Q234 287 232 271T227 237T224 204T222 177Q222 160 228 151T249 142Z" />
<glyph unicode="b" glyph-name="b" horiz-adv-x="532" d="M225 -8Q147 -8 89 2T-14 30L95 735H307L270 502H274Q297 522 325 537T398 553Q462 553 495 508T528 387Q528 359 526 330T519 273Q508 207 488 155T434 67T348 12T225 -8ZM238 129Q250 129 258 134T273
151T285 186T296 242Q298 253 300 268L304 298Q306 313 307 326T308 348Q308 373 301 381T280 389Q270 389 263 386T251 380L213 134Q217 132 223 131T238 129Z" />
<glyph unicode="c" glyph-name="c" horiz-adv-x="407" d="M224 -8Q113 -8 60 47T7 197Q7 213 8 239T15 296Q38 425 106 489T306 553Q352 553 385 545T433 528L409 379Q395 385 378 389T334 394Q290 394 265 374T230 298Q230 295 229 288T226 271T224 254T223 243Q218
195 235 173T296 151Q322 151 343 155T379 165L356 21Q339 11 309 2T224 -8Z" />
<glyph unicode="d" glyph-name="d" horiz-adv-x="532" d="M148 -8Q80 -8 43 34T5 165Q5 192 8 224T17 289Q40 424 100 488T250 553Q285 553 306 547T339 535L370 735H582L467 0H288L283 50H279Q258 27 224 10T148 -8ZM248 143Q259 143 267 146T280 152L319 405Q314
407 310 409T294 411Q281 411 272 405T256 384T244 344T232 282Q227 251 225 225T222 183Q222 164 227 154T248 143Z" />
<glyph unicode="e" glyph-name="e" horiz-adv-x="493" d="M249 -8Q124 -8 66 46T8 200Q8 226 10 253T18 306Q40 433 110 493T283 553Q344 553 385 537T451 491T485 419T489 324Q489 315 488 302T484 273T479 244T474 218H218V212Q218 177 234 159T304 140Q348
140 386 148T446 164L426 34Q397 17 355 5T249 -8ZM230 324H295Q298 341 299 356L302 381Q302 414 278 414Q261 414 251 400T234 346L230 324Z" />
<glyph unicode="f" glyph-name="f" horiz-adv-x="347" d="M71 398H22L45 545H94L100 581Q115 670 167 706T309 743Q349 743 377 737T419 726L398 598Q392 600 381 601T358 602Q335 602 324 594T309 567L306 545H383L359 398H283L192 -191H-20L71 398Z" />
<glyph unicode="g" glyph-name="g" horiz-adv-x="533" d="M181 -197Q121 -197 66 -187T-25 -158L-2 -12Q30 -23 66 -31T144 -39Q180 -39 202 -34T238 -17T257 11T266 49L270 71H266Q243 47 214 34T147 21Q78 21 43 64T8 188Q8 212 10 245T21 316Q33 371 57 415T118
489T209 536T333 553Q367 553 400 550T462 541T514 530T550 519L473 29Q464 -32 443 -75T386 -145T299 -184T181 -197ZM252 161Q261 161 270 164T284 170L320 404Q312 408 299 408Q279 408 265 388T240 312Q235 280 231 251T227 199Q227 182 232 172T252 161Z"
/>
<glyph unicode="h" glyph-name="h" horiz-adv-x="528" d="M95 735H306L269 496H273Q296 519 331 536T413 553Q470 553 499 524T529 436Q529 425 528 411T524 380L464 0H253L306 344Q307 349 307 354T308 365Q308 386 284 386Q275 386 267 383T251 376L192 0H-20L95 735Z" />
<glyph unicode="i" glyph-name="i" horiz-adv-x="260" d="M67 545H278L193 0H-19L67 545ZM96 735H308L284 576H71L96 735Z" />
<glyph unicode="j" glyph-name="j" horiz-adv-x="261" d="M-21 -195Q-56 -195 -85 -187T-128 -171L-104 -42Q-97 -44 -89 -45T-69 -46Q-47 -46 -36 -38T-19 -4L67 545H279L189 -28Q183 -67 169 -98T129 -150T67 -183T-21 -195ZM96 735H309L284 576H72L96 735Z" />
<glyph unicode="k" glyph-name="k" horiz-adv-x="533" d="M225 227L190 0H-20L94 735H306L243 340L364 545H572L412 290L490 0H273L225 227Z" />
<glyph unicode="l" glyph-name="l" horiz-adv-x="258" d="M96 735H308L192 0H-19L96 735Z" />
<glyph unicode="m" glyph-name="m" horiz-adv-x="784" d="M65 545H271L262 489H266Q291 515 326 534T412 553Q456 553 481 535T516 483H519Q548 512 585 532T673 553Q731 553 758 524T785 438Q785 427 784 414T781 388L720 0H509L562 344Q563 349 564 355T565
366Q565 386 545 386Q537 386 530 384T515 377Q514 375 514 373Q514 371 514 369T513 365L456 0H244L298 344Q299 349 300 355T301 366Q301 386 281 386Q272 386 265 384T250 377L192 0H-20L65 545Z" />
<glyph unicode="n" glyph-name="n" horiz-adv-x="528" d="M65 545H272L263 489H267Q292 514 328 533T414 553Q470 553 499 525T529 436Q529 425 528 411T524 380L464 0H253L306 347Q307 352 307 356T308 365Q308 386 284 386Q275 386 267 383T251 376L192 0H-20L65 545Z" />
<glyph unicode="o" glyph-name="o" horiz-adv-x="527" d="M229 -8Q123 -8 65 50T7 206Q7 228 9 251T16 297Q26 355 48 402T104 482T185 534T290 553Q348 553 391 537T463 493T506 426T520 343Q520 323 518 297T511 243Q502 187 480 141T424 61T341 10T229 -8ZM243
141Q251 141 258 145T270 161T281 193T292 246Q298 284 302 315T306 364Q306 405 281 405Q264 405 254 383T232 298Q227 267 223 234T218 181Q218 158 225 150T243 141Z" />
<glyph unicode="p" glyph-name="p" horiz-adv-x="531" d="M65 545H271L263 497H267Q292 520 321 536T397 553Q455 553 492 514T529 390Q529 348 524 305T508 214Q484 98 425 45T278 -8Q253 -8 230 -5T192 7L161 -191H-50L65 545ZM236 129Q249 129 257 134T272
154T284 192T297 254Q301 280 304 307T307 348Q307 371 300 379T279 388Q269 388 263 385T250 378L212 134Q220 129 236 129Z" />
<glyph unicode="q" glyph-name="q" horiz-adv-x="529" d="M259 35H255Q235 16 206 4T141 -8Q78 -8 41 33T4 163Q4 192 6 222T14 279Q37 420 113 486T323 553Q393 553 453 543T546 520L435 -191H223L259 35ZM248 148Q259 148 266 151T279 157L316 402L308 406Q304
408 293 408Q280 408 271 403T256 383T244 345T232 284Q225 240 223 219T221 184Q221 164 227 156T248 148Z" />
<glyph unicode="r" glyph-name="r" horiz-adv-x="365" d="M65 545H271L260 477H264Q284 511 310 531T373 551Q381 551 388 551T398 548L367 348Q360 350 346 350T320 351Q296 351 279 349T245 339L192 0H-19L65 545Z" />
<glyph unicode="s" glyph-name="s" horiz-adv-x="415" d="M154 -8Q128 -8 102 -5T53 4T12 17T-19 32L3 171Q30 158 65 148T133 138Q154 138 164 140T180 149Q185 155 185 166Q185 176 176 182T150 196L117 212Q67 237 46 274T24 363Q24 373 25 389T32 419Q55 494
113 523T260 553Q309 553 347 544T408 522L385 382Q362 393 330 401T269 410Q252 410 242 408T226 399Q223 394 223 386Q223 376 233 370T260 356L292 341Q346 315 369 283T392 199Q392 191 391 181T388 156Q374 73 315 33T154 -8Z" />
<glyph unicode="t" glyph-name="t" horiz-adv-x="359" d="M186 -8Q98 -8 60 31T36 160L74 400H25L47 545H97L116 666H328L309 545H387L364 400H286L252 180Q249 162 257 155T286 148Q297 148 308 149T325 152L303 13Q288 5 256 -1T186 -8Z" />
<glyph unicode="u" glyph-name="u" horiz-adv-x="525" d="M119 -8Q60 -8 31 23T1 111Q1 125 2 140T7 180L64 545H276L222 200Q221 192 221 187T220 176Q220 156 243 156Q252 156 260 159T275 167L335 545H546L461 0H278L270 57H266Q238 29 203 11T119 -8Z" />
<glyph unicode="v" glyph-name="v" horiz-adv-x="526" d="M44 545H256L254 290Q253 276 253 262V213H256Q260 227 264 240Q268 251 271 264T280 290L365 545H571L324 0H90L44 545Z" />
<glyph unicode="w" glyph-name="w" horiz-adv-x="715" d="M45 545H248L243 388Q242 366 242 344T240 304Q239 283 238 264H240Q245 282 251 302Q256 319 263 341T278 387L329 545H489L487 387Q486 364 486 342T485 302Q484 282 484 264H487Q492 283 498 304Q503
322 509 344T521 387L571 545H756L550 0H360L358 107Q357 133 357 159T358 209Q358 235 359 260H356Q348 233 340 207Q333 184 325 158T308 107L271 0H68L45 545Z" />
<glyph unicode="x" glyph-name="x" horiz-adv-x="519" d="M119 284L50 545H266L276 469Q278 456 279 443T282 418T285 399Q286 393 286 391Q286 393 289 399Q292 406 296 417T307 441T319 468L352 545H554L407 290L479 0H262L248 94Q246 107 245 121T241 146L237
172L225 146Q220 135 214 121T201 94L155 0H-47L119 284Z" />
<glyph unicode="y" glyph-name="y" horiz-adv-x="515" d="M63 -196Q30 -196 2 -191T-43 -178L-21 -38L6 -43Q23 -46 39 -46Q91 -46 105 -14L111 1L40 545H251L254 381V293Q254 271 255 252H258Q264 272 270 293Q275 311 282 333T298 379L358 545H559L298 -42Q280
-83 260 -112T212 -160T149 -187T63 -196Z" />
<glyph unicode="z" glyph-name="z" horiz-adv-x="433" d="M-4 150L187 395V398H35L59 545H461L440 407L235 150V147H401L378 0H-28L-4 150Z" />
<glyph unicode="{" glyph-name="braceleft" horiz-adv-x="362" d="M283 -117Q209 -115 162 -105T87 -74T51 -24T45 46Q45 49 46 56T48 71T50 86T51 97L62 164Q68 203 54 216T9 233L33 388Q65 390 83 401T107 451L124 559Q131 606 149 639T202 694T288 726T417
737L392 579Q376 577 365 574T345 564T333 546T325 515L314 444Q305 386 275 355T177 311V308Q232 297 254 269T274 192Q274 190 274 185T272 173T270 160T268 152L260 100Q255 66 266 56T308 41L283 -117Z" />
<glyph unicode="|" glyph-name="bar" horiz-adv-x="275" d="M65 735H223V-115H65V735Z" />
<glyph unicode="}" glyph-name="braceright" horiz-adv-x="363" d="M-17 41Q-1 43 10 46T30 56T42 74T50 105L61 176Q70 234 100 265T198 309V312Q142 323 120 351T101 428Q101 430 101 435T103 447T105 460T106 468L115 520Q120 554 109 564T67 579L92 737Q165
735 213 725T288 694T324 644T330 574Q330 571 329 564T327 549T325 534T324 524L313 456Q307 418 321 404T366 387L342 232Q310 230 292 219T268 169L251 61Q243 14 225 -19T173 -74T87 -106T-42 -117L-17 41Z" />
<glyph unicode="~" glyph-name="asciitilde" horiz-adv-x="412" d="M7 217Q8 270 20 306T50 363T92 394T139 404Q160 404 177 399T210 388T238 376T262 371Q274 371 281 379T291 401H417Q417 354 406 320T377 262T335 227T286 215Q265 215 248 220T215 231T187
242T163 247Q149 247 143 238T133 217H7Z" />
<glyph unicode="&#xa0;" glyph-name="uni00A0" horiz-adv-x="123" />
<glyph unicode="&#xa1;" glyph-name="exclamdown" horiz-adv-x="280" d="M63 347H240L199 -120H-43L63 347ZM89 573H284L257 396H62L89 573Z" />
<glyph unicode="&#xa2;" glyph-name="cent" horiz-adv-x="439" d="M186 -4Q98 9 54 61T10 202Q10 258 21 313Q44 428 117 490T319 553H338Q347 553 356 552L374 612H458L436 539Q444 537 451 534T463 529L440 382Q430 385 418 388T392 393L318 149Q342 150 367
153T408 161L386 20Q372 11 342 3T270 -7L237 -118H152L186 -4ZM220 231Q220 188 239 169L307 392Q276 386 257 366T228 300Q223 277 222 261T220 231Z" />
<glyph unicode="&#xa3;" glyph-name="sterling" horiz-adv-x="494" d="M42 415H91L101 480Q111 543 135 585T196 654T283 691T393 703Q441 703 476 694T526 676L501 514Q489 519 473 521T438 523Q390 523 367 507T337 448L332 415H447L424 270H307Q295 226 271
204T218 170V168H462L435 0H-25L0 158Q25 166 41 182T63 234L68 270H18L42 415Z" />
<glyph unicode="&#xa5;" glyph-name="yen" horiz-adv-x="581" d="M141 86H18L39 220H162L168 257H45L67 391H147L63 693H304L320 578Q322 554 324 533T328 494Q330 475 331 459H333Q339 475 346 493Q352 509 361 530T382 577L435 693H652L476 391H554L532 257H410L404
220H526L505 86H383L370 0H128L141 86Z" />
<glyph unicode="&#xa6;" glyph-name="brokenbar" horiz-adv-x="295" d="M60 283H247V-120H60V283ZM60 735H247V366H60V735Z" />
<glyph unicode="&#xa7;" glyph-name="section" horiz-adv-x="527" d="M454 78Q454 34 439 -4T391 -69T307 -113T183 -129Q118 -129 73 -115T2 -85L24 58Q52 45 86 32T171 19Q212 19 225 32Q234 39 234 55Q234 68 227 76T197 92L156 105Q120 118 94 131T51 162T25
202T16 255Q16 366 132 392Q112 412 100 440T88 503Q88 594 147 648T332 702Q407 702 448 691T511 668L489 526Q468 536 433 546T350 556Q333 556 322 554T305 545Q298 538 298 524Q298 512 306 505T338 490L385 475Q418 464 443 452T486 424T513 384T523 329Q523
267 494 234T413 185Q432 167 443 144T454 78ZM256 327Q240 322 230 315T220 290Q220 279 227 272T256 256Q261 252 267 251Q271 250 274 249Q313 258 313 287Q313 297 306 304T273 321L256 327Z" />
<glyph unicode="&#xa8;" glyph-name="dieresis" horiz-adv-x="427" d="M303 729H472L448 576H279L303 729ZM97 729H266L242 576H73L97 729Z" />
<glyph unicode="&#xa9;" glyph-name="copyright" horiz-adv-x="683" d="M353 -11Q282 -11 224 13T124 84T59 196T36 345Q36 428 59 494T124 606T224 676T352 701Q421 701 479 677T579 606T645 494T669 345Q669 265 646 199T581 87T481 15T353 -11ZM352 45Q409
45 456 65T536 123T587 217T605 345Q605 415 587 471T536 565T455 624T351 645Q294 645 248 625T168 566T118 471T100 345Q100 273 118 217T169 123T248 65T352 45ZM372 141Q283 141 237 185T190 332V354Q190 409 204 446T243 507T301 541T374 551Q409 551 432
547T470 535V421Q461 423 450 425T425 427Q388 427 374 414T359 359V341Q359 297 371 281T421 264Q437 264 449 266T471 271V158Q456 153 433 147T372 141Z" />
<glyph unicode="&#xaa;" glyph-name="ordfeminine" horiz-adv-x="478" d="M158 210Q99 210 66 248T33 357Q33 386 36 421T48 491Q62 548 87 588T147 654T227 691T322 703Q390 703 439 693T514 672L442 217H283L278 268H275Q253 242 225 226T158 210ZM250 342Q258
342 263 345T273 351L306 573Q304 574 301 575T293 576Q272 576 261 554T241 478Q239 467 237 453T233 424T230 395T229 372Q229 358 233 350T250 342Z" />
<glyph unicode="&#xab;" glyph-name="guillemotleft" horiz-adv-x="496" d="M229 229L237 278L336 456H506L395 250L437 52H273L229 229ZM15 229L22 278L122 456H292L180 250L223 52H59L15 229Z" />
<glyph unicode="&#xae;" glyph-name="registered" horiz-adv-x="408" d="M236 300Q196 300 163 314T105 354T68 417T54 502Q54 548 67 585T105 648T162 689T235 703Q274 703 307 689T365 649T404 586T418 502Q418 457 405 420T367 356T310 315T236 300ZM236 334Q302
335 340 378T378 502Q378 579 340 624T235 669Q169 669 132 624T94 502Q94 422 132 379T236 334ZM151 609H251Q287 609 306 593T326 541Q326 523 319 510T301 491V489L333 400H259L236 468H226V400H151V609ZM235 516Q251 516 251 535Q251 555 235 555H224V516H235Z"
/>
<glyph unicode="&#xaf;" glyph-name="macron" horiz-adv-x="427" d="M138 704H422L401 576H117L138 704Z" />
<glyph unicode="&#xb0;" glyph-name="degree" horiz-adv-x="342" d="M207 399Q136 399 96 439T56 544Q56 577 67 605T100 655T152 689T218 701Q290 701 329 662T369 558Q369 525 358 496T325 446T273 412T207 399ZM210 492Q236 492 250 510T264 556Q264 577 253
593T215 609Q189 609 175 591T161 546Q161 523 173 508T210 492Z" />
<glyph unicode="&#xb4;" glyph-name="acute" horiz-adv-x="427" d="M255 735H458L345 576H183L255 735Z" />
<glyph unicode="&#xb6;" glyph-name="paragraph" horiz-adv-x="541" d="M245 320H232Q150 320 100 361T50 484Q50 527 64 565T107 631T179 676T281 693H577L449 -120H340L449 583H396L286 -120H177L245 320Z" />
<glyph unicode="&#xb7;" glyph-name="periodcentered" horiz-adv-x="228" d="M40 402H236L204 221H8L40 402Z" />
<glyph unicode="&#xb8;" glyph-name="cedilla" horiz-adv-x="427" d="M99 -154Q141 -151 160 -145T180 -121Q180 -110 170 -104T129 -96L147 16H233L225 -39Q270 -41 292 -61T315 -113Q315 -166 262 -196T88 -228L99 -154Z" />
<glyph unicode="&#xba;" glyph-name="ordmasculine" horiz-adv-x="482" d="M240 209Q143 209 89 260T35 399Q35 419 37 439T42 478Q51 529 70 571T120 642T193 688T288 704Q340 704 379 690T445 650T485 592T498 519Q498 500 497 476T491 428Q482 379 463 339T413
270T339 225T240 209ZM249 341Q264 341 273 359T293 433Q298 467 301 494T305 538Q305 558 300 565T284 573Q268 573 259 554T240 479Q235 452 232 423T228 375Q228 355 233 348T249 341Z" />
<glyph unicode="&#xbb;" glyph-name="guillemotright" horiz-adv-x="492" d="M308 257L266 456H430L474 276L466 228L367 52H197L308 257ZM94 257L52 456H216L260 276L252 228L153 52H-17L94 257Z" />
<glyph unicode="&#xbc;" glyph-name="onequarter" horiz-adv-x="812" d="M120 550L61 545L76 638L201 693H309L242 266H76L120 550ZM596 713H735L191 -40H53L596 713ZM568 79H418L434 178L625 426H781L743 184H784L767 79H726L714 0H555L568 79ZM589 182L602 268H600L545
184V182H589Z" />
<glyph unicode="&#xbd;" glyph-name="onehalf" horiz-adv-x="835" d="M595 713H734L190 -40H52L595 713ZM120 550L61 545L76 638L201 693H309L242 266H76L120 550ZM497 103L573 172Q608 204 625 226T642 275Q642 295 629 303T593 312Q572 312 557 309T532 301L549
410Q569 419 603 426T672 433Q747 433 783 400T820 310Q820 262 793 221T709 139L675 115V113H797L779 0H480L497 103Z" />
<glyph unicode="&#xbe;" glyph-name="threequarters" horiz-adv-x="837" d="M137 261Q99 261 69 268T21 284L37 385Q64 376 100 376Q123 376 138 384T154 410Q154 433 120 433H89L104 530H136Q159 530 170 536T181 561Q181 572 171 579T134 586Q97 586 75 579L90
679Q110 687 136 693T203 699Q270 699 308 673T346 595Q346 550 319 525T257 490V488Q289 480 306 462T324 404Q324 340 277 301T137 261ZM619 710H758L214 -43H76L619 710ZM593 79H443L459 178L650 426H806L768 184H809L792 79H751L739 0H580L593 79ZM614 182L627
268H625L570 184V182H614Z" />
<glyph unicode="&#xbf;" glyph-name="questiondown" horiz-adv-x="408" d="M184 -132Q75 -132 26 -86T-23 44Q-23 100 1 143T82 231Q106 250 122 262T149 284T164 306T171 332L173 345H351L345 310Q341 284 336 265T323 231T300 201T262 168Q233 145 219 129T204
83Q204 61 219 48T276 34Q304 34 323 36T360 44L336 -106Q309 -116 272 -124T184 -132ZM199 573H395L367 396H171L199 573Z" />
<glyph unicode="&#xc0;" glyph-name="Agrave" horiz-adv-x="627" d="M245 693H522L583 0H355V93H212L179 0H-42L245 693ZM266 241H350L348 336Q347 362 347 385V467H343Q337 448 330 427Q324 409 316 386T299 336L266 241ZM252 863H451L471 720H314L252 863Z" />
<glyph unicode="&#xc1;" glyph-name="Aacute" horiz-adv-x="627" d="M245 693H522L583 0H355V93H212L179 0H-42L245 693ZM266 241H350L348 336Q347 362 347 385V467H343Q337 448 330 427Q324 409 316 386T299 336L266 241ZM360 862H564L456 720H295L360 862Z" />
<glyph unicode="&#xc2;" glyph-name="Acircumflex" horiz-adv-x="627" d="M245 693H522L583 0H355V93H212L179 0H-42L245 693ZM266 241H350L348 336Q347 362 347 385V467H343Q337 448 330 427Q324 409 316 386T299 336L266 241ZM317 857H487L560 720H417L388 758L347
720H199L317 857Z" />
<glyph unicode="&#xc3;" glyph-name="Atilde" horiz-adv-x="627" d="M245 693H522L583 0H355V93H212L179 0H-42L245 693ZM266 241H350L348 336Q347 362 347 385V467H343Q337 448 330 427Q324 409 316 386T299 336L266 241ZM196 720Q202 762 216 790T248 835T286
859T327 866Q345 866 360 862T388 853L411 844Q421 840 430 840Q441 840 446 846T455 863H575Q569 821 556 793T524 748T485 723T442 716Q425 716 410 720T383 729T360 739T341 743Q330 743 324 737T316 720H196Z" />
<glyph unicode="&#xc4;" glyph-name="Adieresis" horiz-adv-x="627" d="M245 693H522L583 0H355V93H212L179 0H-42L245 693ZM266 241H350L348 336Q347 362 347 385V467H343Q337 448 330 427Q324 409 316 386T299 336L266 241ZM428 863H600L578 720H406L428 863ZM216
863H388L366 720H194L216 863Z" />
<glyph unicode="&#xc5;" glyph-name="Aring" horiz-adv-x="627" d="M245 693H522L583 0H355V93H212L179 0H-42L245 693ZM266 241H350L348 336Q347 362 347 385V467H343Q337 448 330 427Q324 409 316 386T299 336L266 241ZM392 707Q335 707 301 739T267 822Q267
876 304 909T397 942Q454 942 487 911T521 829Q521 774 484 741T392 707ZM394 785Q410 785 420 795T431 826Q431 844 421 854T394 865Q378 865 368 855T357 824Q357 807 366 796T394 785Z" />
<glyph unicode="&#xc6;" glyph-name="AE" horiz-adv-x="835" d="M334 693H872L845 525H660L646 434H797L771 270H620L605 168H803L776 0H347L364 108H224L170 0H-44L334 693ZM387 256L426 504H423L301 256H387Z" />
<glyph unicode="&#xc7;" glyph-name="Ccedilla" horiz-adv-x="495" d="M290 -9H278Q272 -9 267 -8L262 -39Q308 -41 330 -61T352 -113Q352 -166 299 -196T125 -228L137 -154Q179 -151 198 -145T218 -121Q218 -110 208 -104T167 -96L183 4Q102 27 60 87T18 247Q18
287 22 329T38 419Q71 567 156 635T379 703Q440 703 479 694T538 676L512 510Q475 524 418 524Q386 524 363 515T325 490T300 450T284 398Q275 351 272 319T268 259Q268 211 292 190T362 169Q394 169 421 174T466 186L440 19Q420 9 382 0T290 -9Z" />
<glyph unicode="&#xc8;" glyph-name="Egrave" horiz-adv-x="489" d="M185 863H384L404 720H247L185 863ZM93 693H526L499 525H301L286 434H450L424 270H260L245 168H456L430 0H-15L93 693Z" />
<glyph unicode="&#xc9;" glyph-name="Eacute" horiz-adv-x="489" d="M549 862H753L645 720H484L549 862ZM93 693H526L499 525H301L286 434H450L424 270H260L245 168H456L430 0H-15L93 693Z" />
<glyph unicode="&#xca;" glyph-name="Ecircumflex" horiz-adv-x="489" d="M254 857H424L497 720H354L325 758L284 720H136L254 857ZM93 693H526L499 525H301L286 434H450L424 270H260L245 168H456L430 0H-15L93 693Z" />
<glyph unicode="&#xcb;" glyph-name="Edieresis" horiz-adv-x="489" d="M93 693H526L499 525H301L286 434H450L424 270H260L245 168H456L430 0H-15L93 693ZM359 863H531L509 720H337L359 863ZM147 863H319L297 720H125L147 863Z" />
<glyph unicode="&#xcc;" glyph-name="Igrave" horiz-adv-x="294" d="M94 693H330L221 0H-15L94 693ZM343 863H542L562 720H405L343 863Z" />
<glyph unicode="&#xcd;" glyph-name="Iacute" horiz-adv-x="294" d="M94 693H330L221 0H-15L94 693ZM447 862H651L543 720H382L447 862Z" />
<glyph unicode="&#xce;" glyph-name="Icircumflex" horiz-adv-x="294" d="M94 693H330L221 0H-15L94 693ZM153 857H323L396 720H253L224 758L183 720H35L153 857Z" />
<glyph unicode="&#xcf;" glyph-name="Idieresis" horiz-adv-x="294" d="M94 693H330L221 0H-15L94 693ZM259 863H431L409 720H237L259 863ZM47 863H219L197 720H25L47 863Z" />
<glyph unicode="&#xd0;" glyph-name="Eth" horiz-adv-x="623" d="M22 426H53L95 693H332Q486 693 554 632T623 454Q623 412 618 369T606 288Q592 211 566 157T500 67T405 16T277 0H-13L28 268H-3L22 426ZM274 167Q308 167 326 194T356 285Q359 303 363 328T370
378T376 427T378 464Q378 499 365 512T325 526H301L286 426H342L317 268H261L245 167H274Z" />
<glyph unicode="&#xd1;" glyph-name="Ntilde" horiz-adv-x="614" d="M206 720Q212 762 226 790T258 835T296 859T337 866Q355 866 370 862T398 853L421 844Q431 840 440 840Q451 840 456 846T465 863H585Q579 821 566 793T534 748T495 723T452 716Q435 716 420
720T393 729T370 739T351 743Q340 743 334 737T326 720H206ZM93 693H333L380 486Q385 461 389 437T398 393Q402 370 405 349H408Q410 375 414 405Q417 430 420 462T429 526L455 693H650L542 0H320L274 189Q267 218 261 250T248 311Q241 344 234 375H231Q227 339
223 300Q219 267 214 226T202 143L180 0H-15L93 693Z" />
<glyph unicode="&#xd2;" glyph-name="Ograve" horiz-adv-x="635" d="M243 863H442L462 720H305L243 863ZM289 -10Q229 -10 180 6T96 55T41 138T21 258Q21 284 22 314T29 371Q55 539 141 621T364 703Q426 703 476 687T562 638T617 555T636 437Q636 409 633 373T625
308Q597 152 513 71T289 -10ZM301 163Q315 163 325 171T344 199T360 252T375 334Q377 348 380 367T385 407T390 445T392 478Q392 508 382 519T354 530Q342 530 332 522T313 495T296 442T280 357Q277 339 275 319T270 280T266 243T264 215Q264 186 274 175T301 163Z"
/>
<glyph unicode="&#xd3;" glyph-name="Oacute" horiz-adv-x="635" d="M356 862H560L452 720H291L356 862ZM289 -10Q229 -10 180 6T96 55T41 138T21 258Q21 284 22 314T29 371Q55 539 141 621T364 703Q426 703 476 687T562 638T617 555T636 437Q636 409 633 373T625
308Q597 152 513 71T289 -10ZM301 163Q315 163 325 171T344 199T360 252T375 334Q377 348 380 367T385 407T390 445T392 478Q392 508 382 519T354 530Q342 530 332 522T313 495T296 442T280 357Q277 339 275 319T270 280T266 243T264 215Q264 186 274 175T301 163Z"
/>
<glyph unicode="&#xd4;" glyph-name="Ocircumflex" horiz-adv-x="635" d="M311 857H481L554 720H411L382 758L341 720H193L311 857ZM289 -10Q229 -10 180 6T96 55T41 138T21 258Q21 284 22 314T29 371Q55 539 141 621T364 703Q426 703 476 687T562 638T617 555T636
437Q636 409 633 373T625 308Q597 152 513 71T289 -10ZM301 163Q315 163 325 171T344 199T360 252T375 334Q377 348 380 367T385 407T390 445T392 478Q392 508 382 519T354 530Q342 530 332 522T313 495T296 442T280 357Q277 339 275 319T270 280T266 243T264 215Q264
186 274 175T301 163Z" />
<glyph unicode="&#xd5;" glyph-name="Otilde" horiz-adv-x="635" d="M198 720Q204 762 218 790T250 835T288 859T329 866Q347 866 362 862T390 853L413 844Q423 840 432 840Q443 840 448 846T457 863H577Q571 821 558 793T526 748T487 723T444 716Q427 716 412
720T385 729T362 739T343 743Q332 743 326 737T318 720H198ZM289 -10Q229 -10 180 6T96 55T41 138T21 258Q21 284 22 314T29 371Q55 539 141 621T364 703Q426 703 476 687T562 638T617 555T636 437Q636 409 633 373T625 308Q597 152 513 71T289 -10ZM301 163Q315
163 325 171T344 199T360 252T375 334Q377 348 380 367T385 407T390 445T392 478Q392 508 382 519T354 530Q342 530 332 522T313 495T296 442T280 357Q277 339 275 319T270 280T266 243T264 215Q264 186 274 175T301 163Z" />
<glyph unicode="&#xd6;" glyph-name="Odieresis" horiz-adv-x="635" d="M419 863H591L569 720H397L419 863ZM207 863H379L357 720H185L207 863ZM289 -10Q229 -10 180 6T96 55T41 138T21 258Q21 284 22 314T29 371Q55 539 141 621T364 703Q426 703 476 687T562
638T617 555T636 437Q636 409 633 373T625 308Q597 152 513 71T289 -10ZM301 163Q315 163 325 171T344 199T360 252T375 334Q377 348 380 367T385 407T390 445T392 478Q392 508 382 519T354 530Q342 530 332 522T313 495T296 442T280 357Q277 339 275 319T270 280T266
243T264 215Q264 186 274 175T301 163Z" />
<glyph unicode="&#xd7;" glyph-name="multiply" horiz-adv-x="489" d="M8 222L137 337L44 449L176 565L267 453L394 567L499 448L368 332L461 221L331 105L238 218L110 104L8 222Z" />
<glyph unicode="&#xd8;" glyph-name="Oslash" horiz-adv-x="635" d="M288 -10Q183 -10 115 40L80 0H-40L56 108Q21 169 21 258Q21 285 23 317T30 375Q57 541 143 622T365 703Q470 703 538 656L571 693H691L600 589Q617 559 626 521T636 437Q636 405 633 366T621
294Q592 145 509 68T288 -10ZM300 157Q317 157 330 165T353 193T372 247T389 332L392 354L252 195Q256 175 269 166T300 157ZM264 345L403 503Q398 521 386 528T356 536Q340 536 328 529T305 501T285 447T267 359L264 345Z" />
<glyph unicode="&#xd9;" glyph-name="Ugrave" horiz-adv-x="607" d="M234 863H433L453 720H296L234 863ZM272 -10Q200 -10 151 4T72 45T29 108T15 189Q15 221 21 256L89 693H325L253 232Q252 225 252 219T251 206Q251 188 260 177T294 165Q324 165 336 182T353
230L426 693H645L573 232Q563 169 542 123T484 48T396 4T272 -10Z" />
<glyph unicode="&#xda;" glyph-name="Uacute" horiz-adv-x="607" d="M357 862H561L453 720H292L357 862ZM272 -10Q200 -10 151 4T72 45T29 108T15 189Q15 221 21 256L89 693H325L253 232Q252 225 252 219T251 206Q251 188 260 177T294 165Q324 165 336 182T353
230L426 693H645L573 232Q563 169 542 123T484 48T396 4T272 -10Z" />
<glyph unicode="&#xdb;" glyph-name="Ucircumflex" horiz-adv-x="607" d="M310 857H480L553 720H410L381 758L340 720H192L310 857ZM272 -10Q200 -10 151 4T72 45T29 108T15 189Q15 221 21 256L89 693H325L253 232Q252 225 252 219T251 206Q251 188 260 177T294
165Q324 165 336 182T353 230L426 693H645L573 232Q563 169 542 123T484 48T396 4T272 -10Z" />
<glyph unicode="&#xdc;" glyph-name="Udieresis" horiz-adv-x="607" d="M272 -10Q200 -10 151 4T72 45T29 108T15 189Q15 221 21 256L89 693H325L253 232Q252 225 252 219T251 206Q251 188 260 177T294 165Q324 165 336 182T353 230L426 693H645L573 232Q563 169
542 123T484 48T396 4T272 -10ZM418 863H590L568 720H396L418 863ZM206 863H378L356 720H184L206 863Z" />
<glyph unicode="&#xdd;" glyph-name="Yacute" horiz-adv-x="585" d="M170 260L66 693H301L316 574Q319 550 320 529T324 490Q326 471 327 454H329Q335 471 342 490Q348 507 356 528T376 574L429 693H651L407 255L367 0H130L170 260ZM355 862H559L451 720H290L355 862Z" />
<glyph unicode="&#xde;" glyph-name="Thorn" horiz-adv-x="592" d="M93 693H329L313 591H368Q487 591 541 542T596 407Q596 381 593 355T581 304Q570 262 551 230T500 175T425 141T320 129H240L221 0H-15L93 693ZM294 275Q320 275 333 290T353 337L356 364Q360
402 350 416T318 431H288L263 275H294Z" />
<glyph unicode="&#xdf;" glyph-name="germandbls" horiz-adv-x="608" d="M62 525Q80 640 156 692T351 744Q476 744 535 703T595 588Q595 544 575 514T530 459Q499 427 483 412T466 380Q466 369 471 362T487 347L508 331Q546 305 567 275T588 190Q588 162 580 132T555
78Q504 -8 370 -8Q322 -8 286 0T226 20L247 157Q266 148 288 141T339 133Q350 133 358 134T372 140Q385 149 385 165Q385 174 379 180T359 195L339 209Q304 231 287 258T269 322Q269 365 285 396T324 460Q338 480 349 495T367 522T379 544T383 566Q383 581 373
590T344 600Q313 600 297 582T272 518L162 -191H-49L62 525Z" />
<glyph unicode="&#xe0;" glyph-name="agrave" horiz-adv-x="527" d="M141 -8Q79 -8 42 33T4 162Q4 194 8 233T23 312Q40 378 69 423T137 498T225 540T331 553Q404 553 459 542T542 519L461 0H286L280 58H276Q251 28 219 10T141 -8ZM249 142Q257 142 263 145T273
152L312 402Q307 405 297 405Q273 405 260 381T236 298Q234 287 232 271T227 237T224 204T222 177Q222 160 228 151T249 142ZM193 735H391L427 576H270L193 735Z" />
<glyph unicode="&#xe1;" glyph-name="aacute" horiz-adv-x="527" d="M141 -8Q79 -8 42 33T4 162Q4 194 8 233T23 312Q40 378 69 423T137 498T225 540T331 553Q404 553 459 542T542 519L461 0H286L280 58H276Q251 28 219 10T141 -8ZM249 142Q257 142 263 145T273
152L312 402Q307 405 297 405Q273 405 260 381T236 298Q234 287 232 271T227 237T224 204T222 177Q222 160 228 151T249 142ZM318 735H521L408 576H246L318 735Z" />
<glyph unicode="&#xe2;" glyph-name="acircumflex" horiz-adv-x="527" d="M141 -8Q79 -8 42 33T4 162Q4 194 8 233T23 312Q40 378 69 423T137 498T225 540T331 553Q404 553 459 542T542 519L461 0H286L280 58H276Q251 28 219 10T141 -8ZM249 142Q257 142 263 145T273
152L312 402Q307 405 297 405Q273 405 260 381T236 298Q234 287 232 271T227 237T224 204T222 177Q222 160 228 151T249 142ZM286 735H453L520 576H378L352 622L309 576H160L286 735Z" />
<glyph unicode="&#xe3;" glyph-name="atilde" horiz-adv-x="527" d="M141 -8Q79 -8 42 33T4 162Q4 194 8 233T23 312Q40 378 69 423T137 498T225 540T331 553Q404 553 459 542T542 519L461 0H286L280 58H276Q251 28 219 10T141 -8ZM249 142Q257 142 263 145T273
152L312 402Q307 405 297 405Q273 405 260 381T236 298Q234 287 232 271T227 237T224 204T222 177Q222 160 228 151T249 142ZM159 581Q169 664 207 701T295 738Q314 738 329 734T356 724T380 714T402 709Q414 709 421 716T430 736H545Q537 661 500 620T409 579Q389
579 374 583T346 593T323 603T302 608Q290 608 284 600T275 581H159Z" />
<glyph unicode="&#xe4;" glyph-name="adieresis" horiz-adv-x="527" d="M141 -8Q79 -8 42 33T4 162Q4 194 8 233T23 312Q40 378 69 423T137 498T225 540T331 553Q404 553 459 542T542 519L461 0H286L280 58H276Q251 28 219 10T141 -8ZM249 142Q257 142 263 145T273
152L312 402Q307 405 297 405Q273 405 260 381T236 298Q234 287 232 271T227 237T224 204T222 177Q222 160 228 151T249 142ZM382 729H551L527 576H358L382 729ZM176 729H345L321 576H152L176 729Z" />
<glyph unicode="&#xe5;" glyph-name="aring" horiz-adv-x="527" d="M141 -8Q79 -8 42 33T4 162Q4 194 8 233T23 312Q40 378 69 423T137 498T225 540T331 553Q404 553 459 542T542 519L461 0H286L280 58H276Q251 28 219 10T141 -8ZM249 142Q257 142 263 145T273
152L312 402Q307 405 297 405Q273 405 260 381T236 298Q234 287 232 271T227 237T224 204T222 177Q222 160 228 151T249 142ZM345 573Q293 573 260 604T226 684Q226 737 262 770T355 803Q409 803 442 773T475 693Q475 637 439 605T345 573ZM349 649Q366 649 376
660T387 691Q387 708 378 717T352 727Q336 727 325 717T314 686Q314 670 323 660T349 649Z" />
<glyph unicode="&#xe6;" glyph-name="ae" horiz-adv-x="742" d="M498 -8Q355 -8 297 64Q267 29 226 11T134 -8Q62 -8 26 29T-11 127Q-11 144 -9 161T-2 193Q7 221 23 242T63 278T120 302T196 319L274 331L276 341Q278 351 278 357Q278 378 261 386T205 395Q170
395 132 390T70 376L92 517Q129 532 173 542T279 553Q371 553 416 514Q445 534 478 543T546 553Q603 553 641 537T703 491T734 419T737 324Q737 315 736 302T732 273T727 244T722 218H467V212Q467 194 470 181T482 158T509 145T553 140Q596 140 634 148T694 164L674
34Q645 17 603 5T498 -8ZM221 124Q242 124 262 142Q260 156 259 170T257 200V226H244Q227 226 217 220T201 190Q199 179 198 170T197 153Q197 124 221 124ZM479 325H543Q548 348 549 366T546 395Q543 414 526 414Q509 414 499 400T482 346L479 325Z" />
<glyph unicode="&#xe7;" glyph-name="ccedilla" horiz-adv-x="407" d="M218 -8L213 -39Q258 -41 280 -61T303 -113Q303 -166 250 -196T76 -228L88 -154Q129 -151 148 -145T168 -121Q168 -110 158 -104T117 -96L133 4Q68 24 38 73T7 197Q7 213 8 239T15 296Q38
425 106 489T306 553Q352 553 385 545T433 528L409 379Q395 385 378 389T334 394Q290 394 265 374T230 298Q230 295 229 288T226 271T224 254T223 243Q218 195 235 173T296 151Q322 151 343 155T379 165L356 21Q339 11 309 2T224 -8H218Z" />
<glyph unicode="&#xe8;" glyph-name="egrave" horiz-adv-x="493" d="M249 -8Q124 -8 66 46T8 200Q8 226 10 253T18 306Q40 433 110 493T283 553Q344 553 385 537T451 491T485 419T489 324Q489 315 488 302T484 273T479 244T474 218H218V212Q218 177 234 159T304
140Q348 140 386 148T446 164L426 34Q397 17 355 5T249 -8ZM230 324H295Q298 341 299 356L302 381Q302 414 278 414Q261 414 251 400T234 346L230 324ZM147 735H345L381 576H224L147 735Z" />
<glyph unicode="&#xe9;" glyph-name="eacute" horiz-adv-x="493" d="M279 735H482L369 576H207L279 735ZM249 -8Q124 -8 66 46T8 200Q8 226 10 253T18 306Q40 433 110 493T283 553Q344 553 385 537T451 491T485 419T489 324Q489 315 488 302T484 273T479 244T474
218H218V212Q218 177 234 159T304 140Q348 140 386 148T446 164L426 34Q397 17 355 5T249 -8ZM230 324H295Q298 341 299 356L302 381Q302 414 278 414Q261 414 251 400T234 346L230 324Z" />
<glyph unicode="&#xea;" glyph-name="ecircumflex" horiz-adv-x="493" d="M242 735H409L476 576H334L308 622L265 576H116L242 735ZM249 -8Q124 -8 66 46T8 200Q8 226 10 253T18 306Q40 433 110 493T283 553Q344 553 385 537T451 491T485 419T489 324Q489 315
488 302T484 273T479 244T474 218H218V212Q218 177 234 159T304 140Q348 140 386 148T446 164L426 34Q397 17 355 5T249 -8ZM230 324H295Q298 341 299 356L302 381Q302 414 278 414Q261 414 251 400T234 346L230 324Z" />
<glyph unicode="&#xeb;" glyph-name="edieresis" horiz-adv-x="493" d="M341 729H510L486 576H317L341 729ZM135 729H304L280 576H111L135 729ZM249 -8Q124 -8 66 46T8 200Q8 226 10 253T18 306Q40 433 110 493T283 553Q344 553 385 537T451 491T485 419T489 324Q489
315 488 302T484 273T479 244T474 218H218V212Q218 177 234 159T304 140Q348 140 386 148T446 164L426 34Q397 17 355 5T249 -8ZM230 324H295Q298 341 299 356L302 381Q302 414 278 414Q261 414 251 400T234 346L230 324Z" />
<glyph unicode="&#xec;" glyph-name="igrave" horiz-adv-x="260" d="M323 541H535L448 0H237L323 541ZM283 735H481L517 576H360L283 735Z" />
<glyph unicode="&#xed;" glyph-name="iacute" horiz-adv-x="260" d="M418 735H621L508 576H346L418 735ZM323 541H535L448 0H237L323 541Z" />
<glyph unicode="&#xee;" glyph-name="icircumflex" horiz-adv-x="260" d="M67 545H278L193 0H-19L67 545ZM121 735H288L356 576H213L188 622L144 576H-5L121 735Z" />
<glyph unicode="&#xef;" glyph-name="idieresis" horiz-adv-x="260" d="M220 729H379L355 576H196L220 729ZM25 729H185L160 576H1L25 729ZM66 545H278L192 0H-19L66 545Z" />
<glyph unicode="&#xf0;" glyph-name="eth" horiz-adv-x="533" d="M203 650Q183 673 162 694T117 735H345Q356 727 366 718T387 699L483 725L502 653L444 637Q483 586 506 525T530 390Q530 354 526 311T511 223Q488 112 418 52T237 -8Q177 -8 134 7T63 49T22 114T8
197Q8 222 11 256T22 325Q45 431 98 481T229 531Q246 531 260 528T283 519H289Q282 536 273 552T253 585L129 552L108 625L203 650ZM300 253Q306 295 310 331T314 396V403Q309 405 304 406T291 407Q271 407 259 386T237 306Q232 272 227 235T221 176Q221 153 228
144T248 135Q268 135 278 161T300 253Z" />
<glyph unicode="&#xf1;" glyph-name="ntilde" horiz-adv-x="528" d="M65 545H272L263 489H267Q292 514 328 533T414 553Q470 553 499 525T529 436Q529 425 528 411T524 380L464 0H253L306 347Q307 352 307 356T308 365Q308 386 284 386Q275 386 267 383T251 376L192
0H-20L65 545ZM135 581Q145 664 183 701T271 738Q290 738 305 734T332 724T356 714T378 709Q390 709 397 716T406 736H521Q513 661 476 620T385 579Q365 579 350 583T322 593T299 603T278 608Q266 608 260 600T251 581H135Z" />
<glyph unicode="&#xf2;" glyph-name="ograve" horiz-adv-x="527" d="M229 -8Q123 -8 65 50T7 206Q7 228 9 251T16 297Q26 355 48 402T104 482T185 534T290 553Q348 553 391 537T463 493T506 426T520 343Q520 323 518 297T511 243Q502 187 480 141T424 61T341 10T229
-8ZM243 141Q251 141 258 145T270 161T281 193T292 246Q298 284 302 315T306 364Q306 405 281 405Q264 405 254 383T232 298Q227 267 223 234T218 181Q218 158 225 150T243 141ZM152 735H350L386 576H229L152 735Z" />
<glyph unicode="&#xf3;" glyph-name="oacute" horiz-adv-x="527" d="M289 735H492L379 576H217L289 735ZM229 -8Q123 -8 65 50T7 206Q7 228 9 251T16 297Q26 355 48 402T104 482T185 534T290 553Q348 553 391 537T463 493T506 426T520 343Q520 323 518 297T511
243Q502 187 480 141T424 61T341 10T229 -8ZM243 141Q251 141 258 145T270 161T281 193T292 246Q298 284 302 315T306 364Q306 405 281 405Q264 405 254 383T232 298Q227 267 223 234T218 181Q218 158 225 150T243 141Z" />
<glyph unicode="&#xf4;" glyph-name="ocircumflex" horiz-adv-x="527" d="M253 735H420L487 576H345L319 622L276 576H127L253 735ZM229 -8Q123 -8 65 50T7 206Q7 228 9 251T16 297Q26 355 48 402T104 482T185 534T290 553Q348 553 391 537T463 493T506 426T520
343Q520 323 518 297T511 243Q502 187 480 141T424 61T341 10T229 -8ZM243 141Q251 141 258 145T270 161T281 193T292 246Q298 284 302 315T306 364Q306 405 281 405Q264 405 254 383T232 298Q227 267 223 234T218 181Q218 158 225 150T243 141Z" />
<glyph unicode="&#xf5;" glyph-name="otilde" horiz-adv-x="527" d="M229 -8Q123 -8 65 50T7 206Q7 228 9 251T16 297Q26 355 48 402T104 482T185 534T290 553Q348 553 391 537T463 493T506 426T520 343Q520 323 518 297T511 243Q502 187 480 141T424 61T341 10T229
-8ZM243 141Q251 141 258 145T270 161T281 193T292 246Q298 284 302 315T306 364Q306 405 281 405Q264 405 254 383T232 298Q227 267 223 234T218 181Q218 158 225 150T243 141ZM124 581Q134 664 172 701T260 738Q279 738 294 734T321 724T345 714T367 709Q379
709 386 716T395 736H510Q502 661 465 620T374 579Q354 579 339 583T311 593T288 603T267 608Q255 608 249 600T240 581H124Z" />
<glyph unicode="&#xf6;" glyph-name="odieresis" horiz-adv-x="527" d="M346 729H515L491 576H322L346 729ZM140 729H309L285 576H116L140 729ZM229 -8Q123 -8 65 50T7 206Q7 228 9 251T16 297Q26 355 48 402T104 482T185 534T290 553Q348 553 391 537T463 493T506
426T520 343Q520 323 518 297T511 243Q502 187 480 141T424 61T341 10T229 -8ZM243 141Q251 141 258 145T270 161T281 193T292 246Q298 284 302 315T306 364Q306 405 281 405Q264 405 254 383T232 298Q227 267 223 234T218 181Q218 158 225 150T243 141Z" />
<glyph unicode="&#xf7;" glyph-name="divide" horiz-adv-x="454" d="M39 426H463L437 263H13L39 426ZM124 227H314L287 55H97L124 227ZM189 635H378L351 463H162L189 635Z" />
<glyph unicode="&#xf8;" glyph-name="oslash" horiz-adv-x="527" d="M231 -8Q146 -8 90 31L62 0H-41L39 87Q10 137 10 206Q10 226 12 248T17 290Q26 349 48 397T105 480T187 534T293 553Q380 553 436 517L462 545H564L489 464Q523 414 523 343Q523 324 522 299T515
247Q506 190 485 143T428 63T344 11T231 -8ZM245 130Q257 130 266 135T282 152T296 186T309 242Q311 250 312 258L314 274L207 157Q211 142 221 136T245 130ZM216 279L322 393Q313 415 285 415Q274 415 265 410T248 392T234 357T221 302L216 279Z" />
<glyph unicode="&#xf9;" glyph-name="ugrave" horiz-adv-x="525" d="M119 -8Q60 -8 31 23T1 111Q1 125 2 140T7 180L64 545H276L222 200Q221 192 221 187T220 176Q220 156 243 156Q252 156 260 159T275 167L335 545H546L461 0H278L270 57H266Q238 29 203 11T119
-8ZM162 735H360L396 576H239L162 735Z" />
<glyph unicode="&#xfa;" glyph-name="uacute" horiz-adv-x="525" d="M299 735H502L389 576H227L299 735ZM119 -8Q60 -8 31 23T1 111Q1 125 2 140T7 180L64 545H276L222 200Q221 192 221 187T220 176Q220 156 243 156Q252 156 260 159T275 167L335 545H546L461
0H278L270 57H266Q238 29 203 11T119 -8Z" />
<glyph unicode="&#xfb;" glyph-name="ucircumflex" horiz-adv-x="525" d="M254 735H421L488 576H346L320 622L277 576H128L254 735ZM119 -8Q60 -8 31 23T1 111Q1 125 2 140T7 180L64 545H276L222 200Q221 192 221 187T220 176Q220 156 243 156Q252 156 260 159T275
167L335 545H546L461 0H278L270 57H266Q238 29 203 11T119 -8Z" />
<glyph unicode="&#xfc;" glyph-name="udieresis" horiz-adv-x="525" d="M352 729H521L497 576H328L352 729ZM146 729H315L291 576H122L146 729ZM119 -8Q60 -8 31 23T1 111Q1 125 2 140T7 180L64 545H276L222 200Q221 192 221 187T220 176Q220 156 243 156Q252
156 260 159T275 167L335 545H546L461 0H278L270 57H266Q238 29 203 11T119 -8Z" />
<glyph unicode="&#xfd;" glyph-name="yacute" horiz-adv-x="515" d="M63 -196Q30 -196 2 -191T-43 -178L-21 -38L6 -43Q23 -46 39 -46Q91 -46 105 -14L111 1L40 545H251L254 381V293Q254 271 255 252H258Q264 272 270 293Q275 311 282 333T298 379L358 545H559L298
-42Q280 -83 260 -112T212 -160T149 -187T63 -196ZM292 735H495L382 576H220L292 735Z" />
<glyph unicode="&#xfe;" glyph-name="thorn" horiz-adv-x="531" d="M95 735H306L270 503H274Q297 523 325 538T397 553Q455 553 492 514T529 390Q529 357 525 321T514 242Q491 115 432 54T278 -8Q253 -8 230 -5T192 7L161 -191H-50L95 735ZM236 129Q258 129 269
146T289 210Q292 224 295 244T301 284T305 322T307 349Q307 372 300 380T279 389Q270 389 263 386T251 379L212 134Q222 129 236 129Z" />
<glyph unicode="&#xff;" glyph-name="ydieresis" horiz-adv-x="515" d="M63 -196Q30 -196 2 -191T-43 -178L-21 -38L6 -43Q23 -46 39 -46Q91 -46 105 -14L111 1L40 545H251L254 381V293Q254 271 255 252H258Q264 272 270 293Q275 311 282 333T298 379L358 545H559L298
-42Q280 -83 260 -112T212 -160T149 -187T63 -196ZM351 729H520L496 576H327L351 729ZM145 729H314L290 576H121L145 729Z" />
<glyph unicode="&#x100;" glyph-name="Amacron" horiz-adv-x="627" d="M245 693H522L583 0H355V93H212L179 0H-42L245 693ZM266 241H350L348 336Q347 362 347 385V467H343Q337 448 330 427Q324 409 316 386T299 336L266 241ZM257 843H551L531 720H238L257 843Z" />
<glyph unicode="&#x101;" glyph-name="amacron" horiz-adv-x="527" d="M141 -8Q79 -8 42 33T4 162Q4 194 8 233T23 312Q40 378 69 423T137 498T225 540T331 553Q404 553 459 542T542 519L461 0H286L280 58H276Q251 28 219 10T141 -8ZM249 142Q257 142 263 145T273
152L312 402Q307 405 297 405Q273 405 260 381T236 298Q234 287 232 271T227 237T224 204T222 177Q222 160 228 151T249 142ZM214 704H498L477 576H193L214 704Z" />
<glyph unicode="&#x102;" glyph-name="Abreve" horiz-adv-x="627" d="M245 693H522L583 0H355V93H212L179 0H-42L245 693ZM266 241H350L348 336Q347 362 347 385V467H343Q337 448 330 427Q324 409 316 386T299 336L266 241ZM388 715Q347 715 317 726T268 757T239
803T231 858H359Q358 843 366 834T390 825Q407 825 416 834T427 858H556Q552 829 540 804T507 758T457 727T388 715Z" />
<glyph unicode="&#x103;" glyph-name="abreve" horiz-adv-x="527" d="M141 -8Q79 -8 42 33T4 162Q4 194 8 233T23 312Q40 378 69 423T137 498T225 540T331 553Q404 553 459 542T542 519L461 0H286L280 58H276Q251 28 219 10T141 -8ZM249 142Q257 142 263 145T273
152L312 402Q307 405 297 405Q273 405 260 381T236 298Q234 287 232 271T227 237T224 204T222 177Q222 160 228 151T249 142ZM342 576Q261 576 222 618T188 729H317Q315 695 347 695Q364 695 373 704T385 729H514Q510 696 498 668T464 620T412 588T342 576Z" />
<glyph unicode="&#x104;" glyph-name="Aogonek" horiz-adv-x="627" d="M549 -181Q538 -187 516 -191T467 -196Q409 -196 383 -172T357 -112Q357 -92 365 -75T388 -44T421 -19T460 0H350L347 93H204L171 0H-42L247 693H520L582 6Q559 -8 542 -26T525 -61Q525 -81
547 -81Q553 -81 559 -80T567 -79L549 -181ZM258 241H342L340 336Q339 362 339 386V472H335Q329 452 322 430Q316 411 308 387T291 336L258 241Z" />
<glyph unicode="&#x105;" glyph-name="aogonek" horiz-adv-x="527" d="M353 -196Q295 -196 269 -172T242 -112Q242 -91 251 -74T276 -43T310 -19T351 0H286L280 58H276Q251 28 219 10T141 -8Q79 -8 42 33T4 162Q4 194 8 232T22 308Q38 375 67 421T135 497T224
539T331 553Q404 553 459 542T542 519L462 4Q439 -13 425 -28T410 -61Q410 -81 433 -81Q439 -81 444 -80T453 -79L435 -181Q424 -187 401 -191T353 -196ZM249 142Q257 142 263 145T273 152L312 402Q307 405 297 405Q273 405 260 381T236 298Q234 287 232 271T227
237T224 204T222 177Q222 160 228 151T249 142Z" />
<glyph unicode="&#x106;" glyph-name="Cacute" horiz-adv-x="495" d="M290 -9Q158 -9 88 55T18 247Q18 287 22 329T38 419Q71 567 156 635T379 703Q440 703 479 694T538 676L512 510Q475 524 418 524Q386 524 363 515T325 490T300 450T284 398Q275 351 272 319T268
259Q268 211 292 190T362 169Q394 169 421 174T466 186L440 19Q420 9 382 0T290 -9ZM337 862H541L433 720H272L337 862Z" />
<glyph unicode="&#x107;" glyph-name="cacute" horiz-adv-x="407" d="M275 735H478L365 576H203L275 735ZM224 -8Q113 -8 60 47T7 197Q7 213 8 239T15 296Q38 425 106 489T306 553Q352 553 385 545T433 528L409 379Q395 385 378 389T334 394Q290 394 265 374T230
298Q230 295 229 288T226 271T224 254T223 243Q218 195 235 173T296 151Q322 151 343 155T379 165L356 21Q339 11 309 2T224 -8Z" />
<glyph unicode="&#x108;" glyph-name="Ccircumflex" horiz-adv-x="495" d="M293 857H463L536 720H393L364 758L323 720H175L293 857ZM290 -9Q158 -9 88 55T18 247Q18 287 22 329T38 419Q71 567 156 635T379 703Q440 703 479 694T538 676L512 510Q475 524 418 524Q386
524 363 515T325 490T300 450T284 398Q275 351 272 319T268 259Q268 211 292 190T362 169Q394 169 421 174T466 186L440 19Q420 9 382 0T290 -9Z" />
<glyph unicode="&#x109;" glyph-name="ccircumflex" horiz-adv-x="407" d="M226 735H393L460 576H318L292 622L249 576H100L226 735ZM224 -8Q113 -8 60 47T7 197Q7 213 8 239T15 296Q38 425 106 489T306 553Q352 553 385 545T433 528L409 379Q395 385 378 389T334
394Q290 394 265 374T230 298Q230 295 229 288T226 271T224 254T223 243Q218 195 235 173T296 151Q322 151 343 155T379 165L356 21Q339 11 309 2T224 -8Z" />
<glyph unicode="&#x10a;" glyph-name="Cdotaccent" horiz-adv-x="495" d="M290 -9Q158 -9 88 55T18 247Q18 287 22 329T38 419Q71 567 156 635T379 703Q440 703 479 694T538 676L512 510Q475 524 418 524Q386 524 363 515T325 490T300 450T284 398Q275 351 272
319T268 259Q268 211 292 190T362 169Q394 169 421 174T466 186L440 19Q420 9 382 0T290 -9ZM282 863H490L467 720H260L282 863Z" />
<glyph unicode="&#x10b;" glyph-name="cdotaccent" horiz-adv-x="407" d="M224 -8Q113 -8 60 47T7 197Q7 213 8 239T15 296Q38 425 106 489T306 553Q352 553 385 545T433 528L409 379Q395 385 378 389T334 394Q290 394 265 374T230 298Q230 295 229 288T226 271T224
254T223 243Q218 195 235 173T296 151Q322 151 343 155T379 165L356 21Q339 11 309 2T224 -8ZM196 735H407L382 576H171L196 735Z" />
<glyph unicode="&#x10c;" glyph-name="Ccaron" horiz-adv-x="495" d="M441 720H271L199 857H342L371 819L411 857H559L441 720ZM290 -9Q158 -9 88 55T18 247Q18 287 22 329T38 419Q71 567 156 635T379 703Q440 703 479 694T538 676L512 510Q475 524 418 524Q386
524 363 515T325 490T300 450T284 398Q275 351 272 319T268 259Q268 211 292 190T362 169Q394 169 421 174T466 186L440 19Q420 9 382 0T290 -9Z" />
<glyph unicode="&#x10d;" glyph-name="ccaron" horiz-adv-x="407" d="M128 735H271L296 689L340 735H489L363 576H196L128 735ZM224 -8Q113 -8 60 47T7 197Q7 213 8 239T15 296Q38 425 106 489T306 553Q352 553 385 545T433 528L409 379Q395 385 378 389T334 394Q290
394 265 374T230 298Q230 295 229 288T226 271T224 254T223 243Q218 195 235 173T296 151Q322 151 343 155T379 165L356 21Q339 11 309 2T224 -8Z" />
<glyph unicode="&#x10e;" glyph-name="Dcaron" horiz-adv-x="620" d="M438 720H268L196 857H339L368 819L408 857H556L438 720ZM93 693H328Q483 693 551 632T619 454Q619 410 614 365T600 279Q586 204 560 151T494 65T400 16T274 0H-15L93 693ZM271 167Q305 167
323 194T353 285Q356 303 360 328T367 378T372 427T374 464Q374 499 362 512T321 526H302L246 167H271Z" />
<glyph unicode="&#x10f;" glyph-name="dcaron" horiz-adv-x="532" d="M581 578L609 735H737L685 578H581ZM148 -8Q80 -8 43 34T5 165Q5 192 8 224T17 289Q40 424 100 488T250 553Q285 553 306 547T339 535L370 735H582L467 0H288L283 50H279Q258 27 224 10T148
-8ZM248 143Q259 143 267 146T280 152L319 405Q314 407 310 409T294 411Q281 411 272 405T256 384T244 344T232 282Q227 251 225 225T222 183Q222 164 227 154T248 143Z" />
<glyph unicode="&#x110;" glyph-name="Dcroat" horiz-adv-x="620" d="M22 426H53L95 693H332Q486 693 554 632T623 454Q623 414 618 372T607 294Q593 216 568 161T502 69T407 17T277 0H-13L28 268H-3L22 426ZM274 167Q308 167 326 194T356 285Q359 303 363 328T370
378T376 427T378 464Q378 499 365 512T325 526H301L286 426H342L317 268H261L245 167H274Z" />
<glyph unicode="&#x111;" glyph-name="dcroat" horiz-adv-x="532" d="M258 680H361L370 735H582L573 680H616L602 590H559L467 0H288L283 50H279Q258 27 224 10T148 -8Q80 -8 43 34T5 165Q5 192 8 224T17 289Q40 424 100 488T250 553Q285 553 306 547T339 535L347
590H243L258 680ZM248 143Q259 143 267 146T280 152L319 405Q314 407 310 409T294 411Q281 411 272 405T256 384T244 344T232 282Q227 251 225 225T222 183Q222 164 227 154T248 143Z" />
<glyph unicode="&#x112;" glyph-name="Emacron" horiz-adv-x="489" d="M93 693H526L499 525H301L286 434H450L424 270H260L245 168H456L430 0H-15L93 693ZM187 843H481L461 720H168L187 843Z" />
<glyph unicode="&#x113;" glyph-name="emacron" horiz-adv-x="493" d="M249 -8Q124 -8 66 46T8 200Q8 226 10 253T18 306Q40 433 110 493T283 553Q344 553 385 537T451 491T485 419T489 324Q489 315 488 302T484 273T479 244T474 218H218V212Q218 177 234 159T304
140Q348 140 386 148T446 164L426 34Q397 17 355 5T249 -8ZM230 324H295Q298 341 299 356L302 381Q302 414 278 414Q261 414 251 400T234 346L230 324ZM174 704H458L437 576H153L174 704Z" />
<glyph unicode="&#x114;" glyph-name="Ebreve" horiz-adv-x="489" d="M93 693H526L499 525H301L286 434H450L424 270H260L245 168H456L430 0H-15L93 693ZM323 715Q282 715 252 726T203 757T174 803T166 858H294Q293 843 301 834T325 825Q342 825 351 834T362 858H491Q487
829 475 804T442 758T392 727T323 715Z" />
<glyph unicode="&#x115;" glyph-name="ebreve" horiz-adv-x="493" d="M249 -8Q124 -8 66 46T8 200Q8 226 10 253T18 306Q40 433 110 493T283 553Q344 553 385 537T451 491T485 419T489 324Q489 315 488 302T484 273T479 244T474 218H218V212Q218 177 234 159T304
140Q348 140 386 148T446 164L426 34Q397 17 355 5T249 -8ZM230 324H295Q298 341 299 356L302 381Q302 414 278 414Q261 414 251 400T234 346L230 324ZM306 576Q225 576 186 618T152 729H281Q279 695 311 695Q328 695 337 704T349 729H478Q474 696 462 668T428
620T376 588T306 576Z" />
<glyph unicode="&#x116;" glyph-name="Edotaccent" horiz-adv-x="489" d="M238 863H446L423 720H216L238 863ZM93 693H526L499 525H301L286 434H450L424 270H260L245 168H456L430 0H-15L93 693Z" />
<glyph unicode="&#x117;" glyph-name="edotaccent" horiz-adv-x="493" d="M249 -8Q124 -8 66 46T8 200Q8 226 10 253T18 306Q40 433 110 493T283 553Q344 553 385 537T451 491T485 419T489 324Q489 315 488 302T484 273T479 244T474 218H218V212Q218 177 234 159T304
140Q348 140 386 148T446 164L426 34Q397 17 355 5T249 -8ZM230 324H295Q298 341 299 356L302 381Q302 414 278 414Q261 414 251 400T234 346L230 324ZM214 735H425L400 576H189L214 735Z" />
<glyph unicode="&#x118;" glyph-name="Eogonek" horiz-adv-x="489" d="M93 693H526L499 525H301L286 434H450L424 270H260L245 168H456L430 0H387Q370 -12 355 -28T340 -61Q340 -81 362 -81Q368 -81 374 -80T382 -79L364 -181Q353 -187 330 -191T282 -196Q224
-196 198 -172T172 -112Q172 -92 180 -75T203 -44T235 -19T274 0H-15L93 693Z" />
<glyph unicode="&#x119;" glyph-name="eogonek" horiz-adv-x="493" d="M218 212Q218 177 234 159T304 140Q348 140 386 148T446 164L426 34Q409 24 393 16T365 -1Q342 -18 330 -32T318 -61Q318 -81 340 -81Q346 -81 352 -80T360 -79L342 -181Q331 -187 309 -191T260
-196Q202 -196 176 -172T150 -112Q150 -74 178 -50T242 -8Q121 -6 65 48T8 200Q8 226 10 253T18 306Q40 433 110 493T283 553Q344 553 385 537T451 491T485 419T489 324Q489 315 488 302T484 273T479 244T474 218H218V212ZM230 324H295Q298 341 299 356L302 381Q302
414 278 414Q261 414 251 400T234 346L230 324Z" />
<glyph unicode="&#x11a;" glyph-name="Ecaron" horiz-adv-x="489" d="M392 720H222L150 857H293L322 819L362 857H510L392 720ZM93 693H526L499 525H301L286 434H450L424 270H260L245 168H456L430 0H-15L93 693Z" />
<glyph unicode="&#x11b;" glyph-name="ecaron" horiz-adv-x="493" d="M142 735H285L310 689L354 735H503L377 576H210L142 735ZM249 -8Q124 -8 66 46T8 200Q8 226 10 253T18 306Q40 433 110 493T283 553Q344 553 385 537T451 491T485 419T489 324Q489 315 488
302T484 273T479 244T474 218H218V212Q218 177 234 159T304 140Q348 140 386 148T446 164L426 34Q397 17 355 5T249 -8ZM230 324H295Q298 341 299 356L302 381Q302 414 278 414Q261 414 251 400T234 346L230 324Z" />
<glyph unicode="&#x11c;" glyph-name="Gcircumflex" horiz-adv-x="601" d="M324 857H494L567 720H424L395 758L354 720H206L324 857ZM308 -8Q164 -8 92 55T20 249Q20 274 23 309T34 389Q64 552 152 627T393 703Q481 703 528 690T596 664L570 493Q548 503 510 512T422
521Q387 521 363 512T322 485T295 438T278 371Q276 365 273 346T267 304T262 262T259 235Q257 197 270 178T311 159Q322 159 328 160T340 163L353 252H312L335 403H596L538 27Q502 14 443 3T308 -8Z" />
<glyph unicode="&#x11d;" glyph-name="gcircumflex" horiz-adv-x="533" d="M280 735H447L514 576H372L346 622L303 576H154L280 735ZM181 -197Q121 -197 66 -187T-25 -158L-2 -12Q30 -23 66 -31T144 -39Q180 -39 202 -34T238 -17T257 11T266 49L270 71H266Q243
47 214 34T147 21Q78 21 43 64T8 188Q8 212 10 245T21 316Q33 371 57 415T118 489T209 536T333 553Q367 553 400 550T462 541T514 530T550 519L473 29Q464 -32 443 -75T386 -145T299 -184T181 -197ZM252 161Q261 161 270 164T284 170L320 404Q312 408 299 408Q279
408 265 388T240 312Q235 280 231 251T227 199Q227 182 232 172T252 161Z" />
<glyph unicode="&#x11e;" glyph-name="Gbreve" horiz-adv-x="601" d="M394 715Q353 715 323 726T274 757T245 803T237 858H365Q364 843 372 834T396 825Q413 825 422 834T433 858H562Q558 829 546 804T513 758T463 727T394 715ZM308 -8Q164 -8 92 55T20 249Q20
274 23 309T34 389Q64 552 152 627T393 703Q481 703 528 690T596 664L570 493Q548 503 510 512T422 521Q387 521 363 512T322 485T295 438T278 371Q276 365 273 346T267 304T262 262T259 235Q257 197 270 178T311 159Q322 159 328 160T340 163L353 252H312L335
403H596L538 27Q502 14 443 3T308 -8Z" />
<glyph unicode="&#x11f;" glyph-name="gbreve" horiz-adv-x="533" d="M181 -197Q121 -197 66 -187T-25 -158L-2 -12Q30 -23 66 -31T144 -39Q180 -39 202 -34T238 -17T257 11T266 49L270 71H266Q243 47 214 34T147 21Q78 21 43 64T8 188Q8 212 10 245T21 316Q33
371 57 415T118 489T209 536T333 553Q367 553 400 550T462 541T514 530T550 519L473 29Q464 -32 443 -75T386 -145T299 -184T181 -197ZM252 161Q261 161 270 164T284 170L320 404Q312 408 299 408Q279 408 265 388T240 312Q235 280 231 251T227 199Q227 182 232
172T252 161ZM340 576Q259 576 220 618T186 729H315Q313 695 345 695Q362 695 371 704T383 729H512Q508 696 496 668T462 620T410 588T340 576Z" />
<glyph unicode="&#x120;" glyph-name="Gdotaccent" horiz-adv-x="601" d="M303 863H511L488 720H281L303 863ZM308 -8Q164 -8 92 55T20 249Q20 274 23 309T34 389Q64 552 152 627T393 703Q481 703 528 690T596 664L570 493Q548 503 510 512T422 521Q387 521 363
512T322 485T295 438T278 371Q276 365 273 346T267 304T262 262T259 235Q257 197 270 178T311 159Q322 159 328 160T340 163L353 252H312L335 403H596L538 27Q502 14 443 3T308 -8Z" />
<glyph unicode="&#x121;" glyph-name="gdotaccent" horiz-adv-x="533" d="M181 -197Q121 -197 66 -187T-25 -158L-2 -12Q30 -23 66 -31T144 -39Q180 -39 202 -34T238 -17T257 11T266 49L270 71H266Q243 47 214 34T147 21Q78 21 43 64T8 188Q8 212 10 245T21 316Q33
371 57 415T118 489T209 536T333 553Q367 553 400 550T462 541T514 530T550 519L473 29Q464 -32 443 -75T386 -145T299 -184T181 -197ZM252 161Q261 161 270 164T284 170L320 404Q312 408 299 408Q279 408 265 388T240 312Q235 280 231 251T227 199Q227 182 232
172T252 161ZM253 735H464L439 576H228L253 735Z" />
<glyph unicode="&#x122;" glyph-name="Gcommaaccent" horiz-adv-x="601" d="M200 -32H374L307 -182H167L200 -32ZM308 -8Q164 -8 92 55T20 249Q20 274 23 309T34 389Q64 552 152 627T393 703Q481 703 528 690T596 664L570 493Q548 503 510 512T422 521Q387 521
363 512T322 485T295 438T278 371Q276 365 273 346T267 304T262 262T259 235Q257 197 270 178T311 159Q322 159 328 160T340 163L353 252H312L335 403H596L538 27Q502 14 443 3T308 -8Z" />
<glyph unicode="&#x123;" glyph-name="gcommaaccent" horiz-adv-x="533" d="M419 580H241L308 730H448L419 580ZM181 -197Q121 -197 66 -187T-25 -158L-2 -12Q30 -23 66 -31T144 -39Q180 -39 202 -34T238 -17T257 11T266 49L270 71H266Q243 47 214 34T147 21Q78
21 43 64T8 188Q8 212 10 245T21 316Q33 371 57 415T118 489T209 536T333 553Q367 553 400 550T462 541T514 530T550 519L473 29Q464 -32 443 -75T386 -145T299 -184T181 -197ZM252 161Q261 161 270 164T284 170L320 404Q312 408 299 408Q279 408 265 388T240 312Q235
280 231 251T227 199Q227 182 232 172T252 161Z" />
<glyph unicode="&#x124;" glyph-name="Hcircumflex" horiz-adv-x="627" d="M93 693H329L289 440H388L428 693H664L555 0H319L362 270H262L220 0H-15L93 693ZM317 857H487L560 720H417L388 758L347 720H199L317 857Z" />
<glyph unicode="&#x125;" glyph-name="hcircumflex" horiz-adv-x="528" d="M95 735H306L269 496H273Q296 519 331 536T413 553Q470 553 499 524T529 436Q529 425 528 411T524 380L464 0H253L306 344Q307 349 307 354T308 365Q308 386 284 386Q275 386 267 383T251
376L192 0H-20L95 735ZM274 905H444L517 768H374L345 806L304 768H156L274 905Z" />
<glyph unicode="&#x126;" glyph-name="Hbar" horiz-adv-x="637" d="M50 601H83L98 693H334L319 601H418L433 693H669L654 601H688L672 503H639L560 0H324L367 270H267L225 0H-10L68 503H34L50 601ZM393 436L403 503H304L294 436H393Z" />
<glyph unicode="&#x127;" glyph-name="hbar" horiz-adv-x="528" d="M42 680H86L95 735H306L297 680H403L389 590H283L269 496H273Q296 519 331 536T413 553Q470 553 499 524T529 436Q529 425 528 411T524 380L464 0H253L306 344Q307 349 307 354T308 365Q308 386
284 386Q275 386 267 383T251 376L192 0H-20L72 590H28L42 680Z" />
<glyph unicode="&#x128;" glyph-name="Itilde" horiz-adv-x="294" d="M94 693H330L221 0H-15L94 693ZM289 720Q295 762 309 790T341 835T379 859T420 866Q438 866 453 862T481 853L504 844Q514 840 523 840Q534 840 539 846T548 863H668Q662 821 649 793T617 748T578
723T535 716Q518 716 503 720T476 729T453 739T434 743Q423 743 417 737T409 720H289Z" />
<glyph unicode="&#x129;" glyph-name="itilde" horiz-adv-x="260" d="M11 581Q21 662 54 700T133 738Q152 738 166 734T191 724T211 715T230 710Q251 710 254 736H367Q359 661 327 620T246 579Q228 579 214 583T188 593T167 603T148 608Q137 608 131 600T123 581H11ZM67
545H278L193 0H-19L67 545Z" />
<glyph unicode="&#x12a;" glyph-name="Imacron" horiz-adv-x="294" d="M94 693H330L221 0H-15L94 693ZM92 843H380L360 720H72L92 843Z" />
<glyph unicode="&#x12b;" glyph-name="imacron" horiz-adv-x="260" d="M70 705H328L307 576H48L70 705ZM67 545H279L193 0H-19L67 545Z" />
<glyph unicode="&#x12c;" glyph-name="Ibreve" horiz-adv-x="294" d="M94 693H330L221 0H-15L94 693ZM485 715Q444 715 414 726T365 757T336 803T328 858H456Q455 843 463 834T487 825Q504 825 513 834T524 858H653Q649 829 637 804T604 758T554 727T485 715Z" />
<glyph unicode="&#x12d;" glyph-name="ibreve" horiz-adv-x="260" d="M189 578Q148 578 120 589T73 621T48 668T42 727H168Q167 714 173 705T193 696Q220 696 223 727H349Q342 660 300 619T189 578ZM67 545H279L193 0H-19L67 545Z" />
<glyph unicode="&#x12e;" glyph-name="Iogonek" horiz-adv-x="294" d="M106 -196Q48 -196 22 -172T-5 -112Q-5 -91 4 -74T27 -43T61 -19T101 0H-15L93 693H329L221 4Q197 -10 180 -27T163 -61Q163 -81 186 -81Q192 -81 197 -80T206 -79L188 -181Q177 -187 154
-191T106 -196Z" />
<glyph unicode="&#x12f;" glyph-name="iogonek" horiz-adv-x="260" d="M-27 -112Q-27 -91 -18 -74T6 -43T41 -19T82 0H-19L67 545H278L193 4Q172 -12 157 -28T141 -61Q141 -81 164 -81Q169 -81 175 -80T183 -79L165 -181Q154 -187 132 -191T84 -196Q25 -196 -1
-172T-27 -112ZM96 735H308L284 576H71L96 735Z" />
<glyph unicode="&#x130;" glyph-name="Idotaccent" horiz-adv-x="294" d="M94 693H330L221 0H-15L94 693ZM392 863H600L577 720H370L392 863Z" />
<glyph unicode="&#x131;" glyph-name="dotlessi" horiz-adv-x="258" d="M69 541H281L194 0H-17L69 541Z" />
<glyph unicode="&#x132;" glyph-name="IJ" horiz-adv-x="685" d="M94 693H330L221 0H-15L94 693ZM419 -7Q365 -7 327 1T268 23L293 183Q302 181 316 179T346 176Q379 176 394 188T415 234L487 693H723L649 212Q640 156 624 115T581 47T514 7T419 -7Z" />
<glyph unicode="&#x133;" glyph-name="ij" horiz-adv-x="260" d="M200 545H411L326 0H114L200 545ZM229 735H441L417 576H204L229 735ZM112 -195Q77 -195 48 -187T5 -171L29 -42Q36 -44 44 -45T64 -46Q86 -46 97 -38T114 -4L200 545H412L322 -28Q316 -67 302 -98T262
-150T200 -183T112 -195ZM229 735H442L417 576H205L229 735Z" />
<glyph unicode="&#x134;" glyph-name="Jcircumflex" horiz-adv-x="392" d="M248 857H418L491 720H348L319 758L278 720H130L248 857ZM126 -7Q71 -7 34 1T-25 23L0 183Q9 181 23 179T53 176Q85 176 101 188T122 234L194 693H430L356 212Q347 156 331 115T288 47T221
7T126 -7Z" />
<glyph unicode="&#x135;" glyph-name="jcircumflex" horiz-adv-x="261" d="M121 735H288L355 576H213L187 622L144 576H-5L121 735ZM-21 -195Q-56 -195 -85 -187T-128 -171L-104 -42Q-97 -44 -89 -45T-69 -46Q-47 -46 -36 -38T-19 -4L67 545H279L189 -28Q183 -67
169 -98T129 -150T67 -183T-21 -195Z" />
<glyph unicode="&#x136;" glyph-name="Kcommaaccent" horiz-adv-x="617" d="M177 -32H351L284 -182H144L177 -32ZM93 693H329L287 426L444 693H678L477 359L572 0H327L264 279L221 0H-15L93 693Z" />
<glyph unicode="&#x137;" glyph-name="kcommaaccent" horiz-adv-x="533" d="M133 -32H307L240 -182H100L133 -32ZM225 227L190 0H-20L94 735H306L243 340L364 545H572L412 290L490 0H273L225 227Z" />
<glyph unicode="&#x139;" glyph-name="Lacute" horiz-adv-x="467" d="M447 862H651L543 720H382L447 862ZM93 693H329L247 168H437L411 0H-15L93 693Z" />
<glyph unicode="&#x13a;" glyph-name="lacute" horiz-adv-x="258" d="M188 905H392L284 763H123L188 905ZM96 735H308L192 0H-19L96 735Z" />
<glyph unicode="&#x13b;" glyph-name="Lcommaaccent" horiz-adv-x="467" d="M113 -32H287L220 -182H80L113 -32ZM93 693H329L247 168H437L411 0H-15L93 693Z" />
<glyph unicode="&#x13c;" glyph-name="lcommaaccent" horiz-adv-x="258" d="M252 -32H426L359 -182H219L252 -32ZM96 735H308L192 0H-19L96 735Z" />
<glyph unicode="&#x13d;" glyph-name="Lcaron" horiz-adv-x="467" d="M93 693H330L248 168H435L409 0H-15L93 693ZM363 693H516L455 506H326L363 693Z" />
<glyph unicode="&#x13e;" glyph-name="lcaron" horiz-adv-x="258" d="M305 578L333 735H461L409 578H305ZM96 735H308L192 0H-19L96 735Z" />
<glyph unicode="&#x13f;" glyph-name="Ldot" horiz-adv-x="467" d="M93 693H329L247 168H437L411 0H-15L93 693ZM326 442H494L468 287H301L326 442Z" />
<glyph unicode="&#x140;" glyph-name="ldot" horiz-adv-x="432" d="M291 433H450L427 284H268L291 433ZM96 735H308L192 0H-19L96 735Z" />
<glyph unicode="&#x141;" glyph-name="Lslash" horiz-adv-x="475" d="M24 210L-17 197L8 356L49 369L100 693H336L298 452L426 495L401 336L272 293L253 168H445L418 0H-9L24 210Z" />
<glyph unicode="&#x142;" glyph-name="lslash" horiz-adv-x="298" d="M21 383L63 402L116 735H327L291 505L337 526L312 366L266 345L212 0H0L38 243L-4 224L21 383Z" />
<glyph unicode="&#x143;" glyph-name="Nacute" horiz-adv-x="614" d="M355 862H559L451 720H290L355 862ZM93 693H333L380 486Q385 461 389 437T398 393Q402 370 405 349H408Q410 375 414 405Q417 430 420 462T429 526L455 693H650L542 0H320L274 189Q267 218
261 250T248 311Q241 344 234 375H231Q227 339 223 300Q219 267 214 226T202 143L180 0H-15L93 693Z" />
<glyph unicode="&#x144;" glyph-name="nacute" horiz-adv-x="528" d="M287 735H490L377 576H215L287 735ZM65 545H272L263 489H267Q292 514 328 533T414 553Q470 553 499 525T529 436Q529 425 528 411T524 380L464 0H253L306 347Q307 352 307 356T308 365Q308
386 284 386Q275 386 267 383T251 376L192 0H-20L65 545Z" />
<glyph unicode="&#x145;" glyph-name="Ncommaaccent" horiz-adv-x="614" d="M183 -31H357L290 -181H150L183 -31ZM93 693H333L380 486Q385 461 389 437T398 393Q402 370 405 349H408Q410 375 414 405Q417 430 420 462T429 526L455 693H650L542 0H320L274 189Q267
218 261 250T248 311Q241 344 234 375H231Q227 339 223 300Q219 267 214 226T202 143L180 0H-15L93 693Z" />
<glyph unicode="&#x146;" glyph-name="ncommaaccent" horiz-adv-x="528" d="M132 -32H306L239 -182H99L132 -32ZM65 545H272L263 489H267Q292 514 328 533T414 553Q470 553 499 525T529 436Q529 425 528 411T524 380L464 0H253L306 347Q307 352 307 356T308 365Q308
386 284 386Q275 386 267 383T251 376L192 0H-20L65 545Z" />
<glyph unicode="&#x147;" glyph-name="Ncaron" horiz-adv-x="614" d="M470 720H300L228 857H371L400 819L440 857H588L470 720ZM93 693H333L380 486Q385 461 389 437T398 393Q402 370 405 349H408Q410 375 414 405Q417 430 420 462T429 526L455 693H650L542 0H320L274
189Q267 218 261 250T248 311Q241 344 234 375H231Q227 339 223 300Q219 267 214 226T202 143L180 0H-15L93 693Z" />
<glyph unicode="&#x148;" glyph-name="ncaron" horiz-adv-x="528" d="M159 735H302L327 689L371 735H520L394 576H227L159 735ZM65 545H272L263 489H267Q292 514 328 533T414 553Q470 553 499 525T529 436Q529 425 528 411T524 380L464 0H253L306 347Q307 352
307 356T308 365Q308 386 284 386Q275 386 267 383T251 376L192 0H-20L65 545Z" />
<glyph unicode="&#x149;" glyph-name="napostrophe" horiz-adv-x="584" d="M-46 693H141L68 459H-88L-46 693ZM121 545H328L319 489H323Q348 514 384 533T470 553Q526 553 555 525T585 436Q585 425 584 411T580 380L520 0H309L362 347Q363 352 363 356T364 365Q364
386 340 386Q331 386 323 383T307 376L248 0H36L121 545Z" />
<glyph unicode="&#x14a;" glyph-name="Eng" horiz-adv-x="614" d="M324 -177Q273 -177 243 -168T199 -152L220 -22Q226 -24 239 -26T271 -29Q295 -29 309 -23T332 0L268 219Q261 246 255 273T244 324Q239 350 234 375H231Q230 350 227 321Q225 296 221 263T211
192L180 0H-15L93 693H333L380 497Q385 474 390 450T399 406Q403 383 408 361H410L415 411Q417 434 420 462T428 519L455 693H650L544 10Q530 -82 480 -129T324 -177Z" />
<glyph unicode="&#x14b;" glyph-name="eng" horiz-adv-x="528" d="M65 545H272L263 489H267Q292 514 329 533T417 553Q471 553 500 525T529 436Q529 425 528 411T524 380L461 -28Q448 -106 402 -150T258 -195Q219 -195 190 -187T146 -171L171 -44Q178 -46 186
-47T205 -48Q225 -48 236 -39T253 -4L306 347Q307 352 307 356T308 365Q308 386 284 386Q275 386 267 383T251 376L192 0H-20L65 545Z" />
<glyph unicode="&#x14c;" glyph-name="Omacron" horiz-adv-x="635" d="M254 843H548L528 720H235L254 843ZM289 -10Q229 -10 180 6T96 55T41 138T21 258Q21 284 22 314T29 371Q55 539 141 621T364 703Q426 703 476 687T562 638T617 555T636 437Q636 409 633 373T625
308Q597 152 513 71T289 -10ZM301 163Q315 163 325 171T344 199T360 252T375 334Q377 348 380 367T385 407T390 445T392 478Q392 508 382 519T354 530Q342 530 332 522T313 495T296 442T280 357Q277 339 275 319T270 280T266 243T264 215Q264 186 274 175T301 163Z"
/>
<glyph unicode="&#x14d;" glyph-name="omacron" horiz-adv-x="527" d="M186 704H470L449 576H165L186 704ZM229 -8Q123 -8 65 50T7 206Q7 228 9 251T16 297Q26 355 48 402T104 482T185 534T290 553Q348 553 391 537T463 493T506 426T520 343Q520 323 518 297T511
243Q502 187 480 141T424 61T341 10T229 -8ZM243 141Q251 141 258 145T270 161T281 193T292 246Q298 284 302 315T306 364Q306 405 281 405Q264 405 254 383T232 298Q227 267 223 234T218 181Q218 158 225 150T243 141Z" />
<glyph unicode="&#x14e;" glyph-name="Obreve" horiz-adv-x="635" d="M388 715Q347 715 317 726T268 757T239 803T231 858H359Q358 843 366 834T390 825Q407 825 416 834T427 858H556Q552 829 540 804T507 758T457 727T388 715ZM289 -10Q229 -10 180 6T96 55T41
138T21 258Q21 284 22 314T29 371Q55 539 141 621T364 703Q426 703 476 687T562 638T617 555T636 437Q636 409 633 373T625 308Q597 152 513 71T289 -10ZM301 163Q315 163 325 171T344 199T360 252T375 334Q377 348 380 367T385 407T390 445T392 478Q392 508 382
519T354 530Q342 530 332 522T313 495T296 442T280 357Q277 339 275 319T270 280T266 243T264 215Q264 186 274 175T301 163Z" />
<glyph unicode="&#x14f;" glyph-name="obreve" horiz-adv-x="527" d="M229 -8Q123 -8 65 50T7 206Q7 228 9 251T16 297Q26 355 48 402T104 482T185 534T290 553Q348 553 391 537T463 493T506 426T520 343Q520 323 518 297T511 243Q502 187 480 141T424 61T341
10T229 -8ZM243 141Q251 141 258 145T270 161T281 193T292 246Q298 284 302 315T306 364Q306 405 281 405Q264 405 254 383T232 298Q227 267 223 234T218 181Q218 158 225 150T243 141ZM321 576Q240 576 201 618T167 729H296Q294 695 326 695Q343 695 352 704T364
729H493Q489 696 477 668T443 620T391 588T321 576Z" />
<glyph unicode="&#x150;" glyph-name="Ohungarumlaut" horiz-adv-x="635" d="M453 863H633L561 720H403L453 863ZM242 863H422L350 720H193L242 863ZM289 -10Q229 -10 180 6T96 55T41 138T21 258Q21 284 22 314T29 371Q55 539 141 621T364 703Q426 703 476 687T562
638T617 555T636 437Q636 409 633 373T625 308Q597 152 513 71T289 -10ZM301 163Q315 163 325 171T344 199T360 252T375 334Q377 348 380 367T385 407T390 445T392 478Q392 508 382 519T354 530Q342 530 332 522T313 495T296 442T280 357Q277 339 275 319T270 280T266
243T264 215Q264 186 274 175T301 163Z" />
<glyph unicode="&#x151;" glyph-name="ohungarumlaut" horiz-adv-x="527" d="M387 735H566L489 576H334L387 735ZM181 735H360L283 576H128L181 735ZM229 -8Q123 -8 65 50T7 206Q7 228 9 251T16 297Q26 355 48 402T104 482T185 534T290 553Q348 553 391 537T463
493T506 426T520 343Q520 323 518 297T511 243Q502 187 480 141T424 61T341 10T229 -8ZM243 141Q251 141 258 145T270 161T281 193T292 246Q298 284 302 315T306 364Q306 405 281 405Q264 405 254 383T232 298Q227 267 223 234T218 181Q218 158 225 150T243 141Z"
/>
<glyph unicode="&#x152;" glyph-name="OE" horiz-adv-x="807" d="M300 0Q166 0 94 61T21 257Q21 283 22 309T27 358Q47 524 128 608T363 693H843L817 525H622L608 434H768L742 270H582L567 168H774L747 0H300ZM334 165L391 528H365Q346 528 334 520T312 493T295
443T280 365Q277 348 274 327T269 286T265 249T263 222Q263 193 274 179T315 165H334Z" />
<glyph unicode="&#x153;" glyph-name="oe" horiz-adv-x="761" d="M532 -8Q472 -8 433 8T371 57Q311 -8 212 -8Q107 -8 51 50T-5 206Q-5 226 -4 247T1 288Q10 348 32 396T88 480T169 534T273 553Q328 553 363 538T421 494Q450 523 488 538T572 553Q671 553 719
503T767 362Q767 335 762 299T749 218H493V212Q493 177 509 159T579 140Q622 140 660 148T721 164L701 34Q672 17 632 5T532 -8ZM230 141Q238 141 245 145T258 161T269 193T279 246Q286 284 290 315T294 364Q294 405 268 405Q260 405 254 400T241 383T230 350T219
298Q214 267 210 234T206 181Q206 158 212 150T230 141ZM505 324H569Q575 361 577 381Q577 414 552 414Q535 414 525 400T509 346L505 324Z" />
<glyph unicode="&#x154;" glyph-name="Racute" horiz-adv-x="599" d="M572 862H776L668 720H507L572 862ZM92 693H369Q602 693 602 505Q602 453 590 416Q576 371 551 344T493 299V295L560 0H322L281 234H252L220 0H-15L92 693ZM303 371Q326 371 338 386T356 434Q358
448 359 462T361 491Q361 511 354 523T323 535H302L276 371H303Z" />
<glyph unicode="&#x155;" glyph-name="racute" horiz-adv-x="365" d="M479 735H682L569 576H407L479 735ZM65 545H271L260 477H264Q284 511 310 531T373 551Q381 551 388 551T398 548L367 348Q360 350 346 350T320 351Q296 351 279 349T245 339L192 0H-19L65 545Z" />
<glyph unicode="&#x156;" glyph-name="Rcommaaccent" horiz-adv-x="599" d="M178 -32H352L285 -182H145L178 -32ZM92 693H369Q602 693 602 505Q602 453 590 416Q576 371 551 344T493 299V295L560 0H322L281 234H252L220 0H-15L92 693ZM303 371Q326 371 338 386T356
434Q358 448 359 462T361 491Q361 511 354 523T323 535H302L276 371H303Z" />
<glyph unicode="&#x157;" glyph-name="rcommaaccent" horiz-adv-x="365" d="M252 -32H426L359 -182H219L252 -32ZM65 545H271L260 477H264Q284 511 310 531T373 551Q381 551 388 551T398 548L367 348Q360 350 346 350T320 351Q296 351 279 349T245 339L192 0H-19L65 545Z" />
<glyph unicode="&#x158;" glyph-name="Rcaron" horiz-adv-x="599" d="M430 720H260L188 857H331L360 819L400 857H548L430 720ZM92 693H369Q602 693 602 505Q602 453 590 416Q576 371 551 344T493 299V295L560 0H322L281 234H252L220 0H-15L92 693ZM303 371Q326
371 338 386T356 434Q358 448 359 462T361 491Q361 511 354 523T323 535H302L276 371H303Z" />
<glyph unicode="&#x159;" glyph-name="rcaron" horiz-adv-x="365" d="M343 735H486L511 689L555 735H704L578 576H411L343 735ZM65 545H271L260 477H264Q284 511 310 531T373 551Q381 551 388 551T398 548L367 348Q360 350 346 350T320 351Q296 351 279 349T245
339L192 0H-19L65 545Z" />
<glyph unicode="&#x15a;" glyph-name="Sacute" horiz-adv-x="489" d="M184 -8Q119 -8 65 5T-21 39L8 202Q39 187 73 176T152 165Q178 165 192 169T215 181Q227 191 227 210Q227 227 218 236T185 258L153 276Q97 308 68 351T39 458Q39 481 44 515T67 581Q99 645
161 674T318 703Q390 703 436 689T504 663L476 500Q447 514 409 523T325 532Q311 532 300 530T280 520Q270 510 270 495Q270 481 279 472T311 452L346 434Q376 419 399 402T437 363T461 314T470 253Q470 220 464 186T445 125Q412 55 346 24T184 -8ZM539 862H743L635
720H474L539 862Z" />
<glyph unicode="&#x15b;" glyph-name="sacute" horiz-adv-x="415" d="M482 735H685L572 576H410L482 735ZM154 -8Q128 -8 102 -5T53 4T12 17T-19 32L3 171Q30 158 65 148T133 138Q154 138 164 140T180 149Q185 155 185 166Q185 176 176 182T150 196L117 212Q67
237 46 274T24 363Q24 373 25 389T32 419Q55 494 113 523T260 553Q309 553 347 544T408 522L385 382Q362 393 330 401T269 410Q252 410 242 408T226 399Q223 394 223 386Q223 376 233 370T260 356L292 341Q346 315 369 283T392 199Q392 191 391 181T388 156Q374
73 315 33T154 -8Z" />
<glyph unicode="&#x15c;" glyph-name="Scircumflex" horiz-adv-x="489" d="M251 857H421L494 720H351L322 758L281 720H133L251 857ZM184 -8Q119 -8 65 5T-21 39L8 202Q39 187 73 176T152 165Q178 165 192 169T215 181Q227 191 227 210Q227 227 218 236T185 258L153
276Q97 308 68 351T39 458Q39 481 44 515T67 581Q99 645 161 674T318 703Q390 703 436 689T504 663L476 500Q447 514 409 523T325 532Q311 532 300 530T280 520Q270 510 270 495Q270 481 279 472T311 452L346 434Q376 419 399 402T437 363T461 314T470 253Q470
220 464 186T445 125Q412 55 346 24T184 -8Z" />
<glyph unicode="&#x15d;" glyph-name="scircumflex" horiz-adv-x="415" d="M454 735H621L688 576H546L520 622L477 576H328L454 735ZM154 -8Q128 -8 102 -5T53 4T12 17T-19 32L3 171Q30 158 65 148T133 138Q154 138 164 140T180 149Q185 155 185 166Q185 176 176
182T150 196L117 212Q67 237 46 274T24 363Q24 373 25 389T32 419Q55 494 113 523T260 553Q309 553 347 544T408 522L385 382Q362 393 330 401T269 410Q252 410 242 408T226 399Q223 394 223 386Q223 376 233 370T260 356L292 341Q346 315 369 283T392 199Q392
191 391 181T388 156Q374 73 315 33T154 -8Z" />
<glyph unicode="&#x15e;" glyph-name="Scedilla" horiz-adv-x="489" d="M84 -154Q126 -151 145 -145T165 -121Q165 -110 155 -104T114 -96L128 -5Q80 0 42 11T-21 39L8 202Q39 187 73 176T152 165Q178 165 192 169T215 181Q227 191 227 210Q227 227 218 236T185
258L153 276Q97 308 68 351T39 458Q39 481 44 515T67 581Q99 645 161 674T318 703Q390 703 436 689T504 663L476 500Q447 514 409 523T325 532Q311 532 300 530T280 520Q270 510 270 495Q270 481 279 472T311 452L346 434Q376 419 399 402T437 363T461 314T470
253Q470 220 464 186T445 125Q414 60 356 29T214 -7L210 -39Q255 -41 277 -61T300 -113Q300 -166 247 -196T73 -228L84 -154Z" />
<glyph unicode="&#x15f;" glyph-name="scedilla" horiz-adv-x="415" d="M60 -154Q102 -151 121 -145T141 -121Q141 -110 131 -104T90 -96L104 -5Q65 0 32 10T-19 32L3 171Q30 158 65 148T133 138Q154 138 164 140T180 149Q185 155 185 166Q185 176 176 182T150
196L117 212Q67 237 46 274T24 363Q24 373 25 389T32 419Q55 494 113 523T260 553Q309 553 347 544T408 522L385 382Q362 393 330 401T269 410Q252 410 242 408T226 399Q223 394 223 386Q223 376 233 370T260 356L292 341Q346 315 369 283T392 199Q392 191 391
181T388 156Q375 81 325 41T190 -6L186 -39Q231 -41 253 -61T276 -113Q276 -166 223 -196T49 -228L60 -154Z" />
<glyph unicode="&#x160;" glyph-name="Scaron" horiz-adv-x="489" d="M388 720H218L146 857H289L318 819L358 857H506L388 720ZM184 -8Q119 -8 65 5T-21 39L8 202Q39 187 73 176T152 165Q178 165 192 169T215 181Q227 191 227 210Q227 227 218 236T185 258L153
276Q97 308 68 351T39 458Q39 481 44 515T67 581Q99 645 161 674T318 703Q390 703 436 689T504 663L476 500Q447 514 409 523T325 532Q311 532 300 530T280 520Q270 510 270 495Q270 481 279 472T311 452L346 434Q376 419 399 402T437 363T461 314T470 253Q470
220 464 186T445 125Q412 55 346 24T184 -8Z" />
<glyph unicode="&#x161;" glyph-name="scaron" horiz-adv-x="415" d="M353 735H496L521 689L565 735H714L588 576H421L353 735ZM154 -8Q128 -8 102 -5T53 4T12 17T-19 32L3 171Q30 158 65 148T133 138Q154 138 164 140T180 149Q185 155 185 166Q185 176 176 182T150
196L117 212Q67 237 46 274T24 363Q24 373 25 389T32 419Q55 494 113 523T260 553Q309 553 347 544T408 522L385 382Q362 393 330 401T269 410Q252 410 242 408T226 399Q223 394 223 386Q223 376 233 370T260 356L292 341Q346 315 369 283T392 199Q392 191 391
181T388 156Q374 73 315 33T154 -8Z" />
<glyph unicode="&#x162;" glyph-name="Tcommaaccent" horiz-adv-x="524" d="M132 -32H306L239 -182H99L132 -32ZM183 525H48L75 693H578L551 525H419L336 0H100L183 525Z" />
<glyph unicode="&#x163;" glyph-name="tcommaaccent" horiz-adv-x="359" d="M322 -32H496L429 -182H289L322 -32ZM186 -8Q98 -8 60 31T36 160L74 400H25L47 545H97L116 666H328L309 545H387L364 400H286L252 180Q249 162 257 155T286 148Q297 148 308 149T325
152L303 13Q288 5 256 -1T186 -8Z" />
<glyph unicode="&#x164;" glyph-name="Tcaron" horiz-adv-x="524" d="M408 720H238L166 857H309L338 819L378 857H526L408 720ZM183 525H48L75 693H578L551 525H419L336 0H100L183 525Z" />
<glyph unicode="&#x165;" glyph-name="tcaron" horiz-adv-x="359" d="M345 578L373 735H501L449 578H345ZM186 -8Q98 -8 60 31T36 160L74 400H25L47 545H97L116 666H328L309 545H387L364 400H286L252 180Q249 162 257 155T286 148Q297 148 308 149T325 152L303
13Q288 5 256 -1T186 -8Z" />
<glyph unicode="&#x166;" glyph-name="Tbar" horiz-adv-x="524" d="M69 409H164L183 525H48L75 693H578L551 525H419L400 409H497L479 293H382L336 0H100L146 293H51L69 409Z" />
<glyph unicode="&#x167;" glyph-name="tbar" horiz-adv-x="359" d="M16 344H65L74 400H25L47 545H97L116 666H328L309 545H387L364 400H286L277 344H355L339 246H262L252 180Q249 162 257 155T286 148Q297 148 308 149T325 152L303 13Q288 5 256 -1T186 -8Q98
-8 60 31T36 160L49 246H0L16 344Z" />
<glyph unicode="&#x168;" glyph-name="Utilde" horiz-adv-x="607" d="M272 -10Q200 -10 151 4T72 45T29 108T15 189Q15 221 21 256L89 693H325L253 232Q252 225 252 219T251 206Q251 188 260 177T294 165Q324 165 336 182T353 230L426 693H645L573 232Q563 169
542 123T484 48T396 4T272 -10ZM196 720Q202 762 216 790T248 835T286 859T327 866Q345 866 360 862T388 853L411 844Q421 840 430 840Q441 840 446 846T455 863H575Q569 821 556 793T524 748T485 723T442 716Q425 716 410 720T383 729T360 739T341 743Q330 743
324 737T316 720H196Z" />
<glyph unicode="&#x169;" glyph-name="utilde" horiz-adv-x="525" d="M119 -8Q60 -8 31 23T1 111Q1 125 2 140T7 180L64 545H276L222 200Q221 192 221 187T220 176Q220 156 243 156Q252 156 260 159T275 167L335 545H546L461 0H278L270 57H266Q238 29 203 11T119
-8ZM133 581Q143 664 181 701T269 738Q288 738 303 734T330 724T354 714T376 709Q388 709 395 716T404 736H519Q511 661 474 620T383 579Q363 579 348 583T320 593T297 603T276 608Q264 608 258 600T249 581H133Z" />
<glyph unicode="&#x16a;" glyph-name="Umacron" horiz-adv-x="607" d="M272 -10Q200 -10 151 4T72 45T29 108T15 189Q15 221 21 256L89 693H325L253 232Q252 225 252 219T251 206Q251 188 260 177T294 165Q324 165 336 182T353 230L426 693H645L573 232Q563 169
542 123T484 48T396 4T272 -10ZM249 843H543L523 720H230L249 843Z" />
<glyph unicode="&#x16b;" glyph-name="umacron" horiz-adv-x="525" d="M119 -8Q60 -8 31 23T1 111Q1 125 2 140T7 180L64 545H276L222 200Q221 192 221 187T220 176Q220 156 243 156Q252 156 260 159T275 167L335 545H546L461 0H278L270 57H266Q238 29 203 11T119
-8ZM189 704H473L452 576H168L189 704Z" />
<glyph unicode="&#x16c;" glyph-name="Ubreve" horiz-adv-x="607" d="M272 -10Q200 -10 151 4T72 45T29 108T15 189Q15 221 21 256L89 693H325L253 232Q252 225 252 219T251 206Q251 188 260 177T294 165Q324 165 336 182T353 230L426 693H645L573 232Q563 169
542 123T484 48T396 4T272 -10ZM384 715Q343 715 313 726T264 757T235 803T227 858H355Q354 843 362 834T386 825Q403 825 412 834T423 858H552Q548 829 536 804T503 758T453 727T384 715Z" />
<glyph unicode="&#x16d;" glyph-name="ubreve" horiz-adv-x="525" d="M119 -8Q60 -8 31 23T1 111Q1 125 2 140T7 180L64 545H276L222 200Q221 192 221 187T220 176Q220 156 243 156Q252 156 260 159T275 167L335 545H546L461 0H278L270 57H266Q238 29 203 11T119
-8ZM329 576Q248 576 209 618T175 729H304Q302 695 334 695Q351 695 360 704T372 729H501Q497 696 485 668T451 620T399 588T329 576Z" />
<glyph unicode="&#x16e;" glyph-name="Uring" horiz-adv-x="607" d="M272 -10Q200 -10 151 4T72 45T29 108T15 189Q15 221 21 256L89 693H325L253 232Q252 225 252 219T251 206Q251 188 260 177T294 165Q324 165 336 182T353 230L426 693H645L573 232Q563 169
542 123T484 48T396 4T272 -10ZM381 956Q324 956 290 988T256 1071Q256 1125 293 1158T386 1191Q443 1191 476 1160T510 1078Q510 1023 473 990T381 956ZM383 1034Q399 1034 409 1044T420 1075Q420 1093 410 1103T383 1114Q367 1114 357 1104T346 1073Q346 1056
355 1045T383 1034Z" />
<glyph unicode="&#x16f;" glyph-name="uring" horiz-adv-x="525" d="M318 573Q266 573 233 604T199 684Q199 737 235 770T328 803Q382 803 415 773T448 693Q448 637 412 605T318 573ZM322 649Q339 649 349 660T360 691Q360 708 351 717T325 727Q309 727 298 717T287
686Q287 670 296 660T322 649ZM119 -8Q60 -8 31 23T1 111Q1 125 2 140T7 180L64 545H276L222 200Q221 192 221 187T220 176Q220 156 243 156Q252 156 260 159T275 167L335 545H546L461 0H278L270 57H266Q238 29 203 11T119 -8Z" />
<glyph unicode="&#x170;" glyph-name="Uhungarumlaut" horiz-adv-x="607" d="M453 863H633L561 720H403L453 863ZM242 863H422L350 720H193L242 863ZM272 -10Q200 -10 151 4T72 45T29 108T15 189Q15 221 21 256L89 693H325L253 232Q252 225 252 219T251 206Q251
188 260 177T294 165Q324 165 336 182T353 230L426 693H645L573 232Q563 169 542 123T484 48T396 4T272 -10Z" />
<glyph unicode="&#x171;" glyph-name="uhungarumlaut" horiz-adv-x="525" d="M119 -8Q60 -8 31 23T1 111Q1 125 2 140T7 180L64 545H276L222 200Q221 192 221 187T220 176Q220 156 243 156Q252 156 260 159T275 167L335 545H546L461 0H278L270 57H266Q238 29 203
11T119 -8ZM388 735H567L490 576H335L388 735ZM182 735H361L284 576H129L182 735Z" />
<glyph unicode="&#x172;" glyph-name="Uogonek" horiz-adv-x="607" d="M271 -196Q213 -196 187 -172T161 -112Q161 -76 186 -51T247 -9Q182 -7 138 8T67 49T27 110T15 189Q15 221 21 256L89 693H325L253 232Q252 225 252 219T251 206Q251 189 260 177T294 165Q324
165 336 182T353 230L426 693H645L573 232Q565 181 551 145T517 83T471 39T411 8Q375 -6 352 -22T329 -61Q329 -81 351 -81Q357 -81 363 -80T371 -79L353 -181Q342 -187 320 -191T271 -196Z" />
<glyph unicode="&#x173;" glyph-name="uogonek" horiz-adv-x="525" d="M119 -8Q60 -8 31 23T1 111Q1 125 2 140T7 180L64 545H276L222 200Q221 192 221 187T220 176Q220 156 243 156Q252 156 260 159T275 167L335 545H546L461 4Q441 -10 425 -27T409 -61Q409 -81
431 -81Q437 -81 443 -80T451 -79L433 -181Q422 -187 400 -191T351 -196Q293 -196 267 -172T241 -112Q241 -91 250 -74T274 -43T308 -19T349 0H278L270 57H266Q238 29 203 11T119 -8Z" />
<glyph unicode="&#x174;" glyph-name="Wcircumflex" horiz-adv-x="859" d="M449 857H619L692 720H549L520 758L479 720H331L449 857ZM326 693H555L550 476Q549 442 549 413T548 360Q547 334 547 311H550Q555 331 563 355Q569 375 578 403T598 465L670 693H856V464Q856
435 856 408T855 358Q854 332 854 310H858Q865 332 872 357Q878 378 886 405T903 464L969 693H1175L942 0H706L707 209V306Q707 332 708 356H705Q698 333 691 308Q685 287 677 261T661 209L595 0H346L326 693Z" />
<glyph unicode="&#x175;" glyph-name="wcircumflex" horiz-adv-x="715" d="M352 735H519L586 576H444L418 622L375 576H226L352 735ZM45 545H248L243 388Q242 366 242 344T240 304Q239 283 238 264H240Q245 282 251 302Q256 319 263 341T278 387L329 545H489L487
387Q486 364 486 342T485 302Q484 282 484 264H487Q492 283 498 304Q503 322 509 344T521 387L571 545H756L550 0H360L358 107Q357 133 357 159T358 209Q358 235 359 260H356Q348 233 340 207Q333 184 325 158T308 107L271 0H68L45 545Z" />
<glyph unicode="&#x176;" glyph-name="Ycircumflex" horiz-adv-x="585" d="M170 260L66 693H301L316 574Q319 550 320 529T324 490Q326 471 327 454H329Q335 471 342 490Q348 507 356 528T376 574L429 693H651L407 255L367 0H130L170 260ZM302 857H472L545 720H402L373
758L332 720H184L302 857Z" />
<glyph unicode="&#x177;" glyph-name="ycircumflex" horiz-adv-x="515" d="M63 -196Q30 -196 2 -191T-43 -178L-21 -38L6 -43Q23 -46 39 -46Q91 -46 105 -14L111 1L40 545H251L254 381V293Q254 271 255 252H258Q264 272 270 293Q275 311 282 333T298 379L358 545H559L298
-42Q280 -83 260 -112T212 -160T149 -187T63 -196ZM251 735H418L485 576H343L317 622L274 576H125L251 735Z" />
<glyph unicode="&#x178;" glyph-name="Ydieresis" horiz-adv-x="585" d="M170 260L66 693H301L316 574Q319 550 320 529T324 490Q326 471 327 454H329Q335 471 342 490Q348 507 356 528T376 574L429 693H651L407 255L367 0H130L170 260ZM411 863H583L561 720H389L411
863ZM199 863H371L349 720H177L199 863Z" />
<glyph unicode="&#x179;" glyph-name="Zacute" horiz-adv-x="508" d="M553 862H757L649 720H488L553 862ZM2 164L249 522V525H66L92 693H547L521 529L271 171V168H471L444 0H-23L2 164Z" />
<glyph unicode="&#x17a;" glyph-name="zacute" horiz-adv-x="433" d="M510 735H713L600 576H438L510 735ZM-4 150L187 395V398H35L59 545H461L440 407L235 150V147H401L378 0H-28L-4 150Z" />
<glyph unicode="&#x17b;" glyph-name="Zdotaccent" horiz-adv-x="508" d="M2 164L249 522V525H66L92 693H547L521 529L271 171V168H471L444 0H-23L2 164ZM247 863H455L432 720H225L247 863Z" />
<glyph unicode="&#x17c;" glyph-name="zdotaccent" horiz-adv-x="433" d="M-4 150L187 395V398H35L59 545H461L440 407L235 150V147H401L378 0H-28L-4 150ZM189 735H400L375 576H164L189 735Z" />
<glyph unicode="&#x17d;" glyph-name="Zcaron" horiz-adv-x="508" d="M411 720H241L169 857H312L341 819L381 857H529L411 720ZM2 164L249 522V525H66L92 693H547L521 529L271 171V168H471L444 0H-23L2 164Z" />
<glyph unicode="&#x17e;" glyph-name="zcaron" horiz-adv-x="433" d="M122 735H265L290 689L334 735H483L357 576H190L122 735ZM-4 150L187 395V398H35L59 545H461L440 407L235 150V147H401L378 0H-28L-4 150Z" />
<glyph unicode="&#x192;" glyph-name="florin" horiz-adv-x="417" d="M48 416H100L115 505Q130 606 190 653T342 700Q388 700 416 693T456 679L434 539Q426 541 419 542T401 544Q376 544 365 532T348 481L337 416H412L388 270H314L275 21Q261 -82 207 -131T49
-181Q9 -181 -19 -174T-58 -161L-36 -22Q-26 -27 -9 -27Q10 -27 21 -16T37 24L76 270H25L48 416Z" />
<glyph unicode="&#x1fa;" glyph-name="Aringacute" horiz-adv-x="627" d="M245 693H522L583 0H355V93H212L179 0H-42L245 693ZM266 241H350L348 336Q347 362 347 385V467H343Q337 448 330 427Q324 409 316 386T299 336L266 241ZM396 1097H600L492 955H331L396
1097ZM393 707Q336 707 302 739T268 822Q268 876 305 909T398 942Q455 942 488 911T522 829Q522 774 485 741T393 707ZM395 785Q411 785 421 795T432 826Q432 844 422 854T395 865Q379 865 369 855T358 824Q358 807 367 796T395 785Z" />
<glyph unicode="&#x1fb;" glyph-name="aringacute" horiz-adv-x="527" d="M141 -8Q79 -8 42 33T4 162Q4 194 8 233T23 312Q40 378 69 423T137 498T225 540T331 553Q404 553 459 542T542 519L461 0H286L280 58H276Q251 28 219 10T141 -8ZM249 142Q257 142 263 145T273
152L312 402Q307 405 297 405Q273 405 260 381T236 298Q234 287 232 271T227 237T224 204T222 177Q222 160 228 151T249 142ZM351 573Q299 573 266 604T232 684Q232 737 268 770T361 803Q415 803 448 773T481 693Q481 637 445 605T351 573ZM355 649Q372 649 382
660T393 691Q393 708 384 717T358 727Q342 727 331 717T320 686Q320 670 329 660T355 649ZM359 965H563L455 823H294L359 965Z" />
<glyph unicode="&#x1fc;" glyph-name="AEacute" horiz-adv-x="835" d="M562 862H766L658 720H497L562 862ZM334 693H872L845 525H660L646 434H797L771 270H620L605 168H803L776 0H347L364 108H224L170 0H-44L334 693ZM387 256L426 504H423L301 256H387Z" />
<glyph unicode="&#x1fd;" glyph-name="aeacute" horiz-adv-x="742" d="M424 735H627L514 576H352L424 735ZM498 -8Q355 -8 297 64Q267 29 226 11T134 -8Q62 -8 26 29T-11 127Q-11 144 -9 161T-2 193Q7 221 23 242T63 278T120 302T196 319L274 331L276 341Q278
351 278 357Q278 378 261 386T205 395Q170 395 132 390T70 376L92 517Q129 532 173 542T279 553Q371 553 416 514Q445 534 478 543T546 553Q603 553 641 537T703 491T734 419T737 324Q737 315 736 302T732 273T727 244T722 218H467V212Q467 194 470 181T482 158T509
145T553 140Q596 140 634 148T694 164L674 34Q645 17 603 5T498 -8ZM221 124Q242 124 262 142Q260 156 259 170T257 200V226H244Q227 226 217 220T201 190Q199 179 198 170T197 153Q197 124 221 124ZM479 325H543Q548 348 549 366T546 395Q543 414 526 414Q509
414 499 400T482 346L479 325Z" />
<glyph unicode="&#x1fe;" glyph-name="Oslashacute" horiz-adv-x="635" d="M288 -10Q183 -10 115 40L80 0H-40L56 108Q21 169 21 258Q21 285 23 317T30 375Q57 541 143 622T365 703Q470 703 538 656L571 693H691L600 589Q617 559 626 521T636 437Q636 405 633
366T621 294Q592 145 509 68T288 -10ZM300 157Q317 157 330 165T353 193T372 247T389 332L392 354L252 195Q256 175 269 166T300 157ZM264 345L403 503Q398 521 386 528T356 536Q340 536 328 529T305 501T285 447T267 359L264 345ZM345 862H549L441 720H280L345
862Z" />
<glyph unicode="&#x1ff;" glyph-name="oslashacute" horiz-adv-x="527" d="M231 -8Q146 -8 90 31L62 0H-41L39 87Q10 137 10 206Q10 226 12 248T17 290Q26 349 48 397T105 480T187 534T293 553Q380 553 436 517L462 545H564L489 464Q523 414 523 343Q523 324 522
299T515 247Q506 190 485 143T428 63T344 11T231 -8ZM245 130Q257 130 266 135T282 152T296 186T309 242Q311 250 312 258L314 274L207 157Q211 142 221 136T245 130ZM216 279L322 393Q313 415 285 415Q274 415 265 410T248 392T234 357T221 302L216 279ZM287 735H490L377
576H215L287 735Z" />
<glyph unicode="&#x218;" glyph-name="Scommaaccent" horiz-adv-x="489" d="M105 -32H279L212 -182H72L105 -32ZM184 -8Q119 -8 65 5T-21 39L8 202Q39 187 73 176T152 165Q178 165 192 169T215 181Q227 191 227 210Q227 227 218 236T185 258L153 276Q97 308 68
351T39 458Q39 481 44 515T67 581Q99 645 161 674T318 703Q390 703 436 689T504 663L476 500Q447 514 409 523T325 532Q311 532 300 530T280 520Q270 510 270 495Q270 481 279 472T311 452L346 434Q376 419 399 402T437 363T461 314T470 253Q470 220 464 186T445
125Q412 55 346 24T184 -8Z" />
<glyph unicode="&#x219;" glyph-name="scommaaccent" horiz-adv-x="415" d="M329 -32H503L436 -182H296L329 -32ZM154 -8Q128 -8 102 -5T53 4T12 17T-19 32L3 171Q30 158 65 148T133 138Q154 138 164 140T180 149Q185 155 185 166Q185 176 176 182T150 196L117
212Q67 237 46 274T24 363Q24 373 25 389T32 419Q55 494 113 523T260 553Q309 553 347 544T408 522L385 382Q362 393 330 401T269 410Q252 410 242 408T226 399Q223 394 223 386Q223 376 233 370T260 356L292 341Q346 315 369 283T392 199Q392 191 391 181T388
156Q374 73 315 33T154 -8Z" />
<glyph unicode="&#x21a;" glyph-name="uni021A" horiz-adv-x="524" d="M132 -32H306L239 -182H99L132 -32ZM183 525H48L75 693H578L551 525H419L336 0H100L183 525Z" />
<glyph unicode="&#x21b;" glyph-name="uni021B" horiz-adv-x="359" d="M322 -32H496L429 -182H289L322 -32ZM186 -8Q98 -8 60 31T36 160L74 400H25L47 545H97L116 666H328L309 545H387L364 400H286L252 180Q249 162 257 155T286 148Q297 148 308 149T325 152L303
13Q288 5 256 -1T186 -8Z" />
<glyph unicode="&#x237;" glyph-name="uni0237" horiz-adv-x="261" d="M-21 -195Q-56 -195 -85 -187T-128 -171L-104 -42Q-97 -44 -89 -45T-69 -46Q-47 -46 -36 -38T-19 -4L67 545H279L189 -28Q183 -67 169 -98T129 -150T67 -183T-21 -195Z" />
<glyph unicode="&#x2c6;" glyph-name="circumflex" horiz-adv-x="427" d="M204 735H371L438 576H296L270 622L227 576H78L204 735Z" />
<glyph unicode="&#x2c7;" glyph-name="caron" horiz-adv-x="427" d="M106 735H249L274 689L318 735H467L341 576H174L106 735Z" />
<glyph unicode="&#x2d8;" glyph-name="breve" horiz-adv-x="427" d="M280 576Q199 576 160 618T126 729H255Q253 695 285 695Q302 695 311 704T323 729H452Q448 696 436 668T402 620T350 588T280 576Z" />
<glyph unicode="&#x2d9;" glyph-name="dotaccent" horiz-adv-x="427" d="M176 735H387L362 576H151L176 735Z" />
<glyph unicode="&#x2da;" glyph-name="ring" horiz-adv-x="427" d="M274 573Q222 573 189 604T155 684Q155 737 191 770T284 803Q338 803 371 773T404 693Q404 637 368 605T274 573ZM278 649Q295 649 305 660T316 691Q316 708 307 717T281 727Q265 727 254 717T243
686Q243 670 252 660T278 649Z" />
<glyph unicode="&#x2db;" glyph-name="ogonek" horiz-adv-x="427" d="M209 -196Q151 -196 125 -172T99 -112Q99 -91 108 -74T132 -43T166 -19T207 0H315Q298 -12 283 -28T267 -61Q267 -81 289 -81Q295 -81 301 -80T309 -79L291 -181Q280 -187 258 -191T209 -196Z" />
<glyph unicode="&#x2dc;" glyph-name="tilde" horiz-adv-x="427" d="M82 581Q92 664 130 701T218 738Q237 738 252 734T279 724T303 714T325 709Q337 709 344 716T353 736H468Q460 661 423 620T332 579Q312 579 297 583T269 593T246 603T225 608Q213 608 207 600T198
581H82Z" />
<glyph unicode="&#x2dd;" glyph-name="hungarumlaut" horiz-adv-x="427" d="M327 735H506L429 576H274L327 735ZM121 735H300L223 576H68L121 735Z" />
</font>
</defs>
</svg>
