<?xml version="1.0" standalone="no"?> <!DOCTYPE svg PUBLIC "-//W3C//DTD SVG 1.0//EN" "http://www.w3.org/TR/2001/REC-SVG-20010904/DTD/svg10.dtd" > <svg xmlns="http://www.w3.org/2000/svg" width="100%" height="100%">
<defs >
<font horiz-adv-x="482" ><font-face
    font-family=""
    units-per-em="1000"
    panose-1="2 11 10 3 3 2 2 6 2 3"
    ascent="809"
    descent="-191"
    alphabetic="0" />
<missing-glyph horiz-adv-x="424" />
<glyph unicode=" " glyph-name="space" horiz-adv-x="129" />
<glyph unicode="!" glyph-name="exclam" horiz-adv-x="267" d="M25 693H241L212 221H54L25 693ZM45 163H222V0H45V163Z" />
<glyph unicode="&quot;" glyph-name="quotedbl" horiz-adv-x="410" d="M19 693H188L173 468H35L19 693ZM221 693H390L375 468H237L221 693Z" />
<glyph unicode="#" glyph-name="numbersign" horiz-adv-x="502" d="M48 542H120L139 693H260L243 542H305L324 693H446L427 542H482V396H410L398 302H454V156H380L362 0H240L259 156H195L177 0H56L75 156H18V302H91L103 396H48V542ZM213 302H276L288 396H224L213 302Z" />
<glyph unicode="$" glyph-name="dollar" horiz-adv-x="497" d="M128 -2Q60 7 21 32V174Q54 161 88 152T158 137L188 273Q108 290 62 339T16 486Q16 533 30 572T73 641T147 686T254 703H280L294 765H377L362 695Q391 690 411 683T446 667V525Q423 534 394 542T331
556L304 431Q396 411 439 365T482 223Q482 108 416 49T228 -10H208L185 -117H103L128 -2ZM306 198Q306 221 298 234T266 255L240 135Q275 139 290 154T306 198ZM185 502Q185 482 193 470T225 448L250 561Q214 559 200 545T185 502Z" />
<glyph unicode="%" glyph-name="percent" horiz-adv-x="817" d="M532 713H658L278 -40H152L532 713ZM182 316Q104 316 59 362T13 506V513Q13 610 58 656T181 703Q218 703 249 693T303 660T338 602T351 516V510Q351 460 339 424T304 363T250 328T182 316ZM182 411Q201
411 209 426T218 490V529Q218 578 209 593T182 609Q163 609 155 593T147 530V491Q147 442 155 427T182 411ZM636 -9Q558 -9 513 37T467 180V188Q467 285 513 331T635 378Q672 378 703 368T756 334T791 276T804 191V184Q804 134 792 98T757 38T704 3T636 -9ZM637
86Q656 86 664 100T672 164V203Q672 252 663 268T636 284Q617 284 610 268T602 204V165Q602 117 610 102T637 86Z" />
<glyph unicode="&amp;" glyph-name="ampersand" horiz-adv-x="639" d="M257 -9Q134 -9 74 45T13 193Q13 267 50 315T151 393Q130 425 119 455T108 524Q108 563 122 596T163 653T230 690T321 703Q423 703 472 659T521 544Q521 481 487 441T385 365L456 264Q471
306 477 359H618Q615 291 596 237T545 139L644 0H427L408 26Q371 8 333 0T257 -9ZM289 122Q314 122 335 129L226 285Q202 255 202 210Q202 168 224 145T289 122ZM291 536Q291 516 298 497T322 453Q342 470 352 491T363 539Q363 588 327 588Q310 588 301 578T291
536Z" />
<glyph unicode="&apos;" glyph-name="quotesingle" horiz-adv-x="208" d="M19 693H188L173 468H35L19 693Z" />
<glyph unicode="(" glyph-name="parenleft" horiz-adv-x="347" d="M196 -117Q166 -90 136 -50T81 42T40 158T24 297V321Q24 396 39 460T80 576T135 668T196 735H346Q319 700 294 656T251 560T221 450T209 329V295Q209 231 220 172T250 61T294 -37T346 -117H196Z" />
<glyph unicode=")" glyph-name="parenright" horiz-adv-x="347" d="M2 -117Q29 -82 53 -38T96 57T126 167T137 288V322Q137 386 126 445T96 557T53 655T2 735H151Q181 708 211 668T267 576T308 459T324 321V297Q324 222 308 158T267 42T212 -50T151 -117H2Z" />
<glyph unicode="*" glyph-name="asterisk" horiz-adv-x="366" d="M232 596L306 655L361 551L269 514L361 476L307 374L232 433L239 334H127L133 433L59 374L5 476L96 514L4 551L60 654L133 596L127 693H239L232 596Z" />
<glyph unicode="+" glyph-name="plus" horiz-adv-x="470" d="M154 276H22V428H154V574H314V428H448V276H314V128H154V276Z" />
<glyph unicode="," glyph-name="comma" horiz-adv-x="230" d="M31 167H212L163 -67H19L31 167Z" />
<glyph unicode="-" glyph-name="hyphen" horiz-adv-x="287" d="M24 363H265V215H24V363Z" />
<glyph unicode="." glyph-name="period" horiz-adv-x="227" d="M25 166H202V0H25V166Z" />
<glyph unicode="/" glyph-name="slash" horiz-adv-x="361" d="M198 735H360L147 -117H-14L198 735Z" />
<glyph unicode="0" glyph-name="zero" horiz-adv-x="604" d="M301 -9Q238 -9 187 9T99 67T42 170T22 322V371Q22 459 43 522T101 625T189 684T301 703Q362 703 414 686T503 630T561 529T582 377V328Q582 237 560 173T500 69T411 10T301 -9ZM302 142Q319 142 330
149T349 173T360 220T363 294V395Q363 443 359 473T348 521T329 544T301 551Q285 551 274 545T256 521T245 474T241 400V299Q241 254 244 224T254 176T273 150T302 142Z" />
<glyph unicode="1" glyph-name="one" horiz-adv-x="356" d="M103 498L14 491V612L185 694H310V0H103V498Z" />
<glyph unicode="2" glyph-name="two" horiz-adv-x="469" d="M16 139L127 272Q148 296 166 317T197 359T218 402T226 451Q226 541 125 541Q93 541 67 534T23 519V667Q49 679 96 691T206 703Q267 703 312 688T387 644T431 576T446 491Q446 446 435 409T406 340T362
279T307 220L243 154V151H447V0H16V139Z" />
<glyph unicode="3" glyph-name="three" horiz-adv-x="477" d="M201 -9Q133 -9 87 2T13 28V166Q38 158 71 153T136 148Q193 148 215 164T238 219Q238 256 218 269T156 283H97V421H155Q198 421 217 436T236 483Q236 516 215 531T142 546Q111 546 81 542T28 532V671Q58
685 104 694T211 703Q320 703 381 659T443 527Q443 458 412 419T330 365V362Q360 356 383 345T423 315T449 267T458 198Q458 98 392 45T201 -9Z" />
<glyph unicode="4" glyph-name="four" horiz-adv-x="564" d="M270 139H12V273L274 694H474V282H552V139H474V0H270V139ZM273 282V463H270L163 285V282H273Z" />
<glyph unicode="5" glyph-name="five" horiz-adv-x="473" d="M195 -9Q129 -9 85 1T12 26V167Q37 160 65 155T126 150Q182 150 207 168T232 227Q232 268 208 286T124 305Q99 305 78 303T34 298L52 693H428V541H201L196 436Q208 438 221 439T256 441Q357 441 405
389T453 228Q453 114 385 53T195 -9Z" />
<glyph unicode="6" glyph-name="six" horiz-adv-x="560" d="M289 127Q315 127 327 148T339 221Q339 250 336 268T325 297T306 311T280 315Q266 315 254 312T235 305V252Q235 180 247 154T289 127ZM293 -9Q159 -9 91 68T22 299V349Q22 445 44 512T107 622T206 683T336
703Q398 703 438 696T500 678V530Q481 535 449 539T381 544Q342 544 315 538T270 516T244 477T234 416Q254 425 283 433T357 442Q448 442 496 393T545 235Q545 182 531 138T487 61T408 10T293 -9Z" />
<glyph unicode="7" glyph-name="seven" horiz-adv-x="474" d="M243 530V535H12V693H458V553L269 0H43L243 530Z" />
<glyph unicode="8" glyph-name="eight" horiz-adv-x="553" d="M267 -9Q136 -9 76 39T15 170Q15 227 45 266T132 329Q90 354 61 395T32 504Q32 596 97 649T285 703Q403 703 461 654T519 520Q519 467 491 431T416 376Q478 345 508 305T538 195Q538 93 467 42T267
-9ZM264 122Q334 122 334 184Q334 215 314 235T240 274Q220 260 207 239T193 187Q193 158 211 140T264 122ZM304 432Q321 443 333 462T345 510Q345 536 332 553T287 570Q258 570 245 555T231 514Q231 484 248 466T304 432Z" />
<glyph unicode="9" glyph-name="nine" horiz-adv-x="563" d="M226 -9Q163 -9 120 -1T54 18V166Q73 161 108 155T179 149Q221 149 248 155T293 177T317 217T325 278Q306 268 279 260T213 252Q117 252 66 301T15 461Q15 512 29 556T74 633T153 684T270 703Q404 703
472 625T541 397V344Q541 249 520 183T459 73T360 11T226 -9ZM281 378Q295 378 307 381T325 388V442Q325 514 313 540T271 566Q245 566 233 546T221 473Q221 443 224 425T235 396T254 382T281 378Z" />
<glyph unicode=":" glyph-name="colon" horiz-adv-x="231" d="M27 166H204V0H27V166ZM27 455H204V289H27V455Z" />
<glyph unicode=";" glyph-name="semicolon" horiz-adv-x="237" d="M31 167H212L163 -67H19L31 167ZM29 455H206V289H29V455Z" />
<glyph unicode="&lt;" glyph-name="less" horiz-adv-x="400" d="M24 251V393L371 562V403L186 323L371 243V82L24 251Z" />
<glyph unicode="=" glyph-name="equal" horiz-adv-x="443" d="M24 477H419V333H24V477ZM24 271H419V125H24V271Z" />
<glyph unicode="&gt;" glyph-name="greater" horiz-adv-x="400" d="M29 243L214 323L29 403V562L376 393V251L29 82V243Z" />
<glyph unicode="?" glyph-name="question" horiz-adv-x="401" d="M71 261Q71 286 74 305T85 340T106 373T141 408Q154 419 163 428T179 447T188 467T191 492Q191 524 171 539T102 554Q73 554 52 551T12 542V677Q40 688 82 695T177 703Q277 703 332 659T387 520Q387
486 382 461T366 416T340 379T304 345Q283 328 269 317T247 296T235 274T231 245V221H71V261ZM64 163H241V0H64V163Z" />
<glyph unicode="@" glyph-name="at" horiz-adv-x="833" d="M407 -160Q324 -160 254 -138T132 -70T51 49T21 222Q21 326 53 410T142 554T280 646T457 678Q540 678 606 655T718 589T788 484T813 343Q813 264 794 206T742 110T668 52T579 33Q524 33 496 48T454 91H450Q434
71 406 54T337 36Q309 36 285 45T243 73T215 122T205 194Q205 254 218 304T255 392T315 451T396 472Q425 472 446 465T482 446H486L491 465H637L583 180Q579 157 582 145T604 132Q624 132 642 146T673 188T694 253T702 337Q702 394 689 439T645 515T566 563T447
580Q379 580 322 557T223 488T158 377T135 223Q135 145 155 91T213 2T301 -47T413 -63Q491 -62 548 -48T651 -15V-99Q612 -123 549 -141T407 -160ZM393 140Q404 140 413 144T427 153L464 372Q460 375 453 378T433 381Q415 381 402 362T380 315T367 253T362 192Q362
164 370 152T393 140Z" />
<glyph unicode="A" glyph-name="A" horiz-adv-x="616" d="M180 693H433L616 0H403L377 111H216L192 0H0L180 693ZM293 493Q291 475 287 455Q284 438 280 414T270 364L244 245H347L321 365Q316 391 312 415T304 456Q300 476 297 493H293Z" />
<glyph unicode="B" glyph-name="B" horiz-adv-x="582" d="M36 693H330Q432 693 486 650T540 518Q540 390 427 364V360Q458 355 484 344T528 314T557 265T567 193Q567 150 554 115T512 54T439 14T333 0H36V693ZM287 133Q318 133 334 152T351 218Q351 263 334 280T284
297H242V133H287ZM284 412Q310 412 325 427T341 488Q341 531 327 546T284 562H242V412H284Z" />
<glyph unicode="C" glyph-name="C" horiz-adv-x="505" d="M322 -10Q249 -10 193 9T98 69T40 173T20 325V363Q20 459 43 524T108 629T206 686T329 703Q382 703 421 696T483 677V528Q462 535 437 539T380 543Q310 543 278 505T245 372V335Q245 243 273 197T375 150Q414
150 441 156T487 169V21Q462 9 421 0T322 -10Z" />
<glyph unicode="D" glyph-name="D" horiz-adv-x="609" d="M36 693H285Q355 693 411 678T508 627T569 530T590 378V325Q590 236 568 174T506 74T409 18T285 0H36V693ZM284 150Q328 150 349 186T371 316V381Q371 428 366 459T349 509T322 535T283 543H246V150H284Z" />
<glyph unicode="E" glyph-name="E" horiz-adv-x="495" d="M36 693H464V542H244V427H425V279H244V151H475V0H36V693Z" />
<glyph unicode="F" glyph-name="F" d="M36 693H463V542H245V400H424V253H245V0H36V693Z" />
<glyph unicode="G" glyph-name="G" horiz-adv-x="588" d="M331 -9Q257 -9 199 7T102 61T41 164T20 326V366Q20 460 43 524T110 628T213 685T345 703Q413 703 460 693T530 671V518Q506 526 471 533T385 541Q341 541 313 532T268 503T245 454T238 385V280Q238 244
242 218T256 175T283 150T326 141Q340 141 350 143T367 147V260H307V398H562V33Q545 26 521 19T466 5T401 -5T331 -9Z" />
<glyph unicode="H" glyph-name="H" horiz-adv-x="620" d="M36 693H246V432H374V693H584V0H374V279H246V0H36V693Z" />
<glyph unicode="I" glyph-name="I" horiz-adv-x="282" d="M36 693H246V0H36V693Z" />
<glyph unicode="J" glyph-name="J" horiz-adv-x="395" d="M155 -7Q104 -7 70 1T14 20V164Q25 162 41 159T74 156Q110 156 131 170T152 225V693H362V193Q362 148 351 112T314 49T250 8T155 -7Z" />
<glyph unicode="K" glyph-name="K" horiz-adv-x="608" d="M36 693H246V396L388 693H603L437 370L613 0H379L246 311V0H36V693Z" />
<glyph unicode="L" glyph-name="L" horiz-adv-x="459" d="M36 693H246V151H444V0H36V693Z" />
<glyph unicode="M" glyph-name="M" horiz-adv-x="783" d="M36 693H311L363 467Q371 435 376 408T386 359Q390 334 394 313H397Q400 334 404 359Q408 380 413 407T427 467L479 693H747V0H551V201Q551 249 551 296T554 381Q555 425 557 466H554Q547 432 539 395Q532
363 524 324T506 244L450 0H311L255 242Q247 276 238 315T221 388Q212 428 204 466H201Q202 428 203 384Q204 346 205 299T206 200V0H36V693Z" />
<glyph unicode="N" glyph-name="N" horiz-adv-x="616" d="M36 693H257L351 468Q362 442 373 415T392 365Q402 339 410 314H413Q411 334 409 361Q407 384 406 417T405 495V693H580V0H379L281 223Q267 255 254 289T230 351Q218 384 207 415H204Q205 389 207 356Q209
327 209 286T211 190V0H36V693Z" />
<glyph unicode="O" glyph-name="O" horiz-adv-x="629" d="M314 -10Q249 -10 195 9T102 68T42 172T20 324V369Q20 457 43 520T106 624T199 684T314 703Q377 703 431 686T524 629T586 527T609 374V329Q609 237 586 173T522 68T428 9T314 -10ZM315 145Q334 145 348
152T371 178T384 225T388 297V391Q388 437 384 467T370 516T347 541T313 548Q275 548 258 515T241 396V302Q241 255 245 225T258 177T281 152T315 145Z" />
<glyph unicode="P" glyph-name="P" horiz-adv-x="566" d="M36 693H308Q438 693 496 637T555 464Q555 341 497 282T310 222H246V0H36V693ZM281 355Q316 355 330 377T345 453Q345 509 330 529T283 549H246V355H281Z" />
<glyph unicode="Q" glyph-name="Q" horiz-adv-x="628" d="M277 -17Q223 -3 176 17T95 75T40 171T20 324V369Q20 457 43 520T106 624T199 684T314 703Q377 703 431 686T524 630T586 529T609 377V336Q609 279 599 236T572 162T530 111T476 80L622 54L585 -101L277
-17ZM315 141Q334 141 348 149T371 175T384 222T388 294V391Q388 437 384 467T370 516T347 541T313 548Q275 548 258 515T241 396V298Q241 252 245 222T259 173T282 148T315 141Z" />
<glyph unicode="R" glyph-name="R" horiz-adv-x="585" d="M36 693H318Q440 693 498 643T557 476Q557 407 534 367T470 305V302L588 0H375L286 244H246V0H36V693ZM284 370Q319 370 333 392T347 462Q347 508 333 529T283 550H243V370H284Z" />
<glyph unicode="S" glyph-name="S" horiz-adv-x="485" d="M214 -9Q156 -9 104 0T20 25V178Q54 165 94 156T182 147Q227 147 247 158T267 198Q267 223 252 233T203 258L163 273Q85 302 51 353T16 485Q16 587 76 645T262 703Q332 703 370 695T434 675V525Q405 536
368 543T286 550Q248 550 231 539T214 505Q214 482 230 472T276 451L318 436Q353 424 381 408T430 366T460 307T471 225Q471 109 407 50T214 -9Z" />
<glyph unicode="T" glyph-name="T" horiz-adv-x="514" d="M152 542H12V693H502V542H362V0H152V542Z" />
<glyph unicode="U" glyph-name="U" horiz-adv-x="601" d="M305 -10Q159 -10 96 50T32 227V693H242V228Q242 186 256 166T309 146Q347 146 360 166T374 228V693H569V228Q569 112 506 51T305 -10Z" />
<glyph unicode="V" glyph-name="V" horiz-adv-x="611" d="M3 693H219L283 389Q288 360 293 331T303 277Q308 249 313 222H316Q320 247 325 275Q330 298 335 328T347 389L410 693H608L429 0H182L3 693Z" />
<glyph unicode="W" glyph-name="W" horiz-adv-x="843" d="M7 693H215L255 434Q260 407 264 380T271 330Q275 304 278 279H281Q284 304 288 330Q291 353 295 380T304 435L351 693H516L562 435Q567 407 571 380T578 329Q582 303 585 279H588Q591 300 595 325Q598
346 603 374T613 435L655 693H836L703 0H491L448 242Q443 268 439 294T432 342Q428 367 426 389H423Q420 365 416 339Q413 317 409 292T400 242L357 0H140L7 693Z" />
<glyph unicode="X" glyph-name="X" horiz-adv-x="620" d="M166 353L20 693H248L292 574L303 539Q309 523 314 509Q319 493 323 479H326Q330 492 334 508Q338 522 343 539T354 574L396 693H601L455 365L615 0H387L333 142L319 180Q313 197 309 209Q305 222 302
233H299L291 209Q287 198 281 181T267 143L211 0H5L166 353Z" />
<glyph unicode="Y" glyph-name="Y" horiz-adv-x="576" d="M185 254L-2 693H222L264 569Q273 543 280 521T292 481Q297 461 302 444H305L314 480Q319 497 326 520T342 569L383 693H578L395 259V0H185V254Z" />
<glyph unicode="Z" glyph-name="Z" horiz-adv-x="505" d="M23 144L244 539V542H33V693H477V549L257 154V151H482V0H23V144Z" />
<glyph unicode="[" glyph-name="bracketleft" horiz-adv-x="336" d="M37 735H319V596H223V22H319V-117H37V735Z" />
<glyph unicode="\" glyph-name="backslash" horiz-adv-x="361" d="M1 735H163L375 -117H213L1 735Z" />
<glyph unicode="]" glyph-name="bracketright" horiz-adv-x="334" d="M17 21H112V597H17V735H297V-117H17V21Z" />
<glyph unicode="^" glyph-name="asciicircum" horiz-adv-x="426" d="M137 693H289L421 433H273L213 544L153 433H5L137 693Z" />
<glyph unicode="_" glyph-name="underscore" horiz-adv-x="351" d="M-3 -47H354V-163H-3V-47Z" />
<glyph unicode="`" glyph-name="grave" horiz-adv-x="425" d="M68 733H253L305 578H155L68 733Z" />
<glyph unicode="a" glyph-name="a" d="M165 -8Q94 -8 52 31T10 147Q10 189 22 219T58 269T114 300T189 319L267 332V346Q267 380 249 392T182 405Q147 405 112 400T53 388V515Q86 529 137 538T255 547Q356 547 405 508T455 376V0H298L286 36H281Q267 16 238 4T165
-8ZM233 112Q244 112 253 115T267 123V228L236 225Q213 224 203 212T193 171Q193 139 203 126T233 112Z" />
<glyph unicode="b" glyph-name="b" horiz-adv-x="528" d="M246 -8Q178 -8 122 2T28 29V735H216V500H220Q240 520 271 533T344 547Q379 547 409 535T463 495T499 421T513 308V276Q513 198 496 144T446 56T362 7T246 -8ZM255 116Q270 116 282 121T302 141T314 181T318
247V287Q318 323 315 345T304 380T287 396T261 400Q247 400 236 397T217 389V124Q223 121 233 119T255 116Z" />
<glyph unicode="c" glyph-name="c" horiz-adv-x="407" d="M259 -8Q134 -8 75 56T15 254V277Q15 414 79 480T265 547Q310 547 340 542T390 527V389Q372 396 353 400T306 404Q261 404 236 380T210 293V258Q210 192 231 164T304 135Q333 135 354 140T393 151V21Q374
10 340 1T259 -8Z" />
<glyph unicode="d" glyph-name="d" horiz-adv-x="528" d="M197 -8Q158 -8 125 5T68 49T30 128T16 248V276Q16 351 31 402T73 486T139 532T226 547Q257 547 279 542T312 530V735H500V0H336L325 38H321Q301 19 272 6T197 -8ZM269 130Q283 130 293 134T312 143V409Q306
412 296 415T273 418Q256 418 245 412T225 392T214 352T210 288V252Q210 216 213 192T224 155T243 136T269 130Z" />
<glyph unicode="e" glyph-name="e" horiz-adv-x="492" d="M278 -8Q15 -8 15 260V279Q15 402 75 474T254 547Q317 547 360 530T429 478T466 392T478 273V219H206Q211 167 237 147T323 126Q361 126 397 135T457 154V35Q429 18 384 5T278 -8ZM255 421Q244 421 235
417T220 402T210 371T205 320H302Q302 350 300 370T291 401T276 416T255 421Z" />
<glyph unicode="f" glyph-name="f" horiz-adv-x="341" d="M61 407H7V539H61V584Q61 669 108 706T236 743Q273 743 302 738T345 728V611Q337 613 326 614T304 615Q274 615 262 601T249 561V539H333V407H249V0H61V407Z" />
<glyph unicode="g" glyph-name="g" horiz-adv-x="496" d="M228 -196Q105 -196 50 -164T-6 -78Q-6 -34 19 -12T83 23V28Q58 39 43 61T27 117Q27 155 46 181T92 226Q62 243 41 276T20 360V376Q20 461 79 504T235 547Q287 547 324 539H490V431H434Q439 421 443 408T447
377V364Q447 281 392 239T239 196Q203 196 175 201Q173 196 171 190T169 178Q169 165 176 160T202 155H322Q497 155 497 -2Q497 -94 432 -145T228 -196ZM233 -82Q283 -82 302 -70T322 -36Q322 -16 309 -8T266 0H183Q172 -6 164 -17T156 -42Q156 -61 173 -71T233
-82ZM236 297Q255 297 265 311T275 363V375Q275 419 265 432T235 446Q215 446 205 431T195 377V365Q195 325 205 311T236 297Z" />
<glyph unicode="h" glyph-name="h" horiz-adv-x="521" d="M28 735H216V495H220Q243 517 276 532T358 547Q421 547 457 516T494 410V0H306V364Q306 384 296 391T265 398Q251 398 238 395T216 387V0H28V735Z" />
<glyph unicode="i" glyph-name="i" horiz-adv-x="246" d="M29 539H217V0H29V539ZM28 729H218V582H28V729Z" />
<glyph unicode="j" glyph-name="j" horiz-adv-x="248" d="M42 -195Q8 -195 -17 -190T-56 -177V-58Q-51 -59 -43 -60T-25 -61Q2 -61 16 -49T30 -4V539H219V-24Q219 -104 179 -149T42 -195ZM29 729H220V582H29V729Z" />
<glyph unicode="k" glyph-name="k" horiz-adv-x="512" d="M216 321L322 539H509L382 294L513 0H314L216 243V0H28V735H216V321Z" />
<glyph unicode="l" glyph-name="l" horiz-adv-x="244" d="M28 735H216V0H28V735Z" />
<glyph unicode="m" glyph-name="m" horiz-adv-x="779" d="M28 539H211V493H215Q239 515 272 531T355 547Q398 547 426 534T470 488H474Q503 514 538 530T622 547Q685 547 718 517T752 411V0H564V365Q564 384 555 391T528 398Q515 398 504 395T484 387V0H296V365Q296
384 287 391T260 398Q248 398 237 395T216 387V0H28V539Z" />
<glyph unicode="n" glyph-name="n" horiz-adv-x="521" d="M28 539H211V493H215Q240 516 274 531T358 547Q422 547 458 516T494 410V0H306V364Q306 384 296 391T265 398Q251 398 238 395T216 387V0H28V539Z" />
<glyph unicode="o" glyph-name="o" horiz-adv-x="525" d="M262 -8Q137 -8 76 61T15 255V284Q15 350 33 399T83 481T161 530T262 547Q510 547 510 288V260Q510 192 492 142T441 59T363 9T262 -8ZM263 126Q290 126 303 151T316 240V295Q316 332 313 355T302 391T285
408T261 413Q247 413 237 408T221 389T212 354T209 298V243Q209 208 212 185T222 149T239 131T263 126Z" />
<glyph unicode="p" glyph-name="p" horiz-adv-x="527" d="M28 539H211V494H215Q235 517 266 532T345 547Q382 547 413 535T466 494T500 419T512 303V276Q512 196 498 142T455 55T388 7T298 -8Q266 -8 247 -4T216 5V-191H28V539ZM256 116Q272 116 284 122T303 142T314
182T318 247V285Q318 321 315 343T305 378T288 394T262 399Q246 399 235 396T216 387V125Q222 122 232 119T256 116Z" />
<glyph unicode="q" glyph-name="q" horiz-adv-x="528" d="M308 28Q287 9 261 1T197 -8Q160 -8 127 5T70 47T31 124T16 240V271Q16 347 33 400T84 485T170 532T289 547Q359 547 414 538T500 515V-191H312V28H308ZM272 416Q256 416 244 411T225 391T214 351T210
285V248Q210 211 213 189T224 154T242 137T267 132Q282 132 293 136T312 145V410Q306 412 296 414T272 416Z" />
<glyph unicode="r" glyph-name="r" horiz-adv-x="359" d="M28 539H211V478H215Q233 510 260 528T322 546Q339 546 349 542V367Q343 369 330 370T304 371Q251 371 216 355V0H28V539Z" />
<glyph unicode="s" glyph-name="s" horiz-adv-x="405" d="M174 -8Q126 -8 84 0T16 22V150Q41 141 72 133T143 124Q180 124 195 131T211 155Q211 172 201 178T167 194L126 209Q13 251 13 373Q13 461 66 504T221 547Q310 547 363 525V398Q339 406 310 411T244 417Q215
417 201 412T186 390Q186 376 197 370T232 356L268 344Q331 323 361 287T391 180Q391 83 338 38T174 -8Z" />
<glyph unicode="t" glyph-name="t" horiz-adv-x="348" d="M218 -8Q179 -8 150 -1T101 22T71 66T61 135V407H7V539H61V660H249V539H331V407H249V170Q249 149 259 141T291 133Q302 133 312 134T330 138V15Q316 6 286 -1T218 -8Z" />
<glyph unicode="u" glyph-name="u" horiz-adv-x="518" d="M167 -8Q100 -8 64 26T27 138V539H215V175Q215 155 225 147T256 139Q269 139 281 143T302 150V539H490V0H324L312 46H308Q282 25 249 9T167 -8Z" />
<glyph unicode="v" glyph-name="v" horiz-adv-x="514" d="M-1 539H194L247 289Q249 278 252 263T257 235Q260 219 263 204H267Q269 219 272 235Q274 248 277 263T283 289L335 539H515L361 0H153L-1 539Z" />
<glyph unicode="w" glyph-name="w" horiz-adv-x="710" d="M3 539H190L221 365Q226 337 229 315T234 275Q237 256 239 239H241Q243 255 247 274Q250 291 254 314T264 365L296 539H442L475 365Q480 337 483 315T490 275Q494 256 496 239H499Q501 256 504 276Q506
293 509 316T518 366L547 539H707L589 0H411L381 141Q376 165 372 189T364 234Q360 257 356 278H354Q350 256 346 233Q342 213 338 189T329 141L298 0H123L3 539Z" />
<glyph unicode="x" glyph-name="x" horiz-adv-x="517" d="M133 280L11 539H214L245 463Q251 446 255 432T264 407L272 383H273Q277 395 281 408Q285 419 289 433T299 463L328 539H502L384 285L515 0H311L274 93Q267 108 262 122T253 148Q249 161 244 172H243L235
148Q231 137 226 123T214 92L177 0H2L133 280Z" />
<glyph unicode="y" glyph-name="y" horiz-adv-x="505" d="M137 -196Q111 -196 84 -192T38 -183V-55Q49 -57 63 -59T89 -61Q119 -61 136 -52T160 -19L166 1L-1 539H193L236 355Q241 331 245 308T253 268Q257 247 260 229H264L272 271Q276 289 280 311T289 354L330
539H506L336 -45Q313 -125 268 -160T137 -196Z" />
<glyph unicode="z" glyph-name="z" horiz-adv-x="430" d="M17 134L194 404V407H21V539H414V417L227 136V133H411V0H17V134Z" />
<glyph unicode="{" glyph-name="braceleft" horiz-adv-x="358" d="M341 -119Q266 -118 217 -107T137 -75T95 -22T82 53V166Q82 207 65 221T12 238V378Q46 381 64 393T82 447V559Q82 602 94 635T137 690T216 725T341 738V596Q324 594 310 591T286 581T271 561T266
527V439Q266 389 244 356T156 309V306Q222 293 244 260T266 176V88Q266 67 271 55T286 37T310 28T341 23V-119Z" />
<glyph unicode="|" glyph-name="bar" horiz-adv-x="237" d="M48 735H190V-120H48V735Z" />
<glyph unicode="}" glyph-name="braceright" horiz-adv-x="358" d="M17 23Q34 25 48 28T71 39T86 58T91 91V180Q91 205 96 226T113 264T147 293T203 311V314Q169 320 148 332T114 360T96 398T91 444V529Q91 550 86 562T72 581T48 591T17 596V738Q91 737 141 726T221
692T263 638T276 562V452Q276 411 293 398T346 382V242Q311 240 294 227T276 172V58Q276 15 264 -17T221 -72T141 -105T17 -119V23Z" />
<glyph unicode="~" glyph-name="asciitilde" horiz-adv-x="403" d="M14 222Q15 271 25 304T52 357T89 385T132 394Q153 394 169 389T199 378T224 366T248 361Q260 361 266 369T275 392H390Q388 346 378 314T352 260T315 230T271 220Q251 220 235 225T205 236T179
248T157 253Q143 253 137 244T128 222H14Z" />
<glyph unicode="&#xa0;" glyph-name="uni00A0" horiz-adv-x="129" />
<glyph unicode="&#xa1;" glyph-name="exclamdown" horiz-adv-x="267" d="M54 353H212L241 -120H25L54 353ZM45 573H221V411H45V573Z" />
<glyph unicode="&#xa2;" glyph-name="cent" horiz-adv-x="426" d="M215 -4Q115 8 65 71T15 253V277Q15 414 82 480T276 547Q281 547 286 547T297 546L306 607H388L377 537Q397 533 412 526V390Q401 394 388 397T358 403L317 132H318Q347 132 372 137T415 148V22Q398
12 368 4T296 -7L280 -117H199L215 -4ZM203 257Q203 180 239 153L275 402Q241 394 222 369T203 294V257Z" />
<glyph unicode="&#xa3;" glyph-name="sterling" horiz-adv-x="493" d="M25 408H76V481Q76 540 93 582T143 651T221 690T324 703Q379 703 414 696T467 679V532Q434 542 385 542Q339 542 314 523T289 456V408H414V278H289Q287 228 268 200T219 153V151H478V0H22V141Q46
152 61 174T76 234V278H25V408Z" />
<glyph unicode="&#xa5;" glyph-name="yen" horiz-adv-x="575" d="M182 97H51V218H182V263H51V384H140L-1 693H221L261 581Q270 553 278 529T291 487Q297 466 302 447H304Q309 465 315 486Q320 504 327 528T345 580L385 693H576L435 384H525V263H395V218H525V97H395V0H182V97Z"
/>
<glyph unicode="&#xa6;" glyph-name="brokenbar" horiz-adv-x="261" d="M48 281H214V-120H48V281ZM48 734H214V363H48V734Z" />
<glyph unicode="&#xa7;" glyph-name="section" horiz-adv-x="504" d="M219 -130Q164 -130 122 -121T50 -97V33Q75 23 109 14T191 5Q233 5 250 15T268 47Q268 67 259 76T224 92L166 109Q130 119 102 131T53 162T23 207T12 271Q12 324 35 354T96 398Q73 417 59 448T45
526Q45 610 99 656T276 703Q327 703 365 696T427 677V547Q401 556 368 563T297 570Q259 570 245 561T230 532Q230 512 242 503T279 487L333 472Q371 463 400 451T450 420T481 375T492 310Q492 256 472 227T413 180Q436 162 448 135T460 59Q460 17 447 -18T406 -78T331
-116T219 -130ZM310 279Q310 299 300 310T253 331L228 339Q210 334 199 325T188 296Q188 280 195 271T221 253Q226 251 239 247T258 241Q264 237 268 237Q310 246 310 279Z" />
<glyph unicode="&#xa8;" glyph-name="dieresis" horiz-adv-x="427" d="M235 724H388V582H235V724ZM38 724H191V582H38V724Z" />
<glyph unicode="&#xa9;" glyph-name="copyright" horiz-adv-x="668" d="M334 -11Q264 -11 207 13T108 82T43 194T20 345Q20 429 43 495T107 607T206 677T333 701Q402 701 460 677T559 608T624 496T648 345Q648 263 625 198T561 86T461 14T334 -11ZM333 44Q390
44 437 63T517 121T568 215T586 345Q586 417 568 473T517 568T437 626T333 646Q276 646 230 626T150 568T100 474T82 345Q82 271 100 215T151 121T230 64T333 44ZM352 142Q267 142 222 186T176 333V355Q176 409 190 446T228 507T284 540T355 550Q388 550 411 545T448
533V428Q427 436 397 436Q359 436 344 420T328 360V340Q328 292 342 274T395 255Q413 255 426 258T449 264V161Q434 155 411 149T352 142Z" />
<glyph unicode="&#xaa;" glyph-name="ordfeminine" horiz-adv-x="433" d="M146 213Q83 213 47 248T10 351Q10 388 21 413T53 456T103 482T170 498L238 510V524Q238 554 222 565T162 577Q130 577 99 573T47 562V673Q76 686 122 694T229 703Q319 703 364 668T409
551V221H265L255 253H251Q238 236 211 225T146 213ZM206 320Q217 320 225 323T238 330V422L211 421Q190 419 181 408T172 372Q172 344 180 332T206 320Z" />
<glyph unicode="&#xab;" glyph-name="guillemotleft" horiz-adv-x="473" d="M22 230V276L97 455H248L169 254L248 53H97L22 230ZM223 230V276L298 455H449L370 254L449 53H298L223 230Z" />
<glyph unicode="&#xae;" glyph-name="registered" horiz-adv-x="390" d="M196 303Q156 303 123 317T66 357T29 420T16 504Q16 550 29 586T66 649T123 689T195 703Q234 703 267 690T323 650T360 587T374 504Q374 459 361 422T324 358T268 318T196 303ZM195 336Q261
337 298 380T335 504Q335 581 298 625T195 670Q130 670 93 626T56 504Q56 424 93 381T195 336ZM116 609H209Q244 609 262 594T281 544Q281 524 274 511T256 493V491L289 403H220L196 473H184V403H116V609ZM195 518Q213 518 213 538Q213 559 195 559H183V518H195Z"
/>
<glyph unicode="&#xaf;" glyph-name="macron" horiz-adv-x="425" d="M77 700H348V583H77V700Z" />
<glyph unicode="&#xb0;" glyph-name="degree" horiz-adv-x="359" d="M180 407Q145 407 117 418T69 449T39 496T28 555Q28 586 38 613T69 659T116 690T179 701Q213 701 241 691T289 661T320 614T331 555Q331 523 320 496T290 450T242 419T180 407ZM180 493Q206
493 220 510T234 555Q234 581 220 598T179 616Q152 616 139 599T125 555Q125 528 138 511T180 493Z" />
<glyph unicode="&#xb4;" glyph-name="acute" horiz-adv-x="425" d="M169 733H356L267 578H118L169 733Z" />
<glyph unicode="&#xb6;" glyph-name="paragraph" horiz-adv-x="535" d="M241 323H216Q124 323 73 369T22 508Q22 593 70 643T218 693H500V-120H398V593H342V-120H241V323Z" />
<glyph unicode="&#xb7;" glyph-name="periodcentered" horiz-adv-x="225" d="M24 387H201V222H24V387Z" />
<glyph unicode="&#xb8;" glyph-name="cedilla" horiz-adv-x="425" d="M157 -156Q199 -154 217 -147T236 -122Q236 -108 224 -103T178 -96V13H258V-40Q358 -46 358 -121Q358 -170 311 -196T157 -226V-156Z" />
<glyph unicode="&#xba;" glyph-name="ordmasculine" horiz-adv-x="464" d="M232 214Q121 214 68 275T14 446V471Q14 529 30 572T74 645T143 688T232 703Q450 703 450 475V451Q450 391 434 347T390 273T321 229T232 214ZM233 333Q257 333 267 354T278 433V480Q278
513 275 533T266 564T251 579T231 583Q206 583 196 562T185 483V435Q185 374 197 354T233 333Z" />
<glyph unicode="&#xbb;" glyph-name="guillemotright" horiz-adv-x="474" d="M102 254L24 455H174L250 276V230L174 53H24L102 254ZM304 254L226 455H376L452 276V230L376 53H226L304 254Z" />
<glyph unicode="&#xbc;" glyph-name="onequarter" horiz-adv-x="763" d="M73 563L13 557V640L127 693H221V268H73V563ZM518 713H641L208 -40H85L518 713ZM564 81H407V171L566 424H705V177H748V81H705V0H564V81ZM568 175V275H566L508 177V175H568Z" />
<glyph unicode="&#xbd;" glyph-name="onehalf" horiz-adv-x="785" d="M513 713H636L203 -40H80L513 713ZM72 563L12 557V640L126 693H220V268H72V563ZM487 92L557 169Q583 195 597 218T612 269Q612 298 598 310T557 322Q536 322 519 318T492 308V408Q509 416 539
423T615 431Q693 431 729 395T766 295Q766 246 746 210T684 138L649 105V103H766V0H487V92Z" />
<glyph unicode="&#xbe;" glyph-name="threequarters" horiz-adv-x="797" d="M136 263Q92 263 62 269T15 285V378Q48 367 89 367Q123 367 136 376T149 404Q149 424 139 431T105 439H65V528H104Q130 528 140 537T150 563Q150 579 138 587T93 596Q76 596 58 594T25
588V680Q44 688 73 693T142 699Q214 699 253 673T293 591Q293 549 274 525T222 492V490Q260 483 281 462T302 390Q302 329 260 296T136 263ZM551 711H674L241 -42H118L551 711ZM598 81H441V171L600 424H739V177H782V81H739V0H598V81ZM602 175V275H600L542 177V175H602Z"
/>
<glyph unicode="&#xbf;" glyph-name="questiondown" horiz-adv-x="401" d="M224 -130Q124 -130 69 -86T14 53Q14 87 19 112T35 157T61 194T98 228Q119 245 132 256T154 277T166 299T170 328V353H330V312Q330 287 327 268T317 233T295 200T260 165Q247 154 238
145T222 126T213 106T210 81Q210 49 230 34T299 19Q329 19 350 22T389 31V-104Q362 -115 320 -122T224 -130ZM160 573H337V411H160V573Z" />
<glyph unicode="&#xc0;" glyph-name="Agrave" horiz-adv-x="616" d="M180 693H433L616 0H403L377 111H216L192 0H0L180 693ZM293 493Q291 475 287 455Q284 438 280 414T270 364L244 245H347L321 365Q316 391 312 415T304 456Q300 476 297 493H293ZM161 862H347L394
723H245L161 862Z" />
<glyph unicode="&#xc1;" glyph-name="Aacute" horiz-adv-x="616" d="M180 693H433L616 0H403L377 111H216L192 0H0L180 693ZM293 493Q291 475 287 455Q284 438 280 414T270 364L244 245H347L321 365Q316 391 312 415T304 456Q300 476 297 493H293ZM272 861H459L374
723H226L272 861Z" />
<glyph unicode="&#xc2;" glyph-name="Acircumflex" horiz-adv-x="616" d="M180 693H433L616 0H403L377 111H216L192 0H0L180 693ZM293 493Q291 475 287 455Q284 438 280 414T270 364L244 245H347L321 365Q316 391 312 415T304 456Q300 476 297 493H293ZM228 856H381L474
723H343L304 763L266 723H134L228 856Z" />
<glyph unicode="&#xc3;" glyph-name="Atilde" horiz-adv-x="616" d="M180 693H433L616 0H403L377 111H216L192 0H0L180 693ZM293 493Q291 475 287 455Q284 438 280 414T270 364L244 245H347L321 365Q316 391 312 415T304 456Q300 476 297 493H293ZM138 725Q141
764 151 790T177 833T212 855T252 862Q269 862 283 858T310 850T332 841T351 837Q362 837 367 843T374 860H483Q479 820 469 794T443 751T408 728T368 721Q351 721 337 725T310 733T288 742T270 746Q258 746 253 741T245 725H138Z" />
<glyph unicode="&#xc4;" glyph-name="Adieresis" horiz-adv-x="616" d="M180 693H433L616 0H403L377 111H216L192 0H0L180 693ZM293 493Q291 475 287 455Q284 438 280 414T270 364L244 245H347L321 365Q316 391 312 415T304 456Q300 476 297 493H293ZM325 857H481V724H325V857ZM124
857H280V724H124V857Z" />
<glyph unicode="&#xc5;" glyph-name="Aring" horiz-adv-x="616" d="M180 693H433L616 0H403L377 111H216L192 0H0L180 693ZM293 493Q291 475 287 455Q284 438 280 414T270 364L244 245H347L321 365Q316 391 312 415T304 456Q300 476 297 493H293ZM306 711Q255
711 221 741T187 822Q187 873 220 903T306 934Q360 934 392 904T425 824Q425 773 393 742T306 711ZM306 782Q324 782 334 792T345 822Q345 842 334 853T306 864Q289 864 279 853T268 822Q268 805 278 794T306 782Z" />
<glyph unicode="&#xc6;" glyph-name="AE" horiz-adv-x="824" d="M273 693H793V542H584V427H755V279H584V151H804V0H378V123H229L183 0H-4L273 693ZM279 258H378V526H374L279 258Z" />
<glyph unicode="&#xc7;" glyph-name="Ccedilla" horiz-adv-x="505" d="M322 -10H309Q302 -10 295 -9V-40Q349 -42 371 -63T393 -121Q393 -171 346 -196T196 -226V-156Q238 -152 254 -146T271 -122Q271 -108 260 -103T216 -96V2Q120 27 70 105T20 325V363Q20 459
43 524T108 629T206 686T329 703Q382 703 421 696T483 677V528Q462 535 437 539T380 543Q310 543 278 505T245 372V335Q245 243 273 197T375 150Q414 150 441 156T487 169V21Q462 9 421 0T322 -10Z" />
<glyph unicode="&#xc8;" glyph-name="Egrave" horiz-adv-x="495" d="M106 862H292L339 723H190L106 862ZM36 693H464V542H244V427H425V279H244V151H475V0H36V693Z" />
<glyph unicode="&#xc9;" glyph-name="Eacute" horiz-adv-x="495" d="M217 861H404L319 723H171L217 861ZM36 693H464V542H244V427H425V279H244V151H475V0H36V693Z" />
<glyph unicode="&#xca;" glyph-name="Ecircumflex" horiz-adv-x="495" d="M176 856H329L422 723H291L252 763L214 723H82L176 856ZM36 693H464V542H244V427H425V279H244V151H475V0H36V693Z" />
<glyph unicode="&#xcb;" glyph-name="Edieresis" horiz-adv-x="495" d="M36 693H464V542H244V427H425V279H244V151H475V0H36V693ZM274 857H430V724H274V857ZM73 857H229V724H73V857Z" />
<glyph unicode="&#xcc;" glyph-name="Igrave" horiz-adv-x="282" d="M36 693H246V0H36V693ZM250 862H436L483 723H334L250 862Z" />
<glyph unicode="&#xcd;" glyph-name="Iacute" horiz-adv-x="282" d="M36 693H246V0H36V693ZM366 861H553L468 723H320L366 861Z" />
<glyph unicode="&#xce;" glyph-name="Icircumflex" horiz-adv-x="282" d="M66 856H219L310 723H180L142 764L106 723H-26L66 856ZM36 693H246V0H36V693Z" />
<glyph unicode="&#xcf;" glyph-name="Idieresis" horiz-adv-x="282" d="M159 857H295V724H159V857ZM-14 857H123V724H-14V857ZM36 693H246V0H36V693Z" />
<glyph unicode="&#xd0;" glyph-name="Eth" horiz-adv-x="616" d="M43 276H7V418H43V693H291Q361 693 418 678T514 627T575 530T597 378V325Q597 236 575 174T513 74T416 18T292 0H43V276ZM293 150Q337 150 358 186T380 316V381Q380 428 375 459T358 509T331 535T292
543H249V418H326V276H249V150H293Z" />
<glyph unicode="&#xd1;" glyph-name="Ntilde" horiz-adv-x="616" d="M152 725Q155 764 165 790T191 833T226 855T266 862Q283 862 297 858T324 850T346 841T365 837Q376 837 381 843T388 860H497Q493 820 483 794T457 751T422 728T382 721Q365 721 351 725T324
733T302 742T284 746Q272 746 267 741T259 725H152ZM36 693H257L351 468Q362 442 373 415T392 365Q402 339 410 314H413Q411 334 409 361Q407 384 406 417T405 495V693H580V0H379L281 223Q267 255 254 289T230 351Q218 384 207 415H204Q205 389 207 356Q209 327
209 286T211 190V0H36V693Z" />
<glyph unicode="&#xd2;" glyph-name="Ograve" horiz-adv-x="629" d="M165 862H351L398 723H249L165 862ZM314 -10Q249 -10 195 9T102 68T42 172T20 324V369Q20 457 43 520T106 624T199 684T314 703Q377 703 431 686T524 629T586 527T609 374V329Q609 237 586 173T522
68T428 9T314 -10ZM315 145Q334 145 348 152T371 178T384 225T388 297V391Q388 437 384 467T370 516T347 541T313 548Q275 548 258 515T241 396V302Q241 255 245 225T258 177T281 152T315 145Z" />
<glyph unicode="&#xd3;" glyph-name="Oacute" horiz-adv-x="629" d="M273 861H460L375 723H227L273 861ZM314 -10Q249 -10 195 9T102 68T42 172T20 324V369Q20 457 43 520T106 624T199 684T314 703Q377 703 431 686T524 629T586 527T609 374V329Q609 237 586 173T522
68T428 9T314 -10ZM315 145Q334 145 348 152T371 178T384 225T388 297V391Q388 437 384 467T370 516T347 541T313 548Q275 548 258 515T241 396V302Q241 255 245 225T258 177T281 152T315 145Z" />
<glyph unicode="&#xd4;" glyph-name="Ocircumflex" horiz-adv-x="629" d="M237 856H390L483 723H352L313 763L275 723H143L237 856ZM314 -10Q249 -10 195 9T102 68T42 172T20 324V369Q20 457 43 520T106 624T199 684T314 703Q377 703 431 686T524 629T586 527T609
374V329Q609 237 586 173T522 68T428 9T314 -10ZM315 145Q334 145 348 152T371 178T384 225T388 297V391Q388 437 384 467T370 516T347 541T313 548Q275 548 258 515T241 396V302Q241 255 245 225T258 177T281 152T315 145Z" />
<glyph unicode="&#xd5;" glyph-name="Otilde" horiz-adv-x="629" d="M142 725Q145 764 155 790T181 833T216 855T256 862Q273 862 287 858T314 850T336 841T355 837Q366 837 371 843T378 860H487Q483 820 473 794T447 751T412 728T372 721Q355 721 341 725T314
733T292 742T274 746Q262 746 257 741T249 725H142ZM314 -10Q249 -10 195 9T102 68T42 172T20 324V369Q20 457 43 520T106 624T199 684T314 703Q377 703 431 686T524 629T586 527T609 374V329Q609 237 586 173T522 68T428 9T314 -10ZM315 145Q334 145 348 152T371
178T384 225T388 297V391Q388 437 384 467T370 516T347 541T313 548Q275 548 258 515T241 396V302Q241 255 245 225T258 177T281 152T315 145Z" />
<glyph unicode="&#xd6;" glyph-name="Odieresis" horiz-adv-x="629" d="M336 857H492V724H336V857ZM135 857H291V724H135V857ZM314 -10Q249 -10 195 9T102 68T42 172T20 324V369Q20 457 43 520T106 624T199 684T314 703Q377 703 431 686T524 629T586 527T609 374V329Q609
237 586 173T522 68T428 9T314 -10ZM315 145Q334 145 348 152T371 178T384 225T388 297V391Q388 437 384 467T370 516T347 541T313 548Q275 548 258 515T241 396V302Q241 255 245 225T258 177T281 152T315 145Z" />
<glyph unicode="&#xd7;" glyph-name="multiply" horiz-adv-x="481" d="M23 220L135 337L22 452L130 558L240 445L351 559L458 453L345 337L459 221L352 115L239 229L128 115L23 220Z" />
<glyph unicode="&#xd8;" glyph-name="Oslash" horiz-adv-x="629" d="M315 -10Q267 -10 224 2T145 39L116 0H4L80 104Q52 143 37 195T22 316V369Q22 457 45 520T108 624T202 684T318 703Q363 703 406 692T486 656L513 693H624L551 594Q580 556 596 504T612 382V329Q612
237 589 173T525 68T430 9T315 -10ZM318 139Q338 139 353 147T379 173T394 222T399 297V386L249 182Q260 157 277 148T318 139ZM235 315L382 516Q372 537 356 545T316 554Q274 554 255 519T235 397V315Z" />
<glyph unicode="&#xd9;" glyph-name="Ugrave" horiz-adv-x="601" d="M159 862H345L392 723H243L159 862ZM305 -10Q159 -10 96 50T32 227V693H242V228Q242 186 256 166T309 146Q347 146 360 166T374 228V693H569V228Q569 112 506 51T305 -10Z" />
<glyph unicode="&#xda;" glyph-name="Uacute" horiz-adv-x="601" d="M267 861H454L369 723H221L267 861ZM305 -10Q159 -10 96 50T32 227V693H242V228Q242 186 256 166T309 146Q347 146 360 166T374 228V693H569V228Q569 112 506 51T305 -10Z" />
<glyph unicode="&#xdb;" glyph-name="Ucircumflex" horiz-adv-x="601" d="M230 856H383L476 723H345L306 763L268 723H136L230 856ZM305 -10Q159 -10 96 50T32 227V693H242V228Q242 186 256 166T309 146Q347 146 360 166T374 228V693H569V228Q569 112 506 51T305 -10Z" />
<glyph unicode="&#xdc;" glyph-name="Udieresis" horiz-adv-x="601" d="M305 -10Q159 -10 96 50T32 227V693H242V228Q242 186 256 166T309 146Q347 146 360 166T374 228V693H569V228Q569 112 506 51T305 -10ZM328 857H484V724H328V857ZM127 857H283V724H127V857Z" />
<glyph unicode="&#xdd;" glyph-name="Yacute" horiz-adv-x="576" d="M185 254L-2 693H222L264 569Q273 543 280 521T292 481Q297 461 302 444H305L314 480Q319 497 326 520T342 569L383 693H578L395 259V0H185V254ZM271 861H458L373 723H225L271 861Z" />
<glyph unicode="&#xde;" glyph-name="Thorn" horiz-adv-x="574" d="M36 693H249V586H325Q390 586 435 572T508 530T548 461T561 365Q561 308 549 265T508 194T436 151T327 136H249V0H36V693ZM291 268Q325 268 338 286T352 356Q352 410 337 426T293 443H249V268H291Z" />
<glyph unicode="&#xdf;" glyph-name="germandbls" horiz-adv-x="588" d="M390 -8Q342 -8 313 -3T257 11V136Q276 131 299 126T352 120Q402 120 402 152Q402 168 394 176T367 195L341 212Q296 240 275 271T254 351Q254 388 267 416T296 469T325 516T338 566Q338
589 325 601T288 613Q253 613 237 592T221 523V0H32V528Q32 586 50 627T101 694T183 732T293 744Q412 744 468 701T525 581Q525 542 509 513T473 461T437 420T421 384Q421 370 428 361T451 342L481 324Q526 298 552 264T579 164Q579 79 529 36T390 -8Z" />
<glyph unicode="&#xe0;" glyph-name="agrave" d="M165 -8Q94 -8 52 31T10 147Q10 189 22 219T58 269T114 300T189 319L267 332V346Q267 380 249 392T182 405Q147 405 112 400T53 388V515Q86 529 137 538T255 547Q356 547 405 508T455 376V0H298L286 36H281Q267
16 238 4T165 -8ZM233 112Q244 112 253 115T267 123V228L236 225Q213 224 203 212T193 171Q193 139 203 126T233 112ZM93 733H278L330 578H180L93 733Z" />
<glyph unicode="&#xe1;" glyph-name="aacute" d="M165 -8Q94 -8 52 31T10 147Q10 189 22 219T58 269T114 300T189 319L267 332V346Q267 380 249 392T182 405Q147 405 112 400T53 388V515Q86 529 137 538T255 547Q356 547 405 508T455 376V0H298L286 36H281Q267
16 238 4T165 -8ZM233 112Q244 112 253 115T267 123V228L236 225Q213 224 203 212T193 171Q193 139 203 126T233 112ZM219 733H406L317 578H168L219 733Z" />
<glyph unicode="&#xe2;" glyph-name="acircumflex" d="M165 -8Q94 -8 52 31T10 147Q10 189 22 219T58 269T114 300T189 319L267 332V346Q267 380 249 392T182 405Q147 405 112 400T53 388V515Q86 529 137 538T255 547Q356 547 405 508T455 376V0H298L286 36H281Q267
16 238 4T165 -8ZM233 112Q244 112 253 115T267 123V228L236 225Q213 224 203 212T193 171Q193 139 203 126T233 112ZM172 733H325L419 578H288L249 629L210 578H78L172 733Z" />
<glyph unicode="&#xe3;" glyph-name="atilde" d="M165 -8Q94 -8 52 31T10 147Q10 189 22 219T58 269T114 300T189 319L267 332V346Q267 380 249 392T182 405Q147 405 112 400T53 388V515Q86 529 137 538T255 547Q356 547 405 508T455 376V0H298L286 36H281Q267
16 238 4T165 -8ZM233 112Q244 112 253 115T267 123V228L236 225Q213 224 203 212T193 171Q193 139 203 126T233 112ZM73 585Q78 662 110 697T190 732Q210 732 224 728T251 718T273 708T294 703Q316 703 319 731H424Q418 655 385 620T304 584Q286 584 272 588T245
598T223 607T203 612Q192 612 186 605T178 585H73Z" />
<glyph unicode="&#xe4;" glyph-name="adieresis" d="M165 -8Q94 -8 52 31T10 147Q10 189 22 219T58 269T114 300T189 319L267 332V346Q267 380 249 392T182 405Q147 405 112 400T53 388V515Q86 529 137 538T255 547Q356 547 405 508T455 376V0H298L286 36H281Q267
16 238 4T165 -8ZM233 112Q244 112 253 115T267 123V228L236 225Q213 224 203 212T193 171Q193 139 203 126T233 112ZM268 724H421V582H268V724ZM71 724H224V582H71V724Z" />
<glyph unicode="&#xe5;" glyph-name="aring" d="M165 -8Q94 -8 52 31T10 147Q10 189 22 219T58 269T114 300T189 319L267 332V346Q267 380 249 392T182 405Q147 405 112 400T53 388V515Q86 529 137 538T255 547Q356 547 405 508T455 376V0H298L286 36H281Q267
16 238 4T165 -8ZM233 112Q244 112 253 115T267 123V228L236 225Q213 224 203 212T193 171Q193 139 203 126T233 112ZM247 574Q196 574 163 604T130 683Q130 732 162 762T247 793Q299 793 331 763T364 684Q364 635 332 605T247 574ZM247 643Q264 643 274 654T285
683Q285 702 275 712T247 723Q230 723 220 713T210 683Q210 666 220 655T247 643Z" />
<glyph unicode="&#xe6;" glyph-name="ae" horiz-adv-x="738" d="M527 -8Q391 -8 328 61Q299 26 261 9T167 -8Q95 -8 53 31T10 147Q10 189 22 217T58 265T115 296T190 314L268 326V346Q268 380 249 392T181 405Q146 405 111 400T53 388V515Q86 529 134 538T242
547Q332 547 372 507Q421 547 508 547Q569 547 610 530T677 478T713 392T724 274V221H452Q456 168 482 147T568 126Q607 126 643 135T703 154V35Q675 18 631 5T527 -8ZM284 136Q277 156 274 178T268 227L237 226Q213 225 203 213T193 171Q193 139 203 126T233 112Q262
112 284 136ZM501 421Q490 421 481 417T466 402T456 371T451 320H548Q548 350 546 370T537 401T522 416T501 421Z" />
<glyph unicode="&#xe7;" glyph-name="ccedilla" horiz-adv-x="407" d="M242 -8V-40Q341 -46 341 -121Q341 -170 294 -196T140 -226V-156Q182 -154 200 -147T219 -122Q219 -108 207 -103T161 -96V5Q15 48 15 254V277Q15 414 79 480T265 547Q310 547 340 542T390
527V389Q372 396 353 400T306 404Q261 404 236 380T210 293V258Q210 192 231 164T304 135Q333 135 354 140T393 151V21Q374 10 340 1T259 -8H242Z" />
<glyph unicode="&#xe8;" glyph-name="egrave" horiz-adv-x="492" d="M278 -8Q15 -8 15 260V279Q15 402 75 474T254 547Q317 547 360 530T429 478T466 392T478 273V219H206Q211 167 237 147T323 126Q361 126 397 135T457 154V35Q429 18 384 5T278 -8ZM255 421Q244
421 235 417T220 402T210 371T205 320H302Q302 350 300 370T291 401T276 416T255 421ZM100 733H285L337 578H187L100 733Z" />
<glyph unicode="&#xe9;" glyph-name="eacute" horiz-adv-x="492" d="M227 733H414L325 578H176L227 733ZM278 -8Q15 -8 15 260V279Q15 402 75 474T254 547Q317 547 360 530T429 478T466 392T478 273V219H206Q211 167 237 147T323 126Q361 126 397 135T457 154V35Q429
18 384 5T278 -8ZM255 421Q244 421 235 417T220 402T210 371T205 320H302Q302 350 300 370T291 401T276 416T255 421Z" />
<glyph unicode="&#xea;" glyph-name="ecircumflex" horiz-adv-x="492" d="M178 733H331L425 578H294L255 629L216 578H84L178 733ZM278 -8Q15 -8 15 260V279Q15 402 75 474T254 547Q317 547 360 530T429 478T466 392T478 273V219H206Q211 167 237 147T323 126Q361
126 397 135T457 154V35Q429 18 384 5T278 -8ZM255 421Q244 421 235 417T220 402T210 371T205 320H302Q302 350 300 370T291 401T276 416T255 421Z" />
<glyph unicode="&#xeb;" glyph-name="edieresis" horiz-adv-x="492" d="M279 724H432V582H279V724ZM82 724H235V582H82V724ZM278 -8Q15 -8 15 260V279Q15 402 75 474T254 547Q317 547 360 530T429 478T466 392T478 273V219H206Q211 167 237 147T323 126Q361 126
397 135T457 154V35Q429 18 384 5T278 -8ZM255 421Q244 421 235 417T220 402T210 371T205 320H302Q302 350 300 370T291 401T276 416T255 421Z" />
<glyph unicode="&#xec;" glyph-name="igrave" horiz-adv-x="246" d="M29 539H217V0H29V539ZM226 733H411L463 578H313L226 733Z" />
<glyph unicode="&#xed;" glyph-name="iacute" horiz-adv-x="246" d="M354 733H541L452 578H303L354 733ZM29 539H217V0H29V539Z" />
<glyph unicode="&#xee;" glyph-name="icircumflex" horiz-adv-x="246" d="M46 733H198L285 578H156L122 628L89 578H-41L46 733ZM29 539H217V0H29V539Z" />
<glyph unicode="&#xef;" glyph-name="idieresis" horiz-adv-x="246" d="M142 724H287V582H142V724ZM-41 724H104V582H-41V724ZM29 539H217V0H29V539Z" />
<glyph unicode="&#xf0;" glyph-name="eth" horiz-adv-x="528" d="M167 647Q144 671 120 693T70 735H279Q293 726 306 717T332 697L421 724L441 656L391 641Q444 582 477 502T511 312V287Q511 135 445 64T262 -8Q137 -8 76 56T15 255V281Q15 346 29 393T67 470T125
514T198 529Q219 529 235 525T261 514H265Q254 534 243 552T218 588L100 552L79 621L167 647ZM317 306Q317 356 306 405Q298 409 289 411T266 414Q251 414 240 409T223 391T213 357T209 301V255Q209 213 212 187T222 147T239 127T264 122Q293 122 305 151T317 255V306Z"
/>
<glyph unicode="&#xf1;" glyph-name="ntilde" horiz-adv-x="521" d="M28 539H211V493H215Q240 516 274 531T358 547Q422 547 458 516T494 410V0H306V364Q306 384 296 391T265 398Q251 398 238 395T216 387V0H28V539ZM89 585Q94 662 126 697T206 732Q226 732 240
728T267 718T289 708T310 703Q332 703 335 731H440Q434 655 401 620T320 584Q302 584 288 588T261 598T239 607T219 612Q208 612 202 605T194 585H89Z" />
<glyph unicode="&#xf2;" glyph-name="ograve" horiz-adv-x="525" d="M262 -8Q137 -8 76 61T15 255V284Q15 350 33 399T83 481T161 530T262 547Q510 547 510 288V260Q510 192 492 142T441 59T363 9T262 -8ZM263 126Q290 126 303 151T316 240V295Q316 332 313 355T302
391T285 408T261 413Q247 413 237 408T221 389T212 354T209 298V243Q209 208 212 185T222 149T239 131T263 126ZM104 733H289L341 578H191L104 733Z" />
<glyph unicode="&#xf3;" glyph-name="oacute" horiz-adv-x="525" d="M231 733H418L329 578H180L231 733ZM262 -8Q137 -8 76 61T15 255V284Q15 350 33 399T83 481T161 530T262 547Q510 547 510 288V260Q510 192 492 142T441 59T363 9T262 -8ZM263 126Q290 126 303
151T316 240V295Q316 332 313 355T302 391T285 408T261 413Q247 413 237 408T221 389T212 354T209 298V243Q209 208 212 185T222 149T239 131T263 126Z" />
<glyph unicode="&#xf4;" glyph-name="ocircumflex" horiz-adv-x="525" d="M185 733H338L432 578H301L262 629L223 578H91L185 733ZM262 -8Q137 -8 76 61T15 255V284Q15 350 33 399T83 481T161 530T262 547Q510 547 510 288V260Q510 192 492 142T441 59T363 9T262
-8ZM263 126Q290 126 303 151T316 240V295Q316 332 313 355T302 391T285 408T261 413Q247 413 237 408T221 389T212 354T209 298V243Q209 208 212 185T222 149T239 131T263 126Z" />
<glyph unicode="&#xf5;" glyph-name="otilde" horiz-adv-x="525" d="M262 -8Q137 -8 76 61T15 255V284Q15 350 33 399T83 481T161 530T262 547Q510 547 510 288V260Q510 192 492 142T441 59T363 9T262 -8ZM263 126Q290 126 303 151T316 240V295Q316 332 313 355T302
391T285 408T261 413Q247 413 237 408T221 389T212 354T209 298V243Q209 208 212 185T222 149T239 131T263 126ZM85 585Q90 662 122 697T202 732Q222 732 236 728T263 718T285 708T306 703Q328 703 331 731H436Q430 655 397 620T316 584Q298 584 284 588T257 598T235
607T215 612Q204 612 198 605T190 585H85Z" />
<glyph unicode="&#xf6;" glyph-name="odieresis" horiz-adv-x="525" d="M284 724H437V582H284V724ZM87 724H240V582H87V724ZM262 -8Q137 -8 76 61T15 255V284Q15 350 33 399T83 481T161 530T262 547Q510 547 510 288V260Q510 192 492 142T441 59T363 9T262 -8ZM263
126Q290 126 303 151T316 240V295Q316 332 313 355T302 391T285 408T261 413Q247 413 237 408T221 389T212 354T209 298V243Q209 208 212 185T222 149T239 131T263 126Z" />
<glyph unicode="&#xf7;" glyph-name="divide" horiz-adv-x="456" d="M22 419H434V272H22V419ZM142 234H313V75H142V234ZM142 617H313V458H142V617Z" />
<glyph unicode="&#xf8;" glyph-name="oslash" horiz-adv-x="525" d="M263 -8Q222 -8 186 1T121 28L99 0H2L64 80Q41 111 28 152T15 247V284Q15 350 33 399T84 481T162 530T262 547Q343 547 402 514L422 539H518L460 465Q484 435 497 393T511 296V260Q511 192 493
142T442 59T364 9T263 -8ZM264 116Q296 116 310 143T325 240V291L213 147Q221 130 233 123T264 116ZM201 255L311 396Q303 412 291 417T262 423Q230 423 216 396T201 298V255Z" />
<glyph unicode="&#xf9;" glyph-name="ugrave" horiz-adv-x="518" d="M167 -8Q100 -8 64 26T27 138V539H215V175Q215 155 225 147T256 139Q269 139 281 143T302 150V539H490V0H324L312 46H308Q282 25 249 9T167 -8ZM105 733H290L342 578H192L105 733Z" />
<glyph unicode="&#xfa;" glyph-name="uacute" horiz-adv-x="518" d="M234 733H421L332 578H183L234 733ZM167 -8Q100 -8 64 26T27 138V539H215V175Q215 155 225 147T256 139Q269 139 281 143T302 150V539H490V0H324L312 46H308Q282 25 249 9T167 -8Z" />
<glyph unicode="&#xfb;" glyph-name="ucircumflex" horiz-adv-x="518" d="M186 733H339L433 578H302L263 629L224 578H92L186 733ZM167 -8Q100 -8 64 26T27 138V539H215V175Q215 155 225 147T256 139Q269 139 281 143T302 150V539H490V0H324L312 46H308Q282 25
249 9T167 -8Z" />
<glyph unicode="&#xfc;" glyph-name="udieresis" horiz-adv-x="518" d="M282 724H435V582H282V724ZM85 724H238V582H85V724ZM167 -8Q100 -8 64 26T27 138V539H215V175Q215 155 225 147T256 139Q269 139 281 143T302 150V539H490V0H324L312 46H308Q282 25 249 9T167 -8Z" />
<glyph unicode="&#xfd;" glyph-name="yacute" horiz-adv-x="505" d="M137 -196Q111 -196 84 -192T38 -183V-55Q49 -57 63 -59T89 -61Q119 -61 136 -52T160 -19L166 1L-1 539H193L236 355Q241 331 245 308T253 268Q257 247 260 229H264L272 271Q276 289 280 311T289
354L330 539H506L336 -45Q313 -125 268 -160T137 -196ZM230 733H417L328 578H179L230 733Z" />
<glyph unicode="&#xfe;" glyph-name="thorn" horiz-adv-x="532" d="M31 738H220L219 499H223Q244 519 274 533T346 547Q382 547 413 535T467 494T503 419T516 306V266Q516 189 502 137T460 53T395 6T307 -8Q276 -8 253 -3T220 8V-194H31V738ZM261 117Q276 117
287 122T306 142T318 182T322 246V285Q322 322 319 344T308 379T290 396T265 400Q234 400 220 388V126Q225 123 236 120T261 117Z" />
<glyph unicode="&#xff;" glyph-name="ydieresis" horiz-adv-x="505" d="M137 -196Q111 -196 84 -192T38 -183V-55Q49 -57 63 -59T89 -61Q119 -61 136 -52T160 -19L166 1L-1 539H193L236 355Q241 331 245 308T253 268Q257 247 260 229H264L272 271Q276 289 280
311T289 354L330 539H506L336 -45Q313 -125 268 -160T137 -196ZM282 724H435V582H282V724ZM85 724H238V582H85V724Z" />
<glyph unicode="&#x100;" glyph-name="Amacron" horiz-adv-x="616" d="M180 693H433L616 0H403L377 111H216L192 0H0L180 693ZM293 493Q291 475 287 455Q284 438 280 414T270 364L244 245H347L321 365Q316 391 312 415T304 456Q300 476 297 493H293ZM166 838H443V725H166V838Z"
/>
<glyph unicode="&#x101;" glyph-name="amacron" d="M165 -8Q94 -8 52 31T10 147Q10 189 22 219T58 269T114 300T189 319L267 332V346Q267 380 249 392T182 405Q147 405 112 400T53 388V515Q86 529 137 538T255 547Q356 547 405 508T455 376V0H298L286 36H281Q267
16 238 4T165 -8ZM233 112Q244 112 253 115T267 123V228L236 225Q213 224 203 212T193 171Q193 139 203 126T233 112ZM112 700H383V583H112V700Z" />
<glyph unicode="&#x102;" glyph-name="Abreve" horiz-adv-x="616" d="M180 693H433L616 0H403L377 111H216L192 0H0L180 693ZM293 493Q291 475 287 455Q284 438 280 414T270 364L244 245H347L321 365Q316 391 312 415T304 456Q300 476 297 493H293ZM308 719Q271
719 243 729T196 759T167 803T155 857H270Q275 820 308 820Q324 820 334 830T346 857H464Q462 828 451 803T421 759T373 730T308 719Z" />
<glyph unicode="&#x103;" glyph-name="abreve" d="M165 -8Q94 -8 52 31T10 147Q10 189 22 219T58 269T114 300T189 319L267 332V346Q267 380 249 392T182 405Q147 405 112 400T53 388V515Q86 529 137 538T255 547Q356 547 405 508T455 376V0H298L286 36H281Q267
16 238 4T165 -8ZM233 112Q244 112 253 115T267 123V228L236 225Q213 224 203 212T193 171Q193 139 203 126T233 112ZM253 579Q180 579 141 619T99 725H215Q220 688 253 688Q288 688 291 725H409Q407 659 367 619T253 579Z" />
<glyph unicode="&#x104;" glyph-name="Aogonek" horiz-adv-x="616" d="M524 -196Q468 -196 439 -173T410 -109Q410 -70 434 -44T491 0H399L373 111H212L188 0H0L183 693H423L607 5Q581 -12 567 -30T552 -65Q552 -79 560 -85T581 -91Q593 -91 603 -89V-182Q592
-188 570 -192T524 -196ZM288 493Q286 475 282 455Q279 437 275 414T266 364L240 245H343L317 365Q312 391 307 415T299 456Q295 476 292 493H288Z" />
<glyph unicode="&#x105;" glyph-name="aogonek" d="M165 -8Q94 -8 52 31T10 147Q10 189 22 218T57 268T113 300T189 319L267 332V346Q267 380 249 392T182 405Q147 405 112 400T53 388V515Q86 529 137 538T255 547Q356 547 405 508T455 376V4Q435 -13 422 -30T408
-65Q408 -79 416 -85T437 -91Q451 -91 459 -89V-182Q448 -188 426 -192T381 -196Q324 -196 295 -173T266 -109Q266 -69 291 -43T347 0H298L286 36H281Q267 16 238 4T165 -8ZM233 112Q244 112 253 115T267 123V228L236 225Q212 223 203 212T193 171Q193 139 203
126T233 112Z" />
<glyph unicode="&#x106;" glyph-name="Cacute" horiz-adv-x="505" d="M322 -10Q249 -10 193 9T98 69T40 173T20 325V363Q20 459 43 524T108 629T206 686T329 703Q382 703 421 696T483 677V528Q462 535 437 539T380 543Q310 543 278 505T245 372V335Q245 243 273
197T375 150Q414 150 441 156T487 169V21Q462 9 421 0T322 -10ZM264 861H451L366 723H218L264 861Z" />
<glyph unicode="&#x107;" glyph-name="cacute" horiz-adv-x="407" d="M199 733H386L297 578H148L199 733ZM259 -8Q134 -8 75 56T15 254V277Q15 414 79 480T265 547Q310 547 340 542T390 527V389Q372 396 353 400T306 404Q261 404 236 380T210 293V258Q210 192
231 164T304 135Q333 135 354 140T393 151V21Q374 10 340 1T259 -8Z" />
<glyph unicode="&#x108;" glyph-name="Ccircumflex" horiz-adv-x="505" d="M226 856H379L472 723H341L302 763L264 723H132L226 856ZM322 -10Q249 -10 193 9T98 69T40 173T20 325V363Q20 459 43 524T108 629T206 686T329 703Q382 703 421 696T483 677V528Q462
535 437 539T380 543Q310 543 278 505T245 372V335Q245 243 273 197T375 150Q414 150 441 156T487 169V21Q462 9 421 0T322 -10Z" />
<glyph unicode="&#x109;" glyph-name="ccircumflex" horiz-adv-x="407" d="M155 733H308L402 578H271L232 629L193 578H61L155 733ZM259 -8Q134 -8 75 56T15 254V277Q15 414 79 480T265 547Q310 547 340 542T390 527V389Q372 396 353 400T306 404Q261 404 236
380T210 293V258Q210 192 231 164T304 135Q333 135 354 140T393 151V21Q374 10 340 1T259 -8Z" />
<glyph unicode="&#x10a;" glyph-name="Cdotaccent" horiz-adv-x="505" d="M322 -10Q249 -10 193 9T98 69T40 173T20 325V363Q20 459 43 524T108 629T206 686T329 703Q382 703 421 696T483 677V528Q462 535 437 539T380 543Q310 543 278 505T245 372V335Q245 243
273 197T375 150Q414 150 441 156T487 169V21Q462 9 421 0T322 -10ZM213 858H394V725H213V858Z" />
<glyph unicode="&#x10b;" glyph-name="cdotaccent" horiz-adv-x="407" d="M259 -8Q134 -8 75 56T15 254V277Q15 414 79 480T265 547Q310 547 340 542T390 527V389Q372 396 353 400T306 404Q261 404 236 380T210 293V258Q210 192 231 164T304 135Q333 135 354 140T393
151V21Q374 10 340 1T259 -8ZM135 729H324V582H135V729Z" />
<glyph unicode="&#x10c;" glyph-name="Ccaron" horiz-adv-x="505" d="M376 723H223L129 856H261L299 816L338 856H469L376 723ZM322 -10Q249 -10 193 9T98 69T40 173T20 325V363Q20 459 43 524T108 629T206 686T329 703Q382 703 421 696T483 677V528Q462 535 437
539T380 543Q310 543 278 505T245 372V335Q245 243 273 197T375 150Q414 150 441 156T487 169V21Q462 9 421 0T322 -10Z" />
<glyph unicode="&#x10d;" glyph-name="ccaron" horiz-adv-x="407" d="M310 578H156L62 733H195L233 682L272 733H403L310 578ZM259 -8Q134 -8 75 56T15 254V277Q15 414 79 480T265 547Q310 547 340 542T390 527V389Q372 396 353 400T306 404Q261 404 236 380T210
293V258Q210 192 231 164T304 135Q333 135 354 140T393 151V21Q374 10 340 1T259 -8Z" />
<glyph unicode="&#x10e;" glyph-name="Dcaron" horiz-adv-x="609" d="M355 723H202L108 856H240L278 816L317 856H448L355 723ZM36 693H285Q355 693 411 678T508 627T569 530T590 378V325Q590 236 568 174T506 74T409 18T285 0H36V693ZM284 150Q328 150 349 186T371
316V381Q371 428 366 459T349 509T322 535T283 543H246V150H284Z" />
<glyph unicode="&#x10f;" glyph-name="dcaron" horiz-adv-x="528" d="M527 579L531 735H650L623 579H527ZM197 -8Q158 -8 125 5T68 49T30 128T16 248V276Q16 351 31 402T73 486T139 532T226 547Q257 547 279 542T312 530V735H500V0H336L325 38H321Q301 19 272
6T197 -8ZM269 130Q283 130 293 134T312 143V409Q306 412 296 415T273 418Q256 418 245 412T225 392T214 352T210 288V252Q210 216 213 192T224 155T243 136T269 130Z" />
<glyph unicode="&#x110;" glyph-name="Dcroat" horiz-adv-x="609" d="M43 276H7V418H43V693H291Q361 693 418 678T514 627T575 530T597 378V325Q597 236 575 174T513 74T416 18T292 0H43V276ZM293 150Q337 150 358 186T380 316V381Q380 428 375 459T358 509T331
535T292 543H249V418H326V276H249V150H293Z" />
<glyph unicode="&#x111;" glyph-name="dcroat" horiz-adv-x="528" d="M203 674H312V735H500V674H545V590H500V0H336L325 38H321Q301 19 272 6T197 -8Q158 -8 125 5T68 49T30 128T16 248V276Q16 351 31 402T73 486T139 532T226 547Q257 547 279 542T312 530V590H203V674ZM269
130Q283 130 293 134T312 143V409Q306 412 296 415T273 418Q256 418 245 412T225 392T214 352T210 288V252Q210 216 213 192T224 155T243 136T269 130Z" />
<glyph unicode="&#x112;" glyph-name="Emacron" horiz-adv-x="495" d="M36 693H464V542H244V427H425V279H244V151H475V0H36V693ZM111 838H388V725H111V838Z" />
<glyph unicode="&#x113;" glyph-name="emacron" horiz-adv-x="492" d="M278 -8Q15 -8 15 260V279Q15 402 75 474T254 547Q317 547 360 530T429 478T466 392T478 273V219H206Q211 167 237 147T323 126Q361 126 397 135T457 154V35Q429 18 384 5T278 -8ZM255 421Q244
421 235 417T220 402T210 371T205 320H302Q302 350 300 370T291 401T276 416T255 421ZM121 700H392V583H121V700Z" />
<glyph unicode="&#x114;" glyph-name="Ebreve" horiz-adv-x="495" d="M36 693H464V542H244V427H425V279H244V151H475V0H36V693ZM252 719Q215 719 187 729T140 759T111 803T99 857H214Q219 820 252 820Q268 820 278 830T290 857H408Q406 828 395 803T365 759T317
730T252 719Z" />
<glyph unicode="&#x115;" glyph-name="ebreve" horiz-adv-x="492" d="M278 -8Q15 -8 15 260V279Q15 402 75 474T254 547Q317 547 360 530T429 478T466 392T478 273V219H206Q211 167 237 147T323 126Q361 126 397 135T457 154V35Q429 18 384 5T278 -8ZM255 421Q244
421 235 417T220 402T210 371T205 320H302Q302 350 300 370T291 401T276 416T255 421ZM254 579Q181 579 142 619T100 725H216Q221 688 254 688Q289 688 292 725H410Q408 659 368 619T254 579Z" />
<glyph unicode="&#x116;" glyph-name="Edotaccent" horiz-adv-x="495" d="M163 858H344V725H163V858ZM36 693H464V542H244V427H425V279H244V151H475V0H36V693Z" />
<glyph unicode="&#x117;" glyph-name="edotaccent" horiz-adv-x="492" d="M278 -8Q15 -8 15 260V279Q15 402 75 474T254 547Q317 547 360 530T429 478T466 392T478 273V219H206Q211 167 237 147T323 126Q361 126 397 135T457 154V35Q429 18 384 5T278 -8ZM255
421Q244 421 235 417T220 402T210 371T205 320H302Q302 350 300 370T291 401T276 416T255 421ZM163 729H352V582H163V729Z" />
<glyph unicode="&#x118;" glyph-name="Eogonek" horiz-adv-x="495" d="M436 0Q419 -15 407 -31T394 -65Q394 -79 402 -85T423 -91Q437 -91 445 -89V-182Q434 -188 412 -192T366 -196Q309 -196 281 -173T252 -109Q252 -89 259 -73T277 -43T303 -19T333 0H36V693H464V542H244V427H425V279H244V151H475V0H436Z"
/>
<glyph unicode="&#x119;" glyph-name="eogonek" horiz-adv-x="492" d="M334 -196Q277 -196 248 -173T219 -109Q219 -73 240 -49T287 -8H278Q15 -8 15 260V279Q15 402 75 474T254 547Q317 547 360 530T429 478T466 392T478 273V219H206Q211 167 237 147T323 126Q361
126 397 135T457 154V35Q443 25 429 16T402 -3Q385 -17 373 -32T361 -65Q361 -79 369 -85T390 -91Q404 -91 412 -89V-182Q401 -188 379 -192T334 -196ZM255 421Q244 421 235 417T220 402T210 371T205 320H302Q302 351 300 370T291 401T276 416T255 421Z" />
<glyph unicode="&#x11a;" glyph-name="Ecaron" horiz-adv-x="495" d="M327 723H174L80 856H212L250 816L289 856H420L327 723ZM36 693H464V542H244V427H425V279H244V151H475V0H36V693Z" />
<glyph unicode="&#x11b;" glyph-name="ecaron" horiz-adv-x="492" d="M333 578H179L85 733H218L256 682L295 733H426L333 578ZM278 -8Q15 -8 15 260V279Q15 402 75 474T254 547Q317 547 360 530T429 478T466 392T478 273V219H206Q211 167 237 147T323 126Q361
126 397 135T457 154V35Q429 18 384 5T278 -8ZM255 421Q244 421 235 417T220 402T210 371T205 320H302Q302 350 300 370T291 401T276 416T255 421Z" />
<glyph unicode="&#x11c;" glyph-name="Gcircumflex" horiz-adv-x="588" d="M245 856H398L491 723H360L321 763L283 723H151L245 856ZM331 -9Q257 -9 199 7T102 61T41 164T20 326V366Q20 460 43 524T110 628T213 685T345 703Q413 703 460 693T530 671V518Q506 526
471 533T385 541Q341 541 313 532T268 503T245 454T238 385V280Q238 244 242 218T256 175T283 150T326 141Q340 141 350 143T367 147V260H307V398H562V33Q545 26 521 19T466 5T401 -5T331 -9Z" />
<glyph unicode="&#x11d;" glyph-name="gcircumflex" horiz-adv-x="496" d="M169 733H322L416 578H285L246 629L207 578H75L169 733ZM228 -196Q105 -196 50 -164T-6 -78Q-6 -34 19 -12T83 23V28Q58 39 43 61T27 117Q27 155 46 181T92 226Q62 243 41 276T20 360V376Q20
461 79 504T235 547Q287 547 324 539H490V431H434Q439 421 443 408T447 377V364Q447 281 392 239T239 196Q203 196 175 201Q173 196 171 190T169 178Q169 165 176 160T202 155H322Q497 155 497 -2Q497 -94 432 -145T228 -196ZM233 -82Q283 -82 302 -70T322 -36Q322
-16 309 -8T266 0H183Q172 -6 164 -17T156 -42Q156 -61 173 -71T233 -82ZM236 297Q255 297 265 311T275 363V375Q275 419 265 432T235 446Q215 446 205 431T195 377V365Q195 325 205 311T236 297Z" />
<glyph unicode="&#x11e;" glyph-name="Gbreve" horiz-adv-x="588" d="M322 719Q285 719 257 729T210 759T181 803T169 857H284Q289 820 322 820Q338 820 348 830T360 857H478Q476 828 465 803T435 759T387 730T322 719ZM331 -9Q257 -9 199 7T102 61T41 164T20
326V366Q20 460 43 524T110 628T213 685T345 703Q413 703 460 693T530 671V518Q506 526 471 533T385 541Q341 541 313 532T268 503T245 454T238 385V280Q238 244 242 218T256 175T283 150T326 141Q340 141 350 143T367 147V260H307V398H562V33Q545 26 521 19T466
5T401 -5T331 -9Z" />
<glyph unicode="&#x11f;" glyph-name="gbreve" horiz-adv-x="496" d="M228 -196Q105 -196 50 -164T-6 -78Q-6 -34 19 -12T83 23V28Q58 39 43 61T27 117Q27 155 46 181T92 226Q62 243 41 276T20 360V376Q20 461 79 504T235 547Q287 547 324 539H490V431H434Q439
421 443 408T447 377V364Q447 281 392 239T239 196Q203 196 175 201Q173 196 171 190T169 178Q169 165 176 160T202 155H322Q497 155 497 -2Q497 -94 432 -145T228 -196ZM233 -82Q283 -82 302 -70T322 -36Q322 -16 309 -8T266 0H183Q172 -6 164 -17T156 -42Q156
-61 173 -71T233 -82ZM236 297Q255 297 265 311T275 363V375Q275 419 265 432T235 446Q215 446 205 431T195 377V365Q195 325 205 311T236 297ZM249 579Q176 579 137 619T95 725H211Q216 688 249 688Q284 688 287 725H405Q403 659 363 619T249 579Z" />
<glyph unicode="&#x120;" glyph-name="Gdotaccent" horiz-adv-x="588" d="M232 858H413V725H232V858ZM331 -9Q257 -9 199 7T102 61T41 164T20 326V366Q20 460 43 524T110 628T213 685T345 703Q413 703 460 693T530 671V518Q506 526 471 533T385 541Q341 541 313
532T268 503T245 454T238 385V280Q238 244 242 218T256 175T283 150T326 141Q340 141 350 143T367 147V260H307V398H562V33Q545 26 521 19T466 5T401 -5T331 -9Z" />
<glyph unicode="&#x121;" glyph-name="gdotaccent" horiz-adv-x="496" d="M228 -196Q105 -196 50 -164T-6 -78Q-6 -34 19 -12T83 23V28Q58 39 43 61T27 117Q27 155 46 181T92 226Q62 243 41 276T20 360V376Q20 461 79 504T235 547Q287 547 324 539H490V431H434Q439
421 443 408T447 377V364Q447 281 392 239T239 196Q203 196 175 201Q173 196 171 190T169 178Q169 165 176 160T202 155H322Q497 155 497 -2Q497 -94 432 -145T228 -196ZM233 -82Q283 -82 302 -70T322 -36Q322 -16 309 -8T266 0H183Q172 -6 164 -17T156 -42Q156
-61 173 -71T233 -82ZM236 297Q255 297 265 311T275 363V375Q275 419 265 432T235 446Q215 446 205 431T195 377V365Q195 325 205 311T236 297ZM150 729H339V582H150V729Z" />
<glyph unicode="&#x122;" glyph-name="Gcommaaccent" horiz-adv-x="588" d="M247 -34H407L362 -181H235L247 -34ZM331 -9Q257 -9 199 7T102 61T41 164T20 326V366Q20 460 43 524T110 628T213 685T345 703Q413 703 460 693T530 671V518Q506 526 471 533T385 541Q341
541 313 532T268 503T245 454T238 385V280Q238 244 242 218T256 175T283 150T326 141Q340 141 350 143T367 147V260H307V398H562V33Q545 26 521 19T466 5T401 -5T331 -9Z" />
<glyph unicode="&#x123;" glyph-name="gcommaaccent" horiz-adv-x="496" d="M320 584H159L207 732H332L320 584ZM228 -196Q105 -196 50 -164T-6 -78Q-6 -34 19 -12T83 23V28Q58 39 43 61T27 117Q27 155 46 181T92 226Q62 243 41 276T20 360V376Q20 461 79 504T235
547Q287 547 324 539H490V431H434Q439 421 443 408T447 377V364Q447 281 392 239T239 196Q203 196 175 201Q173 196 171 190T169 178Q169 165 176 160T202 155H322Q497 155 497 -2Q497 -94 432 -145T228 -196ZM233 -82Q283 -82 302 -70T322 -36Q322 -16 309 -8T266
0H183Q172 -6 164 -17T156 -42Q156 -61 173 -71T233 -82ZM236 297Q255 297 265 311T275 363V375Q275 419 265 432T235 446Q215 446 205 431T195 377V365Q195 325 205 311T236 297Z" />
<glyph unicode="&#x124;" glyph-name="Hcircumflex" horiz-adv-x="620" d="M36 693H246V432H374V693H584V0H374V279H246V0H36V693ZM232 856H385L478 723H347L308 763L270 723H138L232 856Z" />
<glyph unicode="&#x125;" glyph-name="hcircumflex" horiz-adv-x="521" d="M28 735H216V495H220Q243 517 276 532T358 547Q421 547 457 516T494 410V0H306V364Q306 384 296 391T265 398Q251 398 238 395T216 387V0H28V735ZM188 899H341L434 766H303L264 806L226
766H94L188 899Z" />
<glyph unicode="&#x126;" glyph-name="Hbar" horiz-adv-x="620" d="M-1 595H35V693H243V595H373V693H583V595H620V502H583V0H373V279H243V0H35V502H-1V595ZM373 429V502H243V429H373Z" />
<glyph unicode="&#x127;" glyph-name="hbar" horiz-adv-x="521" d="M-18 674H28V735H216V674H324V590H216V495H220Q243 517 276 532T358 547Q421 547 457 516T494 410V0H306V364Q306 384 296 391T265 398Q251 398 238 395T216 387V0H28V590H-18V674Z" />
<glyph unicode="&#x128;" glyph-name="Itilde" horiz-adv-x="282" d="M36 693H246V0H36V693ZM227 725Q230 764 240 790T266 833T301 855T341 862Q358 862 372 858T399 850T421 841T440 837Q451 837 456 843T463 860H572Q568 820 558 794T532 751T497 728T457 721Q440
721 426 725T399 733T377 742T359 746Q347 746 342 741T334 725H227Z" />
<glyph unicode="&#x129;" glyph-name="itilde" horiz-adv-x="246" d="M29 539H217V0H29V539ZM-40 588Q-33 667 -1 701T69 736Q85 736 98 732T121 722T140 712T157 707Q168 707 172 714T179 734H283Q280 694 270 666T245 620T212 594T175 586Q159 586 146 590T121
600L101 610Q92 615 85 615Q68 615 63 588H-40Z" />
<glyph unicode="&#x12a;" glyph-name="Imacron" horiz-adv-x="282" d="M36 693H246V0H36V693ZM6 848H276V725H6V848Z" />
<glyph unicode="&#x12b;" glyph-name="imacron" horiz-adv-x="246" d="M4 701H245V583H4V701ZM29 539H217V0H29V539Z" />
<glyph unicode="&#x12c;" glyph-name="Ibreve" horiz-adv-x="282" d="M36 693H246V0H36V693ZM402 719Q365 719 337 729T290 759T261 803T249 857H364Q369 820 402 820Q418 820 428 830T440 857H558Q556 828 545 803T515 759T467 730T402 719Z" />
<glyph unicode="&#x12d;" glyph-name="ibreve" horiz-adv-x="246" d="M122 581Q50 581 15 620T-22 723H92Q94 689 122 689Q150 689 152 723H267Q265 659 230 620T122 581ZM29 539H217V0H29V539Z" />
<glyph unicode="&#x12e;" glyph-name="Iogonek" horiz-adv-x="282" d="M53 -109Q53 -71 76 -44T131 0H36V693H246V4Q223 -12 209 -30T195 -65Q195 -79 203 -85T223 -91Q238 -91 246 -89V-182Q234 -188 213 -192T167 -196Q111 -196 82 -173T53 -109Z" />
<glyph unicode="&#x12f;" glyph-name="iogonek" horiz-adv-x="246" d="M28 -109Q28 -71 52 -44T109 0H29V539H217V4Q197 -13 184 -30T170 -65Q170 -79 178 -85T200 -91Q213 -91 221 -89V-182Q210 -188 188 -192T143 -196Q86 -196 57 -173T28 -109ZM28 729H218V582H28V729Z"
/>
<glyph unicode="&#x130;" glyph-name="Idotaccent" horiz-adv-x="282" d="M36 693H246V0H36V693ZM310 858H491V725H310V858Z" />
<glyph unicode="&#x131;" glyph-name="dotlessi" horiz-adv-x="246" d="M29 539H217V0H29V539Z" />
<glyph unicode="&#x132;" glyph-name="IJ" horiz-adv-x="654" d="M422 -7Q373 -7 340 0T285 19V164Q295 161 309 159T339 156Q374 156 394 171T414 228V693H624V195Q624 150 613 113T577 49T515 8T422 -7ZM37 693H248V0H37V693Z" />
<glyph unicode="&#x133;" glyph-name="ij" horiz-adv-x="246" d="M29 539H217V0H29V539ZM28 729H218V582H28V729ZM286 -195Q252 -195 227 -190T188 -177V-58Q193 -59 201 -60T219 -61Q246 -61 260 -49T274 -4V539H463V-24Q463 -104 423 -149T286 -195ZM273 729H464V582H273V729Z"
/>
<glyph unicode="&#x134;" glyph-name="Jcircumflex" horiz-adv-x="395" d="M178 856H331L424 723H293L254 763L216 723H84L178 856ZM155 -7Q104 -7 70 1T14 20V164Q25 162 41 159T74 156Q110 156 131 170T152 225V693H362V193Q362 148 351 112T314 49T250 8T155 -7Z" />
<glyph unicode="&#x135;" glyph-name="jcircumflex" horiz-adv-x="248" d="M46 733H199L286 578H157L123 628L89 578H-41L46 733ZM42 -195Q8 -195 -17 -190T-56 -177V-58Q-51 -59 -43 -60T-25 -61Q3 -61 17 -49T31 -4V539H219V-24Q219 -104 179 -149T42 -195Z" />
<glyph unicode="&#x136;" glyph-name="Kcommaaccent" horiz-adv-x="608" d="M225 -34H385L340 -181H213L225 -34ZM36 693H246V396L388 693H603L437 370L613 0H379L246 311V0H36V693Z" />
<glyph unicode="&#x137;" glyph-name="kcommaaccent" horiz-adv-x="512" d="M182 -34H342L297 -181H170L182 -34ZM216 321L322 539H509L382 294L513 0H314L216 243V0H28V735H216V321Z" />
<glyph unicode="&#x139;" glyph-name="Lacute" horiz-adv-x="459" d="M362 861H549L464 723H316L362 861ZM36 693H246V151H444V0H36V693Z" />
<glyph unicode="&#x13a;" glyph-name="lacute" horiz-adv-x="244" d="M347 904H534L449 766H301L347 904ZM29 735H217V0H29V735Z" />
<glyph unicode="&#x13b;" glyph-name="Lcommaaccent" horiz-adv-x="459" d="M167 -34H327L282 -181H155L167 -34ZM36 693H246V151H444V0H36V693Z" />
<glyph unicode="&#x13c;" glyph-name="lcommaaccent" horiz-adv-x="246" d="M306 -34H466L421 -181H294L306 -34ZM29 735H217V0H29V735Z" />
<glyph unicode="&#x13d;" glyph-name="Lcaron" horiz-adv-x="459" d="M277 510L284 693H424L393 510H277ZM36 693H246V151H444V0H36V693Z" />
<glyph unicode="&#x13e;" glyph-name="lcaron" horiz-adv-x="244" d="M243 579L247 735H366L339 579H243ZM29 735H217V0H29V735Z" />
<glyph unicode="&#x13f;" glyph-name="Ldot" horiz-adv-x="459" d="M300 437H453V293H300V437ZM36 693H246V151H444V0H36V693Z" />
<glyph unicode="&#x140;" glyph-name="ldot" horiz-adv-x="397" d="M250 427H394V289H250V427ZM30 735H218V0H30V735Z" />
<glyph unicode="&#x141;" glyph-name="Lslash" horiz-adv-x="465" d="M2 344L45 360V693H252V434L380 484V341L252 291V151H450V0H45V216L2 200V344Z" />
<glyph unicode="&#x142;" glyph-name="lslash" horiz-adv-x="278" d="M1 383L43 405V735H232V500L277 524V380L232 355V0H43V261L1 239V383Z" />
<glyph unicode="&#x143;" glyph-name="Nacute" horiz-adv-x="616" d="M286 861H473L388 723H240L286 861ZM36 693H257L351 468Q362 442 373 415T392 365Q402 339 410 314H413Q411 334 409 361Q407 384 406 417T405 495V693H580V0H379L281 223Q267 255 254 289T230
351Q218 384 207 415H204Q205 389 207 356Q209 327 209 286T211 190V0H36V693Z" />
<glyph unicode="&#x144;" glyph-name="nacute" horiz-adv-x="521" d="M227 733H414L325 578H176L227 733ZM28 539H211V493H215Q240 516 274 531T358 547Q422 547 458 516T494 410V0H306V364Q306 384 296 391T265 398Q251 398 238 395T216 387V0H28V539Z" />
<glyph unicode="&#x145;" glyph-name="Ncommaaccent" horiz-adv-x="616" d="M234 -32H394L349 -179H222L234 -32ZM36 693H257L351 468Q362 442 373 415T392 365Q402 339 410 314H413Q411 334 409 361Q407 384 406 417T405 495V693H580V0H379L281 223Q267 255 254
289T230 351Q218 384 207 415H204Q205 389 207 356Q209 327 209 286T211 190V0H36V693Z" />
<glyph unicode="&#x146;" glyph-name="ncommaaccent" horiz-adv-x="521" d="M186 -34H346L301 -181H174L186 -34ZM28 539H211V493H215Q240 516 274 531T358 547Q422 547 458 516T494 410V0H306V364Q306 384 296 391T265 398Q251 398 238 395T216 387V0H28V539Z" />
<glyph unicode="&#x147;" glyph-name="Ncaron" horiz-adv-x="616" d="M394 723H241L147 856H279L317 816L356 856H487L394 723ZM36 693H257L351 468Q362 442 373 415T392 365Q402 339 410 314H413Q411 334 409 361Q407 384 406 417T405 495V693H580V0H379L281
223Q267 255 254 289T230 351Q218 384 207 415H204Q205 389 207 356Q209 327 209 286T211 190V0H36V693Z" />
<glyph unicode="&#x148;" glyph-name="ncaron" horiz-adv-x="521" d="M343 578H189L95 733H228L266 682L305 733H436L343 578ZM28 539H211V493H215Q240 516 274 531T358 547Q422 547 458 516T494 410V0H306V364Q306 384 296 391T265 398Q251 398 238 395T216 387V0H28V539Z"
/>
<glyph unicode="&#x149;" glyph-name="napostrophe" horiz-adv-x="521" d="M-138 693H31L-12 468H-153L-138 693ZM28 539H211V493H215Q240 516 274 531T358 547Q422 547 458 516T494 410V0H306V364Q306 384 296 391T265 398Q251 398 238 395T216 387V0H28V539Z" />
<glyph unicode="&#x14a;" glyph-name="Eng" horiz-adv-x="616" d="M36 693H253L349 467Q359 444 369 418T389 368Q400 341 410 314H413Q411 338 409 367Q407 392 406 424T405 494V693H580V6Q580 -38 570 -72T537 -129T475 -164T382 -177Q343 -177 315 -169T270
-153V-35Q278 -37 293 -39T325 -42Q355 -42 371 -35T393 -11L286 224Q273 251 260 284T234 347Q220 381 207 415H204Q205 384 207 348Q209 317 209 277T211 191V0H36V693Z" />
<glyph unicode="&#x14b;" glyph-name="eng" horiz-adv-x="521" d="M320 -195Q285 -195 260 -190T222 -178L223 -62Q228 -63 235 -63T252 -64Q279 -64 292 -52T306 -7V364Q306 384 296 391T265 398Q251 398 238 395T216 387V0H28V539H211V493H215Q241 516 275 531T358
547Q422 547 458 516T495 410V-24Q495 -104 456 -149T320 -195Z" />
<glyph unicode="&#x14c;" glyph-name="Omacron" horiz-adv-x="629" d="M175 838H452V725H175V838ZM314 -10Q249 -10 195 9T102 68T42 172T20 324V369Q20 457 43 520T106 624T199 684T314 703Q377 703 431 686T524 629T586 527T609 374V329Q609 237 586 173T522
68T428 9T314 -10ZM315 145Q334 145 348 152T371 178T384 225T388 297V391Q388 437 384 467T370 516T347 541T313 548Q275 548 258 515T241 396V302Q241 255 245 225T258 177T281 152T315 145Z" />
<glyph unicode="&#x14d;" glyph-name="omacron" horiz-adv-x="525" d="M126 700H397V583H126V700ZM262 -8Q137 -8 76 61T15 255V284Q15 350 33 399T83 481T161 530T262 547Q510 547 510 288V260Q510 192 492 142T441 59T363 9T262 -8ZM263 126Q290 126 303 151T316
240V295Q316 332 313 355T302 391T285 408T261 413Q247 413 237 408T221 389T212 354T209 298V243Q209 208 212 185T222 149T239 131T263 126Z" />
<glyph unicode="&#x14e;" glyph-name="Obreve" horiz-adv-x="629" d="M313 719Q276 719 248 729T201 759T172 803T160 857H275Q280 820 313 820Q329 820 339 830T351 857H469Q467 828 456 803T426 759T378 730T313 719ZM314 -10Q249 -10 195 9T102 68T42 172T20
324V369Q20 457 43 520T106 624T199 684T314 703Q377 703 431 686T524 629T586 527T609 374V329Q609 237 586 173T522 68T428 9T314 -10ZM315 145Q334 145 348 152T371 178T384 225T388 297V391Q388 437 384 467T370 516T347 541T313 548Q275 548 258 515T241 396V302Q241
255 245 225T258 177T281 152T315 145Z" />
<glyph unicode="&#x14f;" glyph-name="obreve" horiz-adv-x="525" d="M262 -8Q137 -8 76 61T15 255V284Q15 350 33 399T83 481T161 530T262 547Q510 547 510 288V260Q510 192 492 142T441 59T363 9T262 -8ZM263 126Q290 126 303 151T316 240V295Q316 332 313 355T302
391T285 408T261 413Q247 413 237 408T221 389T212 354T209 298V243Q209 208 212 185T222 149T239 131T263 126ZM261 579Q188 579 149 619T107 725H223Q228 688 261 688Q296 688 299 725H417Q415 659 375 619T261 579Z" />
<glyph unicode="&#x150;" glyph-name="Ohungarumlaut" horiz-adv-x="629" d="M377 862H542L478 723H336L377 862ZM180 862H344L280 723H139L180 862ZM314 -10Q249 -10 195 9T102 68T42 172T20 324V369Q20 457 43 520T106 624T199 684T314 703Q377 703 431 686T524
629T586 527T609 374V329Q609 237 586 173T522 68T428 9T314 -10ZM315 145Q334 145 348 152T371 178T384 225T388 297V391Q388 437 384 467T370 516T347 541T313 548Q275 548 258 515T241 396V302Q241 255 245 225T258 177T281 152T315 145Z" />
<glyph unicode="&#x151;" glyph-name="ohungarumlaut" horiz-adv-x="525" d="M328 733H492L431 578H290L328 733ZM135 733H298L237 578H96L135 733ZM262 -8Q137 -8 76 61T15 255V284Q15 350 33 399T83 481T161 530T262 547Q510 547 510 288V260Q510 192 492 142T441
59T363 9T262 -8ZM263 126Q290 126 303 151T316 240V295Q316 332 313 355T302 391T285 408T261 413Q247 413 237 408T221 389T212 354T209 298V243Q209 208 212 185T222 149T239 131T263 126Z" />
<glyph unicode="&#x152;" glyph-name="OE" horiz-adv-x="812" d="M324 0Q252 0 196 16T100 71T41 171T20 325V367Q20 455 40 517T99 618T193 675T317 693H781V542H572V427H743V279H572V151H793V0H324ZM363 149V544H327Q304 544 288 537T262 512T248 462T243 381V313Q243
262 248 230T263 180T289 156T327 149H363Z" />
<glyph unicode="&#x153;" glyph-name="oe" horiz-adv-x="794" d="M256 -8Q135 -8 75 61T15 255V284Q15 350 33 399T83 481T158 530T254 547Q313 547 353 531T419 485Q442 514 477 530T564 547Q625 547 666 530T733 478T770 392T781 273V220H507Q512 167 538 147T625
126Q664 126 699 135T759 154V35Q731 18 688 5T591 -8Q527 -8 485 10T416 61Q359 -8 256 -8ZM263 126Q290 126 303 151T316 240V295Q316 332 313 355T302 391T285 408T261 413Q247 413 237 408T221 389T212 354T209 298V243Q209 208 212 185T222 149T239 131T263
126ZM558 421Q546 421 537 417T522 402T511 371T506 319H603Q603 350 601 369T593 400T579 416T558 421Z" />
<glyph unicode="&#x154;" glyph-name="Racute" horiz-adv-x="585" d="M240 861H427L342 723H194L240 861ZM36 693H318Q440 693 498 643T557 476Q557 407 534 367T470 305V302L588 0H375L286 244H246V0H36V693ZM284 370Q319 370 333 392T347 462Q347 508 333 529T283
550H243V370H284Z" />
<glyph unicode="&#x155;" glyph-name="racute" horiz-adv-x="359" d="M421 733H608L519 578H370L421 733ZM28 539H211V478H215Q233 510 260 528T322 546Q339 546 349 542V367Q343 369 330 370T304 371Q251 371 216 355V0H28V539Z" />
<glyph unicode="&#x156;" glyph-name="Rcommaaccent" horiz-adv-x="585" d="M225 -34H385L340 -181H213L225 -34ZM36 693H318Q440 693 498 643T557 476Q557 407 534 367T470 305V302L588 0H375L286 244H246V0H36V693ZM284 370Q319 370 333 392T347 462Q347 508
333 529T283 550H243V370H284Z" />
<glyph unicode="&#x157;" glyph-name="rcommaaccent" horiz-adv-x="359" d="M303 -34H463L418 -181H291L303 -34ZM28 539H211V478H215Q233 510 260 528T322 546Q339 546 349 542V367Q343 369 330 370T304 371Q251 371 216 355V0H28V539Z" />
<glyph unicode="&#x158;" glyph-name="Rcaron" horiz-adv-x="585" d="M356 723H203L109 856H241L279 816L318 856H449L356 723ZM36 693H318Q440 693 498 643T557 476Q557 407 534 367T470 305V302L588 0H375L286 244H246V0H36V693ZM284 370Q319 370 333 392T347
462Q347 508 333 529T283 550H243V370H284Z" />
<glyph unicode="&#x159;" glyph-name="rcaron" horiz-adv-x="359" d="M290 578H136L42 733H175L213 682L252 733H383L290 578ZM28 539H211V478H215Q233 510 260 528T322 546Q339 546 349 542V367Q343 369 330 370T304 371Q251 371 216 355V0H28V539Z" />
<glyph unicode="&#x15a;" glyph-name="Sacute" horiz-adv-x="485" d="M214 -9Q156 -9 104 0T20 25V178Q54 165 94 156T182 147Q227 147 247 158T267 198Q267 223 252 233T203 258L163 273Q85 302 51 353T16 485Q16 587 76 645T262 703Q332 703 370 695T434 675V525Q405
536 368 543T286 550Q248 550 231 539T214 505Q214 482 230 472T276 451L318 436Q353 424 381 408T430 366T460 307T471 225Q471 109 407 50T214 -9ZM207 861H394L309 723H161L207 861Z" />
<glyph unicode="&#x15b;" glyph-name="sacute" horiz-adv-x="405" d="M169 733H356L267 578H118L169 733ZM174 -8Q126 -8 84 0T16 22V150Q41 141 72 133T143 124Q180 124 195 131T211 155Q211 172 201 178T167 194L126 209Q13 251 13 373Q13 461 66 504T221 547Q310
547 363 525V398Q339 406 310 411T244 417Q215 417 201 412T186 390Q186 376 197 370T232 356L268 344Q331 323 361 287T391 180Q391 83 338 38T174 -8Z" />
<glyph unicode="&#x15c;" glyph-name="Scircumflex" horiz-adv-x="485" d="M170 856H323L416 723H285L246 763L208 723H76L170 856ZM214 -9Q156 -9 104 0T20 25V178Q54 165 94 156T182 147Q227 147 247 158T267 198Q267 223 252 233T203 258L163 273Q85 302 51
353T16 485Q16 587 76 645T262 703Q332 703 370 695T434 675V525Q405 536 368 543T286 550Q248 550 231 539T214 505Q214 482 230 472T276 451L318 436Q353 424 381 408T430 366T460 307T471 225Q471 109 407 50T214 -9Z" />
<glyph unicode="&#x15d;" glyph-name="scircumflex" horiz-adv-x="405" d="M388 733H541L635 578H504L465 629L426 578H294L388 733ZM174 -8Q126 -8 84 0T16 22V150Q41 141 72 133T143 124Q180 124 195 131T211 155Q211 172 201 178T167 194L126 209Q13 251 13
373Q13 461 66 504T221 547Q310 547 363 525V398Q339 406 310 411T244 417Q215 417 201 412T186 390Q186 376 197 370T232 356L268 344Q331 323 361 287T391 180Q391 83 338 38T174 -8Z" />
<glyph unicode="&#x15e;" glyph-name="Scedilla" horiz-adv-x="485" d="M142 -156Q184 -154 202 -147T221 -122Q221 -108 209 -103T163 -96V-7Q119 -3 82 4T20 25V178Q54 165 94 156T182 147Q227 147 247 158T267 198Q267 223 252 233T203 258L163 273Q85 302
51 353T16 485Q16 587 76 645T262 703Q332 703 370 695T434 675V525Q405 536 368 543T286 550Q248 550 231 539T214 505Q214 482 230 472T276 451L318 436Q353 424 381 408T430 366T460 307T471 225Q471 116 414 58T243 -8V-40Q343 -46 343 -121Q343 -170 296 -196T142
-226V-156Z" />
<glyph unicode="&#x15f;" glyph-name="scedilla" horiz-adv-x="405" d="M108 -156Q150 -154 168 -147T187 -122Q187 -108 175 -103T129 -96V-6Q94 -3 65 4T16 22V150Q41 141 72 133T143 124Q180 124 195 131T211 155Q211 172 201 178T167 194L126 209Q13 251 13
373Q13 461 66 504T221 547Q310 547 363 525V398Q339 406 310 411T244 417Q215 417 201 412T186 390Q186 376 197 370T232 356L268 344Q331 323 361 287T391 180Q391 91 346 46T209 -7V-40Q309 -46 309 -121Q309 -170 262 -196T108 -226V-156Z" />
<glyph unicode="&#x160;" glyph-name="Scaron" horiz-adv-x="485" d="M318 723H165L71 856H203L241 816L280 856H411L318 723ZM214 -9Q156 -9 104 0T20 25V178Q54 165 94 156T182 147Q227 147 247 158T267 198Q267 223 252 233T203 258L163 273Q85 302 51 353T16
485Q16 587 76 645T262 703Q332 703 370 695T434 675V525Q405 536 368 543T286 550Q248 550 231 539T214 505Q214 482 230 472T276 451L318 436Q353 424 381 408T430 366T460 307T471 225Q471 109 407 50T214 -9Z" />
<glyph unicode="&#x161;" glyph-name="scaron" horiz-adv-x="405" d="M539 578H385L291 733H424L462 682L501 733H632L539 578ZM174 -8Q126 -8 84 0T16 22V150Q41 141 72 133T143 124Q180 124 195 131T211 155Q211 172 201 178T167 194L126 209Q13 251 13 373Q13
461 66 504T221 547Q310 547 363 525V398Q339 406 310 411T244 417Q215 417 201 412T186 390Q186 376 197 370T232 356L268 344Q331 323 361 287T391 180Q391 83 338 38T174 -8Z" />
<glyph unicode="&#x162;" glyph-name="Tcommaaccent" horiz-adv-x="514" d="M179 -34H339L294 -181H167L179 -34ZM152 542H12V693H502V542H362V0H152V542Z" />
<glyph unicode="&#x163;" glyph-name="tcommaaccent" horiz-adv-x="348" d="M381 -34H541L496 -181H369L381 -34ZM218 -8Q179 -8 150 -1T101 22T71 66T61 135V407H7V539H61V660H249V539H331V407H249V170Q249 149 259 141T291 133Q302 133 312 134T330 138V15Q316
6 286 -1T218 -8Z" />
<glyph unicode="&#x164;" glyph-name="Tcaron" horiz-adv-x="514" d="M333 723H180L86 856H218L256 816L295 856H426L333 723ZM152 542H12V693H502V542H362V0H152V542Z" />
<glyph unicode="&#x165;" glyph-name="tcaron" horiz-adv-x="348" d="M281 579L285 735H404L377 579H281ZM218 -8Q179 -8 150 -1T101 22T71 66T61 135V407H7V539H61V660H249V539H331V407H249V170Q249 149 259 141T291 133Q302 133 312 134T330 138V15Q316 6 286
-1T218 -8Z" />
<glyph unicode="&#x166;" glyph-name="Tbar" horiz-adv-x="514" d="M51 412H152V542H12V693H502V542H362V412H462V304H362V0H152V304H51V412Z" />
<glyph unicode="&#x167;" glyph-name="tbar" horiz-adv-x="348" d="M7 347H61V407H7V539H61V660H249V539H331V407H249V347H331V255H249V170Q249 149 259 141T291 133Q302 133 312 134T330 138V15Q316 6 286 -1T218 -8Q179 -8 150 -1T101 22T71 66T61 135V255H7V347Z" />
<glyph unicode="&#x168;" glyph-name="Utilde" horiz-adv-x="601" d="M305 -10Q159 -10 96 50T32 227V693H242V228Q242 186 256 166T309 146Q347 146 360 166T374 228V693H569V228Q569 112 506 51T305 -10ZM136 725Q139 764 149 790T175 833T210 855T250 862Q267
862 281 858T308 850T330 841T349 837Q360 837 365 843T372 860H481Q477 820 467 794T441 751T406 728T366 721Q349 721 335 725T308 733T286 742T268 746Q256 746 251 741T243 725H136Z" />
<glyph unicode="&#x169;" glyph-name="utilde" horiz-adv-x="518" d="M167 -8Q100 -8 64 26T27 138V539H215V175Q215 155 225 147T256 139Q269 139 281 143T302 150V539H490V0H324L312 46H308Q282 25 249 9T167 -8ZM85 585Q90 662 122 697T202 732Q222 732 236
728T263 718T285 708T306 703Q328 703 331 731H436Q430 655 397 620T316 584Q298 584 284 588T257 598T235 607T215 612Q204 612 198 605T190 585H85Z" />
<glyph unicode="&#x16a;" glyph-name="Umacron" horiz-adv-x="601" d="M305 -10Q159 -10 96 50T32 227V693H242V228Q242 186 256 166T309 146Q347 146 360 166T374 228V693H569V228Q569 112 506 51T305 -10ZM168 838H445V725H168V838Z" />
<glyph unicode="&#x16b;" glyph-name="umacron" horiz-adv-x="518" d="M167 -8Q100 -8 64 26T27 138V539H215V175Q215 155 225 147T256 139Q269 139 281 143T302 150V539H490V0H324L312 46H308Q282 25 249 9T167 -8ZM124 700H395V583H124V700Z" />
<glyph unicode="&#x16c;" glyph-name="Ubreve" horiz-adv-x="601" d="M305 -10Q159 -10 96 50T32 227V693H242V228Q242 186 256 166T309 146Q347 146 360 166T374 228V693H569V228Q569 112 506 51T305 -10ZM306 719Q269 719 241 729T194 759T165 803T153 857H268Q273
820 306 820Q322 820 332 830T344 857H462Q460 828 449 803T419 759T371 730T306 719Z" />
<glyph unicode="&#x16d;" glyph-name="ubreve" horiz-adv-x="518" d="M167 -8Q100 -8 64 26T27 138V539H215V175Q215 155 225 147T256 139Q269 139 281 143T302 150V539H490V0H324L312 46H308Q282 25 249 9T167 -8ZM259 579Q186 579 147 619T105 725H221Q226 688
259 688Q294 688 297 725H415Q413 659 373 619T259 579Z" />
<glyph unicode="&#x16e;" glyph-name="Uring" horiz-adv-x="601" d="M305 -10Q159 -10 96 50T32 227V693H242V228Q242 186 256 166T309 146Q347 146 360 166T374 228V693H569V228Q569 112 506 51T305 -10ZM306 959Q255 959 221 989T187 1070Q187 1121 220 1151T306
1182Q360 1182 392 1152T425 1072Q425 1021 393 990T306 959ZM306 1030Q324 1030 334 1040T345 1070Q345 1090 334 1101T306 1112Q289 1112 279 1101T268 1070Q268 1053 278 1042T306 1030Z" />
<glyph unicode="&#x16f;" glyph-name="uring" horiz-adv-x="518" d="M259 574Q208 574 175 604T142 683Q142 732 174 762T259 793Q311 793 343 763T376 684Q376 635 344 605T259 574ZM259 643Q276 643 286 654T297 683Q297 702 287 712T259 723Q242 723 232 713T222
683Q222 666 232 655T259 643ZM167 -8Q100 -8 64 26T27 138V539H215V175Q215 155 225 147T256 139Q269 139 281 143T302 150V539H490V0H324L312 46H308Q282 25 249 9T167 -8Z" />
<glyph unicode="&#x170;" glyph-name="Uhungarumlaut" horiz-adv-x="601" d="M370 862H535L471 723H329L370 862ZM173 862H337L273 723H132L173 862ZM305 -10Q159 -10 96 50T32 227V693H242V228Q242 186 256 166T309 146Q347 146 360 166T374 228V693H569V228Q569
112 506 51T305 -10Z" />
<glyph unicode="&#x171;" glyph-name="uhungarumlaut" horiz-adv-x="518" d="M167 -8Q100 -8 64 26T27 138V539H215V175Q215 155 225 147T256 139Q269 139 281 143T302 150V539H490V0H324L312 46H308Q282 25 249 9T167 -8ZM322 733H486L425 578H284L322 733ZM129
733H292L231 578H90L129 733Z" />
<glyph unicode="&#x172;" glyph-name="Uogonek" horiz-adv-x="601" d="M430 6Q398 -8 378 -25T358 -66Q358 -81 366 -86T388 -92Q395 -92 401 -91T409 -90V-183Q398 -189 377 -193T330 -197Q274 -197 245 -174T216 -110Q216 -75 235 -50T280 -9H270Q144 -2 88
57T32 227V693H242V227Q242 185 256 166T309 146Q346 146 360 166T374 227V693H569V228Q569 139 534 87T430 6Z" />
<glyph unicode="&#x173;" glyph-name="uogonek" horiz-adv-x="518" d="M490 5Q470 -12 456 -30T442 -65Q442 -79 450 -85T472 -91Q487 -91 493 -89V-182Q482 -188 460 -192T415 -196Q358 -196 329 -173T300 -109Q300 -69 325 -43T381 0H324L312 46H308Q282 25
249 9T167 -8Q100 -8 64 26T27 138V539H215V175Q215 155 225 147T256 139Q269 139 281 143T302 150V539H490V5Z" />
<glyph unicode="&#x174;" glyph-name="Wcircumflex" horiz-adv-x="843" d="M353 856H506L599 723H468L429 763L391 723H259L353 856ZM7 693H215L255 434Q260 407 264 380T271 330Q275 304 278 279H281Q284 304 288 330Q291 353 295 380T304 435L351 693H516L562
435Q567 407 571 380T578 329Q582 303 585 279H588Q591 300 595 325Q598 346 603 374T613 435L655 693H836L703 0H491L448 242Q443 268 439 294T432 342Q428 367 426 389H423Q420 365 416 339Q413 317 409 292T400 242L357 0H140L7 693Z" />
<glyph unicode="&#x175;" glyph-name="wcircumflex" horiz-adv-x="710" d="M291 733H444L538 578H407L368 629L329 578H197L291 733ZM3 539H190L221 365Q226 337 229 315T234 275Q237 256 239 239H241Q243 255 247 274Q250 291 254 314T264 365L296 539H442L475
365Q480 337 483 315T490 275Q494 256 496 239H499Q501 256 504 276Q506 293 509 316T518 366L547 539H707L589 0H411L381 141Q376 165 372 189T364 234Q360 257 356 278H354Q350 256 346 233Q342 213 338 189T329 141L298 0H123L3 539Z" />
<glyph unicode="&#x176;" glyph-name="Ycircumflex" horiz-adv-x="576" d="M185 254L-2 693H222L264 569Q273 543 280 521T292 481Q297 461 302 444H305L314 480Q319 497 326 520T342 569L383 693H578L395 259V0H185V254ZM229 856H382L475 723H344L305 763L267
723H135L229 856Z" />
<glyph unicode="&#x177;" glyph-name="ycircumflex" horiz-adv-x="505" d="M137 -196Q111 -196 84 -192T38 -183V-55Q49 -57 63 -59T89 -61Q119 -61 136 -52T160 -19L166 1L-1 539H193L236 355Q241 331 245 308T253 268Q257 247 260 229H264L272 271Q276 289 280
311T289 354L330 539H506L336 -45Q313 -125 268 -160T137 -196ZM182 733H335L429 578H298L259 629L220 578H88L182 733Z" />
<glyph unicode="&#x178;" glyph-name="Ydieresis" horiz-adv-x="576" d="M185 254L-2 693H222L264 569Q273 543 280 521T292 481Q297 461 302 444H305L314 480Q319 497 326 520T342 569L383 693H578L395 259V0H185V254ZM326 857H482V724H326V857ZM125 857H281V724H125V857Z"
/>
<glyph unicode="&#x179;" glyph-name="Zacute" horiz-adv-x="505" d="M223 861H410L325 723H177L223 861ZM23 144L244 539V542H33V693H477V549L257 154V151H482V0H23V144Z" />
<glyph unicode="&#x17a;" glyph-name="zacute" horiz-adv-x="430" d="M184 733H371L282 578H133L184 733ZM17 134L194 404V407H21V539H414V417L227 136V133H411V0H17V134Z" />
<glyph unicode="&#x17b;" glyph-name="Zdotaccent" horiz-adv-x="505" d="M23 144L244 539V542H33V693H477V549L257 154V151H482V0H23V144ZM174 858H355V725H174V858Z" />
<glyph unicode="&#x17c;" glyph-name="zdotaccent" horiz-adv-x="430" d="M17 134L194 404V407H21V539H414V417L227 136V133H411V0H17V134ZM126 729H315V582H126V729Z" />
<glyph unicode="&#x17d;" glyph-name="Zcaron" horiz-adv-x="505" d="M336 723H183L89 856H221L259 816L298 856H429L336 723ZM23 144L244 539V542H33V693H477V549L257 154V151H482V0H23V144Z" />
<glyph unicode="&#x17e;" glyph-name="zcaron" horiz-adv-x="430" d="M299 578H145L51 733H184L222 682L261 733H392L299 578ZM17 134L194 404V407H21V539H414V417L227 136V133H411V0H17V134Z" />
<glyph unicode="&#x192;" glyph-name="florin" horiz-adv-x="419" d="M30 423H95L107 519Q120 618 172 662T314 707Q349 707 374 702T414 688V562Q405 564 397 565T375 567Q348 567 333 553T314 497L304 423H383V290H288L256 12Q244 -88 196 -134T48 -181Q16 -181
-9 -175T-43 -163V-38Q-38 -40 -30 -41T-12 -42Q9 -42 24 -30T44 15L78 290H30V423Z" />
<glyph unicode="&#x1fa;" glyph-name="Aringacute" horiz-adv-x="616" d="M180 693H433L616 0H403L377 111H216L192 0H0L180 693ZM293 493Q291 475 287 455Q284 438 280 414T270 364L244 245H347L321 365Q316 391 312 415T304 456Q300 476 297 493H293ZM282 1087H469L384
949H236L282 1087ZM307 711Q256 711 222 741T188 822Q188 873 221 903T307 934Q361 934 393 904T426 824Q426 773 394 742T307 711ZM307 782Q325 782 335 792T346 822Q346 842 335 853T307 864Q290 864 280 853T269 822Q269 805 279 794T307 782Z" />
<glyph unicode="&#x1fb;" glyph-name="aringacute" d="M165 -8Q94 -8 52 31T10 147Q10 189 22 219T58 269T114 300T189 319L267 332V346Q267 380 249 392T182 405Q147 405 112 400T53 388V515Q86 529 137 538T255 547Q356 547 405 508T455 376V0H298L286 36H281Q267
16 238 4T165 -8ZM233 112Q244 112 253 115T267 123V228L236 225Q213 224 203 212T193 171Q193 139 203 126T233 112ZM253 574Q202 574 169 604T136 683Q136 732 168 762T253 793Q305 793 337 763T370 684Q370 635 338 605T253 574ZM253 643Q270 643 280 654T291
683Q291 702 281 712T253 723Q236 723 226 713T216 683Q216 666 226 655T253 643ZM224 954H411L326 816H178L224 954Z" />
<glyph unicode="&#x1fc;" glyph-name="AEacute" horiz-adv-x="824" d="M484 861H671L586 723H438L484 861ZM273 693H793V542H584V427H755V279H584V151H804V0H378V123H229L183 0H-4L273 693ZM279 258H378V526H374L279 258Z" />
<glyph unicode="&#x1fd;" glyph-name="aeacute" horiz-adv-x="738" d="M357 733H544L455 578H306L357 733ZM527 -8Q391 -8 328 61Q299 26 261 9T167 -8Q95 -8 53 31T10 147Q10 189 22 217T58 265T115 296T190 314L268 326V346Q268 380 249 392T181 405Q146 405
111 400T53 388V515Q86 529 134 538T242 547Q332 547 372 507Q421 547 508 547Q569 547 610 530T677 478T713 392T724 274V221H452Q456 168 482 147T568 126Q607 126 643 135T703 154V35Q675 18 631 5T527 -8ZM284 136Q277 156 274 178T268 227L237 226Q213 225
203 213T193 171Q193 139 203 126T233 112Q262 112 284 136ZM501 421Q490 421 481 417T466 402T456 371T451 320H548Q548 350 546 370T537 401T522 416T501 421Z" />
<glyph unicode="&#x1fe;" glyph-name="Oslashacute" horiz-adv-x="629" d="M315 -10Q267 -10 224 2T145 39L116 0H4L80 104Q52 143 37 195T22 316V369Q22 457 45 520T108 624T202 684T318 703Q363 703 406 692T486 656L513 693H624L551 594Q580 556 596 504T612
382V329Q612 237 589 173T525 68T430 9T315 -10ZM318 139Q338 139 353 147T379 173T394 222T399 297V386L249 182Q260 157 277 148T318 139ZM235 315L382 516Q372 537 356 545T316 554Q274 554 255 519T235 397V315ZM274 861H461L376 723H228L274 861Z" />
<glyph unicode="&#x1ff;" glyph-name="oslashacute" horiz-adv-x="525" d="M263 -8Q222 -8 186 1T121 28L99 0H2L64 80Q41 111 28 152T15 247V284Q15 350 33 399T84 481T162 530T262 547Q343 547 402 514L422 539H518L460 465Q484 435 497 393T511 296V260Q511
192 493 142T442 59T364 9T263 -8ZM264 116Q296 116 310 143T325 240V291L213 147Q221 130 233 123T264 116ZM201 255L311 396Q303 412 291 417T262 423Q230 423 216 396T201 298V255ZM225 733H412L323 578H174L225 733Z" />
<glyph unicode="&#x218;" glyph-name="Scommaaccent" horiz-adv-x="485" d="M155 -34H315L270 -181H143L155 -34ZM214 -9Q156 -9 104 0T20 25V178Q54 165 94 156T182 147Q227 147 247 158T267 198Q267 223 252 233T203 258L163 273Q85 302 51 353T16 485Q16 587
76 645T262 703Q332 703 370 695T434 675V525Q405 536 368 543T286 550Q248 550 231 539T214 505Q214 482 230 472T276 451L318 436Q353 424 381 408T430 366T460 307T471 225Q471 109 407 50T214 -9Z" />
<glyph unicode="&#x219;" glyph-name="scommaaccent" horiz-adv-x="405" d="M377 -34H537L492 -181H365L377 -34ZM174 -8Q126 -8 84 0T16 22V150Q41 141 72 133T143 124Q180 124 195 131T211 155Q211 172 201 178T167 194L126 209Q13 251 13 373Q13 461 66 504T221
547Q310 547 363 525V398Q339 406 310 411T244 417Q215 417 201 412T186 390Q186 376 197 370T232 356L268 344Q331 323 361 287T391 180Q391 83 338 38T174 -8Z" />
<glyph unicode="&#x21a;" glyph-name="uni021A" horiz-adv-x="514" d="M179 -34H339L294 -181H167L179 -34ZM152 542H12V693H502V542H362V0H152V542Z" />
<glyph unicode="&#x21b;" glyph-name="uni021B" horiz-adv-x="348" d="M381 -34H541L496 -181H369L381 -34ZM218 -8Q179 -8 150 -1T101 22T71 66T61 135V407H7V539H61V660H249V539H331V407H249V170Q249 149 259 141T291 133Q302 133 312 134T330 138V15Q316 6
286 -1T218 -8Z" />
<glyph unicode="&#x237;" glyph-name="uni0237" horiz-adv-x="249" d="M42 -195Q8 -195 -17 -190T-56 -177V-58Q-51 -59 -43 -60T-25 -61Q3 -61 17 -49T31 -4V539H219V-24Q219 -104 179 -149T42 -195Z" />
<glyph unicode="&#x2c6;" glyph-name="circumflex" horiz-adv-x="425" d="M136 733H289L383 578H252L213 629L174 578H42L136 733Z" />
<glyph unicode="&#x2c7;" glyph-name="caron" horiz-adv-x="425" d="M290 578H136L42 733H175L213 682L252 733H383L290 578Z" />
<glyph unicode="&#x2d8;" glyph-name="breve" horiz-adv-x="425" d="M212 579Q139 579 100 619T58 725H174Q179 688 212 688Q247 688 250 725H368Q366 659 326 619T212 579Z" />
<glyph unicode="&#x2d9;" glyph-name="dotaccent" horiz-adv-x="425" d="M117 729H306V582H117V729Z" />
<glyph unicode="&#x2da;" glyph-name="ring" horiz-adv-x="425" d="M212 574Q161 574 128 604T95 683Q95 732 127 762T212 793Q264 793 296 763T329 684Q329 635 297 605T212 574ZM212 643Q229 643 239 654T250 683Q250 702 240 712T212 723Q195 723 185 713T175
683Q175 666 185 655T212 643Z" />
<glyph unicode="&#x2db;" glyph-name="ogonek" horiz-adv-x="425" d="M214 -197Q157 -197 128 -174T99 -110Q99 -90 106 -74T125 -44T151 -19T181 0H282Q267 -15 255 -31T242 -66Q242 -80 250 -86T271 -92Q276 -92 282 -92T293 -90V-183Q282 -189 260 -193T214 -197Z" />
<glyph unicode="&#x2dc;" glyph-name="tilde" horiz-adv-x="425" d="M37 585Q42 662 74 697T154 732Q174 732 188 728T215 718T237 708T258 703Q280 703 283 731H388Q382 655 349 620T268 584Q250 584 236 588T209 598T187 607T167 612Q156 612 150 605T142 585H37Z" />
<glyph unicode="&#x2dd;" glyph-name="hungarumlaut" horiz-adv-x="425" d="M276 733H440L379 578H238L276 733ZM83 733H246L185 578H44L83 733Z" />
</font>
</defs>
</svg>
