<?xml version="1.0" standalone="no"?> <!DOCTYPE svg PUBLIC "-//W3C//DTD SVG 1.0//EN" "http://www.w3.org/TR/2001/REC-SVG-20010904/DTD/svg10.dtd" > <svg xmlns="http://www.w3.org/2000/svg" width="100%" height="100%">
<defs >
<font horiz-adv-x="591" ><font-face
    font-family=""
    units-per-em="1000"
    panose-1="2 6 10 3 5 5 3 6 8 3"
    ascent="790"
    descent="-210"
    alphabetic="0" />
<missing-glyph horiz-adv-x="500" />
<glyph unicode=" " glyph-name="space" horiz-adv-x="170" />
<glyph unicode="!" glyph-name="exclam" horiz-adv-x="282" d="M32 693H250L209 224H68L32 693ZM141 -12Q96 -12 68 16T39 84Q39 103 46 120T67 151T99 172T141 180Q163 180 181 172T213 151T234 121T241 84Q241 45 214 17T141 -12Z" />
<glyph unicode="&quot;" glyph-name="quotedbl" horiz-adv-x="476" d="M224 693L198 457H65L39 693H224ZM437 693L411 457H278L252 693H437Z" />
<glyph unicode="#" glyph-name="numbersign" horiz-adv-x="548" d="M55 549H154L177 693H285L262 549H348L371 693H479L456 549H531V391H431L418 313H493V155H393L369 0H261L285 155H199L175 0H67L91 155H17V313H116L129 391H55V549ZM224 313H310L323 391H237L224 313Z" />
<glyph unicode="$" glyph-name="dollar" horiz-adv-x="592" d="M300 765H395L386 703Q436 699 471 692T527 677L537 511H405L389 570Q384 572 380 573T369 575L351 439L374 434Q426 422 463 405T524 362T559 301T570 217Q570 111 498 52T291 -12L277 -117H181L195
-8Q147 -4 104 3T31 22L20 205H154L182 126Q193 121 212 118L233 269L212 274Q163 285 128 302T69 344T34 405T23 487Q23 584 88 642T292 706L300 765ZM372 181Q372 203 362 218T325 244L308 115Q340 121 356 138T372 181ZM210 524Q210 501 220 488T259 464L275
581Q245 577 228 562T210 524Z" />
<glyph unicode="%" glyph-name="percent" horiz-adv-x="940" d="M216 300Q178 300 143 311T79 346T35 408T18 499Q18 554 35 593T81 657T144 693T217 705Q253 705 288 694T352 659T399 596T417 504Q417 450 400 411T354 348T290 312T216 300ZM721 -12Q683 -12
648 -1T584 34T540 96T523 187Q523 242 540 281T586 345T649 381T722 393Q758 393 793 382T857 347T904 284T922 192Q922 138 905 99T859 36T795 0T721 -12ZM644 713H758L288 -40H174L644 713ZM217 388Q243 388 248 414T254 499Q254 559 249 588T217 617Q191 617
186 590T180 503Q180 444 185 416T217 388ZM722 76Q748 76 753 102T759 187Q759 247 754 276T722 305Q696 305 691 278T685 191Q685 132 690 104T722 76Z" />
<glyph unicode="&amp;" glyph-name="ampersand" horiz-adv-x="775" d="M658 130L729 111V0H507L476 33Q431 12 384 0T288 -12Q156 -12 85 38T14 190Q14 226 24 255T54 308T101 350T160 384Q135 420 125 451T115 516Q115 556 130 590T176 650T250 690T353 705Q405
705 444 693T510 659T549 607T562 542Q562 510 552 486T522 442T478 408T421 378L550 243Q557 255 562 267T572 294L530 305V409H759V304L712 292Q688 220 633 155L658 130ZM231 223Q231 176 259 148T341 119Q354 119 366 120T391 124L242 285Q235 271 233 256T231
223ZM396 536Q396 565 384 578T355 591Q334 591 322 576T310 532Q310 506 321 487T349 449Q379 469 387 489T396 536Z" />
<glyph unicode="&apos;" glyph-name="quotesingle" horiz-adv-x="263" d="M224 693L198 457H65L39 693H224Z" />
<glyph unicode="(" glyph-name="parenleft" horiz-adv-x="373" d="M283 -152Q231 -115 184 -72T102 26T45 148T24 302Q24 380 45 447T102 570T185 672T283 756L356 690Q324 651 298 612T254 529T225 433T214 317Q214 243 223 187T250 84T294 -3T356 -86L283 -152V-152Z" />
<glyph unicode=")" glyph-name="parenright" horiz-adv-x="373" d="M90 756Q142 718 189 675T271 578T328 456T349 302Q349 224 328 157T271 34T188 -69T90 -152L17 -86Q48 -47 74 -8T119 75T148 171T159 287Q159 361 150 417T122 519T78 607T17 690L90 756V756Z" />
<glyph unicode="*" glyph-name="asterisk" horiz-adv-x="400" d="M81 373L16 492L133 517L16 542L81 661L169 570L129 693H271L231 570L319 661L384 542L267 517L384 492L319 373L231 464L271 341H129L169 464L81 373Z" />
<glyph unicode="+" glyph-name="plus" horiz-adv-x="544" d="M340 575V406H502V274H340V105H204V274H42V406H204V575H340Z" />
<glyph unicode="," glyph-name="comma" horiz-adv-x="266" d="M235 176Q230 106 214 43T173 -75H34Q36 -46 38 -18T41 41T43 105T44 176H235Z" />
<glyph unicode="-" glyph-name="hyphen" horiz-adv-x="336" d="M31 359H305V208H31V359Z" />
<glyph unicode="." glyph-name="period" horiz-adv-x="266" d="M133 -13Q85 -13 57 17T28 88Q28 130 56 160T133 190Q157 190 176 182T209 160T230 128T238 88Q238 68 231 50T210 17T177 -5T133 -13Z" />
<glyph unicode="/" glyph-name="slash" horiz-adv-x="396" d="M235 733H380L140 -120H-5L235 733Z" />
<glyph unicode="0" glyph-name="zero" horiz-adv-x="672" d="M334 -12Q267 -12 210 9T111 73T46 184T22 343Q22 439 48 507T118 620T219 684T339 705Q405 705 462 684T561 620T626 509T650 350Q650 254 624 186T555 73T454 9T334 -12ZM337 121Q375 121 393 171T411
340Q411 408 408 452T396 523T373 560T336 571Q298 571 280 520T261 352Q261 284 264 240T277 169T300 132T337 121Z" />
<glyph unicode="1" glyph-name="one" horiz-adv-x="437" d="M23 111L109 128V492L16 486V597L222 699H338V128L421 111V0H23V111Z" />
<glyph unicode="2" glyph-name="two" horiz-adv-x="546" d="M12 124L166 271Q218 321 248 361T278 447Q278 492 253 513T177 534Q142 534 103 529T32 513V644Q71 666 132 685T268 704Q390 704 453 645T516 484Q516 442 502 405T461 334T398 268T315 205L233 149V147H378L409
211H527L510 0H12V124Z" />
<glyph unicode="3" glyph-name="three" horiz-adv-x="539" d="M222 -10Q141 -10 93 5T14 38V162Q40 153 77 147T157 141Q218 141 246 157T275 215Q275 258 251 274T177 291H105V417H164Q218 417 242 433T267 484Q267 519 243 535T163 552Q127 552 97 548T40 536V656Q71
676 127 690T250 704Q365 704 428 659T491 526Q491 463 454 425T357 369V365Q390 360 419 348T470 314T504 263T517 194Q517 99 441 45T222 -10Z" />
<glyph unicode="4" glyph-name="four" horiz-adv-x="611" d="M235 111L305 126V201H16V305L338 694H526V318H590V201H526V126L590 111V0H235V111ZM305 318V483H301L169 321V318H305Z" />
<glyph unicode="5" glyph-name="five" horiz-adv-x="544" d="M230 -10Q190 -10 158 -6T101 5T55 20T18 38V160Q47 151 84 145T166 139Q222 139 253 159T284 230Q284 254 274 269T246 294T204 306T150 310Q121 310 96 307T46 299L67 693H485L474 535H199L191 439Q205
441 227 442T269 444Q323 444 369 432T449 393T502 327T522 231Q522 182 504 138T450 61T358 9T230 -10Z" />
<glyph unicode="6" glyph-name="six" horiz-adv-x="634" d="M326 -12Q252 -12 196 12T101 82T42 190T22 330Q22 427 49 498T124 614T232 682T363 704Q434 704 483 691T561 660V536Q537 544 498 546T421 549Q388 549 359 544T308 523T272 480T255 411Q279 427 316
437T392 448Q448 448 489 433T559 389T600 321T614 236Q614 186 597 142T545 63T456 8T326 -12ZM324 122Q356 122 369 146T383 226Q383 277 368 296T317 315Q281 315 255 302Q255 297 255 294T254 289T254 284T254 273Q254 228 258 199T272 153T294 129T324 122Z"
/>
<glyph unicode="7" glyph-name="seven" horiz-adv-x="558" d="M383 530V535H169L144 465H19L29 693H538V571L342 0H87L383 530Z" />
<glyph unicode="8" glyph-name="eight" horiz-adv-x="637" d="M315 -13Q239 -13 184 0T92 39T38 100T20 180Q20 234 57 274T157 337Q97 364 70 403T43 504Q43 595 117 650T330 705Q397 705 447 692T529 656T578 601T594 530Q594 477 558 442T465 386Q499 375 527
360T575 323T606 273T617 207Q617 98 537 43T315 -13ZM300 114Q350 114 373 132T397 183Q397 217 361 236T252 276Q223 259 215 235T206 183Q206 150 230 132T300 114ZM357 442Q379 455 394 472T409 519Q409 550 389 564T336 579Q303 579 282 564T261 525Q261 493
282 477T357 442Z" />
<glyph unicode="9" glyph-name="nine" horiz-adv-x="634" d="M271 -12Q200 -12 149 3T62 37V161Q94 153 132 148T213 143Q252 143 281 149T332 170T365 213T380 281Q356 265 318 255T241 244Q185 244 144 259T75 303T34 370T20 456Q20 505 37 550T89 629T178 684T308
704Q456 704 534 616T612 362Q612 264 588 194T518 78T410 10T271 -12ZM316 377Q353 377 379 390Q379 395 379 398T380 403T380 408T380 419Q380 464 376 493T362 539T340 563T310 570Q278 570 265 546T251 466Q251 415 265 396T316 377Z" />
<glyph unicode=":" glyph-name="colon" horiz-adv-x="270" d="M135 279Q87 279 58 309T28 380Q28 401 36 419T58 452T91 474T135 482Q159 482 178 474T212 452T234 420T242 380Q242 360 235 342T213 309T179 287T135 279ZM135 -13Q87 -13 58 17T28 88Q28 109 36
127T58 160T91 182T135 190Q159 190 178 182T212 160T234 128T242 88Q242 68 235 50T213 17T179 -5T135 -13Z" />
<glyph unicode=";" glyph-name="semicolon" horiz-adv-x="270" d="M233 176Q228 106 212 43T171 -75H32Q34 -46 36 -18T39 41T41 105T42 176H233ZM135 279Q87 279 59 309T30 380Q30 422 58 452T135 482Q159 482 178 474T211 452T232 420T240 380Q240 360 233 342T212
309T179 287T135 279Z" />
<glyph unicode="&lt;" glyph-name="less" horiz-adv-x="498" d="M453 561V413L206 324L453 234V86L41 259V388L453 561Z" />
<glyph unicode="=" glyph-name="equal" horiz-adv-x="544" d="M42 262H502V130H42V262ZM42 472H502V340H42V472Z" />
<glyph unicode="&gt;" glyph-name="greater" horiz-adv-x="498" d="M45 86V234L292 323L45 413V561L457 388V259L45 86Z" />
<glyph unicode="?" glyph-name="question" horiz-adv-x="457" d="M113 224Q105 238 101 252T96 291Q96 328 112 351T158 400Q183 422 198 441T213 497Q213 528 195 549T128 570Q94 570 69 566T17 554V664Q44 681 91 692T192 704Q247 704 291 694T368 661T417 602T435
513Q435 479 427 453T403 406T368 368T324 335Q276 303 252 286T228 244Q228 239 228 234T230 224H113ZM178 -12Q133 -12 105 16T76 84Q76 103 83 120T104 151T136 172T178 180Q200 180 218 172T250 151T271 121T278 84Q278 45 251 17T178 -12Z" />
<glyph unicode="@" glyph-name="at" horiz-adv-x="896" d="M438 -155Q343 -155 268 -129T141 -54T61 64T33 220Q33 314 65 397T157 544T300 643T486 680Q571 680 641 655T760 584T836 471T863 322Q863 247 844 193T793 103T717 50T624 33Q564 33 533 51T488 101H482Q426
41 342 41Q316 41 293 52T252 84T224 135T213 206Q213 268 231 317T280 402T354 455T446 474Q489 474 517 464T566 440L590 465H691L634 175Q629 147 635 136T665 124Q682 124 701 134T736 166T763 226T774 320Q774 452 703 526T486 600Q403 600 337 571T224 490T152
371T127 224Q127 79 205 2T444 -75Q478 -75 511 -72T575 -64T629 -53T669 -42V-113Q624 -131 566 -143T438 -155ZM464 384Q433 384 409 338T384 211Q384 182 394 169T423 155Q439 155 449 161T468 177L501 352Q496 364 488 374T464 384Z" />
<glyph unicode="A" glyph-name="A" horiz-adv-x="753" d="M10 111L62 128L269 693H488L690 128L743 111V0H381V111L445 128L422 200H243L220 128L285 111V0H10V111ZM388 308L335 475H330L277 308H388Z" />
<glyph unicode="B" glyph-name="B" horiz-adv-x="675" d="M16 111L80 128V565L16 582V693H381Q503 693 568 650T633 518Q633 453 607 415T508 358V353Q591 343 628 303T665 188Q665 96 602 48T396 0H16V111ZM351 125Q389 125 408 145T427 210Q427 255 407 275T349
296H304V125H351ZM346 407Q378 407 396 425T414 488Q414 532 397 550T345 568H304V407H346Z" />
<glyph unicode="C" glyph-name="C" horiz-adv-x="663" d="M372 -12Q297 -12 232 7T120 69T46 179T19 342Q19 443 51 512T135 624T254 686T391 705Q425 705 458 703T521 696T574 685T615 673L622 457H482L453 548Q439 554 425 558T387 562Q315 562 288 510T261
362Q261 291 268 246T291 176T332 141T392 131Q416 131 434 136T463 148L492 241H630L620 28Q582 11 521 0T372 -12Z" />
<glyph unicode="D" glyph-name="D" horiz-adv-x="734" d="M16 111L80 128V565L17 582V693H369Q446 693 510 675T619 618T690 514T715 357Q715 262 689 195T616 84T507 20T371 0H16V111ZM354 133Q384 133 407 142T445 174T469 238T477 343Q477 412 469 455T444
521T404 552T349 560H309V133H354Z" />
<glyph unicode="E" glyph-name="E" horiz-adv-x="655" d="M16 111L80 128V565L16 582V693H614L622 473H495L461 568H304V412H349L364 469H466V234H364L349 293H304V125H463L509 241H638L629 0H16V111Z" />
<glyph unicode="F" glyph-name="F" horiz-adv-x="650" d="M16 111L80 128V565L16 582V693H626L634 455H507L471 561H309V401H358L372 460H474V225H372L358 281H309V126L381 111V0H16V111Z" />
<glyph unicode="G" glyph-name="G" horiz-adv-x="717" d="M397 -12Q310 -12 240 7T121 69T46 179T19 342Q19 443 50 512T134 624T258 686T408 705Q476 705 537 695T632 671L640 459H500L469 549Q455 555 439 558T394 562Q322 562 291 512T259 362Q259 292 266
247T288 174T329 137T392 126Q406 126 419 128T441 134V225L387 240V351H703V240L654 225V28Q634 21 606 14T545 1T474 -8T397 -12Z" />
<glyph unicode="H" glyph-name="H" horiz-adv-x="782" d="M16 111L80 128V565L16 582V693H360V582L309 567V417H474V567L422 582V693H765V582L702 565V128L766 111V0H422V111L474 126V293H309V126L360 111V0H16V111Z" />
<glyph unicode="I" glyph-name="I" horiz-adv-x="392" d="M16 111L82 128V565L16 582V693H376V582L310 565V128L376 111V0H16V111Z" />
<glyph unicode="J" glyph-name="J" horiz-adv-x="492" d="M175 -8Q141 -8 116 -5T73 3T40 13T14 25V159Q30 154 47 151T96 147Q139 147 163 166T188 236V565L124 582V693H477V582L417 565V224Q417 114 359 53T175 -8Z" />
<glyph unicode="K" glyph-name="K" horiz-adv-x="759" d="M349 252L309 216V126L361 111V0H16V111L80 128V565L16 582V693H361V582L309 567V386L477 568L427 582V693H728V582L671 563L507 402L688 126L743 111V0H504L349 252Z" />
<glyph unicode="L" glyph-name="L" horiz-adv-x="618" d="M16 111L80 128V565L16 582V693H377V582L309 567V129H435L483 268H612L599 0H16V111Z" />
<glyph unicode="M" glyph-name="M" horiz-adv-x="966" d="M16 111L80 128V565L16 582V693H379L475 317H479L580 693H950V582L885 565V128L950 111V0H610V111L664 126V505H660L523 0H369L230 498H226V126L280 111V0H16V111Z" />
<glyph unicode="N" glyph-name="N" horiz-adv-x="743" d="M16 111L80 128V565L16 582V693H314L520 331H525V565L460 582V693H729V582L673 565V0H468L233 425H228V126L294 111V0H16V111Z" />
<glyph unicode="O" glyph-name="O" horiz-adv-x="721" d="M358 -12Q284 -12 222 9T115 74T45 184T19 341Q19 437 47 505T124 618T234 684T364 705Q437 705 499 684T606 620T676 510T702 352Q702 257 674 188T597 75T487 9T358 -12ZM360 127Q384 127 403 137T435
172T456 237T464 339Q464 408 458 452T439 521T407 556T361 566Q337 566 318 556T286 521T265 456T257 355Q257 286 263 242T282 173T314 137T360 127Z" />
<glyph unicode="P" glyph-name="P" horiz-adv-x="665" d="M383 111V0H16V111L80 128V565L16 582V693H373Q446 693 498 678T584 636T633 568T649 477Q649 364 585 311T409 257Q355 257 309 265V126L383 111ZM357 375Q392 375 408 398T424 470Q424 560 354 560H309V377Q319
376 331 376T357 375Z" />
<glyph unicode="Q" glyph-name="Q" horiz-adv-x="721" d="M506 61L702 34L657 -133L276 -14Q230 0 184 23T102 87T42 189T19 341Q19 437 47 505T124 618T234 684T364 705Q437 705 499 684T606 620T676 510T702 352Q702 285 687 237T646 154T583 98T506 66V61ZM364
127Q391 127 410 137T441 172T458 237T464 339Q464 408 458 452T438 521T406 556T361 566Q337 566 318 556T285 521T264 456T257 355Q257 286 263 242T283 173T316 137T364 127Z" />
<glyph unicode="R" glyph-name="R" horiz-adv-x="725" d="M16 111L81 128V564L17 582V693H389Q462 693 514 679T601 637T650 571T666 484Q666 416 635 380T553 323V319L668 124L714 111V0H488L344 267H310V125L361 111V0H16V111ZM363 386Q404 386 420 410T437
482Q437 525 417 544T355 563H310V386H363Z" />
<glyph unicode="S" glyph-name="S" horiz-adv-x="578" d="M265 -12Q234 -12 201 -10T137 -3T77 8T29 22L18 217H161L185 136Q199 130 215 127T256 123Q297 123 316 138T336 182Q336 211 308 227T231 260L201 270Q158 284 125 301T69 342T34 399T22 481Q22 531
37 572T87 643T176 689T308 706Q386 706 435 697T514 677L525 501H384L368 561Q354 567 339 570T303 574Q269 574 250 561T230 524Q230 497 253 484T325 454L355 444Q406 427 444 410T507 369T545 311T558 225Q558 110 483 49T265 -12Z" />
<glyph unicode="T" glyph-name="T" horiz-adv-x="684" d="M158 111L228 128V564H175L147 449H12L20 693H664L672 449H537L509 564H456V128L526 111V0H158V111Z" />
<glyph unicode="U" glyph-name="U" horiz-adv-x="729" d="M379 -12Q298 -12 241 4T146 51T91 126T73 224V565L14 582V693H358V582L302 567V237Q302 205 309 183T331 148T365 129T409 123Q459 123 485 147T512 237V567L455 582V693H715V582L658 565V237Q658 183
644 138T597 59T511 7T379 -12Z" />
<glyph unicode="V" glyph-name="V" horiz-adv-x="742" d="M65 565L14 582V693H368V582L305 565L409 220H414L519 565L455 582V693H728V582L677 565L481 0H261L65 565Z" />
<glyph unicode="W" glyph-name="W" horiz-adv-x="1029" d="M61 565L14 582V693H351V582L297 565L360 252H365L472 693H637L743 270H748L809 565L747 582V693H1015V582L967 565L832 0H609L519 384H515L424 0H201L61 565Z" />
<glyph unicode="X" glyph-name="X" horiz-adv-x="732" d="M16 111L63 124L221 354L72 565L18 582V693H383V582L342 569L420 447L490 569L446 582V693H712V582L666 565L513 342L663 128L716 111V0H354V111L400 123L317 257L240 123L283 111V0H16V111Z" />
<glyph unicode="Y" glyph-name="Y" horiz-adv-x="692" d="M169 111L238 128V271L64 565L13 582V693H350V582L302 568L387 401H391L476 568L429 582V693H679V582L627 565L466 277V128L535 111V0H169V111Z" />
<glyph unicode="Z" glyph-name="Z" horiz-adv-x="618" d="M20 137L339 559V563H207L165 458H30L42 693H596V556L277 134V130H422L468 259H600L589 0H20V137Z" />
<glyph unicode="[" glyph-name="bracketleft" horiz-adv-x="361" d="M45 733H339V622L240 605V8L339 -9V-120H45V733Z" />
<glyph unicode="\" glyph-name="backslash" horiz-adv-x="396" d="M256 -120L16 733H161L401 -120H256Z" />
<glyph unicode="]" glyph-name="bracketright" horiz-adv-x="361" d="M316 -120H22V-9L121 8V605L22 622V733H316V-120Z" />
<glyph unicode="^" glyph-name="asciicircum" horiz-adv-x="444" d="M424 436H310L222 537L134 436H20L163 693H281L424 436Z" />
<glyph unicode="_" glyph-name="underscore" horiz-adv-x="352" d="M-4 -42H356V-164H-4V-42Z" />
<glyph unicode="`" glyph-name="grave" horiz-adv-x="500" d="M353 578L104 642L167 782L389 665L353 578Z" />
<glyph unicode="a" glyph-name="a" horiz-adv-x="564" d="M170 -13Q96 -13 54 28T11 135Q11 175 25 203T65 250T129 280T215 301L299 317V336Q299 371 279 386T203 402Q166 402 129 400T64 392V513Q105 527 166 539T300 551Q406 551 455 507T505 370V146Q505 129
514 122T538 115H552V15Q537 5 505 -4T438 -13Q391 -13 363 2T322 52H317Q297 25 259 6T170 -13ZM259 104Q272 104 282 109T299 120V227L266 226Q240 224 228 210T215 164Q215 132 225 118T259 104Z" />
<glyph unicode="b" glyph-name="b" horiz-adv-x="615" d="M299 -13Q216 -13 151 1T48 38V600L-4 616V728L236 751L254 743V496H260Q282 515 316 533T405 552Q441 552 475 540T537 497T580 416T597 291Q597 206 575 148T514 54T420 3T299 -13ZM303 110Q322 110
336 116T360 139T375 187T380 267Q380 346 363 376T311 406Q291 406 278 403T254 393V125Q262 119 272 115T303 110Z" />
<glyph unicode="c" glyph-name="c" horiz-adv-x="521" d="M302 -13Q228 -13 174 6T85 62T32 149T14 266Q14 339 35 393T96 482T192 534T318 551Q344 551 370 549T418 544T459 537T489 529V352H356L344 421Q339 423 332 425T310 428Q274 428 254 397T233 282Q233
238 241 209T267 161T310 136T369 128Q404 128 437 134T491 149V37Q467 20 420 4T302 -13Z" />
<glyph unicode="d" glyph-name="d" horiz-adv-x="634" d="M224 -12Q186 -12 149 1T83 45T36 127T18 256Q18 339 38 395T94 486T176 536T276 551Q308 551 326 547T361 535V604L303 620V727L549 750L567 742V135L620 119V14L400 -10L383 -2V49H377Q355 21 315 5T224
-12ZM306 131Q338 131 361 145V409Q352 416 342 420T312 425Q294 425 280 419T256 397T241 352T235 277Q235 193 253 162T306 131Z" />
<glyph unicode="e" glyph-name="e" horiz-adv-x="562" d="M307 -13Q164 -13 89 58T14 270Q14 337 33 389T89 477T177 532T293 551Q356 551 403 535T481 483T528 385T544 234H228Q236 172 270 150T365 127Q417 127 453 134T519 151V41Q489 21 439 4T307 -13ZM291
430Q279 430 269 426T250 411T236 379T227 328L348 333Q348 362 344 381T331 411T313 426T291 430Z" />
<glyph unicode="f" glyph-name="f" horiz-adv-x="378" d="M14 105L67 119V418H11V513L67 535V580Q67 628 84 660T129 712T194 740T270 749Q314 749 344 743T390 731V606Q377 609 365 610T335 612Q303 612 288 602T273 559V539H364V418H273V119L337 105V0H14V105Z" />
<glyph unicode="g" glyph-name="g" horiz-adv-x="585" d="M262 -203Q130 -203 64 -171T-2 -82Q-2 -59 7 -42T33 -12T69 10T113 24V29Q40 49 40 119Q40 153 63 183T119 234Q81 254 58 288T35 369Q35 413 52 446T102 503T180 538T280 550Q315 550 343 546T396 534L572
559V441L506 443Q514 428 519 413T524 380Q524 292 459 245T280 198Q243 198 210 204Q205 199 204 193T202 180Q202 172 209 163T238 154H412Q448 154 478 146T531 119T567 73T580 4Q580 -38 563 -76T507 -142T409 -186T262 -203ZM277 -90Q341 -90 365 -76T390
-42Q390 -23 378 -17T333 -10H217Q204 -15 196 -24T188 -49Q188 -67 207 -78T277 -90ZM280 297Q302 297 317 313T333 373Q333 398 329 413T318 436T301 448T280 451Q258 451 243 436T228 376Q228 329 243 313T280 297Z" />
<glyph unicode="h" glyph-name="h" horiz-adv-x="645" d="M14 105L67 119V605L10 621V727L255 751L273 742V485H278Q314 514 352 532T448 551Q477 551 502 544T545 521T574 480T585 420V119L633 105V0H344V105L379 115V346Q379 373 367 384T328 395Q311 395 299
392T273 384V115L308 105V0H14V105Z" />
<glyph unicode="i" glyph-name="i" horiz-adv-x="335" d="M14 105L67 119V404L9 420V527L255 550L273 542V119L322 105V0H14V105ZM165 570Q119 570 86 595T53 668Q53 715 86 740T165 766Q212 766 244 741T277 668Q277 621 245 596T165 570Z" />
<glyph unicode="j" glyph-name="j" horiz-adv-x="317" d="M56 -198Q21 -198 -3 -193T-44 -181V-59Q-24 -63 1 -63Q35 -63 51 -49T67 0V404L9 420V527L255 550L273 542V6Q273 -44 262 -82T225 -146T158 -185T56 -198ZM165 570Q119 570 86 595T53 668Q53 715 86
740T165 766Q212 766 244 741T277 668Q277 621 245 596T165 570Z" />
<glyph unicode="k" glyph-name="k" horiz-adv-x="627" d="M273 307L390 422L341 434V539H597V434L550 420L446 314L581 114L614 105V0H421L298 196L273 190V115L312 105V0H14V105L67 119V605L10 621V727L255 751L273 742V307Z" />
<glyph unicode="l" glyph-name="l" horiz-adv-x="340" d="M14 105L69 119V604L9 621V727L258 750L275 742V119L327 105V0H14V105Z" />
<glyph unicode="m" glyph-name="m" horiz-adv-x="943" d="M14 105L67 119V404L10 420V527L248 550L265 542V485H271Q305 514 344 532T441 551Q483 551 515 534T563 480H568Q600 510 644 530T745 551Q773 551 798 544T842 520T872 478T883 418V119L930 105V0H645V105L677
115V344Q677 373 666 384T628 395Q614 395 602 392T577 384Q577 382 577 376T578 366V115L611 105V0H340V105L372 115V344Q372 373 362 384T325 395Q308 395 297 392T273 384V115L306 105V0H14V105Z" />
<glyph unicode="n" glyph-name="n" horiz-adv-x="646" d="M14 105L67 119V404L10 420V527L248 550L265 542V482H271Q309 514 349 532T448 551Q477 551 502 544T545 521T574 480T585 420V119L633 105V0H344V105L379 115V346Q379 373 367 384T328 395Q311 395 299
392T273 384V115L308 105V0H14V105Z" />
<glyph unicode="o" glyph-name="o" horiz-adv-x="596" d="M298 -13Q158 -13 86 62T14 266Q14 337 36 390T96 479T186 533T298 551Q438 551 510 479T582 273Q582 202 560 149T500 59T409 5T298 -13ZM299 111Q315 111 327 118T347 142T360 189T364 266Q364 315 360
346T347 396T326 421T297 428Q281 428 269 422T248 399T236 352T231 273Q231 223 235 192T248 142T269 118T299 111Z" />
<glyph unicode="p" glyph-name="p" horiz-adv-x="633" d="M13 -98L66 -85V404L10 420V527L247 550L264 542V489H270Q291 510 330 531T423 552Q459 552 493 540T555 497T598 416T615 291Q615 206 594 148T535 54T448 3T341 -13Q312 -13 298 -12T272 -8V-86L333
-98V-200H13V-98ZM321 110Q340 110 354 116T378 139T393 187T398 267Q398 346 381 376T329 406Q309 406 296 403T272 393V125Q280 119 291 115T321 110Z" />
<glyph unicode="q" glyph-name="q" horiz-adv-x="619" d="M299 -98L361 -84V36H355Q331 11 304 0T234 -12Q194 -12 156 1T87 44T37 126T18 255Q18 338 40 394T103 486T199 536T321 551Q365 551 400 549T463 542T517 530T567 512V-85L617 -98V-200H299V-98ZM306
131Q338 131 361 145V409Q352 416 342 420T311 425Q294 425 280 419T256 397T241 352T235 277Q235 193 253 162T306 131Z" />
<glyph unicode="r" glyph-name="r" horiz-adv-x="444" d="M14 105L67 119V404L10 420V527L248 550L265 542V459H271Q292 497 325 522T406 548Q422 548 433 545V363Q415 368 384 368Q347 368 322 365T273 352V119L346 105V0H14V105Z" />
<glyph unicode="s" glyph-name="s" horiz-adv-x="502" d="M221 -13Q174 -13 122 -5T26 21L17 169H147L165 118Q173 113 189 108T227 103Q288 103 288 143Q288 161 276 169T232 184L173 197Q95 213 55 251T14 365Q14 406 28 440T74 499T152 538T266 552Q317 552
367 544T452 520V379H325L315 426Q307 431 294 434T260 438Q234 438 216 430T198 403Q198 385 212 377T264 360L331 346Q415 329 450 288T486 184Q486 139 471 103T424 41T342 1T221 -13Z" />
<glyph unicode="t" glyph-name="t" horiz-adv-x="398" d="M241 -12Q199 -12 166 -5T110 21T75 68T63 142V418H10V513L82 541L106 665H269V539H371V418H269V175Q269 142 285 131T330 120Q342 120 354 122T376 127V17Q357 6 323 -3T241 -12Z" />
<glyph unicode="u" glyph-name="u" horiz-adv-x="646" d="M215 -12Q131 -12 95 26T59 135V405L8 422V528L248 550L265 541V195Q265 168 276 156T315 143Q335 143 348 146T372 155V405L324 422V528L560 550L578 541V135L631 119V14L397 -10L379 -2V56H373Q347 29
310 9T215 -12Z" />
<glyph unicode="v" glyph-name="v" horiz-adv-x="616" d="M47 421L7 434V539H304V434L262 424L335 200H339L412 424L368 434V539H605V434L565 421L405 0H207L47 421Z" />
<glyph unicode="w" glyph-name="w" horiz-adv-x="867" d="M45 421L7 434V539H289V434L250 423L295 238H299L386 539H530L617 238H621L665 423L628 434V539H856V434L818 421L694 0H514L434 280H431L351 0H169L45 421Z" />
<glyph unicode="x" glyph-name="x" horiz-adv-x="628" d="M17 105L61 118L185 275L72 420L27 434V539H352V434L315 424L369 340H373L427 424L390 434V539H611V434L579 422L462 259L572 118L615 105V0H295V105L332 115L275 195H272L216 115L254 105V0H17V105Z" />
<glyph unicode="y" glyph-name="y" horiz-adv-x="623" d="M186 -204Q158 -204 128 -200T80 -189V-58Q111 -65 134 -65Q163 -65 184 -57T215 -25L226 7L50 421L7 434V539H309V434L265 423L344 206H348L417 423L372 434V539H612V434L572 421L391 -51Q376 -89 359
-118T317 -166T261 -194T186 -204Z" />
<glyph unicode="z" glyph-name="z" horiz-adv-x="516" d="M16 109L258 420V424H152L126 349H23L33 539H492V426L260 123V119H364L396 205H502L488 0H16V109Z" />
<glyph unicode="{" glyph-name="braceleft" horiz-adv-x="405" d="M33 371Q63 375 82 381T112 396T128 416T132 441Q132 452 127 468T115 502T103 539T97 575Q97 612 112 640T162 689T250 720T383 733V622Q333 614 317 598T300 559Q300 548 302 530T306 493T310
455T312 426Q312 377 282 352T189 309V304Q251 287 281 262T312 187Q312 176 310 158T306 121T302 83T300 54Q300 31 316 15T383 -9V-120Q305 -118 251 -107T162 -76T113 -28T97 38Q97 55 102 74T114 111T126 145T132 172Q132 200 113 216T33 242V371V371Z" />
<glyph unicode="|" glyph-name="bar" horiz-adv-x="260" d="M64 733H196V-120H64V733Z" />
<glyph unicode="}" glyph-name="braceright" horiz-adv-x="405" d="M372 242Q312 233 293 217T273 172Q273 161 278 145T290 111T302 74T308 38Q308 1 293 -27T243 -76T155 -107T22 -120V-9Q72 -2 88 14T105 54Q105 65 103 83T99 120T95 158T93 187Q93 236 123
261T216 304V309Q154 326 124 351T93 426Q93 437 95 455T99 492T103 530T105 559Q105 582 89 598T22 622V733Q100 731 154 720T243 689T292 641T308 575Q308 558 303 539T291 502T279 468T273 441Q273 427 277 416T292 397T323 382T372 371V242V242Z" />
<glyph unicode="~" glyph-name="asciitilde" horiz-adv-x="500" d="M12 275Q40 333 80 369T174 406Q197 406 218 400T257 386T292 372T324 366Q346 366 362 378T393 411L488 339Q462 281 421 245T326 208Q303 208 282 214T243 227T208 241T176 248Q154 248 138
236T107 203L12 275Z" />
<glyph unicode="&#xa0;" glyph-name="uni00A0" horiz-adv-x="170" />
<glyph unicode="&#xa1;" glyph-name="exclamdown" horiz-adv-x="282" d="M250 -120H32L73 349H214L250 -120ZM141 585Q186 585 214 557T243 489Q243 470 236 453T215 422T182 401T141 393Q118 393 100 401T69 422T48 452T41 489Q41 528 68 556T141 585Z" />
<glyph unicode="&#xa2;" glyph-name="cent" horiz-adv-x="550" d="M412 615L404 547Q439 543 469 538T518 527V352H412L400 425L391 427L355 115H372Q389 115 410 118T453 125T491 135T520 145V37Q498 21 450 6T341 -12L329 -120H233L245 -8Q133 9 76 80T18 266Q18
336 39 388T98 476T190 529T309 550L316 615H412ZM219 282Q219 230 228 196T262 141L295 428Q260 418 240 385T219 282Z" />
<glyph unicode="&#xa3;" glyph-name="sterling" horiz-adv-x="559" d="M90 272H30V391H90V460Q90 579 153 641T335 704Q402 704 449 691T527 653V522Q504 530 478 535T421 540Q370 540 341 517T306 430L302 391H451V272H290Q285 223 266 196T212 151V147H540L522
0H22V115Q54 129 72 155T90 237V272Z" />
<glyph unicode="&#xa5;" glyph-name="yen" horiz-adv-x="672" d="M78 392H181L64 565L13 582V693H352V582L307 570L381 431H385L456 570L411 582V693H659V582L607 565L496 392H606V300H453V252H606V160H453V128L522 111V0H162V111L231 128V160H78V252H231V300H78V392Z" />
<glyph unicode="&#xa6;" glyph-name="brokenbar" horiz-adv-x="260" d="M196 -120H64V279H196V-120ZM64 733H196V371H64V733Z" />
<glyph unicode="&#xa7;" glyph-name="section" horiz-adv-x="583" d="M266 -132Q212 -132 164 -124T81 -100L73 47H201L219 -4Q228 -9 239 -11T270 -14Q301 -14 318 -5T335 23Q335 43 321 53T266 75L193 95Q106 119 65 157T23 263Q23 315 50 346T130 393Q97 415
80 446T62 525Q62 609 122 657T317 705Q371 705 421 697T505 673V529H378L367 577Q358 582 345 585T311 589Q278 589 263 579T248 549Q248 530 262 520T317 498L390 478Q473 455 516 416T560 310Q560 259 532 228T452 180Q485 159 503 129T521 51Q521 -33 461 -82T266
-132ZM250 342Q208 335 208 304Q208 284 222 273T268 251L333 230Q354 234 364 243T375 270Q375 286 366 297T329 317L250 342Z" />
<glyph unicode="&#xa8;" glyph-name="dieresis" horiz-adv-x="500" d="M360 576Q320 576 291 599T262 665Q262 708 291 731T360 754Q400 754 428 731T457 665Q457 622 429 599T360 576ZM140 576Q100 576 72 599T43 665Q43 708 71 731T140 754Q180 754 209 731T238
665Q238 622 209 599T140 576Z" />
<glyph unicode="&#xa9;" glyph-name="copyright" horiz-adv-x="768" d="M383 -14Q308 -14 243 14T131 91T56 205T29 344Q29 418 56 483T130 596T243 672T383 700Q458 700 523 672T636 596T711 483T739 344Q739 270 712 205T636 91T523 14T383 -14ZM653 344Q653
402 633 453T578 542T493 602T383 625Q323 625 274 603T189 542T135 453T115 344Q115 286 134 235T189 145T273 85T383 62Q443 62 492 84T577 145T633 234T653 344ZM390 158Q349 158 315 168T255 201T215 260T200 346Q200 398 216 434T260 492T324 525T400 535Q437
535 471 531T522 519L526 400H439L425 444Q418 447 413 448T397 450Q380 450 370 444T354 425T347 396T345 356Q345 319 347 297T356 264T372 249T400 245Q420 245 431 252L445 296H530L525 180Q505 171 472 165T390 158Z" />
<glyph unicode="&#xaa;" glyph-name="ordfeminine" horiz-adv-x="506" d="M153 218Q90 218 54 254T18 345Q18 381 30 405T65 446T122 473T200 492L262 503V513Q262 538 245 551T184 565Q152 565 124 563T72 556V672Q109 685 157 694T273 703Q368 703 411 663T454
542V367Q454 353 461 348T478 343H488V244Q474 234 449 226T393 218Q349 218 323 231T285 275H280Q263 251 230 235T153 218ZM233 326Q243 326 251 329T262 337V421H241Q225 421 216 410T206 373Q206 347 212 337T233 326Z" />
<glyph unicode="&#xab;" glyph-name="guillemotleft" horiz-adv-x="509" d="M243 227V278L350 445H482L406 253L482 60H350L243 227ZM25 227V278L132 445H264L188 253L264 60H132L25 227Z" />
<glyph unicode="&#xae;" glyph-name="registered" horiz-adv-x="486" d="M242 263Q194 263 153 280T82 327T35 397T18 482Q18 527 35 567T82 636T153 683T242 700Q289 700 330 683T401 637T449 567T467 482Q467 437 450 397T402 327T330 280T242 263ZM410 482Q410
517 398 547T363 600T310 636T242 649Q205 649 174 636T121 601T87 548T75 482Q75 447 87 417T121 363T174 327T242 314Q279 314 310 327T363 363T397 416T410 482ZM136 425L152 431V539L136 543V584H256Q300 584 320 566T341 521Q341 502 334 493T313 479V477L342
429L354 425V385H282L243 457H232V430L242 425V385H136V425ZM246 497Q264 497 264 516Q264 537 245 537H232V497H246Z" />
<glyph unicode="&#xaf;" glyph-name="macron" horiz-adv-x="500" d="M100 716H400V594H100V716Z" />
<glyph unicode="&#xb0;" glyph-name="degree" horiz-adv-x="385" d="M193 381Q157 381 127 394T75 429T40 480T27 541Q27 574 39 603T74 654T127 689T193 702Q228 702 258 689T311 655T345 604T358 541Q358 509 346 480T311 429T259 394T193 381ZM193 460Q229
460 247 484T265 541Q265 575 247 599T193 623Q157 623 139 599T121 541Q121 509 139 485T193 460Z" />
<glyph unicode="&#xb4;" glyph-name="acute" horiz-adv-x="500" d="M333 782L396 642L147 578L111 665L333 782Z" />
<glyph unicode="&#xb6;" glyph-name="paragraph" horiz-adv-x="624" d="M240 314Q238 313 234 313H220Q179 313 143 324T78 360T33 420T16 507Q16 603 76 648T243 693H608V582L545 565V-120H428V570H357V-120H240V314V314Z" />
<glyph unicode="&#xb7;" glyph-name="periodcentered" horiz-adv-x="267" d="M134 237Q86 237 57 267T27 338Q27 359 35 377T57 410T90 432T134 440Q158 440 177 432T211 410T233 378T241 338Q241 318 234 300T212 267T178 245T134 237Z" />
<glyph unicode="&#xb8;" glyph-name="cedilla" horiz-adv-x="500" d="M186 -162Q244 -158 264 -149T285 -125Q285 -111 268 -103T212 -93V0H288V-38Q359 -42 386 -60T414 -118Q414 -163 361 -190T186 -223V-162Z" />
<glyph unicode="&#xba;" glyph-name="ordmasculine" horiz-adv-x="528" d="M264 218Q143 218 82 281T20 457Q20 520 39 566T92 643T169 688T264 703Q384 703 446 642T508 464Q508 401 489 355T436 279T359 233T264 218ZM264 337Q275 337 283 342T297 360T306 397T309
458Q309 498 306 522T297 560T283 579T263 584Q252 584 244 580T230 563T222 526T219 463Q219 423 222 399T230 361T244 342T264 337Z" />
<glyph unicode="&#xbb;" glyph-name="guillemotright" horiz-adv-x="509" d="M266 278V227L159 60H27L103 252L27 445H159L266 278ZM484 278V227L377 60H245L321 252L245 445H377L484 278Z" />
<glyph unicode="&#xbc;" glyph-name="onequarter" horiz-adv-x="888" d="M28 282V358L88 369V555L25 553V628L165 704H252V369L313 358V282H28ZM631 713H745L255 -40H141L631 713ZM622 0V76L663 86V120H484V192L687 419H815V199H857V120H815V86L860 76V0H622ZM590
199H663V280H660L590 202V199Z" />
<glyph unicode="&#xbd;" glyph-name="onehalf" horiz-adv-x="936" d="M28 282V358L88 369V555L25 553V628L165 704H252V369L313 358V282H28ZM639 713H753L263 -40H149L639 713ZM572 0V91L663 173Q687 194 706 216T726 262Q726 287 710 298T670 310Q650 310 626
307T584 298V388Q611 404 647 414T738 425Q818 425 858 389T899 295Q899 267 891 246T866 205T827 170T776 135L727 104V102H805L826 136L905 137L893 0H572Z" />
<glyph unicode="&#xbe;" glyph-name="threequarters" horiz-adv-x="906" d="M161 276Q107 276 75 284T26 302V386Q41 382 64 379T115 375Q150 375 166 384T182 415Q182 436 168 444T128 452H78V538H121Q179 538 179 572Q179 608 121 608Q96 608 77 606T42 598V682Q61
693 98 700T180 707Q255 707 295 681T335 604Q335 562 310 539T248 505V502Q292 496 321 472T350 401Q350 342 302 309T161 276ZM641 713H755L265 -40H151L641 713ZM640 0V76L681 86V120H502V192L705 419H833V199H875V120H833V86L878 76V0H640ZM608 199H681V280H678L608
202V199Z" />
<glyph unicode="&#xbf;" glyph-name="questiondown" horiz-adv-x="457" d="M344 349Q352 335 356 321T361 282Q361 245 345 222T299 173Q286 162 276 152T259 131T248 107T244 76Q244 45 262 24T329 3Q363 3 388 7T440 19V-91Q413 -108 366 -119T265 -131Q210
-131 166 -121T89 -88T40 -29T22 60Q22 94 30 120T54 167T89 205T133 238Q181 270 205 287T229 329Q229 334 229 339T227 349H344ZM279 585Q324 585 352 557T381 489Q381 470 374 453T353 422T320 401T279 393Q256 393 238 401T207 422T186 452T179 489Q179 528
206 556T279 585Z" />
<glyph unicode="&#xc0;" glyph-name="Agrave" horiz-adv-x="753" d="M10 111L62 128L269 693H488L690 128L743 111V0H381V111L445 128L422 200H243L220 128L285 111V0H10V111ZM388 308L335 475H330L277 308H388ZM482 720L233 769L287 912L513 809L482 720Z" />
<glyph unicode="&#xc1;" glyph-name="Aacute" horiz-adv-x="753" d="M10 111L62 128L269 693H488L690 128L743 111V0H381V111L445 128L422 200H243L220 128L285 111V0H10V111ZM388 308L335 475H330L277 308H388ZM237 809L463 912L517 769L268 720L237 809Z" />
<glyph unicode="&#xc2;" glyph-name="Acircumflex" horiz-adv-x="753" d="M10 111L62 128L269 693H488L690 128L743 111V0H381V111L445 128L422 200H243L220 128L285 111V0H10V111ZM388 308L335 475H330L277 308H388ZM543 775L505 720L374 771L243 720L205 775L326
899H422L543 775Z" />
<glyph unicode="&#xc3;" glyph-name="Atilde" horiz-adv-x="753" d="M10 111L62 128L269 693H488L690 128L743 111V0H381V111L445 128L422 200H243L220 128L285 111V0H10V111ZM388 308L335 475H330L277 308H388ZM182 776Q193 798 207 818T238 853T275 876T318
885Q335 885 351 881T383 873T411 865T436 861Q470 861 491 891L566 838Q555 816 541 796T510 761T473 738T430 729Q413 729 397 732T365 740T337 749T312 753Q278 753 257 723L182 776Z" />
<glyph unicode="&#xc4;" glyph-name="Adieresis" horiz-adv-x="753" d="M10 111L62 128L269 693H488L690 128L743 111V0H381V111L445 128L422 200H243L220 128L285 111V0H10V111ZM388 308L335 475H330L277 308H388ZM484 724Q444 724 415 747T386 813Q386 856 415
879T484 902Q524 902 552 879T581 813Q581 770 553 747T484 724ZM264 724Q224 724 196 747T167 813Q167 856 195 879T264 902Q304 902 333 879T362 813Q362 770 333 747T264 724Z" />
<glyph unicode="&#xc5;" glyph-name="Aring" horiz-adv-x="753" d="M10 111L62 128L269 693H488L690 128L743 111V0H381V111L445 128L422 200H243L220 128L285 111V0H10V111ZM388 308L335 475H330L277 308H388ZM374 711Q347 711 325 720T286 745T260 782T251 827Q251
851 260 871T285 908T324 933T374 942Q401 942 423 933T462 908T488 872T497 827Q497 803 488 782T463 745T424 720T374 711ZM420 827Q420 848 408 862T374 876Q352 876 340 862T328 827Q328 804 340 791T374 777Q396 777 408 790T420 827Z" />
<glyph unicode="&#xc6;" glyph-name="AE" horiz-adv-x="1020" d="M305 111V0H10V111L64 129L354 575L300 582V693H979L987 473H860L826 568H671V412H711L726 469H828V234H726L711 293H671V125H828L874 241H1003L994 0H383V111L447 128V192H264L226 129L305 111ZM444
493L329 300H447V493H444Z" />
<glyph unicode="&#xc7;" glyph-name="Ccedilla" horiz-adv-x="663" d="M249 -162Q307 -158 327 -149T348 -125Q348 -111 331 -103T275 -93V-3Q218 8 171 33T91 101T38 203T19 342Q19 443 51 512T135 624T254 686T391 705Q425 705 458 703T521 696T574 685T615
673L622 457H482L453 548Q439 554 425 558T387 562Q315 562 288 510T261 362Q261 291 268 246T291 176T332 141T392 131Q416 131 434 136T463 148L492 241H630L620 28Q582 11 521 0T372 -12Q370 -12 365 -12T351 -11V-38Q422 -42 449 -60T477 -118Q477 -163 424
-190T249 -223V-162Z" />
<glyph unicode="&#xc8;" glyph-name="Egrave" horiz-adv-x="655" d="M16 111L80 128V565L16 582V693H614L622 473H495L461 568H304V412H349L364 469H466V234H364L349 293H304V125H463L509 241H638L629 0H16V111ZM440 720L191 769L245 912L471 809L440 720Z" />
<glyph unicode="&#xc9;" glyph-name="Eacute" horiz-adv-x="655" d="M16 111L80 128V565L16 582V693H614L622 473H495L461 568H304V412H349L364 469H466V234H364L349 293H304V125H463L509 241H638L629 0H16V111ZM195 809L421 912L475 769L226 720L195 809Z" />
<glyph unicode="&#xca;" glyph-name="Ecircumflex" horiz-adv-x="655" d="M16 111L80 128V565L16 582V693H614L622 473H495L461 568H304V412H349L364 469H466V234H364L349 293H304V125H463L509 241H638L629 0H16V111ZM501 775L463 720L332 771L201 720L163 775L284
899H380L501 775Z" />
<glyph unicode="&#xcb;" glyph-name="Edieresis" horiz-adv-x="655" d="M16 111L80 128V565L16 582V693H614L622 473H495L461 568H304V412H349L364 469H466V234H364L349 293H304V125H463L509 241H638L629 0H16V111ZM442 724Q402 724 373 747T344 813Q344 856 373
879T442 902Q482 902 510 879T539 813Q539 770 511 747T442 724ZM222 724Q182 724 154 747T125 813Q125 856 153 879T222 902Q262 902 291 879T320 813Q320 770 291 747T222 724Z" />
<glyph unicode="&#xcc;" glyph-name="Igrave" horiz-adv-x="392" d="M16 111L82 128V565L16 582V693H376V582L310 565V128L376 111V0H16V111ZM561 720L312 769L366 912L592 809L561 720Z" />
<glyph unicode="&#xcd;" glyph-name="Iacute" horiz-adv-x="392" d="M16 111L82 128V565L16 582V693H376V582L310 565V128L376 111V0H16V111ZM316 809L542 912L596 769L347 720L316 809Z" />
<glyph unicode="&#xce;" glyph-name="Icircumflex" horiz-adv-x="392" d="M16 111L82 128V565L16 582V693H376V582L310 565V128L376 111V0H16V111ZM622 775L584 720L453 771L322 720L284 775L405 899H501L622 775Z" />
<glyph unicode="&#xcf;" glyph-name="Idieresis" horiz-adv-x="392" d="M16 111L82 128V565L16 582V693H376V582L310 565V128L376 111V0H16V111ZM563 724Q523 724 494 747T465 813Q465 856 494 879T563 902Q603 902 631 879T660 813Q660 770 632 747T563 724ZM343
724Q303 724 275 747T246 813Q246 856 274 879T343 902Q383 902 412 879T441 813Q441 770 412 747T343 724Z" />
<glyph unicode="&#xd0;" glyph-name="Eth" horiz-adv-x="734" d="M24 423H80V565L17 582V693H369Q446 693 510 675T619 618T690 514T715 357Q715 262 689 195T616 84T507 20T371 0H16V111L80 128V289H24V423ZM354 133Q384 133 407 142T445 174T469 238T477 343Q477
412 469 455T444 521T404 552T349 560H309V423H409V289H309V133H354Z" />
<glyph unicode="&#xd1;" glyph-name="Ntilde" horiz-adv-x="743" d="M16 111L80 128V565L16 582V693H314L520 331H525V565L460 582V693H729V582L673 565V0H468L233 425H228V126L294 111V0H16V111ZM203 776Q214 798 228 818T259 853T296 876T339 885Q356 885 372
881T404 873T432 865T457 861Q491 861 512 891L587 838Q576 816 562 796T531 761T494 738T451 729Q434 729 418 732T386 740T358 749T333 753Q299 753 278 723L203 776Z" />
<glyph unicode="&#xd2;" glyph-name="Ograve" horiz-adv-x="721" d="M358 -12Q284 -12 222 9T115 74T45 184T19 341Q19 437 47 505T124 618T234 684T364 705Q437 705 499 684T606 620T676 510T702 352Q702 257 674 188T597 75T487 9T358 -12ZM360 127Q384 127
403 137T435 172T456 237T464 339Q464 408 458 452T439 521T407 556T361 566Q337 566 318 556T286 521T265 456T257 355Q257 286 263 242T282 173T314 137T360 127ZM468 720L219 769L273 912L499 809L468 720Z" />
<glyph unicode="&#xd3;" glyph-name="Oacute" horiz-adv-x="721" d="M358 -12Q284 -12 222 9T115 74T45 184T19 341Q19 437 47 505T124 618T234 684T364 705Q437 705 499 684T606 620T676 510T702 352Q702 257 674 188T597 75T487 9T358 -12ZM360 127Q384 127
403 137T435 172T456 237T464 339Q464 408 458 452T439 521T407 556T361 566Q337 566 318 556T286 521T265 456T257 355Q257 286 263 242T282 173T314 137T360 127ZM223 809L449 912L503 769L254 720L223 809Z" />
<glyph unicode="&#xd4;" glyph-name="Ocircumflex" horiz-adv-x="721" d="M358 -12Q284 -12 222 9T115 74T45 184T19 341Q19 437 47 505T124 618T234 684T364 705Q437 705 499 684T606 620T676 510T702 352Q702 257 674 188T597 75T487 9T358 -12ZM360 127Q384
127 403 137T435 172T456 237T464 339Q464 408 458 452T439 521T407 556T361 566Q337 566 318 556T286 521T265 456T257 355Q257 286 263 242T282 173T314 137T360 127ZM529 775L491 720L360 771L229 720L191 775L312 899H408L529 775Z" />
<glyph unicode="&#xd5;" glyph-name="Otilde" horiz-adv-x="721" d="M358 -12Q284 -12 222 9T115 74T45 184T19 341Q19 437 47 505T124 618T234 684T364 705Q437 705 499 684T606 620T676 510T702 352Q702 257 674 188T597 75T487 9T358 -12ZM360 127Q384 127
403 137T435 172T456 237T464 339Q464 408 458 452T439 521T407 556T361 566Q337 566 318 556T286 521T265 456T257 355Q257 286 263 242T282 173T314 137T360 127ZM168 776Q179 798 193 818T224 853T261 876T304 885Q321 885 337 881T369 873T397 865T422 861Q456
861 477 891L552 838Q541 816 527 796T496 761T459 738T416 729Q399 729 383 732T351 740T323 749T298 753Q264 753 243 723L168 776Z" />
<glyph unicode="&#xd6;" glyph-name="Odieresis" horiz-adv-x="721" d="M358 -12Q284 -12 222 9T115 74T45 184T19 341Q19 437 47 505T124 618T234 684T364 705Q437 705 499 684T606 620T676 510T702 352Q702 257 674 188T597 75T487 9T358 -12ZM360 127Q384 127
403 137T435 172T456 237T464 339Q464 408 458 452T439 521T407 556T361 566Q337 566 318 556T286 521T265 456T257 355Q257 286 263 242T282 173T314 137T360 127ZM470 724Q430 724 401 747T372 813Q372 856 401 879T470 902Q510 902 538 879T567 813Q567 770
539 747T470 724ZM250 724Q210 724 182 747T153 813Q153 856 181 879T250 902Q290 902 319 879T348 813Q348 770 319 747T250 724Z" />
<glyph unicode="&#xd7;" glyph-name="multiply" horiz-adv-x="544" d="M498 471L359 329L498 187L410 99L272 240L134 99L46 187L185 329L46 471L134 559L272 418L410 559L498 471Z" />
<glyph unicode="&#xd8;" glyph-name="Oslash" horiz-adv-x="721" d="M358 -12Q304 -12 257 -2T170 32L118 -35L38 15L98 92Q60 136 40 197T19 341Q19 437 47 505T124 618T234 684T364 705Q466 705 542 665L585 720L665 670L617 608Q658 564 680 501T702 352Q702
257 674 188T597 75T487 9T358 -12ZM360 127Q386 127 407 137T443 172T466 237T474 339Q474 384 471 419L276 169Q290 145 310 136T360 127ZM247 355Q247 335 247 319T249 286L439 532Q425 551 406 558T361 566Q335 566 314 556T278 521T255 456T247 355Z" />
<glyph unicode="&#xd9;" glyph-name="Ugrave" horiz-adv-x="729" d="M379 -12Q298 -12 241 4T146 51T91 126T73 224V565L14 582V693H358V582L302 567V237Q302 205 309 183T331 148T365 129T409 123Q459 123 485 147T512 237V567L455 582V693H715V582L658 565V237Q658
183 644 138T597 59T511 7T379 -12ZM498 720L249 769L303 912L529 809L498 720Z" />
<glyph unicode="&#xda;" glyph-name="Uacute" horiz-adv-x="729" d="M379 -12Q298 -12 241 4T146 51T91 126T73 224V565L14 582V693H358V582L302 567V237Q302 205 309 183T331 148T365 129T409 123Q459 123 485 147T512 237V567L455 582V693H715V582L658 565V237Q658
183 644 138T597 59T511 7T379 -12ZM253 809L479 912L533 769L284 720L253 809Z" />
<glyph unicode="&#xdb;" glyph-name="Ucircumflex" horiz-adv-x="729" d="M379 -12Q298 -12 241 4T146 51T91 126T73 224V565L14 582V693H358V582L302 567V237Q302 205 309 183T331 148T365 129T409 123Q459 123 485 147T512 237V567L455 582V693H715V582L658
565V237Q658 183 644 138T597 59T511 7T379 -12ZM559 775L521 720L390 771L259 720L221 775L342 899H438L559 775Z" />
<glyph unicode="&#xdc;" glyph-name="Udieresis" horiz-adv-x="729" d="M379 -12Q298 -12 241 4T146 51T91 126T73 224V565L14 582V693H358V582L302 567V237Q302 205 309 183T331 148T365 129T409 123Q459 123 485 147T512 237V567L455 582V693H715V582L658 565V237Q658
183 644 138T597 59T511 7T379 -12ZM500 724Q460 724 431 747T402 813Q402 856 431 879T500 902Q540 902 568 879T597 813Q597 770 569 747T500 724ZM280 724Q240 724 212 747T183 813Q183 856 211 879T280 902Q320 902 349 879T378 813Q378 770 349 747T280 724Z"
/>
<glyph unicode="&#xdd;" glyph-name="Yacute" horiz-adv-x="692" d="M169 111L238 128V271L64 565L13 582V693H350V582L302 568L387 401H391L476 568L429 582V693H679V582L627 565L466 277V128L535 111V0H169V111ZM239 809L465 912L519 769L270 720L239 809Z" />
<glyph unicode="&#xde;" glyph-name="Thorn" horiz-adv-x="665" d="M409 163Q377 163 353 165T309 171V126L383 111V0H16V111L80 128V565L16 582V693H360V582L309 567V541H373Q450 541 503 527T588 488T635 428T649 350Q649 262 589 213T409 163ZM309 283Q319
282 331 282T357 281Q392 281 408 295T424 351Q424 392 407 405T354 418H309V283Z" />
<glyph unicode="&#xdf;" glyph-name="germandbls" horiz-adv-x="689" d="M604 584Q604 551 586 526T546 481T506 443T488 410Q488 393 503 382T549 349L587 323Q603 312 619 298T648 264T669 219T677 163Q677 83 628 35T468 -13Q417 -13 378 -5T316 12L308 159H426L438
107Q441 105 445 104T458 103Q472 103 482 110T492 131Q492 152 473 166T424 201L387 227Q355 250 336 278T316 350Q316 380 328 408T356 463T384 514T397 564Q397 589 385 607T343 625Q313 625 293 603T273 521V0H14V105L67 119V418H11V513L67 535V537Q67 585
86 623T142 690T233 733T357 748Q423 748 470 734T547 698T590 645T604 584Z" />
<glyph unicode="&#xe0;" glyph-name="agrave" horiz-adv-x="564" d="M170 -13Q96 -13 54 28T11 135Q11 175 25 203T65 250T129 280T215 301L299 317V336Q299 371 279 386T203 402Q166 402 129 400T64 392V513Q105 527 166 539T300 551Q406 551 455 507T505 370V146Q505
129 514 122T538 115H552V15Q537 5 505 -4T438 -13Q391 -13 363 2T322 52H317Q297 25 259 6T170 -13ZM259 104Q272 104 282 109T299 120V227L266 226Q240 224 228 210T215 164Q215 132 225 118T259 104ZM383 578L134 642L197 782L419 665L383 578Z" />
<glyph unicode="&#xe1;" glyph-name="aacute" horiz-adv-x="564" d="M170 -13Q96 -13 54 28T11 135Q11 175 25 203T65 250T129 280T215 301L299 317V336Q299 371 279 386T203 402Q166 402 129 400T64 392V513Q105 527 166 539T300 551Q406 551 455 507T505 370V146Q505
129 514 122T538 115H552V15Q537 5 505 -4T438 -13Q391 -13 363 2T322 52H317Q297 25 259 6T170 -13ZM259 104Q272 104 282 109T299 120V227L266 226Q240 224 228 210T215 164Q215 132 225 118T259 104ZM372 782L435 642L186 578L150 665L372 782Z" />
<glyph unicode="&#xe2;" glyph-name="acircumflex" horiz-adv-x="564" d="M170 -13Q96 -13 54 28T11 135Q11 175 25 203T65 250T129 280T215 301L299 317V336Q299 371 279 386T203 402Q166 402 129 400T64 392V513Q105 527 166 539T300 551Q406 551 455 507T505
370V146Q505 129 514 122T538 115H552V15Q537 5 505 -4T438 -13Q391 -13 363 2T322 52H317Q297 25 259 6T170 -13ZM259 104Q272 104 282 109T299 120V227L266 226Q240 224 228 210T215 164Q215 132 225 118T259 104ZM451 631L411 576L282 639L153 576L113 631L234
769H330L451 631Z" />
<glyph unicode="&#xe3;" glyph-name="atilde" horiz-adv-x="564" d="M170 -13Q96 -13 54 28T11 135Q11 175 25 203T65 250T129 280T215 301L299 317V336Q299 371 279 386T203 402Q166 402 129 400T64 392V513Q105 527 166 539T300 551Q406 551 455 507T505 370V146Q505
129 514 122T538 115H552V15Q537 5 505 -4T438 -13Q391 -13 363 2T322 52H317Q297 25 259 6T170 -13ZM259 104Q272 104 282 109T299 120V227L266 226Q240 224 228 210T215 164Q215 132 225 118T259 104ZM95 632Q106 654 120 674T151 709T188 732T231 741Q248 741
263 737T291 728T315 719T339 715Q373 715 394 745L469 692Q458 670 444 650T413 615T376 592T333 583Q316 583 301 587T273 596T249 605T225 609Q191 609 170 579L95 632Z" />
<glyph unicode="&#xe4;" glyph-name="adieresis" horiz-adv-x="564" d="M170 -13Q96 -13 54 28T11 135Q11 175 25 203T65 250T129 280T215 301L299 317V336Q299 371 279 386T203 402Q166 402 129 400T64 392V513Q105 527 166 539T300 551Q406 551 455 507T505
370V146Q505 129 514 122T538 115H552V15Q537 5 505 -4T438 -13Q391 -13 363 2T322 52H317Q297 25 259 6T170 -13ZM259 104Q272 104 282 109T299 120V227L266 226Q240 224 228 210T215 164Q215 132 225 118T259 104ZM392 576Q352 576 323 599T294 665Q294 708 323
731T392 754Q432 754 460 731T489 665Q489 622 461 599T392 576ZM172 576Q132 576 104 599T75 665Q75 708 103 731T172 754Q212 754 241 731T270 665Q270 622 241 599T172 576Z" />
<glyph unicode="&#xe5;" glyph-name="aring" horiz-adv-x="564" d="M170 -13Q96 -13 54 28T11 135Q11 175 25 203T65 250T129 280T215 301L299 317V336Q299 371 279 386T203 402Q166 402 129 400T64 392V513Q105 527 166 539T300 551Q406 551 455 507T505 370V146Q505
129 514 122T538 115H552V15Q537 5 505 -4T438 -13Q391 -13 363 2T322 52H317Q297 25 259 6T170 -13ZM259 104Q272 104 282 109T299 120V227L266 226Q240 224 228 210T215 164Q215 132 225 118T259 104ZM282 577Q255 577 233 586T194 611T168 648T159 693Q159 717
168 737T193 774T232 799T282 808Q309 808 331 799T370 774T396 738T405 693Q405 669 396 648T371 611T332 586T282 577ZM328 693Q328 714 316 728T282 742Q260 742 248 728T236 693Q236 670 248 657T282 643Q304 643 316 656T328 693Z" />
<glyph unicode="&#xe6;" glyph-name="ae" horiz-adv-x="843" d="M588 -13Q428 -13 356 76Q323 31 278 9T183 -13Q99 -13 55 28T11 135Q11 175 25 203T65 250T129 280T215 301L299 317V336Q299 371 279 386T203 402Q166 402 129 400T64 392V513Q105 527 162 539T286
551Q382 551 429 507Q487 551 579 551Q640 551 686 535T763 483T809 385T825 234H509Q517 172 551 150T646 127Q698 127 734 134T800 151V41Q770 21 720 4T588 -13ZM321 138Q304 177 300 228L266 226Q240 224 228 210T215 164Q215 132 227 118T263 104Q277 104
291 111T321 138ZM572 430Q560 430 550 426T531 411T517 379T508 328L629 333Q629 362 625 381T612 411T594 426T572 430Z" />
<glyph unicode="&#xe7;" glyph-name="ccedilla" horiz-adv-x="521" d="M174 -162Q232 -158 252 -149T273 -125Q273 -111 256 -103T200 -93V-1Q104 22 59 91T14 266Q14 339 35 393T96 482T192 534T318 551Q344 551 370 549T418 544T459 537T489 529V352H356L344
421Q339 423 332 425T310 428Q274 428 254 397T233 282Q233 238 241 209T267 161T310 136T369 128Q404 128 437 134T491 149V37Q467 20 420 4T302 -13Q297 -13 292 -13T276 -12V-38Q347 -42 374 -60T402 -118Q402 -163 349 -190T174 -223V-162Z" />
<glyph unicode="&#xe8;" glyph-name="egrave" horiz-adv-x="562" d="M307 -13Q164 -13 89 58T14 270Q14 337 33 389T89 477T177 532T293 551Q356 551 403 535T481 483T528 385T544 234H228Q236 172 270 150T365 127Q417 127 453 134T519 151V41Q489 21 439 4T307
-13ZM291 430Q279 430 269 426T250 411T236 379T227 328L348 333Q348 362 344 381T331 411T313 426T291 430ZM390 578L141 642L204 782L426 665L390 578Z" />
<glyph unicode="&#xe9;" glyph-name="eacute" horiz-adv-x="562" d="M307 -13Q164 -13 89 58T14 270Q14 337 33 389T89 477T177 532T293 551Q356 551 403 535T481 483T528 385T544 234H228Q236 172 270 150T365 127Q417 127 453 134T519 151V41Q489 21 439 4T307
-13ZM291 430Q279 430 269 426T250 411T236 379T227 328L348 333Q348 362 344 381T331 411T313 426T291 430ZM379 782L442 642L193 578L157 665L379 782Z" />
<glyph unicode="&#xea;" glyph-name="ecircumflex" horiz-adv-x="562" d="M307 -13Q164 -13 89 58T14 270Q14 337 33 389T89 477T177 532T293 551Q356 551 403 535T481 483T528 385T544 234H228Q236 172 270 150T365 127Q417 127 453 134T519 151V41Q489 21 439
4T307 -13ZM291 430Q279 430 269 426T250 411T236 379T227 328L348 333Q348 362 344 381T331 411T313 426T291 430ZM458 631L418 576L289 639L160 576L120 631L241 769H337L458 631Z" />
<glyph unicode="&#xeb;" glyph-name="edieresis" horiz-adv-x="562" d="M307 -13Q164 -13 89 58T14 270Q14 337 33 389T89 477T177 532T293 551Q356 551 403 535T481 483T528 385T544 234H228Q236 172 270 150T365 127Q417 127 453 134T519 151V41Q489 21 439
4T307 -13ZM291 430Q279 430 269 426T250 411T236 379T227 328L348 333Q348 362 344 381T331 411T313 426T291 430ZM399 576Q359 576 330 599T301 665Q301 708 330 731T399 754Q439 754 467 731T496 665Q496 622 468 599T399 576ZM179 576Q139 576 111 599T82 665Q82
708 110 731T179 754Q219 754 248 731T277 665Q277 622 248 599T179 576Z" />
<glyph unicode="&#xec;" glyph-name="igrave" horiz-adv-x="335" d="M14 105L67 119V404L9 420V527L255 550L273 542V119L322 105V0H14V105ZM519 578L270 642L333 782L555 665L519 578Z" />
<glyph unicode="&#xed;" glyph-name="iacute" horiz-adv-x="335" d="M14 105L67 119V404L9 420V527L255 550L273 542V119L322 105V0H14V105ZM508 782L571 642L322 578L286 665L508 782Z" />
<glyph unicode="&#xee;" glyph-name="icircumflex" horiz-adv-x="335" d="M14 105L67 119V404L9 420V527L255 550L273 542V119L322 105V0H14V105ZM587 631L547 576L418 639L289 576L249 631L370 769H466L587 631Z" />
<glyph unicode="&#xef;" glyph-name="idieresis" horiz-adv-x="335" d="M14 105L67 119V404L9 420V527L255 550L273 542V119L322 105V0H14V105ZM528 576Q488 576 459 599T430 665Q430 708 459 731T528 754Q568 754 596 731T625 665Q625 622 597 599T528 576ZM308
576Q268 576 240 599T211 665Q211 708 239 731T308 754Q348 754 377 731T406 665Q406 622 377 599T308 576Z" />
<glyph unicode="&#xf0;" glyph-name="eth" horiz-adv-x="595" d="M162 611L94 645L194 753Q232 739 267 724T335 691L436 737L466 674L405 646Q486 586 533 505T581 312Q581 230 561 169T503 68T413 7T298 -13Q228 -13 175 7T86 62T32 147T14 255Q14 326 35 375T88
454T158 498T233 512Q260 512 274 508T299 500H305Q291 519 273 535T234 567L114 512L84 575L162 611ZM299 109Q315 109 327 114T347 136T360 181T364 256Q364 314 358 344T343 395Q324 403 302 403Q284 403 271 397T249 375T236 332T231 262Q231 213 235 183T248
137T269 115T299 109Z" />
<glyph unicode="&#xf1;" glyph-name="ntilde" horiz-adv-x="646" d="M14 105L67 119V404L10 420V527L248 550L265 542V482H271Q309 514 349 532T448 551Q477 551 502 544T545 521T574 480T585 420V119L633 105V0H344V105L379 115V346Q379 373 367 384T328 395Q311
395 299 392T273 384V115L308 105V0H14V105ZM141 632Q152 654 166 674T197 709T234 732T277 741Q294 741 309 737T337 728T361 719T385 715Q419 715 440 745L515 692Q504 670 490 650T459 615T422 592T379 583Q362 583 347 587T319 596T295 605T271 609Q237 609
216 579L141 632Z" />
<glyph unicode="&#xf2;" glyph-name="ograve" horiz-adv-x="596" d="M298 -13Q158 -13 86 62T14 266Q14 337 36 390T96 479T186 533T298 551Q438 551 510 479T582 273Q582 202 560 149T500 59T409 5T298 -13ZM299 111Q315 111 327 118T347 142T360 189T364 266Q364
315 360 346T347 396T326 421T297 428Q281 428 269 422T248 399T236 352T231 273Q231 223 235 192T248 142T269 118T299 111ZM399 578L150 642L213 782L435 665L399 578Z" />
<glyph unicode="&#xf3;" glyph-name="oacute" horiz-adv-x="596" d="M298 -13Q158 -13 86 62T14 266Q14 337 36 390T96 479T186 533T298 551Q438 551 510 479T582 273Q582 202 560 149T500 59T409 5T298 -13ZM299 111Q315 111 327 118T347 142T360 189T364 266Q364
315 360 346T347 396T326 421T297 428Q281 428 269 422T248 399T236 352T231 273Q231 223 235 192T248 142T269 118T299 111ZM388 782L451 642L202 578L166 665L388 782Z" />
<glyph unicode="&#xf4;" glyph-name="ocircumflex" horiz-adv-x="596" d="M298 -13Q158 -13 86 62T14 266Q14 337 36 390T96 479T186 533T298 551Q438 551 510 479T582 273Q582 202 560 149T500 59T409 5T298 -13ZM299 111Q315 111 327 118T347 142T360 189T364
266Q364 315 360 346T347 396T326 421T297 428Q281 428 269 422T248 399T236 352T231 273Q231 223 235 192T248 142T269 118T299 111ZM467 631L427 576L298 639L169 576L129 631L250 769H346L467 631Z" />
<glyph unicode="&#xf5;" glyph-name="otilde" horiz-adv-x="596" d="M298 -13Q158 -13 86 62T14 266Q14 337 36 390T96 479T186 533T298 551Q438 551 510 479T582 273Q582 202 560 149T500 59T409 5T298 -13ZM299 111Q315 111 327 118T347 142T360 189T364 266Q364
315 360 346T347 396T326 421T297 428Q281 428 269 422T248 399T236 352T231 273Q231 223 235 192T248 142T269 118T299 111ZM111 632Q122 654 136 674T167 709T204 732T247 741Q264 741 279 737T307 728T331 719T355 715Q389 715 410 745L485 692Q474 670 460
650T429 615T392 592T349 583Q332 583 317 587T289 596T265 605T241 609Q207 609 186 579L111 632Z" />
<glyph unicode="&#xf6;" glyph-name="odieresis" horiz-adv-x="596" d="M298 -13Q158 -13 86 62T14 266Q14 337 36 390T96 479T186 533T298 551Q438 551 510 479T582 273Q582 202 560 149T500 59T409 5T298 -13ZM299 111Q315 111 327 118T347 142T360 189T364
266Q364 315 360 346T347 396T326 421T297 428Q281 428 269 422T248 399T236 352T231 273Q231 223 235 192T248 142T269 118T299 111ZM408 576Q368 576 339 599T310 665Q310 708 339 731T408 754Q448 754 476 731T505 665Q505 622 477 599T408 576ZM188 576Q148
576 120 599T91 665Q91 708 119 731T188 754Q228 754 257 731T286 665Q286 622 257 599T188 576Z" />
<glyph unicode="&#xf7;" glyph-name="divide" horiz-adv-x="544" d="M42 406H502V274H42V406ZM272 35Q227 35 199 63T171 130Q171 149 178 166T199 197T231 218T272 226Q317 226 345 198T373 130Q373 111 366 94T345 64T313 43T272 35ZM272 454Q250 454 232 461T200
482T179 512T171 549Q171 568 178 585T199 616T231 637T272 645Q294 645 313 637T345 616T365 586T373 549Q373 530 366 513T345 482T313 462T272 454Z" />
<glyph unicode="&#xf8;" glyph-name="oslash" horiz-adv-x="596" d="M298 -13Q253 -13 216 -5T146 19L98 -40L28 9L78 70Q14 143 14 266Q14 337 36 390T96 479T186 533T298 551Q343 551 380 543T450 520L492 571L562 522L518 469Q582 397 582 273Q582 202 560
149T500 59T409 5T298 -13ZM218 240L356 406Q346 420 332 425T297 430Q279 430 264 424T239 401T224 354T218 274V240ZM299 109Q317 109 331 116T356 140T371 188T377 266Q377 274 377 282T376 298L240 132Q249 118 263 114T299 109Z" />
<glyph unicode="&#xf9;" glyph-name="ugrave" horiz-adv-x="646" d="M215 -12Q131 -12 95 26T59 135V405L8 422V528L248 550L265 541V195Q265 168 276 156T315 143Q335 143 348 146T372 155V405L324 422V528L560 550L578 541V135L631 119V14L397 -10L379 -2V56H373Q347
29 310 9T215 -12ZM420 578L171 642L234 782L456 665L420 578Z" />
<glyph unicode="&#xfa;" glyph-name="uacute" horiz-adv-x="646" d="M215 -12Q131 -12 95 26T59 135V405L8 422V528L248 550L265 541V195Q265 168 276 156T315 143Q335 143 348 146T372 155V405L324 422V528L560 550L578 541V135L631 119V14L397 -10L379 -2V56H373Q347
29 310 9T215 -12ZM409 782L472 642L223 578L187 665L409 782Z" />
<glyph unicode="&#xfb;" glyph-name="ucircumflex" horiz-adv-x="646" d="M215 -12Q131 -12 95 26T59 135V405L8 422V528L248 550L265 541V195Q265 168 276 156T315 143Q335 143 348 146T372 155V405L324 422V528L560 550L578 541V135L631 119V14L397 -10L379
-2V56H373Q347 29 310 9T215 -12ZM488 631L448 576L319 639L190 576L150 631L271 769H367L488 631Z" />
<glyph unicode="&#xfc;" glyph-name="udieresis" horiz-adv-x="646" d="M215 -12Q131 -12 95 26T59 135V405L8 422V528L248 550L265 541V195Q265 168 276 156T315 143Q335 143 348 146T372 155V405L324 422V528L560 550L578 541V135L631 119V14L397 -10L379 -2V56H373Q347
29 310 9T215 -12ZM429 576Q389 576 360 599T331 665Q331 708 360 731T429 754Q469 754 497 731T526 665Q526 622 498 599T429 576ZM209 576Q169 576 141 599T112 665Q112 708 140 731T209 754Q249 754 278 731T307 665Q307 622 278 599T209 576Z" />
<glyph unicode="&#xfd;" glyph-name="yacute" horiz-adv-x="623" d="M186 -204Q158 -204 128 -200T80 -189V-58Q111 -65 134 -65Q163 -65 184 -57T215 -25L226 7L50 421L7 434V539H309V434L265 423L344 206H348L417 423L372 434V539H612V434L572 421L391 -51Q376
-89 359 -118T317 -166T261 -194T186 -204ZM422 782L485 642L236 578L200 665L422 782Z" />
<glyph unicode="&#xfe;" glyph-name="thorn" horiz-adv-x="624" d="M5 616V728L245 751L263 743V496H269Q291 515 325 533T414 552Q450 552 484 540T546 497T589 416T606 291Q606 206 585 148T526 54T439 3T332 -13Q303 -13 289 -12T263 -8V-86L324 -98V-200H4V-98L57
-85V600L5 616ZM312 110Q331 110 345 116T369 139T384 187T389 267Q389 346 372 376T320 406Q300 406 287 403T263 393V125Q271 119 281 115T312 110Z" />
<glyph unicode="&#xff;" glyph-name="ydieresis" horiz-adv-x="623" d="M186 -204Q158 -204 128 -200T80 -189V-58Q111 -65 134 -65Q163 -65 184 -57T215 -25L226 7L50 421L7 434V539H309V434L265 423L344 206H348L417 423L372 434V539H612V434L572 421L391 -51Q376
-89 359 -118T317 -166T261 -194T186 -204ZM442 576Q402 576 373 599T344 665Q344 708 373 731T442 754Q482 754 510 731T539 665Q539 622 511 599T442 576ZM222 576Q182 576 154 599T125 665Q125 708 153 731T222 754Q262 754 291 731T320 665Q320 622 291 599T222
576Z" />
<glyph unicode="&#x100;" glyph-name="Amacron" horiz-adv-x="753" d="M10 111L62 128L269 693H488L690 128L743 111V0H381V111L445 128L422 200H243L220 128L285 111V0H10V111ZM388 308L335 475H330L277 308H388ZM224 854H524V732H224V854Z" />
<glyph unicode="&#x101;" glyph-name="amacron" horiz-adv-x="564" d="M132 716H432V594H132V716ZM170 -13Q96 -13 54 28T11 135Q11 175 25 203T65 250T129 280T215 301L299 317V336Q299 371 279 386T203 402Q166 402 129 400T64 392V513Q105 527 166 539T300
551Q406 551 455 507T505 370V146Q505 129 514 122T538 115H552V15Q537 5 505 -4T438 -13Q391 -13 363 2T322 52H317Q297 25 259 6T170 -13ZM259 104Q272 104 282 109T299 120V227L266 226Q240 224 228 210T215 164Q215 132 225 118T259 104Z" />
<glyph unicode="&#x102;" glyph-name="Abreve" horiz-adv-x="753" d="M374 839Q394 839 407 847T423 870H539Q538 839 527 812T494 765T443 734T374 722Q335 722 305 733T254 765T222 812T209 870H325Q327 856 340 848T374 839ZM10 111L62 128L269 693H488L690
128L743 111V0H381V111L445 128L422 200H243L220 128L285 111V0H10V111ZM388 308L335 475H330L277 308H388Z" />
<glyph unicode="&#x103;" glyph-name="abreve" horiz-adv-x="564" d="M170 -13Q96 -13 54 28T11 135Q11 175 25 203T65 250T129 280T215 301L299 317V336Q299 371 279 386T203 402Q166 402 129 400T64 392V513Q105 527 166 539T300 551Q406 551 455 507T505 370V146Q505
129 514 122T538 115H552V15Q537 5 505 -4T438 -13Q391 -13 363 2T322 52H317Q297 25 259 6T170 -13ZM259 104Q272 104 282 109T299 120V227L266 226Q240 224 228 210T215 164Q215 132 225 118T259 104ZM282 707Q302 707 315 716T331 741H447Q446 709 435 681T402
632T351 599T282 586Q243 586 213 598T162 632T130 681T117 741H233Q235 726 248 717T282 707Z" />
<glyph unicode="&#x104;" glyph-name="Aogonek" horiz-adv-x="753" d="M710 -180Q696 -187 673 -191T619 -196Q550 -196 519 -171T487 -109Q487 -71 509 -45T573 0H381V111L445 128L422 200H243L220 128L285 111V0H10V111L62 128L269 693H488L690 128L743 111V0H692Q667
-26 657 -41T646 -74Q646 -90 657 -97T684 -104Q692 -104 698 -104T710 -102V-180ZM388 308L335 475H330L277 308H388Z" />
<glyph unicode="&#x105;" glyph-name="aogonek" horiz-adv-x="564" d="M534 -180Q520 -187 497 -191T443 -196Q374 -196 343 -171T311 -109Q311 -42 394 -9Q339 3 322 52H317Q297 25 259 6T170 -13Q96 -13 54 28T11 135Q11 175 25 203T65 250T129 280T215 301L299
317V336Q299 371 279 386T203 402Q166 402 129 400T64 392V513Q105 527 166 539T300 551Q406 551 455 507T505 370V146Q505 129 514 122T538 115H552V15Q520 -1 495 -23T470 -74Q470 -90 481 -97T508 -104Q516 -104 522 -104T534 -102V-180ZM259 104Q272 104 282
109T299 120V227L266 226Q240 224 228 210T215 164Q215 132 225 118T259 104Z" />
<glyph unicode="&#x106;" glyph-name="Cacute" horiz-adv-x="663" d="M372 -12Q297 -12 232 7T120 69T46 179T19 342Q19 443 51 512T135 624T254 686T391 705Q425 705 458 703T521 696T574 685T615 673L622 457H482L453 548Q439 554 425 558T387 562Q315 562 288
510T261 362Q261 291 268 246T291 176T332 141T392 131Q416 131 434 136T463 148L492 241H630L620 28Q582 11 521 0T372 -12ZM234 809L460 912L514 769L265 720L234 809Z" />
<glyph unicode="&#x107;" glyph-name="cacute" horiz-adv-x="521" d="M302 -13Q228 -13 174 6T85 62T32 149T14 266Q14 339 35 393T96 482T192 534T318 551Q344 551 370 549T418 544T459 537T489 529V352H356L344 421Q339 423 332 425T310 428Q274 428 254 397T233
282Q233 238 241 209T267 161T310 136T369 128Q404 128 437 134T491 149V37Q467 20 420 4T302 -13ZM386 782L449 642L200 578L164 665L386 782Z" />
<glyph unicode="&#x108;" glyph-name="Ccircumflex" horiz-adv-x="663" d="M540 775L502 720L371 771L240 720L202 775L323 899H419L540 775ZM372 -12Q297 -12 232 7T120 69T46 179T19 342Q19 443 51 512T135 624T254 686T391 705Q425 705 458 703T521 696T574
685T615 673L622 457H482L453 548Q439 554 425 558T387 562Q315 562 288 510T261 362Q261 291 268 246T291 176T332 141T392 131Q416 131 434 136T463 148L492 241H630L620 28Q582 11 521 0T372 -12Z" />
<glyph unicode="&#x109;" glyph-name="ccircumflex" horiz-adv-x="521" d="M302 -13Q228 -13 174 6T85 62T32 149T14 266Q14 339 35 393T96 482T192 534T318 551Q344 551 370 549T418 544T459 537T489 529V352H356L344 421Q339 423 332 425T310 428Q274 428 254
397T233 282Q233 238 241 209T267 161T310 136T369 128Q404 128 437 134T491 149V37Q467 20 420 4T302 -13ZM465 631L425 576L296 639L167 576L127 631L248 769H344L465 631Z" />
<glyph unicode="&#x10a;" glyph-name="Cdotaccent" horiz-adv-x="663" d="M371 722Q326 722 295 747T263 820Q263 867 294 892T371 918Q416 918 447 893T479 820Q479 773 448 748T371 722ZM372 -12Q297 -12 232 7T120 69T46 179T19 342Q19 443 51 512T135 624T254
686T391 705Q425 705 458 703T521 696T574 685T615 673L622 457H482L453 548Q439 554 425 558T387 562Q315 562 288 510T261 362Q261 291 268 246T291 176T332 141T392 131Q416 131 434 136T463 148L492 241H630L620 28Q582 11 521 0T372 -12Z" />
<glyph unicode="&#x10b;" glyph-name="cdotaccent" horiz-adv-x="521" d="M302 -13Q228 -13 174 6T85 62T32 149T14 266Q14 339 35 393T96 482T192 534T318 551Q344 551 370 549T418 544T459 537T489 529V352H356L344 421Q339 423 332 425T310 428Q274 428 254
397T233 282Q233 238 241 209T267 161T310 136T369 128Q404 128 437 134T491 149V37Q467 20 420 4T302 -13ZM296 570Q251 570 220 595T188 668Q188 715 219 740T296 766Q341 766 372 741T404 668Q404 621 373 596T296 570Z" />
<glyph unicode="&#x10c;" glyph-name="Ccaron" horiz-adv-x="663" d="M202 847L240 902L371 851L502 902L540 847L419 723H323L202 847ZM372 -12Q297 -12 232 7T120 69T46 179T19 342Q19 443 51 512T135 624T254 686T391 705Q425 705 458 703T521 696T574 685T615
673L622 457H482L453 548Q439 554 425 558T387 562Q315 562 288 510T261 362Q261 291 268 246T291 176T332 141T392 131Q416 131 434 136T463 148L492 241H630L620 28Q582 11 521 0T372 -12Z" />
<glyph unicode="&#x10d;" glyph-name="ccaron" horiz-adv-x="521" d="M127 721L167 776L296 713L425 776L465 721L344 583H248L127 721ZM302 -13Q228 -13 174 6T85 62T32 149T14 266Q14 339 35 393T96 482T192 534T318 551Q344 551 370 549T418 544T459 537T489
529V352H356L344 421Q339 423 332 425T310 428Q274 428 254 397T233 282Q233 238 241 209T267 161T310 136T369 128Q404 128 437 134T491 149V37Q467 20 420 4T302 -13Z" />
<glyph unicode="&#x10e;" glyph-name="Dcaron" horiz-adv-x="734" d="M175 847L213 902L344 851L475 902L513 847L392 723H296L175 847ZM16 111L80 128V565L17 582V693H369Q446 693 510 675T619 618T690 514T715 357Q715 262 689 195T616 84T507 20T371 0H16V111ZM354
133Q384 133 407 142T445 174T469 238T477 343Q477 412 469 455T444 521T404 552T349 560H309V133H354Z" />
<glyph unicode="&#x10f;" glyph-name="dcaron" horiz-adv-x="634" d="M224 -12Q186 -12 149 1T83 45T36 127T18 256Q18 339 38 395T94 486T176 536T276 551Q308 551 326 547T361 535V604L303 620V727L549 750L567 742V135L620 119V14L400 -10L383 -2V49H377Q355
21 315 5T224 -12ZM306 131Q338 131 361 145V409Q352 416 342 420T312 425Q294 425 280 419T256 397T241 352T235 277Q235 193 253 162T306 131ZM603 752L756 734L693 556L589 571L603 752Z" />
<glyph unicode="&#x110;" glyph-name="Dcroat" horiz-adv-x="734" d="M24 423H80V565L17 582V693H369Q446 693 510 675T619 618T690 514T715 357Q715 262 689 195T616 84T507 20T371 0H16V111L80 128V289H24V423ZM354 133Q384 133 407 142T445 174T469 238T477
343Q477 412 469 455T444 521T404 552T349 560H309V423H409V289H309V133H354Z" />
<glyph unicode="&#x111;" glyph-name="dcroat" horiz-adv-x="634" d="M240 626H361V638L303 654V727L549 750L567 742V626H622V572H567V135L620 119V14L400 -10L383 -2V49H377Q355 21 315 5T224 -12Q186 -12 149 1T83 45T36 127T18 256Q18 339 38 395T94 486T176
536T276 551Q308 551 326 547T361 535V572H240V626ZM306 131Q338 131 361 145V409Q352 416 342 420T312 425Q294 425 280 419T256 397T241 352T235 277Q235 193 253 162T306 131Z" />
<glyph unicode="&#x112;" glyph-name="Emacron" horiz-adv-x="655" d="M16 111L80 128V565L16 582V693H614L622 473H495L461 568H304V412H349L364 469H466V234H364L349 293H304V125H463L509 241H638L629 0H16V111ZM182 854H482V732H182V854Z" />
<glyph unicode="&#x113;" glyph-name="emacron" horiz-adv-x="562" d="M307 -13Q164 -13 89 58T14 270Q14 337 33 389T89 477T177 532T293 551Q356 551 403 535T481 483T528 385T544 234H228Q236 172 270 150T365 127Q417 127 453 134T519 151V41Q489 21 439 4T307
-13ZM291 430Q279 430 269 426T250 411T236 379T227 328L348 333Q348 362 344 381T331 411T313 426T291 430ZM139 716H439V594H139V716Z" />
<glyph unicode="&#x114;" glyph-name="Ebreve" horiz-adv-x="655" d="M16 111L80 128V565L16 582V693H614L622 473H495L461 568H304V412H349L364 469H466V234H364L349 293H304V125H463L509 241H638L629 0H16V111ZM332 839Q352 839 365 847T381 870H497Q496 839
485 812T452 765T401 734T332 722Q293 722 263 733T212 765T180 812T167 870H283Q285 856 298 848T332 839Z" />
<glyph unicode="&#x115;" glyph-name="ebreve" horiz-adv-x="562" d="M289 707Q309 707 322 716T338 741H454Q453 709 442 681T409 632T358 599T289 586Q250 586 220 598T169 632T137 681T124 741H240Q242 726 255 717T289 707ZM307 -13Q164 -13 89 58T14 270Q14
337 33 389T89 477T177 532T293 551Q356 551 403 535T481 483T528 385T544 234H228Q236 172 270 150T365 127Q417 127 453 134T519 151V41Q489 21 439 4T307 -13ZM291 430Q279 430 269 426T250 411T236 379T227 328L348 333Q348 362 344 381T331 411T313 426T291
430Z" />
<glyph unicode="&#x116;" glyph-name="Edotaccent" horiz-adv-x="655" d="M332 722Q287 722 256 747T224 820Q224 867 255 892T332 918Q377 918 408 893T440 820Q440 773 409 748T332 722ZM16 111L80 128V565L16 582V693H614L622 473H495L461 568H304V412H349L364
469H466V234H364L349 293H304V125H463L509 241H638L629 0H16V111Z" />
<glyph unicode="&#x117;" glyph-name="edotaccent" horiz-adv-x="562" d="M289 570Q244 570 213 595T181 668Q181 715 212 740T289 766Q334 766 365 741T397 668Q397 621 366 596T289 570ZM307 -13Q164 -13 89 58T14 270Q14 337 33 389T89 477T177 532T293 551Q356
551 403 535T481 483T528 385T544 234H228Q236 172 270 150T365 127Q417 127 453 134T519 151V41Q489 21 439 4T307 -13ZM291 430Q279 430 269 426T250 411T236 379T227 328L348 333Q348 362 344 381T331 411T313 426T291 430Z" />
<glyph unicode="&#x118;" glyph-name="Eogonek" horiz-adv-x="655" d="M16 111L80 128V565L16 582V693H614L622 473H495L461 568H304V412H349L364 469H466V234H364L349 293H304V125H463L509 241H638L629 0H562Q537 -26 527 -41T516 -74Q516 -90 527 -97T554 -104Q562
-104 568 -104T580 -102V-180Q566 -187 543 -191T489 -196Q420 -196 389 -171T357 -109Q357 -74 380 -46T451 0H16V111Z" />
<glyph unicode="&#x119;" glyph-name="eogonek" horiz-adv-x="562" d="M469 -180Q455 -187 432 -191T378 -196Q309 -196 278 -171T246 -109Q246 -79 266 -55T323 -13H307Q164 -13 89 58T14 270Q14 337 33 389T89 477T177 532T293 551Q356 551 403 535T481 483T528
385T544 234H228Q236 172 270 150T365 127Q417 127 453 134T519 151V41Q496 30 476 16T440 -13T415 -43T405 -74Q405 -90 416 -97T443 -104Q451 -104 457 -104T469 -102V-180ZM291 430Q279 430 269 426T250 411T236 379T227 328L348 333Q348 362 344 381T331 411T313
426T291 430Z" />
<glyph unicode="&#x11a;" glyph-name="Ecaron" horiz-adv-x="655" d="M163 847L201 902L332 851L463 902L501 847L380 723H284L163 847ZM16 111L80 128V565L16 582V693H614L622 473H495L461 568H304V412H349L364 469H466V234H364L349 293H304V125H463L509 241H638L629
0H16V111Z" />
<glyph unicode="&#x11b;" glyph-name="ecaron" horiz-adv-x="562" d="M307 -13Q164 -13 89 58T14 270Q14 337 33 389T89 477T177 532T293 551Q356 551 403 535T481 483T528 385T544 234H228Q236 172 270 150T365 127Q417 127 453 134T519 151V41Q489 21 439 4T307
-13ZM291 430Q279 430 269 426T250 411T236 379T227 328L348 333Q348 362 344 381T331 411T313 426T291 430ZM120 721L160 776L289 713L418 776L458 721L337 583H241L120 721Z" />
<glyph unicode="&#x11c;" glyph-name="Gcircumflex" horiz-adv-x="717" d="M397 -12Q310 -12 240 7T121 69T46 179T19 342Q19 443 50 512T134 624T258 686T408 705Q476 705 537 695T632 671L640 459H500L469 549Q455 555 439 558T394 562Q322 562 291 512T259
362Q259 292 266 247T288 174T329 137T392 126Q406 126 419 128T441 134V225L387 240V351H703V240L654 225V28Q634 21 606 14T545 1T474 -8T397 -12ZM549 775L511 720L380 771L249 720L211 775L332 899H428L549 775Z" />
<glyph unicode="&#x11d;" glyph-name="gcircumflex" horiz-adv-x="585" d="M458 631L418 576L289 639L160 576L120 631L241 769H337L458 631ZM262 -203Q130 -203 64 -171T-2 -82Q-2 -59 7 -42T33 -12T69 10T113 24V29Q40 49 40 119Q40 153 63 183T119 234Q81 254
58 288T35 369Q35 413 52 446T102 503T180 538T280 550Q315 550 343 546T396 534L572 559V441L506 443Q514 428 519 413T524 380Q524 292 459 245T280 198Q243 198 210 204Q205 199 204 193T202 180Q202 172 209 163T238 154H412Q448 154 478 146T531 119T567 73T580
4Q580 -38 563 -76T507 -142T409 -186T262 -203ZM277 -90Q341 -90 365 -76T390 -42Q390 -23 378 -17T333 -10H217Q204 -15 196 -24T188 -49Q188 -67 207 -78T277 -90ZM280 297Q302 297 317 313T333 373Q333 398 329 413T318 436T301 448T280 451Q258 451 243 436T228
376Q228 329 243 313T280 297Z" />
<glyph unicode="&#x11e;" glyph-name="Gbreve" horiz-adv-x="717" d="M397 -12Q310 -12 240 7T121 69T46 179T19 342Q19 443 50 512T134 624T258 686T408 705Q476 705 537 695T632 671L640 459H500L469 549Q455 555 439 558T394 562Q322 562 291 512T259 362Q259
292 266 247T288 174T329 137T392 126Q406 126 419 128T441 134V225L387 240V351H703V240L654 225V28Q634 21 606 14T545 1T474 -8T397 -12ZM380 839Q400 839 413 847T429 870H545Q544 839 533 812T500 765T449 734T380 722Q341 722 311 733T260 765T228 812T215
870H331Q333 856 346 848T380 839Z" />
<glyph unicode="&#x11f;" glyph-name="gbreve" horiz-adv-x="585" d="M262 -203Q130 -203 64 -171T-2 -82Q-2 -59 7 -42T33 -12T69 10T113 24V29Q40 49 40 119Q40 153 63 183T119 234Q81 254 58 288T35 369Q35 413 52 446T102 503T180 538T280 550Q315 550 343
546T396 534L572 559V441L506 443Q514 428 519 413T524 380Q524 292 459 245T280 198Q243 198 210 204Q205 199 204 193T202 180Q202 172 209 163T238 154H412Q448 154 478 146T531 119T567 73T580 4Q580 -38 563 -76T507 -142T409 -186T262 -203ZM277 -90Q341
-90 365 -76T390 -42Q390 -23 378 -17T333 -10H217Q204 -15 196 -24T188 -49Q188 -67 207 -78T277 -90ZM280 297Q302 297 317 313T333 373Q333 398 329 413T318 436T301 448T280 451Q258 451 243 436T228 376Q228 329 243 313T280 297ZM289 707Q309 707 322 716T338
741H454Q453 709 442 681T409 632T358 599T289 586Q250 586 220 598T169 632T137 681T124 741H240Q242 726 255 717T289 707Z" />
<glyph unicode="&#x120;" glyph-name="Gdotaccent" horiz-adv-x="717" d="M397 -12Q310 -12 240 7T121 69T46 179T19 342Q19 443 50 512T134 624T258 686T408 705Q476 705 537 695T632 671L640 459H500L469 549Q455 555 439 558T394 562Q322 562 291 512T259 362Q259
292 266 247T288 174T329 137T392 126Q406 126 419 128T441 134V225L387 240V351H703V240L654 225V28Q634 21 606 14T545 1T474 -8T397 -12ZM380 722Q335 722 304 747T272 820Q272 867 303 892T380 918Q425 918 456 893T488 820Q488 773 457 748T380 722Z" />
<glyph unicode="&#x121;" glyph-name="gdotaccent" horiz-adv-x="585" d="M289 570Q244 570 213 595T181 668Q181 715 212 740T289 766Q334 766 365 741T397 668Q397 621 366 596T289 570ZM262 -203Q130 -203 64 -171T-2 -82Q-2 -59 7 -42T33 -12T69 10T113 24V29Q40
49 40 119Q40 153 63 183T119 234Q81 254 58 288T35 369Q35 413 52 446T102 503T180 538T280 550Q315 550 343 546T396 534L572 559V441L506 443Q514 428 519 413T524 380Q524 292 459 245T280 198Q243 198 210 204Q205 199 204 193T202 180Q202 172 209 163T238
154H412Q448 154 478 146T531 119T567 73T580 4Q580 -38 563 -76T507 -142T409 -186T262 -203ZM277 -90Q341 -90 365 -76T390 -42Q390 -23 378 -17T333 -10H217Q204 -15 196 -24T188 -49Q188 -67 207 -78T277 -90ZM280 297Q302 297 317 313T333 373Q333 398 329
413T318 436T301 448T280 451Q258 451 243 436T228 376Q228 329 243 313T280 297Z" />
<glyph unicode="&#x122;" glyph-name="Gcommaaccent" horiz-adv-x="717" d="M397 -12Q310 -12 240 7T121 69T46 179T19 342Q19 443 50 512T134 624T258 686T408 705Q476 705 537 695T632 671L640 459H500L469 549Q455 555 439 558T394 562Q322 562 291 512T259
362Q259 292 266 247T288 174T329 137T392 126Q406 126 419 128T441 134V225L387 240V351H703V240L654 225V28Q634 21 606 14T545 1T474 -8T397 -12ZM482 -35Q477 -77 466 -118T433 -191H280Q284 -156 286 -119T288 -35H482Z" />
<glyph unicode="&#x123;" glyph-name="gcommaaccent" horiz-adv-x="585" d="M262 -203Q130 -203 64 -171T-2 -82Q-2 -59 7 -42T33 -12T69 10T113 24V29Q40 49 40 119Q40 153 63 183T119 234Q81 254 58 288T35 369Q35 413 52 446T102 503T180 538T280 550Q315 550
343 546T396 534L572 559V441L506 443Q514 428 519 413T524 380Q524 292 459 245T280 198Q243 198 210 204Q205 199 204 193T202 180Q202 172 209 163T238 154H412Q448 154 478 146T531 119T567 73T580 4Q580 -38 563 -76T507 -142T409 -186T262 -203ZM277 -90Q341
-90 365 -76T390 -42Q390 -23 378 -17T333 -10H217Q204 -15 196 -24T188 -49Q188 -67 207 -78T277 -90ZM280 297Q302 297 317 313T333 373Q333 398 329 413T318 436T301 448T280 451Q258 451 243 436T228 376Q228 329 243 313T280 297ZM189 590Q194 632 205 673T238
746H391Q387 711 385 674T383 590H189Z" />
<glyph unicode="&#x124;" glyph-name="Hcircumflex" horiz-adv-x="782" d="M16 111L80 128V565L16 582V693H360V582L309 567V417H474V567L422 582V693H765V582L702 565V128L766 111V0H422V111L474 126V293H309V126L360 111V0H16V111ZM560 775L522 720L391 771L260
720L222 775L343 899H439L560 775Z" />
<glyph unicode="&#x125;" glyph-name="hcircumflex" horiz-adv-x="645" d="M14 105L67 119V605L10 621V727L255 751L273 742V485H278Q314 514 352 532T448 551Q477 551 502 544T545 521T574 480T585 420V119L633 105V0H344V105L379 115V346Q379 373 367 384T328
395Q311 395 299 392T273 384V115L308 105V0H14V105ZM499 816L461 761L330 812L199 761L161 816L282 940H378L499 816Z" />
<glyph unicode="&#x126;" glyph-name="Hbar" horiz-adv-x="782" d="M10 526H80V565L16 582V693H360V584L309 569V526H474V569L422 584V693H765V582L702 565V526H772V451H702V128L766 111V0H422V111L474 126V293H309V126L360 111V0H16V111L80 128V451H10V526ZM474
405V451H309V405H474Z" />
<glyph unicode="&#x127;" glyph-name="hbar" horiz-adv-x="645" d="M0 626H67V638L10 654V727L255 751L273 742V626H392V572H273V485H278Q314 514 352 532T448 551Q477 551 502 544T545 521T574 480T585 420V119L633 105V0H344V105L379 115V346Q379 373 367 384T328
395Q311 395 299 392T273 384V115L308 105V0H14V105L67 119V572H0V626Z" />
<glyph unicode="&#x128;" glyph-name="Itilde" horiz-adv-x="392" d="M16 111L82 128V565L16 582V693H376V582L310 565V128L376 111V0H16V111ZM261 776Q272 798 286 818T317 853T354 876T397 885Q414 885 430 881T462 873T490 865T515 861Q549 861 570 891L645
838Q634 816 620 796T589 761T552 738T509 729Q492 729 476 732T444 740T416 749T391 753Q357 753 336 723L261 776Z" />
<glyph unicode="&#x129;" glyph-name="itilde" horiz-adv-x="335" d="M14 105L67 119V404L9 420V527L255 550L273 542V119L322 105V0H14V105ZM231 632Q242 654 256 674T287 709T324 732T367 741Q384 741 399 737T427 728T451 719T475 715Q509 715 530 745L605
692Q594 670 580 650T549 615T512 592T469 583Q452 583 437 587T409 596T385 605T361 609Q327 609 306 579L231 632Z" />
<glyph unicode="&#x12a;" glyph-name="Imacron" horiz-adv-x="392" d="M303 854H603V732H303V854ZM16 111L82 128V565L16 582V693H376V582L310 565V128L376 111V0H16V111Z" />
<glyph unicode="&#x12b;" glyph-name="imacron" horiz-adv-x="335" d="M14 105L67 119V404L9 420V527L255 550L273 542V119L322 105V0H14V105ZM12 716H295V594H12V716Z" />
<glyph unicode="&#x12c;" glyph-name="Ibreve" horiz-adv-x="392" d="M453 839Q473 839 486 847T502 870H618Q617 839 606 812T573 765T522 734T453 722Q414 722 384 733T333 765T301 812T288 870H404Q406 856 419 848T453 839ZM16 111L82 128V565L16 582V693H376V582L310
565V128L376 111V0H16V111Z" />
<glyph unicode="&#x12d;" glyph-name="ibreve" horiz-adv-x="335" d="M14 105L67 119V404L9 420V527L255 550L273 542V119L322 105V0H14V105ZM418 707Q438 707 451 716T467 741H583Q582 709 571 681T538 632T487 599T418 586Q379 586 349 598T298 632T266 681T253
741H369Q371 726 384 717T418 707Z" />
<glyph unicode="&#x12e;" glyph-name="Iogonek" horiz-adv-x="392" d="M16 111L82 128V565L16 582V693H376V582L310 565V128L376 111V0H301Q278 -26 269 -41T260 -74Q260 -90 271 -97T298 -104Q306 -104 312 -104T324 -102V-180Q310 -187 287 -191T233 -196Q164
-196 133 -171T101 -109Q101 -74 124 -46T188 0H16V111Z" />
<glyph unicode="&#x12f;" glyph-name="iogonek" horiz-adv-x="335" d="M14 105L67 119V404L9 420V527L255 550L273 542V119L322 105V0H272Q250 -26 242 -41T233 -74Q233 -90 244 -97T271 -104Q279 -104 285 -104T297 -102V-180Q283 -187 260 -191T206 -196Q137
-196 106 -171T74 -109Q74 -74 98 -46T168 0H14V105ZM165 570Q119 570 86 595T53 668Q53 715 86 740T165 766Q212 766 244 741T277 668Q277 621 245 596T165 570Z" />
<glyph unicode="&#x130;" glyph-name="Idotaccent" horiz-adv-x="392" d="M16 111L82 128V565L16 582V693H376V582L310 565V128L376 111V0H16V111ZM453 722Q408 722 377 747T345 820Q345 867 376 892T453 918Q498 918 529 893T561 820Q561 773 530 748T453 722Z" />
<glyph unicode="&#x131;" glyph-name="dotlessi" horiz-adv-x="335" d="M14 105L67 119V404L9 420V527L255 550L273 542V119L322 105V0H14V105Z" />
<glyph unicode="&#x132;" glyph-name="IJ" horiz-adv-x="868" d="M552 -8Q521 -8 498 -5T458 3T428 13T404 25V159Q418 154 434 151T479 147Q519 147 541 166T564 236V565L500 582V693H853V582L793 565V224Q793 114 736 53T552 -8ZM16 111L82 128V565L16 582V693H376V582L310
565V128L376 111V0H16V111Z" />
<glyph unicode="&#x133;" glyph-name="ij" horiz-adv-x="619" d="M14 105L67 119V404L9 420V527L255 550L273 542V119L322 105V0H14V105ZM165 570Q119 570 86 595T53 668Q53 715 86 740T165 766Q212 766 244 741T277 668Q277 621 245 596T165 570ZM357 -198Q322
-198 298 -193T257 -181V-59Q277 -63 302 -63Q336 -63 352 -49T368 0V404L310 420V527L556 550L574 542V6Q574 -44 563 -82T526 -146T459 -185T357 -198ZM466 570Q420 570 387 595T354 668Q354 715 387 740T466 766Q513 766 545 741T578 668Q578 621 546 596T466
570Z" />
<glyph unicode="&#x134;" glyph-name="Jcircumflex" horiz-adv-x="492" d="M175 -8Q141 -8 116 -5T73 3T40 13T14 25V159Q30 154 47 151T96 147Q139 147 163 166T188 236V565L124 582V693H477V582L417 565V224Q417 114 359 53T175 -8ZM466 775L428 720L297 771L166
720L128 775L249 899H345L466 775Z" />
<glyph unicode="&#x135;" glyph-name="jcircumflex" horiz-adv-x="317" d="M56 -198Q21 -198 -3 -193T-44 -181V-59Q-24 -63 1 -63Q35 -63 51 -49T67 0V404L9 420V527L255 550L273 542V6Q273 -44 262 -82T225 -146T158 -185T56 -198ZM581 631L541 576L412 639L283
576L243 631L364 769H460L581 631Z" />
<glyph unicode="&#x136;" glyph-name="Kcommaaccent" horiz-adv-x="759" d="M349 252L309 216V126L361 111V0H16V111L80 128V565L16 582V693H361V582L309 567V386L477 568L427 582V693H728V582L671 563L507 402L688 126L743 111V0H504L349 252ZM486 -35Q481 -77
470 -118T437 -191H284Q288 -156 290 -119T292 -35H486Z" />
<glyph unicode="&#x137;" glyph-name="kcommaaccent" horiz-adv-x="627" d="M273 307L390 422L341 434V539H597V434L550 420L446 314L581 114L614 105V0H421L298 196L273 190V115L312 105V0H14V105L67 119V605L10 621V727L255 751L273 742V307ZM412 -35Q407 -77
396 -118T363 -191H210Q214 -156 216 -119T218 -35H412Z" />
<glyph unicode="&#x139;" glyph-name="Lacute" horiz-adv-x="618" d="M16 111L80 128V565L16 582V693H377V582L309 567V129H435L483 268H612L599 0H16V111ZM317 809L543 912L597 769L348 720L317 809Z" />
<glyph unicode="&#x13a;" glyph-name="lacute" horiz-adv-x="340" d="M14 105L69 119V604L9 621V727L258 750L275 742V119L327 105V0H14V105ZM288 850L514 953L568 810L319 761L288 850Z" />
<glyph unicode="&#x13b;" glyph-name="Lcommaaccent" horiz-adv-x="618" d="M16 111L80 128V565L16 582V693H377V582L309 567V129H435L483 268H612L599 0H16V111ZM416 -35Q411 -77 400 -118T367 -191H214Q218 -156 220 -119T222 -35H416Z" />
<glyph unicode="&#x13c;" glyph-name="lcommaaccent" horiz-adv-x="340" d="M14 105L69 119V604L9 621V727L258 750L275 742V119L327 105V0H14V105ZM527 -35Q522 -77 511 -118T478 -191H325Q329 -156 331 -119T333 -35H527Z" />
<glyph unicode="&#x13d;" glyph-name="Lcaron" horiz-adv-x="618" d="M421 712L574 694L510 509L406 524L421 712ZM16 111L80 128V565L16 582V693H377V582L309 567V129H435L483 268H612L599 0H16V111Z" />
<glyph unicode="&#x13e;" glyph-name="lcaron" horiz-adv-x="340" d="M14 105L69 119V604L9 621V727L258 750L275 742V119L327 105V0H14V105ZM311 752L464 734L401 556L297 571L311 752Z" />
<glyph unicode="&#x13f;" glyph-name="Ldot" horiz-adv-x="618" d="M16 111L80 128V565L16 582V693H377V582L309 567V129H435L483 255H612L599 0H16V111ZM521 300Q500 300 482 307T451 327T431 356T424 391Q424 429 451 456T521 483Q564 483 590 456T617 391Q617
355 591 328T521 300Z" />
<glyph unicode="&#x140;" glyph-name="ldot" horiz-adv-x="452" d="M396 281Q439 281 465 308T492 372Q492 410 466 437T396 464Q353 464 326 437T299 372Q299 354 306 338T326 309T357 289T396 281ZM14 105L69 119V604L9 621V727L258 750L275 742V119L327 105V0H14V105Z" />
<glyph unicode="&#x141;" glyph-name="Lslash" horiz-adv-x="618" d="M14 337L80 357V565L16 582V693H374V582L309 567V429L444 472V340L309 297V129H435L483 268H612L599 0H16V111L80 128V225L14 205V337Z" />
<glyph unicode="&#x142;" glyph-name="lslash" horiz-adv-x="340" d="M9 371L69 400V604L9 621V727L258 750L275 742V500L338 531V409L275 378V119L327 105V0H14V105L69 119V278L9 249V371Z" />
<glyph unicode="&#x143;" glyph-name="Nacute" horiz-adv-x="743" d="M16 111L80 128V565L16 582V693H314L520 331H525V565L460 582V693H729V582L673 565V0H468L233 425H228V126L294 111V0H16V111ZM261 809L487 912L541 769L292 720L261 809Z" />
<glyph unicode="&#x144;" glyph-name="nacute" horiz-adv-x="646" d="M14 105L67 119V404L10 420V527L248 550L265 542V482H271Q309 514 349 532T448 551Q477 551 502 544T545 521T574 480T585 420V119L633 105V0H344V105L379 115V346Q379 373 367 384T328 395Q311
395 299 392T273 384V115L308 105V0H14V105ZM418 782L481 642L232 578L196 665L418 782Z" />
<glyph unicode="&#x145;" glyph-name="Ncommaaccent" horiz-adv-x="743" d="M16 111L80 128V565L16 582V693H314L520 331H525V565L460 582V693H729V582L673 565V0H468L233 425H228V126L294 111V0H16V111ZM491 -35Q486 -77 475 -118T442 -191H289Q293 -156 295
-119T297 -35H491Z" />
<glyph unicode="&#x146;" glyph-name="ncommaaccent" horiz-adv-x="646" d="M14 105L67 119V404L10 420V527L248 550L265 542V482H271Q309 514 349 532T448 551Q477 551 502 544T545 521T574 480T585 420V119L633 105V0H344V105L379 115V346Q379 373 367 384T328
395Q311 395 299 392T273 384V115L308 105V0H14V105ZM430 -35Q425 -77 414 -118T381 -191H228Q232 -156 234 -119T236 -35H430Z" />
<glyph unicode="&#x147;" glyph-name="Ncaron" horiz-adv-x="743" d="M16 111L80 128V565L16 582V693H314L520 331H525V565L460 582V693H729V582L673 565V0H468L233 425H228V126L294 111V0H16V111ZM228 847L266 902L397 851L528 902L566 847L445 723H349L228 847Z" />
<glyph unicode="&#x148;" glyph-name="ncaron" horiz-adv-x="646" d="M14 105L67 119V404L10 420V527L248 550L265 542V482H271Q309 514 349 532T448 551Q477 551 502 544T545 521T574 480T585 420V119L633 105V0H344V105L379 115V346Q379 373 367 384T328 395Q311
395 299 392T273 384V115L308 105V0H14V105ZM159 721L199 776L328 713L457 776L497 721L376 583H280L159 721Z" />
<glyph unicode="&#x149;" glyph-name="napostrophe" horiz-adv-x="774" d="M142 105L195 119V404L138 420V527L376 550L393 542V482H399Q437 514 477 532T576 551Q605 551 630 544T673 521T702 480T713 420V119L761 105V0H472V105L507 115V346Q507 373 495 384T456
395Q439 395 427 392T401 384V115L436 105V0H142V105ZM408 693Q403 630 387 572T346 464H213Q218 519 220 571T223 693H408Z" />
<glyph unicode="&#x14a;" glyph-name="Eng" horiz-adv-x="743" d="M16 111L80 128V565L16 582V693H314L520 331H525V565L460 582V693H729V582L673 565V27Q673 -76 626 -130T469 -185Q430 -185 402 -178T355 -163V-38Q371 -41 386 -42T424 -44Q451 -44 468 -41T494
-29L233 425H228V126L294 111V0H16V111Z" />
<glyph unicode="&#x14b;" glyph-name="eng" horiz-adv-x="625" d="M585 6Q585 -44 574 -82T537 -146T470 -185T368 -198Q333 -198 309 -193T268 -181V-59Q288 -63 313 -63Q347 -63 363 -49T379 0V346Q379 373 367 384T328 395Q311 395 299 392T273 384V115L318
105V0H14V105L67 119V404L10 420V527L248 550L265 542V482H271Q309 514 349 532T448 551Q477 551 502 544T545 521T574 480T585 420V6Z" />
<glyph unicode="&#x14c;" glyph-name="Omacron" horiz-adv-x="721" d="M358 -12Q284 -12 222 9T115 74T45 184T19 341Q19 437 47 505T124 618T234 684T364 705Q437 705 499 684T606 620T676 510T702 352Q702 257 674 188T597 75T487 9T358 -12ZM360 127Q384 127
403 137T435 172T456 237T464 339Q464 408 458 452T439 521T407 556T361 566Q337 566 318 556T286 521T265 456T257 355Q257 286 263 242T282 173T314 137T360 127ZM210 854H510V732H210V854Z" />
<glyph unicode="&#x14d;" glyph-name="omacron" horiz-adv-x="596" d="M298 -13Q158 -13 86 62T14 266Q14 337 36 390T96 479T186 533T298 551Q438 551 510 479T582 273Q582 202 560 149T500 59T409 5T298 -13ZM299 111Q315 111 327 118T347 142T360 189T364 266Q364
315 360 346T347 396T326 421T297 428Q281 428 269 422T248 399T236 352T231 273Q231 223 235 192T248 142T269 118T299 111ZM148 716H448V594H148V716Z" />
<glyph unicode="&#x14e;" glyph-name="Obreve" horiz-adv-x="721" d="M358 -12Q284 -12 222 9T115 74T45 184T19 341Q19 437 47 505T124 618T234 684T364 705Q437 705 499 684T606 620T676 510T702 352Q702 257 674 188T597 75T487 9T358 -12ZM360 127Q384 127
403 137T435 172T456 237T464 339Q464 408 458 452T439 521T407 556T361 566Q337 566 318 556T286 521T265 456T257 355Q257 286 263 242T282 173T314 137T360 127ZM360 839Q380 839 393 847T409 870H525Q524 839 513 812T480 765T429 734T360 722Q321 722 291
733T240 765T208 812T195 870H311Q313 856 326 848T360 839Z" />
<glyph unicode="&#x14f;" glyph-name="obreve" horiz-adv-x="596" d="M298 707Q318 707 331 716T347 741H463Q462 709 451 681T418 632T367 599T298 586Q259 586 229 598T178 632T146 681T133 741H249Q251 726 264 717T298 707ZM298 -13Q158 -13 86 62T14 266Q14
337 36 390T96 479T186 533T298 551Q438 551 510 479T582 273Q582 202 560 149T500 59T409 5T298 -13ZM299 111Q315 111 327 118T347 142T360 189T364 266Q364 315 360 346T347 396T326 421T297 428Q281 428 269 422T248 399T236 352T231 273Q231 223 235 192T248
142T269 118T299 111Z" />
<glyph unicode="&#x150;" glyph-name="Ohungarumlaut" horiz-adv-x="721" d="M488 931L613 843L473 722L394 772L488 931ZM280 930L412 854L285 721L203 765L280 930ZM358 -12Q284 -12 222 9T115 74T45 184T19 341Q19 437 47 505T124 618T234 684T364 705Q437
705 499 684T606 620T676 510T702 352Q702 257 674 188T597 75T487 9T358 -12ZM360 127Q384 127 403 137T435 172T456 237T464 339Q464 408 458 452T439 521T407 556T361 566Q337 566 318 556T286 521T265 456T257 355Q257 286 263 242T282 173T314 137T360 127Z"
/>
<glyph unicode="&#x151;" glyph-name="ohungarumlaut" horiz-adv-x="596" d="M465 798L572 700L392 573L332 627L465 798ZM243 798L358 711L190 571L126 619L243 798ZM298 -13Q158 -13 86 62T14 266Q14 337 36 390T96 479T186 533T298 551Q438 551 510 479T582
273Q582 202 560 149T500 59T409 5T298 -13ZM299 111Q315 111 327 118T347 142T360 189T364 266Q364 315 360 346T347 396T326 421T297 428Q281 428 269 422T248 399T236 352T231 273Q231 223 235 192T248 142T269 118T299 111Z" />
<glyph unicode="&#x152;" glyph-name="OE" horiz-adv-x="1004" d="M365 0Q288 0 224 18T115 75T44 179T19 336Q19 431 45 498T118 609T227 673T363 693H963L971 473H844L810 568H650V412H695L710 469H812V234H710L695 293H650V125H812L858 241H987L978 0H365ZM380
560Q350 560 327 551T289 519T265 455T257 350Q257 281 265 238T290 172T330 141T385 133H425V560H380Z" />
<glyph unicode="&#x153;" glyph-name="oe" horiz-adv-x="912" d="M657 -13Q529 -13 469 53Q437 20 394 4T298 -13Q158 -13 86 62T14 266Q14 337 36 390T96 479T186 533T298 551Q414 551 475 487Q534 551 643 551Q706 551 753 535T831 483T878 385T894 234H578Q586
172 620 150T715 127Q767 127 803 134T869 151V41Q839 21 789 4T657 -13ZM299 111Q315 111 327 118T347 142T360 189T364 266Q364 315 360 346T347 396T326 421T297 428Q281 428 269 422T248 399T236 352T231 273Q231 223 235 192T248 142T269 118T299 111ZM641
430Q629 430 619 426T600 411T586 379T577 328L698 333Q698 362 694 381T681 411T663 426T641 430Z" />
<glyph unicode="&#x154;" glyph-name="Racute" horiz-adv-x="725" d="M213 809L439 912L493 769L244 720L213 809ZM16 111L81 128V564L17 582V693H389Q462 693 514 679T601 637T650 571T666 484Q666 416 635 380T553 323V319L668 124L714 111V0H488L344 267H310V125L361
111V0H16V111ZM363 386Q404 386 420 410T437 482Q437 525 417 544T355 563H310V386H363Z" />
<glyph unicode="&#x155;" glyph-name="racute" horiz-adv-x="444" d="M14 105L67 119V404L10 420V527L248 550L265 542V459H271Q292 497 325 522T406 548Q422 548 433 545V363Q415 368 384 368Q347 368 322 365T273 352V119L346 105V0H14V105ZM334 782L397 642L148
578L112 665L334 782Z" />
<glyph unicode="&#x156;" glyph-name="Rcommaaccent" horiz-adv-x="725" d="M16 111L81 128V564L17 582V693H389Q462 693 514 679T601 637T650 571T666 484Q666 416 635 380T553 323V319L668 124L714 111V0H488L344 267H310V125L361 111V0H16V111ZM363 386Q404
386 420 410T437 482Q437 525 417 544T355 563H310V386H363ZM493 -35Q488 -77 477 -118T444 -191H291Q295 -156 297 -119T299 -35H493Z" />
<glyph unicode="&#x157;" glyph-name="rcommaaccent" horiz-adv-x="444" d="M14 105L67 119V404L10 420V527L248 550L265 542V459H271Q292 497 325 522T406 548Q422 548 433 545V363Q415 368 384 368Q347 368 322 365T273 352V119L346 105V0H14V105ZM524 -35Q519
-77 508 -118T475 -191H322Q326 -156 328 -119T330 -35H524Z" />
<glyph unicode="&#x158;" glyph-name="Rcaron" horiz-adv-x="725" d="M16 111L81 128V564L17 582V693H389Q462 693 514 679T601 637T650 571T666 484Q666 416 635 380T553 323V319L668 124L714 111V0H488L344 267H310V125L361 111V0H16V111ZM363 386Q404 386 420
410T437 482Q437 525 417 544T355 563H310V386H363ZM173 847L211 902L342 851L473 902L511 847L390 723H294L173 847Z" />
<glyph unicode="&#x159;" glyph-name="rcaron" horiz-adv-x="444" d="M332 721L372 776L501 713L630 776L670 721L549 583H453L332 721ZM14 105L67 119V404L10 420V527L248 550L265 542V459H271Q292 497 325 522T406 548Q422 548 433 545V363Q415 368 384 368Q347
368 322 365T273 352V119L346 105V0H14V105Z" />
<glyph unicode="&#x15a;" glyph-name="Sacute" horiz-adv-x="578" d="M265 -12Q234 -12 201 -10T137 -3T77 8T29 22L18 217H161L185 136Q199 130 215 127T256 123Q297 123 316 138T336 182Q336 211 308 227T231 260L201 270Q158 284 125 301T69 342T34 399T22
481Q22 531 37 572T87 643T176 689T308 706Q386 706 435 697T514 677L525 501H384L368 561Q354 567 339 570T303 574Q269 574 250 561T230 524Q230 497 253 484T325 454L355 444Q406 427 444 410T507 369T545 311T558 225Q558 110 483 49T265 -12ZM157 809L383
912L437 769L188 720L157 809Z" />
<glyph unicode="&#x15b;" glyph-name="sacute" horiz-adv-x="502" d="M221 -13Q174 -13 122 -5T26 21L17 169H147L165 118Q173 113 189 108T227 103Q288 103 288 143Q288 161 276 169T232 184L173 197Q95 213 55 251T14 365Q14 406 28 440T74 499T152 538T266
552Q317 552 367 544T452 520V379H325L315 426Q307 431 294 434T260 438Q234 438 216 430T198 403Q198 385 212 377T264 360L331 346Q415 329 450 288T486 184Q486 139 471 103T424 41T342 1T221 -13ZM346 782L409 642L160 578L124 665L346 782Z" />
<glyph unicode="&#x15c;" glyph-name="Scircumflex" horiz-adv-x="578" d="M463 775L425 720L294 771L163 720L125 775L246 899H342L463 775ZM265 -12Q234 -12 201 -10T137 -3T77 8T29 22L18 217H161L185 136Q199 130 215 127T256 123Q297 123 316 138T336 182Q336
211 308 227T231 260L201 270Q158 284 125 301T69 342T34 399T22 481Q22 531 37 572T87 643T176 689T308 706Q386 706 435 697T514 677L525 501H384L368 561Q354 567 339 570T303 574Q269 574 250 561T230 524Q230 497 253 484T325 454L355 444Q406 427 444 410T507
369T545 311T558 225Q558 110 483 49T265 -12Z" />
<glyph unicode="&#x15d;" glyph-name="scircumflex" horiz-adv-x="502" d="M221 -13Q174 -13 122 -5T26 21L17 169H147L165 118Q173 113 189 108T227 103Q288 103 288 143Q288 161 276 169T232 184L173 197Q95 213 55 251T14 365Q14 406 28 440T74 499T152 538T266
552Q317 552 367 544T452 520V379H325L315 426Q307 431 294 434T260 438Q234 438 216 430T198 403Q198 385 212 377T264 360L331 346Q415 329 450 288T486 184Q486 139 471 103T424 41T342 1T221 -13ZM425 631L385 576L256 639L127 576L87 631L208 769H304L425
631Z" />
<glyph unicode="&#x15e;" glyph-name="Scedilla" horiz-adv-x="578" d="M172 -162Q230 -158 250 -149T271 -125Q271 -111 254 -103T198 -93V-9Q149 -5 104 2T29 22L18 217H161L185 136Q199 130 215 127T256 123Q297 123 316 138T336 182Q336 211 308 227T231 260L201
270Q158 284 125 301T69 342T34 399T22 481Q22 531 37 572T87 643T176 689T308 706Q386 706 435 697T514 677L525 501H384L368 561Q354 567 339 570T303 574Q269 574 250 561T230 524Q230 497 253 484T325 454L355 444Q406 427 444 410T507 369T545 311T558 225Q558
112 485 51T274 -12V-38Q345 -42 372 -60T400 -118Q400 -163 347 -190T172 -223V-162Z" />
<glyph unicode="&#x15f;" glyph-name="scedilla" horiz-adv-x="502" d="M138 -162Q196 -158 216 -149T237 -125Q237 -111 220 -103T164 -93V-10Q128 -6 92 1T26 21L17 169H147L165 118Q173 113 189 108T227 103Q288 103 288 143Q288 161 276 169T232 184L173 197Q95
213 55 251T14 365Q14 406 28 440T74 499T152 538T266 552Q317 552 367 544T452 520V379H325L315 426Q307 431 294 434T260 438Q234 438 216 430T198 403Q198 385 212 377T264 360L331 346Q415 329 450 288T486 184Q486 140 472 105T429 44T353 4T240 -13V-38Q311
-42 338 -60T366 -118Q366 -163 313 -190T138 -223V-162Z" />
<glyph unicode="&#x160;" glyph-name="Scaron" horiz-adv-x="578" d="M265 -12Q234 -12 201 -10T137 -3T77 8T29 22L18 217H161L185 136Q199 130 215 127T256 123Q297 123 316 138T336 182Q336 211 308 227T231 260L201 270Q158 284 125 301T69 342T34 399T22
481Q22 531 37 572T87 643T176 689T308 706Q386 706 435 697T514 677L525 501H384L368 561Q354 567 339 570T303 574Q269 574 250 561T230 524Q230 497 253 484T325 454L355 444Q406 427 444 410T507 369T545 311T558 225Q558 110 483 49T265 -12ZM125 847L163
902L294 851L425 902L463 847L342 723H246L125 847Z" />
<glyph unicode="&#x161;" glyph-name="scaron" horiz-adv-x="502" d="M221 -13Q174 -13 122 -5T26 21L17 169H147L165 118Q173 113 189 108T227 103Q288 103 288 143Q288 161 276 169T232 184L173 197Q95 213 55 251T14 365Q14 406 28 440T74 499T152 538T266
552Q317 552 367 544T452 520V379H325L315 426Q307 431 294 434T260 438Q234 438 216 430T198 403Q198 385 212 377T264 360L331 346Q415 329 450 288T486 184Q486 139 471 103T424 41T342 1T221 -13ZM87 721L127 776L256 713L385 776L425 721L304 583H208L87 721Z"
/>
<glyph unicode="&#x162;" glyph-name="Tcommaaccent" horiz-adv-x="684" d="M158 111L228 128V564H175L147 449H12L20 693H664L672 449H537L509 564H456V128L526 111V0H158V111ZM444 -35Q439 -77 428 -118T395 -191H242Q246 -156 248 -119T250 -35H444Z" />
<glyph unicode="&#x163;" glyph-name="tcommaaccent" horiz-adv-x="398" d="M241 -12Q199 -12 166 -5T110 21T75 68T63 142V418H10V513L82 541L106 665H269V539H371V418H269V175Q269 142 285 131T330 120Q342 120 354 122T376 127V17Q357 6 323 -3T241 -12ZM562
-35Q557 -77 546 -118T513 -191H360Q364 -156 366 -119T368 -35H562Z" />
<glyph unicode="&#x164;" glyph-name="Tcaron" horiz-adv-x="684" d="M158 111L228 128V564H175L147 449H12L20 693H664L672 449H537L509 564H456V128L526 111V0H158V111ZM173 847L211 902L342 851L473 902L511 847L390 723H294L173 847Z" />
<glyph unicode="&#x165;" glyph-name="tcaron" horiz-adv-x="398" d="M241 -12Q199 -12 166 -5T110 21T75 68T63 142V418H10V513L82 541L106 665H269V539H371V418H269V175Q269 142 285 131T330 120Q342 120 354 122T376 127V17Q357 6 323 -3T241 -12ZM309 752L462
734L399 556L295 571L309 752Z" />
<glyph unicode="&#x166;" glyph-name="Tbar" horiz-adv-x="684" d="M101 398H228V564H175L147 449H12L20 693H664L672 449H537L509 564H456V398H583V293H456V128L526 111V0H158V111L228 128V293H101V398Z" />
<glyph unicode="&#x167;" glyph-name="tbar" horiz-adv-x="398" d="M10 369H63V418H10V513L82 541L106 665H269V539H371V418H269V369H371V295H269V175Q269 142 285 131T330 120Q342 120 354 122T376 127V17Q357 6 323 -3T241 -12Q199 -12 166 -5T110 21T75 68T63
142V295H10V369Z" />
<glyph unicode="&#x168;" glyph-name="Utilde" horiz-adv-x="729" d="M198 776Q209 798 223 818T254 853T291 876T334 885Q351 885 367 881T399 873T427 865T452 861Q486 861 507 891L582 838Q571 816 557 796T526 761T489 738T446 729Q429 729 413 732T381 740T353
749T328 753Q294 753 273 723L198 776ZM379 -12Q298 -12 241 4T146 51T91 126T73 224V565L14 582V693H358V582L302 567V237Q302 205 309 183T331 148T365 129T409 123Q459 123 485 147T512 237V567L455 582V693H715V582L658 565V237Q658 183 644 138T597 59T511
7T379 -12Z" />
<glyph unicode="&#x169;" glyph-name="utilde" horiz-adv-x="646" d="M215 -12Q131 -12 95 26T59 135V405L8 422V528L248 550L265 541V195Q265 168 276 156T315 143Q335 143 348 146T372 155V405L324 422V528L560 550L578 541V135L631 119V14L397 -10L379 -2V56H373Q347
29 310 9T215 -12ZM132 632Q143 654 157 674T188 709T225 732T268 741Q285 741 300 737T328 728T352 719T376 715Q410 715 431 745L506 692Q495 670 481 650T450 615T413 592T370 583Q353 583 338 587T310 596T286 605T262 609Q228 609 207 579L132 632Z" />
<glyph unicode="&#x16a;" glyph-name="Umacron" horiz-adv-x="729" d="M379 -12Q298 -12 241 4T146 51T91 126T73 224V565L14 582V693H358V582L302 567V237Q302 205 309 183T331 148T365 129T409 123Q459 123 485 147T512 237V567L455 582V693H715V582L658 565V237Q658
183 644 138T597 59T511 7T379 -12ZM240 854H540V732H240V854Z" />
<glyph unicode="&#x16b;" glyph-name="umacron" horiz-adv-x="646" d="M215 -12Q131 -12 95 26T59 135V405L8 422V528L248 550L265 541V195Q265 168 276 156T315 143Q335 143 348 146T372 155V405L324 422V528L560 550L578 541V135L631 119V14L397 -10L379 -2V56H373Q347
29 310 9T215 -12ZM169 716H469V594H169V716Z" />
<glyph unicode="&#x16c;" glyph-name="Ubreve" horiz-adv-x="729" d="M379 -12Q298 -12 241 4T146 51T91 126T73 224V565L14 582V693H358V582L302 567V237Q302 205 309 183T331 148T365 129T409 123Q459 123 485 147T512 237V567L455 582V693H715V582L658 565V237Q658
183 644 138T597 59T511 7T379 -12ZM390 839Q410 839 423 847T439 870H555Q554 839 543 812T510 765T459 734T390 722Q351 722 321 733T270 765T238 812T225 870H341Q343 856 356 848T390 839Z" />
<glyph unicode="&#x16d;" glyph-name="ubreve" horiz-adv-x="646" d="M215 -12Q131 -12 95 26T59 135V405L8 422V528L248 550L265 541V195Q265 168 276 156T315 143Q335 143 348 146T372 155V405L324 422V528L560 550L578 541V135L631 119V14L397 -10L379 -2V56H373Q347
29 310 9T215 -12ZM319 707Q339 707 352 716T368 741H484Q483 709 472 681T439 632T388 599T319 586Q280 586 250 598T199 632T167 681T154 741H270Q272 726 285 717T319 707Z" />
<glyph unicode="&#x16e;" glyph-name="Uring" horiz-adv-x="729" d="M379 -12Q298 -12 241 4T146 51T91 126T73 224V565L14 582V693H358V582L302 567V237Q302 205 309 183T331 148T365 129T409 123Q459 123 485 147T512 237V567L455 582V693H715V582L658 565V237Q658
183 644 138T597 59T511 7T379 -12ZM390 711Q363 711 341 720T302 745T276 782T267 827Q267 851 276 871T301 908T340 933T390 942Q417 942 439 933T478 908T504 872T513 827Q513 803 504 782T479 745T440 720T390 711ZM436 827Q436 848 424 862T390 876Q368 876
356 862T344 827Q344 804 356 791T390 777Q412 777 424 790T436 827Z" />
<glyph unicode="&#x16f;" glyph-name="uring" horiz-adv-x="646" d="M319 577Q292 577 270 586T231 611T205 648T196 693Q196 717 205 737T230 774T269 799T319 808Q346 808 368 799T407 774T433 738T442 693Q442 669 433 648T408 611T369 586T319 577ZM365 693Q365
714 353 728T319 742Q297 742 285 728T273 693Q273 670 285 657T319 643Q341 643 353 656T365 693ZM215 -12Q131 -12 95 26T59 135V405L8 422V528L248 550L265 541V195Q265 168 276 156T315 143Q335 143 348 146T372 155V405L324 422V528L560 550L578 541V135L631
119V14L397 -10L379 -2V56H373Q347 29 310 9T215 -12Z" />
<glyph unicode="&#x170;" glyph-name="Uhungarumlaut" horiz-adv-x="729" d="M518 931L643 843L503 722L424 772L518 931ZM310 930L442 854L315 721L233 765L310 930ZM379 -12Q298 -12 241 4T146 51T91 126T73 224V565L14 582V693H358V582L302 567V237Q302 205
309 183T331 148T365 129T409 123Q459 123 485 147T512 237V567L455 582V693H715V582L658 565V237Q658 183 644 138T597 59T511 7T379 -12Z" />
<glyph unicode="&#x171;" glyph-name="uhungarumlaut" horiz-adv-x="646" d="M486 798L593 700L413 573L353 627L486 798ZM264 798L379 711L211 571L147 619L264 798ZM215 -12Q131 -12 95 26T59 135V405L8 422V528L248 550L265 541V195Q265 168 276 156T315 143Q335
143 348 146T372 155V405L324 422V528L560 550L578 541V135L631 119V14L397 -10L379 -2V56H373Q347 29 310 9T215 -12Z" />
<glyph unicode="&#x172;" glyph-name="Uogonek" horiz-adv-x="729" d="M371 -12Q219 -12 146 51T73 224V565L14 582V693H358V582L302 567V237Q302 205 309 183T331 148T365 129T409 123Q459 123 485 147T512 237V567L455 582V693H715V582L658 565V237Q658 159
630 104T536 17Q502 0 477 -22T452 -74Q452 -90 463 -97T490 -104Q498 -104 504 -104T516 -102V-180Q502 -187 479 -191T425 -196Q356 -196 325 -171T293 -109Q293 -44 375 -12H371V-12Z" />
<glyph unicode="&#x173;" glyph-name="uogonek" horiz-adv-x="646" d="M521 -180Q507 -187 484 -191T430 -196Q361 -196 330 -171T298 -109Q298 -46 379 -8V56H373Q347 29 310 9T215 -12Q131 -12 95 26T59 135V405L8 422V528L248 550L265 541V195Q265 168 276
156T315 143Q335 143 348 146T372 155V405L324 422V528L560 550L578 541V135L631 119V14L503 2Q479 -22 468 -39T457 -74Q457 -90 468 -97T495 -104Q503 -104 509 -104T521 -102V-180V-180Z" />
<glyph unicode="&#x174;" glyph-name="Wcircumflex" horiz-adv-x="1029" d="M726 775L688 720L557 771L426 720L388 775L509 899H605L726 775ZM61 565L14 582V693H351V582L297 565L360 252H365L472 693H637L743 270H748L809 565L747 582V693H1015V582L967 565L832
0H609L519 384H515L424 0H201L61 565Z" />
<glyph unicode="&#x175;" glyph-name="wcircumflex" horiz-adv-x="867" d="M620 631L580 576L451 639L322 576L282 631L403 769H499L620 631ZM45 421L7 434V539H289V434L250 423L295 238H299L386 539H530L617 238H621L665 423L628 434V539H856V434L818 421L694
0H514L434 280H431L351 0H169L45 421Z" />
<glyph unicode="&#x176;" glyph-name="Ycircumflex" horiz-adv-x="692" d="M169 111L238 128V271L64 565L13 582V693H350V582L302 568L387 401H391L476 568L429 582V693H679V582L627 565L466 277V128L535 111V0H169V111ZM545 775L507 720L376 771L245 720L207
775L328 899H424L545 775Z" />
<glyph unicode="&#x177;" glyph-name="ycircumflex" horiz-adv-x="623" d="M186 -204Q158 -204 128 -200T80 -189V-58Q111 -65 134 -65Q163 -65 184 -57T215 -25L226 7L50 421L7 434V539H309V434L265 423L344 206H348L417 423L372 434V539H612V434L572 421L391
-51Q376 -89 359 -118T317 -166T261 -194T186 -204ZM501 631L461 576L332 639L203 576L163 631L284 769H380L501 631Z" />
<glyph unicode="&#x178;" glyph-name="Ydieresis" horiz-adv-x="692" d="M169 111L238 128V271L64 565L13 582V693H350V582L302 568L387 401H391L476 568L429 582V693H679V582L627 565L466 277V128L535 111V0H169V111ZM486 724Q446 724 417 747T388 813Q388 856
417 879T486 902Q526 902 554 879T583 813Q583 770 555 747T486 724ZM266 724Q226 724 198 747T169 813Q169 856 197 879T266 902Q306 902 335 879T364 813Q364 770 335 747T266 724Z" />
<glyph unicode="&#x179;" glyph-name="Zacute" horiz-adv-x="618" d="M20 137L339 559V563H207L165 458H30L42 693H596V556L277 134V130H422L468 259H600L589 0H20V137ZM199 809L425 912L479 769L230 720L199 809Z" />
<glyph unicode="&#x17a;" glyph-name="zacute" horiz-adv-x="516" d="M16 109L258 420V424H152L126 349H23L33 539H492V426L260 123V119H364L396 205H502L488 0H16V109ZM354 782L417 642L168 578L132 665L354 782Z" />
<glyph unicode="&#x17b;" glyph-name="Zdotaccent" horiz-adv-x="618" d="M322 722Q277 722 246 747T214 820Q214 867 245 892T322 918Q367 918 398 893T430 820Q430 773 399 748T322 722ZM20 137L339 559V563H207L165 458H30L42 693H596V556L277 134V130H422L468
259H600L589 0H20V137Z" />
<glyph unicode="&#x17c;" glyph-name="zdotaccent" horiz-adv-x="516" d="M264 570Q219 570 188 595T156 668Q156 715 187 740T264 766Q309 766 340 741T372 668Q372 621 341 596T264 570ZM16 109L258 420V424H152L126 349H23L33 539H492V426L260 123V119H364L396
205H502L488 0H16V109Z" />
<glyph unicode="&#x17d;" glyph-name="Zcaron" horiz-adv-x="618" d="M20 137L339 559V563H207L165 458H30L42 693H596V556L277 134V130H422L468 259H600L589 0H20V137ZM153 847L191 902L322 851L453 902L491 847L370 723H274L153 847Z" />
<glyph unicode="&#x17e;" glyph-name="zcaron" horiz-adv-x="516" d="M16 109L258 420V424H152L126 349H23L33 539H492V426L260 123V119H364L396 205H502L488 0H16V109ZM95 721L135 776L264 713L393 776L433 721L312 583H216L95 721Z" />
<glyph unicode="&#x192;" glyph-name="florin" horiz-adv-x="520" d="M278 -30Q264 -112 211 -147T69 -183Q52 -183 35 -181T3 -176T-24 -170T-40 -164V-41Q-31 -43 -22 -44T1 -46Q54 -46 63 5L114 295H55V414H135L153 515Q170 611 225 655T375 699Q424 699 457
692T508 676V551Q496 554 484 556T451 558Q412 558 395 544T371 492L357 414H454V295H336L278 -30V-30Z" />
<glyph unicode="&#x1fa;" glyph-name="Aringacute" horiz-adv-x="753" d="M10 111L62 128L269 693H488L690 128L743 111V0H381V111L445 128L422 200H243L220 128L285 111V0H10V111ZM388 308L335 475H330L277 308H388ZM374 711Q347 711 325 720T286 745T260 782T251
827Q251 851 260 871T285 908T324 933T374 942Q401 942 423 933T462 908T488 872T497 827Q497 803 488 782T463 745T424 720T374 711ZM420 827Q420 848 408 862T374 876Q352 876 340 862T328 827Q328 804 340 791T374 777Q396 777 408 790T420 827ZM237 1032L463
1135L517 992L268 943L237 1032Z" />
<glyph unicode="&#x1fb;" glyph-name="aringacute" horiz-adv-x="564" d="M170 -13Q96 -13 54 28T11 135Q11 175 25 203T65 250T129 280T215 301L299 317V336Q299 371 279 386T203 402Q166 402 129 400T64 392V513Q105 527 166 539T300 551Q406 551 455 507T505
370V146Q505 129 514 122T538 115H552V15Q537 5 505 -4T438 -13Q391 -13 363 2T322 52H317Q297 25 259 6T170 -13ZM259 104Q272 104 282 109T299 120V227L266 226Q240 224 228 210T215 164Q215 132 225 118T259 104ZM282 577Q255 577 233 586T194 611T168 648T159
693Q159 717 168 737T193 774T232 799T282 808Q309 808 331 799T370 774T396 738T405 693Q405 669 396 648T371 611T332 586T282 577ZM328 693Q328 714 316 728T282 742Q260 742 248 728T236 693Q236 670 248 657T282 643Q304 643 316 656T328 693ZM140 898L366
1001L420 858L171 809L140 898Z" />
<glyph unicode="&#x1fc;" glyph-name="AEacute" horiz-adv-x="1020" d="M305 111V0H10V111L64 129L354 575L300 582V693H979L987 473H860L826 568H671V412H711L726 469H828V234H726L711 293H671V125H828L874 241H1003L994 0H383V111L447 128V192H264L226 129L305
111ZM444 493L329 300H447V493H444ZM507 809L733 912L787 769L538 720L507 809Z" />
<glyph unicode="&#x1fd;" glyph-name="aeacute" horiz-adv-x="843" d="M588 -13Q428 -13 356 76Q323 31 278 9T183 -13Q99 -13 55 28T11 135Q11 175 25 203T65 250T129 280T215 301L299 317V336Q299 371 279 386T203 402Q166 402 129 400T64 392V513Q105 527 162
539T286 551Q382 551 429 507Q487 551 579 551Q640 551 686 535T763 483T809 385T825 234H509Q517 172 551 150T646 127Q698 127 734 134T800 151V41Q770 21 720 4T588 -13ZM321 138Q304 177 300 228L266 226Q240 224 228 210T215 164Q215 132 227 118T263 104Q277
104 291 111T321 138ZM572 430Q560 430 550 426T531 411T517 379T508 328L629 333Q629 362 625 381T612 411T594 426T572 430ZM526 782L589 642L340 578L304 665L526 782Z" />
<glyph unicode="&#x1fe;" glyph-name="Oslashacute" horiz-adv-x="721" d="M358 -12Q304 -12 257 -2T170 32L118 -35L38 15L98 92Q60 136 40 197T19 341Q19 437 47 505T124 618T234 684T364 705Q466 705 542 665L585 720L665 670L617 608Q658 564 680 501T702
352Q702 257 674 188T597 75T487 9T358 -12ZM360 127Q386 127 407 137T443 172T466 237T474 339Q474 384 471 419L276 169Q290 145 310 136T360 127ZM247 355Q247 335 247 319T249 286L439 532Q425 551 406 558T361 566Q335 566 314 556T278 521T255 456T247 355ZM223
809L449 912L503 769L254 720L223 809Z" />
<glyph unicode="&#x1ff;" glyph-name="oslashacute" horiz-adv-x="596" d="M298 -13Q253 -13 216 -5T146 19L98 -40L28 9L78 70Q14 143 14 266Q14 337 36 390T96 479T186 533T298 551Q343 551 380 543T450 520L492 571L562 522L518 469Q582 397 582 273Q582 202
560 149T500 59T409 5T298 -13ZM218 240L356 406Q346 420 332 425T297 430Q279 430 264 424T239 401T224 354T218 274V240ZM299 109Q317 109 331 116T356 140T371 188T377 266Q377 274 377 282T376 298L240 132Q249 118 263 114T299 109ZM388 782L451 642L202 578L166
665L388 782Z" />
<glyph unicode="&#x218;" glyph-name="Scommaaccent" horiz-adv-x="578" d="M265 -12Q234 -12 201 -10T137 -3T77 8T29 22L18 217H161L185 136Q199 130 215 127T256 123Q297 123 316 138T336 182Q336 211 308 227T231 260L201 270Q158 284 125 301T69 342T34 399T22
481Q22 531 37 572T87 643T176 689T308 706Q386 706 435 697T514 677L525 501H384L368 561Q354 567 339 570T303 574Q269 574 250 561T230 524Q230 497 253 484T325 454L355 444Q406 427 444 410T507 369T545 311T558 225Q558 110 483 49T265 -12ZM382 -35Q377
-77 366 -118T333 -191H180Q184 -156 186 -119T188 -35H382Z" />
<glyph unicode="&#x219;" glyph-name="scommaaccent" horiz-adv-x="502" d="M221 -13Q174 -13 122 -5T26 21L17 169H147L165 118Q173 113 189 108T227 103Q288 103 288 143Q288 161 276 169T232 184L173 197Q95 213 55 251T14 365Q14 406 28 440T74 499T152 538T266
552Q317 552 367 544T452 520V379H325L315 426Q307 431 294 434T260 438Q234 438 216 430T198 403Q198 385 212 377T264 360L331 346Q415 329 450 288T486 184Q486 139 471 103T424 41T342 1T221 -13ZM358 -35Q353 -77 342 -118T309 -191H156Q160 -156 162 -119T164
-35H358Z" />
<glyph unicode="&#x237;" glyph-name="uni0237" horiz-adv-x="317" d="M56 -198Q21 -198 -3 -193T-44 -181V-59Q-24 -63 1 -63Q35 -63 51 -49T67 0V404L9 420V527L255 550L273 542V6Q273 -44 262 -82T225 -146T158 -185T56 -198Z" />
<glyph unicode="&#x2c6;" glyph-name="circumflex" horiz-adv-x="500" d="M419 631L379 576L250 639L121 576L81 631L202 769H298L419 631Z" />
<glyph unicode="&#x2c7;" glyph-name="caron" horiz-adv-x="500" d="M81 721L121 776L250 713L379 776L419 721L298 583H202L81 721Z" />
<glyph unicode="&#x2d8;" glyph-name="breve" horiz-adv-x="500" d="M250 707Q270 707 283 716T299 741H415Q414 709 403 681T370 632T319 599T250 586Q211 586 181 598T130 632T98 681T85 741H201Q203 726 216 717T250 707Z" />
<glyph unicode="&#x2d9;" glyph-name="dotaccent" horiz-adv-x="500" d="M249 570Q204 570 173 595T141 668Q141 715 172 740T249 766Q294 766 325 741T357 668Q357 621 326 596T249 570Z" />
<glyph unicode="&#x2da;" glyph-name="ring" horiz-adv-x="500" d="M250 577Q223 577 201 586T162 611T136 648T127 693Q127 717 136 737T161 774T200 799T250 808Q277 808 299 799T338 774T364 738T373 693Q373 669 364 648T339 611T300 586T250 577ZM296 693Q296
714 284 728T250 742Q228 742 216 728T204 693Q204 670 216 657T250 643Q272 643 284 656T296 693Z" />
<glyph unicode="&#x2db;" glyph-name="ogonek" horiz-adv-x="550" d="M356 -180Q342 -187 319 -191T265 -196Q196 -196 165 -171T133 -109Q133 -72 160 -44T243 0H338Q313 -26 303 -41T292 -74Q292 -90 303 -97T330 -104Q338 -104 344 -104T356 -102V-180V-180Z" />
<glyph unicode="&#x2dc;" glyph-name="tilde" horiz-adv-x="500" d="M65 632Q76 654 90 674T121 709T158 732T201 741Q218 741 233 737T261 728T285 719T309 715Q343 715 364 745L439 692Q428 670 414 650T383 615T346 592T303 583Q286 583 271 587T243 596T219
605T195 609Q161 609 140 579L65 632Z" />
<glyph unicode="&#x2dd;" glyph-name="hungarumlaut" horiz-adv-x="500" d="M437 798L544 700L364 573L304 627L437 798ZM215 798L330 711L162 571L98 619L215 798Z" />
</font>
</defs>
</svg>
