<?xml version="1.0" standalone="no"?> <!DOCTYPE svg PUBLIC "-//W3C//DTD SVG 1.0//EN" "http://www.w3.org/TR/2001/REC-SVG-20010904/DTD/svg10.dtd" > <svg xmlns="http://www.w3.org/2000/svg" width="100%" height="100%">
<defs >
<font horiz-adv-x="505" ><font-face
    font-family=""
    units-per-em="1000"
    panose-1="2 6 3 3 5 5 3 6 8 3"
    ascent="790"
    descent="-210"
    alphabetic="0" />
<missing-glyph horiz-adv-x="494" />
<glyph unicode=" " glyph-name="space" horiz-adv-x="195" />
<glyph unicode="!" glyph-name="exclam" horiz-adv-x="193" d="M80 693H122L113 166H89L80 693ZM101 -8Q87 -8 78 1T69 23Q69 36 78 45T101 54Q115 54 124 45T133 23Q133 10 124 1T101 -8Z" />
<glyph unicode="&quot;" glyph-name="quotedbl" horiz-adv-x="244" d="M53 693H96L87 518H60L53 693ZM149 693H191L182 518H156L149 693Z" />
<glyph unicode="#" glyph-name="numbersign" horiz-adv-x="465" d="M63 463H155L191 693H221L184 463H318L354 693H384L347 463H434V429H342L317 275H406V241H312L274 0H244L282 241H149L111 0H81L119 241H35V275H125L149 429H63V463ZM154 275H288L312 429H179L154 275Z" />
<glyph unicode="$" glyph-name="dollar" horiz-adv-x="499" d="M192 -8Q144 -3 106 8T45 30L40 166H65L79 56Q96 47 124 37T195 21L228 351L216 355Q180 367 150 382T99 419T67 469T55 537Q55 571 67 601T103 654T165 690T253 703H263L269 765H298L291 701Q333
698 364 689T417 671L423 548H398L385 643Q374 649 349 658T288 672L259 376L275 371Q315 357 348 342T404 304T440 252T453 178Q453 138 440 104T399 44T331 5T235 -10H220L210 -117H181L192 -8ZM255 341L223 19H238Q328 19 371 60T414 168Q414 204 407 230T381
275T334 309T260 340L255 341ZM92 542Q92 510 99 487T124 445T167 413T231 386L260 674H250Q172 674 132 639T92 542Z" />
<glyph unicode="%" glyph-name="percent" horiz-adv-x="765" d="M185 343Q121 343 80 389T38 521Q38 565 49 599T81 656T128 691T186 703Q216 703 242 692T289 657T320 601T332 524Q332 437 291 390T185 343ZM579 -8Q515 -8 474 38T432 170Q432 214 443 248T475
305T522 340T580 352Q610 352 636 341T683 306T714 250T726 173Q726 86 685 39T579 -8ZM185 367Q238 367 267 405T296 522Q296 600 267 639T186 679Q133 679 103 640T73 522Q73 445 102 406T185 367ZM579 16Q632 16 661 54T690 171Q690 249 661 288T580 328Q527
328 497 289T467 171Q467 94 496 55T579 16ZM610 713H644L145 -40H111L610 713Z" />
<glyph unicode="&amp;" glyph-name="ampersand" horiz-adv-x="650" d="M232 -10Q187 -10 149 3T84 40T42 97T27 169Q27 242 69 293T197 386Q169 421 151 458T132 545Q132 583 145 612T181 662T232 692T293 703Q319 703 343 695T387 671T419 630T431 573Q431 538
418 511T380 461T322 418T250 379L446 144Q474 189 490 237T516 325L443 333V355H620V333L550 325Q538 280 519 226T466 121L541 31L635 22V0H519L443 90Q407 46 356 18T232 -10ZM67 173Q67 140 78 112T111 64T165 32T238 20Q302 20 347 46T425 113L214 366Q138
331 103 285T67 173ZM393 572Q393 599 385 618T362 651T330 670T292 676Q267 676 245 668T207 644T180 604T170 548Q170 503 188 468T233 399Q270 418 299 435T350 472T382 516T393 572Z" />
<glyph unicode="&apos;" glyph-name="quotesingle" horiz-adv-x="149" d="M53 693H96L87 518H60L53 693Z" />
<glyph unicode="(" glyph-name="parenleft" horiz-adv-x="292" d="M247 -137Q218 -110 183 -71T116 22T64 145T43 302Q43 382 64 450T116 574T182 672T247 741L264 724Q237 696 205 655T146 562T101 446T82 310Q82 225 100 158T146 39T205 -53T264 -120L247 -137Z" />
<glyph unicode=")" glyph-name="parenright" horiz-adv-x="292" d="M29 -120Q56 -92 88 -51T147 42T192 158T211 294Q211 379 193 446T147 565T88 657T29 724L46 741Q75 714 110 675T177 582T229 459T250 302Q250 222 229 154T177 30T111 -68T46 -137L29 -120Z" />
<glyph unicode="*" glyph-name="asterisk" horiz-adv-x="302" d="M148 533L45 468L30 497L140 552L29 607L44 636L148 570L140 693H176L168 570L271 636L286 607L176 552L285 497L270 468L168 533L176 412H140L148 533Z" />
<glyph unicode="+" glyph-name="plus" horiz-adv-x="495" d="M61 364H232V543H263V364H434V335H263V157H232V335H61V364Z" />
<glyph unicode="," glyph-name="comma" horiz-adv-x="147" d="M38 -111Q46 -74 50 -34T55 52H99Q96 5 87 -35T64 -111H38Z" />
<glyph unicode="-" glyph-name="hyphen" horiz-adv-x="258" d="M31 292H226V258H31V292Z" />
<glyph unicode="." glyph-name="period" horiz-adv-x="148" d="M74 -8Q60 -8 51 1T42 23Q42 36 51 45T74 54Q88 54 97 45T106 23Q106 10 97 1T74 -8Z" />
<glyph unicode="/" glyph-name="slash" horiz-adv-x="313" d="M251 733H283L43 -120H11L251 733Z" />
<glyph unicode="0" glyph-name="zero" horiz-adv-x="614" d="M308 -11Q184 -11 115 79T45 345Q45 433 63 500T116 612T198 680T308 703Q368 703 416 681T499 613T551 502T570 347Q570 172 501 81T308 -11ZM308 17Q419 17 474 101T529 345Q529 502 474 588T308
675Q196 675 141 590T86 347Q86 191 141 104T308 17Z" />
<glyph unicode="1" glyph-name="one" horiz-adv-x="337" d="M43 22L153 30V657L28 617V638L176 701H192V30L303 22V0H43V22Z" />
<glyph unicode="2" glyph-name="two" horiz-adv-x="492" d="M20 26L195 196Q234 234 268 270T327 344T368 421T383 505Q383 581 345 626T217 672Q165 672 127 660T53 632V659Q90 679 132 691T225 703Q319 703 372 654T425 509Q425 461 410 419T366 337T301 258T218
176L71 37V35H402L421 134H445L438 0H20V26Z" />
<glyph unicode="3" glyph-name="three" horiz-adv-x="484" d="M215 -10Q152 -10 107 3T28 34V61Q67 44 111 33T211 21Q308 21 355 66T402 190Q402 274 353 313T203 352H150V382H199Q276 382 323 420T371 529Q371 598 330 635T208 672Q160 672 126 664T56 641V666Q89
683 128 693T212 703Q305 703 357 660T409 531Q409 496 398 469T368 423T326 391T277 371V369Q307 365 336 354T389 322T427 268T441 188Q441 96 383 43T215 -10Z" />
<glyph unicode="4" glyph-name="four" horiz-adv-x="531" d="M260 22L355 30V209H16V234L361 693H393V239H513V209H393V30L487 22V0H260V22ZM355 239V637H353L56 241V239H355Z" />
<glyph unicode="5" glyph-name="five" horiz-adv-x="481" d="M204 -10Q147 -10 103 2T24 33V59Q62 42 104 33T197 23Q249 23 287 36T351 74T388 131T400 205Q400 300 350 345T199 390Q158 390 127 385T71 372L97 693H427L424 657H126L106 405Q124 411 150 415T205
419Q320 419 380 368T441 208Q441 161 427 121T383 52T309 7T204 -10Z" />
<glyph unicode="6" glyph-name="six" horiz-adv-x="544" d="M289 -11Q227 -11 181 11T105 74T60 174T45 308Q45 415 69 490T133 612T228 681T343 703Q391 703 420 694T469 673V647Q448 657 418 664T347 672Q293 672 247 654T166 597T110 494T86 341Q104 354 124
366T170 389T224 405T289 411Q334 411 373 399T441 361T488 299T505 212Q505 159 489 118T445 48T377 4T289 -11ZM289 17Q370 17 417 66T465 207Q465 252 451 284T413 338T354 369T279 380Q244 380 216 375T165 360T123 338T86 313V304Q86 240 96 188T131 97T194
38T289 17Z" />
<glyph unicode="7" glyph-name="seven" horiz-adv-x="474" d="M425 654V656H56L43 568H19L25 693H458V661L160 0H116L425 654Z" />
<glyph unicode="8" glyph-name="eight" horiz-adv-x="551" d="M276 -12Q220 -12 176 1T102 38T57 95T41 169Q41 212 59 244T104 299T165 339T231 365Q197 377 167 392T115 428T80 477T67 543Q67 579 82 608T124 659T188 693T271 705Q315 705 352 695T418 664T461
614T477 545Q477 506 463 478T427 429T375 394T315 367Q352 354 387 339T449 301T492 246T509 169Q509 129 493 96T447 38T374 1T276 -12ZM275 16Q369 16 419 56T469 166Q469 207 454 235T412 283T346 319T260 351Q229 341 197 327T140 291T98 240T81 171Q81 137
93 109T129 60T189 28T275 16ZM287 380Q316 391 343 404T391 436T425 481T438 543Q438 577 425 602T390 644T337 669T271 677Q236 677 206 669T154 644T119 603T106 546Q106 509 118 484T153 440T210 407T287 380Z" />
<glyph unicode="9" glyph-name="nine" horiz-adv-x="544" d="M208 -11Q158 -11 127 -2T75 20V46Q96 36 129 28T204 20Q263 20 309 38T387 96T437 199T457 354Q443 343 424 330T380 306T324 288T252 281Q207 281 168 294T101 332T56 396T39 485Q39 537 56 577T102
646T172 688T259 703Q321 703 366 681T440 619T484 519T499 387Q499 281 479 206T422 82T330 12T208 -11ZM263 313Q332 313 377 334T458 385V391Q458 452 448 504T415 594T354 653T260 675Q220 675 187 663T130 628T93 569T79 489Q79 398 127 356T263 313Z" />
<glyph unicode=":" glyph-name="colon" horiz-adv-x="156" d="M81 308Q67 308 58 317T49 339Q49 352 58 361T81 370Q95 370 104 361T113 339Q113 326 104 317T81 308ZM81 -8Q67 -8 58 1T49 23Q49 36 58 45T81 54Q95 54 104 45T113 23Q113 10 104 1T81 -8Z" />
<glyph unicode=";" glyph-name="semicolon" horiz-adv-x="156" d="M40 -111Q48 -74 52 -34T57 52H101Q98 5 89 -35T66 -111H40ZM78 308Q64 308 55 317T46 339Q46 352 55 361T78 370Q92 370 101 361T110 339Q110 326 101 317T78 308Z" />
<glyph unicode="&lt;" glyph-name="less" horiz-adv-x="467" d="M58 331V359L399 519V486L92 345L399 204V171L58 331Z" />
<glyph unicode="=" glyph-name="equal" horiz-adv-x="470" d="M62 403H407V374H62V403ZM62 259H407V230H62V259Z" />
<glyph unicode="&gt;" glyph-name="greater" horiz-adv-x="467" d="M68 203L375 344L68 485V518L409 358V330L68 170V203Z" />
<glyph unicode="?" glyph-name="question" horiz-adv-x="384" d="M139 166Q131 183 125 205T119 253Q119 293 142 323T219 389Q261 418 285 451T310 539Q310 576 299 601T269 643T224 665T167 672Q125 672 94 665T26 642V668Q60 685 95 694T175 703Q207 703 238
695T293 667T332 617T347 540Q347 507 339 482T317 437T281 399T234 363Q191 334 170 309T148 248Q148 228 152 207T163 166H139ZM154 -8Q140 -8 131 1T122 23Q122 36 131 45T154 54Q168 54 177 45T186 23Q186 10 177 1T154 -8Z" />
<glyph unicode="@" glyph-name="at" horiz-adv-x="848" d="M427 -142Q240 -142 142 -50T44 218Q44 308 74 390T160 534T294 634T467 672Q544 672 607 649T714 581T783 473T807 329Q807 261 791 207T744 116T674 58T585 38Q543 38 525 57T504 104H501Q464 69 432
55T367 41Q342 41 320 50T282 77T256 124T246 192Q246 249 260 301T301 392T369 456T460 480Q501 480 527 468T576 441L594 470H613L544 134Q541 120 541 107T546 85T561 70T589 64Q631 64 665 82T724 134T762 217T776 328Q776 403 755 462T694 562T597 625T467
647Q376 647 304 612T180 518T102 382T75 219Q75 53 163 -32T427 -117Q493 -117 549 -106T648 -78V-100Q604 -120 549 -131T427 -142ZM376 70Q409 70 440 85T507 137L562 407Q544 427 521 440T460 453Q415 453 383 431T328 373T296 290T285 194Q285 128 310 99T376
70Z" />
<glyph unicode="A" glyph-name="A" horiz-adv-x="629" d="M-4 22L62 31L299 693H332L569 31L634 22V0H442V22L529 30L459 229H166L96 30L183 22V0H-4V22ZM176 257H449L314 639H312L176 257Z" />
<glyph unicode="B" glyph-name="B" horiz-adv-x="591" d="M33 22L122 30V663L33 671V693H296Q346 693 387 684T456 655T500 603T516 522Q516 466 488 423T393 365V363Q477 349 515 306T554 185Q554 93 493 47T329 0H33V22ZM323 29Q414 29 464 67T514 188Q514 231
501 261T462 311T401 338T320 347H161V29H323ZM313 374Q389 374 432 408T476 518Q476 563 463 591T426 636T368 658T292 664H161V374H313Z" />
<glyph unicode="C" glyph-name="C" horiz-adv-x="601" d="M357 -11Q202 -11 122 79T42 347Q42 438 64 505T126 617T225 682T355 704Q429 704 471 695T544 673L550 525H526L507 645Q482 657 445 666T354 676Q217 676 150 591T83 351Q83 190 149 104T356 18Q411
18 448 28T513 51L532 174H556L550 25Q516 11 471 0T357 -11Z" />
<glyph unicode="D" glyph-name="D" horiz-adv-x="655" d="M27 22L116 30V663L28 671V693H280Q373 693 436 671T539 605T596 498T613 354Q613 269 596 203T540 92T439 24T289 0H27V22ZM286 29Q360 29 414 47T503 103T556 202T573 348Q573 438 556 498T502 595T409
648T277 664H155V29H286Z" />
<glyph unicode="E" glyph-name="E" horiz-adv-x="568" d="M27 22L116 30V663L28 671V693H512L521 539H497L477 664H155V370H348L359 465H383V247H359L348 342H155V29H490L513 172H537L528 0H27V22Z" />
<glyph unicode="F" glyph-name="F" horiz-adv-x="550" d="M27 22L116 30V663L28 671V693H519L528 536H504L484 664H155V361H344L353 456H377V238H353L344 333H155V30L260 22V0H27V22Z" />
<glyph unicode="G" glyph-name="G" horiz-adv-x="661" d="M364 -11Q211 -11 127 79T42 347Q42 438 64 505T128 617T228 682T359 704Q435 704 480 695T555 672L562 531H538L520 644Q492 658 454 667T355 677Q221 677 152 592T83 351Q83 190 154 104T366 17Q411
17 449 25T521 44V261L423 269V291H641V269L561 261V22Q523 8 477 -1T364 -11Z" />
<glyph unicode="H" glyph-name="H" horiz-adv-x="708" d="M27 22L116 30V663L27 671V693H250V671L155 663V372H554V663L459 671V693H683V671L594 663V30L683 22V0H459V22L554 30V344H155V30L250 22V0H27V22Z" />
<glyph unicode="I" glyph-name="I" horiz-adv-x="276" d="M27 22L119 30V663L27 671V693H249V671L158 663V30L249 22V0H27V22Z" />
<glyph unicode="J" glyph-name="J" horiz-adv-x="374" d="M119 -6Q87 -6 58 0T7 18V45Q33 35 59 30T114 24Q149 24 172 33T208 59T227 100T233 156V663L142 671V693H360V671L272 663V152Q272 117 264 88T238 38T191 6T119 -6Z" />
<glyph unicode="K" glyph-name="K" horiz-adv-x="621" d="M27 22L116 30V663L27 671V693H252V671L155 663V30L252 22V0H27V22ZM213 335V348L488 663L409 671V693H592V671L528 663L251 347L528 30L607 22V0H506L213 335Z" />
<glyph unicode="L" glyph-name="L" horiz-adv-x="535" d="M27 22L116 30V663L27 671V693H253V671L155 663V29H468L489 175H514L502 0H27V22Z" />
<glyph unicode="M" glyph-name="M" horiz-adv-x="831" d="M27 22L117 30V663L27 671V693H176L412 103H414L652 693H804V671L714 663V30L804 22V0H582V22L674 30V659H672L422 41H399L152 659H150V30L242 22V0H27V22Z" />
<glyph unicode="N" glyph-name="N" horiz-adv-x="699" d="M27 22L116 30V663L27 671V693H172L559 69H561V663L466 671V693H676V671L594 663V0H559L151 659H149V30L249 22V0H27V22Z" />
<glyph unicode="O" glyph-name="O" horiz-adv-x="681" d="M337 -10Q272 -10 218 13T125 82T64 194T42 347Q42 435 65 502T128 613T222 680T338 703Q402 703 456 680T550 611T611 500T633 348Q633 259 610 192T547 80T453 13T337 -10ZM337 18Q394 18 440 39T521
101T573 202T592 342Q592 427 573 489T521 593T440 655T337 675Q280 675 234 654T154 592T102 491T83 351Q83 269 101 207T152 102T232 39T337 18Z" />
<glyph unicode="P" glyph-name="P" horiz-adv-x="537" d="M27 22L116 30V663L27 671V693H285Q348 693 391 680T460 641T498 581T509 501Q509 450 494 414T452 355T387 321T303 310Q271 310 248 313T208 321V344Q225 341 246 340T297 338Q382 338 425 375T468 498Q468
539 459 570T429 621T373 652T283 663H155V30L256 22V0H27V22Z" />
<glyph unicode="Q" glyph-name="Q" horiz-adv-x="681" d="M274 -5Q223 8 181 34T107 104T59 207T42 347Q42 435 65 502T128 613T222 680T338 703Q402 703 456 680T550 611T611 500T633 348Q633 268 614 206T560 99T479 29T378 -4V-5L658 -64L650 -99L274 -5ZM337
18Q394 18 440 39T521 101T573 202T592 342Q592 427 573 489T521 593T440 655T337 675Q280 675 234 654T154 592T102 491T83 351Q83 269 101 207T152 102T232 39T337 18Z" />
<glyph unicode="R" glyph-name="R" horiz-adv-x="610" d="M27 22L117 30V663L28 671V693H292Q355 693 398 680T467 644T504 587T515 512Q515 442 479 396T358 334V332L535 30L609 22V0H508L318 327H156V30L244 22V0H27V22ZM301 355Q392 355 433 397T474 511Q474
548 466 576T437 623T381 653T290 663H156V355H301Z" />
<glyph unicode="S" glyph-name="S" horiz-adv-x="518" d="M243 -10Q185 -10 136 2T52 30L47 166H71L86 56Q115 42 151 31T241 19Q293 19 329 30T387 61T420 108T430 169Q430 204 422 229T396 273T348 307T274 338L231 353Q192 366 161 382T108 421T74 471T62 537Q62
571 73 601T109 654T173 690T270 703Q324 703 362 694T432 672L438 548H414L400 645Q383 654 350 664T268 674Q177 674 138 639T99 541Q99 513 106 491T130 451T174 417T243 387L286 372Q330 357 364 340T421 300T456 247T468 173Q468 135 456 102T416 43T347 4T243
-10Z" />
<glyph unicode="T" glyph-name="T" horiz-adv-x="572" d="M170 22L266 30V664H56L39 529H15L23 693H548L556 529H532L515 664H305V30L402 22V0H170V22Z" />
<glyph unicode="U" glyph-name="U" horiz-adv-x="678" d="M349 -11Q229 -11 166 46T102 215V663L17 671V693H235V671L141 663V218Q141 115 194 67T349 19Q450 19 499 66T548 216V663L458 671V693H662V671L581 663V217Q581 107 524 48T349 -11Z" />
<glyph unicode="V" glyph-name="V" horiz-adv-x="628" d="M67 663L2 671V693H195V671L108 663L320 56H322L539 663L452 671V693H638V671L573 663L335 0H304L67 663Z" />
<glyph unicode="W" glyph-name="W" horiz-adv-x="902" d="M66 663L4 671V693H189V671L104 663L256 69H258L436 693H462L640 69H642L793 663L708 671V693H889V671L827 663L656 0H624L449 620H447L269 0H237L66 663Z" />
<glyph unicode="X" glyph-name="X" horiz-adv-x="671" d="M22 22L98 30L313 361L119 663L43 671V693H246V671L162 663L339 387L515 663L430 671V693H626V671L551 663L358 363L574 30L650 22V0H446V22L532 30L332 337L134 30L220 22V0H22V22Z" />
<glyph unicode="Y" glyph-name="Y" horiz-adv-x="601" d="M191 22L280 30V313L70 663L8 671V693H192V671L111 663L301 344H303L493 663L412 671V693H590V671L528 663L319 313V30L408 22V0H191V22Z" />
<glyph unicode="Z" glyph-name="Z" horiz-adv-x="538" d="M23 24L464 661V664H90L73 521H48L55 693H512V669L70 32V29H465L485 168H510L501 0H23V24Z" />
<glyph unicode="[" glyph-name="bracketleft" horiz-adv-x="281" d="M75 734H243V712L111 704V-90L243 -98V-120H75V734Z" />
<glyph unicode="\" glyph-name="backslash" horiz-adv-x="313" d="M32 733H64L304 -120H272L32 733Z" />
<glyph unicode="]" glyph-name="bracketright" horiz-adv-x="281" d="M37 -98L168 -90V704L37 712V734H204V-120H37V-98Z" />
<glyph unicode="^" glyph-name="asciicircum" horiz-adv-x="362" d="M168 693H194L332 473H305L181 654L56 473H29L168 693Z" />
<glyph unicode="_" glyph-name="underscore" horiz-adv-x="298" d="M-9 -93H308V-120H-9V-93Z" />
<glyph unicode="`" glyph-name="grave" horiz-adv-x="489" d="M310 593L142 685L160 714L320 614L310 593Z" />
<glyph unicode="a" glyph-name="a" horiz-adv-x="461" d="M183 -9Q111 -9 72 27T32 126Q32 191 73 224T187 265L334 282V361Q334 428 309 455T218 483Q176 483 140 476T66 458V484Q96 496 137 506T225 516Q300 516 335 481T371 369V73Q371 41 385 31T423 20Q431
20 441 21T455 24V5Q447 1 434 -2T405 -6Q374 -6 357 10T338 55H336Q308 26 270 9T183 -9ZM193 21Q236 21 273 38T334 84V250L197 240Q127 235 99 207T70 131Q70 21 193 21Z" />
<glyph unicode="b" glyph-name="b" horiz-adv-x="522" d="M254 -8Q195 -8 150 6T74 38V701L-14 708V729L105 739L110 736V454H113Q149 480 190 498T285 516Q325 516 361 504T426 464T471 387T488 268Q488 128 425 60T254 -8ZM258 20Q301 20 336 33T397 75T435
149T449 260Q449 326 436 369T399 437T344 473T276 484Q226 484 186 467T110 427V62Q134 45 169 33T258 20Z" />
<glyph unicode="c" glyph-name="c" horiz-adv-x="451" d="M269 -8Q210 -8 166 10T92 62T47 144T32 251Q32 323 51 373T104 455T181 501T273 516Q351 516 408 494V381H383L375 471Q353 481 329 485T269 489Q227 489 191 476T128 435T86 363T71 256Q71 140 119 81T277
22Q327 22 362 33T420 57V32Q395 17 359 5T269 -8Z" />
<glyph unicode="d" glyph-name="d" horiz-adv-x="546" d="M243 -8Q203 -8 166 4T99 46T52 124T34 246Q34 316 51 367T100 451T175 500T271 516Q322 516 354 506T412 484V701L319 708V729L443 739L448 736V32L528 25V5L419 -5L414 -1V57H411Q376 30 337 11T243
-8ZM253 23Q298 23 337 42T412 84V444Q383 463 351 475T268 488Q226 488 190 476T128 435T88 362T73 252Q73 187 86 144T122 73T179 35T253 23Z" />
<glyph unicode="e" glyph-name="e" horiz-adv-x="475" d="M264 -8Q197 -8 153 12T81 68T43 152T32 255Q32 319 48 367T93 449T161 499T246 516Q341 516 392 454T443 271H70Q69 213 78 167T111 89T173 39T270 22Q328 22 364 33T426 58V34Q402 20 363 6T264 -8ZM403
300Q401 396 360 442T244 489Q166 489 122 438T71 296L403 300Z" />
<glyph unicode="f" glyph-name="f" horiz-adv-x="282" d="M16 20L96 27V478H15V498L96 508V587Q96 629 106 658T136 706T181 732T239 741Q264 741 282 737T317 726V703Q300 707 284 709T248 712Q221 712 200 706T163 686T140 647T132 585V508H268V478H132V27L226
20V0H16V20Z" />
<glyph unicode="g" glyph-name="g" horiz-adv-x="479" d="M216 -199Q163 -199 124 -189T60 -160T23 -119T11 -71Q11 -46 20 -26T44 9T78 37T119 59V61Q93 67 76 85T59 132Q59 157 73 179T111 224Q82 245 66 276T50 350Q50 387 63 417T99 469T156 503T229 515Q252
515 270 512T303 504L450 512V481L343 483Q375 463 394 431T413 355Q413 318 400 288T362 236T303 202T229 190Q172 190 131 212Q114 195 103 177T92 138Q92 118 108 103T154 88H306Q380 88 420 59T461 -30Q461 -62 447 -92T404 -146T328 -184T216 -199ZM219 -172Q276
-172 315 -160T378 -129T413 -85T424 -35Q424 13 396 34T300 55H155Q110 35 79 5T48 -66Q48 -88 57 -107T86 -141T139 -163T219 -172ZM229 216Q295 216 335 252T375 352Q375 418 335 453T229 489Q162 489 125 453T88 353Q88 287 125 252T229 216Z" />
<glyph unicode="h" glyph-name="h" horiz-adv-x="562" d="M15 20L95 27V702L8 709V730L126 740L131 737V455H133Q177 480 226 498T328 516Q398 516 434 484T470 384V27L550 20V0H352V20L434 27V373Q434 430 406 457T315 484Q266 484 220 468T131 429V27L214 20V0H15V20Z" />
<glyph unicode="i" glyph-name="i" horiz-adv-x="231" d="M15 20L98 27V473L11 480V501L129 511L134 508V27L217 20V0H15V20ZM111 635Q98 635 90 644T82 664Q82 675 90 684T111 693Q124 693 132 684T140 664Q140 653 132 644T111 635Z" />
<glyph unicode="j" glyph-name="j" horiz-adv-x="221" d="M20 -194Q3 -194 -9 -192T-36 -184V-162Q-25 -164 -14 -165T12 -167Q53 -167 77 -144T101 -64V473L14 480V501L132 511L137 508V-69Q137 -132 106 -163T20 -194ZM114 635Q101 635 93 644T85 664Q85 675
93 684T114 693Q127 693 135 684T143 664Q143 653 135 644T114 635Z" />
<glyph unicode="k" glyph-name="k" horiz-adv-x="491" d="M15 20L95 27V702L8 709V730L126 740L131 736V27L215 20V0H15V20ZM176 261V271L370 481L305 488V508H470V488L409 481L212 271L415 27L490 20V0H393L176 261Z" />
<glyph unicode="l" glyph-name="l" horiz-adv-x="231" d="M15 20L98 27V702L6 709V730L130 740L135 736V27L218 20V0H15V20Z" />
<glyph unicode="m" glyph-name="m" horiz-adv-x="866" d="M15 20L95 27V473L13 480V501L125 511L130 508V456H132Q176 482 220 499T318 516Q367 516 395 500T440 452H442Q487 478 535 497T637 516Q701 516 735 485T770 386V27L853 20V0H651V20L734 27V376Q734
433 707 458T626 484Q576 484 533 468T447 429Q449 421 450 410T451 385V27L533 20V0H332V20L415 27V375Q415 431 390 457T308 484Q256 484 215 469T131 431V27L214 20V0H15V20Z" />
<glyph unicode="n" glyph-name="n" horiz-adv-x="563" d="M15 20L95 27V473L13 480V501L125 511L130 508V454H132Q176 480 225 498T328 516Q398 516 434 484T470 384V27L550 20V0H352V20L434 27V373Q434 430 406 457T315 484Q266 484 220 468T131 429V27L214 20V0H15V20Z" />
<glyph unicode="o" glyph-name="o" horiz-adv-x="522" d="M261 -9Q216 -9 175 7T102 56T51 137T32 251Q32 315 51 364T101 447T174 498T261 516Q306 516 347 500T420 450T471 368T490 255Q490 191 471 142T421 59T348 8T261 -9ZM261 19Q298 19 332 33T392 75T435
148T451 252Q451 313 435 357T393 431T332 474T261 488Q224 488 190 474T129 431T87 358T71 254Q71 194 87 150T129 76T190 33T261 19Z" />
<glyph unicode="p" glyph-name="p" horiz-adv-x="543" d="M15 -175L94 -169V473L12 480V501L124 511L128 508V453H131Q169 480 210 498T305 516Q345 516 382 504T447 464T491 388T508 268Q508 196 492 144T445 58T373 8T278 -8Q224 -8 191 -1T130 17V-168L217
-175V-195H15V-175ZM281 20Q323 20 357 33T417 75T455 149T469 260Q469 324 456 367T419 436T364 473T294 484Q245 484 206 467T130 427V57Q158 42 191 31T281 20Z" />
<glyph unicode="q" glyph-name="q" horiz-adv-x="531" d="M326 -176L413 -169V55H410Q373 29 334 11T241 -8Q201 -8 164 4T98 46T52 123T34 241Q34 311 50 362T98 448T172 498T269 515Q328 515 369 506T449 480V-169L529 -176V-195H326V-176ZM250 23Q297 23 337
41T413 82V451Q387 465 354 476T266 488Q222 488 187 475T126 434T87 360T73 249Q73 183 86 140T122 70T178 34T250 23Z" />
<glyph unicode="r" glyph-name="r" horiz-adv-x="337" d="M15 20L95 27V473L13 480V501L125 511L130 508V440H132Q159 470 197 491T283 513Q289 513 299 512T314 509V476Q306 478 296 478T279 479Q234 479 200 462T131 411V27L218 20V0H15V20Z" />
<glyph unicode="s" glyph-name="s" horiz-adv-x="412" d="M194 -9Q143 -9 106 0T43 20L36 131H60L74 48Q97 36 127 27T196 18Q268 18 301 46T335 124Q335 173 311 196T230 235L163 254Q106 270 75 301T43 384Q43 442 84 478T203 515Q253 515 286 509T345 492L349
390H325L312 463Q294 474 268 481T200 488Q144 488 112 464T80 392Q80 372 84 356T100 327T131 304T180 286L247 267Q307 250 340 220T373 131Q373 68 329 30T194 -9Z" />
<glyph unicode="t" glyph-name="t" horiz-adv-x="304" d="M199 -7Q150 -7 120 18T89 104V478H13V498L91 508L98 630H125V508H271V478H125V112Q125 61 145 42T211 22Q231 22 248 26T283 36V15Q267 6 245 0T199 -7Z" />
<glyph unicode="u" glyph-name="u" horiz-adv-x="556" d="M232 -7Q160 -7 125 28T90 132V476L10 483V504L121 511L126 507V136Q126 79 154 52T245 25Q294 25 338 40T424 77V476L345 483V504L455 511L460 507V32L541 25V5L431 -5L426 -1V53H423Q378 27 332 10T232 -7Z" />
<glyph unicode="v" glyph-name="v" horiz-adv-x="524" d="M61 481L5 487V508H171V487L98 482L265 48H268L434 482L360 487V508H521V487L465 481L279 0H249L61 481Z" />
<glyph unicode="w" glyph-name="w" horiz-adv-x="755" d="M64 481L5 487V508H172V487L100 481L224 59H226L373 508H399L544 59H546L670 481L599 487V508H760V487L701 481L558 0H528L385 444H383L236 0H206L64 481Z" />
<glyph unicode="x" glyph-name="x" horiz-adv-x="504" d="M11 20L67 26L226 258L71 481L14 487V508H183V487L112 481L250 282H252L390 481L317 487V508H479V487L424 481L270 263L430 26L488 20V0H318V20L390 25L247 237H245L101 25L175 20V0H11V20Z" />
<glyph unicode="y" glyph-name="y" horiz-adv-x="521" d="M121 -195Q107 -195 92 -192T65 -184V-158Q90 -165 113 -165Q135 -165 151 -159T178 -140T199 -111T216 -73L250 17L62 481L5 487V508H175V487L99 481L268 60H270L431 481L356 487V508H520V487L463 481L244
-86Q235 -110 225 -130T200 -164T166 -187T121 -195Z" />
<glyph unicode="z" glyph-name="z" horiz-adv-x="446" d="M29 24L369 480V483H83L69 383H45L50 508H410V484L71 27V25H364L381 137H405L397 0H29V24Z" />
<glyph unicode="{" glyph-name="braceleft" horiz-adv-x="342" d="M304 -120Q253 -118 220 -110T166 -87T138 -52T129 -6Q129 16 133 43T143 99T153 154T158 202Q158 217 155 231T139 256T103 276T36 289V324Q78 329 102 337T139 357T154 382T158 411Q158 432
154 458T144 513T134 569T129 619Q129 644 137 664T166 699T219 722T304 733V711Q263 707 237 701T195 684T173 659T167 622Q167 602 171 576T180 522T190 467T194 416Q194 399 192 383T178 353T145 327T82 308V305Q122 297 144 286T178 261T191 230T194 197Q194
174 190 147T181 92T171 38T167 -9Q167 -31 173 -46T195 -71T237 -87T304 -98V-120Z" />
<glyph unicode="|" glyph-name="bar" horiz-adv-x="197" d="M85 733H113V-120H85V733Z" />
<glyph unicode="}" glyph-name="braceright" horiz-adv-x="342" d="M37 -98Q77 -94 103 -88T146 -71T168 -46T174 -9Q174 11 170 37T161 91T151 146T147 197Q147 214 149 230T163 260T196 286T259 305V308Q219 315 197 326T163 352T150 383T147 416Q147 439 151
466T160 521T170 575T174 622Q174 644 168 659T146 684T104 700T37 711V733Q88 731 121 723T175 700T203 665T212 619Q212 597 208 570T198 514T188 459T183 411Q183 396 186 382T202 357T238 337T305 324V289Q263 284 239 276T202 256T187 231T183 202Q183 181
187 155T197 100T207 44T212 -6Q212 -32 204 -52T175 -86T122 -109T37 -120V-98Z" />
<glyph unicode="~" glyph-name="asciitilde" horiz-adv-x="360" d="M29 263Q46 304 69 322T125 340Q141 340 156 334T187 319T217 305T244 298Q268 298 284 311T315 351L338 340Q321 298 298 281T241 264Q225 264 210 270T179 284T150 298T122 305Q99 305 83 292T52
252L29 263Z" />
<glyph unicode="&#xa0;" glyph-name="uni00A0" horiz-adv-x="195" />
<glyph unicode="&#xa1;" glyph-name="exclamdown" horiz-adv-x="193" d="M89 407H113L122 -120H80L89 407ZM101 519Q87 519 78 528T69 550Q69 563 78 572T101 581Q115 581 124 572T133 550Q133 537 124 528T101 519Z" />
<glyph unicode="&#xa2;" glyph-name="cent" horiz-adv-x="451" d="M199 -118L212 -3Q121 13 77 80T32 251Q32 321 51 371T104 453T180 501T272 516H274L282 582H311L303 515Q332 513 358 508T408 493V381H383L375 474Q358 480 341 483T300 488L244 23Q252 22 260
22T277 22Q327 22 363 34T422 58V33Q397 18 360 5T269 -8Q261 -8 255 -8T241 -7L228 -118H199ZM70 256Q70 158 104 101T216 28L271 489H268Q226 489 190 475T127 433T85 360T70 256Z" />
<glyph unicode="&#xa3;" glyph-name="sterling" horiz-adv-x="496" d="M47 330V360H124V492Q124 549 141 589T186 655T249 691T323 703Q374 703 404 695T459 672V643Q434 655 404 662T332 670Q299 670 269 662T216 633T179 578T164 491L162 360H369V330H161L160
221Q159 149 141 107T89 37V35H464L460 0H29V21Q77 50 100 94T124 211V330H47Z" />
<glyph unicode="&#xa5;" glyph-name="yen" horiz-adv-x="564" d="M96 352H263L73 663L9 671V693H195V671L114 663L298 362H300L478 663L397 671V693H569V671L512 663L327 352H496V325H315V240H496V213H315V30L404 22V0H187V22L276 30V213H96V240H276V325H96V352Z" />
<glyph unicode="&#xa6;" glyph-name="brokenbar" horiz-adv-x="200" d="M85 279H115V-120H85V279ZM85 733H115V371H85V733Z" />
<glyph unicode="&#xa7;" glyph-name="section" horiz-adv-x="476" d="M231 -126Q203 -126 182 -124T142 -118T109 -109T78 -97L69 15H93L110 -71Q133 -82 160 -90T232 -99Q291 -99 328 -72T366 7Q366 52 341 79T264 126L172 160Q142 171 116 184T71 214T40 254T29
306Q29 360 64 394T159 443Q124 463 105 492T86 566Q86 629 131 666T252 703Q297 703 326 696T382 680V577H358L350 655Q331 663 310 669T249 676Q192 676 158 650T123 573Q123 528 145 501T217 456L301 425Q331 414 357 401T404 372T435 334T447 282Q447 225 410
191T312 142Q353 121 378 90T403 15Q403 -47 357 -86T231 -126ZM193 427Q139 419 103 390T66 311Q66 263 100 237T188 190L273 158Q302 162 327 171T370 195T399 230T410 277Q410 302 401 320T374 351T334 374T284 394L200 425L193 427Z" />
<glyph unicode="&#xa8;" glyph-name="dieresis" horiz-adv-x="489" d="M313 635Q300 635 292 644T284 664Q284 675 292 684T313 693Q326 693 334 684T342 664Q342 653 334 644T313 635ZM175 635Q162 635 154 644T146 664Q146 675 154 684T175 693Q188 693 196
684T204 664Q204 653 196 644T175 635Z" />
<glyph unicode="&#xa9;" glyph-name="copyright" horiz-adv-x="797" d="M397 -11Q322 -11 258 17T146 93T72 206T45 345Q45 419 71 484T145 597T257 673T397 701Q472 701 537 673T649 597T724 484T752 345Q752 271 725 206T650 93T537 17T397 -11ZM397 13Q467
13 526 39T629 110T697 215T722 345Q722 414 698 475T630 581T527 652T397 678Q326 678 267 652T165 581T98 475T74 345Q74 276 98 216T164 110T266 39T397 13ZM407 158Q367 158 334 169T277 202T240 259T227 341Q227 393 241 430T281 491T340 526T412 537Q444
537 469 532T515 520L521 434H499L486 499Q472 506 454 509T410 513Q344 513 305 472T266 345Q266 264 302 223T409 181Q435 181 454 184T487 194L502 267H524L517 177Q495 169 468 164T407 158Z" />
<glyph unicode="&#xaa;" glyph-name="ordfeminine" horiz-adv-x="442" d="M175 230Q110 230 73 263T36 352Q36 410 73 440T179 478L312 494V563Q312 620 286 645T197 670Q159 670 126 664T67 649V673Q95 685 130 693T209 702Q348 702 348 572V308Q348 281 359
270T394 259Q402 259 410 259T423 261V242Q416 239 406 236T378 233Q352 233 335 246T315 289H313Q287 261 253 246T175 230ZM184 259Q221 259 253 273T312 317V463L187 454Q73 446 73 356Q73 310 101 285T184 259Z" />
<glyph unicode="&#xab;" glyph-name="guillemotleft" horiz-adv-x="359" d="M180 243V262L283 442H312L214 253L312 63H283L180 243ZM43 243V262L146 442H175L77 253L175 63H146L43 243Z" />
<glyph unicode="&#xae;" glyph-name="registered" horiz-adv-x="412" d="M206 335Q167 335 134 349T76 388T39 446T25 518Q25 555 38 588T76 646T133 685T206 700Q245 700 278 686T335 647T373 589T387 518Q387 480 373 447T335 388T278 349T206 335ZM206 356Q241
356 270 368T319 403T351 454T362 518Q362 551 351 580T320 632T270 667T206 680Q170 680 141 667T92 632T61 581T50 518Q50 484 61 455T92 403T141 369T206 356ZM124 444L149 447V596L124 599V614H210Q240 614 259 602T278 564Q278 542 266 530T234 513V512L275
447L300 444V430H255L208 505H177V447L200 444V430H124V444ZM212 525Q234 525 242 535T250 563Q250 581 241 588T209 595H177V525H212Z" />
<glyph unicode="&#xaf;" glyph-name="macron" horiz-adv-x="489" d="M136 676H352V649H136V676Z" />
<glyph unicode="&#xb0;" glyph-name="degree" horiz-adv-x="307" d="M156 453Q128 453 105 463T65 490T39 531T29 580Q29 605 38 628T64 668T104 695T156 706Q184 706 207 696T248 668T274 628T284 580Q284 554 275 531T248 491T208 463T156 453ZM156 477Q201
477 227 507T254 580Q254 600 247 618T228 651T197 673T156 682Q133 682 116 674T85 651T66 619T59 580Q59 538 85 508T156 477Z" />
<glyph unicode="&#xb4;" glyph-name="acute" horiz-adv-x="489" d="M163 614L323 714L341 685L173 593L163 614Z" />
<glyph unicode="&#xb6;" glyph-name="paragraph" horiz-adv-x="541" d="M302 363Q285 361 268 360T237 358Q196 358 161 368T99 399T58 452T43 529Q43 569 55 599T94 651T163 682T267 693H528V671L450 663V-120H418V665H334V-120H302V363Z" />
<glyph unicode="&#xb7;" glyph-name="periodcentered" horiz-adv-x="148" d="M74 284Q60 284 51 293T42 315Q42 328 51 337T74 346Q88 346 97 337T106 315Q106 302 97 293T74 284Z" />
<glyph unicode="&#xb8;" glyph-name="cedilla" horiz-adv-x="489" d="M210 -175Q270 -167 295 -155T321 -118Q321 -96 300 -88T232 -78V0H258V-50Q303 -52 330 -68T357 -116Q357 -149 323 -170T210 -198V-175Z" />
<glyph unicode="&#xba;" glyph-name="ordmasculine" horiz-adv-x="487" d="M244 230Q201 230 164 244T100 288T57 361T41 463Q41 521 57 565T100 640T165 686T243 702Q285 702 322 687T387 642T431 568T447 467Q447 409 431 365T387 291T322 246T244 230ZM244
256Q277 256 307 267T359 304T395 369T409 464Q409 520 396 560T360 626T307 664T243 676Q209 676 180 664T128 626T92 560T79 465Q79 409 92 370T127 305T180 268T244 256Z" />
<glyph unicode="&#xbb;" glyph-name="guillemotright" horiz-adv-x="359" d="M282 252L184 442H213L316 262V243L213 63H184L282 252ZM145 252L47 442H76L179 262V243L76 63H47L145 252Z" />
<glyph unicode="&#xbc;" glyph-name="onequarter" horiz-adv-x="730" d="M50 294V313L120 319V659L41 637V656L140 698H154V319L223 313V294H50ZM588 713H622L111 -40H77L588 713ZM532 0V19L597 25V118H402V139L602 399H628V142H697V118H628V25L689 19V0H532ZM434
142H597V353H595L434 143V142Z" />
<glyph unicode="&#xbd;" glyph-name="onehalf" horiz-adv-x="744" d="M50 294V313L120 319V659L41 637V656L140 698H154V319L223 313V294H50ZM581 713H615L104 -40H70L581 713ZM448 0V22L557 126Q603 170 630 207T657 287Q657 379 562 379Q535 379 509 371T463
353V375Q484 388 512 397T571 406Q628 406 660 377T692 290Q692 243 661 201T576 110L487 31V30H676L687 84H706L701 0H448Z" />
<glyph unicode="&#xbe;" glyph-name="threequarters" horiz-adv-x="742" d="M146 288Q108 288 81 295T34 314V335Q55 327 80 321T139 315Q194 315 220 339T247 407Q247 451 221 472T147 493H107V519H143Q185 519 209 539T234 597Q234 674 140 674Q112 674 91 669T48
655V676Q71 687 94 693T147 700Q203 700 235 676T267 603Q267 565 247 542T195 509V507Q233 500 257 476T282 406Q282 352 247 320T146 288ZM617 713H651L140 -40H106L617 713ZM544 0V19L609 25V118H414V139L614 399H640V142H709V118H640V25L701 19V0H544ZM446
142H609V353H607L446 143V142Z" />
<glyph unicode="&#xbf;" glyph-name="questiondown" horiz-adv-x="384" d="M208 -130Q176 -130 145 -122T90 -94T51 -44T36 33Q36 66 44 91T66 136T102 174T149 210Q192 239 213 264T235 325Q235 345 231 366T220 407H244Q252 390 258 368T264 320Q264 300 258
283T240 250T209 218T164 184Q122 155 98 122T73 34Q73 -4 84 -29T114 -70T159 -92T216 -99Q258 -99 289 -92T357 -69V-95Q323 -112 288 -121T208 -130ZM229 519Q215 519 206 528T197 550Q197 563 206 572T229 581Q243 581 252 572T261 550Q261 537 252 528T229
519Z" />
<glyph unicode="&#xc0;" glyph-name="Agrave" horiz-adv-x="629" d="M-4 22L62 31L299 693H332L569 31L634 22V0H442V22L529 30L459 229H166L96 30L183 22V0H-4V22ZM176 257H449L314 639H312L176 257ZM395 727L219 800L234 831L403 749L395 727Z" />
<glyph unicode="&#xc1;" glyph-name="Aacute" horiz-adv-x="629" d="M-4 22L62 31L299 693H332L569 31L634 22V0H442V22L529 30L459 229H166L96 30L183 22V0H-4V22ZM176 257H449L314 639H312L176 257ZM237 749L406 831L421 800L245 727L237 749Z" />
<glyph unicode="&#xc2;" glyph-name="Acircumflex" horiz-adv-x="629" d="M-4 22L62 31L299 693H332L569 31L634 22V0H442V22L529 30L459 229H166L96 30L183 22V0H-4V22ZM176 257H449L314 639H312L176 257ZM199 740L304 821H326L431 740L420 722L315 786L210 722L199
740Z" />
<glyph unicode="&#xc3;" glyph-name="Atilde" horiz-adv-x="629" d="M-4 22L62 31L299 693H332L569 31L634 22V0H442V22L529 30L459 229H166L96 30L183 22V0H-4V22ZM176 257H449L314 639H312L176 257ZM190 750Q216 816 264 816Q278 816 291 811T318 799T343 788T368
782Q384 782 396 791T420 823L440 814Q414 749 366 749Q352 749 339 754T312 766T287 777T262 783Q232 783 210 741L190 750Z" />
<glyph unicode="&#xc4;" glyph-name="Adieresis" horiz-adv-x="629" d="M-4 22L62 31L299 693H332L569 31L634 22V0H442V22L529 30L459 229H166L96 30L183 22V0H-4V22ZM176 257H449L314 639H312L176 257ZM387 745Q374 745 366 754T358 774Q358 785 366 794T387
803Q400 803 408 794T416 774Q416 763 408 754T387 745ZM243 745Q230 745 222 754T214 774Q214 785 222 794T243 803Q256 803 264 794T272 774Q272 763 264 754T243 745Z" />
<glyph unicode="&#xc5;" glyph-name="Aring" horiz-adv-x="629" d="M-4 22L62 31L299 693H332L569 31L634 22V0H442V22L529 30L459 229H166L96 30L183 22V0H-4V22ZM176 257H449L314 639H312L176 257ZM315 720Q280 720 258 742T236 797Q236 830 258 852T315 875Q350
875 372 853T394 797Q394 765 372 743T315 720ZM315 744Q339 744 353 759T367 797Q367 820 353 836T315 852Q291 852 277 836T263 797Q263 774 277 759T315 744Z" />
<glyph unicode="&#xc6;" glyph-name="AE" horiz-adv-x="914" d="M5 23L67 31L431 665L337 671V693H856L865 539H841L821 664H511V370H693L703 465H727V247H703L693 342H511V29H834L857 172H881L872 0H383V22L472 30V217H210L104 31L183 22V0H5V23ZM465 663L225
244H472V663H465Z" />
<glyph unicode="&#xc7;" glyph-name="Ccedilla" horiz-adv-x="601" d="M270 -175Q330 -167 355 -155T381 -118Q381 -96 360 -88T292 -78V-6Q168 11 105 100T42 347Q42 438 64 505T126 617T225 682T355 704Q429 704 471 695T544 673L550 525H526L507 645Q482 657
445 666T354 676Q217 676 150 591T83 351Q83 190 149 104T356 18Q411 18 448 28T513 51L532 174H556L550 25Q516 11 471 0T357 -11Q346 -11 337 -11T318 -9V-50Q363 -52 390 -68T417 -116Q417 -149 383 -170T270 -198V-175Z" />
<glyph unicode="&#xc8;" glyph-name="Egrave" horiz-adv-x="568" d="M27 22L116 30V663L28 671V693H512L521 539H497L477 664H155V370H348L359 465H383V247H359L348 342H155V29H490L513 172H537L528 0H27V22ZM379 727L203 800L218 831L387 749L379 727Z" />
<glyph unicode="&#xc9;" glyph-name="Eacute" horiz-adv-x="568" d="M27 22L116 30V663L28 671V693H512L521 539H497L477 664H155V370H348L359 465H383V247H359L348 342H155V29H490L513 172H537L528 0H27V22ZM221 749L390 831L405 800L229 727L221 749Z" />
<glyph unicode="&#xca;" glyph-name="Ecircumflex" horiz-adv-x="568" d="M27 22L116 30V663L28 671V693H512L521 539H497L477 664H155V370H348L359 465H383V247H359L348 342H155V29H490L513 172H537L528 0H27V22ZM183 740L288 821H310L415 740L404 722L299 786L194
722L183 740Z" />
<glyph unicode="&#xcb;" glyph-name="Edieresis" horiz-adv-x="568" d="M27 22L116 30V663L28 671V693H512L521 539H497L477 664H155V370H348L359 465H383V247H359L348 342H155V29H490L513 172H537L528 0H27V22ZM366 745Q353 745 345 754T337 774Q337 785 345
794T366 803Q379 803 387 794T395 774Q395 763 387 754T366 745ZM222 745Q209 745 201 754T193 774Q193 785 201 794T222 803Q235 803 243 794T251 774Q251 763 243 754T222 745Z" />
<glyph unicode="&#xcc;" glyph-name="Igrave" horiz-adv-x="276" d="M27 22L119 30V663L27 671V693H249V671L158 663V30L249 22V0H27V22ZM475 727L299 800L314 831L483 749L475 727Z" />
<glyph unicode="&#xcd;" glyph-name="Iacute" horiz-adv-x="276" d="M27 22L119 30V663L27 671V693H249V671L158 663V30L249 22V0H27V22ZM317 749L486 831L501 800L325 727L317 749Z" />
<glyph unicode="&#xce;" glyph-name="Icircumflex" horiz-adv-x="276" d="M27 22L119 30V663L27 671V693H249V671L158 663V30L249 22V0H27V22ZM279 740L384 821H406L511 740L500 722L395 786L290 722L279 740Z" />
<glyph unicode="&#xcf;" glyph-name="Idieresis" horiz-adv-x="276" d="M27 22L119 30V663L27 671V693H249V671L158 663V30L249 22V0H27V22ZM467 745Q454 745 446 754T438 774Q438 785 446 794T467 803Q480 803 488 794T496 774Q496 763 488 754T467 745ZM323
745Q310 745 302 754T294 774Q294 785 302 794T323 803Q336 803 344 794T352 774Q352 763 344 754T323 745Z" />
<glyph unicode="&#xd0;" glyph-name="Eth" horiz-adv-x="655" d="M23 363H113V663L25 671V693H277Q370 693 433 671T536 605T593 498T610 354Q610 269 593 203T537 92T436 24T286 0H24V22L113 30V333H23V363ZM283 29Q357 29 411 47T500 103T552 202T569 348Q569
438 552 498T498 595T406 648T274 664H152V363H337V333H152V29H283Z" />
<glyph unicode="&#xd1;" glyph-name="Ntilde" horiz-adv-x="699" d="M27 22L116 30V663L27 671V693H172L559 69H561V663L466 671V693H676V671L594 663V0H559L151 659H149V30L249 22V0H27V22ZM237 750Q263 816 311 816Q325 816 338 811T365 799T390 788T415 782Q431
782 443 791T467 823L487 814Q461 749 413 749Q399 749 386 754T359 766T334 777T309 783Q279 783 257 741L237 750Z" />
<glyph unicode="&#xd2;" glyph-name="Ograve" horiz-adv-x="681" d="M337 -10Q272 -10 218 13T125 82T64 194T42 347Q42 435 65 502T128 613T222 680T338 703Q402 703 456 680T550 611T611 500T633 348Q633 259 610 192T547 80T453 13T337 -10ZM337 18Q394 18
440 39T521 101T573 202T592 342Q592 427 573 489T521 593T440 655T337 675Q280 675 234 654T154 592T102 491T83 351Q83 269 101 207T152 102T232 39T337 18ZM417 727L241 800L256 831L425 749L417 727Z" />
<glyph unicode="&#xd3;" glyph-name="Oacute" horiz-adv-x="681" d="M337 -10Q272 -10 218 13T125 82T64 194T42 347Q42 435 65 502T128 613T222 680T338 703Q402 703 456 680T550 611T611 500T633 348Q633 259 610 192T547 80T453 13T337 -10ZM337 18Q394 18
440 39T521 101T573 202T592 342Q592 427 573 489T521 593T440 655T337 675Q280 675 234 654T154 592T102 491T83 351Q83 269 101 207T152 102T232 39T337 18ZM259 749L428 831L443 800L267 727L259 749Z" />
<glyph unicode="&#xd4;" glyph-name="Ocircumflex" horiz-adv-x="681" d="M337 -10Q272 -10 218 13T125 82T64 194T42 347Q42 435 65 502T128 613T222 680T338 703Q402 703 456 680T550 611T611 500T633 348Q633 259 610 192T547 80T453 13T337 -10ZM337 18Q394
18 440 39T521 101T573 202T592 342Q592 427 573 489T521 593T440 655T337 675Q280 675 234 654T154 592T102 491T83 351Q83 269 101 207T152 102T232 39T337 18ZM221 740L326 821H348L453 740L442 722L337 786L232 722L221 740Z" />
<glyph unicode="&#xd5;" glyph-name="Otilde" horiz-adv-x="681" d="M337 -10Q272 -10 218 13T125 82T64 194T42 347Q42 435 65 502T128 613T222 680T338 703Q402 703 456 680T550 611T611 500T633 348Q633 259 610 192T547 80T453 13T337 -10ZM337 18Q394 18
440 39T521 101T573 202T592 342Q592 427 573 489T521 593T440 655T337 675Q280 675 234 654T154 592T102 491T83 351Q83 269 101 207T152 102T232 39T337 18ZM212 750Q238 816 286 816Q300 816 313 811T340 799T365 788T390 782Q406 782 418 791T442 823L462 814Q436
749 388 749Q374 749 361 754T334 766T309 777T284 783Q254 783 232 741L212 750Z" />
<glyph unicode="&#xd6;" glyph-name="Odieresis" horiz-adv-x="681" d="M337 -10Q272 -10 218 13T125 82T64 194T42 347Q42 435 65 502T128 613T222 680T338 703Q402 703 456 680T550 611T611 500T633 348Q633 259 610 192T547 80T453 13T337 -10ZM337 18Q394
18 440 39T521 101T573 202T592 342Q592 427 573 489T521 593T440 655T337 675Q280 675 234 654T154 592T102 491T83 351Q83 269 101 207T152 102T232 39T337 18ZM409 745Q396 745 388 754T380 774Q380 785 388 794T409 803Q422 803 430 794T438 774Q438 763 430
754T409 745ZM265 745Q252 745 244 754T236 774Q236 785 244 794T265 803Q278 803 286 794T294 774Q294 763 286 754T265 745Z" />
<glyph unicode="&#xd7;" glyph-name="multiply" horiz-adv-x="487" d="M80 200L224 348L80 496L99 516L243 367L387 516L406 496L262 348L406 200L387 180L243 328L99 180L80 200Z" />
<glyph unicode="&#xd8;" glyph-name="Oslash" horiz-adv-x="681" d="M337 -10Q274 -10 221 12T129 78L59 -8L37 10L110 101Q78 146 60 207T42 347Q42 435 65 502T128 613T222 680T338 703Q397 703 447 684T536 626L595 700L617 682L555 605Q592 560 612 496T633
348Q633 259 610 192T547 80T453 13T337 -10ZM337 18Q394 18 440 39T521 101T573 202T592 342Q592 420 577 478T533 579L149 104Q215 18 337 18ZM83 351Q83 212 132 128L516 602Q483 639 438 657T337 675Q280 675 234 654T154 592T102 491T83 351Z" />
<glyph unicode="&#xd9;" glyph-name="Ugrave" horiz-adv-x="678" d="M349 -11Q229 -11 166 46T102 215V663L17 671V693H235V671L141 663V218Q141 115 194 67T349 19Q450 19 499 66T548 216V663L458 671V693H662V671L581 663V217Q581 107 524 48T349 -11ZM435 727L259
800L274 831L443 749L435 727Z" />
<glyph unicode="&#xda;" glyph-name="Uacute" horiz-adv-x="678" d="M349 -11Q229 -11 166 46T102 215V663L17 671V693H235V671L141 663V218Q141 115 194 67T349 19Q450 19 499 66T548 216V663L458 671V693H662V671L581 663V217Q581 107 524 48T349 -11ZM277 749L446
831L461 800L285 727L277 749Z" />
<glyph unicode="&#xdb;" glyph-name="Ucircumflex" horiz-adv-x="678" d="M349 -11Q229 -11 166 46T102 215V663L17 671V693H235V671L141 663V218Q141 115 194 67T349 19Q450 19 499 66T548 216V663L458 671V693H662V671L581 663V217Q581 107 524 48T349 -11ZM239
740L344 821H366L471 740L460 722L355 786L250 722L239 740Z" />
<glyph unicode="&#xdc;" glyph-name="Udieresis" horiz-adv-x="678" d="M349 -11Q229 -11 166 46T102 215V663L17 671V693H235V671L141 663V218Q141 115 194 67T349 19Q450 19 499 66T548 216V663L458 671V693H662V671L581 663V217Q581 107 524 48T349 -11ZM427
745Q414 745 406 754T398 774Q398 785 406 794T427 803Q440 803 448 794T456 774Q456 763 448 754T427 745ZM283 745Q270 745 262 754T254 774Q254 785 262 794T283 803Q296 803 304 794T312 774Q312 763 304 754T283 745Z" />
<glyph unicode="&#xdd;" glyph-name="Yacute" horiz-adv-x="601" d="M191 22L280 30V313L70 663L8 671V693H192V671L111 663L301 344H303L493 663L412 671V693H590V671L528 663L319 313V30L408 22V0H191V22ZM225 749L394 831L409 800L233 727L225 749Z" />
<glyph unicode="&#xde;" glyph-name="Thorn" horiz-adv-x="539" d="M27 22L116 30V663L27 671V693H250V671L155 663V549H282Q347 549 390 536T460 499T498 442T509 366Q509 320 494 286T451 230T386 196T303 185Q271 185 248 187T208 194V218Q225 215 246 214T297
213Q382 213 425 252T469 364Q469 402 460 431T430 479T374 509T285 519H155V30L256 22V0H27V22Z" />
<glyph unicode="&#xdf;" glyph-name="germandbls" horiz-adv-x="548" d="M355 -9Q287 -9 229 12L223 107H247L260 39Q279 29 302 24T355 18Q419 18 448 47T478 119Q478 142 471 158T451 188T421 211T384 232L337 258Q319 269 304 279T277 301T259 327T253 360Q253
394 279 426T336 489T394 552T420 619Q420 668 385 691T297 714Q219 714 175 674T131 555V0H15V20L95 27V478H14V498L95 508V560Q95 601 110 634T152 691T216 728T297 741Q330 741 359 733T410 710T444 673T457 621Q457 595 445 572T413 526T373 484T332 443T301
404T288 366Q288 343 302 328T350 293L397 267Q420 254 441 242T478 213T505 176T515 123Q515 97 505 73T476 31T426 2T355 -9Z" />
<glyph unicode="&#xe0;" glyph-name="agrave" horiz-adv-x="461" d="M183 -9Q111 -9 72 27T32 126Q32 191 73 224T187 265L334 282V361Q334 428 309 455T218 483Q176 483 140 476T66 458V484Q96 496 137 506T225 516Q300 516 335 481T371 369V73Q371 41 385 31T423
20Q431 20 441 21T455 24V5Q447 1 434 -2T405 -6Q374 -6 357 10T338 55H336Q308 26 270 9T183 -9ZM193 21Q236 21 273 38T334 84V250L197 240Q127 235 99 207T70 131Q70 21 193 21ZM549 593L381 685L399 714L559 614L549 593Z" />
<glyph unicode="&#xe1;" glyph-name="aacute" horiz-adv-x="461" d="M183 -9Q111 -9 72 27T32 126Q32 191 73 224T187 265L334 282V361Q334 428 309 455T218 483Q176 483 140 476T66 458V484Q96 496 137 506T225 516Q300 516 335 481T371 369V73Q371 41 385 31T423
20Q431 20 441 21T455 24V5Q447 1 434 -2T405 -6Q374 -6 357 10T338 55H336Q308 26 270 9T183 -9ZM193 21Q236 21 273 38T334 84V250L197 240Q127 235 99 207T70 131Q70 21 193 21ZM411 614L571 714L589 685L421 593L411 614Z" />
<glyph unicode="&#xe2;" glyph-name="acircumflex" horiz-adv-x="461" d="M183 -9Q111 -9 72 27T32 126Q32 191 73 224T187 265L334 282V361Q334 428 309 455T218 483Q176 483 140 476T66 458V484Q96 496 137 506T225 516Q300 516 335 481T371 369V73Q371 41 385
31T423 20Q431 20 441 21T455 24V5Q447 1 434 -2T405 -6Q374 -6 357 10T338 55H336Q308 26 270 9T183 -9ZM193 21Q236 21 273 38T334 84V250L197 240Q127 235 99 207T70 131Q70 21 193 21ZM363 616L472 721H494L603 616L589 601L483 687L377 601L363 616Z" />
<glyph unicode="&#xe3;" glyph-name="atilde" horiz-adv-x="461" d="M183 -9Q111 -9 72 27T32 126Q32 191 73 224T187 265L334 282V361Q334 428 309 455T218 483Q176 483 140 476T66 458V484Q96 496 137 506T225 516Q300 516 335 481T371 369V73Q371 41 385 31T423
20Q431 20 441 21T455 24V5Q447 1 434 -2T405 -6Q374 -6 357 10T338 55H336Q308 26 270 9T183 -9ZM193 21Q236 21 273 38T334 84V250L197 240Q127 235 99 207T70 131Q70 21 193 21ZM358 630Q384 696 432 696Q446 696 459 691T486 679T511 668T536 662Q552 662 564
671T588 703L608 694Q582 629 534 629Q520 629 507 634T480 646T455 657T430 663Q400 663 378 621L358 630Z" />
<glyph unicode="&#xe4;" glyph-name="adieresis" horiz-adv-x="461" d="M183 -9Q111 -9 72 27T32 126Q32 191 73 224T187 265L334 282V361Q334 428 309 455T218 483Q176 483 140 476T66 458V484Q96 496 137 506T225 516Q300 516 335 481T371 369V73Q371 41 385
31T423 20Q431 20 441 21T455 24V5Q447 1 434 -2T405 -6Q374 -6 357 10T338 55H336Q308 26 270 9T183 -9ZM193 21Q236 21 273 38T334 84V250L197 240Q127 235 99 207T70 131Q70 21 193 21ZM550 635Q537 635 529 644T521 664Q521 675 529 684T550 693Q563 693 571
684T579 664Q579 653 571 644T550 635ZM412 635Q399 635 391 644T383 664Q383 675 391 684T412 693Q425 693 433 684T441 664Q441 653 433 644T412 635Z" />
<glyph unicode="&#xe5;" glyph-name="aring" horiz-adv-x="461" d="M183 -9Q111 -9 72 27T32 126Q32 191 73 224T187 265L334 282V361Q334 428 309 455T218 483Q176 483 140 476T66 458V484Q96 496 137 506T225 516Q300 516 335 481T371 369V73Q371 41 385 31T423
20Q431 20 441 21T455 24V5Q447 1 434 -2T405 -6Q374 -6 357 10T338 55H336Q308 26 270 9T183 -9ZM193 21Q236 21 273 38T334 84V250L197 240Q127 235 99 207T70 131Q70 21 193 21ZM479 590Q444 590 422 612T400 667Q400 700 422 722T479 745Q514 745 536 723T558
667Q558 635 536 613T479 590ZM479 614Q503 614 517 629T531 667Q531 690 517 706T479 722Q455 722 441 706T427 667Q427 644 441 629T479 614Z" />
<glyph unicode="&#xe6;" glyph-name="ae" horiz-adv-x="773" d="M182 -9Q110 -9 71 29T31 129Q31 194 72 229T186 272L333 289V361Q333 394 327 417T307 455T269 476T210 483Q169 483 137 477T65 458V484Q95 496 136 506T224 516Q291 516 325 488T365 399Q392
456 439 486T547 516Q642 516 693 453T744 264H371Q370 209 379 164T412 88T474 39T571 22Q629 22 665 33T727 58V34Q703 20 664 6T565 -8Q490 -8 444 17T371 86Q358 68 339 51T296 21T243 -1T182 -9ZM359 110Q345 142 339 178T333 257L196 247Q126 242 98 212T69
134Q69 79 100 50T192 21Q244 21 288 46T359 110ZM704 293Q702 394 661 441T545 489Q467 489 423 437T372 289L704 293Z" />
<glyph unicode="&#xe7;" glyph-name="ccedilla" horiz-adv-x="451" d="M175 -175Q235 -167 260 -155T286 -118Q286 -96 265 -88T197 -78V0Q114 20 73 86T32 251Q32 323 51 373T104 455T181 501T273 516Q351 516 408 494V381H383L375 471Q353 481 329 485T269 489Q227
489 191 476T128 435T86 363T71 256Q71 140 119 81T277 22Q327 22 362 33T420 57V32Q395 17 359 5T269 -8Q244 -8 223 -5V-50Q268 -52 295 -68T322 -116Q322 -149 288 -170T175 -198V-175Z" />
<glyph unicode="&#xe8;" glyph-name="egrave" horiz-adv-x="475" d="M264 -8Q197 -8 153 12T81 68T43 152T32 255Q32 319 48 367T93 449T161 499T246 516Q341 516 392 454T443 271H70Q69 213 78 167T111 89T173 39T270 22Q328 22 364 33T426 58V34Q402 20 363
6T264 -8ZM403 300Q401 396 360 442T244 489Q166 489 122 438T71 296L403 300ZM313 593L145 685L163 714L323 614L313 593Z" />
<glyph unicode="&#xe9;" glyph-name="eacute" horiz-adv-x="475" d="M264 -8Q197 -8 153 12T81 68T43 152T32 255Q32 319 48 367T93 449T161 499T246 516Q341 516 392 454T443 271H70Q69 213 78 167T111 89T173 39T270 22Q328 22 364 33T426 58V34Q402 20 363
6T264 -8ZM403 300Q401 396 360 442T244 489Q166 489 122 438T71 296L403 300ZM175 614L335 714L353 685L185 593L175 614Z" />
<glyph unicode="&#xea;" glyph-name="ecircumflex" horiz-adv-x="475" d="M264 -8Q197 -8 153 12T81 68T43 152T32 255Q32 319 48 367T93 449T161 499T246 516Q341 516 392 454T443 271H70Q69 213 78 167T111 89T173 39T270 22Q328 22 364 33T426 58V34Q402 20
363 6T264 -8ZM403 300Q401 396 360 442T244 489Q166 489 122 438T71 296L403 300ZM127 616L236 721H258L367 616L353 601L247 687L141 601L127 616Z" />
<glyph unicode="&#xeb;" glyph-name="edieresis" horiz-adv-x="475" d="M264 -8Q197 -8 153 12T81 68T43 152T32 255Q32 319 48 367T93 449T161 499T246 516Q341 516 392 454T443 271H70Q69 213 78 167T111 89T173 39T270 22Q328 22 364 33T426 58V34Q402 20 363
6T264 -8ZM403 300Q401 396 360 442T244 489Q166 489 122 438T71 296L403 300ZM316 635Q303 635 295 644T287 664Q287 675 295 684T316 693Q329 693 337 684T345 664Q345 653 337 644T316 635ZM178 635Q165 635 157 644T149 664Q149 675 157 684T178 693Q191 693
199 684T207 664Q207 653 199 644T178 635Z" />
<glyph unicode="&#xec;" glyph-name="igrave" horiz-adv-x="231" d="M15 20L98 27V473L11 480V501L130 511L135 508V27L218 20V0H15V20ZM181 593L13 685L31 714L191 614L181 593Z" />
<glyph unicode="&#xed;" glyph-name="iacute" horiz-adv-x="231" d="M15 20L98 27V473L11 480V501L130 511L135 508V27L218 20V0H15V20ZM299 614L459 714L477 685L309 593L299 614Z" />
<glyph unicode="&#xee;" glyph-name="icircumflex" horiz-adv-x="231" d="M15 20L98 27V473L11 480V501L130 511L135 508V27L218 20V0H15V20ZM-5 616L104 721H126L235 616L221 601L115 687L9 601L-5 616Z" />
<glyph unicode="&#xef;" glyph-name="idieresis" horiz-adv-x="231" d="M15 20L98 27V473L11 480V501L130 511L135 508V27L218 20V0H15V20ZM184 635Q171 635 163 644T155 664Q155 675 163 684T184 693Q197 693 205 684T213 664Q213 653 205 644T184 635ZM46 635Q33
635 25 644T17 664Q17 675 25 684T46 693Q59 693 67 684T75 664Q75 653 67 644T46 635Z" />
<glyph unicode="&#xf0;" glyph-name="eth" horiz-adv-x="522" d="M304 651Q385 586 435 494T485 277Q485 203 468 149T421 60T349 8T259 -9Q209 -9 168 9T96 60T49 143T32 254Q32 317 50 365T99 447T171 498T259 516Q314 516 349 501T407 469H410Q357 569 271
637L138 582L128 605L248 655Q222 674 192 690T129 724L140 747Q178 730 213 711T281 668L388 713L399 691L304 651ZM260 18Q300 18 334 31T393 74T432 152T446 271Q446 313 442 350T428 419Q398 451 357 469T263 488Q223 488 188 474T127 432T86 360T71 256Q71
197 85 153T125 78T184 33T260 18Z" />
<glyph unicode="&#xf1;" glyph-name="ntilde" horiz-adv-x="563" d="M15 20L95 27V473L13 480V501L125 511L130 508V454H132Q176 480 225 498T328 516Q398 516 434 484T470 384V27L550 20V0H352V20L434 27V373Q434 430 406 457T315 484Q266 484 220 468T131 429V27L214
20V0H15V20ZM157 630Q183 696 231 696Q245 696 258 691T285 679T310 668T335 662Q351 662 363 671T387 703L407 694Q381 629 333 629Q319 629 306 634T279 646T254 657T229 663Q199 663 177 621L157 630Z" />
<glyph unicode="&#xf2;" glyph-name="ograve" horiz-adv-x="522" d="M261 -9Q216 -9 175 7T102 56T51 137T32 251Q32 315 51 364T101 447T174 498T261 516Q306 516 347 500T420 450T471 368T490 255Q490 191 471 142T421 59T348 8T261 -9ZM261 19Q298 19 332 33T392
75T435 148T451 252Q451 313 435 357T393 431T332 474T261 488Q224 488 190 474T129 431T87 358T71 254Q71 194 87 150T129 76T190 33T261 19ZM327 593L159 685L177 714L337 614L327 593Z" />
<glyph unicode="&#xf3;" glyph-name="oacute" horiz-adv-x="522" d="M261 -9Q216 -9 175 7T102 56T51 137T32 251Q32 315 51 364T101 447T174 498T261 516Q306 516 347 500T420 450T471 368T490 255Q490 191 471 142T421 59T348 8T261 -9ZM261 19Q298 19 332 33T392
75T435 148T451 252Q451 313 435 357T393 431T332 474T261 488Q224 488 190 474T129 431T87 358T71 254Q71 194 87 150T129 76T190 33T261 19ZM189 614L349 714L367 685L199 593L189 614Z" />
<glyph unicode="&#xf4;" glyph-name="ocircumflex" horiz-adv-x="522" d="M261 -9Q216 -9 175 7T102 56T51 137T32 251Q32 315 51 364T101 447T174 498T261 516Q306 516 347 500T420 450T471 368T490 255Q490 191 471 142T421 59T348 8T261 -9ZM261 19Q298 19
332 33T392 75T435 148T451 252Q451 313 435 357T393 431T332 474T261 488Q224 488 190 474T129 431T87 358T71 254Q71 194 87 150T129 76T190 33T261 19ZM141 616L250 721H272L381 616L367 601L261 687L155 601L141 616Z" />
<glyph unicode="&#xf5;" glyph-name="otilde" horiz-adv-x="522" d="M261 -9Q216 -9 175 7T102 56T51 137T32 251Q32 315 51 364T101 447T174 498T261 516Q306 516 347 500T420 450T471 368T490 255Q490 191 471 142T421 59T348 8T261 -9ZM261 19Q298 19 332 33T392
75T435 148T451 252Q451 313 435 357T393 431T332 474T261 488Q224 488 190 474T129 431T87 358T71 254Q71 194 87 150T129 76T190 33T261 19ZM136 630Q162 696 210 696Q224 696 237 691T264 679T289 668T314 662Q330 662 342 671T366 703L386 694Q360 629 312
629Q298 629 285 634T258 646T233 657T208 663Q178 663 156 621L136 630Z" />
<glyph unicode="&#xf6;" glyph-name="odieresis" horiz-adv-x="522" d="M261 -9Q216 -9 175 7T102 56T51 137T32 251Q32 315 51 364T101 447T174 498T261 516Q306 516 347 500T420 450T471 368T490 255Q490 191 471 142T421 59T348 8T261 -9ZM261 19Q298 19 332
33T392 75T435 148T451 252Q451 313 435 357T393 431T332 474T261 488Q224 488 190 474T129 431T87 358T71 254Q71 194 87 150T129 76T190 33T261 19ZM330 635Q317 635 309 644T301 664Q301 675 309 684T330 693Q343 693 351 684T359 664Q359 653 351 644T330 635ZM192
635Q179 635 171 644T163 664Q163 675 171 684T192 693Q205 693 213 684T221 664Q221 653 213 644T192 635Z" />
<glyph unicode="&#xf7;" glyph-name="divide" horiz-adv-x="495" d="M61 364H434V335H61V364ZM247 183Q233 183 224 192T215 214Q215 227 224 236T247 245Q261 245 270 236T279 214Q279 201 270 192T247 183ZM247 455Q233 455 224 464T215 486Q215 499 224 508T247
517Q261 517 270 508T279 486Q279 473 270 464T247 455Z" />
<glyph unicode="&#xf8;" glyph-name="oslash" horiz-adv-x="522" d="M261 -9Q216 -9 176 6T104 54L45 -15L23 2L85 75Q60 107 46 150T32 251Q32 315 51 364T101 447T174 498T261 516Q303 516 342 501T413 457L463 515L484 498L431 437Q458 404 474 359T490 255Q490
191 471 142T421 59T348 8T261 -9ZM261 19Q298 19 332 33T392 75T435 148T451 252Q451 303 440 342T409 410L126 80Q152 49 187 34T261 19ZM71 254Q71 206 81 169T109 102L392 432Q366 461 332 474T261 488Q224 488 190 474T129 431T87 358T71 254Z" />
<glyph unicode="&#xf9;" glyph-name="ugrave" horiz-adv-x="556" d="M232 -7Q160 -7 125 28T90 132V476L10 483V504L121 511L126 507V136Q126 79 154 52T245 25Q294 25 338 40T424 77V476L345 483V504L455 511L460 507V32L541 25V5L431 -5L426 -1V53H423Q378 27
332 10T232 -7ZM334 593L166 685L184 714L344 614L334 593Z" />
<glyph unicode="&#xfa;" glyph-name="uacute" horiz-adv-x="556" d="M232 -7Q160 -7 125 28T90 132V476L10 483V504L121 511L126 507V136Q126 79 154 52T245 25Q294 25 338 40T424 77V476L345 483V504L455 511L460 507V32L541 25V5L431 -5L426 -1V53H423Q378 27
332 10T232 -7ZM196 614L356 714L374 685L206 593L196 614Z" />
<glyph unicode="&#xfb;" glyph-name="ucircumflex" horiz-adv-x="556" d="M232 -7Q160 -7 125 28T90 132V476L10 483V504L121 511L126 507V136Q126 79 154 52T245 25Q294 25 338 40T424 77V476L345 483V504L455 511L460 507V32L541 25V5L431 -5L426 -1V53H423Q378
27 332 10T232 -7ZM148 616L257 721H279L388 616L374 601L268 687L162 601L148 616Z" />
<glyph unicode="&#xfc;" glyph-name="udieresis" horiz-adv-x="556" d="M232 -7Q160 -7 125 28T90 132V476L10 483V504L121 511L126 507V136Q126 79 154 52T245 25Q294 25 338 40T424 77V476L345 483V504L455 511L460 507V32L541 25V5L431 -5L426 -1V53H423Q378
27 332 10T232 -7ZM337 635Q324 635 316 644T308 664Q308 675 316 684T337 693Q350 693 358 684T366 664Q366 653 358 644T337 635ZM199 635Q186 635 178 644T170 664Q170 675 178 684T199 693Q212 693 220 684T228 664Q228 653 220 644T199 635Z" />
<glyph unicode="&#xfd;" glyph-name="yacute" horiz-adv-x="521" d="M121 -195Q107 -195 92 -192T65 -184V-158Q90 -165 113 -165Q135 -165 151 -159T178 -140T199 -111T216 -73L250 17L62 481L5 487V508H175V487L99 481L268 60H270L431 481L356 487V508H520V487L463
481L244 -86Q235 -110 225 -130T200 -164T166 -187T121 -195ZM198 614L358 714L376 685L208 593L198 614Z" />
<glyph unicode="&#xfe;" glyph-name="thorn" horiz-adv-x="540" d="M11 -175L90 -169V701L3 708V729L120 739L125 736V453H128Q166 480 207 498T302 516Q342 516 379 504T444 464T488 388T505 268Q505 195 489 143T444 58T372 8T278 -8Q224 -8 189 0T127 20V-168L214
-175V-195H11V-175ZM281 20Q323 20 357 33T416 75T453 149T467 260Q467 324 454 367T416 436T359 472T286 483Q241 483 202 467T127 427V57Q155 42 190 31T281 20Z" />
<glyph unicode="&#xff;" glyph-name="ydieresis" horiz-adv-x="521" d="M121 -195Q107 -195 92 -192T65 -184V-158Q90 -165 113 -165Q135 -165 151 -159T178 -140T199 -111T216 -73L250 17L62 481L5 487V508H175V487L99 481L268 60H270L431 481L356 487V508H520V487L463
481L244 -86Q235 -110 225 -130T200 -164T166 -187T121 -195ZM339 635Q326 635 318 644T310 664Q310 675 318 684T339 693Q352 693 360 684T368 664Q368 653 360 644T339 635ZM201 635Q188 635 180 644T172 664Q172 675 180 684T201 693Q214 693 222 684T230 664Q230
653 222 644T201 635Z" />
<glyph unicode="&#x100;" glyph-name="Amacron" horiz-adv-x="629" d="M-4 22L62 31L299 693H332L569 31L634 22V0H442V22L529 30L459 229H166L96 30L183 22V0H-4V22ZM176 257H449L314 639H312L176 257ZM207 778H423V751H207V778Z" />
<glyph unicode="&#x101;" glyph-name="amacron" horiz-adv-x="461" d="M367 676H583V649H367V676ZM183 -9Q111 -9 72 27T32 126Q32 191 73 224T187 265L334 282V361Q334 428 309 455T218 483Q176 483 140 476T66 458V484Q96 496 137 506T225 516Q300 516 335 481T371
369V73Q371 41 385 31T423 20Q431 20 441 21T455 24V5Q447 1 434 -2T405 -6Q374 -6 357 10T338 55H336Q308 26 270 9T183 -9ZM193 21Q236 21 273 38T334 84V250L197 240Q127 235 99 207T70 131Q70 21 193 21Z" />
<glyph unicode="&#x102;" glyph-name="Abreve" horiz-adv-x="629" d="M315 734Q292 734 272 741T237 762T213 792T200 829H226Q233 802 256 783T315 764Q350 764 373 783T404 829H430Q427 809 418 792T393 762T358 742T315 734ZM-4 22L62 31L299 693H332L569 31L634
22V0H442V22L529 30L459 229H166L96 30L183 22V0H-4V22ZM176 257H449L314 639H312L176 257Z" />
<glyph unicode="&#x103;" glyph-name="abreve" horiz-adv-x="461" d="M183 -9Q111 -9 72 27T32 126Q32 191 73 224T187 265L334 282V361Q334 428 309 455T218 483Q176 483 140 476T66 458V484Q96 496 137 506T225 516Q300 516 335 481T371 369V73Q371 41 385 31T423
20Q431 20 441 21T455 24V5Q447 1 434 -2T405 -6Q374 -6 357 10T338 55H336Q308 26 270 9T183 -9ZM193 21Q236 21 273 38T334 84V250L197 240Q127 235 99 207T70 131Q70 21 193 21ZM480 604Q435 604 402 633T363 709H389Q396 674 420 654T480 634Q515 634 539 654T571
709H597Q592 662 559 633T480 604Z" />
<glyph unicode="&#x104;" glyph-name="Aogonek" horiz-adv-x="629" d="M536 -198Q493 -198 472 -178T451 -125Q451 -106 459 -88T479 -53T505 -23T532 0H442V22L529 30L459 229H166L96 30L183 22V0H-4V22L62 31L299 693H332L569 31L634 22V0H571Q537 -27 512 -58T486
-123Q486 -147 499 -159T545 -172Q557 -172 566 -171T583 -168V-190Q574 -193 564 -195T536 -198ZM176 257H449L314 639H312L176 257Z" />
<glyph unicode="&#x105;" glyph-name="aogonek" horiz-adv-x="461" d="M390 -198Q347 -198 326 -178T305 -125Q305 -106 312 -88T332 -54T358 -25T385 -3Q364 2 352 17T338 55H336Q308 26 270 9T183 -9Q111 -9 72 27T32 126Q32 191 73 224T187 265L334 282V361Q334
428 309 455T218 483Q176 483 140 476T66 458V484Q96 496 137 506T225 516Q300 516 335 481T371 369V73Q371 41 385 31T423 20Q431 20 441 21T455 24V4Q435 -1 415 -13T378 -43T351 -81T340 -123Q340 -147 353 -159T399 -172Q411 -172 420 -171T437 -168V-190Q428
-193 418 -195T390 -198ZM193 21Q236 21 273 38T334 84V250L197 240Q127 235 99 207T70 131Q70 21 193 21Z" />
<glyph unicode="&#x106;" glyph-name="Cacute" horiz-adv-x="601" d="M357 -11Q202 -11 122 79T42 347Q42 438 64 505T126 617T225 682T355 704Q429 704 471 695T544 673L550 525H526L507 645Q482 657 445 666T354 676Q217 676 150 591T83 351Q83 190 149 104T356
18Q411 18 448 28T513 51L532 174H556L550 25Q516 11 471 0T357 -11ZM267 749L436 831L451 800L275 727L267 749Z" />
<glyph unicode="&#x107;" glyph-name="cacute" horiz-adv-x="451" d="M269 -8Q210 -8 166 10T92 62T47 144T32 251Q32 323 51 373T104 455T181 501T273 516Q351 516 408 494V381H383L375 471Q353 481 329 485T269 489Q227 489 191 476T128 435T86 363T71 256Q71
140 119 81T277 22Q327 22 362 33T420 57V32Q395 17 359 5T269 -8ZM185 614L345 714L363 685L195 593L185 614Z" />
<glyph unicode="&#x108;" glyph-name="Ccircumflex" horiz-adv-x="601" d="M229 740L334 821H356L461 740L450 722L345 786L240 722L229 740ZM357 -11Q202 -11 122 79T42 347Q42 438 64 505T126 617T225 682T355 704Q429 704 471 695T544 673L550 525H526L507
645Q482 657 445 666T354 676Q217 676 150 591T83 351Q83 190 149 104T356 18Q411 18 448 28T513 51L532 174H556L550 25Q516 11 471 0T357 -11Z" />
<glyph unicode="&#x109;" glyph-name="ccircumflex" horiz-adv-x="451" d="M269 -8Q210 -8 166 10T92 62T47 144T32 251Q32 323 51 373T104 455T181 501T273 516Q351 516 408 494V381H383L375 471Q353 481 329 485T269 489Q227 489 191 476T128 435T86 363T71
256Q71 140 119 81T277 22Q327 22 362 33T420 57V32Q395 17 359 5T269 -8ZM137 616L246 721H268L377 616L363 601L257 687L151 601L137 616Z" />
<glyph unicode="&#x10a;" glyph-name="Cdotaccent" horiz-adv-x="601" d="M345 745Q332 745 324 754T316 774Q316 785 324 794T345 803Q358 803 366 794T374 774Q374 763 366 754T345 745ZM357 -11Q202 -11 122 79T42 347Q42 438 64 505T126 617T225 682T355 704Q429
704 471 695T544 673L550 525H526L507 645Q482 657 445 666T354 676Q217 676 150 591T83 351Q83 190 149 104T356 18Q411 18 448 28T513 51L532 174H556L550 25Q516 11 471 0T357 -11Z" />
<glyph unicode="&#x10b;" glyph-name="cdotaccent" horiz-adv-x="451" d="M269 -8Q210 -8 166 10T92 62T47 144T32 251Q32 323 51 373T104 455T181 501T273 516Q351 516 408 494V381H383L375 471Q353 481 329 485T269 489Q227 489 191 476T128 435T86 363T71 256Q71
140 119 81T277 22Q327 22 362 33T420 57V32Q395 17 359 5T269 -8ZM257 635Q244 635 236 644T228 664Q228 675 236 684T257 693Q270 693 278 684T286 664Q286 653 278 644T257 635Z" />
<glyph unicode="&#x10c;" glyph-name="Ccaron" horiz-adv-x="601" d="M461 807L356 726H334L229 807L240 825L345 761L450 825L461 807ZM357 -11Q202 -11 122 79T42 347Q42 438 64 505T126 617T225 682T355 704Q429 704 471 695T544 673L550 525H526L507 645Q482
657 445 666T354 676Q217 676 150 591T83 351Q83 190 149 104T356 18Q411 18 448 28T513 51L532 174H556L550 25Q516 11 471 0T357 -11Z" />
<glyph unicode="&#x10d;" glyph-name="ccaron" horiz-adv-x="451" d="M377 701L268 596H246L137 701L151 716L257 630L363 716L377 701ZM269 -8Q210 -8 166 10T92 62T47 144T32 251Q32 323 51 373T104 455T181 501T273 516Q351 516 408 494V381H383L375 471Q353
481 329 485T269 489Q227 489 191 476T128 435T86 363T71 256Q71 140 119 81T277 22Q327 22 362 33T420 57V32Q395 17 359 5T269 -8Z" />
<glyph unicode="&#x10e;" glyph-name="Dcaron" horiz-adv-x="655" d="M430 807L325 726H303L198 807L209 825L314 761L419 825L430 807ZM27 22L116 30V663L28 671V693H280Q373 693 436 671T539 605T596 498T613 354Q613 269 596 203T540 92T439 24T289 0H27V22ZM286
29Q360 29 414 47T503 103T556 202T573 348Q573 438 556 498T502 595T409 648T277 664H155V29H286Z" />
<glyph unicode="&#x10f;" glyph-name="dcaron" horiz-adv-x="546" d="M243 -8Q203 -8 166 4T99 46T52 124T34 246Q34 316 51 367T100 451T175 500T271 516Q322 516 354 506T412 484V701L319 708V729L443 739L448 736V32L528 25V5L419 -5L414 -1V57H411Q376 30
337 11T243 -8ZM253 23Q298 23 337 42T412 84V444Q383 463 351 475T268 488Q226 488 190 476T128 435T88 362T73 252Q73 187 86 144T122 73T179 35T253 23ZM500 596L508 740L547 738L527 594L500 596Z" />
<glyph unicode="&#x110;" glyph-name="Dcroat" horiz-adv-x="655" d="M23 363H113V663L25 671V693H277Q370 693 433 671T536 605T593 498T610 354Q610 269 593 203T537 92T436 24T286 0H24V22L113 30V333H23V363ZM283 29Q357 29 411 47T500 103T552 202T569 348Q569
438 552 498T498 595T406 648T274 664H152V363H337V333H152V29H283Z" />
<glyph unicode="&#x111;" glyph-name="dcroat" horiz-adv-x="546" d="M243 -8Q203 -8 166 4T99 46T52 124T34 246Q34 316 51 367T100 451T175 500T271 516Q322 516 354 506T412 484V611H233V637H412V701L319 708V729L443 739L448 736V637H519V611H448V32L528 25V5L419
-5L414 -1V57H411Q376 30 337 11T243 -8ZM253 23Q298 23 337 42T412 84V444Q383 463 351 475T268 488Q226 488 190 476T128 435T88 362T73 252Q73 187 86 144T122 73T179 35T253 23Z" />
<glyph unicode="&#x112;" glyph-name="Emacron" horiz-adv-x="568" d="M27 22L116 30V663L28 671V693H512L521 539H497L477 664H155V370H348L359 465H383V247H359L348 342H155V29H490L513 172H537L528 0H27V22ZM191 778H407V751H191V778Z" />
<glyph unicode="&#x113;" glyph-name="emacron" horiz-adv-x="475" d="M264 -8Q197 -8 153 12T81 68T43 152T32 255Q32 319 48 367T93 449T161 499T246 516Q341 516 392 454T443 271H70Q69 213 78 167T111 89T173 39T270 22Q328 22 364 33T426 58V34Q402 20 363
6T264 -8ZM403 300Q401 396 360 442T244 489Q166 489 122 438T71 296L403 300ZM139 676H355V649H139V676Z" />
<glyph unicode="&#x114;" glyph-name="Ebreve" horiz-adv-x="568" d="M27 22L116 30V663L28 671V693H512L521 539H497L477 664H155V370H348L359 465H383V247H359L348 342H155V29H490L513 172H537L528 0H27V22ZM299 734Q276 734 256 741T221 762T197 792T184 829H210Q217
802 240 783T299 764Q334 764 357 783T388 829H414Q411 809 402 792T377 762T342 742T299 734Z" />
<glyph unicode="&#x115;" glyph-name="ebreve" horiz-adv-x="475" d="M247 604Q202 604 169 633T130 709H156Q163 674 187 654T247 634Q282 634 306 654T338 709H364Q359 662 326 633T247 604ZM264 -8Q197 -8 153 12T81 68T43 152T32 255Q32 319 48 367T93 449T161
499T246 516Q341 516 392 454T443 271H70Q69 213 78 167T111 89T173 39T270 22Q328 22 364 33T426 58V34Q402 20 363 6T264 -8ZM403 300Q401 396 360 442T244 489Q166 489 122 438T71 296L403 300Z" />
<glyph unicode="&#x116;" glyph-name="Edotaccent" horiz-adv-x="568" d="M299 745Q286 745 278 754T270 774Q270 785 278 794T299 803Q312 803 320 794T328 774Q328 763 320 754T299 745ZM27 22L116 30V663L28 671V693H512L521 539H497L477 664H155V370H348L359
465H383V247H359L348 342H155V29H490L513 172H537L528 0H27V22Z" />
<glyph unicode="&#x117;" glyph-name="edotaccent" horiz-adv-x="475" d="M247 635Q234 635 226 644T218 664Q218 675 226 684T247 693Q260 693 268 684T276 664Q276 653 268 644T247 635ZM264 -8Q197 -8 153 12T81 68T43 152T32 255Q32 319 48 367T93 449T161
499T246 516Q341 516 392 454T443 271H70Q69 213 78 167T111 89T173 39T270 22Q328 22 364 33T426 58V34Q402 20 363 6T264 -8ZM403 300Q401 396 360 442T244 489Q166 489 122 438T71 296L403 300Z" />
<glyph unicode="&#x118;" glyph-name="Eogonek" horiz-adv-x="568" d="M27 22L116 30V663L28 671V693H512L521 539H497L477 664H155V370H348L359 465H383V247H359L348 342H155V29H490L513 172H537L528 0H466Q432 -27 407 -58T381 -123Q381 -147 394 -159T440 -172Q452
-172 461 -171T478 -168V-190Q469 -193 459 -195T431 -198Q388 -198 367 -178T346 -125Q346 -106 354 -87T374 -52T400 -23T428 0H27V22Z" />
<glyph unicode="&#x119;" glyph-name="eogonek" horiz-adv-x="475" d="M331 -198Q288 -198 267 -178T246 -125Q246 -106 254 -88T274 -53T300 -24T328 -1Q315 -5 298 -6T264 -8Q197 -8 153 12T81 68T43 152T32 255Q32 319 48 367T93 449T161 499T246 516Q341 516
392 454T443 271H70Q69 213 78 167T111 89T173 39T270 22Q328 22 364 33T426 58V34Q407 25 382 9T335 -27T297 -72T281 -123Q281 -147 294 -159T340 -172Q352 -172 361 -171T378 -168V-190Q369 -193 359 -195T331 -198ZM403 300Q401 396 360 442T244 489Q166 489
122 438T71 296L403 300Z" />
<glyph unicode="&#x11a;" glyph-name="Ecaron" horiz-adv-x="568" d="M415 807L310 726H288L183 807L194 825L299 761L404 825L415 807ZM27 22L116 30V663L28 671V693H512L521 539H497L477 664H155V370H348L359 465H383V247H359L348 342H155V29H490L513 172H537L528
0H27V22Z" />
<glyph unicode="&#x11b;" glyph-name="ecaron" horiz-adv-x="475" d="M264 -8Q197 -8 153 12T81 68T43 152T32 255Q32 319 48 367T93 449T161 499T246 516Q341 516 392 454T443 271H70Q69 213 78 167T111 89T173 39T270 22Q328 22 364 33T426 58V34Q402 20 363
6T264 -8ZM403 300Q401 396 360 442T244 489Q166 489 122 438T71 296L403 300ZM367 701L258 596H236L127 701L141 716L247 630L353 716L367 701Z" />
<glyph unicode="&#x11c;" glyph-name="Gcircumflex" horiz-adv-x="661" d="M364 -11Q211 -11 127 79T42 347Q42 438 64 505T128 617T228 682T359 704Q435 704 480 695T555 672L562 531H538L520 644Q492 658 454 667T355 677Q221 677 152 592T83 351Q83 190 154
104T366 17Q411 17 449 25T521 44V261L423 269V291H641V269L561 261V22Q523 8 477 -1T364 -11ZM235 740L340 821H362L467 740L456 722L351 786L246 722L235 740Z" />
<glyph unicode="&#x11d;" glyph-name="gcircumflex" horiz-adv-x="479" d="M379 616L488 721H510L619 616L605 601L499 687L393 601L379 616ZM216 -199Q163 -199 124 -189T60 -160T23 -119T11 -71Q11 -46 20 -26T44 9T78 37T119 59V61Q93 67 76 85T59 132Q59 157
73 179T111 224Q82 245 66 276T50 350Q50 387 63 417T99 469T156 503T229 515Q252 515 270 512T303 504L450 512V481L343 483Q375 463 394 431T413 355Q413 318 400 288T362 236T303 202T229 190Q172 190 131 212Q114 195 103 177T92 138Q92 118 108 103T154 88H306Q380
88 420 59T461 -30Q461 -62 447 -92T404 -146T328 -184T216 -199ZM219 -172Q276 -172 315 -160T378 -129T413 -85T424 -35Q424 13 396 34T300 55H155Q110 35 79 5T48 -66Q48 -88 57 -107T86 -141T139 -163T219 -172ZM229 216Q295 216 335 252T375 352Q375 418 335
453T229 489Q162 489 125 453T88 353Q88 287 125 252T229 216Z" />
<glyph unicode="&#x11e;" glyph-name="Gbreve" horiz-adv-x="661" d="M364 -11Q211 -11 127 79T42 347Q42 438 64 505T128 617T228 682T359 704Q435 704 480 695T555 672L562 531H538L520 644Q492 658 454 667T355 677Q221 677 152 592T83 351Q83 190 154 104T366
17Q411 17 449 25T521 44V261L423 269V291H641V269L561 261V22Q523 8 477 -1T364 -11ZM351 734Q328 734 308 741T273 762T249 792T236 829H262Q269 802 292 783T351 764Q386 764 409 783T440 829H466Q463 809 454 792T429 762T394 742T351 734Z" />
<glyph unicode="&#x11f;" glyph-name="gbreve" horiz-adv-x="479" d="M216 -199Q163 -199 124 -189T60 -160T23 -119T11 -71Q11 -46 20 -26T44 9T78 37T119 59V61Q93 67 76 85T59 132Q59 157 73 179T111 224Q82 245 66 276T50 350Q50 387 63 417T99 469T156 503T229
515Q252 515 270 512T303 504L450 512V481L343 483Q375 463 394 431T413 355Q413 318 400 288T362 236T303 202T229 190Q172 190 131 212Q114 195 103 177T92 138Q92 118 108 103T154 88H306Q380 88 420 59T461 -30Q461 -62 447 -92T404 -146T328 -184T216 -199ZM219
-172Q276 -172 315 -160T378 -129T413 -85T424 -35Q424 13 396 34T300 55H155Q110 35 79 5T48 -66Q48 -88 57 -107T86 -141T139 -163T219 -172ZM229 216Q295 216 335 252T375 352Q375 418 335 453T229 489Q162 489 125 453T88 353Q88 287 125 252T229 216ZM499
604Q454 604 421 633T382 709H408Q415 674 439 654T499 634Q534 634 558 654T590 709H616Q611 662 578 633T499 604Z" />
<glyph unicode="&#x120;" glyph-name="Gdotaccent" horiz-adv-x="661" d="M364 -11Q211 -11 127 79T42 347Q42 438 64 505T128 617T228 682T359 704Q435 704 480 695T555 672L562 531H538L520 644Q492 658 454 667T355 677Q221 677 152 592T83 351Q83 190 154
104T366 17Q411 17 449 25T521 44V261L423 269V291H641V269L561 261V22Q523 8 477 -1T364 -11ZM351 745Q338 745 330 754T322 774Q322 785 330 794T351 803Q364 803 372 794T380 774Q380 763 372 754T351 745Z" />
<glyph unicode="&#x121;" glyph-name="gdotaccent" horiz-adv-x="479" d="M499 635Q486 635 478 644T470 664Q470 675 478 684T499 693Q512 693 520 684T528 664Q528 653 520 644T499 635ZM216 -199Q163 -199 124 -189T60 -160T23 -119T11 -71Q11 -46 20 -26T44
9T78 37T119 59V61Q93 67 76 85T59 132Q59 157 73 179T111 224Q82 245 66 276T50 350Q50 387 63 417T99 469T156 503T229 515Q252 515 270 512T303 504L450 512V481L343 483Q375 463 394 431T413 355Q413 318 400 288T362 236T303 202T229 190Q172 190 131 212Q114
195 103 177T92 138Q92 118 108 103T154 88H306Q380 88 420 59T461 -30Q461 -62 447 -92T404 -146T328 -184T216 -199ZM219 -172Q276 -172 315 -160T378 -129T413 -85T424 -35Q424 13 396 34T300 55H155Q110 35 79 5T48 -66Q48 -88 57 -107T86 -141T139 -163T219
-172ZM229 216Q295 216 335 252T375 352Q375 418 335 453T229 489Q162 489 125 453T88 353Q88 287 125 252T229 216Z" />
<glyph unicode="&#x122;" glyph-name="Gcommaaccent" horiz-adv-x="661" d="M364 -11Q211 -11 127 79T42 347Q42 438 64 505T128 617T228 682T359 704Q435 704 480 695T555 672L562 531H538L520 644Q492 658 454 667T355 677Q221 677 152 592T83 351Q83 190 154
104T366 17Q411 17 449 25T521 44V261L423 269V291H641V269L561 261V22Q523 8 477 -1T364 -11ZM319 -176Q325 -148 328 -114T332 -42H372Q369 -80 363 -114T346 -176H319Z" />
<glyph unicode="&#x123;" glyph-name="gcommaaccent" horiz-adv-x="479" d="M216 -199Q163 -199 124 -189T60 -160T23 -119T11 -71Q11 -46 20 -26T44 9T78 37T119 59V61Q93 67 76 85T59 132Q59 157 73 179T111 224Q82 245 66 276T50 350Q50 387 63 417T99 469T156
503T229 515Q252 515 270 512T303 504L450 512V481L343 483Q375 463 394 431T413 355Q413 318 400 288T362 236T303 202T229 190Q172 190 131 212Q114 195 103 177T92 138Q92 118 108 103T154 88H306Q380 88 420 59T461 -30Q461 -62 447 -92T404 -146T328 -184T216
-199ZM219 -172Q276 -172 315 -160T378 -129T413 -85T424 -35Q424 13 396 34T300 55H155Q110 35 79 5T48 -66Q48 -88 57 -107T86 -141T139 -163T219 -172ZM229 216Q295 216 335 252T375 352Q375 418 335 453T229 489Q162 489 125 453T88 353Q88 287 125 252T229
216ZM273 747Q267 719 264 685T260 613H220Q223 651 229 685T246 747H273Z" />
<glyph unicode="&#x124;" glyph-name="Hcircumflex" horiz-adv-x="708" d="M27 22L116 30V663L27 671V693H250V671L155 663V372H554V663L459 671V693H683V671L594 663V30L683 22V0H459V22L554 30V344H155V30L250 22V0H27V22ZM239 740L344 821H366L471 740L460
722L355 786L250 722L239 740Z" />
<glyph unicode="&#x125;" glyph-name="hcircumflex" horiz-adv-x="562" d="M15 20L95 27V702L8 709V730L126 740L131 737V455H133Q177 480 226 498T328 516Q398 516 434 484T470 384V27L550 20V0H352V20L434 27V373Q434 430 406 457T315 484Q266 484 220 468T131
429V27L214 20V0H15V20ZM163 785L268 866H290L395 785L384 767L279 831L174 767L163 785Z" />
<glyph unicode="&#x126;" glyph-name="Hbar" horiz-adv-x="708" d="M22 526H116V663L27 671V693H250V671L155 663V526H554V663L459 671V693H683V671L594 663V526H690V501H594V30L683 22V0H459V22L554 30V344H155V30L250 22V0H27V22L116 30V501H22V526ZM554 372V501H155V372H554Z"
/>
<glyph unicode="&#x127;" glyph-name="hbar" horiz-adv-x="562" d="M15 20L95 27V611H2V637H95V702L8 709V730L126 740L131 737V637H288V611H131V455H133Q177 480 226 498T328 516Q398 516 434 484T470 384V27L550 20V0H352V20L434 27V373Q434 430 406 457T315
484Q266 484 220 468T131 429V27L214 20V0H15V20Z" />
<glyph unicode="&#x128;" glyph-name="Itilde" horiz-adv-x="276" d="M27 22L119 30V663L27 671V693H249V671L158 663V30L249 22V0H27V22ZM270 750Q296 816 344 816Q358 816 371 811T398 799T423 788T448 782Q464 782 476 791T500 823L520 814Q494 749 446 749Q432
749 419 754T392 766T367 777T342 783Q312 783 290 741L270 750Z" />
<glyph unicode="&#x129;" glyph-name="itilde" horiz-adv-x="231" d="M15 20L98 27V473L11 480V501L130 511L135 508V27L218 20V0H15V20ZM-10 630Q16 696 64 696Q78 696 91 691T118 679T143 668T168 662Q184 662 196 671T220 703L240 694Q214 629 166 629Q152
629 139 634T112 646T87 657T62 663Q32 663 10 621L-10 630Z" />
<glyph unicode="&#x12a;" glyph-name="Imacron" horiz-adv-x="276" d="M287 778H503V751H287V778ZM27 22L119 30V663L27 671V693H249V671L158 663V30L249 22V0H27V22Z" />
<glyph unicode="&#x12b;" glyph-name="imacron" horiz-adv-x="231" d="M15 20L98 27V473L11 480V501L130 511L135 508V27L218 20V0H15V20ZM6 676H182V649H6V676Z" />
<glyph unicode="&#x12c;" glyph-name="Ibreve" horiz-adv-x="276" d="M395 734Q372 734 352 741T317 762T293 792T280 829H306Q313 802 336 783T395 764Q430 764 453 783T484 829H510Q507 809 498 792T473 762T438 742T395 734ZM27 22L119 30V663L27 671V693H249V671L158
663V30L249 22V0H27V22Z" />
<glyph unicode="&#x12d;" glyph-name="ibreve" horiz-adv-x="231" d="M15 20L98 27V473L11 480V501L130 511L135 508V27L218 20V0H15V20ZM115 604Q70 604 37 633T-2 709H24Q31 674 55 654T115 634Q150 634 174 654T206 709H232Q227 662 194 633T115 604Z" />
<glyph unicode="&#x12e;" glyph-name="Iogonek" horiz-adv-x="276" d="M27 22L119 30V663L27 671V693H249V671L158 663V30L249 22V0H174Q148 -27 128 -57T107 -122Q107 -146 120 -159T166 -172Q178 -172 187 -171T204 -168V-190Q195 -193 185 -195T157 -198Q114
-198 93 -178T72 -124Q72 -104 79 -85T96 -50T117 -22T137 0H27V22Z" />
<glyph unicode="&#x12f;" glyph-name="iogonek" horiz-adv-x="231" d="M15 20L98 27V473L11 480V501L129 511L134 508V27L217 20V0H144Q121 -27 100 -58T79 -123Q79 -147 91 -159T136 -172Q148 -172 157 -171T174 -168V-190Q165 -193 155 -195T127 -198Q84 -198
64 -178T44 -125Q44 -106 51 -87T68 -52T90 -23T109 0H15V20ZM111 635Q98 635 90 644T82 664Q82 675 90 684T111 693Q124 693 132 684T140 664Q140 653 132 644T111 635Z" />
<glyph unicode="&#x130;" glyph-name="Idotaccent" horiz-adv-x="276" d="M27 22L119 30V663L27 671V693H249V671L158 663V30L249 22V0H27V22ZM395 745Q382 745 374 754T366 774Q366 785 374 794T395 803Q408 803 416 794T424 774Q424 763 416 754T395 745Z" />
<glyph unicode="&#x131;" glyph-name="dotlessi" horiz-adv-x="231" d="M15 20L98 27V473L11 480V501L130 511L135 508V27L218 20V0H15V20Z" />
<glyph unicode="&#x132;" glyph-name="IJ" horiz-adv-x="636" d="M389 -6Q359 -6 333 0T285 16V43Q311 34 334 29T384 24Q418 24 439 33T473 59T490 100T495 156V663L404 671V693H622V671L534 663V152Q534 117 527 88T503 38T458 6T389 -6ZM27 22L119 30V663L27
671V693H249V671L158 663V30L249 22V0H27V22Z" />
<glyph unicode="&#x133;" glyph-name="ij" horiz-adv-x="438" d="M15 20L98 27V473L11 480V501L129 511L134 508V27L217 20V0H15V20ZM111 635Q98 635 90 644T82 664Q82 675 90 684T111 693Q124 693 132 684T140 664Q140 653 132 644T111 635ZM237 -194Q220 -194
208 -192T181 -184V-162Q192 -164 203 -165T229 -167Q270 -167 294 -144T318 -64V473L231 480V501L349 511L354 508V-69Q354 -132 323 -163T237 -194ZM331 635Q318 635 310 644T302 664Q302 675 310 684T331 693Q344 693 352 684T360 664Q360 653 352 644T331 635Z"
/>
<glyph unicode="&#x134;" glyph-name="Jcircumflex" horiz-adv-x="374" d="M119 -6Q87 -6 58 0T7 18V45Q33 35 59 30T114 24Q149 24 172 33T208 59T227 100T233 156V663L142 671V693H360V671L272 663V152Q272 117 264 88T238 38T191 6T119 -6ZM138 740L243 821H265L370
740L359 722L254 786L149 722L138 740Z" />
<glyph unicode="&#x135;" glyph-name="jcircumflex" horiz-adv-x="221" d="M20 -194Q3 -194 -9 -192T-36 -184V-162Q-25 -164 -14 -165T12 -167Q53 -167 77 -144T101 -64V473L14 480V501L132 511L137 508V-69Q137 -132 106 -163T20 -194ZM-9 616L100 721H122L231
616L217 601L111 687L5 601L-9 616Z" />
<glyph unicode="&#x136;" glyph-name="Kcommaaccent" horiz-adv-x="621" d="M27 22L116 30V663L27 671V693H252V671L155 663V30L252 22V0H27V22ZM213 335V348L488 663L409 671V693H592V671L528 663L251 347L528 30L607 22V0H506L213 335ZM297 -176Q303 -148 306
-114T310 -42H350Q347 -80 341 -114T324 -176H297Z" />
<glyph unicode="&#x137;" glyph-name="kcommaaccent" horiz-adv-x="491" d="M15 20L95 27V702L8 709V730L126 740L131 736V27L215 20V0H15V20ZM176 261V271L370 481L305 488V508H470V488L409 481L212 271L415 27L490 20V0H393L176 261ZM229 -176Q235 -148 238
-114T242 -42H282Q279 -80 273 -114T256 -176H229Z" />
<glyph unicode="&#x139;" glyph-name="Lacute" horiz-adv-x="535" d="M27 22L116 30V663L27 671V693H253V671L155 663V29H468L489 175H514L502 0H27V22ZM318 749L487 831L502 800L326 727L318 749Z" />
<glyph unicode="&#x13a;" glyph-name="lacute" horiz-adv-x="231" d="M15 20L98 27V702L6 709V730L130 740L135 736V27L218 20V0H15V20ZM27 794L196 876L211 845L35 772L27 794Z" />
<glyph unicode="&#x13b;" glyph-name="Lcommaaccent" horiz-adv-x="535" d="M27 22L116 30V663L27 671V693H253V671L155 663V29H468L489 175H514L502 0H27V22ZM258 -176Q264 -148 267 -114T271 -42H311Q308 -80 302 -114T285 -176H258Z" />
<glyph unicode="&#x13c;" glyph-name="lcommaaccent" horiz-adv-x="231" d="M15 20L98 27V702L6 709V730L130 740L135 736V27L218 20V0H15V20ZM337 -176Q343 -148 346 -114T350 -42H390Q387 -80 381 -114T364 -176H337Z" />
<glyph unicode="&#x13d;" glyph-name="Lcaron" horiz-adv-x="535" d="M339 558L348 708L387 706L366 556L339 558ZM27 22L116 30V663L27 671V693H253V671L155 663V29H468L489 175H514L502 0H27V22Z" />
<glyph unicode="&#x13e;" glyph-name="lcaron" horiz-adv-x="231" d="M15 20L98 27V702L6 709V730L130 740L135 736V27L218 20V0H15V20ZM444 596L452 740L491 738L471 594L444 596Z" />
<glyph unicode="&#x13f;" glyph-name="Ldot" horiz-adv-x="535" d="M27 22L116 30V663L27 671V693H253V671L155 663V29H468L489 175H514L502 0H27V22ZM455 344Q441 344 432 353T423 375Q423 388 432 397T455 406Q469 406 478 397T487 375Q487 362 478 353T455 344Z" />
<glyph unicode="&#x140;" glyph-name="ldot" horiz-adv-x="231" d="M232 342Q246 342 255 351T264 373Q264 386 255 395T232 404Q218 404 209 395T200 373Q200 360 209 351T232 342ZM15 20L98 27V702L6 709V730L130 740L135 736V27L218 20V0H15V20Z" />
<glyph unicode="&#x141;" glyph-name="Lslash" horiz-adv-x="535" d="M30 256L116 297V663L27 671V693H253V671L155 663V316L372 422V393L155 287V29H468L489 175H514L502 0H27V22L116 30V268L30 227V256Z" />
<glyph unicode="&#x142;" glyph-name="lslash" horiz-adv-x="231" d="M98 364V702L6 709V730L130 740L135 736V386L236 448V418L135 356V27L218 20V0H15V20L98 27V334L0 274V304L98 364Z" />
<glyph unicode="&#x143;" glyph-name="Nacute" horiz-adv-x="699" d="M27 22L116 30V663L27 671V693H172L559 69H561V663L466 671V693H676V671L594 663V0H559L151 659H149V30L249 22V0H27V22ZM284 749L453 831L468 800L292 727L284 749Z" />
<glyph unicode="&#x144;" glyph-name="nacute" horiz-adv-x="563" d="M15 20L95 27V473L13 480V501L125 511L130 508V454H132Q176 480 225 498T328 516Q398 516 434 484T470 384V27L550 20V0H352V20L434 27V373Q434 430 406 457T315 484Q266 484 220 468T131 429V27L214
20V0H15V20ZM210 614L370 714L388 685L220 593L210 614Z" />
<glyph unicode="&#x145;" glyph-name="Ncommaaccent" horiz-adv-x="699" d="M27 22L116 30V663L27 671V693H172L559 69H561V663L466 671V693H676V671L594 663V0H559L151 659H149V30L249 22V0H27V22ZM330 -176Q336 -148 339 -114T343 -42H383Q380 -80 374 -114T357
-176H330Z" />
<glyph unicode="&#x146;" glyph-name="ncommaaccent" horiz-adv-x="563" d="M15 20L95 27V473L13 480V501L125 511L130 508V454H132Q176 480 225 498T328 516Q398 516 434 484T470 384V27L550 20V0H352V20L434 27V373Q434 430 406 457T315 484Q266 484 220 468T131
429V27L214 20V0H15V20ZM250 -176Q256 -148 259 -114T263 -42H303Q300 -80 294 -114T277 -176H250Z" />
<glyph unicode="&#x147;" glyph-name="Ncaron" horiz-adv-x="699" d="M27 22L116 30V663L27 671V693H172L559 69H561V663L466 671V693H676V671L594 663V0H559L151 659H149V30L249 22V0H27V22ZM478 807L373 726H351L246 807L257 825L362 761L467 825L478 807Z" />
<glyph unicode="&#x148;" glyph-name="ncaron" horiz-adv-x="563" d="M15 20L95 27V473L13 480V501L125 511L130 508V454H132Q176 480 225 498T328 516Q398 516 434 484T470 384V27L550 20V0H352V20L434 27V373Q434 430 406 457T315 484Q266 484 220 468T131 429V27L214
20V0H15V20ZM394 701L285 596H263L154 701L168 716L274 630L380 716L394 701Z" />
<glyph unicode="&#x149;" glyph-name="napostrophe" horiz-adv-x="563" d="M15 20L95 27V473L13 480V501L125 511L130 508V454H132Q176 480 225 498T328 516Q398 516 434 484T470 384V27L550 20V0H352V20L434 27V373Q434 430 406 457T315 484Q266 484 220 468T131
429V27L214 20V0H15V20ZM229 528Q239 566 244 606T249 693H292Q289 646 280 606T254 528H229Z" />
<glyph unicode="&#x14a;" glyph-name="Eng" horiz-adv-x="699" d="M27 22L116 30V663L27 671V693H172L559 69H561V663L466 671V693H676V671L594 663V-5Q594 -89 564 -129T461 -170Q435 -170 414 -165T374 -152V-128Q394 -134 413 -137T455 -141Q513 -141 536 -110T561
-4L151 659H149V30L249 22V0H27V22Z" />
<glyph unicode="&#x14b;" glyph-name="eng" horiz-adv-x="554" d="M470 -69Q470 -132 439 -163T353 -194Q336 -194 324 -192T297 -184V-162Q308 -164 319 -165T345 -167Q386 -167 410 -144T434 -64V373Q434 430 406 457T315 484Q266 484 220 468T131 429V27L214
20V0H15V20L95 27V473L13 480V501L125 511L130 508V454H132Q176 480 225 498T328 516Q398 516 434 484T470 384V-69Z" />
<glyph unicode="&#x14c;" glyph-name="Omacron" horiz-adv-x="681" d="M337 -10Q272 -10 218 13T125 82T64 194T42 347Q42 435 65 502T128 613T222 680T338 703Q402 703 456 680T550 611T611 500T633 348Q633 259 610 192T547 80T453 13T337 -10ZM337 18Q394 18
440 39T521 101T573 202T592 342Q592 427 573 489T521 593T440 655T337 675Q280 675 234 654T154 592T102 491T83 351Q83 269 101 207T152 102T232 39T337 18ZM229 778H445V751H229V778Z" />
<glyph unicode="&#x14d;" glyph-name="omacron" horiz-adv-x="522" d="M261 -9Q216 -9 175 7T102 56T51 137T32 251Q32 315 51 364T101 447T174 498T261 516Q306 516 347 500T420 450T471 368T490 255Q490 191 471 142T421 59T348 8T261 -9ZM261 19Q298 19 332
33T392 75T435 148T451 252Q451 313 435 357T393 431T332 474T261 488Q224 488 190 474T129 431T87 358T71 254Q71 194 87 150T129 76T190 33T261 19ZM153 676H369V649H153V676Z" />
<glyph unicode="&#x14e;" glyph-name="Obreve" horiz-adv-x="681" d="M337 -10Q272 -10 218 13T125 82T64 194T42 347Q42 435 65 502T128 613T222 680T338 703Q402 703 456 680T550 611T611 500T633 348Q633 259 610 192T547 80T453 13T337 -10ZM337 18Q394 18
440 39T521 101T573 202T592 342Q592 427 573 489T521 593T440 655T337 675Q280 675 234 654T154 592T102 491T83 351Q83 269 101 207T152 102T232 39T337 18ZM337 734Q314 734 294 741T259 762T235 792T222 829H248Q255 802 278 783T337 764Q372 764 395 783T426
829H452Q449 809 440 792T415 762T380 742T337 734Z" />
<glyph unicode="&#x14f;" glyph-name="obreve" horiz-adv-x="522" d="M261 604Q216 604 183 633T144 709H170Q177 674 201 654T261 634Q296 634 320 654T352 709H378Q373 662 340 633T261 604ZM261 -9Q216 -9 175 7T102 56T51 137T32 251Q32 315 51 364T101 447T174
498T261 516Q306 516 347 500T420 450T471 368T490 255Q490 191 471 142T421 59T348 8T261 -9ZM261 19Q298 19 332 33T392 75T435 148T451 252Q451 313 435 357T393 431T332 474T261 488Q224 488 190 474T129 431T87 358T71 254Q71 194 87 150T129 76T190 33T261
19Z" />
<glyph unicode="&#x150;" glyph-name="Ohungarumlaut" horiz-adv-x="681" d="M264 739L330 870L359 852L288 728L264 739ZM377 739L443 870L472 852L401 728L377 739ZM337 -10Q272 -10 218 13T125 82T64 194T42 347Q42 435 65 502T128 613T222 680T338 703Q402
703 456 680T550 611T611 500T633 348Q633 259 610 192T547 80T453 13T337 -10ZM337 18Q394 18 440 39T521 101T573 202T592 342Q592 427 573 489T521 593T440 655T337 675Q280 675 234 654T154 592T102 491T83 351Q83 269 101 207T152 102T232 39T337 18Z" />
<glyph unicode="&#x151;" glyph-name="ohungarumlaut" horiz-adv-x="522" d="M303 595L410 739L436 717L325 580L303 595ZM184 595L291 739L317 717L206 580L184 595ZM261 -9Q216 -9 175 7T102 56T51 137T32 251Q32 315 51 364T101 447T174 498T261 516Q306 516
347 500T420 450T471 368T490 255Q490 191 471 142T421 59T348 8T261 -9ZM261 19Q298 19 332 33T392 75T435 148T451 252Q451 313 435 357T393 431T332 474T261 488Q224 488 190 474T129 431T87 358T71 254Q71 194 87 150T129 76T190 33T261 19Z" />
<glyph unicode="&#x152;" glyph-name="OE" horiz-adv-x="926" d="M375 0Q282 0 219 22T116 88T59 195T42 339Q42 424 59 490T115 601T215 669T366 693H876L885 539H861L841 664H529V369H714L724 465H747V247H724L714 343H529V29H854L877 172H901L892 0H375ZM490
29V664H369Q295 664 241 646T152 590T100 491T83 345Q83 255 100 195T154 98T246 45T378 29H490Z" />
<glyph unicode="&#x153;" glyph-name="oe" horiz-adv-x="891" d="M680 -8Q630 -8 594 3T532 34T490 82T465 143Q440 68 386 30T261 -9Q215 -9 174 7T101 56T51 137T32 251Q32 315 51 364T101 447T174 498T260 516Q333 516 388 477T467 361Q488 436 538 476T662
516Q757 516 808 454T859 271H486Q485 213 494 167T527 89T589 39T686 22Q744 22 780 33T842 58V34Q818 20 779 6T680 -8ZM261 19Q298 19 332 33T392 75T434 148T450 252Q450 313 434 357T392 431T331 474T260 488Q223 488 189 474T129 431T87 358T71 254Q71 194
87 150T129 76T190 33T261 19ZM819 300Q817 396 776 442T660 489Q582 489 538 438T487 296L819 300Z" />
<glyph unicode="&#x154;" glyph-name="Racute" horiz-adv-x="610" d="M212 749L381 831L396 800L220 727L212 749ZM27 22L117 30V663L28 671V693H292Q355 693 398 680T467 644T504 587T515 512Q515 442 479 396T358 334V332L535 30L609 22V0H508L318 327H156V30L244
22V0H27V22ZM301 355Q392 355 433 397T474 511Q474 548 466 576T437 623T381 653T290 663H156V355H301Z" />
<glyph unicode="&#x155;" glyph-name="racute" horiz-adv-x="337" d="M15 20L95 27V473L13 480V501L125 511L130 508V440H132Q159 470 197 491T283 513Q289 513 299 512T314 509V476Q306 478 296 478T279 479Q234 479 200 462T131 411V27L218 20V0H15V20ZM375
614L535 714L553 685L385 593L375 614Z" />
<glyph unicode="&#x156;" glyph-name="Rcommaaccent" horiz-adv-x="610" d="M27 22L117 30V663L28 671V693H292Q355 693 398 680T467 644T504 587T515 512Q515 442 479 396T358 334V332L535 30L609 22V0H508L318 327H156V30L244 22V0H27V22ZM301 355Q392 355 433
397T474 511Q474 548 466 576T437 623T381 653T290 663H156V355H301ZM291 -176Q297 -148 300 -114T304 -42H344Q341 -80 335 -114T318 -176H291Z" />
<glyph unicode="&#x157;" glyph-name="rcommaaccent" horiz-adv-x="337" d="M15 20L95 27V473L13 480V501L125 511L130 508V440H132Q159 470 197 491T283 513Q289 513 299 512T314 509V476Q306 478 296 478T279 479Q234 479 200 462T131 411V27L218 20V0H15V20ZM339
-176Q345 -148 348 -114T352 -42H392Q389 -80 383 -114T366 -176H339Z" />
<glyph unicode="&#x158;" glyph-name="Rcaron" horiz-adv-x="610" d="M27 22L117 30V663L28 671V693H292Q355 693 398 680T467 644T504 587T515 512Q515 442 479 396T358 334V332L535 30L609 22V0H508L318 327H156V30L244 22V0H27V22ZM301 355Q392 355 433 397T474
511Q474 548 466 576T437 623T381 653T290 663H156V355H301ZM406 807L301 726H279L174 807L185 825L290 761L395 825L406 807Z" />
<glyph unicode="&#x159;" glyph-name="rcaron" horiz-adv-x="337" d="M562 701L453 596H431L322 701L336 716L442 630L548 716L562 701ZM15 20L95 27V473L13 480V501L125 511L130 508V440H132Q159 470 197 491T283 513Q289 513 299 512T314 509V476Q306 478 296
478T279 479Q234 479 200 462T131 411V27L218 20V0H15V20Z" />
<glyph unicode="&#x15a;" glyph-name="Sacute" horiz-adv-x="518" d="M243 -10Q185 -10 136 2T52 30L47 166H71L86 56Q115 42 151 31T241 19Q293 19 329 30T387 61T420 108T430 169Q430 204 422 229T396 273T348 307T274 338L231 353Q192 366 161 382T108 421T74
471T62 537Q62 571 73 601T109 654T173 690T270 703Q324 703 362 694T432 672L438 548H414L400 645Q383 654 350 664T268 674Q177 674 138 639T99 541Q99 513 106 491T130 451T174 417T243 387L286 372Q330 357 364 340T421 300T456 247T468 173Q468 135 456 102T416
43T347 4T243 -10ZM193 749L362 831L377 800L201 727L193 749Z" />
<glyph unicode="&#x15b;" glyph-name="sacute" horiz-adv-x="412" d="M194 -9Q143 -9 106 0T43 20L36 131H60L74 48Q97 36 127 27T196 18Q268 18 301 46T335 124Q335 173 311 196T230 235L163 254Q106 270 75 301T43 384Q43 442 84 478T203 515Q253 515 286 509T345
492L349 390H325L312 463Q294 474 268 481T200 488Q144 488 112 464T80 392Q80 372 84 356T100 327T131 304T180 286L247 267Q307 250 340 220T373 131Q373 68 329 30T194 -9ZM398 614L558 714L576 685L408 593L398 614Z" />
<glyph unicode="&#x15c;" glyph-name="Scircumflex" horiz-adv-x="518" d="M155 740L260 821H282L387 740L376 722L271 786L166 722L155 740ZM243 -10Q185 -10 136 2T52 30L47 166H71L86 56Q115 42 151 31T241 19Q293 19 329 30T387 61T420 108T430 169Q430 204
422 229T396 273T348 307T274 338L231 353Q192 366 161 382T108 421T74 471T62 537Q62 571 73 601T109 654T173 690T270 703Q324 703 362 694T432 672L438 548H414L400 645Q383 654 350 664T268 674Q177 674 138 639T99 541Q99 513 106 491T130 451T174 417T243
387L286 372Q330 357 364 340T421 300T456 247T468 173Q468 135 456 102T416 43T347 4T243 -10Z" />
<glyph unicode="&#x15d;" glyph-name="scircumflex" horiz-adv-x="412" d="M194 -9Q143 -9 106 0T43 20L36 131H60L74 48Q97 36 127 27T196 18Q268 18 301 46T335 124Q335 173 311 196T230 235L163 254Q106 270 75 301T43 384Q43 442 84 478T203 515Q253 515 286
509T345 492L349 390H325L312 463Q294 474 268 481T200 488Q144 488 112 464T80 392Q80 372 84 356T100 327T131 304T180 286L247 267Q307 250 340 220T373 131Q373 68 329 30T194 -9ZM346 616L455 721H477L586 616L572 601L466 687L360 601L346 616Z" />
<glyph unicode="&#x15e;" glyph-name="Scedilla" horiz-adv-x="518" d="M198 -175Q258 -167 283 -155T309 -118Q309 -96 288 -88T220 -78V-9Q169 -7 126 4T52 30L47 166H71L86 56Q115 42 151 31T241 19Q293 19 329 30T387 61T420 108T430 169Q430 204 422 229T396
273T348 307T274 338L231 353Q192 366 161 382T108 421T74 471T62 537Q62 571 73 601T109 654T173 690T270 703Q324 703 362 694T432 672L438 548H414L400 645Q383 654 350 664T268 674Q177 674 138 639T99 541Q99 513 106 491T130 451T174 417T243 387L286 372Q330
357 364 340T421 300T456 247T468 173Q468 135 456 102T417 44T348 5T246 -10V-50Q291 -52 318 -68T345 -116Q345 -149 311 -170T198 -198V-175Z" />
<glyph unicode="&#x15f;" glyph-name="scedilla" horiz-adv-x="412" d="M135 -175Q195 -167 220 -155T246 -118Q246 -96 225 -88T157 -78V-7Q120 -4 92 3T43 20L36 131H60L74 48Q97 36 127 27T196 18Q268 18 301 46T335 124Q335 173 311 196T230 235L163 254Q106
270 75 301T43 384Q43 442 84 478T203 515Q253 515 286 509T345 492L349 390H325L312 463Q294 474 268 481T200 488Q144 488 112 464T80 392Q80 372 84 356T100 327T131 304T180 286L247 267Q307 250 340 220T373 131Q373 68 329 30T194 -9H183V-50Q228 -52 255
-68T282 -116Q282 -149 248 -170T135 -198V-175Z" />
<glyph unicode="&#x160;" glyph-name="Scaron" horiz-adv-x="518" d="M243 -10Q185 -10 136 2T52 30L47 166H71L86 56Q115 42 151 31T241 19Q293 19 329 30T387 61T420 108T430 169Q430 204 422 229T396 273T348 307T274 338L231 353Q192 366 161 382T108 421T74
471T62 537Q62 571 73 601T109 654T173 690T270 703Q324 703 362 694T432 672L438 548H414L400 645Q383 654 350 664T268 674Q177 674 138 639T99 541Q99 513 106 491T130 451T174 417T243 387L286 372Q330 357 364 340T421 300T456 247T468 173Q468 135 456 102T416
43T347 4T243 -10ZM387 807L282 726H260L155 807L166 825L271 761L376 825L387 807Z" />
<glyph unicode="&#x161;" glyph-name="scaron" horiz-adv-x="412" d="M194 -9Q143 -9 106 0T43 20L36 131H60L74 48Q97 36 127 27T196 18Q268 18 301 46T335 124Q335 173 311 196T230 235L163 254Q106 270 75 301T43 384Q43 442 84 478T203 515Q253 515 286 509T345
492L349 390H325L312 463Q294 474 268 481T200 488Q144 488 112 464T80 392Q80 372 84 356T100 327T131 304T180 286L247 267Q307 250 340 220T373 131Q373 68 329 30T194 -9ZM584 701L475 596H453L344 701L358 716L464 630L570 716L584 701Z" />
<glyph unicode="&#x162;" glyph-name="Tcommaaccent" horiz-adv-x="572" d="M170 22L266 30V664H56L39 529H15L23 693H548L556 529H532L515 664H305V30L402 22V0H170V22ZM253 -176Q259 -148 262 -114T266 -42H306Q303 -80 297 -114T280 -176H253Z" />
<glyph unicode="&#x163;" glyph-name="tcommaaccent" horiz-adv-x="304" d="M199 -7Q150 -7 120 18T89 104V478H13V498L91 508L98 630H125V508H271V478H125V112Q125 61 145 42T211 22Q231 22 248 26T283 36V15Q267 6 245 0T199 -7ZM399 -176Q405 -148 408 -114T412
-42H452Q449 -80 443 -114T426 -176H399Z" />
<glyph unicode="&#x164;" glyph-name="Tcaron" horiz-adv-x="572" d="M170 22L266 30V664H56L39 529H15L23 693H548L556 529H532L515 664H305V30L402 22V0H170V22ZM401 807L296 726H274L169 807L180 825L285 761L390 825L401 807Z" />
<glyph unicode="&#x165;" glyph-name="tcaron" horiz-adv-x="304" d="M199 -7Q150 -7 120 18T89 104V478H13V498L91 508L98 630H125V508H271V478H125V112Q125 61 145 42T211 22Q231 22 248 26T283 36V15Q267 6 245 0T199 -7ZM461 596L469 740L508 738L488 594L461 596Z" />
<glyph unicode="&#x166;" glyph-name="Tbar" horiz-adv-x="572" d="M114 413H266V664H56L39 529H15L23 693H548L556 529H532L515 664H305V413H458V388H305V30L402 22V0H170V22L266 30V388H114V413Z" />
<glyph unicode="&#x167;" glyph-name="tbar" horiz-adv-x="304" d="M199 -7Q150 -7 120 18T89 104V335H13V361H89V478H13V498L91 508L98 630H125V508H271V478H125V361H271V335H125V112Q125 61 145 42T211 22Q231 22 248 26T283 36V15Q267 6 245 0T199 -7Z" />
<glyph unicode="&#x168;" glyph-name="Utilde" horiz-adv-x="678" d="M230 750Q256 816 304 816Q318 816 331 811T358 799T383 788T408 782Q424 782 436 791T460 823L480 814Q454 749 406 749Q392 749 379 754T352 766T327 777T302 783Q272 783 250 741L230 750ZM349
-11Q229 -11 166 46T102 215V663L17 671V693H235V671L141 663V218Q141 115 194 67T349 19Q450 19 499 66T548 216V663L458 671V693H662V671L581 663V217Q581 107 524 48T349 -11Z" />
<glyph unicode="&#x169;" glyph-name="utilde" horiz-adv-x="556" d="M232 -7Q160 -7 125 28T90 132V476L10 483V504L121 511L126 507V136Q126 79 154 52T245 25Q294 25 338 40T424 77V476L345 483V504L455 511L460 507V32L541 25V5L431 -5L426 -1V53H423Q378
27 332 10T232 -7ZM143 630Q169 696 217 696Q231 696 244 691T271 679T296 668T321 662Q337 662 349 671T373 703L393 694Q367 629 319 629Q305 629 292 634T265 646T240 657T215 663Q185 663 163 621L143 630Z" />
<glyph unicode="&#x16a;" glyph-name="Umacron" horiz-adv-x="678" d="M349 -11Q229 -11 166 46T102 215V663L17 671V693H235V671L141 663V218Q141 115 194 67T349 19Q450 19 499 66T548 216V663L458 671V693H662V671L581 663V217Q581 107 524 48T349 -11ZM247
778H463V751H247V778Z" />
<glyph unicode="&#x16b;" glyph-name="umacron" horiz-adv-x="556" d="M232 -7Q160 -7 125 28T90 132V476L10 483V504L121 511L126 507V136Q126 79 154 52T245 25Q294 25 338 40T424 77V476L345 483V504L455 511L460 507V32L541 25V5L431 -5L426 -1V53H423Q378
27 332 10T232 -7ZM154 676H370V649H154V676Z" />
<glyph unicode="&#x16c;" glyph-name="Ubreve" horiz-adv-x="678" d="M349 -11Q229 -11 166 46T102 215V663L17 671V693H235V671L141 663V218Q141 115 194 67T349 19Q450 19 499 66T548 216V663L458 671V693H662V671L581 663V217Q581 107 524 48T349 -11ZM355
734Q332 734 312 741T277 762T253 792T240 829H266Q273 802 296 783T355 764Q390 764 413 783T444 829H470Q467 809 458 792T433 762T398 742T355 734Z" />
<glyph unicode="&#x16d;" glyph-name="ubreve" horiz-adv-x="556" d="M232 -7Q160 -7 125 28T90 132V476L10 483V504L121 511L126 507V136Q126 79 154 52T245 25Q294 25 338 40T424 77V476L345 483V504L455 511L460 507V32L541 25V5L431 -5L426 -1V53H423Q378
27 332 10T232 -7ZM268 604Q223 604 190 633T151 709H177Q184 674 208 654T268 634Q303 634 327 654T359 709H385Q380 662 347 633T268 604Z" />
<glyph unicode="&#x16e;" glyph-name="Uring" horiz-adv-x="678" d="M349 -11Q229 -11 166 46T102 215V663L17 671V693H235V671L141 663V218Q141 115 194 67T349 19Q450 19 499 66T548 216V663L458 671V693H662V671L581 663V217Q581 107 524 48T349 -11ZM350 952Q315
952 293 974T271 1029Q271 1062 293 1084T350 1107Q385 1107 407 1085T429 1029Q429 997 407 975T350 952ZM350 976Q374 976 388 991T402 1029Q402 1052 388 1068T350 1084Q326 1084 312 1068T298 1029Q298 1006 312 991T350 976Z" />
<glyph unicode="&#x16f;" glyph-name="uring" horiz-adv-x="556" d="M268 590Q233 590 211 612T189 667Q189 700 211 722T268 745Q303 745 325 723T347 667Q347 635 325 613T268 590ZM268 614Q292 614 306 629T320 667Q320 690 306 706T268 722Q244 722 230 706T216
667Q216 644 230 629T268 614ZM232 -7Q160 -7 125 28T90 132V476L10 483V504L121 511L126 507V136Q126 79 154 52T245 25Q294 25 338 40T424 77V476L345 483V504L455 511L460 507V32L541 25V5L431 -5L426 -1V53H423Q378 27 332 10T232 -7Z" />
<glyph unicode="&#x170;" glyph-name="Uhungarumlaut" horiz-adv-x="678" d="M282 739L348 870L377 852L306 728L282 739ZM395 739L461 870L490 852L419 728L395 739ZM349 -11Q229 -11 166 46T102 215V663L17 671V693H235V671L141 663V218Q141 115 194 67T349
19Q450 19 499 66T548 216V663L458 671V693H662V671L581 663V217Q581 107 524 48T349 -11Z" />
<glyph unicode="&#x171;" glyph-name="uhungarumlaut" horiz-adv-x="556" d="M306 595L413 739L439 717L328 580L306 595ZM187 595L294 739L320 717L209 580L187 595ZM232 -7Q160 -7 125 28T90 132V476L10 483V504L121 511L126 507V136Q126 79 154 52T245 25Q294
25 338 40T424 77V476L345 483V504L455 511L460 507V32L541 25V5L431 -5L426 -1V53H423Q378 27 332 10T232 -7Z" />
<glyph unicode="&#x172;" glyph-name="Uogonek" horiz-adv-x="678" d="M374 -198Q331 -198 310 -178T289 -123Q289 -103 296 -86T314 -55T340 -30T370 -10Q367 -11 363 -11H349Q229 -11 166 46T102 215V663L17 671V693H235V671L141 663V218Q141 115 194 67T349
19Q450 19 499 66T548 216V663L458 671V693H662V671L581 663V217Q581 143 554 89T457 5Q398 -19 361 -49T324 -122Q324 -147 337 -159T383 -172Q395 -172 404 -171T421 -168V-190Q412 -193 402 -195T374 -198Z" />
<glyph unicode="&#x173;" glyph-name="uogonek" horiz-adv-x="556" d="M427 -198Q384 -198 363 -178T342 -125Q342 -105 350 -87T371 -52T398 -23T426 -1V53H423Q378 27 332 10T232 -7Q160 -7 125 28T90 132V476L10 483V504L121 511L126 507V136Q126 79 154 52T245
25Q294 25 338 40T424 77V476L345 483V504L455 511L460 507V32L541 25V5L458 -2Q426 -29 402 -59T377 -123Q377 -147 390 -159T436 -172Q448 -172 457 -171T474 -168V-190Q465 -193 455 -195T427 -198Z" />
<glyph unicode="&#x174;" glyph-name="Wcircumflex" horiz-adv-x="902" d="M333 740L438 821H460L565 740L554 722L449 786L344 722L333 740ZM66 663L4 671V693H189V671L104 663L256 69H258L436 693H462L640 69H642L793 663L708 671V693H889V671L827 663L656 0H624L449
620H447L269 0H237L66 663Z" />
<glyph unicode="&#x175;" glyph-name="wcircumflex" horiz-adv-x="755" d="M267 616L376 721H398L507 616L493 601L387 687L281 601L267 616ZM64 481L5 487V508H172V487L100 481L224 59H226L373 508H399L544 59H546L670 481L599 487V508H760V487L701 481L558 0H528L385
444H383L236 0H206L64 481Z" />
<glyph unicode="&#x176;" glyph-name="Ycircumflex" horiz-adv-x="601" d="M191 22L280 30V313L70 663L8 671V693H192V671L111 663L301 344H303L493 663L412 671V693H590V671L528 663L319 313V30L408 22V0H191V22ZM187 740L292 821H314L419 740L408 722L303 786L198
722L187 740Z" />
<glyph unicode="&#x177;" glyph-name="ycircumflex" horiz-adv-x="521" d="M121 -195Q107 -195 92 -192T65 -184V-158Q90 -165 113 -165Q135 -165 151 -159T178 -140T199 -111T216 -73L250 17L62 481L5 487V508H175V487L99 481L268 60H270L431 481L356 487V508H520V487L463
481L244 -86Q235 -110 225 -130T200 -164T166 -187T121 -195ZM150 616L259 721H281L390 616L376 601L270 687L164 601L150 616Z" />
<glyph unicode="&#x178;" glyph-name="Ydieresis" horiz-adv-x="601" d="M191 22L280 30V313L70 663L8 671V693H192V671L111 663L301 344H303L493 663L412 671V693H590V671L528 663L319 313V30L408 22V0H191V22ZM375 745Q362 745 354 754T346 774Q346 785 354
794T375 803Q388 803 396 794T404 774Q404 763 396 754T375 745ZM231 745Q218 745 210 754T202 774Q202 785 210 794T231 803Q244 803 252 794T260 774Q260 763 252 754T231 745Z" />
<glyph unicode="&#x179;" glyph-name="Zacute" horiz-adv-x="538" d="M23 24L464 661V664H90L73 521H48L55 693H512V669L70 32V29H465L485 168H510L501 0H23V24ZM200 749L369 831L384 800L208 727L200 749Z" />
<glyph unicode="&#x17a;" glyph-name="zacute" horiz-adv-x="446" d="M29 24L369 480V483H83L69 383H45L50 508H410V484L71 27V25H364L381 137H405L397 0H29V24ZM417 614L577 714L595 685L427 593L417 614Z" />
<glyph unicode="&#x17b;" glyph-name="Zdotaccent" horiz-adv-x="538" d="M278 745Q265 745 257 754T249 774Q249 785 257 794T278 803Q291 803 299 794T307 774Q307 763 299 754T278 745ZM23 24L464 661V664H90L73 521H48L55 693H512V669L70 32V29H465L485 168H510L501
0H23V24Z" />
<glyph unicode="&#x17c;" glyph-name="zdotaccent" horiz-adv-x="446" d="M489 635Q476 635 468 644T460 664Q460 675 468 684T489 693Q502 693 510 684T518 664Q518 653 510 644T489 635ZM29 24L369 480V483H83L69 383H45L50 508H410V484L71 27V25H364L381 137H405L397
0H29V24Z" />
<glyph unicode="&#x17d;" glyph-name="Zcaron" horiz-adv-x="538" d="M23 24L464 661V664H90L73 521H48L55 693H512V669L70 32V29H465L485 168H510L501 0H23V24ZM394 807L289 726H267L162 807L173 825L278 761L383 825L394 807Z" />
<glyph unicode="&#x17e;" glyph-name="zcaron" horiz-adv-x="446" d="M29 24L369 480V483H83L69 383H45L50 508H410V484L71 27V25H364L381 137H405L397 0H29V24ZM609 701L500 596H478L369 701L383 716L489 630L595 716L609 701Z" />
<glyph unicode="&#x192;" glyph-name="florin" horiz-adv-x="370" d="M46 415H134L157 553Q164 595 178 623T211 669T254 694T303 702Q330 702 347 698T377 687V663Q364 667 348 670T309 673Q288 673 270 667T237 647T211 607T194 544L172 415H297V385H167L94
-56Q84 -115 54 -140T-21 -166Q-44 -166 -59 -162T-83 -153V-128Q-75 -131 -60 -134T-28 -137Q5 -137 27 -117T58 -48L129 385H46V415Z" />
<glyph unicode="&#x1fa;" glyph-name="Aringacute" horiz-adv-x="629" d="M-4 22L62 31L299 693H332L569 31L634 22V0H442V22L529 30L459 229H166L96 30L183 22V0H-4V22ZM176 257H449L314 639H312L176 257ZM315 720Q280 720 258 742T236 797Q236 830 258 852T315
875Q350 875 372 853T394 797Q394 765 372 743T315 720ZM315 744Q339 744 353 759T367 797Q367 820 353 836T315 852Q291 852 277 836T263 797Q263 774 277 759T315 744ZM237 901L406 983L421 952L245 879L237 901Z" />
<glyph unicode="&#x1fb;" glyph-name="aringacute" horiz-adv-x="461" d="M183 -9Q111 -9 72 27T32 126Q32 191 73 224T187 265L334 282V361Q334 428 309 455T218 483Q176 483 140 476T66 458V484Q96 496 137 506T225 516Q300 516 335 481T371 369V73Q371 41 385
31T423 20Q431 20 441 21T455 24V5Q447 1 434 -2T405 -6Q374 -6 357 10T338 55H336Q308 26 270 9T183 -9ZM193 21Q236 21 273 38T334 84V250L197 240Q127 235 99 207T70 131Q70 21 193 21ZM479 590Q444 590 422 612T400 667Q400 700 422 722T479 745Q514 745 536
723T558 667Q558 635 536 613T479 590ZM479 614Q503 614 517 629T531 667Q531 690 517 706T479 722Q455 722 441 706T427 667Q427 644 441 629T479 614ZM399 783L568 865L583 834L407 761L399 783Z" />
<glyph unicode="&#x1fc;" glyph-name="AEacute" horiz-adv-x="914" d="M5 23L67 31L431 665L337 671V693H856L865 539H841L821 664H511V370H693L703 465H727V247H703L693 342H511V29H834L857 172H881L872 0H383V22L472 30V217H210L104 31L183 22V0H5V23ZM465 663L225
244H472V663H465ZM534 749L703 831L718 800L542 727L534 749Z" />
<glyph unicode="&#x1fd;" glyph-name="aeacute" horiz-adv-x="773" d="M182 -9Q110 -9 71 29T31 129Q31 194 72 229T186 272L333 289V361Q333 394 327 417T307 455T269 476T210 483Q169 483 137 477T65 458V484Q95 496 136 506T224 516Q291 516 325 488T365 399Q392
456 439 486T547 516Q642 516 693 453T744 264H371Q370 209 379 164T412 88T474 39T571 22Q629 22 665 33T727 58V34Q703 20 664 6T565 -8Q490 -8 444 17T371 86Q358 68 339 51T296 21T243 -1T182 -9ZM359 110Q345 142 339 178T333 257L196 247Q126 242 98 212T69
134Q69 79 100 50T192 21Q244 21 288 46T359 110ZM704 293Q702 394 661 441T545 489Q467 489 423 437T372 289L704 293ZM337 614L497 714L515 685L347 593L337 614Z" />
<glyph unicode="&#x1fe;" glyph-name="Oslashacute" horiz-adv-x="681" d="M337 -10Q274 -10 221 12T129 78L59 -8L37 10L110 101Q78 146 60 207T42 347Q42 435 65 502T128 613T222 680T338 703Q397 703 447 684T536 626L595 700L617 682L555 605Q592 560 612
496T633 348Q633 259 610 192T547 80T453 13T337 -10ZM337 18Q394 18 440 39T521 101T573 202T592 342Q592 420 577 478T533 579L149 104Q215 18 337 18ZM83 351Q83 212 132 128L516 602Q483 639 438 657T337 675Q280 675 234 654T154 592T102 491T83 351ZM259
749L428 831L443 800L267 727L259 749Z" />
<glyph unicode="&#x1ff;" glyph-name="oslashacute" horiz-adv-x="522" d="M261 -9Q216 -9 176 6T104 54L45 -15L23 2L85 75Q60 107 46 150T32 251Q32 315 51 364T101 447T174 498T261 516Q303 516 342 501T413 457L463 515L484 498L431 437Q458 404 474 359T490
255Q490 191 471 142T421 59T348 8T261 -9ZM261 19Q298 19 332 33T392 75T435 148T451 252Q451 303 440 342T409 410L126 80Q152 49 187 34T261 19ZM71 254Q71 206 81 169T109 102L392 432Q366 461 332 474T261 488Q224 488 190 474T129 431T87 358T71 254ZM187
614L347 714L365 685L197 593L187 614Z" />
<glyph unicode="&#x218;" glyph-name="Scommaaccent" horiz-adv-x="518" d="M243 -10Q185 -10 136 2T52 30L47 166H71L86 56Q115 42 151 31T241 19Q293 19 329 30T387 61T420 108T430 169Q430 204 422 229T396 273T348 307T274 338L231 353Q192 366 161 382T108
421T74 471T62 537Q62 571 73 601T109 654T173 690T270 703Q324 703 362 694T432 672L438 548H414L400 645Q383 654 350 664T268 674Q177 674 138 639T99 541Q99 513 106 491T130 451T174 417T243 387L286 372Q330 357 364 340T421 300T456 247T468 173Q468 135
456 102T416 43T347 4T243 -10ZM239 -176Q245 -148 248 -114T252 -42H292Q289 -80 283 -114T266 -176H239Z" />
<glyph unicode="&#x219;" glyph-name="scommaaccent" horiz-adv-x="412" d="M194 -9Q143 -9 106 0T43 20L36 131H60L74 48Q97 36 127 27T196 18Q268 18 301 46T335 124Q335 173 311 196T230 235L163 254Q106 270 75 301T43 384Q43 442 84 478T203 515Q253 515
286 509T345 492L349 390H325L312 463Q294 474 268 481T200 488Q144 488 112 464T80 392Q80 372 84 356T100 327T131 304T180 286L247 267Q307 250 340 220T373 131Q373 68 329 30T194 -9ZM438 -176Q444 -148 447 -114T451 -42H491Q488 -80 482 -114T465 -176H438Z"
/>
<glyph unicode="&#x21a;" glyph-name="uni021A" horiz-adv-x="572" d="M170 22L266 30V664H56L39 529H15L23 693H548L556 529H532L515 664H305V30L402 22V0H170V22ZM253 -176Q259 -148 262 -114T266 -42H306Q303 -80 297 -114T280 -176H253Z" />
<glyph unicode="&#x21b;" glyph-name="uni021B" horiz-adv-x="304" d="M199 -7Q150 -7 120 18T89 104V478H13V498L91 508L98 630H125V508H271V478H125V112Q125 61 145 42T211 22Q231 22 248 26T283 36V15Q267 6 245 0T199 -7ZM399 -176Q405 -148 408 -114T412
-42H452Q449 -80 443 -114T426 -176H399Z" />
<glyph unicode="&#x237;" glyph-name="uni0237" horiz-adv-x="221" d="M20 -194Q3 -194 -9 -192T-36 -184V-162Q-25 -164 -14 -165T12 -167Q53 -167 77 -144T101 -64V473L14 480V501L132 511L137 508V-69Q137 -132 106 -163T20 -194Z" />
<glyph unicode="&#x2c6;" glyph-name="circumflex" horiz-adv-x="489" d="M124 616L233 721H255L364 616L350 601L244 687L138 601L124 616Z" />
<glyph unicode="&#x2c7;" glyph-name="caron" horiz-adv-x="489" d="M364 701L255 596H233L124 701L138 716L244 630L350 716L364 701Z" />
<glyph unicode="&#x2d8;" glyph-name="breve" horiz-adv-x="489" d="M244 604Q199 604 166 633T127 709H153Q160 674 184 654T244 634Q279 634 303 654T335 709H361Q356 662 323 633T244 604Z" />
<glyph unicode="&#x2d9;" glyph-name="dotaccent" horiz-adv-x="489" d="M244 635Q231 635 223 644T215 664Q215 675 223 684T244 693Q257 693 265 684T273 664Q273 653 265 644T244 635Z" />
<glyph unicode="&#x2da;" glyph-name="ring" horiz-adv-x="489" d="M245 590Q210 590 188 612T166 667Q166 700 188 722T245 745Q280 745 302 723T324 667Q324 635 302 613T245 590ZM245 614Q269 614 283 629T297 667Q297 690 283 706T245 722Q221 722 207 706T193
667Q193 644 207 629T245 614Z" />
<glyph unicode="&#x2db;" glyph-name="ogonek" horiz-adv-x="489" d="M248 -198Q205 -198 184 -178T163 -125Q163 -105 171 -87T192 -52T220 -22T248 0H283Q249 -27 224 -58T198 -123Q198 -147 211 -159T257 -172Q269 -172 278 -171T295 -168V-190Q286 -193 276
-195T248 -198Z" />
<glyph unicode="&#x2dc;" glyph-name="tilde" horiz-adv-x="489" d="M119 630Q145 696 193 696Q207 696 220 691T247 679T272 668T297 662Q313 662 325 671T349 703L369 694Q343 629 295 629Q281 629 268 634T241 646T216 657T191 663Q161 663 139 621L119 630Z" />
<glyph unicode="&#x2dd;" glyph-name="hungarumlaut" horiz-adv-x="489" d="M271 595L378 739L404 717L293 580L271 595ZM152 595L259 739L285 717L174 580L152 595Z" />
</font>
</defs>
</svg>
