<?xml version="1.0" standalone="no"?> <!DOCTYPE svg PUBLIC "-//W3C//DTD SVG 1.0//EN" "http://www.w3.org/TR/2001/REC-SVG-20010904/DTD/svg10.dtd" > <svg xmlns="http://www.w3.org/2000/svg" width="100%" height="100%">
<defs >
<font horiz-adv-x="436" ><font-face
    font-family=""
    units-per-em="1000"
    panose-1="2 11 6 3 3 2 2 6 2 3"
    ascent="809"
    descent="-191"
    alphabetic="0" />
<missing-glyph horiz-adv-x="417" />
<glyph unicode=" " glyph-name="space" horiz-adv-x="152" />
<glyph unicode="!" glyph-name="exclam" horiz-adv-x="244" d="M62 693H182L166 205H77L62 693ZM67 111H178V0H67V111Z" />
<glyph unicode="&quot;" glyph-name="quotedbl" horiz-adv-x="334" d="M38 693H143L132 501H49L38 693ZM190 693H295L284 501H201L190 693Z" />
<glyph unicode="#" glyph-name="numbersign" horiz-adv-x="461" d="M46 504H126L151 693H229L205 504H294L318 693H397L372 504H438V416H360L344 293H413V206H333L307 0H228L255 206H165L139 0H61L87 206H20V293H98L114 416H46V504ZM177 293H267L282 416H193L177 293Z" />
<glyph unicode="$" glyph-name="dollar" horiz-adv-x="448" d="M149 -8Q109 -3 79 7T28 30V113Q57 98 90 88T159 75L187 317L176 321Q145 331 119 345T74 382T43 436T32 510Q32 596 82 648T233 703L241 765H304L296 699Q328 694 350 686T387 669V586Q369 594 344
603T286 617L260 399L263 398Q299 387 327 372T374 333T404 277T415 199Q415 105 364 49T211 -11L199 -111H137L149 -8ZM315 187Q315 232 300 255T247 296L221 76Q315 89 315 187ZM130 518Q130 480 144 457T199 418L223 619Q130 613 130 518Z" />
<glyph unicode="%" glyph-name="percent" horiz-adv-x="737" d="M520 713H604L208 -40H125L520 713ZM171 335Q100 335 62 379T24 512V526Q24 609 62 656T170 703Q241 703 279 659T318 529V516Q318 431 281 383T171 335ZM172 401Q203 401 218 423T233 505V535Q233
592 217 615T171 638Q142 638 126 616T110 536V506Q110 447 125 424T172 401ZM566 -9Q494 -9 457 35T419 168V182Q419 266 457 312T565 359Q636 359 674 316T713 185V172Q713 87 675 39T566 -9ZM567 56Q598 56 612 79T627 161V191Q627 248 611 271T566 294Q536
294 521 272T505 192V162Q505 103 520 80T567 56Z" />
<glyph unicode="&amp;" glyph-name="ampersand" horiz-adv-x="563" d="M245 -10Q136 -10 81 43T25 187Q25 259 59 308T157 391Q132 426 117 460T101 540Q101 579 113 609T148 660T201 692T269 703Q345 703 386 664T427 557Q427 524 418 498T392 451T350 411T294
375L414 202Q425 232 431 267T439 343H528Q526 279 511 224T469 123L555 0H433L401 45Q368 19 329 5T245 -10ZM251 73Q312 73 355 110L201 327Q167 303 150 273T133 198Q133 138 163 106T251 73ZM207 548Q207 516 218 492T248 442L253 434Q287 458 307 483T328
553Q328 590 313 608T268 626Q207 626 207 548Z" />
<glyph unicode="&apos;" glyph-name="quotesingle" horiz-adv-x="181" d="M38 693H143L132 501H49L38 693Z" />
<glyph unicode="(" glyph-name="parenleft" horiz-adv-x="295" d="M204 -119Q174 -89 144 -47T91 48T54 163T39 295V318Q39 387 53 449T91 565T144 661T204 734H291Q262 699 236 654T191 557T159 446T147 327V293Q147 233 159 175T190 63T236 -37T291 -119H204Z" />
<glyph unicode=")" glyph-name="parenright" horiz-adv-x="295" d="M4 -119Q33 -84 59 -39T105 59T137 168T149 285V319Q149 379 137 438T105 552T59 652T4 734H92Q122 704 151 661T203 565T241 449T256 318V295Q256 225 242 163T204 49T151 -46T92 -119H4Z" />
<glyph unicode="*" glyph-name="asterisk" horiz-adv-x="332" d="M197 598L273 649L308 586L224 545L308 503L273 440L197 492L201 396H129L134 492L57 440L23 503L107 544L23 586L58 649L133 598L129 693H201L197 598Z" />
<glyph unicode="+" glyph-name="plus" horiz-adv-x="446" d="M176 306H37V396H176V546H270V396H410V306H270V154H176V306Z" />
<glyph unicode="," glyph-name="comma" horiz-adv-x="215" d="M58 115H171L128 -87H42L58 115Z" />
<glyph unicode="-" glyph-name="hyphen" horiz-adv-x="275" d="M46 322H230V235H46V322Z" />
<glyph unicode="." glyph-name="period" horiz-adv-x="218" d="M54 112H164V0H54V112Z" />
<glyph unicode="/" glyph-name="slash" horiz-adv-x="313" d="M205 734H297L90 -119H-2L205 734Z" />
<glyph unicode="0" glyph-name="zero" horiz-adv-x="550" d="M276 -11Q222 -11 178 7T103 64T55 167T38 320V370Q38 542 102 622T275 703Q329 703 373 685T447 628T495 526T512 376V323Q512 153 450 71T276 -11ZM277 78Q344 78 370 134T396 306V386Q396 504 368
559T274 615Q210 615 183 559T156 391V311Q156 196 182 137T277 78Z" />
<glyph unicode="1" glyph-name="one" horiz-adv-x="303" d="M124 578L20 568V632L183 698H234V0H124V578Z" />
<glyph unicode="2" glyph-name="two" horiz-adv-x="435" d="M25 79L168 263Q190 292 210 319T244 373T266 429T275 491Q275 551 247 581T156 611Q119 611 90 603T38 584V669Q64 683 103 693T194 703Q295 703 344 650T393 506Q393 462 383 426T355 355T313 289T259
222L151 92V89H399V0H25V79Z" />
<glyph unicode="3" glyph-name="three" horiz-adv-x="434" d="M178 -10Q121 -10 84 0T21 26V111Q46 98 78 90T145 82Q210 82 245 109T280 203Q280 263 251 290T163 317H109V403H158Q210 403 238 429T266 509Q266 568 238 590T153 612Q117 612 90 606T40 591V674Q66
687 103 695T188 703Q279 703 329 659T379 531Q379 460 349 423T268 371V368Q328 355 362 316T397 196Q397 97 339 44T178 -10Z" />
<glyph unicode="4" glyph-name="four" horiz-adv-x="494" d="M279 166H11V243L288 693H388V252H482V166H388V0H279V166ZM280 252V525H276L110 255V252H280Z" />
<glyph unicode="5" glyph-name="five" horiz-adv-x="432" d="M176 -10Q122 -10 84 0T21 24V108Q46 97 76 89T144 81Q215 81 247 114T280 216Q280 282 248 311T145 341Q116 341 90 338T43 330L64 693H379V603H151L140 422Q151 424 165 425T198 427Q297 427 347
377T398 216Q398 113 341 52T176 -10Z" />
<glyph unicode="6" glyph-name="six" horiz-adv-x="505" d="M262 75Q310 75 334 110T358 214Q358 285 333 316T256 347Q221 347 195 337T155 317V279Q155 179 180 127T262 75ZM263 -11Q207 -11 165 10T94 70T52 165T38 290V346Q38 448 59 516T118 626T205 685T313
703Q355 703 387 697T438 680V595Q421 600 392 606T331 612Q295 612 264 605T209 574T171 506T154 389Q178 406 212 419T292 432Q380 432 426 378T472 223Q472 172 459 129T419 55T354 7T263 -11Z" />
<glyph unicode="7" glyph-name="seven" horiz-adv-x="408" d="M279 598V602H16V693H392V608L183 0H65L279 598Z" />
<glyph unicode="8" glyph-name="eight" horiz-adv-x="507" d="M251 -10Q142 -10 87 38T31 169Q31 236 67 280T159 351Q114 377 84 418T54 525Q54 563 67 595T107 652T171 689T258 703Q357 703 407 657T458 532Q458 472 426 431T348 367Q377 352 401 335T441 295T467
246T476 182Q476 140 461 105T417 44T347 4T251 -10ZM252 74Q303 74 333 98T364 172Q364 198 355 217T329 253T285 284T225 314Q186 294 161 261T136 178Q136 130 167 102T252 74ZM281 402Q316 427 335 455T354 526Q354 568 331 593T259 619Q212 619 188 596T164
531Q164 486 193 458T281 402Z" />
<glyph unicode="9" glyph-name="nine" horiz-adv-x="505" d="M192 -11Q149 -11 115 -3T64 16V100Q81 94 112 88T174 81Q215 81 247 89T301 121T336 188T350 303Q327 286 293 274T216 261Q127 261 80 315T33 470Q33 522 46 565T85 638T152 686T245 703Q358 703
412 625T467 403V346Q467 244 448 176T392 66T306 7T192 -11ZM250 345Q284 345 309 354T350 375V413Q350 518 325 568T245 618Q147 618 147 479Q147 408 172 377T250 345Z" />
<glyph unicode=":" glyph-name="colon" horiz-adv-x="225" d="M56 112H166V0H56V112ZM56 410H166V298H56V410Z" />
<glyph unicode=";" glyph-name="semicolon" horiz-adv-x="227" d="M58 115H171L128 -87H42L58 115ZM58 410H168V298H58V410Z" />
<glyph unicode="&lt;" glyph-name="less" horiz-adv-x="405" d="M36 279V362L359 535V433L135 321L359 209V105L36 279Z" />
<glyph unicode="=" glyph-name="equal" horiz-adv-x="450" d="M45 433H405V348H45V433ZM45 262H405V176H45V262Z" />
<glyph unicode="&gt;" glyph-name="greater" horiz-adv-x="405" d="M45 208L269 322L45 433V535L369 362V279L45 105V208Z" />
<glyph unicode="?" glyph-name="question" horiz-adv-x="365" d="M94 259Q94 285 98 304T113 339T139 373T177 411Q192 425 202 437T218 462T227 490T230 526Q230 577 203 596T125 615Q90 615 67 610T21 597V679Q46 690 80 696T158 703Q242 703 292 663T342 534Q342
503 337 480T322 437T295 398T254 357Q236 340 224 328T204 305T193 280T189 249V205H94V259ZM88 111H198V0H88V111Z" />
<glyph unicode="@" glyph-name="at" horiz-adv-x="795" d="M395 -152Q312 -152 247 -130T135 -63T65 52T40 217Q40 319 68 403T147 548T272 643T437 677Q517 677 577 652T678 583T738 477T758 341Q758 263 743 206T700 110T635 52T554 31Q506 31 482 48T449 93H445Q427
69 400 51T335 33Q275 33 243 73T211 188Q211 255 224 309T263 400T323 457T402 477Q431 477 452 468T488 446H492L498 471H588L535 160Q526 101 567 101Q619 101 649 164T680 337Q680 398 667 448T623 534T547 588T434 608Q359 608 301 580T202 501T140 377T118
215Q118 63 189 -10T395 -83Q461 -83 511 -70T596 -45V-105Q561 -124 507 -138T395 -152ZM366 107Q389 107 407 118T437 141L475 384Q467 393 451 400T414 407Q385 407 366 387T334 337T317 268T312 194Q312 147 325 127T366 107Z" />
<glyph unicode="A" glyph-name="A" horiz-adv-x="533" d="M202 693H330L525 0H411L364 173H157L111 0H8L202 693ZM258 569Q256 554 252 537Q249 523 245 506T237 472L180 258H340L283 472Q279 488 276 505T269 536Q265 553 262 569H258Z" />
<glyph unicode="B" glyph-name="B" horiz-adv-x="510" d="M58 693H257Q366 693 412 648T459 520Q459 460 434 421T351 366V362Q411 354 447 317T483 195Q483 106 431 53T263 0H58V693ZM248 85Q314 85 340 114T367 205Q367 268 337 292T247 317H169V85H248ZM233
398Q286 398 317 421T348 506Q348 565 321 586T240 608H169V398H233Z" />
<glyph unicode="C" glyph-name="C" horiz-adv-x="481" d="M300 -10Q237 -10 188 9T104 68T51 170T33 320V371Q33 465 54 529T113 631T201 686T310 703Q357 703 391 694T450 671V584Q420 596 389 604T318 612Q280 612 250 600T197 561T164 490T152 380V323Q152
206 189 144T320 81Q365 81 398 91T457 115V27Q430 11 391 1T300 -10Z" />
<glyph unicode="D" glyph-name="D" horiz-adv-x="560" d="M59 693H244Q312 693 365 675T454 619T509 520T528 376V335Q528 171 458 86T245 0H59V693ZM246 89Q331 89 370 143T410 322V376Q410 441 399 485T366 555T312 593T239 604H170V89H246Z" />
<glyph unicode="E" glyph-name="E" horiz-adv-x="459" d="M59 693H423V604H170V401H370V313H170V89H427V0H59V693Z" />
<glyph unicode="F" glyph-name="F" horiz-adv-x="437" d="M58 693H415V604H170V386H364V297H170V0H58V693Z" />
<glyph unicode="G" glyph-name="G" horiz-adv-x="545" d="M308 -10Q243 -10 192 7T106 64T52 168T33 328V366Q33 456 53 519T110 624T201 684T322 703Q379 703 416 693T475 669V580Q449 591 414 601T327 611Q276 611 242 595T188 549T160 475T151 378V318Q151
260 158 216T184 141T233 95T313 79Q337 79 358 83T394 92V275H291V362H501V27Q470 13 421 2T308 -10Z" />
<glyph unicode="H" glyph-name="H" horiz-adv-x="574" d="M59 693H170V403H404V693H515V0H404V313H170V0H59V693Z" />
<glyph unicode="I" glyph-name="I" horiz-adv-x="232" d="M60 693H172V0H60V693Z" />
<glyph unicode="J" glyph-name="J" horiz-adv-x="361" d="M134 -7Q95 -7 69 -2T20 14V99Q37 94 59 90T110 86Q155 86 174 109T193 180V693H305V173Q305 134 296 101T267 44T214 7T134 -7Z" />
<glyph unicode="K" glyph-name="K" horiz-adv-x="524" d="M183 355L388 693H506L302 364L515 0H388L183 355ZM59 693H170V0H59V693Z" />
<glyph unicode="L" glyph-name="L" horiz-adv-x="427" d="M59 693H170V89H407V0H59V693Z" />
<glyph unicode="M" glyph-name="M" horiz-adv-x="701" d="M59 693H220L322 287Q328 261 333 235T343 189Q347 164 351 143H353Q358 164 362 189Q366 209 371 235T383 287L483 693H642V0H536V371Q536 400 536 435T538 502Q539 538 541 573H538Q531 544 525 515Q520
490 513 461T500 407L395 0H297L193 402Q188 422 182 450T169 506Q162 538 155 571H152L154 501Q155 471 155 436T156 370V0H59V693Z" />
<glyph unicode="N" glyph-name="N" horiz-adv-x="571" d="M59 693H191L362 302Q372 279 382 254L400 209Q409 185 417 162H419Q417 179 416 201Q415 219 415 244T414 300V693H512V0H393L216 393Q203 422 192 450T173 500Q163 526 155 549H152Q153 531 154 508Q155
488 156 460T157 396V0H59V693Z" />
<glyph unicode="O" glyph-name="O" horiz-adv-x="581" d="M291 -10Q231 -10 183 9T102 68T51 172T33 323V369Q33 534 100 618T291 703Q412 703 480 623T548 372V323Q548 161 482 76T291 -10ZM292 79Q365 79 397 138T430 305V375Q430 492 399 553T289 614Q251 614
225 598T183 553T159 482T151 389V319Q151 262 158 217T182 142T226 95T292 79Z" />
<glyph unicode="P" glyph-name="P" horiz-adv-x="491" d="M59 693H255Q364 693 417 642T470 482Q470 375 416 320T258 264H170V0H59V693ZM241 349Q302 349 328 380T354 477Q354 549 329 577T242 605H170V349H241Z" />
<glyph unicode="Q" glyph-name="Q" horiz-adv-x="583" d="M223 -5Q179 9 144 32T85 94T47 188T33 325V369Q33 534 100 618T291 703Q412 703 480 623T549 372V325Q549 197 510 125T397 28L577 -18L551 -113L223 -5ZM292 76Q366 76 398 136T430 303V375Q430 492
399 553T289 615Q252 615 226 599T184 554T160 483T152 389V318Q152 202 182 139T292 76Z" />
<glyph unicode="R" glyph-name="R" horiz-adv-x="509" d="M59 693H251Q362 693 413 646T465 491Q465 415 436 375T358 314V309L503 0H385L255 284H170V0H59V693ZM242 365Q299 365 324 394T349 485Q349 550 325 577T239 605H170V365H242Z" />
<glyph unicode="S" glyph-name="S" d="M191 -11Q136 -11 94 0T25 28V118Q57 103 97 92T180 81Q241 81 269 107T297 189Q297 214 292 230T276 259T248 280T209 300L161 321Q130 334 106 350T64 389T37 442T28 512Q28 602 81 652T236 703Q293 703 325 694T380 673V584Q356
595 321 604T241 613Q136 613 136 521Q136 480 153 460T212 421L260 401Q293 387 320 372T367 334T398 280T409 202Q409 155 397 116T358 49T290 5T191 -11Z" />
<glyph unicode="T" glyph-name="T" horiz-adv-x="460" d="M175 604H15V693H445V604H287V0H175V604Z" />
<glyph unicode="U" glyph-name="U" horiz-adv-x="559" d="M282 -11Q164 -11 110 46T55 211V693H167V219Q167 144 195 112T286 79Q348 79 373 111T399 220V693H504V214Q504 102 451 46T282 -11Z" />
<glyph unicode="V" glyph-name="V" horiz-adv-x="525" d="M9 693H125L242 246Q247 224 252 205T260 170Q264 152 266 137H268Q271 151 275 169Q278 184 282 203T293 246L409 693H516L323 0H201L9 693Z" />
<glyph unicode="W" glyph-name="W" horiz-adv-x="756" d="M15 693H127L205 261Q207 249 210 232T215 199Q218 181 221 161H224Q226 179 230 197Q232 212 235 230T242 262L335 693H433L522 263Q524 250 527 233T534 199Q538 180 541 160H543Q545 174 548 192Q550
206 552 225T559 264L639 693H741L603 0H485L401 398Q397 417 394 438T388 476Q384 496 381 516H379Q376 495 372 475Q369 458 365 438T358 399L272 0H152L15 693Z" />
<glyph unicode="X" glyph-name="X" horiz-adv-x="530" d="M200 354L30 693H152L233 527Q241 510 248 495T261 467Q268 453 274 440H277Q282 453 288 467Q293 479 300 494T315 527L391 693H503L339 358L513 0H393L304 186Q295 206 288 221T275 248Q269 261 264
271H261Q256 259 249 245L219 185L128 0H17L200 354Z" />
<glyph unicode="Y" glyph-name="Y" horiz-adv-x="496" d="M193 261L6 693H126L208 489Q219 462 227 441T242 404Q249 386 254 373H257Q262 385 268 403Q273 418 281 439T301 489L382 693H490L306 262V0H193V261Z" />
<glyph unicode="Z" glyph-name="Z" horiz-adv-x="457" d="M25 80L304 601V604H44V693H433V612L152 92V89H427V0H25V80Z" />
<glyph unicode="[" glyph-name="bracketleft" horiz-adv-x="298" d="M59 734H273V653H162V-38H273V-119H59V734Z" />
<glyph unicode="\" glyph-name="backslash" horiz-adv-x="310" d="M13 734H105L311 -119H220L13 734Z" />
<glyph unicode="]" glyph-name="bracketright" horiz-adv-x="298" d="M26 -38H135V653H26V734H238V-119H26V-38Z" />
<glyph unicode="^" glyph-name="asciicircum" horiz-adv-x="393" d="M153 693H240L366 452H279L197 598L114 452H28L153 693Z" />
<glyph unicode="_" glyph-name="underscore" horiz-adv-x="293" d="M-2 -53H295V-122H-2V-53Z" />
<glyph unicode="`" glyph-name="grave" horiz-adv-x="419" d="M83 726H194L261 585H175L83 726Z" />
<glyph unicode="a" glyph-name="a" horiz-adv-x="425" d="M168 -8Q102 -8 62 28T22 140Q22 212 61 249T174 297L274 312V354Q274 404 252 422T173 441Q139 441 111 436T62 423V498Q90 510 127 518T214 527Q297 527 338 491T379 377V0H292L284 36H279Q262 17 234
5T168 -8ZM200 68Q224 68 243 75T274 91V238L203 230Q165 225 147 206T128 149Q128 68 200 68Z" />
<glyph unicode="b" glyph-name="b" horiz-adv-x="480" d="M223 -10Q173 -10 125 -1T48 19V734H154V488H158Q178 503 209 515T283 527Q317 527 348 516T402 477T438 405T452 292V258Q452 -10 223 -10ZM228 72Q253 72 274 79T310 106T335 159T344 243V285Q344 331
338 361T318 409T286 434T239 441Q211 441 189 433T154 419V83Q165 78 184 75T228 72Z" />
<glyph unicode="c" glyph-name="c" horiz-adv-x="384" d="M239 -8Q138 -8 82 51T26 243V273Q26 340 42 388T87 467T156 512T246 527Q287 527 314 520T361 500V416Q338 426 314 434T251 442Q189 442 162 401T134 284V245Q134 153 164 115T256 77Q295 77 322 87T366
106V26Q346 12 315 2T239 -8Z" />
<glyph unicode="d" glyph-name="d" horiz-adv-x="479" d="M209 -8Q171 -8 139 4T81 46T42 122T28 240V264Q28 395 79 461T228 527Q260 527 285 520T327 503V734H431V0H342L334 38H330Q310 18 280 5T209 -8ZM242 75Q270 75 291 84T327 104V426Q315 434 294 439T247
445Q189 445 163 406T137 274V243Q137 154 162 115T242 75Z" />
<glyph unicode="e" glyph-name="e" horiz-adv-x="441" d="M251 -8Q136 -8 81 56T26 246V271Q26 399 79 463T227 527Q325 527 370 468T416 279V226H133Q135 145 168 111T268 76Q309 76 342 86T402 110V37Q382 20 343 6T251 -8ZM225 447Q184 447 160 415T133 302H311Q311
381 291 414T225 447Z" />
<glyph unicode="f" glyph-name="f" horiz-adv-x="283" d="M73 437H13V519H73V586Q73 667 112 704T218 741Q247 741 268 736T300 726V654Q290 656 277 658T247 660Q210 660 195 640T179 576V519H271V437H179V0H73V437Z" />
<glyph unicode="g" glyph-name="g" horiz-adv-x="442" d="M212 -194Q109 -194 58 -160T6 -69Q6 -24 32 2T95 42V46Q72 55 57 73T42 122Q42 151 57 174T98 217Q72 234 54 265T35 345V360Q35 400 48 431T85 483T141 516T213 527Q254 527 286 518H435V445H368Q378
431 385 411T392 364V349Q392 309 379 279T342 228T286 198T215 187Q196 187 179 188T147 195Q140 188 136 178T131 157Q131 120 175 120H278Q435 120 435 -23Q435 -99 381 -146T212 -194ZM211 -118Q279 -118 306 -97T333 -37Q333 -8 317 9T257 26H158Q137 18 122
-1T107 -50Q107 -82 132 -100T211 -118ZM214 258Q251 258 271 279T292 345V364Q292 413 271 434T214 455Q176 455 156 433T136 366V347Q136 301 157 280T214 258Z" />
<glyph unicode="h" glyph-name="h" horiz-adv-x="473" d="M48 734H153V479H157Q183 499 218 513T298 527Q361 527 393 497T426 398V0H321V380Q321 412 306 425T251 439Q222 439 196 431T153 413V0H48V734Z" />
<glyph unicode="i" glyph-name="i" horiz-adv-x="203" d="M49 519H155V0H49V519ZM48 706H155V605H48V706Z" />
<glyph unicode="j" glyph-name="j" horiz-adv-x="203" d="M19 -197Q-6 -197 -23 -193T-54 -180V-110Q-46 -111 -35 -112T-13 -114Q19 -114 34 -97T50 -41V519H154V-48Q154 -81 147 -108T124 -155T82 -186T19 -197ZM49 706H155V605H49V706Z" />
<glyph unicode="k" glyph-name="k" d="M154 0H48V734H154V0ZM307 519H418L273 277L429 0H311L162 270L307 519Z" />
<glyph unicode="l" glyph-name="l" horiz-adv-x="201" d="M48 734H153V0H48V734Z" />
<glyph unicode="m" glyph-name="m" horiz-adv-x="714" d="M48 519H149V477H153Q179 496 213 511T288 527Q329 527 354 514T395 472H399Q430 495 466 511T545 527Q602 527 634 498T667 399V0H562V381Q562 410 548 424T498 439Q475 439 453 432T410 413V0H305V381Q305
412 292 425T243 439Q217 439 195 431T154 413V0H48V519Z" />
<glyph unicode="n" glyph-name="n" horiz-adv-x="473" d="M48 519H148V477H152Q179 497 216 512T298 527Q361 527 393 497T426 398V0H321V380Q321 412 306 425T251 439Q222 439 196 431T153 413V0H48V519Z" />
<glyph unicode="o" glyph-name="o" horiz-adv-x="471" d="M235 -8Q130 -8 78 57T26 243V275Q26 393 82 460T235 527Q339 527 392 463T445 276V245Q445 126 390 59T235 -8ZM236 74Q288 74 312 116T337 231V285Q337 371 310 408T234 445Q182 445 158 403T134 287V233Q134
152 160 113T236 74Z" />
<glyph unicode="p" glyph-name="p" horiz-adv-x="479" d="M48 519H149V478H153Q173 498 205 512T280 527Q319 527 350 514T404 473T439 399T452 288V256Q452 122 402 57T254 -8Q219 -8 194 0T154 17V-191H48V519ZM235 72Q292 72 318 112T344 243V282Q344 368 320
404T243 440Q213 440 190 432T154 413V93Q165 85 187 79T235 72Z" />
<glyph unicode="q" glyph-name="q" horiz-adv-x="478" d="M323 28Q305 14 276 3T206 -8Q171 -8 139 3T82 42T43 116T28 230V262Q28 334 44 384T90 466T163 512T259 527Q317 527 361 518T431 495V-191H327V28H323ZM251 446Q225 446 204 438T168 409T145 356T137
273V233Q137 188 143 158T163 109T196 84T242 76Q271 76 292 84T327 104V434Q314 439 295 442T251 446Z" />
<glyph unicode="r" glyph-name="r" horiz-adv-x="304" d="M48 519H149V463H153Q172 489 202 507T267 526Q284 526 294 522V426Q288 427 278 427T260 428Q228 428 202 420T154 396V0H48V519Z" />
<glyph unicode="s" glyph-name="s" horiz-adv-x="358" d="M159 -8Q116 -8 82 0T22 22V102Q47 92 75 84T145 75Q193 75 213 92T233 142Q233 172 219 187T169 215L128 230Q77 249 50 282T22 375Q22 447 66 487T194 527Q239 527 266 520T313 502V421Q293 429 266
436T203 444Q164 444 143 431T122 386Q122 360 135 346T180 321L218 308Q279 287 307 254T336 155Q336 75 290 34T159 -8Z" />
<glyph unicode="t" glyph-name="t" horiz-adv-x="303" d="M197 -6Q139 -6 106 21T73 116V437H13V519H73V639H177V519H278V437H177V132Q177 100 189 89T232 77Q247 77 259 79L282 84V14Q270 6 249 0T197 -6Z" />
<glyph unicode="u" glyph-name="u" horiz-adv-x="468" d="M178 -8Q109 -8 78 28T47 131V519H152V141Q152 110 165 95T221 79Q249 79 274 88T315 106V519H420V0H330L321 42H317Q291 23 257 8T178 -8Z" />
<glyph unicode="v" glyph-name="v" horiz-adv-x="439" d="M8 519H119L203 209Q207 192 211 177T217 150Q220 136 222 124H226Q228 135 231 149Q233 160 236 176T245 209L329 519H431L276 0H165L8 519Z" />
<glyph unicode="w" glyph-name="w" horiz-adv-x="642" d="M11 519H118L174 245Q179 222 182 202T188 168Q191 151 194 138H197Q199 151 203 168Q206 182 210 202T220 245L281 519H372L434 245Q439 220 443 201T451 167Q455 150 457 138H460Q461 151 465 168Q467
182 471 201T480 244L535 519H631L512 0H405L348 238Q343 261 339 282T330 321Q326 340 322 357H320Q317 340 313 321Q309 304 304 283T294 238L236 0H132L11 519Z" />
<glyph unicode="x" glyph-name="x" horiz-adv-x="431" d="M153 264L18 519H134L190 408Q198 390 204 377L215 356Q219 346 223 339H225Q225 343 255 408L306 519H409L281 266L420 0H305L246 120Q238 137 232 150T221 172L212 190H211Q206 181 201 170Q196 160
190 147T176 119L116 0H11L153 264Z" />
<glyph unicode="y" glyph-name="y" horiz-adv-x="437" d="M101 -197Q83 -197 65 -193T33 -183V-110Q43 -112 56 -113T80 -114Q112 -114 130 -98T161 -40L175 2L8 519H120L206 225Q211 207 214 193T220 167Q223 155 225 146H228L233 171Q238 195 247 224L326 519H429L257
-54Q235 -126 201 -161T101 -197Z" />
<glyph unicode="z" glyph-name="z" horiz-adv-x="392" d="M26 76L241 434V437H36V519H366V447L147 85V82H364V0H26V76Z" />
<glyph unicode="{" glyph-name="braceleft" horiz-adv-x="326" d="M300 -121Q239 -120 201 -108T140 -75T110 -26T102 37V179Q102 227 82 246T13 267V351Q62 353 82 372T102 438V582Q102 616 110 644T140 693T200 726T300 740V658Q275 656 257 652T227 639T210
614T204 570V433Q204 412 201 393T187 358T158 330T108 311V308Q139 302 157 290T186 261T200 226T204 185V48Q204 21 209 5T227 -20T257 -33T300 -39V-121Z" />
<glyph unicode="|" glyph-name="bar" horiz-adv-x="242" d="M78 734H164V-120H78V734Z" />
<glyph unicode="}" glyph-name="braceright" horiz-adv-x="326" d="M26 -39Q50 -37 68 -33T98 -20T115 5T121 49V186Q121 207 124 226T138 262T168 290T218 309V312Q187 318 168 330T139 359T125 394T121 435V570Q121 597 116 613T98 639T68 652T26 658V740Q87
738 125 727T186 694T216 645T224 582V440Q224 393 243 374T312 352V269Q263 267 244 248T224 181V38Q224 3 216 -25T186 -75T126 -108T26 -121V-39Z" />
<glyph unicode="~" glyph-name="asciitilde" horiz-adv-x="355" d="M26 239Q29 272 37 295T59 332T88 353T122 359Q139 359 153 354T180 342T204 331T228 325Q240 325 248 334T259 360H330Q325 297 298 269T235 240Q217 240 203 245T176 257T152 268T130 274Q116
274 108 264T97 239H26Z" />
<glyph unicode="&#xa0;" glyph-name="uni00A0" horiz-adv-x="152" />
<glyph unicode="&#xa1;" glyph-name="exclamdown" horiz-adv-x="244" d="M77 369H166L182 -120H62L77 369ZM66 573H177V462H66V573Z" />
<glyph unicode="&#xa2;" glyph-name="cent" horiz-adv-x="388" d="M179 -3Q106 13 66 71T26 241V271Q26 339 42 387T87 466T157 511T245 526H246L254 590H320L311 519Q345 512 367 499V417Q353 423 336 428T300 437L252 73H259Q298 73 326 83T371 100V26Q351 12
319 2T241 -9L228 -113H165L179 -3ZM133 244Q133 181 147 144T190 89L235 441Q181 435 157 395T133 283V244Z" />
<glyph unicode="&#xa3;" glyph-name="sterling" horiz-adv-x="455" d="M40 383H102V497Q102 554 118 593T161 656T224 692T301 703Q345 703 374 695T419 678V594Q379 610 329 610Q303 610 282 604T247 584T224 547T216 489V383H365V305H216V250Q216 218 212 194T201
152T182 119T155 92V90H426V0H34V79Q71 103 86 136T102 233V305H40V383Z" />
<glyph unicode="&#xa5;" glyph-name="yen" horiz-adv-x="502" d="M197 138H63V214H197V283H63V360H174L18 693H139L209 533Q221 504 230 481T246 441Q253 422 258 406H261Q266 421 273 440Q279 457 288 480T310 532L379 693H488L331 360H444V283H310V214H444V138H310V0H197V138Z"
/>
<glyph unicode="&#xa6;" glyph-name="brokenbar" horiz-adv-x="252" d="M79 274H173V-120H79V274ZM79 729H173V352H79V729Z" />
<glyph unicode="&#xa7;" glyph-name="section" horiz-adv-x="438" d="M197 -130Q105 -130 52 -96V-15Q80 -28 109 -37T184 -46Q281 -46 281 31Q281 48 278 60T268 81T248 97T217 111L146 137Q88 158 54 192T20 291Q20 346 45 375T108 418Q85 437 71 467T57 542Q57
615 102 659T241 703Q288 703 318 695T368 675V594Q347 604 318 611T250 619Q203 619 182 602T160 547Q160 515 173 499T216 471L289 445Q320 434 344 421T386 391T411 348T420 288Q420 193 337 159Q364 139 376 111T388 40Q388 -42 340 -86T197 -130ZM319 272Q319
306 303 324T247 357L183 380Q120 365 120 303Q120 273 134 255T181 224Q182 224 191 221T210 213T230 206L239 203L257 196Q286 204 302 223T319 272Z" />
<glyph unicode="&#xa8;" glyph-name="dieresis" horiz-adv-x="425" d="M246 704H343V605H246V704ZM82 704H179V605H82V704Z" />
<glyph unicode="&#xa9;" glyph-name="copyright" horiz-adv-x="669" d="M336 -11Q268 -11 212 13T116 84T53 196T31 346Q31 428 53 494T115 606T211 676T335 701Q402 701 458 677T555 607T617 495T640 346Q640 264 618 198T555 86T459 14T336 -11ZM335 38Q392
38 438 58T516 118T566 215T584 346Q584 419 566 476T516 572T437 631T335 652Q278 652 233 632T155 572T105 476T88 346Q88 272 105 215T155 119T233 59T335 38ZM347 148Q275 148 234 192T192 335V359Q192 411 204 446T238 504T289 536T352 546Q381 546 402 540T437
527V455Q422 462 405 466T361 471Q319 471 302 444T284 365V337Q284 275 303 248T366 221Q393 221 410 227T440 240V170Q425 162 402 155T347 148Z" />
<glyph unicode="&#xaa;" glyph-name="ordfeminine" horiz-adv-x="384" d="M149 222Q87 222 52 256T16 357Q16 421 52 453T156 496L242 508V544Q242 588 223 604T153 621Q121 621 96 616T52 606V675Q77 686 111 693T191 701Q265 701 302 668T340 566V230H259L250
262H246Q232 245 208 234T149 222ZM176 293Q198 293 215 299T242 313V442L182 436Q147 432 131 415T114 363Q114 293 176 293Z" />
<glyph unicode="&#xab;" glyph-name="guillemotleft" horiz-adv-x="411" d="M32 236V270L120 450H212L121 252L212 55H120L32 236ZM197 236V270L285 450H377L286 252L377 55H285L197 236Z" />
<glyph unicode="&#xae;" glyph-name="registered" horiz-adv-x="372" d="M187 314Q150 314 119 327T66 366T31 428T18 510Q18 555 30 590T65 651T118 690T186 704Q261 704 307 653T354 510Q354 466 342 430T307 368T254 328T187 314ZM186 344Q248 344 283 388T319
510Q319 587 284 631T186 675Q124 675 89 631T54 510Q54 432 89 388T186 344ZM122 611H192Q257 611 257 553Q257 531 250 519T230 501V499L267 415H218L187 489H170V415H122V611ZM186 526Q208 526 208 550Q208 564 203 569T185 574H170V526H186Z" />
<glyph unicode="&#xaf;" glyph-name="macron" horiz-adv-x="419" d="M100 686H318V606H100V686Z" />
<glyph unicode="&#xb0;" glyph-name="degree" horiz-adv-x="342" d="M171 437Q141 437 117 447T75 474T47 516T37 570Q37 598 46 622T73 664T115 692T170 703Q231 703 267 666T304 570Q304 541 295 517T268 475T226 447T171 437ZM171 494Q202 494 219 514T237
570Q237 604 219 624T170 645Q140 645 123 625T105 570Q105 536 123 515T171 494Z" />
<glyph unicode="&#xb4;" glyph-name="acute" horiz-adv-x="419" d="M224 726H336L244 585H157L224 726Z" />
<glyph unicode="&#xb6;" glyph-name="paragraph" horiz-adv-x="508" d="M243 335H204Q166 335 134 346T79 379T42 436T28 515Q28 553 39 585T73 642T134 679T223 693H449V-120H378V630H314V-120H243V335Z" />
<glyph unicode="&#xb7;" glyph-name="periodcentered" horiz-adv-x="216" d="M54 375H163V264H54V375Z" />
<glyph unicode="&#xb8;" glyph-name="cedilla" horiz-adv-x="419" d="M167 -164Q213 -160 232 -151T252 -124Q252 -106 236 -100T186 -94V3H242V-47Q283 -49 306 -66T330 -119Q330 -164 293 -188T167 -218V-164Z" />
<glyph unicode="&#xba;" glyph-name="ordmasculine" horiz-adv-x="424" d="M211 222Q116 222 70 281T23 447V475Q23 581 73 641T212 701Q306 701 354 644T402 477V449Q402 343 352 283T211 222ZM213 298Q258 298 279 335T300 436V485Q300 560 277 592T211 625Q165
625 144 588T123 486V438Q123 367 146 333T213 298Z" />
<glyph unicode="&#xbb;" glyph-name="guillemotright" horiz-adv-x="413" d="M124 252L33 450H126L214 270V236L126 55H33L124 252ZM290 252L199 450H292L380 270V236L292 55H199L290 252Z" />
<glyph unicode="&#xbc;" glyph-name="onequarter" horiz-adv-x="678" d="M85 610L16 601V652L121 695H170V276H85V610ZM493 713H572L143 -40H65L493 713ZM525 95H365V150L530 417H607V156H658V95H607V0H525V95ZM528 156V302H526L437 159V156H528Z" />
<glyph unicode="&#xbd;" glyph-name="onehalf" horiz-adv-x="712" d="M485 713H564L135 -40H57L485 713ZM85 610L16 601V652L121 695H170V276H85V610ZM440 54L525 160Q555 195 571 223T587 287Q587 357 521 357Q497 357 478 352T445 340V402Q462 410 487 417T546
424Q612 424 644 391T677 297Q677 249 656 212T597 135L540 67V65H683V0H440V54Z" />
<glyph unicode="&#xbe;" glyph-name="threequarters" horiz-adv-x="722" d="M124 269Q88 269 64 275T23 291V352Q38 345 58 340T99 335Q137 335 158 349T179 400Q179 432 162 446T111 461H75V521H108Q170 521 170 578Q170 610 154 621T102 633Q82 633 65 630T34
622V682Q51 690 75 694T130 699Q190 699 222 673T255 596Q255 552 237 530T188 498V496Q225 489 246 466T267 393Q267 334 230 302T124 269ZM536 713H615L186 -40H108L536 713ZM569 95H409V150L574 417H651V156H702V95H651V0H569V95ZM572 156V302H570L481 159V156H572Z"
/>
<glyph unicode="&#xbf;" glyph-name="questiondown" horiz-adv-x="366" d="M207 -130Q166 -130 132 -120T74 -90T37 -37T23 39Q23 70 28 93T43 136T70 174T111 216Q129 233 141 245T161 268T172 293T176 324V369H272V314Q272 288 268 269T253 234T227 200T189
162Q174 148 164 136T148 111T138 83T135 47Q135 -4 163 -23T241 -42Q276 -42 299 -37T345 -24V-106Q320 -117 285 -123T207 -130ZM168 573H278V462H168V573Z" />
<glyph unicode="&#xc0;" glyph-name="Agrave" horiz-adv-x="533" d="M202 693H330L525 0H411L364 173H157L111 0H8L202 693ZM258 569Q256 554 252 537Q249 523 245 506T237 472L180 258H340L283 472Q279 488 276 505T269 536Q265 553 262 569H258ZM154 857H264L315
734H229L154 857Z" />
<glyph unicode="&#xc1;" glyph-name="Aacute" horiz-adv-x="533" d="M202 693H330L525 0H411L364 173H157L111 0H8L202 693ZM258 569Q256 554 252 537Q249 523 245 506T237 472L180 258H340L283 472Q279 488 276 505T269 536Q265 553 262 569H258ZM272 857H383L305
735H219L272 857Z" />
<glyph unicode="&#xc2;" glyph-name="Acircumflex" horiz-adv-x="533" d="M202 693H330L525 0H411L364 173H157L111 0H8L202 693ZM258 569Q256 554 252 537Q249 523 245 506T237 472L180 258H340L283 472Q279 488 276 505T269 536Q265 553 262 569H258ZM220 854H306L393
734H315L262 786L213 734H134L220 854Z" />
<glyph unicode="&#xc3;" glyph-name="Atilde" horiz-adv-x="533" d="M202 693H330L525 0H411L364 173H157L111 0H8L202 693ZM258 569Q256 554 252 537Q249 523 245 506T237 472L180 258H340L283 472Q279 488 276 505T269 536Q265 553 262 569H258ZM127 740Q130
798 156 823T215 848Q231 848 244 844T268 834T290 824T311 819Q334 819 340 849H406Q401 793 376 767T317 741Q301 741 288 745T264 755T242 764T222 769Q208 769 202 762T192 740H127Z" />
<glyph unicode="&#xc4;" glyph-name="Adieresis" horiz-adv-x="533" d="M202 693H330L525 0H411L364 173H157L111 0H8L202 693ZM258 569Q256 554 252 537Q249 523 245 506T237 472L180 258H340L283 472Q279 488 276 505T269 536Q265 553 262 569H258ZM294 836H391V739H294V836ZM134
836H231V739H134V836Z" />
<glyph unicode="&#xc5;" glyph-name="Aring" horiz-adv-x="533" d="M202 693H330L525 0H411L364 173H157L111 0H8L202 693ZM258 569Q256 554 252 537Q249 523 245 506T237 472L180 258H340L283 472Q279 488 276 505T269 536Q265 553 262 569H258ZM266 724Q226
724 200 749T173 815Q173 856 199 881T266 907Q307 907 332 882T358 816Q358 776 333 750T266 724ZM266 771Q285 771 295 783T306 816Q306 836 295 848T266 860Q247 860 236 848T225 816Q225 796 236 784T266 771Z" />
<glyph unicode="&#xc6;" glyph-name="AE" horiz-adv-x="757" d="M296 693H721V604H471V401H668V313H471V89H726V0H361V178H180L105 0H-2L296 693ZM216 264H361V603H357L216 264Z" />
<glyph unicode="&#xc7;" glyph-name="Ccedilla" horiz-adv-x="481" d="M300 -10H290Q285 -10 280 -9V-47Q321 -49 343 -66T366 -119Q366 -164 330 -188T205 -218V-164Q251 -159 270 -150T289 -124Q289 -106 273 -100T224 -94V-2Q132 18 83 96T33 320V371Q33 465
54 529T113 631T201 686T310 703Q357 703 391 694T450 671V584Q420 596 389 604T318 612Q280 612 250 600T197 561T164 490T152 380V323Q152 206 189 144T320 81Q365 81 398 91T457 115V27Q430 11 391 1T300 -10Z" />
<glyph unicode="&#xc8;" glyph-name="Egrave" horiz-adv-x="459" d="M137 857H247L298 734H212L137 857ZM59 693H423V604H170V401H370V313H170V89H427V0H59V693Z" />
<glyph unicode="&#xc9;" glyph-name="Eacute" horiz-adv-x="459" d="M250 857H361L283 735H197L250 857ZM59 693H423V604H170V401H370V313H170V89H427V0H59V693Z" />
<glyph unicode="&#xca;" glyph-name="Ecircumflex" horiz-adv-x="459" d="M200 854H286L373 734H295L242 786L193 734H114L200 854ZM59 693H423V604H170V401H370V313H170V89H427V0H59V693Z" />
<glyph unicode="&#xcb;" glyph-name="Edieresis" horiz-adv-x="459" d="M59 693H423V604H170V401H370V313H170V89H427V0H59V693ZM275 836H372V739H275V836ZM115 836H212V739H115V836Z" />
<glyph unicode="&#xcc;" glyph-name="Igrave" horiz-adv-x="232" d="M60 693H172V0H60V693ZM262 857H372L423 734H337L262 857Z" />
<glyph unicode="&#xcd;" glyph-name="Iacute" horiz-adv-x="232" d="M60 693H172V0H60V693ZM382 857H493L415 735H329L382 857Z" />
<glyph unicode="&#xce;" glyph-name="Icircumflex" horiz-adv-x="232" d="M73 854H158L238 734H162L114 788L69 734H-8L73 854ZM60 693H172V0H60V693Z" />
<glyph unicode="&#xcf;" glyph-name="Idieresis" horiz-adv-x="232" d="M140 836H231V739H140V836ZM-1 836H90V739H-1V836ZM60 693H172V0H60V693Z" />
<glyph unicode="&#xd0;" glyph-name="Eth" horiz-adv-x="560" d="M59 304H6V391H59V693H245Q313 693 366 675T455 619T510 520T529 376V335Q529 171 459 86T246 0H59V304ZM248 89Q332 89 371 143T411 322V376Q411 441 400 485T366 555T312 593T240 604H170V391H304V304H170V89H248Z"
/>
<glyph unicode="&#xd1;" glyph-name="Ntilde" horiz-adv-x="571" d="M161 740Q164 798 190 823T249 848Q265 848 278 844T302 834T324 824T345 819Q368 819 374 849H440Q435 793 410 767T351 741Q335 741 322 745T298 755T276 764T256 769Q242 769 236 762T226
740H161ZM59 693H191L362 302Q372 279 382 254L400 209Q409 185 417 162H419Q417 179 416 201Q415 219 415 244T414 300V693H512V0H393L216 393Q203 422 192 450T173 500Q163 526 155 549H152Q153 531 154 508Q155 488 156 460T157 396V0H59V693Z" />
<glyph unicode="&#xd2;" glyph-name="Ograve" horiz-adv-x="581" d="M181 857H291L342 734H256L181 857ZM291 -10Q231 -10 183 9T102 68T51 172T33 323V369Q33 534 100 618T291 703Q412 703 480 623T548 372V323Q548 161 482 76T291 -10ZM292 79Q365 79 397 138T430
305V375Q430 492 399 553T289 614Q251 614 225 598T183 553T159 482T151 389V319Q151 262 158 217T182 142T226 95T292 79Z" />
<glyph unicode="&#xd3;" glyph-name="Oacute" horiz-adv-x="581" d="M296 857H407L329 735H243L296 857ZM291 -10Q231 -10 183 9T102 68T51 172T33 323V369Q33 534 100 618T291 703Q412 703 480 623T548 372V323Q548 161 482 76T291 -10ZM292 79Q365 79 397 138T430
305V375Q430 492 399 553T289 614Q251 614 225 598T183 553T159 482T151 389V319Q151 262 158 217T182 142T226 95T292 79Z" />
<glyph unicode="&#xd4;" glyph-name="Ocircumflex" horiz-adv-x="581" d="M246 854H332L419 734H341L288 786L239 734H160L246 854ZM291 -10Q231 -10 183 9T102 68T51 172T33 323V369Q33 534 100 618T291 703Q412 703 480 623T548 372V323Q548 161 482 76T291
-10ZM292 79Q365 79 397 138T430 305V375Q430 492 399 553T289 614Q251 614 225 598T183 553T159 482T151 389V319Q151 262 158 217T182 142T226 95T292 79Z" />
<glyph unicode="&#xd5;" glyph-name="Otilde" horiz-adv-x="581" d="M150 740Q153 798 179 823T238 848Q254 848 267 844T291 834T313 824T334 819Q357 819 363 849H429Q424 793 399 767T340 741Q324 741 311 745T287 755T265 764T245 769Q231 769 225 762T215
740H150ZM291 -10Q231 -10 183 9T102 68T51 172T33 323V369Q33 534 100 618T291 703Q412 703 480 623T548 372V323Q548 161 482 76T291 -10ZM292 79Q365 79 397 138T430 305V375Q430 492 399 553T289 614Q251 614 225 598T183 553T159 482T151 389V319Q151 262
158 217T182 142T226 95T292 79Z" />
<glyph unicode="&#xd6;" glyph-name="Odieresis" horiz-adv-x="581" d="M321 836H418V739H321V836ZM161 836H258V739H161V836ZM291 -10Q231 -10 183 9T102 68T51 172T33 323V369Q33 534 100 618T291 703Q412 703 480 623T548 372V323Q548 161 482 76T291 -10ZM292
79Q365 79 397 138T430 305V375Q430 492 399 553T289 614Q251 614 225 598T183 553T159 482T151 389V319Q151 262 158 217T182 142T226 95T292 79Z" />
<glyph unicode="&#xd7;" glyph-name="multiply" horiz-adv-x="476" d="M54 214L177 343L56 468L119 530L239 406L359 530L420 469L298 343L422 215L360 154L237 281L115 154L54 214Z" />
<glyph unicode="&#xd8;" glyph-name="Oslash" horiz-adv-x="581" d="M288 -10Q236 -10 196 7T125 53L89 0H7L83 110Q57 155 46 209T34 324V369Q34 534 101 618T295 703Q343 703 382 688T450 646L483 693H565L495 592Q522 548 535 493T549 374V323Q549 161 482
76T288 -10ZM292 77Q366 77 399 137T433 305V405Q433 429 431 450T425 490L181 135Q216 77 292 77ZM150 290Q150 270 151 251T155 215L395 566Q359 616 289 616Q251 616 225 600T182 555T158 483T150 389V290Z" />
<glyph unicode="&#xd9;" glyph-name="Ugrave" horiz-adv-x="559" d="M172 857H282L333 734H247L172 857ZM282 -11Q164 -11 110 46T55 211V693H167V219Q167 144 195 112T286 79Q348 79 373 111T399 220V693H504V214Q504 102 451 46T282 -11Z" />
<glyph unicode="&#xda;" glyph-name="Uacute" horiz-adv-x="559" d="M288 857H399L321 735H235L288 857ZM282 -11Q164 -11 110 46T55 211V693H167V219Q167 144 195 112T286 79Q348 79 373 111T399 220V693H504V214Q504 102 451 46T282 -11Z" />
<glyph unicode="&#xdb;" glyph-name="Ucircumflex" horiz-adv-x="559" d="M237 854H323L410 734H332L279 786L230 734H151L237 854ZM282 -11Q164 -11 110 46T55 211V693H167V219Q167 144 195 112T286 79Q348 79 373 111T399 220V693H504V214Q504 102 451 46T282 -11Z" />
<glyph unicode="&#xdc;" glyph-name="Udieresis" horiz-adv-x="559" d="M282 -11Q164 -11 110 46T55 211V693H167V219Q167 144 195 112T286 79Q348 79 373 111T399 220V693H504V214Q504 102 451 46T282 -11ZM312 836H409V739H312V836ZM152 836H249V739H152V836Z" />
<glyph unicode="&#xdd;" glyph-name="Yacute" horiz-adv-x="496" d="M193 261L6 693H126L208 489Q219 462 227 441T242 404Q249 386 254 373H257Q262 385 268 403Q273 418 281 439T301 489L382 693H490L306 262V0H193V261ZM262 857H373L295 735H209L262 857Z" />
<glyph unicode="&#xde;" glyph-name="Thorn" horiz-adv-x="494" d="M59 693H171V574H271Q377 574 426 523T475 372Q475 264 424 212T275 160H171V0H59V693ZM255 245Q312 245 336 272T361 364Q361 432 337 459T257 486H171V245H255Z" />
<glyph unicode="&#xdf;" glyph-name="germandbls" horiz-adv-x="501" d="M323 -9Q284 -9 259 -4T211 13V92Q233 84 255 79T308 73Q343 73 362 88T382 131Q382 154 372 169T335 202L299 227Q258 255 238 285T218 362Q218 400 235 429T273 485T311 538T328 594Q328
626 308 643T251 661Q205 661 180 632T155 542V0H49V548Q49 601 65 638T110 698T175 731T255 742Q340 742 385 706T431 601Q431 559 413 528T374 470T334 422T316 375Q316 352 326 337T357 308L398 280Q437 254 460 222T484 138Q484 66 440 29T323 -9Z" />
<glyph unicode="&#xe0;" glyph-name="agrave" horiz-adv-x="425" d="M168 -8Q102 -8 62 28T22 140Q22 212 61 249T174 297L274 312V354Q274 404 252 422T173 441Q139 441 111 436T62 423V498Q90 510 127 518T214 527Q297 527 338 491T379 377V0H292L284 36H279Q262
17 234 5T168 -8ZM200 68Q224 68 243 75T274 91V238L203 230Q165 225 147 206T128 149Q128 68 200 68ZM84 726H195L262 585H176L84 726Z" />
<glyph unicode="&#xe1;" glyph-name="aacute" horiz-adv-x="425" d="M168 -8Q102 -8 62 28T22 140Q22 212 61 249T174 297L274 312V354Q274 404 252 422T173 441Q139 441 111 436T62 423V498Q90 510 127 518T214 527Q297 527 338 491T379 377V0H292L284 36H279Q262
17 234 5T168 -8ZM200 68Q224 68 243 75T274 91V238L203 230Q165 225 147 206T128 149Q128 68 200 68ZM226 726H338L246 585H159L226 726Z" />
<glyph unicode="&#xe2;" glyph-name="acircumflex" horiz-adv-x="425" d="M168 -8Q102 -8 62 28T22 140Q22 212 61 249T174 297L274 312V354Q274 404 252 422T173 441Q139 441 111 436T62 423V498Q90 510 127 518T214 527Q297 527 338 491T379 377V0H292L284 36H279Q262
17 234 5T168 -8ZM200 68Q224 68 243 75T274 91V238L203 230Q165 225 147 206T128 149Q128 68 200 68ZM170 724H260L348 585H270L214 653L160 585H81L170 724Z" />
<glyph unicode="&#xe3;" glyph-name="atilde" horiz-adv-x="425" d="M168 -8Q102 -8 62 28T22 140Q22 212 61 249T174 297L274 312V354Q274 404 252 422T173 441Q139 441 111 436T62 423V498Q90 510 127 518T214 527Q297 527 338 491T379 377V0H292L284 36H279Q262
17 234 5T168 -8ZM200 68Q224 68 243 75T274 91V238L203 230Q165 225 147 206T128 149Q128 68 200 68ZM71 598Q74 656 100 682T160 709Q177 709 190 704T214 693T235 682T257 677Q282 677 286 711H351Q347 656 321 628T260 600Q244 600 231 605T207 616T186 627T165
632Q141 632 136 598H71Z" />
<glyph unicode="&#xe4;" glyph-name="adieresis" horiz-adv-x="425" d="M168 -8Q102 -8 62 28T22 140Q22 212 61 249T174 297L274 312V354Q274 404 252 422T173 441Q139 441 111 436T62 423V498Q90 510 127 518T214 527Q297 527 338 491T379 377V0H292L284 36H279Q262
17 234 5T168 -8ZM200 68Q224 68 243 75T274 91V238L203 230Q165 225 147 206T128 149Q128 68 200 68ZM248 704H345V605H248V704ZM84 704H181V605H84V704Z" />
<glyph unicode="&#xe5;" glyph-name="aring" horiz-adv-x="425" d="M168 -8Q102 -8 62 28T22 140Q22 212 61 249T174 297L274 312V354Q274 404 252 422T173 441Q139 441 111 436T62 423V498Q90 510 127 518T214 527Q297 527 338 491T379 377V0H292L284 36H279Q262
17 234 5T168 -8ZM200 68Q224 68 243 75T274 91V238L203 230Q165 225 147 206T128 149Q128 68 200 68ZM211 576Q171 576 145 600T119 667Q119 707 144 732T211 758Q251 758 277 733T303 668Q303 627 277 602T211 576ZM211 623Q229 623 240 634T251 667Q251 687
240 699T211 711Q192 711 182 699T171 667Q171 647 181 635T211 623Z" />
<glyph unicode="&#xe6;" glyph-name="ae" horiz-adv-x="686" d="M497 -8Q379 -8 323 62Q296 32 259 12T167 -8Q101 -8 62 28T22 139Q22 209 61 245T176 292L274 305V354Q274 404 252 422T172 441Q138 441 110 436T62 423V498Q89 510 126 518T212 527Q309 527 340
465Q388 527 476 527Q572 527 617 469T662 283V233H378Q380 147 412 112T513 76Q554 76 587 86T647 110V37Q627 20 587 6T497 -8ZM295 113Q275 161 273 234L204 227Q164 222 146 204T127 147Q127 68 198 68Q227 68 250 79T295 113ZM470 447Q429 447 405 414T378
305H557Q557 380 537 413T470 447Z" />
<glyph unicode="&#xe7;" glyph-name="ccedilla" horiz-adv-x="384" d="M239 -8Q234 -8 231 -8T223 -7V-47Q264 -49 287 -66T311 -119Q311 -164 274 -188T148 -218V-164Q193 -160 213 -151T233 -124Q233 -106 217 -100T167 -94V0Q98 19 62 77T26 243V273Q26 340
42 388T87 467T156 512T246 527Q287 527 314 520T361 500V416Q338 426 314 434T251 442Q189 442 162 401T134 284V245Q134 153 164 115T256 77Q295 77 322 87T366 106V26Q346 12 315 2T239 -8Z" />
<glyph unicode="&#xe8;" glyph-name="egrave" horiz-adv-x="441" d="M251 -8Q136 -8 81 56T26 246V271Q26 399 79 463T227 527Q325 527 370 468T416 279V226H133Q135 145 168 111T268 76Q309 76 342 86T402 110V37Q382 20 343 6T251 -8ZM225 447Q184 447 160 415T133
302H311Q311 381 291 414T225 447ZM100 726H211L278 585H192L100 726Z" />
<glyph unicode="&#xe9;" glyph-name="eacute" horiz-adv-x="441" d="M243 726H355L263 585H176L243 726ZM251 -8Q136 -8 81 56T26 246V271Q26 399 79 463T227 527Q325 527 370 468T416 279V226H133Q135 145 168 111T268 76Q309 76 342 86T402 110V37Q382 20 343
6T251 -8ZM225 447Q184 447 160 415T133 302H311Q311 381 291 414T225 447Z" />
<glyph unicode="&#xea;" glyph-name="ecircumflex" horiz-adv-x="441" d="M183 724H273L361 585H283L227 653L173 585H94L183 724ZM251 -8Q136 -8 81 56T26 246V271Q26 399 79 463T227 527Q325 527 370 468T416 279V226H133Q135 145 168 111T268 76Q309 76 342
86T402 110V37Q382 20 343 6T251 -8ZM225 447Q184 447 160 415T133 302H311Q311 381 291 414T225 447Z" />
<glyph unicode="&#xeb;" glyph-name="edieresis" horiz-adv-x="441" d="M264 704H361V605H264V704ZM100 704H197V605H100V704ZM251 -8Q136 -8 81 56T26 246V271Q26 399 79 463T227 527Q325 527 370 468T416 279V226H133Q135 145 168 111T268 76Q309 76 342 86T402
110V37Q382 20 343 6T251 -8ZM225 447Q184 447 160 415T133 302H311Q311 381 291 414T225 447Z" />
<glyph unicode="&#xec;" glyph-name="igrave" horiz-adv-x="203" d="M49 519H155V0H49V519ZM233 726H344L411 585H325L233 726Z" />
<glyph unicode="&#xed;" glyph-name="iacute" horiz-adv-x="203" d="M377 726H489L397 585H310L377 726ZM49 519H155V0H49V519Z" />
<glyph unicode="&#xee;" glyph-name="icircumflex" horiz-adv-x="203" d="M59 725H147L224 585H146L102 651L60 585H-20L59 725ZM50 519H156V0H50V519Z" />
<glyph unicode="&#xef;" glyph-name="idieresis" horiz-adv-x="203" d="M127 704H220V605H127V704ZM-14 704H78V605H-14V704ZM49 519H155V0H49V519Z" />
<glyph unicode="&#xf0;" glyph-name="eth" horiz-adv-x="474" d="M191 647Q168 670 143 691T92 734H220Q234 724 249 713T281 687L361 722L384 668L324 642Q349 613 371 578T411 500T438 407T448 298V270Q448 135 394 64T235 -8Q135 -8 81 54T26 247V270Q26 394
78 458T218 523Q241 523 258 518T288 505H293Q267 558 232 602L121 554L97 606L191 647ZM337 293Q337 330 333 362T321 425Q307 433 288 438T243 444Q190 444 163 406T136 281V245Q136 194 143 161T164 109T196 82T237 74Q289 74 313 118T337 261V293Z" />
<glyph unicode="&#xf1;" glyph-name="ntilde" horiz-adv-x="473" d="M48 519H148V477H152Q179 497 216 512T298 527Q361 527 393 497T426 398V0H321V380Q321 412 306 425T251 439Q222 439 196 431T153 413V0H48V519ZM101 598Q104 656 130 682T190 709Q207 709
220 704T244 693T265 682T287 677Q312 677 316 711H381Q377 656 351 628T290 600Q274 600 261 605T237 616T216 627T195 632Q171 632 166 598H101Z" />
<glyph unicode="&#xf2;" glyph-name="ograve" horiz-adv-x="471" d="M235 -8Q130 -8 78 57T26 243V275Q26 393 82 460T235 527Q339 527 392 463T445 276V245Q445 126 390 59T235 -8ZM236 74Q288 74 312 116T337 231V285Q337 371 310 408T234 445Q182 445 158 403T134
287V233Q134 152 160 113T236 74ZM106 726H217L284 585H198L106 726Z" />
<glyph unicode="&#xf3;" glyph-name="oacute" horiz-adv-x="471" d="M249 726H361L269 585H182L249 726ZM235 -8Q130 -8 78 57T26 243V275Q26 393 82 460T235 527Q339 527 392 463T445 276V245Q445 126 390 59T235 -8ZM236 74Q288 74 312 116T337 231V285Q337
371 310 408T234 445Q182 445 158 403T134 287V233Q134 152 160 113T236 74Z" />
<glyph unicode="&#xf4;" glyph-name="ocircumflex" horiz-adv-x="471" d="M189 724H279L367 585H289L233 653L179 585H100L189 724ZM235 -8Q130 -8 78 57T26 243V275Q26 393 82 460T235 527Q339 527 392 463T445 276V245Q445 126 390 59T235 -8ZM236 74Q288 74
312 116T337 231V285Q337 371 310 408T234 445Q182 445 158 403T134 287V233Q134 152 160 113T236 74Z" />
<glyph unicode="&#xf5;" glyph-name="otilde" horiz-adv-x="471" d="M235 -8Q130 -8 78 57T26 243V275Q26 393 82 460T235 527Q339 527 392 463T445 276V245Q445 126 390 59T235 -8ZM236 74Q288 74 312 116T337 231V285Q337 371 310 408T234 445Q182 445 158 403T134
287V233Q134 152 160 113T236 74ZM93 598Q96 656 122 682T182 709Q199 709 212 704T236 693T257 682T279 677Q304 677 308 711H373Q369 656 343 628T282 600Q266 600 253 605T229 616T208 627T187 632Q163 632 158 598H93Z" />
<glyph unicode="&#xf6;" glyph-name="odieresis" horiz-adv-x="471" d="M271 704H368V605H271V704ZM107 704H204V605H107V704ZM235 -8Q130 -8 78 57T26 243V275Q26 393 82 460T235 527Q339 527 392 463T445 276V245Q445 126 390 59T235 -8ZM236 74Q288 74 312
116T337 231V285Q337 371 310 408T234 445Q182 445 158 403T134 287V233Q134 152 160 113T236 74Z" />
<glyph unicode="&#xf7;" glyph-name="divide" horiz-adv-x="441" d="M36 394H405V305H36V394ZM166 255H275V145H166V255ZM166 552H275V442H166V552Z" />
<glyph unicode="&#xf8;" glyph-name="oslash" horiz-adv-x="471" d="M236 -8Q156 -8 104 33L80 0H6L64 80Q26 142 26 241V275Q26 393 82 460T235 527Q309 527 362 488L384 519H459L404 444Q424 413 435 372T446 278V245Q446 126 390 59T236 -8ZM237 71Q289 71
314 114T339 231V296Q339 311 338 324T335 350L157 106Q183 71 237 71ZM132 222Q132 209 132 198T134 176L309 417Q296 434 277 441T235 448Q181 448 157 405T132 287V222Z" />
<glyph unicode="&#xf9;" glyph-name="ugrave" horiz-adv-x="468" d="M178 -8Q109 -8 78 28T47 131V519H152V141Q152 110 165 95T221 79Q249 79 274 88T315 106V519H420V0H330L321 42H317Q291 23 257 8T178 -8ZM108 726H219L286 585H200L108 726Z" />
<glyph unicode="&#xfa;" glyph-name="uacute" horiz-adv-x="468" d="M251 726H363L271 585H184L251 726ZM178 -8Q109 -8 78 28T47 131V519H152V141Q152 110 165 95T221 79Q249 79 274 88T315 106V519H420V0H330L321 42H317Q291 23 257 8T178 -8Z" />
<glyph unicode="&#xfb;" glyph-name="ucircumflex" horiz-adv-x="468" d="M191 724H281L369 585H291L235 653L181 585H102L191 724ZM178 -8Q109 -8 78 28T47 131V519H152V141Q152 110 165 95T221 79Q249 79 274 88T315 106V519H420V0H330L321 42H317Q291 23 257
8T178 -8Z" />
<glyph unicode="&#xfc;" glyph-name="udieresis" horiz-adv-x="468" d="M269 704H366V605H269V704ZM105 704H202V605H105V704ZM178 -8Q109 -8 78 28T47 131V519H152V141Q152 110 165 95T221 79Q249 79 274 88T315 106V519H420V0H330L321 42H317Q291 23 257 8T178 -8Z" />
<glyph unicode="&#xfd;" glyph-name="yacute" horiz-adv-x="437" d="M101 -197Q83 -197 65 -193T33 -183V-110Q43 -112 56 -113T80 -114Q112 -114 130 -98T161 -40L175 2L8 519H120L206 225Q211 207 214 193T220 167Q223 155 225 146H228L233 171Q238 195 247
224L326 519H429L257 -54Q235 -126 201 -161T101 -197ZM241 726H353L261 585H174L241 726Z" />
<glyph unicode="&#xfe;" glyph-name="thorn" horiz-adv-x="480" d="M50 735H155V484H159Q177 501 207 514T279 527Q316 527 348 515T404 474T440 399T454 286V251Q454 116 402 54T256 -8Q220 -8 195 0T155 17V-192H50V735ZM239 73Q264 73 284 81T317 109T338 160T345
237V278Q345 325 339 356T320 405T288 430T245 438Q212 438 189 430T155 414V96Q165 88 187 81T239 73Z" />
<glyph unicode="&#xff;" glyph-name="ydieresis" horiz-adv-x="437" d="M101 -197Q83 -197 65 -193T33 -183V-110Q43 -112 56 -113T80 -114Q112 -114 130 -98T161 -40L175 2L8 519H120L206 225Q211 207 214 193T220 167Q223 155 225 146H228L233 171Q238 195 247
224L326 519H429L257 -54Q235 -126 201 -161T101 -197ZM262 704H359V605H262V704ZM98 704H195V605H98V704Z" />
<glyph unicode="&#x100;" glyph-name="Amacron" horiz-adv-x="533" d="M202 693H330L525 0H411L364 173H157L111 0H8L202 693ZM258 569Q256 554 252 537Q249 523 245 506T237 472L180 258H340L283 472Q279 488 276 505T269 536Q265 553 262 569H258ZM154 819H374V741H154V819Z"
/>
<glyph unicode="&#x101;" glyph-name="amacron" horiz-adv-x="425" d="M168 -8Q102 -8 62 28T22 140Q22 212 61 249T174 297L274 312V354Q274 404 252 422T173 441Q139 441 111 436T62 423V498Q90 510 127 518T214 527Q297 527 338 491T379 377V0H292L284 36H279Q262
17 234 5T168 -8ZM200 68Q224 68 243 75T274 91V238L203 230Q165 225 147 206T128 149Q128 68 200 68ZM104 686H322V606H104V686Z" />
<glyph unicode="&#x102;" glyph-name="Abreve" horiz-adv-x="533" d="M202 693H330L525 0H411L364 173H157L111 0H8L202 693ZM258 569Q256 554 252 537Q249 523 245 506T237 472L180 258H340L283 472Q279 488 276 505T269 536Q265 553 262 569H258ZM265 732Q208
732 177 767T142 854H214Q222 804 265 804Q309 804 315 854H389Q386 802 354 767T265 732Z" />
<glyph unicode="&#x103;" glyph-name="abreve" horiz-adv-x="425" d="M168 -8Q102 -8 62 28T22 140Q22 212 61 249T174 297L274 312V354Q274 404 252 422T173 441Q139 441 111 436T62 423V498Q90 510 127 518T214 527Q297 527 338 491T379 377V0H292L284 36H279Q262
17 234 5T168 -8ZM200 68Q224 68 243 75T274 91V238L203 230Q165 225 147 206T128 149Q128 68 200 68ZM213 588Q156 588 124 622T90 711H162Q170 661 213 661Q257 661 263 711H337Q335 657 302 623T213 588Z" />
<glyph unicode="&#x104;" glyph-name="Aogonek" horiz-adv-x="533" d="M471 -197Q423 -197 396 -175T369 -113Q369 -76 389 -48T432 0H411L364 173H158L112 0H9L203 693H329L523 4Q496 -18 476 -43T455 -95Q455 -115 467 -122T498 -129Q506 -129 513 -129T526
-127V-187Q518 -191 503 -194T471 -197ZM258 569Q256 553 252 536Q249 522 245 505T237 471L180 258H341L283 472Q279 488 276 505T269 536Q265 553 262 569H258Z" />
<glyph unicode="&#x105;" glyph-name="aogonek" horiz-adv-x="425" d="M168 -8Q102 -8 62 28T22 140Q22 212 61 249T174 297L274 312V354Q274 404 252 422T173 441Q139 441 111 436T62 423V498Q90 510 127 518T214 527Q297 527 338 491T379 377V2Q354 -19 334
-44T314 -95Q314 -115 327 -122T358 -129Q366 -129 373 -129T386 -127V-187Q377 -191 363 -194T331 -197Q283 -197 256 -175T228 -113Q228 -75 248 -49T293 -5L284 36H279Q262 17 234 5T168 -8ZM200 68Q224 68 243 75T274 91V238L203 230Q165 225 147 207T128 149Q128
68 200 68Z" />
<glyph unicode="&#x106;" glyph-name="Cacute" horiz-adv-x="481" d="M300 -10Q237 -10 188 9T104 68T51 170T33 320V371Q33 465 54 529T113 631T201 686T310 703Q357 703 391 694T450 671V584Q420 596 389 604T318 612Q280 612 250 600T197 561T164 490T152 380V323Q152
206 189 144T320 81Q365 81 398 91T457 115V27Q430 11 391 1T300 -10ZM293 857H404L326 735H240L293 857Z" />
<glyph unicode="&#x107;" glyph-name="cacute" horiz-adv-x="384" d="M239 726H351L259 585H172L239 726ZM239 -8Q138 -8 82 51T26 243V273Q26 340 42 388T87 467T156 512T246 527Q287 527 314 520T361 500V416Q338 426 314 434T251 442Q189 442 162 401T134 284V245Q134
153 164 115T256 77Q295 77 322 87T366 106V26Q346 12 315 2T239 -8Z" />
<glyph unicode="&#x108;" glyph-name="Ccircumflex" horiz-adv-x="481" d="M241 854H327L414 734H336L283 786L234 734H155L241 854ZM300 -10Q237 -10 188 9T104 68T51 170T33 320V371Q33 465 54 529T113 631T201 686T310 703Q357 703 391 694T450 671V584Q420
596 389 604T318 612Q280 612 250 600T197 561T164 490T152 380V323Q152 206 189 144T320 81Q365 81 398 91T457 115V27Q430 11 391 1T300 -10Z" />
<glyph unicode="&#x109;" glyph-name="ccircumflex" horiz-adv-x="384" d="M177 724H267L355 585H277L221 653L167 585H88L177 724ZM239 -8Q138 -8 82 51T26 243V273Q26 340 42 388T87 467T156 512T246 527Q287 527 314 520T361 500V416Q338 426 314 434T251 442Q189
442 162 401T134 284V245Q134 153 164 115T256 77Q295 77 322 87T366 106V26Q346 12 315 2T239 -8Z" />
<glyph unicode="&#x10a;" glyph-name="Cdotaccent" horiz-adv-x="481" d="M300 -10Q237 -10 188 9T104 68T51 170T33 320V371Q33 465 54 529T113 631T201 686T310 703Q357 703 391 694T450 671V584Q420 596 389 604T318 612Q280 612 250 600T197 561T164 490T152
380V323Q152 206 189 144T320 81Q365 81 398 91T457 115V27Q430 11 391 1T300 -10ZM234 839H338V741H234V839Z" />
<glyph unicode="&#x10b;" glyph-name="cdotaccent" horiz-adv-x="384" d="M239 -8Q138 -8 82 51T26 243V273Q26 340 42 388T87 467T156 512T246 527Q287 527 314 520T361 500V416Q338 426 314 434T251 442Q189 442 162 401T134 284V245Q134 153 164 115T256 77Q295
77 322 87T366 106V26Q346 12 315 2T239 -8ZM168 706H275V605H168V706Z" />
<glyph unicode="&#x10c;" glyph-name="Ccaron" horiz-adv-x="481" d="M327 734H241L155 854H234L284 800L336 854H414L327 734ZM300 -10Q237 -10 188 9T104 68T51 170T33 320V371Q33 465 54 529T113 631T201 686T310 703Q357 703 391 694T450 671V584Q420 596
389 604T318 612Q280 612 250 600T197 561T164 490T152 380V323Q152 206 189 144T320 81Q365 81 398 91T457 115V27Q430 11 391 1T300 -10Z" />
<glyph unicode="&#x10d;" glyph-name="ccaron" horiz-adv-x="384" d="M268 585H178L89 724H168L223 657L278 724H356L268 585ZM239 -8Q138 -8 82 51T26 243V273Q26 340 42 388T87 467T156 512T246 527Q287 527 314 520T361 500V416Q338 426 314 434T251 442Q189
442 162 401T134 284V245Q134 153 164 115T256 77Q295 77 322 87T366 106V26Q346 12 315 2T239 -8Z" />
<glyph unicode="&#x10e;" glyph-name="Dcaron" horiz-adv-x="560" d="M302 734H216L130 854H209L259 800L311 854H389L302 734ZM59 693H244Q312 693 365 675T454 619T509 520T528 376V335Q528 171 458 86T245 0H59V693ZM246 89Q331 89 370 143T410 322V376Q410
441 399 485T366 555T312 593T239 604H170V89H246Z" />
<glyph unicode="&#x10f;" glyph-name="dcaron" horiz-adv-x="479" d="M469 583L477 734H562L535 583H469ZM209 -8Q171 -8 139 4T81 46T42 122T28 240V264Q28 395 79 461T228 527Q260 527 285 520T327 503V734H431V0H342L334 38H330Q310 18 280 5T209 -8ZM242 75Q270
75 291 84T327 104V426Q315 434 294 439T247 445Q189 445 163 406T137 274V243Q137 154 162 115T242 75Z" />
<glyph unicode="&#x110;" glyph-name="Dcroat" horiz-adv-x="560" d="M59 304H6V391H59V693H245Q313 693 366 675T455 619T510 520T529 376V335Q529 171 459 86T246 0H59V304ZM248 89Q332 89 371 143T411 322V376Q411 441 400 485T366 555T312 593T240 604H170V391H304V304H170V89H248Z"
/>
<glyph unicode="&#x111;" glyph-name="dcroat" horiz-adv-x="479" d="M206 653H327V734H431V653H483V590H431V0H342L334 38H330Q310 18 280 5T209 -8Q171 -8 139 4T81 46T42 122T28 240V264Q28 395 79 461T228 527Q260 527 285 520T327 503V590H206V653ZM242 75Q270
75 291 84T327 104V426Q315 434 294 439T247 445Q189 445 163 406T137 274V243Q137 154 162 115T242 75Z" />
<glyph unicode="&#x112;" glyph-name="Emacron" horiz-adv-x="459" d="M59 693H423V604H170V401H370V313H170V89H427V0H59V693ZM132 819H352V741H132V819Z" />
<glyph unicode="&#x113;" glyph-name="emacron" horiz-adv-x="441" d="M251 -8Q136 -8 81 56T26 246V271Q26 399 79 463T227 527Q325 527 370 468T416 279V226H133Q135 145 168 111T268 76Q309 76 342 86T402 110V37Q382 20 343 6T251 -8ZM225 447Q184 447 160
415T133 302H311Q311 381 291 414T225 447ZM119 686H337V606H119V686Z" />
<glyph unicode="&#x114;" glyph-name="Ebreve" horiz-adv-x="459" d="M59 693H423V604H170V401H370V313H170V89H427V0H59V693ZM243 732Q186 732 155 767T120 854H192Q200 804 243 804Q287 804 293 854H367Q364 802 332 767T243 732Z" />
<glyph unicode="&#x115;" glyph-name="ebreve" horiz-adv-x="441" d="M251 -8Q136 -8 81 56T26 246V271Q26 399 79 463T227 527Q325 527 370 468T416 279V226H133Q135 145 168 111T268 76Q309 76 342 86T402 110V37Q382 20 343 6T251 -8ZM225 447Q184 447 160
415T133 302H311Q311 381 291 414T225 447ZM227 588Q170 588 138 622T104 711H176Q184 661 227 661Q271 661 277 711H351Q349 657 316 623T227 588Z" />
<glyph unicode="&#x116;" glyph-name="Edotaccent" horiz-adv-x="459" d="M194 839H298V741H194V839ZM59 693H423V604H170V401H370V313H170V89H427V0H59V693Z" />
<glyph unicode="&#x117;" glyph-name="edotaccent" horiz-adv-x="441" d="M251 -8Q136 -8 81 56T26 246V271Q26 399 79 463T227 527Q325 527 370 468T416 279V226H133Q135 145 168 111T268 76Q309 76 342 86T402 110V37Q382 20 343 6T251 -8ZM225 447Q184 447
160 415T133 302H311Q311 381 291 414T225 447ZM175 706H282V605H175V706Z" />
<glyph unicode="&#x118;" glyph-name="Eogonek" horiz-adv-x="459" d="M387 0Q365 -19 345 -44T325 -95Q325 -115 338 -122T370 -129Q378 -129 385 -129T397 -127V-187Q389 -191 374 -194T343 -197Q294 -197 267 -175T239 -113Q239 -93 245 -77T262 -46T286 -21T312
0H59V693H423V604H170V401H370V313H170V89H427V0H387Z" />
<glyph unicode="&#x119;" glyph-name="eogonek" horiz-adv-x="441" d="M300 -197Q252 -197 224 -175T196 -113Q196 -77 216 -51T260 -8H251Q136 -8 81 56T26 246V271Q26 399 79 463T227 527Q325 527 370 468T416 279V226H133Q136 145 169 111T268 76Q309 76 342
86T402 110V37Q390 27 373 17T340 -7Q318 -25 301 -47T283 -95Q283 -115 295 -122T327 -129Q335 -129 342 -129T354 -127V-187Q346 -191 331 -194T300 -197ZM225 447Q184 447 160 415T133 302H311Q311 381 291 414T225 447Z" />
<glyph unicode="&#x11a;" glyph-name="Ecaron" horiz-adv-x="459" d="M287 734H201L115 854H194L244 800L296 854H374L287 734ZM59 693H423V604H170V401H370V313H170V89H427V0H59V693Z" />
<glyph unicode="&#x11b;" glyph-name="ecaron" horiz-adv-x="441" d="M274 585H184L95 724H174L229 657L284 724H362L274 585ZM251 -8Q136 -8 81 56T26 246V271Q26 399 79 463T227 527Q325 527 370 468T416 279V226H133Q135 145 168 111T268 76Q309 76 342 86T402
110V37Q382 20 343 6T251 -8ZM225 447Q184 447 160 415T133 302H311Q311 381 291 414T225 447Z" />
<glyph unicode="&#x11c;" glyph-name="Gcircumflex" horiz-adv-x="545" d="M251 854H337L424 734H346L293 786L244 734H165L251 854ZM308 -10Q243 -10 192 7T106 64T52 168T33 328V366Q33 456 53 519T110 624T201 684T322 703Q379 703 416 693T475 669V580Q449
591 414 601T327 611Q276 611 242 595T188 549T160 475T151 378V318Q151 260 158 216T184 141T233 95T313 79Q337 79 358 83T394 92V275H291V362H501V27Q470 13 421 2T308 -10Z" />
<glyph unicode="&#x11d;" glyph-name="gcircumflex" horiz-adv-x="442" d="M181 724H271L359 585H281L225 653L171 585H92L181 724ZM212 -194Q109 -194 58 -160T6 -69Q6 -24 32 2T95 42V46Q72 55 57 73T42 122Q42 151 57 174T98 217Q72 234 54 265T35 345V360Q35
400 48 431T85 483T141 516T213 527Q254 527 286 518H435V445H368Q378 431 385 411T392 364V349Q392 309 379 279T342 228T286 198T215 187Q196 187 179 188T147 195Q140 188 136 178T131 157Q131 120 175 120H278Q435 120 435 -23Q435 -99 381 -146T212 -194ZM211
-118Q279 -118 306 -97T333 -37Q333 -8 317 9T257 26H158Q137 18 122 -1T107 -50Q107 -82 132 -100T211 -118ZM214 258Q251 258 271 279T292 345V364Q292 413 271 434T214 455Q176 455 156 433T136 366V347Q136 301 157 280T214 258Z" />
<glyph unicode="&#x11e;" glyph-name="Gbreve" horiz-adv-x="545" d="M295 732Q238 732 207 767T172 854H244Q252 804 295 804Q339 804 345 854H419Q416 802 384 767T295 732ZM308 -10Q243 -10 192 7T106 64T52 168T33 328V366Q33 456 53 519T110 624T201 684T322
703Q379 703 416 693T475 669V580Q449 591 414 601T327 611Q276 611 242 595T188 549T160 475T151 378V318Q151 260 158 216T184 141T233 95T313 79Q337 79 358 83T394 92V275H291V362H501V27Q470 13 421 2T308 -10Z" />
<glyph unicode="&#x11f;" glyph-name="gbreve" horiz-adv-x="442" d="M212 -194Q109 -194 58 -160T6 -69Q6 -24 32 2T95 42V46Q72 55 57 73T42 122Q42 151 57 174T98 217Q72 234 54 265T35 345V360Q35 400 48 431T85 483T141 516T213 527Q254 527 286 518H435V445H368Q378
431 385 411T392 364V349Q392 309 379 279T342 228T286 198T215 187Q196 187 179 188T147 195Q140 188 136 178T131 157Q131 120 175 120H278Q435 120 435 -23Q435 -99 381 -146T212 -194ZM211 -118Q279 -118 306 -97T333 -37Q333 -8 317 9T257 26H158Q137 18 122
-1T107 -50Q107 -82 132 -100T211 -118ZM214 258Q251 258 271 279T292 345V364Q292 413 271 434T214 455Q176 455 156 433T136 366V347Q136 301 157 280T214 258ZM225 588Q168 588 136 622T102 711H174Q182 661 225 661Q269 661 275 711H349Q347 657 314 623T225
588Z" />
<glyph unicode="&#x120;" glyph-name="Gdotaccent" horiz-adv-x="545" d="M246 839H350V741H246V839ZM308 -10Q243 -10 192 7T106 64T52 168T33 328V366Q33 456 53 519T110 624T201 684T322 703Q379 703 416 693T475 669V580Q449 591 414 601T327 611Q276 611
242 595T188 549T160 475T151 378V318Q151 260 158 216T184 141T233 95T313 79Q337 79 358 83T394 92V275H291V362H501V27Q470 13 421 2T308 -10Z" />
<glyph unicode="&#x121;" glyph-name="gdotaccent" horiz-adv-x="442" d="M212 -194Q109 -194 58 -160T6 -69Q6 -24 32 2T95 42V46Q72 55 57 73T42 122Q42 151 57 174T98 217Q72 234 54 265T35 345V360Q35 400 48 431T85 483T141 516T213 527Q254 527 286 518H435V445H368Q378
431 385 411T392 364V349Q392 309 379 279T342 228T286 198T215 187Q196 187 179 188T147 195Q140 188 136 178T131 157Q131 120 175 120H278Q435 120 435 -23Q435 -99 381 -146T212 -194ZM211 -118Q279 -118 306 -97T333 -37Q333 -8 317 9T257 26H158Q137 18 122
-1T107 -50Q107 -82 132 -100T211 -118ZM214 258Q251 258 271 279T292 345V364Q292 413 271 434T214 455Q176 455 156 433T136 366V347Q136 301 157 280T214 258ZM167 706H274V605H167V706Z" />
<glyph unicode="&#x122;" glyph-name="Gcommaaccent" horiz-adv-x="545" d="M249 -41H352L311 -178H237L249 -41ZM308 -10Q243 -10 192 7T106 64T52 168T33 328V366Q33 456 53 519T110 624T201 684T322 703Q379 703 416 693T475 669V580Q449 591 414 601T327 611Q276
611 242 595T188 549T160 475T151 378V318Q151 260 158 216T184 141T233 95T313 79Q337 79 358 83T394 92V275H291V362H501V27Q470 13 421 2T308 -10Z" />
<glyph unicode="&#x123;" glyph-name="gcommaaccent" horiz-adv-x="442" d="M274 599H170L215 740H289L274 599ZM212 -194Q109 -194 58 -160T6 -69Q6 -24 32 2T95 42V46Q72 55 57 73T42 122Q42 151 57 174T98 217Q72 234 54 265T35 345V360Q35 400 48 431T85 483T141
516T213 527Q254 527 286 518H435V445H368Q378 431 385 411T392 364V349Q392 309 379 279T342 228T286 198T215 187Q196 187 179 188T147 195Q140 188 136 178T131 157Q131 120 175 120H278Q435 120 435 -23Q435 -99 381 -146T212 -194ZM211 -118Q279 -118 306
-97T333 -37Q333 -8 317 9T257 26H158Q137 18 122 -1T107 -50Q107 -82 132 -100T211 -118ZM214 258Q251 258 271 279T292 345V364Q292 413 271 434T214 455Q176 455 156 433T136 366V347Q136 301 157 280T214 258Z" />
<glyph unicode="&#x124;" glyph-name="Hcircumflex" horiz-adv-x="574" d="M59 693H170V403H404V693H515V0H404V313H170V0H59V693ZM243 854H329L416 734H338L285 786L236 734H157L243 854Z" />
<glyph unicode="&#x125;" glyph-name="hcircumflex" horiz-adv-x="473" d="M48 734H153V479H157Q183 499 218 513T298 527Q361 527 393 497T426 398V0H321V380Q321 412 306 425T251 439Q222 439 196 431T153 413V0H48V734ZM194 901H280L367 781H289L236 833L187
781H108L194 901Z" />
<glyph unicode="&#x126;" glyph-name="Hbar" horiz-adv-x="580" d="M11 571H62V693H173V571H406V693H518V571H568V503H518V0H406V313H173V0H62V503H11V571ZM406 402V503H173V402H406Z" />
<glyph unicode="&#x127;" glyph-name="hbar" horiz-adv-x="473" d="M-4 653H49V734H154V653H270V590H154V479H158Q184 499 219 513T299 527Q362 527 394 497T427 398V0H322V380Q322 412 307 425T252 439Q223 439 197 431T154 413V0H49V590H-4V653Z" />
<glyph unicode="&#x128;" glyph-name="Itilde" horiz-adv-x="232" d="M60 693H172V0H60V693ZM234 740Q237 798 263 823T322 848Q338 848 351 844T375 834T397 824T418 819Q441 819 447 849H513Q508 793 483 767T424 741Q408 741 395 745T371 755T349 764T329 769Q315
769 309 762T299 740H234Z" />
<glyph unicode="&#x129;" glyph-name="itilde" horiz-adv-x="203" d="M-28 600Q-23 659 1 684T55 709Q70 709 82 705T104 695T123 685T141 680Q161 680 164 711H230Q225 655 202 628T147 601Q132 601 120 605T98 616T80 626T62 631Q41 631 37 600H-28ZM50 519H156V0H50V519Z"
/>
<glyph unicode="&#x12a;" glyph-name="Imacron" horiz-adv-x="232" d="M60 693H172V0H60V693ZM21 825H211V744H21V825Z" />
<glyph unicode="&#x12b;" glyph-name="imacron" horiz-adv-x="203" d="M13 686H193V606H13V686ZM49 519H155V0H49V519Z" />
<glyph unicode="&#x12c;" glyph-name="Ibreve" horiz-adv-x="232" d="M60 693H172V0H60V693ZM375 732Q318 732 287 767T252 854H324Q332 804 375 804Q419 804 425 854H499Q496 802 464 767T375 732Z" />
<glyph unicode="&#x12d;" glyph-name="ibreve" horiz-adv-x="203" d="M102 590Q45 590 17 623T-12 710H59Q64 662 102 662Q142 662 144 710H217Q216 657 188 624T102 590ZM50 519H156V0H50V519Z" />
<glyph unicode="&#x12e;" glyph-name="Iogonek" horiz-adv-x="232" d="M21 -113Q21 -76 41 -47T83 0H60V693H172V3Q146 -18 127 -43T107 -95Q107 -115 119 -122T149 -129Q157 -129 164 -129T177 -127V-187Q168 -191 154 -194T122 -197Q73 -197 47 -174T21 -113Z" />
<glyph unicode="&#x12f;" glyph-name="iogonek" horiz-adv-x="203" d="M6 -113Q6 -83 19 -61T50 -21V519H156V3Q130 -18 112 -43T93 -95Q93 -115 105 -122T135 -129Q143 -129 150 -129T162 -127V-187Q154 -191 139 -194T107 -197Q59 -197 33 -174T6 -113ZM49 706H156V605H49V706Z"
/>
<glyph unicode="&#x130;" glyph-name="Idotaccent" horiz-adv-x="232" d="M60 693H172V0H60V693ZM322 839H426V741H322V839Z" />
<glyph unicode="&#x131;" glyph-name="dotlessi" horiz-adv-x="204" d="M49 519H155V0H49V519Z" />
<glyph unicode="&#x132;" glyph-name="IJ" horiz-adv-x="560" d="M337 -7Q302 -7 275 -2T228 11V97Q263 86 309 86Q356 86 373 112T391 190V693H503V182Q503 142 495 108T467 48T415 8T337 -7ZM60 693H172V0H60V693Z" />
<glyph unicode="&#x133;" glyph-name="ij" horiz-adv-x="203" d="M49 519H155V0H49V519ZM48 706H155V605H48V706ZM218 -197Q193 -197 176 -193T145 -180V-110Q153 -111 164 -112T186 -114Q218 -114 233 -97T249 -41V519H353V-48Q353 -81 346 -108T323 -155T281
-186T218 -197ZM248 706H354V605H248V706Z" />
<glyph unicode="&#x134;" glyph-name="Jcircumflex" horiz-adv-x="361" d="M203 854H289L376 734H298L245 786L196 734H117L203 854ZM134 -7Q95 -7 69 -2T20 14V99Q37 94 59 90T110 86Q155 86 174 109T193 180V693H305V173Q305 134 296 101T267 44T214 7T134 -7Z" />
<glyph unicode="&#x135;" glyph-name="jcircumflex" horiz-adv-x="203" d="M58 725H146L224 585H145L101 651L59 585H-20L58 725ZM19 -197Q-6 -197 -23 -193T-54 -180V-110Q-46 -111 -35 -112T-13 -114Q19 -114 34 -97T50 -41V519H154V-48Q154 -81 147 -108T124
-155T82 -186T19 -197Z" />
<glyph unicode="&#x136;" glyph-name="Kcommaaccent" horiz-adv-x="524" d="M218 -41H321L280 -178H206L218 -41ZM183 355L388 693H506L302 364L515 0H388L183 355ZM59 693H170V0H59V693Z" />
<glyph unicode="&#x137;" glyph-name="kcommaaccent" d="M177 -41H280L239 -178H165L177 -41ZM154 0H48V734H154V0ZM307 519H418L273 277L429 0H311L162 270L307 519Z" />
<glyph unicode="&#x139;" glyph-name="Lacute" horiz-adv-x="427" d="M383 857H494L416 735H330L383 857ZM59 693H170V89H407V0H59V693Z" />
<glyph unicode="&#x13a;" glyph-name="lacute" horiz-adv-x="201" d="M368 904H479L401 782H315L368 904ZM48 734H153V0H48V734Z" />
<glyph unicode="&#x13b;" glyph-name="Lcommaaccent" horiz-adv-x="427" d="M188 -41H291L250 -178H176L188 -41ZM59 693H170V89H407V0H59V693Z" />
<glyph unicode="&#x13c;" glyph-name="lcommaaccent" horiz-adv-x="201" d="M310 -41H413L372 -178H298L310 -41ZM48 734H153V0H48V734Z" />
<glyph unicode="&#x13d;" glyph-name="Lcaron" horiz-adv-x="427" d="M232 522L241 693H332L303 522H232ZM59 693H170V89H407V0H59V693Z" />
<glyph unicode="&#x13e;" glyph-name="lcaron" horiz-adv-x="201" d="M189 583L197 734H282L255 583H189ZM48 734H153V0H48V734Z" />
<glyph unicode="&#x13f;" glyph-name="Ldot" horiz-adv-x="427" d="M294 420H397V313H294V420ZM59 693H170V89H407V0H59V693Z" />
<glyph unicode="&#x140;" glyph-name="ldot" horiz-adv-x="279" d="M195 406H289V309H195V406ZM50 734H155V0H50V734Z" />
<glyph unicode="&#x141;" glyph-name="Lslash" horiz-adv-x="430" d="M3 301L61 330V693H172V379L328 454V364L172 289V89H409V0H61V239L3 212V301Z" />
<glyph unicode="&#x142;" glyph-name="lslash" horiz-adv-x="228" d="M6 375L60 410V734H166V473L226 512V421L166 382V0H60V320L6 285V375Z" />
<glyph unicode="&#x143;" glyph-name="Nacute" horiz-adv-x="571" d="M303 857H414L336 735H250L303 857ZM59 693H191L362 302Q372 279 382 254L400 209Q409 185 417 162H419Q417 179 416 201Q415 219 415 244T414 300V693H512V0H393L216 393Q203 422 192 450T173
500Q163 526 155 549H152Q153 531 154 508Q155 488 156 460T157 396V0H59V693Z" />
<glyph unicode="&#x144;" glyph-name="nacute" horiz-adv-x="473" d="M257 726H369L277 585H190L257 726ZM48 519H148V477H152Q179 497 216 512T298 527Q361 527 393 497T426 398V0H321V380Q321 412 306 425T251 439Q222 439 196 431T153 413V0H48V519Z" />
<glyph unicode="&#x145;" glyph-name="Ncommaaccent" horiz-adv-x="571" d="M236 -41H339L298 -178H224L236 -41ZM59 693H191L362 302Q372 279 382 254L400 209Q409 185 417 162H419Q417 179 416 201Q415 219 415 244T414 300V693H512V0H393L216 393Q203 422 192
450T173 500Q163 526 155 549H152Q153 531 154 508Q155 488 156 460T157 396V0H59V693Z" />
<glyph unicode="&#x146;" glyph-name="ncommaaccent" horiz-adv-x="473" d="M190 -41H293L252 -178H178L190 -41ZM48 519H148V477H152Q179 497 216 512T298 527Q361 527 393 497T426 398V0H321V380Q321 412 306 425T251 439Q222 439 196 431T153 413V0H48V519Z" />
<glyph unicode="&#x147;" glyph-name="Ncaron" horiz-adv-x="571" d="M341 734H255L169 854H248L298 800L350 854H428L341 734ZM59 693H191L362 302Q372 279 382 254L400 209Q409 185 417 162H419Q417 179 416 201Q415 219 415 244T414 300V693H512V0H393L216
393Q203 422 192 450T173 500Q163 526 155 549H152Q153 531 154 508Q155 488 156 460T157 396V0H59V693Z" />
<glyph unicode="&#x148;" glyph-name="ncaron" horiz-adv-x="473" d="M285 585H195L106 724H185L240 657L295 724H373L285 585ZM48 519H148V477H152Q179 497 216 512T298 527Q361 527 393 497T426 398V0H321V380Q321 412 306 425T251 439Q222 439 196 431T153
413V0H48V519Z" />
<glyph unicode="&#x149;" glyph-name="napostrophe" horiz-adv-x="473" d="M201 693H307L269 501H185L201 693ZM48 519H148V477H152Q179 497 216 512T298 527Q361 527 393 497T426 398V0H321V380Q321 412 306 425T251 439Q222 439 196 431T153 413V0H48V519Z" />
<glyph unicode="&#x14a;" glyph-name="Eng" horiz-adv-x="571" d="M59 693H189L361 301Q371 278 381 254T399 209Q409 185 417 162H419Q417 180 416 202Q415 221 415 246T414 300V693H512V-8Q512 -86 475 -130T353 -175Q322 -175 298 -169T255 -155V-77Q269 -82
289 -85T332 -89Q400 -89 410 -31L218 393Q204 422 193 450T173 500Q163 526 155 549H152Q153 530 154 506Q155 486 156 458T157 397V0H59V693Z" />
<glyph unicode="&#x14b;" glyph-name="eng" horiz-adv-x="475" d="M294 -197Q268 -197 251 -193T220 -180L221 -110Q229 -112 239 -113T261 -115Q293 -115 308 -98T324 -41V380Q324 412 308 425T253 439Q224 439 198 431T154 413V0H48V519H151V477H155Q182 497
219 512T301 527Q364 527 396 497T429 398V-48Q429 -81 422 -108T399 -155T357 -186T294 -197Z" />
<glyph unicode="&#x14c;" glyph-name="Omacron" horiz-adv-x="581" d="M179 819H399V741H179V819ZM291 -10Q231 -10 183 9T102 68T51 172T33 323V369Q33 534 100 618T291 703Q412 703 480 623T548 372V323Q548 161 482 76T291 -10ZM292 79Q365 79 397 138T430
305V375Q430 492 399 553T289 614Q251 614 225 598T183 553T159 482T151 389V319Q151 262 158 217T182 142T226 95T292 79Z" />
<glyph unicode="&#x14d;" glyph-name="omacron" horiz-adv-x="471" d="M125 686H343V606H125V686ZM235 -8Q130 -8 78 57T26 243V275Q26 393 82 460T235 527Q339 527 392 463T445 276V245Q445 126 390 59T235 -8ZM236 74Q288 74 312 116T337 231V285Q337 371 310
408T234 445Q182 445 158 403T134 287V233Q134 152 160 113T236 74Z" />
<glyph unicode="&#x14e;" glyph-name="Obreve" horiz-adv-x="581" d="M290 732Q233 732 202 767T167 854H239Q247 804 290 804Q334 804 340 854H414Q411 802 379 767T290 732ZM291 -10Q231 -10 183 9T102 68T51 172T33 323V369Q33 534 100 618T291 703Q412 703
480 623T548 372V323Q548 161 482 76T291 -10ZM292 79Q365 79 397 138T430 305V375Q430 492 399 553T289 614Q251 614 225 598T183 553T159 482T151 389V319Q151 262 158 217T182 142T226 95T292 79Z" />
<glyph unicode="&#x14f;" glyph-name="obreve" horiz-adv-x="471" d="M235 -8Q130 -8 78 57T26 243V275Q26 393 82 460T235 527Q339 527 392 463T445 276V245Q445 126 390 59T235 -8ZM236 74Q288 74 312 116T337 231V285Q337 371 310 408T234 445Q182 445 158
403T134 287V233Q134 152 160 113T236 74ZM234 588Q177 588 145 622T111 711H183Q191 661 234 661Q278 661 284 711H358Q356 657 323 623T234 588Z" />
<glyph unicode="&#x150;" glyph-name="Ohungarumlaut" horiz-adv-x="581" d="M352 856H454L400 734H317L352 856ZM203 856H305L251 734H168L203 856ZM291 -10Q231 -10 183 9T102 68T51 172T33 323V369Q33 534 100 618T291 703Q412 703 480 623T548 372V323Q548
161 482 76T291 -10ZM292 79Q365 79 397 138T430 305V375Q430 492 399 553T289 614Q251 614 225 598T183 553T159 482T151 389V319Q151 262 158 217T182 142T226 95T292 79Z" />
<glyph unicode="&#x151;" glyph-name="ohungarumlaut" horiz-adv-x="471" d="M303 726H405L346 585H264L303 726ZM155 726H257L197 585H115L155 726ZM235 -8Q130 -8 78 57T26 243V275Q26 393 82 460T235 527Q339 527 392 463T445 276V245Q445 126 390 59T235 -8ZM236
74Q288 74 312 116T337 231V285Q337 371 310 408T234 445Q182 445 158 403T134 287V233Q134 152 160 113T236 74Z" />
<glyph unicode="&#x152;" glyph-name="OE" horiz-adv-x="782" d="M312 0Q244 0 192 17T105 73T52 172T33 323V358Q33 529 99 611T309 693H745V604H495V401H692V313H495V89H750V0H312ZM383 90V603H307Q265 603 236 590T188 549T161 476T152 369V320Q152 253 162
209T192 139T243 101T315 90H383Z" />
<glyph unicode="&#x153;" glyph-name="oe" horiz-adv-x="752" d="M233 -8Q129 -8 78 57T26 243V275Q26 393 81 460T234 527Q291 527 330 505T392 443Q438 527 539 527Q638 527 682 468T727 279V228H444Q446 145 478 111T578 76Q620 76 653 86T712 110V37Q691 20
652 6T564 -8Q498 -8 456 15T390 81Q366 39 327 16T233 -8ZM236 74Q288 74 312 116T336 231V285Q336 370 310 407T233 445Q182 445 158 404T134 287V233Q134 152 160 113T236 74ZM535 447Q494 447 470 415T444 300H622Q622 380 602 413T535 447Z" />
<glyph unicode="&#x154;" glyph-name="Racute" horiz-adv-x="509" d="M254 857H365L287 735H201L254 857ZM59 693H251Q362 693 413 646T465 491Q465 415 436 375T358 314V309L503 0H385L255 284H170V0H59V693ZM242 365Q299 365 324 394T349 485Q349 550 325 577T239
605H170V365H242Z" />
<glyph unicode="&#x155;" glyph-name="racute" horiz-adv-x="304" d="M454 726H566L474 585H387L454 726ZM48 519H149V463H153Q172 489 202 507T267 526Q284 526 294 522V426Q288 427 278 427T260 428Q228 428 202 420T154 396V0H48V519Z" />
<glyph unicode="&#x156;" glyph-name="Rcommaaccent" horiz-adv-x="509" d="M221 -41H324L283 -178H209L221 -41ZM59 693H251Q362 693 413 646T465 491Q465 415 436 375T358 314V309L503 0H385L255 284H170V0H59V693ZM242 365Q299 365 324 394T349 485Q349 550
325 577T239 605H170V365H242Z" />
<glyph unicode="&#x157;" glyph-name="rcommaaccent" horiz-adv-x="304" d="M308 -41H411L370 -178H296L308 -41ZM48 519H149V463H153Q172 489 202 507T267 526Q284 526 294 522V426Q288 427 278 427T260 428Q228 428 202 420T154 396V0H48V519Z" />
<glyph unicode="&#x158;" glyph-name="Rcaron" horiz-adv-x="509" d="M290 734H204L118 854H197L247 800L299 854H377L290 734ZM59 693H251Q362 693 413 646T465 491Q465 415 436 375T358 314V309L503 0H385L255 284H170V0H59V693ZM242 365Q299 365 324 394T349
485Q349 550 325 577T239 605H170V365H242Z" />
<glyph unicode="&#x159;" glyph-name="rcaron" horiz-adv-x="304" d="M490 585H400L311 724H390L445 657L500 724H578L490 585ZM48 519H149V463H153Q172 489 202 507T267 526Q284 526 294 522V426Q288 427 278 427T260 428Q228 428 202 420T154 396V0H48V519Z" />
<glyph unicode="&#x15a;" glyph-name="Sacute" d="M191 -11Q136 -11 94 0T25 28V118Q57 103 97 92T180 81Q241 81 269 107T297 189Q297 214 292 230T276 259T248 280T209 300L161 321Q130 334 106 350T64 389T37 442T28 512Q28 602 81 652T236 703Q293 703 325
694T380 673V584Q356 595 321 604T241 613Q136 613 136 521Q136 480 153 460T212 421L260 401Q293 387 320 372T367 334T398 280T409 202Q409 155 397 116T358 49T290 5T191 -11ZM225 857H336L258 735H172L225 857Z" />
<glyph unicode="&#x15b;" glyph-name="sacute" horiz-adv-x="358" d="M458 726H570L478 585H391L458 726ZM159 -8Q116 -8 82 0T22 22V102Q47 92 75 84T145 75Q193 75 213 92T233 142Q233 172 219 187T169 215L128 230Q77 249 50 282T22 375Q22 447 66 487T194
527Q239 527 266 520T313 502V421Q293 429 266 436T203 444Q164 444 143 431T122 386Q122 360 135 346T180 321L218 308Q279 287 307 254T336 155Q336 75 290 34T159 -8Z" />
<glyph unicode="&#x15c;" glyph-name="Scircumflex" d="M175 854H261L348 734H270L217 786L168 734H89L175 854ZM191 -11Q136 -11 94 0T25 28V118Q57 103 97 92T180 81Q241 81 269 107T297 189Q297 214 292 230T276 259T248 280T209 300L161 321Q130 334 106 350T64
389T37 442T28 512Q28 602 81 652T236 703Q293 703 325 694T380 673V584Q356 595 321 604T241 613Q136 613 136 521Q136 480 153 460T212 421L260 401Q293 387 320 372T367 334T398 280T409 202Q409 155 397 116T358 49T290 5T191 -11Z" />
<glyph unicode="&#x15d;" glyph-name="scircumflex" horiz-adv-x="358" d="M394 724H484L572 585H494L438 653L384 585H305L394 724ZM159 -8Q116 -8 82 0T22 22V102Q47 92 75 84T145 75Q193 75 213 92T233 142Q233 172 219 187T169 215L128 230Q77 249 50 282T22
375Q22 447 66 487T194 527Q239 527 266 520T313 502V421Q293 429 266 436T203 444Q164 444 143 431T122 386Q122 360 135 346T180 321L218 308Q279 287 307 254T336 155Q336 75 290 34T159 -8Z" />
<glyph unicode="&#x15e;" glyph-name="Scedilla" d="M139 -164Q185 -160 204 -151T224 -124Q224 -106 208 -100T158 -94V-10Q114 -6 81 4T25 28V118Q57 103 97 92T180 81Q241 81 269 107T297 189Q297 214 292 230T276 259T248 280T209 300L161 321Q130 334 106
350T64 389T37 442T28 512Q28 602 81 652T236 703Q293 703 325 694T380 673V584Q356 595 321 604T241 613Q136 613 136 521Q136 480 153 460T212 421L260 401Q293 387 320 372T367 334T398 280T409 202Q409 157 398 120T363 55T302 10T214 -10V-47Q255 -49 278
-66T302 -119Q302 -164 265 -188T139 -218V-164Z" />
<glyph unicode="&#x15f;" glyph-name="scedilla" horiz-adv-x="358" d="M102 -164Q148 -160 167 -151T187 -124Q187 -106 171 -100T121 -94V-6Q91 -3 66 4T22 22V102Q47 92 75 84T145 75Q193 75 213 92T233 142Q233 172 219 187T169 215L129 230Q78 248 50 281T22
375Q22 447 66 487T194 527Q239 527 266 520T313 502V421Q293 429 266 436T203 444Q164 444 143 431T122 386Q122 360 134 346T179 321L218 308Q249 297 271 284T307 253T329 212T336 155Q336 80 295 39T177 -7V-47Q218 -49 241 -66T265 -119Q265 -164 228 -188T102
-218V-164Z" />
<glyph unicode="&#x160;" glyph-name="Scaron" d="M259 734H173L87 854H166L216 800L268 854H346L259 734ZM191 -11Q136 -11 94 0T25 28V118Q57 103 97 92T180 81Q241 81 269 107T297 189Q297 214 292 230T276 259T248 280T209 300L161 321Q130 334 106 350T64
389T37 442T28 512Q28 602 81 652T236 703Q293 703 325 694T380 673V584Q356 595 321 604T241 613Q136 613 136 521Q136 480 153 460T212 421L260 401Q293 387 320 372T367 334T398 280T409 202Q409 155 397 116T358 49T290 5T191 -11Z" />
<glyph unicode="&#x161;" glyph-name="scaron" horiz-adv-x="358" d="M483 585H393L304 724H383L438 657L493 724H571L483 585ZM159 -8Q116 -8 82 0T22 22V102Q47 92 75 84T145 75Q193 75 213 92T233 142Q233 172 219 187T169 215L128 230Q77 249 50 282T22 375Q22
447 66 487T194 527Q239 527 266 520T313 502V421Q293 429 266 436T203 444Q164 444 143 431T122 386Q122 360 135 346T180 321L218 308Q279 287 307 254T336 155Q336 75 290 34T159 -8Z" />
<glyph unicode="&#x162;" glyph-name="Tcommaaccent" horiz-adv-x="460" d="M180 -41H283L242 -178H168L180 -41ZM175 604H15V693H445V604H287V0H175V604Z" />
<glyph unicode="&#x163;" glyph-name="tcommaaccent" horiz-adv-x="303" d="M387 -41H490L449 -178H375L387 -41ZM197 -6Q139 -6 106 21T73 116V437H13V519H73V639H177V519H278V437H177V132Q177 100 189 89T232 77Q247 77 259 79L282 84V14Q270 6 249 0T197 -6Z" />
<glyph unicode="&#x164;" glyph-name="Tcaron" horiz-adv-x="460" d="M272 734H186L100 854H179L229 800L281 854H359L272 734ZM175 604H15V693H445V604H287V0H175V604Z" />
<glyph unicode="&#x165;" glyph-name="tcaron" horiz-adv-x="303" d="M222 583L230 734H315L288 583H222ZM197 -6Q139 -6 106 21T73 116V437H13V519H73V639H177V519H278V437H177V132Q177 100 189 89T232 77Q247 77 259 79L282 84V14Q270 6 249 0T197 -6Z" />
<glyph unicode="&#x166;" glyph-name="Tbar" horiz-adv-x="460" d="M62 419H174V604H14V693H444V604H286V419H398V348H286V0H174V348H62V419Z" />
<glyph unicode="&#x167;" glyph-name="tbar" horiz-adv-x="303" d="M13 349H73V437H13V519H73V639H177V519H278V437H177V349H278V285H177V132Q177 100 189 89T232 77Q247 77 259 79L282 84V14Q270 6 249 0T197 -6Q139 -6 106 21T73 116V285H13V349Z" />
<glyph unicode="&#x168;" glyph-name="Utilde" horiz-adv-x="559" d="M282 -11Q164 -11 110 46T55 211V693H167V219Q167 144 195 112T286 79Q348 79 373 111T399 220V693H504V214Q504 102 451 46T282 -11ZM143 740Q146 798 172 823T231 848Q247 848 260 844T284
834T306 824T327 819Q350 819 356 849H422Q417 793 392 767T333 741Q317 741 304 745T280 755T258 764T238 769Q224 769 218 762T208 740H143Z" />
<glyph unicode="&#x169;" glyph-name="utilde" horiz-adv-x="468" d="M178 -8Q109 -8 78 28T47 131V519H152V141Q152 110 165 95T221 79Q249 79 274 88T315 106V519H420V0H330L321 42H317Q291 23 257 8T178 -8ZM95 598Q98 656 124 682T184 709Q201 709 214 704T238
693T259 682T281 677Q306 677 310 711H375Q371 656 345 628T284 600Q268 600 255 605T231 616T210 627T189 632Q165 632 160 598H95Z" />
<glyph unicode="&#x16a;" glyph-name="Umacron" horiz-adv-x="559" d="M282 -11Q164 -11 110 46T55 211V693H167V219Q167 144 195 112T286 79Q348 79 373 111T399 220V693H504V214Q504 102 451 46T282 -11ZM171 819H391V741H171V819Z" />
<glyph unicode="&#x16b;" glyph-name="umacron" horiz-adv-x="468" d="M178 -8Q109 -8 78 28T47 131V519H152V141Q152 110 165 95T221 79Q249 79 274 88T315 106V519H420V0H330L321 42H317Q291 23 257 8T178 -8ZM126 686H344V606H126V686Z" />
<glyph unicode="&#x16c;" glyph-name="Ubreve" horiz-adv-x="559" d="M282 -11Q164 -11 110 46T55 211V693H167V219Q167 144 195 112T286 79Q348 79 373 111T399 220V693H504V214Q504 102 451 46T282 -11ZM281 732Q224 732 193 767T158 854H230Q238 804 281 804Q325
804 331 854H405Q402 802 370 767T281 732Z" />
<glyph unicode="&#x16d;" glyph-name="ubreve" horiz-adv-x="468" d="M178 -8Q109 -8 78 28T47 131V519H152V141Q152 110 165 95T221 79Q249 79 274 88T315 106V519H420V0H330L321 42H317Q291 23 257 8T178 -8ZM235 588Q178 588 146 622T112 711H184Q192 661 235
661Q279 661 285 711H359Q357 657 324 623T235 588Z" />
<glyph unicode="&#x16e;" glyph-name="Uring" horiz-adv-x="559" d="M282 -11Q164 -11 110 46T55 211V693H167V219Q167 144 195 112T286 79Q348 79 373 111T399 220V693H504V214Q504 102 451 46T282 -11ZM281 966Q241 966 215 991T188 1057Q188 1098 214 1123T281
1149Q322 1149 347 1124T373 1058Q373 1018 348 992T281 966ZM281 1013Q300 1013 310 1025T321 1058Q321 1078 310 1090T281 1102Q262 1102 251 1090T240 1058Q240 1038 251 1026T281 1013Z" />
<glyph unicode="&#x16f;" glyph-name="uring" horiz-adv-x="468" d="M235 576Q195 576 169 600T143 667Q143 707 168 732T235 758Q275 758 301 733T327 668Q327 627 301 602T235 576ZM235 623Q253 623 264 634T275 667Q275 687 264 699T235 711Q216 711 206 699T195
667Q195 647 205 635T235 623ZM178 -8Q109 -8 78 28T47 131V519H152V141Q152 110 165 95T221 79Q249 79 274 88T315 106V519H420V0H330L321 42H317Q291 23 257 8T178 -8Z" />
<glyph unicode="&#x170;" glyph-name="Uhungarumlaut" horiz-adv-x="559" d="M346 856H448L394 734H311L346 856ZM197 856H299L245 734H162L197 856ZM282 -11Q164 -11 110 46T55 211V693H167V219Q167 144 195 112T286 79Q348 79 373 111T399 220V693H504V214Q504
102 451 46T282 -11Z" />
<glyph unicode="&#x171;" glyph-name="uhungarumlaut" horiz-adv-x="468" d="M178 -8Q109 -8 78 28T47 131V519H152V141Q152 110 165 95T221 79Q249 79 274 88T315 106V519H420V0H330L321 42H317Q291 23 257 8T178 -8ZM303 726H405L346 585H264L303 726ZM155 726H257L197
585H115L155 726Z" />
<glyph unicode="&#x172;" glyph-name="Uogonek" horiz-adv-x="559" d="M376 -3Q347 -20 325 -44T303 -97Q303 -118 316 -125T347 -132Q363 -132 373 -128V-189Q365 -194 350 -196T318 -199Q270 -199 244 -178T217 -116Q217 -80 236 -54T279 -11H268Q158 -7 107
49T55 212V693H166V218Q166 142 194 109T286 76Q347 76 373 108T399 218V693H504V215Q504 166 495 132T468 72T427 30T376 -3Z" />
<glyph unicode="&#x173;" glyph-name="uogonek" horiz-adv-x="468" d="M420 3Q395 -18 375 -43T355 -95Q355 -115 367 -122T399 -129Q407 -129 414 -129T426 -127V-187Q418 -191 404 -194T372 -197Q323 -197 296 -175T269 -113Q269 -77 288 -51T332 -7L321 42H317Q291
23 257 8T178 -8Q109 -8 78 28T47 131V519H152V141Q152 110 165 95T221 79Q249 79 274 88T315 106V519H420V3Z" />
<glyph unicode="&#x174;" glyph-name="Wcircumflex" horiz-adv-x="756" d="M337 854H423L510 734H432L379 786L330 734H251L337 854ZM15 693H127L205 261Q207 249 210 232T215 199Q218 181 221 161H224Q226 179 230 197Q232 212 235 230T242 262L335 693H433L522
263Q524 250 527 233T534 199Q538 180 541 160H543Q545 174 548 192Q550 206 552 225T559 264L639 693H741L603 0H485L401 398Q397 417 394 438T388 476Q384 496 381 516H379Q376 495 372 475Q369 458 365 438T358 399L272 0H152L15 693Z" />
<glyph unicode="&#x175;" glyph-name="wcircumflex" horiz-adv-x="642" d="M280 724H370L458 585H380L324 653L270 585H191L280 724ZM11 519H118L174 245Q179 222 182 202T188 168Q191 151 194 138H197Q199 151 203 168Q206 182 210 202T220 245L281 519H372L434
245Q439 220 443 201T451 167Q455 150 457 138H460Q461 151 465 168Q467 182 471 201T480 244L535 519H631L512 0H405L348 238Q343 261 339 282T330 321Q326 340 322 357H320Q317 340 313 321Q309 304 304 283T294 238L236 0H132L11 519Z" />
<glyph unicode="&#x176;" glyph-name="Ycircumflex" horiz-adv-x="496" d="M193 261L6 693H126L208 489Q219 462 227 441T242 404Q249 386 254 373H257Q262 385 268 403Q273 418 281 439T301 489L382 693H490L306 262V0H193V261ZM212 854H298L385 734H307L254
786L205 734H126L212 854Z" />
<glyph unicode="&#x177;" glyph-name="ycircumflex" horiz-adv-x="437" d="M101 -197Q83 -197 65 -193T33 -183V-110Q43 -112 56 -113T80 -114Q112 -114 130 -98T161 -40L175 2L8 519H120L206 225Q211 207 214 193T220 167Q223 155 225 146H228L233 171Q238 195
247 224L326 519H429L257 -54Q235 -126 201 -161T101 -197ZM179 724H269L357 585H279L223 653L169 585H90L179 724Z" />
<glyph unicode="&#x178;" glyph-name="Ydieresis" horiz-adv-x="496" d="M193 261L6 693H126L208 489Q219 462 227 441T242 404Q249 386 254 373H257Q262 385 268 403Q273 418 281 439T301 489L382 693H490L306 262V0H193V261ZM287 836H384V739H287V836ZM127 836H224V739H127V836Z"
/>
<glyph unicode="&#x179;" glyph-name="Zacute" horiz-adv-x="457" d="M242 857H353L275 735H189L242 857ZM25 80L304 601V604H44V693H433V612L152 92V89H427V0H25V80Z" />
<glyph unicode="&#x17a;" glyph-name="zacute" horiz-adv-x="392" d="M477 726H589L497 585H410L477 726ZM26 76L241 434V437H36V519H366V447L147 85V82H364V0H26V76Z" />
<glyph unicode="&#x17b;" glyph-name="Zdotaccent" horiz-adv-x="457" d="M25 80L304 601V604H44V693H433V612L152 92V89H427V0H25V80ZM185 839H289V741H185V839Z" />
<glyph unicode="&#x17c;" glyph-name="zdotaccent" horiz-adv-x="392" d="M26 76L241 434V437H36V519H366V447L147 85V82H364V0H26V76ZM409 706H516V605H409V706Z" />
<glyph unicode="&#x17d;" glyph-name="Zcaron" horiz-adv-x="457" d="M283 734H197L111 854H190L240 800L292 854H370L283 734ZM25 80L304 601V604H44V693H433V612L152 92V89H427V0H25V80Z" />
<glyph unicode="&#x17e;" glyph-name="zcaron" horiz-adv-x="392" d="M509 585H419L330 724H409L464 657L519 724H597L509 585ZM26 76L241 434V437H36V519H366V447L147 85V82H364V0H26V76Z" />
<glyph unicode="&#x192;" glyph-name="florin" horiz-adv-x="370" d="M25 450H105L122 569Q134 657 178 695T291 734Q318 734 336 730T366 721V644Q354 646 343 647T316 649Q281 649 259 629T230 556L215 450H313V363H203L151 -22Q139 -108 100 -144T-4 -181Q-33
-181 -51 -176T-81 -165V-91Q-74 -93 -63 -95T-37 -97Q-9 -97 12 -81T40 -15L92 363H25V450Z" />
<glyph unicode="&#x1fa;" glyph-name="Aringacute" horiz-adv-x="533" d="M202 693H330L525 0H411L364 173H157L111 0H8L202 693ZM258 569Q256 554 252 537Q249 523 245 506T237 472L180 258H340L283 472Q279 488 276 505T269 536Q265 553 262 569H258ZM278 1053H389L311
931H225L278 1053ZM264 724Q224 724 198 749T171 815Q171 856 197 881T264 907Q305 907 330 882T356 816Q356 776 331 750T264 724ZM264 771Q283 771 293 783T304 816Q304 836 293 848T264 860Q245 860 234 848T223 816Q223 796 234 784T264 771Z" />
<glyph unicode="&#x1fb;" glyph-name="aringacute" horiz-adv-x="425" d="M168 -8Q102 -8 62 28T22 140Q22 212 61 249T174 297L274 312V354Q274 404 252 422T173 441Q139 441 111 436T62 423V498Q90 510 127 518T214 527Q297 527 338 491T379 377V0H292L284 36H279Q262
17 234 5T168 -8ZM200 68Q224 68 243 75T274 91V238L203 230Q165 225 147 206T128 149Q128 68 200 68ZM211 576Q171 576 145 600T119 667Q119 707 144 732T211 758Q251 758 277 733T303 668Q303 627 277 602T211 576ZM211 623Q229 623 240 634T251 667Q251 687
240 699T211 711Q192 711 182 699T171 667Q171 647 181 635T211 623ZM221 919H332L254 797H168L221 919Z" />
<glyph unicode="&#x1fc;" glyph-name="AEacute" horiz-adv-x="757" d="M507 857H618L540 735H454L507 857ZM296 693H721V604H471V401H668V313H471V89H726V0H361V178H180L105 0H-2L296 693ZM216 264H361V603H357L216 264Z" />
<glyph unicode="&#x1fd;" glyph-name="aeacute" horiz-adv-x="686" d="M497 -8Q379 -8 323 62Q296 32 259 12T167 -8Q101 -8 62 28T22 139Q22 209 61 245T176 292L274 305V354Q274 404 252 422T172 441Q138 441 110 436T62 423V498Q89 510 126 518T212 527Q309
527 340 465Q388 527 476 527Q572 527 617 469T662 283V233H378Q380 147 412 112T513 76Q554 76 587 86T647 110V37Q627 20 587 6T497 -8ZM295 113Q275 161 273 234L204 227Q164 222 146 204T127 147Q127 68 198 68Q227 68 250 79T295 113ZM470 447Q429 447 405
414T378 305H557Q557 380 537 413T470 447ZM373 726H485L393 585H306L373 726Z" />
<glyph unicode="&#x1fe;" glyph-name="Oslashacute" horiz-adv-x="581" d="M288 -10Q236 -10 196 7T125 53L89 0H7L83 110Q57 155 46 209T34 324V369Q34 534 101 618T295 703Q343 703 382 688T450 646L483 693H565L495 592Q522 548 535 493T549 374V323Q549 161
482 76T288 -10ZM292 77Q366 77 399 137T433 305V405Q433 429 431 450T425 490L181 135Q216 77 292 77ZM150 290Q150 270 151 251T155 215L395 566Q359 616 289 616Q251 616 225 600T182 555T158 483T150 389V290ZM296 857H407L329 735H243L296 857Z" />
<glyph unicode="&#x1ff;" glyph-name="oslashacute" horiz-adv-x="471" d="M236 -8Q156 -8 104 33L80 0H6L64 80Q26 142 26 241V275Q26 393 82 460T235 527Q309 527 362 488L384 519H459L404 444Q424 413 435 372T446 278V245Q446 126 390 59T236 -8ZM237 71Q289
71 314 114T339 231V296Q339 311 338 324T335 350L157 106Q183 71 237 71ZM132 222Q132 209 132 198T134 176L309 417Q296 434 277 441T235 448Q181 448 157 405T132 287V222ZM245 726H357L265 585H178L245 726Z" />
<glyph unicode="&#x218;" glyph-name="Scommaaccent" d="M156 -41H259L218 -178H144L156 -41ZM191 -11Q136 -11 94 0T25 28V118Q57 103 97 92T180 81Q241 81 269 107T297 189Q297 214 292 230T276 259T248 280T209 300L161 321Q130 334 106 350T64 389T37 442T28
512Q28 602 81 652T236 703Q293 703 325 694T380 673V584Q356 595 321 604T241 613Q136 613 136 521Q136 480 153 460T212 421L260 401Q293 387 320 372T367 334T398 280T409 202Q409 155 397 116T358 49T290 5T191 -11Z" />
<glyph unicode="&#x219;" glyph-name="scommaaccent" horiz-adv-x="358" d="M383 -41H486L445 -178H371L383 -41ZM159 -8Q116 -8 82 0T22 22V102Q47 92 75 84T145 75Q193 75 213 92T233 142Q233 172 219 187T169 215L128 230Q77 249 50 282T22 375Q22 447 66 487T194
527Q239 527 266 520T313 502V421Q293 429 266 436T203 444Q164 444 143 431T122 386Q122 360 135 346T180 321L218 308Q279 287 307 254T336 155Q336 75 290 34T159 -8Z" />
<glyph unicode="&#x21a;" glyph-name="uni021A" horiz-adv-x="460" d="M180 -41H283L242 -178H168L180 -41ZM175 604H15V693H445V604H287V0H175V604Z" />
<glyph unicode="&#x21b;" glyph-name="uni021B" horiz-adv-x="303" d="M387 -41H490L449 -178H375L387 -41ZM197 -6Q139 -6 106 21T73 116V437H13V519H73V639H177V519H278V437H177V132Q177 100 189 89T232 77Q247 77 259 79L282 84V14Q270 6 249 0T197 -6Z" />
<glyph unicode="&#x237;" glyph-name="uni0237" horiz-adv-x="205" d="M19 -197Q-6 -197 -23 -193T-54 -180V-110Q-46 -111 -35 -112T-13 -114Q19 -114 34 -97T50 -41V519H154V-48Q154 -81 147 -108T124 -155T82 -186T19 -197Z" />
<glyph unicode="&#x2c6;" glyph-name="circumflex" horiz-adv-x="419" d="M164 724H254L342 585H264L208 653L154 585H75L164 724Z" />
<glyph unicode="&#x2c7;" glyph-name="caron" horiz-adv-x="419" d="M255 585H165L76 724H155L210 657L265 724H343L255 585Z" />
<glyph unicode="&#x2d8;" glyph-name="breve" horiz-adv-x="419" d="M209 588Q152 588 120 622T86 711H158Q166 661 209 661Q253 661 259 711H333Q331 657 298 623T209 588Z" />
<glyph unicode="&#x2d9;" glyph-name="dotaccent" horiz-adv-x="419" d="M155 706H262V605H155V706Z" />
<glyph unicode="&#x2da;" glyph-name="ring" horiz-adv-x="419" d="M209 576Q169 576 143 600T117 667Q117 707 142 732T209 758Q249 758 275 733T301 668Q301 627 275 602T209 576ZM209 623Q227 623 238 634T249 667Q249 687 238 699T209 711Q190 711 180 699T169
667Q169 647 179 635T209 623Z" />
<glyph unicode="&#x2db;" glyph-name="ogonek" horiz-adv-x="419" d="M216 -199Q167 -199 141 -178T114 -116Q114 -95 122 -77T141 -45T167 -19T193 0H261Q238 -23 219 -47T200 -97Q200 -118 213 -125T244 -132Q260 -132 270 -128V-189Q262 -194 247 -196T216 -199Z" />
<glyph unicode="&#x2dc;" glyph-name="tilde" horiz-adv-x="419" d="M67 598Q70 656 96 682T156 709Q173 709 186 704T210 693T231 682T253 677Q278 677 282 711H347Q343 656 317 628T256 600Q240 600 227 605T203 616T182 627T161 632Q137 632 132 598H67Z" />
<glyph unicode="&#x2dd;" glyph-name="hungarumlaut" horiz-adv-x="419" d="M269 726H371L312 585H230L269 726ZM121 726H223L163 585H81L121 726Z" />
</font>
</defs>
</svg>
