<?xml version="1.0" standalone="no"?> <!DOCTYPE svg PUBLIC "-//W3C//DTD SVG 1.0//EN" "http://www.w3.org/TR/2001/REC-SVG-20010904/DTD/svg10.dtd" > <svg xmlns="http://www.w3.org/2000/svg" width="100%" height="100%">
<defs >
<font horiz-adv-x="449" ><font-face
    font-family=""
    units-per-em="1000"
    panose-1="2 11 8 3 3 2 2 6 2 3"
    ascent="809"
    descent="-191"
    alphabetic="0" />
<missing-glyph horiz-adv-x="419" />
<glyph unicode=" " glyph-name="space" horiz-adv-x="145" />
<glyph unicode="!" glyph-name="exclam" horiz-adv-x="250" d="M52 693H199L179 210H71L52 693ZM60 126H190V0H60V126Z" />
<glyph unicode="&quot;" glyph-name="quotedbl" horiz-adv-x="355" d="M33 693H156L143 491H45L33 693ZM199 693H322L309 491H211L199 693Z" />
<glyph unicode="#" glyph-name="numbersign" horiz-adv-x="472" d="M46 515H124L147 693H238L216 515H297L320 693H411L387 515H450V410H374L360 296H424V192H346L322 0H232L256 192H174L150 0H60L84 192H19V296H96L111 410H46V515ZM187 296H269L284 410H202L187 296Z" />
<glyph unicode="$" glyph-name="dollar" horiz-adv-x="462" d="M142 -6Q105 -1 76 8T26 31V130Q56 116 89 107T157 93L188 305L181 307Q148 316 120 331T71 369T39 425T27 503Q27 548 40 584T80 647T147 688T243 703H246L255 765H325L315 698Q347 693 368 685T404
668V569Q384 577 358 585T300 599L272 408H273Q312 397 342 382T392 343T423 286T434 206Q434 105 377 49T210 -10L195 -113H127L142 -6ZM312 190Q312 228 299 248T253 283L225 92Q312 104 312 190ZM145 513Q145 481 158 462T206 428L231 602Q145 598 145 513Z"
/>
<glyph unicode="%" glyph-name="percent" horiz-adv-x="759" d="M523 713H618L227 -40H132L523 713ZM174 330Q100 330 61 374T21 510V522Q21 609 61 656T173 703Q245 703 286 660T327 525V514Q327 425 287 378T174 330ZM175 404Q202 404 215 424T228 501V533Q228
588 214 609T174 630Q147 630 134 609T120 534V502Q120 446 133 425T175 404ZM585 -9Q512 -9 473 36T433 172V184Q433 271 472 317T584 364Q656 364 697 321T738 187V176Q738 87 698 39T585 -9ZM586 65Q613 65 626 85T640 162V194Q640 249 626 270T585 291Q559
291 545 271T531 195V163Q531 107 544 86T586 65Z" />
<glyph unicode="&amp;" glyph-name="ampersand" horiz-adv-x="585" d="M248 -9Q135 -9 78 44T21 189Q21 261 56 310T155 392Q132 426 118 459T103 535Q103 614 152 658T284 703Q367 703 410 663T454 553Q454 521 445 495T419 448T376 408T319 372L426 219Q445
274 450 348H553Q551 282 535 228T490 128L580 0H431L403 39Q369 16 330 4T248 -9ZM262 87Q313 87 351 113L208 316Q181 295 167 268T153 202Q153 147 180 117T262 87ZM230 544Q230 516 241 493T271 442L273 439Q304 461 321 485T338 549Q338 583 324 599T285 615Q259
615 245 599T230 544Z" />
<glyph unicode="&apos;" glyph-name="quotesingle" horiz-adv-x="189" d="M33 693H156L143 491H45L33 693Z" />
<glyph unicode="(" glyph-name="parenleft" horiz-adv-x="309" d="M202 -119Q172 -90 142 -48T88 46T50 161T35 295V319Q35 390 49 452T88 568T142 663T202 735H306Q278 700 253 655T208 558T176 447T164 327V293Q164 232 176 174T207 62T252 -38T306 -119H202Z" />
<glyph unicode=")" glyph-name="parenright" horiz-adv-x="309" d="M4 -119Q32 -84 57 -39T102 58T133 167T145 286V320Q145 381 134 440T103 553T58 653T4 735H109Q139 705 168 663T221 568T260 452T275 319V295Q275 224 260 162T222 47T169 -48T109 -119H4Z" />
<glyph unicode="*" glyph-name="asterisk" horiz-adv-x="341" d="M207 598L283 651L323 576L237 536L323 495L283 422L207 475L212 378H129L133 475L58 422L18 495L104 536L18 576L58 650L133 598L129 693H212L207 598Z" />
<glyph unicode="+" glyph-name="plus" horiz-adv-x="452" d="M169 297H33V405H169V554H282V405H421V297H282V147H169V297Z" />
<glyph unicode="," glyph-name="comma" horiz-adv-x="219" d="M50 129H182L138 -81H36L50 129Z" />
<glyph unicode="-" glyph-name="hyphen" horiz-adv-x="279" d="M39 334H240V229H39V334Z" />
<glyph unicode="." glyph-name="period" horiz-adv-x="221" d="M46 128H175V0H46V128Z" />
<glyph unicode="/" glyph-name="slash" horiz-adv-x="327" d="M203 735H315L106 -119H-5L203 735Z" />
<glyph unicode="0" glyph-name="zero" horiz-adv-x="565" d="M283 -10Q227 -10 181 8T102 65T51 167T33 320V371Q33 458 51 520T101 623T180 683T282 703Q338 703 384 685T463 628T514 527T532 377V324Q532 238 515 175T465 71T386 10T283 -10ZM284 96Q342 96
364 145T386 302V389Q386 501 362 549T282 597Q227 597 204 549T180 394V308Q180 199 203 148T284 96Z" />
<glyph unicode="1" glyph-name="one" horiz-adv-x="317" d="M118 555L18 546V627L184 697H256V0H118V555Z" />
<glyph unicode="2" glyph-name="two" horiz-adv-x="444" d="M22 96L157 266Q179 294 198 319T231 369T253 422T261 480Q261 535 234 563T147 591Q112 591 84 584T34 565V668Q60 682 101 692T198 703Q305 703 356 648T408 502Q408 458 398 421T370 351T327 286T273
221L177 110V107H413V0H22V96Z" />
<glyph unicode="3" glyph-name="three" horiz-adv-x="446" d="M184 -9Q124 -9 85 1T19 27V126Q44 115 76 108T143 100Q206 100 237 124T268 208Q268 262 242 284T161 307H105V408H157Q257 408 257 502Q257 553 231 573T150 594Q115 594 87 588T36 574V673Q63 687
103 695T194 703Q291 703 344 659T397 530Q397 460 367 422T286 369V366Q346 354 380 316T414 196Q414 98 354 45T184 -9Z" />
<glyph unicode="4" glyph-name="four" horiz-adv-x="514" d="M277 158H12V252L284 694H412V261H502V158H412V0H277V158ZM278 261V508H274L125 264V261H278Z" />
<glyph unicode="5" glyph-name="five" horiz-adv-x="444" d="M182 -9Q125 -9 85 0T19 24V125Q44 114 74 108T139 101Q205 101 235 130T266 219Q266 279 237 305T139 331Q111 331 87 328T41 321L60 693H393V586H165L156 426Q167 428 181 429T214 431Q314 431 363
380T413 220Q413 114 354 53T182 -9Z" />
<glyph unicode="6" glyph-name="six" horiz-adv-x="520" d="M270 89Q353 89 353 216Q353 283 331 310T263 338Q234 338 212 330T178 314V271Q178 179 199 134T270 89ZM272 -10Q152 -10 93 70T33 293V347Q33 447 54 515T114 625T205 685T319 703Q367 703 401 697T455
679V577Q438 582 408 587T345 593Q309 593 279 586T226 557T191 498T177 397Q200 412 232 423T311 435Q399 435 445 382T492 227Q492 175 479 132T438 57T370 8T272 -10Z" />
<glyph unicode="7" glyph-name="seven" horiz-adv-x="426" d="M269 579V583H15V693H410V593L207 0H59L269 579Z" />
<glyph unicode="8" glyph-name="eight" horiz-adv-x="520" d="M256 -9Q141 -9 84 39T26 170Q26 234 61 276T151 344Q107 370 78 411T48 519Q48 559 62 593T104 651T172 689T266 703Q370 703 422 656T475 528Q475 471 444 431T367 369Q426 339 459 298T493 186Q493
96 432 44T256 -9ZM255 88Q301 88 328 109T356 176Q356 221 325 248T229 303Q195 284 174 255T152 181Q152 139 179 114T255 88ZM287 411Q317 432 334 457T352 521Q352 559 332 582T267 605Q225 605 204 584T183 526Q183 486 208 460T287 411Z" />
<glyph unicode="9" glyph-name="nine" horiz-adv-x="521" d="M202 -10Q153 -10 117 -3T61 16V118Q78 113 110 107T175 100Q216 100 247 107T299 136T331 196T343 296Q320 281 289 270T215 258Q124 258 76 311T28 467Q28 519 41 562T82 637T152 685T252 703Q370
703 428 625T487 401V346Q487 246 467 178T410 68T321 8T202 -10ZM258 355Q287 355 308 363T343 379V421Q343 517 322 560T252 603Q209 603 188 573T167 477Q167 409 190 382T258 355Z" />
<glyph unicode=":" glyph-name="colon" horiz-adv-x="227" d="M48 128H177V0H48V128ZM48 423H177V295H48V423Z" />
<glyph unicode=";" glyph-name="semicolon" horiz-adv-x="230" d="M50 129H182L138 -81H36L50 129ZM50 423H179V295H50V423Z" />
<glyph unicode="&lt;" glyph-name="less" horiz-adv-x="404" d="M32 271V371L363 543V425L150 322L363 218V99L32 271Z" />
<glyph unicode="=" glyph-name="equal" d="M40 446H409V344H40V446ZM40 265H409V161H40V265Z" />
<glyph unicode="&gt;" glyph-name="greater" horiz-adv-x="404" d="M40 218L254 323L40 425V543L371 371V271L40 99V218Z" />
<glyph unicode="?" glyph-name="question" horiz-adv-x="378" d="M89 259Q89 285 93 304T106 339T131 372T169 410Q183 423 193 434T209 458T218 484T221 516Q221 561 196 579T120 598Q86 598 64 593T20 582V679Q46 690 82 696T165 703Q252 703 304 661T356 530Q356
498 351 475T336 431T309 393T270 353Q251 336 238 324T217 301T206 278T202 248V210H89V259ZM82 126H212V0H82V126Z" />
<glyph unicode="@" glyph-name="at" horiz-adv-x="806" d="M398 -154Q316 -154 249 -132T135 -65T61 51T35 218Q35 321 64 405T146 550T274 644T442 678Q523 678 585 654T689 585T752 479T773 342Q773 264 757 206T712 109T644 51T561 32Q510 32 485 48T450 92H446Q429
69 402 52T336 34Q276 34 243 73T209 190Q209 256 222 308T260 398T320 456T400 476Q429 476 450 468T486 446H490L495 469H602L550 165Q545 139 551 125T578 110Q602 110 622 126T656 171T679 243T687 337Q687 397 674 445T630 528T553 581T438 600Q365 600 307
573T208 497T145 376T123 217Q123 65 196 -6T400 -78Q469 -77 521 -64T611 -36V-103Q575 -124 519 -139T398 -154ZM374 117Q393 117 408 125T434 144L472 381Q465 388 452 394T419 400Q393 400 376 380T348 330T332 264T327 194Q327 152 339 135T374 117Z" />
<glyph unicode="A" glyph-name="A" horiz-adv-x="557" d="M196 693H359L551 0H410L368 156H174L135 0H6L196 693ZM269 547Q266 531 262 513Q259 498 256 480T247 442L199 254H343L294 442Q290 461 286 479T279 513Q275 531 272 547H269Z" />
<glyph unicode="B" glyph-name="B" horiz-adv-x="530" d="M52 693H278Q385 693 433 649T482 520Q482 458 456 419T373 366V362Q403 357 427 346T470 316T497 267T507 195Q507 151 494 115T454 54T385 14T283 0H52V693ZM259 99Q315 99 338 125T362 209Q362 266
336 288T257 310H190V99H259ZM247 403Q293 403 319 424T346 501Q346 556 323 575T252 595H190V403H247Z" />
<glyph unicode="C" glyph-name="C" horiz-adv-x="488" d="M307 -10Q175 -10 102 68T29 321V369Q29 464 51 528T112 631T203 686T315 703Q364 703 400 695T460 673V568Q432 579 403 585T335 592Q298 592 269 581T220 545T189 479T178 378V326Q178 216 213 159T335
101Q379 101 411 110T466 131V25Q440 10 400 0T307 -10Z" />
<glyph unicode="D" glyph-name="D" horiz-adv-x="574" d="M52 693H256Q325 693 378 676T469 620T526 522T546 376V332Q546 164 472 82T256 0H52V693ZM257 106Q330 106 364 155T399 320V377Q399 437 389 477T361 542T315 577T251 587H192V106H257Z" />
<glyph unicode="E" glyph-name="E" horiz-adv-x="469" d="M52 693H434V586H191V408H385V304H191V107H441V0H52V693Z" />
<glyph unicode="F" glyph-name="F" horiz-adv-x="450" d="M52 693H428V586H191V390H381V285H191V0H52V693Z" />
<glyph unicode="G" glyph-name="G" horiz-adv-x="557" d="M315 -9Q247 -9 194 8T104 64T48 167T29 327V366Q29 457 50 521T110 625T204 684T329 703Q389 703 428 692T491 669V562Q465 573 430 582T343 591Q294 591 262 577T211 535T183 469T175 380V307Q175 256
181 217T204 151T247 111T316 97Q337 97 355 100T386 107V273H295V375H518V29Q486 15 434 3T315 -9Z" />
<glyph unicode="H" glyph-name="H" horiz-adv-x="587" d="M52 693H192V411H395V693H535V0H395V304H192V0H52V693Z" />
<glyph unicode="I" glyph-name="I" horiz-adv-x="244" d="M52 693H192V0H52V693Z" />
<glyph unicode="J" glyph-name="J" horiz-adv-x="370" d="M140 -7Q98 -7 69 -1T18 16V118Q33 113 54 110T100 106Q142 106 162 126T182 193V693H321V178Q321 137 312 104T280 45T224 7T140 -7Z" />
<glyph unicode="K" glyph-name="K" horiz-adv-x="547" d="M196 356L388 693H533L340 366L543 0H385L196 356ZM52 693H192V0H52V693Z" />
<glyph unicode="L" glyph-name="L" horiz-adv-x="436" d="M52 693H192V107H417V0H52V693Z" />
<glyph unicode="M" glyph-name="M" horiz-adv-x="723" d="M52 693H245L333 338Q340 310 345 284T355 237Q359 212 363 191H366Q370 212 374 237Q378 258 383 284T395 338L482 693H671V0H540V323Q540 358 540 396T543 467Q544 505 546 543H543Q536 513 529 481Q523
454 516 422T502 361L410 0H301L211 357Q205 380 198 412T184 473Q176 506 169 542H166Q167 506 168 468Q169 436 169 397T170 322V0H52V693Z" />
<glyph unicode="N" glyph-name="N" horiz-adv-x="584" d="M52 693H212L359 349Q370 324 379 299T397 253Q406 228 415 205H417Q415 223 414 246Q411 285 411 356V693H532V0H387L234 345Q221 374 210 403T189 456Q178 484 169 510H166Q167 490 169 464Q171 441
171 410T173 338V0H52V693Z" />
<glyph unicode="O" glyph-name="O" horiz-adv-x="596" d="M298 -10Q236 -10 187 9T103 68T49 172T30 324V369Q30 453 49 515T103 619T187 682T298 703Q359 703 409 684T493 625T547 522T566 372V325Q566 158 494 74T298 -10ZM299 97Q363 97 391 149T419 303V380Q419
490 392 543T297 596Q232 596 205 543T177 391V314Q177 205 204 151T299 97Z" />
<glyph unicode="P" glyph-name="P" horiz-adv-x="513" d="M52 693H270Q385 693 439 641T494 477Q494 365 439 309T272 252H192V0H52V693ZM252 351Q306 351 329 379T352 470Q352 538 329 563T254 589H192V351H252Z" />
<glyph unicode="Q" glyph-name="Q" horiz-adv-x="596" d="M238 -9Q192 5 154 27T88 88T45 184T30 324V369Q30 536 102 619T298 703Q359 703 409 684T493 625T547 523T566 373V328Q566 205 527 136T420 42L590 3L561 -109L238 -9ZM299 94Q362 94 390 146T419 301V380Q419
490 392 543T296 596Q233 596 205 543T177 391V312Q177 203 204 149T299 94Z" />
<glyph unicode="R" glyph-name="R" horiz-adv-x="530" d="M52 693H270Q384 693 437 645T491 487Q491 413 464 372T390 311V307L527 0H382L264 273H192V0H52V693ZM254 366Q305 366 327 393T349 479Q349 538 328 564T251 590H190V366H254Z" />
<glyph unicode="S" glyph-name="S" horiz-adv-x="450" d="M198 -10Q141 -10 97 0T24 27V135Q56 121 96 110T180 99Q237 99 263 121T289 192Q289 213 284 227T269 252T244 271T207 288L161 307Q96 334 60 379T24 504Q24 598 79 650T243 703Q304 703 338 694T396
673V567Q370 578 335 586T254 595Q158 595 158 516Q158 480 175 463T230 430L276 411Q310 397 337 382T385 343T416 288T427 208Q427 108 372 49T198 -10Z" />
<glyph unicode="T" glyph-name="T" horiz-adv-x="476" d="M168 586H14V693H462V586H308V0H168V586Z" />
<glyph unicode="U" glyph-name="U" horiz-adv-x="570" d="M287 -10Q161 -10 105 47T48 216V693H188V222Q188 156 211 127T291 98Q346 98 368 127T391 222V693H522V218Q522 105 465 48T287 -10Z" />
<glyph unicode="V" glyph-name="V" horiz-adv-x="549" d="M7 693H152L253 286Q258 263 262 240T271 200Q275 179 279 161H282Q285 179 289 199Q293 216 298 238T309 286L410 693H542L353 0H196L7 693Z" />
<glyph unicode="W" glyph-name="W" horiz-adv-x="778" d="M13 693H151L219 310Q221 293 224 273T231 235Q235 214 237 194H240Q242 214 246 234Q248 251 251 272T259 311L338 693H456L532 312Q535 294 538 274T545 235L552 193H555Q557 211 560 230Q562 247 565
268T573 312L641 693H765L629 0H483L412 354Q408 374 405 396T399 437Q395 458 393 479H390Q387 458 383 436Q380 417 377 395T369 354L297 0H148L13 693Z" />
<glyph unicode="X" glyph-name="X" horiz-adv-x="554" d="M191 353L27 693H179L250 540Q258 523 264 508T276 479Q282 464 288 451H291Q296 464 302 479Q307 492 313 507T326 540L392 693H531L371 360L541 0H391L312 174Q303 194 297 210T285 237Q280 250 275
260H272Q267 249 261 235Q256 223 249 207T233 173L152 0H13L191 353Z" />
<glyph unicode="Y" glyph-name="Y" horiz-adv-x="516" d="M190 258L2 693H151L222 512Q232 485 240 464T254 426Q261 408 266 393H269Q273 407 279 425Q284 441 292 462T311 512L381 693H514L330 260V0H190V258Z" />
<glyph unicode="Z" glyph-name="Z" horiz-adv-x="471" d="M24 98L287 583V586H41V693H445V594L181 110V107H442V0H24V98Z" />
<glyph unicode="[" glyph-name="bracketleft" horiz-adv-x="309" d="M52 735H286V637H179V-21H286V-119H52V735Z" />
<glyph unicode="\" glyph-name="backslash" horiz-adv-x="325" d="M10 735H121L329 -119H218L10 735Z" />
<glyph unicode="]" glyph-name="bracketright" horiz-adv-x="309" d="M23 -21H129V637H23V735H255V-119H23V-21Z" />
<glyph unicode="^" glyph-name="asciicircum" horiz-adv-x="403" d="M148 693H254L381 447H277L202 582L125 447H21L148 693Z" />
<glyph unicode="_" glyph-name="underscore" horiz-adv-x="309" d="M-3 -51H312V-133H-3V-51Z" />
<glyph unicode="`" glyph-name="grave" horiz-adv-x="421" d="M79 728H211L274 583H169L79 728Z" />
<glyph unicode="a" glyph-name="a" horiz-adv-x="441" d="M167 -8Q99 -8 59 29T18 142Q18 218 59 255T178 304L272 319V352Q272 397 251 414T176 431Q141 431 111 426T59 413V503Q88 516 129 524T225 532Q314 532 357 495T401 376V0H294L284 36H279Q263 17 235
5T167 -8ZM210 81Q230 81 246 86T272 100V235L213 228Q178 225 163 208T147 156Q147 117 162 99T210 81Z" />
<glyph unicode="b" glyph-name="b" horiz-adv-x="494" d="M229 -9Q174 -9 124 -1T43 22V735H171V492H175Q196 508 227 520T300 532Q334 532 365 521T419 482T455 409T469 297V263Q469 122 410 57T229 -9ZM236 84Q258 84 276 91T308 116T329 165T337 244V285Q337
328 332 356T315 400T286 423T246 429Q221 429 202 423T172 410V94Q182 90 198 87T236 84Z" />
<glyph unicode="c" glyph-name="c" horiz-adv-x="391" d="M245 -8Q137 -8 80 53T23 246V274Q23 341 39 390T85 470T157 517T251 532Q293 532 321 526T369 508V408Q348 417 325 424T267 431Q210 431 183 395T156 286V249Q156 164 183 129T270 93Q305 93 331 102T374
119V25Q354 11 322 2T245 -8Z" />
<glyph unicode="d" glyph-name="d" horiz-adv-x="494" d="M205 -8Q167 -8 134 5T77 47T38 124T24 242V268Q24 404 77 468T228 532Q259 532 284 526T323 511V735H451V0H340L331 38H327Q307 19 277 6T205 -8ZM250 90Q273 90 291 98T323 115V421Q312 428 294 432T254
437Q203 437 180 402T157 278V246Q157 162 180 126T250 90Z" />
<glyph unicode="e" glyph-name="e" horiz-adv-x="456" d="M259 -8Q23 -8 23 250V273Q23 400 77 466T235 532Q341 532 387 471T434 277V224H154Q158 151 188 121T283 90Q323 90 357 100T417 123V37Q395 20 355 6T259 -8ZM233 440Q198 440 177 412T154 307H309Q309
381 292 410T233 440Z" />
<glyph unicode="f" glyph-name="f" horiz-adv-x="299" d="M70 428H11V524H70V586Q70 667 111 704T223 742Q254 742 277 737T313 726V642Q304 644 291 645T263 647Q228 647 214 629T199 572V524H289V428H199V0H70V428Z" />
<glyph unicode="g" glyph-name="g" horiz-adv-x="458" d="M217 -194Q108 -194 56 -162T3 -72Q3 -27 28 -3T91 35V40Q68 50 53 69T38 121Q38 153 54 176T96 220Q69 237 50 269T31 349V365Q31 446 83 489T220 532Q263 532 298 524H450V441H387Q395 427 401 410T408
368V353Q408 313 395 283T357 231T298 200T222 189Q184 189 155 197Q150 191 146 182T142 163Q142 147 151 139T183 130H290Q453 130 453 -17Q453 -98 396 -146T217 -194ZM218 -107Q280 -107 305 -89T330 -38Q330 -12 314 2T260 17H165Q147 9 134 -7T121 -48Q121
-77 144 -92T218 -107ZM221 270Q252 270 269 289T286 351V366Q286 414 269 433T220 452Q154 452 154 368V353Q154 308 171 289T221 270Z" />
<glyph unicode="h" glyph-name="h" horiz-adv-x="487" d="M43 735H171V484H175Q201 504 235 518T315 532Q378 532 411 502T445 402V0H317V375Q317 404 303 416T256 428Q231 428 209 421T171 406V0H43V735Z" />
<glyph unicode="i" glyph-name="i" horiz-adv-x="216" d="M44 524H172V0H44V524ZM43 712H173V598H43V712Z" />
<glyph unicode="j" glyph-name="j" horiz-adv-x="217" d="M26 -196Q-2 -196 -22 -192T-54 -179V-95Q-47 -97 -37 -98T-16 -99Q14 -99 29 -84T44 -31V524H173V-41Q173 -111 140 -153T26 -196ZM43 712H174V598H43V712Z" />
<glyph unicode="k" glyph-name="k" horiz-adv-x="458" d="M171 0H43V735H171V0ZM311 524H444L304 282L452 0H312L172 275L311 524Z" />
<glyph unicode="l" glyph-name="l" horiz-adv-x="214" d="M43 735H171V0H43V735Z" />
<glyph unicode="m" glyph-name="m" horiz-adv-x="732" d="M43 524H167V482H171Q196 502 229 517T307 532Q388 532 417 477H421Q451 500 486 516T566 532Q624 532 657 503T690 402V0H562V376Q562 403 550 415T507 428Q487 428 468 422T431 406V0H303V376Q303 404
290 416T248 428Q225 428 206 421T171 406V0H43V524Z" />
<glyph unicode="n" glyph-name="n" horiz-adv-x="487" d="M43 524H167V482H171Q197 503 232 517T315 532Q378 532 411 502T445 402V0H317V375Q317 404 303 416T256 428Q231 428 209 421T171 406V0H43V524Z" />
<glyph unicode="o" glyph-name="o" horiz-adv-x="487" d="M243 -8Q132 -8 78 58T23 246V277Q23 400 82 466T243 532Q352 532 408 469T464 280V249Q464 125 405 59T243 -8ZM244 88Q289 88 310 125T331 234V288Q331 370 308 403T242 436Q197 436 177 399T156 290V236Q156
158 178 123T244 88Z" />
<glyph unicode="p" glyph-name="p" horiz-adv-x="493" d="M43 524H167V483H171Q191 503 222 517T298 532Q336 532 367 520T421 479T456 404T469 292V261Q469 120 417 56T266 -8Q233 -8 209 -2T171 13V-191H43V524ZM241 84Q290 84 313 120T337 244V283Q337 365
316 397T248 429Q222 429 202 422T171 406V102Q181 96 199 90T241 84Z" />
<glyph unicode="q" glyph-name="q" horiz-adv-x="492" d="M319 28Q300 13 271 3T203 -8Q168 -8 136 4T78 44T39 118T24 233V265Q24 338 40 389T88 471T164 517T267 532Q329 532 376 523T451 500V-191H323V28H319ZM257 437Q234 437 216 430T184 404T164 355T157
277V237Q157 194 163 166T180 122T209 99T249 92Q275 92 293 99T323 115V427Q312 431 296 434T257 437Z" />
<glyph unicode="r" glyph-name="r" horiz-adv-x="319" d="M43 524H167V467H171Q189 495 218 513T282 531Q290 531 297 530T310 527V409Q303 411 293 411T273 412Q213 412 171 384V0H43V524Z" />
<glyph unicode="s" glyph-name="s" horiz-adv-x="371" d="M163 -8Q119 -8 83 0T20 22V116Q45 106 74 98T145 89Q227 89 227 145Q227 171 214 183T168 207L128 222Q73 242 47 278T20 375Q20 451 66 491T202 532Q247 532 276 526T327 508V414Q307 422 278 429T214
436Q179 436 160 426T140 389Q140 367 152 356T194 334L232 320Q263 309 285 296T323 264T345 221T352 163Q352 78 304 35T163 -8Z" />
<glyph unicode="t" glyph-name="t" horiz-adv-x="316" d="M203 -7Q140 -7 105 21T69 121V428H11V524H69V645H198V524H293V428H198V143Q198 114 209 104T249 93Q263 93 275 95T296 100V15Q283 6 259 0T203 -7Z" />
<glyph unicode="u" glyph-name="u" horiz-adv-x="482" d="M176 -8Q108 -8 75 28T42 133V524H170V150Q170 123 182 110T231 96Q254 96 275 103T311 119V524H439V0H328L318 43H314Q288 24 255 8T176 -8Z" />
<glyph unicode="v" glyph-name="v" horiz-adv-x="460" d="M6 524H141L215 232Q219 216 222 201T228 174Q231 160 233 147H237Q239 160 243 174Q245 186 248 201T256 232L331 524H454L300 0H161L6 524Z" />
<glyph unicode="w" glyph-name="w" horiz-adv-x="661" d="M9 524H139L187 279Q192 254 195 234T201 199Q204 181 207 167H209Q212 180 216 198Q219 213 223 233T232 279L285 524H392L446 279Q451 253 455 233L462 198Q466 180 468 167H471Q472 181 476 199Q478
214 482 234L491 279L538 524H652L534 0H407L358 211Q352 234 348 257T339 297Q335 317 332 335H329Q326 316 322 296Q319 279 314 257T304 211L254 0H129L9 524Z" />
<glyph unicode="x" glyph-name="x" horiz-adv-x="455" d="M147 269L16 524H157L206 423Q214 406 219 393T229 370Q233 359 237 351H239Q239 353 246 372T267 424L313 524H435L310 271L447 0H307L254 112Q246 129 241 142T230 165Q225 176 221 185H220Q216 175
211 164Q206 154 201 141T187 111L133 0H8L147 269Z" />
<glyph unicode="y" glyph-name="y" horiz-adv-x="455" d="M111 -196Q91 -196 70 -192T34 -183V-94Q44 -96 57 -97T82 -99Q113 -99 131 -85T161 -34L172 1L5 524H141L214 262Q219 242 223 225T229 196Q232 182 234 170H238Q240 184 244 199Q247 212 250 228T258
261L327 524H450L279 -52Q268 -89 254 -116T220 -161T174 -187T111 -196Z" />
<glyph unicode="z" glyph-name="z" horiz-adv-x="403" d="M23 92L228 426V429H32V524H380V439L170 100V97H377V0H23V92Z" />
<glyph unicode="{" glyph-name="braceleft" horiz-adv-x="335" d="M311 -121Q246 -119 205 -108T139 -75T106 -25T96 42V175Q96 220 77 238T12 259V359Q58 361 77 378T96 441V575Q96 612 105 642T139 693T204 726T311 740V640Q288 638 272 635T244 623T228 599T222
558V435Q222 413 218 394T204 358T173 329T122 310V307Q153 301 173 289T203 261T218 224T222 182V59Q222 34 227 19T244 -4T271 -16T311 -21V-121Z" />
<glyph unicode="|" glyph-name="bar" horiz-adv-x="241" d="M70 735H171V-120H70V735Z" />
<glyph unicode="}" glyph-name="braceright" horiz-adv-x="335" d="M23 -21Q45 -19 62 -15T90 -3T107 21T113 61V184Q113 206 117 226T132 262T162 291T214 309V312Q182 318 163 330T132 358T117 395T113 437V559Q113 584 108 599T91 622T62 634T23 640V740Q88
738 129 726T195 693T228 643T238 577V443Q238 398 257 381T322 361V261Q276 259 257 241T238 178V43Q238 6 229 -23T195 -74T130 -107T23 -121V-21Z" />
<glyph unicode="~" glyph-name="asciitilde" horiz-adv-x="369" d="M23 234Q25 272 34 298T57 339T88 362T125 369Q143 369 158 364T185 352T209 341T233 335Q246 335 254 344T264 369H347Q343 298 314 267T245 235Q227 235 212 240T184 251T160 263T138 268Q124
268 116 259T106 234H23Z" />
<glyph unicode="&#xa0;" glyph-name="uni00A0" horiz-adv-x="145" />
<glyph unicode="&#xa1;" glyph-name="exclamdown" horiz-adv-x="250" d="M71 364H179L199 -120H52L71 364ZM60 573H189V447H60V573Z" />
<glyph unicode="&#xa2;" glyph-name="cent" horiz-adv-x="399" d="M188 -3Q107 12 65 72T23 245V273Q23 341 39 390T86 470T159 517T254 532H259L268 595H339L329 524Q345 521 357 517T380 507V409Q366 414 351 419T316 428L270 90H276Q312 90 339 98T384 114V25Q365
12 333 3T257 -8L243 -114H174L188 -3ZM153 248Q153 140 203 108L246 430Q198 423 176 387T153 286V248Z" />
<glyph unicode="&#xa3;" glyph-name="sterling" horiz-adv-x="466" d="M36 390H95V492Q95 549 111 589T155 655T223 691T307 703Q355 703 385 696T433 679V576Q414 583 393 587T345 591Q295 591 266 567T236 479V390H379V297H236V260Q236 199 220 166T173 109V107H440V0H30V97Q64
117 79 147T95 234V297H36V390Z" />
<glyph unicode="&#xa5;" glyph-name="yen" horiz-adv-x="522" d="M193 127H59V215H193V278H59V367H165L13 693H162L223 547Q234 518 243 494T259 453Q266 433 271 417H273Q278 433 285 453Q298 489 320 546L381 693H513L361 367H467V278H334V215H467V127H334V0H193V127Z" />
<glyph unicode="&#xa6;" glyph-name="brokenbar" horiz-adv-x="255" d="M70 276H185V-120H70V276ZM70 730H185V355H70V730Z" />
<glyph unicode="&#xa7;" glyph-name="section" horiz-adv-x="456" d="M204 -130Q153 -130 116 -122T52 -97V-1Q78 -13 109 -22T186 -31Q277 -31 277 36Q277 66 265 80T219 106L151 129Q89 149 54 183T18 286Q18 340 42 369T104 413Q81 432 68 462T54 537Q54 613
101 658T251 703Q299 703 331 695T385 676V581Q362 590 332 597T263 605Q219 605 200 590T180 543Q180 515 192 501T234 476L301 453Q335 442 361 430T405 399T432 356T441 295Q441 244 421 213T359 165Q385 146 397 118T409 45Q409 -38 359 -84T204 -130ZM316
274Q316 304 302 320T249 350L196 368Q169 362 154 346T139 301Q139 275 151 259T192 232Q193 232 201 229T218 223T235 217T244 214Q252 210 260 208Q286 215 301 231T316 274Z" />
<glyph unicode="&#xa8;" glyph-name="dieresis" horiz-adv-x="426" d="M243 709H356V598H243V709ZM69 709H182V598H69V709Z" />
<glyph unicode="&#xa9;" glyph-name="copyright" horiz-adv-x="669" d="M335 -11Q267 -11 211 13T114 83T51 195T28 345Q28 428 50 494T113 606T210 676T335 701Q403 701 459 677T556 607T619 495T642 345Q642 263 620 198T556 86T459 14T335 -11ZM335 40Q392
40 438 60T516 119T566 214T584 345Q584 418 566 475T516 571T437 630T335 650Q278 650 232 630T153 571T104 475T86 345Q86 271 103 215T153 119T232 60T335 40ZM348 146Q273 146 230 190T187 335V358Q187 410 200 446T235 505T288 537T353 547Q383 547 405 542T440
529V447Q426 453 410 457T371 461Q329 461 313 438T296 364V338Q296 281 314 256T374 231Q399 231 415 236T442 247V168Q427 160 405 153T348 146Z" />
<glyph unicode="&#xaa;" glyph-name="ordfeminine" horiz-adv-x="398" d="M148 219Q86 219 50 253T14 355Q14 422 52 454T160 496L241 509V538Q241 578 223 593T155 609Q124 609 97 604T51 593V674Q77 686 115 693T202 701Q280 701 320 668T360 562V227H261L251
259H247Q233 242 208 231T148 219ZM185 301Q204 301 218 306T241 318V437L190 432Q159 428 145 413T130 366Q130 301 185 301Z" />
<glyph unicode="&#xab;" glyph-name="guillemotleft" horiz-adv-x="429" d="M29 234V272L113 451H222L135 253L222 55H113L29 234ZM204 234V272L288 451H397L310 253L397 55H288L204 234Z" />
<glyph unicode="&#xae;" glyph-name="registered" horiz-adv-x="377" d="M189 311Q151 311 120 324T66 363T31 425T18 508Q18 553 30 589T66 650T120 689T189 703Q226 703 257 690T311 651T346 590T359 508Q359 463 347 427T312 365T258 325T189 311ZM189 341Q252
342 288 386T324 508Q324 585 288 629T189 673Q126 674 90 630T54 508Q54 430 90 386T189 341ZM120 611H197Q264 611 264 550Q264 529 257 517T237 499V497L274 411H218L190 484H174V411H120V611ZM188 524Q200 524 204 529T209 546Q209 560 205 565T188 570H174V524H188Z"
/>
<glyph unicode="&#xaf;" glyph-name="macron" horiz-adv-x="421" d="M94 690H327V600H94V690Z" />
<glyph unicode="&#xb0;" glyph-name="degree" horiz-adv-x="347" d="M174 428Q143 428 118 438T74 467T45 511T35 566Q35 594 45 619T73 662T116 691T173 702Q236 702 274 664T312 566Q312 537 302 512T274 468T231 439T174 428ZM174 493Q203 493 219 513T236
566Q236 598 219 617T173 637Q144 637 127 618T110 566Q110 534 127 514T174 493Z" />
<glyph unicode="&#xb4;" glyph-name="acute" horiz-adv-x="421" d="M209 728H341L250 583H146L209 728Z" />
<glyph unicode="&#xb6;" glyph-name="paragraph" horiz-adv-x="516" d="M242 331H208Q168 331 135 342T77 376T40 433T26 513Q26 552 37 585T73 642T134 679T222 693H464V-120H383V620H322V-120H242V331Z" />
<glyph unicode="&#xb7;" glyph-name="periodcentered" horiz-adv-x="219" d="M45 379H174V252H45V379Z" />
<glyph unicode="&#xb8;" glyph-name="cedilla" horiz-adv-x="421" d="M164 -162Q209 -158 228 -149T247 -123Q247 -106 233 -101T184 -94V6H247V-45Q291 -47 314 -65T338 -119Q338 -165 298 -190T164 -220V-162Z" />
<glyph unicode="&#xba;" glyph-name="ordmasculine" horiz-adv-x="435" d="M217 220Q117 220 69 280T20 446V474Q20 583 73 642T217 701Q316 701 366 644T416 477V449Q416 339 363 280T217 220ZM218 308Q257 308 275 340T293 435V484Q293 555 273 584T216 613Q177
613 159 581T141 485V437Q141 369 160 339T218 308Z" />
<glyph unicode="&#xbb;" glyph-name="guillemotright" horiz-adv-x="430" d="M117 253L31 451H140L224 272V234L140 55H31L117 253ZM293 253L207 451H316L400 272V234L316 55H207L293 253Z" />
<glyph unicode="&#xbc;" glyph-name="onequarter" horiz-adv-x="702" d="M82 597L16 589V648L124 695H185V274H82V597ZM500 713H592L162 -40H71L500 713ZM535 92H376V157L539 419H634V163H682V92H634V0H535V92ZM538 161V294H536L456 164V161H538Z" />
<glyph unicode="&#xbd;" glyph-name="onehalf" horiz-adv-x="734" d="M493 713H585L155 -40H64L493 713ZM81 597L15 589V648L123 695H184V274H81V597ZM454 65L535 163Q564 195 579 222T595 282Q595 347 532 347Q509 347 491 342T460 331V404Q477 412 503 419T567
426Q636 426 670 392T704 297Q704 248 683 211T623 136L572 78V76H708V0H454V65Z" />
<glyph unicode="&#xbe;" glyph-name="threequarters" horiz-adv-x="743" d="M128 267Q89 267 63 273T21 289V359Q36 353 55 349T96 344Q133 344 151 357T170 401Q170 430 155 442T109 454H72V523H107Q165 523 165 574Q165 601 149 612T100 623Q80 623 63 620T31
612V682Q48 689 74 694T133 699Q197 699 231 673T266 595Q266 551 248 528T198 496V494Q235 487 256 465T277 392Q277 332 239 300T128 267ZM540 712H632L202 -41H111L540 712ZM576 92H417V157L580 419H675V163H723V92H675V0H576V92ZM579 161V294H577L497 164V161H579Z"
/>
<glyph unicode="&#xbf;" glyph-name="questiondown" horiz-adv-x="378" d="M213 -130Q126 -130 74 -88T21 43Q21 75 26 98T42 142T69 180T108 220Q127 237 139 249T160 272T171 295T175 325V364H289V314Q289 288 285 269T272 234T247 201T210 163Q196 150 186
139T170 115T160 89T157 57Q157 12 182 -6T258 -25Q292 -25 314 -20T358 -9V-106Q333 -117 296 -123T213 -130ZM166 573H295V447H166V573Z" />
<glyph unicode="&#xc0;" glyph-name="Agrave" horiz-adv-x="557" d="M196 693H359L551 0H410L368 156H174L135 0H6L196 693ZM269 547Q266 531 262 513Q259 498 256 480T247 442L199 254H343L294 442Q290 461 286 479T279 513Q275 531 272 547H269ZM156 858H288L337
731H234L156 858Z" />
<glyph unicode="&#xc1;" glyph-name="Aacute" horiz-adv-x="557" d="M196 693H359L551 0H410L368 156H174L135 0H6L196 693ZM269 547Q266 531 262 513Q259 498 256 480T247 442L199 254H343L294 442Q290 461 286 479T279 513Q275 531 272 547H269ZM273 858H405L326
731H222L273 858Z" />
<glyph unicode="&#xc2;" glyph-name="Acircumflex" horiz-adv-x="557" d="M196 693H359L551 0H410L368 156H174L135 0H6L196 693ZM269 547Q266 531 262 513Q259 498 256 480T247 442L199 254H343L294 442Q290 461 286 479T279 513Q275 531 272 547H269ZM223 854H328L416
731H323L274 780L229 731H135L223 854Z" />
<glyph unicode="&#xc3;" glyph-name="Atilde" horiz-adv-x="557" d="M196 693H359L551 0H410L368 156H174L135 0H6L196 693ZM269 547Q266 531 262 513Q259 498 256 480T247 442L199 254H343L294 442Q290 461 286 479T279 513Q275 531 272 547H269ZM130 736Q135
800 162 826T225 852Q242 852 255 848T280 838T302 829T323 824Q344 824 350 852H428Q423 790 396 763T332 735Q316 735 303 739T278 749T256 758T236 763Q213 763 207 736H130Z" />
<glyph unicode="&#xc4;" glyph-name="Adieresis" horiz-adv-x="557" d="M196 693H359L551 0H410L368 156H174L135 0H6L196 693ZM269 547Q266 531 262 513Q259 498 256 480T247 442L199 254H343L294 442Q290 461 286 479T279 513Q275 531 272 547H269ZM303 842H417V735H303V842ZM132
842H246V735H132V842Z" />
<glyph unicode="&#xc5;" glyph-name="Aring" horiz-adv-x="557" d="M196 693H359L551 0H410L368 156H174L135 0H6L196 693ZM269 547Q266 531 262 513Q259 498 256 480T247 442L199 254H343L294 442Q290 461 286 479T279 513Q275 531 272 547H269ZM278 720Q234
720 206 747T178 817Q178 860 205 887T278 915Q322 915 350 888T378 818Q378 775 350 748T278 720ZM278 774Q296 774 307 786T318 818Q318 838 307 849T278 861Q260 861 249 850T238 818Q238 798 249 786T278 774Z" />
<glyph unicode="&#xc6;" glyph-name="AE" horiz-adv-x="776" d="M290 693H742V586H503V408H692V303H503V107H748V0H366V162H194L127 0H-2L290 693ZM234 262H366V581H362L234 262Z" />
<glyph unicode="&#xc7;" glyph-name="Ccedilla" horiz-adv-x="488" d="M307 -10H295Q289 -10 284 -9V-45Q374 -50 374 -119Q374 -166 335 -191T203 -220V-162Q248 -157 266 -149T284 -123Q284 -106 270 -101T222 -94V0Q129 22 79 99T29 321V369Q29 464 51 528T112
631T203 686T315 703Q364 703 400 695T460 673V568Q432 579 403 585T335 592Q298 592 269 581T220 545T189 479T178 378V326Q178 216 213 159T335 101Q379 101 411 110T466 131V25Q440 10 400 0T307 -10Z" />
<glyph unicode="&#xc8;" glyph-name="Egrave" horiz-adv-x="469" d="M128 858H260L309 731H206L128 858ZM52 693H434V586H191V408H385V304H191V107H441V0H52V693Z" />
<glyph unicode="&#xc9;" glyph-name="Eacute" horiz-adv-x="469" d="M241 858H373L294 731H190L241 858ZM52 693H434V586H191V408H385V304H191V107H441V0H52V693Z" />
<glyph unicode="&#xca;" glyph-name="Ecircumflex" horiz-adv-x="469" d="M193 854H298L386 731H293L244 780L199 731H105L193 854ZM52 693H434V586H191V408H385V304H191V107H441V0H52V693Z" />
<glyph unicode="&#xcb;" glyph-name="Edieresis" horiz-adv-x="469" d="M52 693H434V586H191V408H385V304H191V107H441V0H52V693ZM274 842H388V735H274V842ZM103 842H217V735H103V842Z" />
<glyph unicode="&#xcc;" glyph-name="Igrave" horiz-adv-x="244" d="M52 693H192V0H52V693ZM257 858H389L438 731H335L257 858Z" />
<glyph unicode="&#xcd;" glyph-name="Iacute" horiz-adv-x="244" d="M52 693H192V0H52V693ZM376 858H508L429 731H325L376 858Z" />
<glyph unicode="&#xce;" glyph-name="Icircumflex" horiz-adv-x="244" d="M71 854H176L258 731H167L122 781L80 731H-13L71 854ZM54 693H194V0H54V693Z" />
<glyph unicode="&#xcf;" glyph-name="Idieresis" horiz-adv-x="244" d="M146 842H250V735H146V842ZM-4 842H100V735H-4V842ZM54 693H194V0H54V693Z" />
<glyph unicode="&#xd0;" glyph-name="Eth" horiz-adv-x="576" d="M54 296H7V399H54V693H258Q327 693 380 676T471 620T528 522T548 376V332Q548 164 474 82T259 0H54V296ZM260 106Q333 106 367 155T402 320V377Q402 437 392 477T364 542T318 577T254 587H192V399H310V296H192V106H260Z"
/>
<glyph unicode="&#xd1;" glyph-name="Ntilde" horiz-adv-x="584" d="M158 736Q163 800 190 826T253 852Q270 852 283 848T308 838T330 829T351 824Q372 824 378 852H456Q451 790 424 763T360 735Q344 735 331 739T306 749T284 758T264 763Q241 763 235 736H158ZM52
693H212L359 349Q370 324 379 299T397 253Q406 228 415 205H417Q415 223 414 246Q411 285 411 356V693H532V0H387L234 345Q221 374 210 403T189 456Q178 484 169 510H166Q167 490 169 464Q171 441 171 410T173 338V0H52V693Z" />
<glyph unicode="&#xd2;" glyph-name="Ograve" horiz-adv-x="596" d="M177 858H309L358 731H255L177 858ZM298 -10Q236 -10 187 9T103 68T49 172T30 324V369Q30 453 49 515T103 619T187 682T298 703Q359 703 409 684T493 625T547 522T566 372V325Q566 158 494 74T298
-10ZM299 97Q363 97 391 149T419 303V380Q419 490 392 543T297 596Q232 596 205 543T177 391V314Q177 205 204 151T299 97Z" />
<glyph unicode="&#xd3;" glyph-name="Oacute" horiz-adv-x="596" d="M291 858H423L344 731H240L291 858ZM298 -10Q236 -10 187 9T103 68T49 172T30 324V369Q30 453 49 515T103 619T187 682T298 703Q359 703 409 684T493 625T547 522T566 372V325Q566 158 494 74T298
-10ZM299 97Q363 97 391 149T419 303V380Q419 490 392 543T297 596Q232 596 205 543T177 391V314Q177 205 204 151T299 97Z" />
<glyph unicode="&#xd4;" glyph-name="Ocircumflex" horiz-adv-x="596" d="M245 854H350L438 731H345L296 780L251 731H157L245 854ZM298 -10Q236 -10 187 9T103 68T49 172T30 324V369Q30 453 49 515T103 619T187 682T298 703Q359 703 409 684T493 625T547 522T566
372V325Q566 158 494 74T298 -10ZM299 97Q363 97 391 149T419 303V380Q419 490 392 543T297 596Q232 596 205 543T177 391V314Q177 205 204 151T299 97Z" />
<glyph unicode="&#xd5;" glyph-name="Otilde" horiz-adv-x="596" d="M148 736Q153 800 180 826T243 852Q260 852 273 848T298 838T320 829T341 824Q362 824 368 852H446Q441 790 414 763T350 735Q334 735 321 739T296 749T274 758T254 763Q231 763 225 736H148ZM298
-10Q236 -10 187 9T103 68T49 172T30 324V369Q30 453 49 515T103 619T187 682T298 703Q359 703 409 684T493 625T547 522T566 372V325Q566 158 494 74T298 -10ZM299 97Q363 97 391 149T419 303V380Q419 490 392 543T297 596Q232 596 205 543T177 391V314Q177 205
204 151T299 97Z" />
<glyph unicode="&#xd6;" glyph-name="Odieresis" horiz-adv-x="596" d="M326 842H440V735H326V842ZM155 842H269V735H155V842ZM298 -10Q236 -10 187 9T103 68T49 172T30 324V369Q30 453 49 515T103 619T187 682T298 703Q359 703 409 684T493 625T547 522T566 372V325Q566
158 494 74T298 -10ZM299 97Q363 97 391 149T419 303V380Q419 490 392 543T297 596Q232 596 205 543T177 391V314Q177 205 204 151T299 97Z" />
<glyph unicode="&#xd7;" glyph-name="multiply" horiz-adv-x="478" d="M45 216L166 341L46 463L123 538L239 417L357 538L431 464L312 341L433 217L358 143L238 266L119 143L45 216Z" />
<glyph unicode="&#xd8;" glyph-name="Oslash" horiz-adv-x="596" d="M296 -10Q245 -10 204 5T131 49L97 0H6L82 109Q30 196 30 322V369Q30 536 103 619T302 703Q350 703 389 689T461 648L492 693H582L511 592Q538 550 552 496T567 376V325Q567 241 548 179T494
74T408 11T296 -10ZM299 95Q365 95 394 147T423 303V405Q423 435 420 461L201 148Q230 95 299 95ZM174 391V265Q174 253 176 242L392 551Q362 598 297 598Q231 599 203 545T174 391Z" />
<glyph unicode="&#xd9;" glyph-name="Ugrave" horiz-adv-x="570" d="M167 858H299L348 731H245L167 858ZM287 -10Q161 -10 105 47T48 216V693H188V222Q188 156 211 127T291 98Q346 98 368 127T391 222V693H522V218Q522 105 465 48T287 -10Z" />
<glyph unicode="&#xda;" glyph-name="Uacute" horiz-adv-x="570" d="M281 858H413L334 731H230L281 858ZM287 -10Q161 -10 105 47T48 216V693H188V222Q188 156 211 127T291 98Q346 98 368 127T391 222V693H522V218Q522 105 465 48T287 -10Z" />
<glyph unicode="&#xdb;" glyph-name="Ucircumflex" horiz-adv-x="570" d="M234 854H339L427 731H334L285 780L240 731H146L234 854ZM287 -10Q161 -10 105 47T48 216V693H188V222Q188 156 211 127T291 98Q346 98 368 127T391 222V693H522V218Q522 105 465 48T287 -10Z" />
<glyph unicode="&#xdc;" glyph-name="Udieresis" horiz-adv-x="570" d="M287 -10Q161 -10 105 47T48 216V693H188V222Q188 156 211 127T291 98Q346 98 368 127T391 222V693H522V218Q522 105 465 48T287 -10ZM315 842H429V735H315V842ZM144 842H258V735H144V842Z" />
<glyph unicode="&#xdd;" glyph-name="Yacute" horiz-adv-x="516" d="M190 258L2 693H151L222 512Q232 485 240 464T254 426Q261 408 266 393H269Q273 407 279 425Q284 441 292 462T311 512L381 693H514L330 260V0H190V258ZM264 858H396L317 731H213L264 858Z" />
<glyph unicode="&#xde;" glyph-name="Thorn" horiz-adv-x="517" d="M52 693H193V578H287Q399 578 449 526T499 370Q499 153 290 153H193V0H52V693ZM265 251Q316 251 337 276T358 362Q358 426 337 450T267 474H193V251H265Z" />
<glyph unicode="&#xdf;" glyph-name="germandbls" horiz-adv-x="525" d="M342 -8Q300 -8 274 -3T224 12V104Q245 97 268 92T320 86Q352 86 370 99T388 137Q388 158 378 171T344 200L311 223Q269 251 249 281T228 359Q228 396 244 425T279 481T315 532T331 586Q331
616 312 631T261 647Q219 647 196 621T173 537V0H44V543Q44 597 61 635T107 697T177 732T266 743Q361 743 409 705T458 595Q458 554 441 523T402 467T363 421T345 378Q345 358 354 344T384 317L422 293Q462 267 486 234T511 145Q511 70 465 31T342 -8Z" />
<glyph unicode="&#xe0;" glyph-name="agrave" horiz-adv-x="441" d="M167 -8Q99 -8 59 29T18 142Q18 218 59 255T178 304L272 319V352Q272 397 251 414T176 431Q141 431 111 426T59 413V503Q88 516 129 524T225 532Q314 532 357 495T401 376V0H294L284 36H279Q263
17 235 5T167 -8ZM210 81Q230 81 246 86T272 100V235L213 228Q178 225 163 208T147 156Q147 117 162 99T210 81ZM87 728H219L282 583H177L87 728Z" />
<glyph unicode="&#xe1;" glyph-name="aacute" horiz-adv-x="441" d="M167 -8Q99 -8 59 29T18 142Q18 218 59 255T178 304L272 319V352Q272 397 251 414T176 431Q141 431 111 426T59 413V503Q88 516 129 524T225 532Q314 532 357 495T401 376V0H294L284 36H279Q263
17 235 5T167 -8ZM210 81Q230 81 246 86T272 100V235L213 228Q178 225 163 208T147 156Q147 117 162 99T210 81ZM224 728H356L265 583H161L224 728Z" />
<glyph unicode="&#xe2;" glyph-name="acircumflex" horiz-adv-x="441" d="M167 -8Q99 -8 59 29T18 142Q18 218 59 255T178 304L272 319V352Q272 397 251 414T176 431Q141 431 111 426T59 413V503Q88 516 129 524T225 532Q314 532 357 495T401 376V0H294L284 36H279Q263
17 235 5T167 -8ZM210 81Q230 81 246 86T272 100V235L213 228Q178 225 163 208T147 156Q147 117 162 99T210 81ZM170 727H278L368 583H275L223 646L173 583H79L170 727Z" />
<glyph unicode="&#xe3;" glyph-name="atilde" horiz-adv-x="441" d="M167 -8Q99 -8 59 29T18 142Q18 218 59 255T178 304L272 319V352Q272 397 251 414T176 431Q141 431 111 426T59 413V503Q88 516 129 524T225 532Q314 532 357 495T401 376V0H294L284 36H279Q263
17 235 5T167 -8ZM210 81Q230 81 246 86T272 100V235L213 228Q178 225 163 208T147 156Q147 117 162 99T210 81ZM71 594Q75 658 103 687T169 716Q187 716 200 711T224 700T246 689T267 684Q290 684 296 717H372Q367 656 339 626T273 595Q256 595 243 600T218 610T196
621T176 626Q153 626 148 594H71Z" />
<glyph unicode="&#xe4;" glyph-name="adieresis" horiz-adv-x="441" d="M167 -8Q99 -8 59 29T18 142Q18 218 59 255T178 304L272 319V352Q272 397 251 414T176 431Q141 431 111 426T59 413V503Q88 516 129 524T225 532Q314 532 357 495T401 376V0H294L284 36H279Q263
17 235 5T167 -8ZM210 81Q230 81 246 86T272 100V235L213 228Q178 225 163 208T147 156Q147 117 162 99T210 81ZM254 709H367V598H254V709ZM80 709H193V598H80V709Z" />
<glyph unicode="&#xe5;" glyph-name="aring" horiz-adv-x="441" d="M167 -8Q99 -8 59 29T18 142Q18 218 59 255T178 304L272 319V352Q272 397 251 414T176 431Q141 431 111 426T59 413V503Q88 516 129 524T225 532Q314 532 357 495T401 376V0H294L284 36H279Q263
17 235 5T167 -8ZM210 81Q230 81 246 86T272 100V235L213 228Q178 225 163 208T147 156Q147 117 162 99T210 81ZM221 576Q177 576 149 602T121 672Q121 714 149 741T221 768Q264 768 292 742T320 673Q320 629 292 603T221 576ZM221 628Q239 628 250 640T261 672Q261
691 250 703T221 715Q203 715 193 704T182 672Q182 652 192 640T221 628Z" />
<glyph unicode="&#xe6;" glyph-name="ae" horiz-adv-x="701" d="M505 -8Q382 -8 325 61Q298 29 260 11T167 -8Q99 -8 59 29T18 141Q18 215 60 251T180 299L272 311V352Q272 397 251 414T175 431Q140 431 110 426T59 413V503Q88 516 128 524T220 532Q315 532 349
478Q398 532 485 532Q588 532 633 471T679 280V229H399Q401 153 432 122T528 90Q569 90 603 100T663 123V37Q640 20 600 6T505 -8ZM291 119Q282 142 278 170T271 231L214 226Q179 223 162 206T145 154Q145 116 161 99T208 81Q255 81 291 119ZM479 440Q444 440 423
410T399 309H554Q554 381 537 410T479 440Z" />
<glyph unicode="&#xe7;" glyph-name="ccedilla" horiz-adv-x="391" d="M245 -8H236Q232 -8 228 -7V-45Q272 -47 295 -65T319 -119Q319 -165 279 -190T146 -220V-162Q190 -158 209 -149T229 -123Q229 -106 214 -101T165 -94V2Q95 22 59 81T23 246V274Q23 341 39
390T85 470T157 517T251 532Q293 532 321 526T369 508V408Q348 417 325 424T267 431Q210 431 183 395T156 286V249Q156 164 183 129T270 93Q305 93 331 102T374 119V25Q354 11 322 2T245 -8Z" />
<glyph unicode="&#xe8;" glyph-name="egrave" horiz-adv-x="456" d="M259 -8Q23 -8 23 250V273Q23 400 77 466T235 532Q341 532 387 471T434 277V224H154Q158 151 188 121T283 90Q323 90 357 100T417 123V37Q395 20 355 6T259 -8ZM233 440Q198 440 177 412T154
307H309Q309 381 292 410T233 440ZM100 728H232L295 583H190L100 728Z" />
<glyph unicode="&#xe9;" glyph-name="eacute" horiz-adv-x="456" d="M239 728H371L280 583H176L239 728ZM259 -8Q23 -8 23 250V273Q23 400 77 466T235 532Q341 532 387 471T434 277V224H154Q158 151 188 121T283 90Q323 90 357 100T417 123V37Q395 20 355 6T259
-8ZM233 440Q198 440 177 412T154 307H309Q309 381 292 410T233 440Z" />
<glyph unicode="&#xea;" glyph-name="ecircumflex" horiz-adv-x="456" d="M181 727H289L379 583H286L234 646L184 583H90L181 727ZM259 -8Q23 -8 23 250V273Q23 400 77 466T235 532Q341 532 387 471T434 277V224H154Q158 151 188 121T283 90Q323 90 357 100T417
123V37Q395 20 355 6T259 -8ZM233 440Q198 440 177 412T154 307H309Q309 381 292 410T233 440Z" />
<glyph unicode="&#xeb;" glyph-name="edieresis" horiz-adv-x="456" d="M268 709H381V598H268V709ZM94 709H207V598H94V709ZM259 -8Q23 -8 23 250V273Q23 400 77 466T235 532Q341 532 387 471T434 277V224H154Q158 151 188 121T283 90Q323 90 357 100T417 123V37Q395
20 355 6T259 -8ZM233 440Q198 440 177 412T154 307H309Q309 381 292 410T233 440Z" />
<glyph unicode="&#xec;" glyph-name="igrave" horiz-adv-x="216" d="M44 524H173V0H44V524ZM231 728H363L426 583H321L231 728Z" />
<glyph unicode="&#xed;" glyph-name="iacute" horiz-adv-x="216" d="M371 728H503L412 583H308L371 728ZM44 524H173V0H44V524Z" />
<glyph unicode="&#xee;" glyph-name="icircumflex" horiz-adv-x="216" d="M55 727H161L242 583H149L108 644L68 583H-25L55 727ZM45 524H174V0H45V524Z" />
<glyph unicode="&#xef;" glyph-name="idieresis" horiz-adv-x="216" d="M131 709H239V598H131V709ZM-22 709H85V598H-22V709ZM44 524H173V0H44V524Z" />
<glyph unicode="&#xf0;" glyph-name="eth" horiz-adv-x="490" d="M186 646Q163 670 137 692T85 735H237Q251 725 266 714T295 689L378 722L400 665L343 642Q368 613 390 578T429 501T456 409T466 302V275Q466 135 409 64T243 -8Q136 -8 80 54T23 249V273Q23 398
75 461T213 525Q236 525 252 520T280 508H286Q262 556 229 598L115 553L92 610L186 646ZM332 297Q332 331 328 361T317 420Q305 427 288 431T249 436Q203 436 180 402T156 287V248Q156 200 162 169T181 120T209 95T245 88Q290 88 311 127T332 259V297Z" />
<glyph unicode="&#xf1;" glyph-name="ntilde" horiz-adv-x="487" d="M43 524H167V482H171Q197 503 232 517T315 532Q378 532 411 502T445 402V0H317V375Q317 404 303 416T256 428Q231 428 209 421T171 406V0H43V524ZM98 594Q102 658 130 687T196 716Q214 716 227
711T251 700T273 689T294 684Q317 684 323 717H399Q394 656 366 626T300 595Q283 595 270 600T245 610T223 621T203 626Q180 626 175 594H98Z" />
<glyph unicode="&#xf2;" glyph-name="ograve" horiz-adv-x="487" d="M243 -8Q132 -8 78 58T23 246V277Q23 400 82 466T243 532Q352 532 408 469T464 280V249Q464 125 405 59T243 -8ZM244 88Q289 88 310 125T331 234V288Q331 370 308 403T242 436Q197 436 177 399T156
290V236Q156 158 178 123T244 88ZM106 728H238L301 583H196L106 728Z" />
<glyph unicode="&#xf3;" glyph-name="oacute" horiz-adv-x="487" d="M244 728H376L285 583H181L244 728ZM243 -8Q132 -8 78 58T23 246V277Q23 400 82 466T243 532Q352 532 408 469T464 280V249Q464 125 405 59T243 -8ZM244 88Q289 88 310 125T331 234V288Q331
370 308 403T242 436Q197 436 177 399T156 290V236Q156 158 178 123T244 88Z" />
<glyph unicode="&#xf4;" glyph-name="ocircumflex" horiz-adv-x="487" d="M188 727H296L386 583H293L241 646L191 583H97L188 727ZM243 -8Q132 -8 78 58T23 246V277Q23 400 82 466T243 532Q352 532 408 469T464 280V249Q464 125 405 59T243 -8ZM244 88Q289 88
310 125T331 234V288Q331 370 308 403T242 436Q197 436 177 399T156 290V236Q156 158 178 123T244 88Z" />
<glyph unicode="&#xf5;" glyph-name="otilde" horiz-adv-x="487" d="M243 -8Q132 -8 78 58T23 246V277Q23 400 82 466T243 532Q352 532 408 469T464 280V249Q464 125 405 59T243 -8ZM244 88Q289 88 310 125T331 234V288Q331 370 308 403T242 436Q197 436 177 399T156
290V236Q156 158 178 123T244 88ZM90 594Q94 658 122 687T188 716Q206 716 219 711T243 700T265 689T286 684Q309 684 315 717H391Q386 656 358 626T292 595Q275 595 262 600T237 610T215 621T195 626Q172 626 167 594H90Z" />
<glyph unicode="&#xf6;" glyph-name="odieresis" horiz-adv-x="487" d="M275 709H388V598H275V709ZM101 709H214V598H101V709ZM243 -8Q132 -8 78 58T23 246V277Q23 400 82 466T243 532Q352 532 408 469T464 280V249Q464 125 405 59T243 -8ZM244 88Q289 88 310
125T331 234V288Q331 370 308 403T242 436Q197 436 177 399T156 290V236Q156 158 178 123T244 88Z" />
<glyph unicode="&#xf7;" glyph-name="divide" horiz-adv-x="444" d="M31 401H412V295H31V401ZM158 249H285V125H158V249ZM158 571H285V447H158V571Z" />
<glyph unicode="&#xf8;" glyph-name="oslash" horiz-adv-x="487" d="M244 -8Q161 -8 109 32L85 0H5L64 79Q23 141 23 243V277Q23 400 82 466T243 532Q319 532 373 495L395 524H476L420 449Q441 418 452 377T464 283V249Q464 125 405 59T244 -8ZM245 84Q291 84
313 123T335 234V298Q335 307 335 316T333 333L173 118Q185 99 202 92T245 84ZM152 290V211Q152 205 153 198L310 410Q289 441 243 441Q195 441 174 402T152 290Z" />
<glyph unicode="&#xf9;" glyph-name="ugrave" horiz-adv-x="482" d="M176 -8Q108 -8 75 28T42 133V524H170V150Q170 123 182 110T231 96Q254 96 275 103T311 119V524H439V0H328L318 43H314Q288 24 255 8T176 -8ZM107 728H239L302 583H197L107 728Z" />
<glyph unicode="&#xfa;" glyph-name="uacute" horiz-adv-x="482" d="M246 728H378L287 583H183L246 728ZM176 -8Q108 -8 75 28T42 133V524H170V150Q170 123 182 110T231 96Q254 96 275 103T311 119V524H439V0H328L318 43H314Q288 24 255 8T176 -8Z" />
<glyph unicode="&#xfb;" glyph-name="ucircumflex" horiz-adv-x="482" d="M189 727H297L387 583H294L242 646L192 583H98L189 727ZM176 -8Q108 -8 75 28T42 133V524H170V150Q170 123 182 110T231 96Q254 96 275 103T311 119V524H439V0H328L318 43H314Q288 24 255
8T176 -8Z" />
<glyph unicode="&#xfc;" glyph-name="udieresis" horiz-adv-x="482" d="M273 709H386V598H273V709ZM99 709H212V598H99V709ZM176 -8Q108 -8 75 28T42 133V524H170V150Q170 123 182 110T231 96Q254 96 275 103T311 119V524H439V0H328L318 43H314Q288 24 255 8T176 -8Z" />
<glyph unicode="&#xfd;" glyph-name="yacute" horiz-adv-x="455" d="M111 -196Q91 -196 70 -192T34 -183V-94Q44 -96 57 -97T82 -99Q113 -99 131 -85T161 -34L172 1L5 524H141L214 262Q219 242 223 225T229 196Q232 182 234 170H238Q240 184 244 199Q247 212 250
228T258 261L327 524H450L279 -52Q268 -89 254 -116T220 -161T174 -187T111 -196ZM238 728H370L279 583H175L238 728Z" />
<glyph unicode="&#xfe;" glyph-name="thorn" horiz-adv-x="495" d="M45 736H174L173 488H177Q196 505 226 518T298 532Q335 532 366 520T421 479T458 404T472 291V255Q472 185 459 135T419 54T356 7T271 -8Q236 -8 212 -1T174 15V-192H45V736ZM246 86Q268 86 285
93T315 119T333 166T339 240V280Q339 324 333 352T316 397T289 420T250 427Q222 427 203 421T174 407V105Q182 98 201 92T246 86Z" />
<glyph unicode="&#xff;" glyph-name="ydieresis" horiz-adv-x="455" d="M111 -196Q91 -196 70 -192T34 -183V-94Q44 -96 57 -97T82 -99Q113 -99 131 -85T161 -34L172 1L5 524H141L214 262Q219 242 223 225T229 196Q232 182 234 170H238Q240 184 244 199Q247 212
250 228T258 261L327 524H450L279 -52Q268 -89 254 -116T220 -161T174 -187T111 -196ZM267 709H380V598H267V709ZM93 709H206V598H93V709Z" />
<glyph unicode="&#x100;" glyph-name="Amacron" horiz-adv-x="557" d="M196 693H359L551 0H410L368 156H174L135 0H6L196 693ZM269 547Q266 531 262 513Q259 498 256 480T247 442L199 254H343L294 442Q290 461 286 479T279 513Q275 531 272 547H269ZM158 824H394V736H158V824Z"
/>
<glyph unicode="&#x101;" glyph-name="amacron" horiz-adv-x="441" d="M167 -8Q99 -8 59 29T18 142Q18 218 59 255T178 304L272 319V352Q272 397 251 414T176 431Q141 431 111 426T59 413V503Q88 516 129 524T225 532Q314 532 357 495T401 376V0H294L284 36H279Q263
17 235 5T167 -8ZM210 81Q230 81 246 86T272 100V235L213 228Q178 225 163 208T147 156Q147 117 162 99T210 81ZM107 690H340V600H107V690Z" />
<glyph unicode="&#x102;" glyph-name="Abreve" horiz-adv-x="557" d="M196 693H359L551 0H410L368 156H174L135 0H6L196 693ZM269 547Q266 531 262 513Q259 498 256 480T247 442L199 254H343L294 442Q290 461 286 479T279 513Q275 531 272 547H269ZM278 728Q247
728 223 738T183 765T157 805T146 855H231Q237 809 278 809Q319 809 325 855H411Q408 801 374 765T278 728Z" />
<glyph unicode="&#x103;" glyph-name="abreve" horiz-adv-x="441" d="M167 -8Q99 -8 59 29T18 142Q18 218 59 255T178 304L272 319V352Q272 397 251 414T176 431Q141 431 111 426T59 413V503Q88 516 129 524T225 532Q314 532 357 495T401 376V0H294L284 36H279Q263
17 235 5T167 -8ZM210 81Q230 81 246 86T272 100V235L213 228Q178 225 163 208T147 156Q147 117 162 99T210 81ZM224 585Q163 585 129 621T92 715H177Q183 669 224 669Q265 669 271 715H357Q355 658 320 622T224 585Z" />
<glyph unicode="&#x104;" glyph-name="Aogonek" horiz-adv-x="557" d="M486 -196Q435 -196 408 -174T380 -112Q380 -74 401 -46T449 0H408L366 156H174L133 0H6L198 693H355L547 5Q520 -16 501 -39T482 -86Q482 -105 493 -111T522 -118Q539 -118 547 -116V-186Q538
-191 522 -193T486 -196ZM267 547Q264 531 260 513Q257 498 254 479T245 441L197 254H341L293 442Q288 461 284 479T277 513Q273 531 270 547H267Z" />
<glyph unicode="&#x105;" glyph-name="aogonek" horiz-adv-x="441" d="M167 -8Q99 -8 59 29T18 142Q18 218 59 255T178 304L272 319V352Q272 397 251 414T176 431Q141 431 111 426T59 413V503Q88 516 129 524T225 532Q314 532 357 495T401 376V3Q377 -17 359 -40T341
-86Q341 -105 352 -111T380 -118Q396 -118 406 -116V-186Q397 -191 381 -193T345 -196Q294 -196 267 -174T239 -112Q239 -92 246 -75T264 -44T288 -19T316 0H294L284 36H279Q263 17 235 5T167 -8ZM210 81Q230 81 246 86T272 100V235L213 228Q178 225 163 208T147
156Q147 117 162 99T210 81Z" />
<glyph unicode="&#x106;" glyph-name="Cacute" horiz-adv-x="488" d="M307 -10Q175 -10 102 68T29 321V369Q29 464 51 528T112 631T203 686T315 703Q364 703 400 695T460 673V568Q432 579 403 585T335 592Q298 592 269 581T220 545T189 479T178 378V326Q178 216
213 159T335 101Q379 101 411 110T466 131V25Q440 10 400 0T307 -10ZM285 858H417L338 731H234L285 858Z" />
<glyph unicode="&#x107;" glyph-name="cacute" horiz-adv-x="391" d="M228 728H360L269 583H165L228 728ZM245 -8Q137 -8 80 53T23 246V274Q23 341 39 390T85 470T157 517T251 532Q293 532 321 526T369 508V408Q348 417 325 424T267 431Q210 431 183 395T156 286V249Q156
164 183 129T270 93Q305 93 331 102T374 119V25Q354 11 322 2T245 -8Z" />
<glyph unicode="&#x108;" glyph-name="Ccircumflex" horiz-adv-x="488" d="M237 854H342L430 731H337L288 780L243 731H149L237 854ZM307 -10Q175 -10 102 68T29 321V369Q29 464 51 528T112 631T203 686T315 703Q364 703 400 695T460 673V568Q432 579 403 585T335
592Q298 592 269 581T220 545T189 479T178 378V326Q178 216 213 159T335 101Q379 101 411 110T466 131V25Q440 10 400 0T307 -10Z" />
<glyph unicode="&#x109;" glyph-name="ccircumflex" horiz-adv-x="391" d="M170 727H278L368 583H275L223 646L173 583H79L170 727ZM245 -8Q137 -8 80 53T23 246V274Q23 341 39 390T85 470T157 517T251 532Q293 532 321 526T369 508V408Q348 417 325 424T267 431Q210
431 183 395T156 286V249Q156 164 183 129T270 93Q305 93 331 102T374 119V25Q354 11 322 2T245 -8Z" />
<glyph unicode="&#x10a;" glyph-name="Cdotaccent" horiz-adv-x="488" d="M307 -10Q175 -10 102 68T29 321V369Q29 464 51 528T112 631T203 686T315 703Q364 703 400 695T460 673V568Q432 579 403 585T335 592Q298 592 269 581T220 545T189 479T178 378V326Q178
216 213 159T335 101Q379 101 411 110T466 131V25Q440 10 400 0T307 -10ZM228 844H353V736H228V844Z" />
<glyph unicode="&#x10b;" glyph-name="cdotaccent" horiz-adv-x="391" d="M245 -8Q137 -8 80 53T23 246V274Q23 341 39 390T85 470T157 517T251 532Q293 532 321 526T369 508V408Q348 417 325 424T267 431Q210 431 183 395T156 286V249Q156 164 183 129T270 93Q305
93 331 102T374 119V25Q354 11 322 2T245 -8ZM158 712H288V598H158V712Z" />
<glyph unicode="&#x10c;" glyph-name="Ccaron" horiz-adv-x="488" d="M341 731H236L148 854H242L288 805L336 854H429L341 731ZM307 -10Q175 -10 102 68T29 321V369Q29 464 51 528T112 631T203 686T315 703Q364 703 400 695T460 673V568Q432 579 403 585T335 592Q298
592 269 581T220 545T189 479T178 378V326Q178 216 213 159T335 101Q379 101 411 110T466 131V25Q440 10 400 0T307 -10Z" />
<glyph unicode="&#x10d;" glyph-name="ccaron" horiz-adv-x="391" d="M280 583H172L81 727H175L226 664L276 727H369L280 583ZM245 -8Q137 -8 80 53T23 246V274Q23 341 39 390T85 470T157 517T251 532Q293 532 321 526T369 508V408Q348 417 325 424T267 431Q210
431 183 395T156 286V249Q156 164 183 129T270 93Q305 93 331 102T374 119V25Q354 11 322 2T245 -8Z" />
<glyph unicode="&#x10e;" glyph-name="Dcaron" horiz-adv-x="574" d="M317 731H212L124 854H218L264 805L312 854H405L317 731ZM52 693H256Q325 693 378 676T469 620T526 522T546 376V332Q546 164 472 82T256 0H52V693ZM257 106Q330 106 364 155T399 320V377Q399
437 389 477T361 542T315 577T251 587H192V106H257Z" />
<glyph unicode="&#x10f;" glyph-name="dcaron" horiz-adv-x="494" d="M485 582L492 735H587L559 582H485ZM205 -8Q167 -8 134 5T77 47T38 124T24 242V268Q24 404 77 468T228 532Q259 532 284 526T323 511V735H451V0H340L331 38H327Q307 19 277 6T205 -8ZM250 90Q273
90 291 98T323 115V421Q312 428 294 432T254 437Q203 437 180 402T157 278V246Q157 162 180 126T250 90Z" />
<glyph unicode="&#x110;" glyph-name="Dcroat" horiz-adv-x="574" d="M54 296H7V399H54V693H258Q327 693 380 676T471 620T528 522T548 376V332Q548 164 474 82T259 0H54V296ZM260 106Q333 106 367 155T402 320V377Q402 437 392 477T364 542T318 577T254 587H192V399H310V296H192V106H260Z"
/>
<glyph unicode="&#x111;" glyph-name="dcroat" horiz-adv-x="494" d="M205 659H323V735H451V659H500V590H451V0H340L331 38H327Q307 19 277 6T205 -8Q167 -8 134 5T77 47T38 124T24 242V268Q24 404 77 468T228 532Q259 532 284 526T323 511V590H205V659ZM250 90Q273
90 291 98T323 115V421Q312 428 294 432T254 437Q203 437 180 402T157 278V246Q157 162 180 126T250 90Z" />
<glyph unicode="&#x112;" glyph-name="Emacron" horiz-adv-x="469" d="M52 693H434V586H191V408H385V304H191V107H441V0H52V693ZM126 824H362V736H126V824Z" />
<glyph unicode="&#x113;" glyph-name="emacron" horiz-adv-x="456" d="M259 -8Q23 -8 23 250V273Q23 400 77 466T235 532Q341 532 387 471T434 277V224H154Q158 151 188 121T283 90Q323 90 357 100T417 123V37Q395 20 355 6T259 -8ZM233 440Q198 440 177 412T154
307H309Q309 381 292 410T233 440ZM120 690H353V600H120V690Z" />
<glyph unicode="&#x114;" glyph-name="Ebreve" horiz-adv-x="469" d="M52 693H434V586H191V408H385V304H191V107H441V0H52V693ZM245 728Q214 728 190 738T150 765T124 805T113 855H198Q204 809 245 809Q286 809 292 855H378Q375 801 341 765T245 728Z" />
<glyph unicode="&#x115;" glyph-name="ebreve" horiz-adv-x="456" d="M259 -8Q23 -8 23 250V273Q23 400 77 466T235 532Q341 532 387 471T434 277V224H154Q158 151 188 121T283 90Q323 90 357 100T417 123V37Q395 20 355 6T259 -8ZM233 440Q198 440 177 412T154
307H309Q309 381 292 410T233 440ZM235 585Q174 585 140 621T103 715H188Q194 669 235 669Q276 669 282 715H368Q366 658 331 622T235 585Z" />
<glyph unicode="&#x116;" glyph-name="Edotaccent" horiz-adv-x="469" d="M185 844H310V736H185V844ZM52 693H434V586H191V408H385V304H191V107H441V0H52V693Z" />
<glyph unicode="&#x117;" glyph-name="edotaccent" horiz-adv-x="456" d="M259 -8Q23 -8 23 250V273Q23 400 77 466T235 532Q341 532 387 471T434 277V224H154Q158 151 188 121T283 90Q323 90 357 100T417 123V37Q395 20 355 6T259 -8ZM233 440Q198 440 177 412T154
307H309Q309 381 292 410T233 440ZM171 712H301V598H171V712Z" />
<glyph unicode="&#x118;" glyph-name="Eogonek" horiz-adv-x="469" d="M400 0Q380 -18 363 -40T345 -86Q345 -105 356 -111T385 -118Q392 -118 399 -118T411 -116V-186Q402 -191 385 -193T349 -196Q298 -196 271 -174T243 -112Q243 -73 266 -45T317 0H52V693H434V586H191V408H385V304H191V107H441V0H400Z"
/>
<glyph unicode="&#x119;" glyph-name="eogonek" horiz-adv-x="456" d="M309 -196Q258 -196 231 -174T203 -112Q203 -76 223 -51T268 -8H259Q23 -8 23 250V273Q23 400 77 466T235 532Q341 532 387 471T434 277V224H154Q158 151 189 121T283 90Q323 90 357 100T417
123V37Q405 27 389 17T357 -6Q337 -23 321 -43T305 -86Q305 -105 316 -111T345 -118Q360 -118 370 -116V-186Q362 -191 345 -193T309 -196ZM233 440Q197 440 177 412T154 307H309Q309 381 291 410T233 440Z" />
<glyph unicode="&#x11a;" glyph-name="Ecaron" horiz-adv-x="469" d="M298 731H193L105 854H199L245 805L293 854H386L298 731ZM52 693H434V586H191V408H385V304H191V107H441V0H52V693Z" />
<glyph unicode="&#x11b;" glyph-name="ecaron" horiz-adv-x="456" d="M291 583H183L92 727H186L237 664L287 727H380L291 583ZM259 -8Q23 -8 23 250V273Q23 400 77 466T235 532Q341 532 387 471T434 277V224H154Q158 151 188 121T283 90Q323 90 357 100T417 123V37Q395
20 355 6T259 -8ZM233 440Q198 440 177 412T154 307H309Q309 381 292 410T233 440Z" />
<glyph unicode="&#x11c;" glyph-name="Gcircumflex" horiz-adv-x="557" d="M249 854H354L442 731H349L300 780L255 731H161L249 854ZM315 -9Q247 -9 194 8T104 64T48 167T29 327V366Q29 457 50 521T110 625T204 684T329 703Q389 703 428 692T491 669V562Q465 573
430 582T343 591Q294 591 262 577T211 535T183 469T175 380V307Q175 256 181 217T204 151T247 111T316 97Q337 97 355 100T386 107V273H295V375H518V29Q486 15 434 3T315 -9Z" />
<glyph unicode="&#x11d;" glyph-name="gcircumflex" horiz-adv-x="458" d="M177 727H285L375 583H282L230 646L180 583H86L177 727ZM217 -194Q108 -194 56 -162T3 -72Q3 -27 28 -3T91 35V40Q68 50 53 69T38 121Q38 153 54 176T96 220Q69 237 50 269T31 349V365Q31
446 83 489T220 532Q263 532 298 524H450V441H387Q395 427 401 410T408 368V353Q408 313 395 283T357 231T298 200T222 189Q184 189 155 197Q150 191 146 182T142 163Q142 147 151 139T183 130H290Q453 130 453 -17Q453 -98 396 -146T217 -194ZM218 -107Q280 -107
305 -89T330 -38Q330 -12 314 2T260 17H165Q147 9 134 -7T121 -48Q121 -77 144 -92T218 -107ZM221 270Q252 270 269 289T286 351V366Q286 414 269 433T220 452Q154 452 154 368V353Q154 308 171 289T221 270Z" />
<glyph unicode="&#x11e;" glyph-name="Gbreve" horiz-adv-x="557" d="M303 728Q272 728 248 738T208 765T182 805T171 855H256Q262 809 303 809Q344 809 350 855H436Q433 801 399 765T303 728ZM315 -9Q247 -9 194 8T104 64T48 167T29 327V366Q29 457 50 521T110
625T204 684T329 703Q389 703 428 692T491 669V562Q465 573 430 582T343 591Q294 591 262 577T211 535T183 469T175 380V307Q175 256 181 217T204 151T247 111T316 97Q337 97 355 100T386 107V273H295V375H518V29Q486 15 434 3T315 -9Z" />
<glyph unicode="&#x11f;" glyph-name="gbreve" horiz-adv-x="458" d="M217 -194Q108 -194 56 -162T3 -72Q3 -27 28 -3T91 35V40Q68 50 53 69T38 121Q38 153 54 176T96 220Q69 237 50 269T31 349V365Q31 446 83 489T220 532Q263 532 298 524H450V441H387Q395 427
401 410T408 368V353Q408 313 395 283T357 231T298 200T222 189Q184 189 155 197Q150 191 146 182T142 163Q142 147 151 139T183 130H290Q453 130 453 -17Q453 -98 396 -146T217 -194ZM218 -107Q280 -107 305 -89T330 -38Q330 -12 314 2T260 17H165Q147 9 134 -7T121
-48Q121 -77 144 -92T218 -107ZM221 270Q252 270 269 289T286 351V366Q286 414 269 433T220 452Q154 452 154 368V353Q154 308 171 289T221 270ZM232 585Q171 585 137 621T100 715H185Q191 669 232 669Q273 669 279 715H365Q363 658 328 622T232 585Z" />
<glyph unicode="&#x120;" glyph-name="Gdotaccent" horiz-adv-x="557" d="M242 844H367V736H242V844ZM315 -9Q247 -9 194 8T104 64T48 167T29 327V366Q29 457 50 521T110 625T204 684T329 703Q389 703 428 692T491 669V562Q465 573 430 582T343 591Q294 591 262
577T211 535T183 469T175 380V307Q175 256 181 217T204 151T247 111T316 97Q337 97 355 100T386 107V273H295V375H518V29Q486 15 434 3T315 -9Z" />
<glyph unicode="&#x121;" glyph-name="gdotaccent" horiz-adv-x="458" d="M217 -194Q108 -194 56 -162T3 -72Q3 -27 28 -3T91 35V40Q68 50 53 69T38 121Q38 153 54 176T96 220Q69 237 50 269T31 349V365Q31 446 83 489T220 532Q263 532 298 524H450V441H387Q395
427 401 410T408 368V353Q408 313 395 283T357 231T298 200T222 189Q184 189 155 197Q150 191 146 182T142 163Q142 147 151 139T183 130H290Q453 130 453 -17Q453 -98 396 -146T217 -194ZM218 -107Q280 -107 305 -89T330 -38Q330 -12 314 2T260 17H165Q147 9 134
-7T121 -48Q121 -77 144 -92T218 -107ZM221 270Q252 270 269 289T286 351V366Q286 414 269 433T220 452Q154 452 154 368V353Q154 308 171 289T221 270ZM162 712H292V598H162V712Z" />
<glyph unicode="&#x122;" glyph-name="Gcommaaccent" horiz-adv-x="557" d="M249 -39H368L326 -179H237L249 -39ZM315 -9Q247 -9 194 8T104 64T48 167T29 327V366Q29 457 50 521T110 625T204 684T329 703Q389 703 428 692T491 669V562Q465 573 430 582T343 591Q294
591 262 577T211 535T183 469T175 380V307Q175 256 181 217T204 151T247 111T316 97Q337 97 355 100T386 107V273H295V375H518V29Q486 15 434 3T315 -9Z" />
<glyph unicode="&#x123;" glyph-name="gcommaaccent" horiz-adv-x="458" d="M286 595H166L212 738H301L286 595ZM217 -194Q108 -194 56 -162T3 -72Q3 -27 28 -3T91 35V40Q68 50 53 69T38 121Q38 153 54 176T96 220Q69 237 50 269T31 349V365Q31 446 83 489T220
532Q263 532 298 524H450V441H387Q395 427 401 410T408 368V353Q408 313 395 283T357 231T298 200T222 189Q184 189 155 197Q150 191 146 182T142 163Q142 147 151 139T183 130H290Q453 130 453 -17Q453 -98 396 -146T217 -194ZM218 -107Q280 -107 305 -89T330
-38Q330 -12 314 2T260 17H165Q147 9 134 -7T121 -48Q121 -77 144 -92T218 -107ZM221 270Q252 270 269 289T286 351V366Q286 414 269 433T220 452Q154 452 154 368V353Q154 308 171 289T221 270Z" />
<glyph unicode="&#x124;" glyph-name="Hcircumflex" horiz-adv-x="587" d="M52 693H192V411H395V693H535V0H395V304H192V0H52V693ZM240 854H345L433 731H340L291 780L246 731H152L240 854Z" />
<glyph unicode="&#x125;" glyph-name="hcircumflex" horiz-adv-x="487" d="M43 735H171V484H175Q201 504 235 518T315 532Q378 532 411 502T445 402V0H317V375Q317 404 303 416T256 428Q231 428 209 421T171 406V0H43V735ZM193 900H298L386 777H293L244 826L199
777H105L193 900Z" />
<glyph unicode="&#x126;" glyph-name="Hbar" horiz-adv-x="591" d="M8 578H54V693H193V578H396V693H536V578H583V502H536V0H396V304H193V0H54V502H8V578ZM396 410V502H193V410H396Z" />
<glyph unicode="&#x127;" glyph-name="hbar" horiz-adv-x="487" d="M-8 659H43V735H171V659H286V590H171V484H175Q201 504 235 518T315 532Q378 532 411 502T445 402V0H317V375Q317 404 303 416T256 428Q231 428 209 421T171 406V0H43V590H-8V659Z" />
<glyph unicode="&#x128;" glyph-name="Itilde" horiz-adv-x="244" d="M52 693H192V0H52V693ZM230 736Q235 800 262 826T325 852Q342 852 355 848T380 838T402 829T423 824Q444 824 450 852H528Q523 790 496 763T432 735Q416 735 403 739T378 749T356 758T336 763Q313
763 307 736H230Z" />
<glyph unicode="&#x129;" glyph-name="itilde" horiz-adv-x="216" d="M-31 596Q-26 661 0 689T59 717Q74 717 86 713T109 703T128 693T146 688Q165 688 169 718H246Q241 655 215 626T155 597Q140 597 128 601T105 611T86 621T69 626Q49 626 45 596H-31ZM45 524H173V0H45V524Z"
/>
<glyph unicode="&#x12a;" glyph-name="Imacron" horiz-adv-x="244" d="M54 693H194V0H54V693ZM17 832H230V739H17V832Z" />
<glyph unicode="&#x12b;" glyph-name="imacron" horiz-adv-x="216" d="M11 690H207V600H11V690ZM44 524H173V0H44V524Z" />
<glyph unicode="&#x12c;" glyph-name="Ibreve" horiz-adv-x="244" d="M52 693H192V0H52V693ZM381 728Q350 728 326 738T286 765T260 805T249 855H334Q340 809 381 809Q422 809 428 855H514Q511 801 477 765T381 728Z" />
<glyph unicode="&#x12d;" glyph-name="ibreve" horiz-adv-x="216" d="M108 587Q48 587 17 622T-15 714H69Q72 670 108 670Q128 670 136 681T147 714H232Q230 657 199 622T108 587ZM45 524H173V0H45V524Z" />
<glyph unicode="&#x12e;" glyph-name="Iogonek" horiz-adv-x="244" d="M31 -112Q31 -74 51 -46T96 0H54V693H194V4Q168 -16 150 -39T132 -86Q132 -105 143 -111T170 -118Q178 -118 185 -118T197 -116V-186Q175 -196 135 -196Q84 -196 58 -174T31 -112Z" />
<glyph unicode="&#x12f;" glyph-name="iogonek" horiz-adv-x="216" d="M13 -112Q13 -74 35 -46T81 0H45V524H173V3Q150 -17 133 -39T115 -86Q115 -105 125 -111T153 -118Q161 -118 167 -118T179 -116V-186Q170 -191 153 -193T117 -196Q67 -196 40 -174T13 -112ZM44
712H174V598H44V712Z" />
<glyph unicode="&#x130;" glyph-name="Idotaccent" horiz-adv-x="244" d="M52 693H192V0H52V693ZM317 844H442V736H317V844Z" />
<glyph unicode="&#x131;" glyph-name="dotlessi" horiz-adv-x="216" d="M44 524H173V0H44V524Z" />
<glyph unicode="&#x132;" glyph-name="IJ" horiz-adv-x="586" d="M361 -7Q322 -7 293 -2T244 13V116Q259 111 278 109T317 106Q361 106 379 129T398 201V693H537V186Q537 144 528 109T497 48T443 8T361 -7ZM54 693H194V0H54V693Z" />
<glyph unicode="&#x133;" glyph-name="ij" horiz-adv-x="216" d="M-166 524H-38V0H-166V524ZM-167 712H-37V598H-167V712ZM26 -196Q-2 -196 -22 -192T-54 -179V-95Q-47 -97 -37 -98T-16 -99Q14 -99 29 -84T44 -31V524H173V-41Q173 -111 140 -153T26 -196ZM43 712H174V598H43V712Z"
/>
<glyph unicode="&#x134;" glyph-name="Jcircumflex" horiz-adv-x="370" d="M196 854H301L389 731H296L247 780L202 731H108L196 854ZM140 -7Q98 -7 69 -1T18 16V118Q33 113 54 110T100 106Q142 106 162 126T182 193V693H321V178Q321 137 312 104T280 45T224 7T140 -7Z" />
<glyph unicode="&#x135;" glyph-name="jcircumflex" horiz-adv-x="217" d="M54 727H161L242 583H149L108 644L67 583H-26L54 727ZM26 -196Q-2 -196 -22 -192T-54 -179V-95Q-47 -97 -37 -98T-16 -99Q14 -99 29 -84T45 -31V524H173V-41Q173 -111 140 -153T26 -196Z" />
<glyph unicode="&#x136;" glyph-name="Kcommaaccent" horiz-adv-x="547" d="M220 -39H339L297 -179H208L220 -39ZM196 356L388 693H533L340 366L543 0H385L196 356ZM52 693H192V0H52V693Z" />
<glyph unicode="&#x137;" glyph-name="kcommaaccent" horiz-adv-x="458" d="M179 -39H298L256 -179H167L179 -39ZM171 0H43V735H171V0ZM311 524H444L304 282L452 0H312L172 275L311 524Z" />
<glyph unicode="&#x139;" glyph-name="Lacute" horiz-adv-x="436" d="M377 858H509L430 731H326L377 858ZM52 693H192V107H417V0H52V693Z" />
<glyph unicode="&#x13a;" glyph-name="lacute" horiz-adv-x="214" d="M362 904H494L415 777H311L362 904ZM43 735H171V0H43V735Z" />
<glyph unicode="&#x13b;" glyph-name="Lcommaaccent" horiz-adv-x="436" d="M182 -39H301L259 -179H170L182 -39ZM52 693H192V107H417V0H52V693Z" />
<glyph unicode="&#x13c;" glyph-name="lcommaaccent" horiz-adv-x="214" d="M309 -39H428L386 -179H297L309 -39ZM43 735H171V0H43V735Z" />
<glyph unicode="&#x13d;" glyph-name="Lcaron" horiz-adv-x="436" d="M240 518L248 693H353L324 518H240ZM52 693H192V107H417V0H52V693Z" />
<glyph unicode="&#x13e;" glyph-name="lcaron" horiz-adv-x="214" d="M204 582L211 735H306L278 582H204ZM43 735H171V0H43V735Z" />
<glyph unicode="&#x13f;" glyph-name="Ldot" horiz-adv-x="436" d="M294 425H411V308H294V425ZM52 693H192V107H417V0H52V693Z" />
<glyph unicode="&#x140;" glyph-name="ldot" horiz-adv-x="312" d="M210 412H318V303H210V412ZM45 735H173V0H45V735Z" />
<glyph unicode="&#x141;" glyph-name="Lslash" horiz-adv-x="440" d="M2 313L56 338V693H195V394L342 462V358L195 290V107H420V0H56V233L2 208V313Z" />
<glyph unicode="&#x142;" glyph-name="lslash" horiz-adv-x="242" d="M5 377L55 409V735H184V481L241 516V410L184 374V0H55V303L5 272V377Z" />
<glyph unicode="&#x143;" glyph-name="Nacute" horiz-adv-x="584" d="M298 858H430L351 731H247L298 858ZM52 693H212L359 349Q370 324 379 299T397 253Q406 228 415 205H417Q415 223 414 246Q411 285 411 356V693H532V0H387L234 345Q221 374 210 403T189 456Q178
484 169 510H166Q167 490 169 464Q171 441 171 410T173 338V0H52V693Z" />
<glyph unicode="&#x144;" glyph-name="nacute" horiz-adv-x="487" d="M250 728H382L291 583H187L250 728ZM43 524H167V482H171Q197 503 232 517T315 532Q378 532 411 502T445 402V0H317V375Q317 404 303 416T256 428Q231 428 209 421T171 406V0H43V524Z" />
<glyph unicode="&#x145;" glyph-name="Ncommaaccent" horiz-adv-x="584" d="M236 -39H355L313 -179H224L236 -39ZM52 693H212L359 349Q370 324 379 299T397 253Q406 228 415 205H417Q415 223 414 246Q411 285 411 356V693H532V0H387L234 345Q221 374 210 403T189
456Q178 484 169 510H166Q167 490 169 464Q171 441 171 410T173 338V0H52V693Z" />
<glyph unicode="&#x146;" glyph-name="ncommaaccent" horiz-adv-x="487" d="M190 -39H309L267 -179H178L190 -39ZM43 524H167V482H171Q197 503 232 517T315 532Q378 532 411 502T445 402V0H317V375Q317 404 303 416T256 428Q231 428 209 421T171 406V0H43V524Z" />
<glyph unicode="&#x147;" glyph-name="Ncaron" horiz-adv-x="584" d="M356 731H251L163 854H257L303 805L351 854H444L356 731ZM52 693H212L359 349Q370 324 379 299T397 253Q406 228 415 205H417Q415 223 414 246Q411 285 411 356V693H532V0H387L234 345Q221
374 210 403T189 456Q178 484 169 510H166Q167 490 169 464Q171 441 171 410T173 338V0H52V693Z" />
<glyph unicode="&#x148;" glyph-name="ncaron" horiz-adv-x="487" d="M302 583H194L103 727H197L248 664L298 727H391L302 583ZM43 524H167V482H171Q197 503 232 517T315 532Q378 532 411 502T445 402V0H317V375Q317 404 303 416T256 428Q231 428 209 421T171
406V0H43V524Z" />
<glyph unicode="&#x149;" glyph-name="napostrophe" horiz-adv-x="487" d="M179 693H303L263 491H163L179 693ZM43 524H167V482H171Q197 503 232 517T315 532Q378 532 411 502T445 402V0H317V375Q317 404 303 416T256 428Q231 428 209 421T171 406V0H43V524Z" />
<glyph unicode="&#x14a;" glyph-name="Eng" horiz-adv-x="584" d="M52 693H207L357 347Q367 324 377 300T396 254Q406 229 415 205H417Q415 225 414 249Q412 269 412 296T411 355V693H531V-4Q531 -84 492 -129T361 -175Q328 -175 303 -169T259 -154V-65Q271 -69
290 -72T330 -76Q395 -76 405 -26L237 346Q224 374 212 403T190 457Q179 485 169 512H166Q167 489 169 462Q171 439 171 407T173 339V0H52V693Z" />
<glyph unicode="&#x14b;" glyph-name="eng" horiz-adv-x="488" d="M301 -196Q273 -196 253 -192T221 -180V-96Q229 -98 238 -99T259 -100Q289 -100 304 -85T319 -32V375Q319 404 305 416T257 428Q232 428 210 421T172 406V0H43V524H168V482H172Q198 503 234 517T317
532Q380 532 413 502T447 402V-41Q447 -111 414 -153T301 -196Z" />
<glyph unicode="&#x14c;" glyph-name="Omacron" horiz-adv-x="596" d="M179 824H415V736H179V824ZM298 -10Q236 -10 187 9T103 68T49 172T30 324V369Q30 453 49 515T103 619T187 682T298 703Q359 703 409 684T493 625T547 522T566 372V325Q566 158 494 74T298
-10ZM299 97Q363 97 391 149T419 303V380Q419 490 392 543T297 596Q232 596 205 543T177 391V314Q177 205 204 151T299 97Z" />
<glyph unicode="&#x14d;" glyph-name="omacron" horiz-adv-x="487" d="M126 690H359V600H126V690ZM243 -8Q132 -8 78 58T23 246V277Q23 400 82 466T243 532Q352 532 408 469T464 280V249Q464 125 405 59T243 -8ZM244 88Q289 88 310 125T331 234V288Q331 370 308
403T242 436Q197 436 177 399T156 290V236Q156 158 178 123T244 88Z" />
<glyph unicode="&#x14e;" glyph-name="Obreve" horiz-adv-x="596" d="M297 728Q266 728 242 738T202 765T176 805T165 855H250Q256 809 297 809Q338 809 344 855H430Q427 801 393 765T297 728ZM298 -10Q236 -10 187 9T103 68T49 172T30 324V369Q30 453 49 515T103
619T187 682T298 703Q359 703 409 684T493 625T547 522T566 372V325Q566 158 494 74T298 -10ZM299 97Q363 97 391 149T419 303V380Q419 490 392 543T297 596Q232 596 205 543T177 391V314Q177 205 204 151T299 97Z" />
<glyph unicode="&#x14f;" glyph-name="obreve" horiz-adv-x="487" d="M243 -8Q132 -8 78 58T23 246V277Q23 400 82 466T243 532Q352 532 408 469T464 280V249Q464 125 405 59T243 -8ZM244 88Q289 88 310 125T331 234V288Q331 370 308 403T242 436Q197 436 177
399T156 290V236Q156 158 178 123T244 88ZM242 585Q181 585 147 621T110 715H195Q201 669 242 669Q283 669 289 715H375Q373 658 338 622T242 585Z" />
<glyph unicode="&#x150;" glyph-name="Ohungarumlaut" horiz-adv-x="596" d="M360 858H481L424 731H324L360 858ZM198 858H317L261 731H161L198 858ZM298 -10Q236 -10 187 9T103 68T49 172T30 324V369Q30 453 49 515T103 619T187 682T298 703Q359 703 409 684T493
625T547 522T566 372V325Q566 158 494 74T298 -10ZM299 97Q363 97 391 149T419 303V380Q419 490 392 543T297 596Q232 596 205 543T177 391V314Q177 205 204 151T299 97Z" />
<glyph unicode="&#x151;" glyph-name="ohungarumlaut" horiz-adv-x="487" d="M310 728H430L370 583H271L310 728ZM149 728H268L209 583H110L149 728ZM243 -8Q132 -8 78 58T23 246V277Q23 400 82 466T243 532Q352 532 408 469T464 280V249Q464 125 405 59T243 -8ZM244
88Q289 88 310 125T331 234V288Q331 370 308 403T242 436Q197 436 177 399T156 290V236Q156 158 178 123T244 88Z" />
<glyph unicode="&#x152;" glyph-name="OE" horiz-adv-x="790" d="M316 0Q247 0 194 17T104 72T48 172T29 323V361Q29 533 99 613T311 693H755V586H517V408H707V303H517V107H762V0H316ZM378 107V586H313Q276 586 250 575T208 538T185 472T177 373V318Q177 256 186
215T212 150T256 117T318 107H378Z" />
<glyph unicode="&#x153;" glyph-name="oe" horiz-adv-x="764" d="M240 -8Q131 -8 77 58T23 246V277Q23 400 81 466T239 532Q297 532 336 512T399 456Q422 493 458 512T546 532Q651 532 697 470T743 277V226H461Q464 152 495 121T591 90Q632 90 665 100T725 123V37Q702
20 663 6T572 -8Q506 -8 464 14T398 75Q372 35 333 14T240 -8ZM244 88Q289 88 310 125T331 234V288Q331 370 308 403T241 436Q196 436 176 399T156 290V236Q156 158 178 123T244 88ZM542 440Q506 440 485 411T461 305H617Q617 380 599 410T542 440Z" />
<glyph unicode="&#x154;" glyph-name="Racute" horiz-adv-x="530" d="M250 858H382L303 731H199L250 858ZM52 693H270Q384 693 437 645T491 487Q491 413 464 372T390 311V307L527 0H382L264 273H192V0H52V693ZM254 366Q305 366 327 393T349 479Q349 538 328 564T251
590H190V366H254Z" />
<glyph unicode="&#x155;" glyph-name="racute" horiz-adv-x="319" d="M445 728H577L486 583H382L445 728ZM43 524H167V467H171Q189 495 218 513T282 531Q290 531 297 530T310 527V409Q303 411 293 411T273 412Q213 412 171 384V0H43V524Z" />
<glyph unicode="&#x156;" glyph-name="Rcommaaccent" horiz-adv-x="530" d="M222 -39H341L299 -179H210L222 -39ZM52 693H270Q384 693 437 645T491 487Q491 413 464 372T390 311V307L527 0H382L264 273H192V0H52V693ZM254 366Q305 366 327 393T349 479Q349 538
328 564T251 590H190V366H254Z" />
<glyph unicode="&#x157;" glyph-name="rcommaaccent" horiz-adv-x="319" d="M307 -39H426L384 -179H295L307 -39ZM43 524H167V467H171Q189 495 218 513T282 531Q290 531 297 530T310 527V409Q303 411 293 411T273 412Q213 412 171 384V0H43V524Z" />
<glyph unicode="&#x158;" glyph-name="Rcaron" horiz-adv-x="530" d="M309 731H204L116 854H210L256 805L304 854H397L309 731ZM52 693H270Q384 693 437 645T491 487Q491 413 464 372T390 311V307L527 0H382L264 273H192V0H52V693ZM254 366Q305 366 327 393T349
479Q349 538 328 564T251 590H190V366H254Z" />
<glyph unicode="&#x159;" glyph-name="rcaron" horiz-adv-x="319" d="M506 583H398L307 727H401L452 664L502 727H595L506 583ZM43 524H167V467H171Q189 495 218 513T282 531Q290 531 297 530T310 527V409Q303 411 293 411T273 412Q213 412 171 384V0H43V524Z" />
<glyph unicode="&#x15a;" glyph-name="Sacute" horiz-adv-x="450" d="M198 -10Q141 -10 97 0T24 27V135Q56 121 96 110T180 99Q237 99 263 121T289 192Q289 213 284 227T269 252T244 271T207 288L161 307Q96 334 60 379T24 504Q24 598 79 650T243 703Q304 703
338 694T396 673V567Q370 578 335 586T254 595Q158 595 158 516Q158 480 175 463T230 430L276 411Q310 397 337 382T385 343T416 288T427 208Q427 108 372 49T198 -10ZM220 858H352L273 731H169L220 858Z" />
<glyph unicode="&#x15b;" glyph-name="sacute" horiz-adv-x="371" d="M449 728H581L490 583H386L449 728ZM163 -8Q119 -8 83 0T20 22V116Q45 106 74 98T145 89Q227 89 227 145Q227 171 214 183T168 207L128 222Q73 242 47 278T20 375Q20 451 66 491T202 532Q247
532 276 526T327 508V414Q307 422 278 429T214 436Q179 436 160 426T140 389Q140 367 152 356T194 334L232 320Q263 309 285 296T323 264T345 221T352 163Q352 78 304 35T163 -8Z" />
<glyph unicode="&#x15c;" glyph-name="Scircumflex" horiz-adv-x="450" d="M174 854H279L367 731H274L225 780L180 731H86L174 854ZM198 -10Q141 -10 97 0T24 27V135Q56 121 96 110T180 99Q237 99 263 121T289 192Q289 213 284 227T269 252T244 271T207 288L161
307Q96 334 60 379T24 504Q24 598 79 650T243 703Q304 703 338 694T396 673V567Q370 578 335 586T254 595Q158 595 158 516Q158 480 175 463T230 430L276 411Q310 397 337 382T385 343T416 288T427 208Q427 108 372 49T198 -10Z" />
<glyph unicode="&#x15d;" glyph-name="scircumflex" horiz-adv-x="371" d="M392 727H500L590 583H497L445 646L395 583H301L392 727ZM163 -8Q119 -8 83 0T20 22V116Q45 106 74 98T145 89Q227 89 227 145Q227 171 214 183T168 207L128 222Q73 242 47 278T20 375Q20
451 66 491T202 532Q247 532 276 526T327 508V414Q307 422 278 429T214 436Q179 436 160 426T140 389Q140 367 152 356T194 334L232 320Q263 309 285 296T323 264T345 221T352 163Q352 78 304 35T163 -8Z" />
<glyph unicode="&#x15e;" glyph-name="Scedilla" horiz-adv-x="450" d="M140 -162Q185 -158 204 -149T223 -123Q223 -106 209 -101T160 -94V-8Q116 -5 82 4T24 27V135Q56 121 96 110T180 99Q237 99 263 121T289 192Q289 213 284 227T269 252T244 271T207 288L161
307Q96 334 60 379T24 504Q24 598 79 650T243 703Q304 703 338 694T396 673V567Q370 578 335 586T254 595Q158 595 158 516Q158 480 175 463T230 430L276 411Q310 397 337 382T385 343T416 288T427 208Q427 113 378 55T223 -9V-45Q267 -47 290 -65T314 -119Q314
-165 274 -190T140 -220V-162Z" />
<glyph unicode="&#x15f;" glyph-name="scedilla" horiz-adv-x="371" d="M104 -162Q149 -158 168 -149T187 -123Q187 -106 173 -101T124 -94V-6Q61 0 20 22V116Q45 106 74 98T145 89Q227 89 227 145Q227 171 214 183T168 207L128 222Q73 242 47 278T20 375Q20 451
66 491T202 532Q247 532 276 526T327 508V414Q307 422 278 429T214 436Q179 436 160 426T140 389Q140 367 152 356T194 334L232 320Q263 309 285 296T323 264T345 221T352 163Q352 83 310 41T187 -7V-45Q231 -47 254 -65T278 -119Q278 -165 238 -190T104 -220V-162Z"
/>
<glyph unicode="&#x160;" glyph-name="Scaron" horiz-adv-x="450" d="M276 731H171L83 854H177L223 805L271 854H364L276 731ZM198 -10Q141 -10 97 0T24 27V135Q56 121 96 110T180 99Q237 99 263 121T289 192Q289 213 284 227T269 252T244 271T207 288L161 307Q96
334 60 379T24 504Q24 598 79 650T243 703Q304 703 338 694T396 673V567Q370 578 335 586T254 595Q158 595 158 516Q158 480 175 463T230 430L276 411Q310 397 337 382T385 343T416 288T427 208Q427 108 372 49T198 -10Z" />
<glyph unicode="&#x161;" glyph-name="scaron" horiz-adv-x="371" d="M499 583H391L300 727H394L445 664L495 727H588L499 583ZM163 -8Q119 -8 83 0T20 22V116Q45 106 74 98T145 89Q227 89 227 145Q227 171 214 183T168 207L128 222Q73 242 47 278T20 375Q20 451
66 491T202 532Q247 532 276 526T327 508V414Q307 422 278 429T214 436Q179 436 160 426T140 389Q140 367 152 356T194 334L232 320Q263 309 285 296T323 264T345 221T352 163Q352 78 304 35T163 -8Z" />
<glyph unicode="&#x162;" glyph-name="Tcommaaccent" horiz-adv-x="476" d="M180 -39H299L257 -179H168L180 -39ZM168 586H14V693H462V586H308V0H168V586Z" />
<glyph unicode="&#x163;" glyph-name="tcommaaccent" horiz-adv-x="316" d="M386 -39H505L463 -179H374L386 -39ZM203 -7Q140 -7 105 21T69 121V428H11V524H69V645H198V524H293V428H198V143Q198 114 209 104T249 93Q263 93 275 95T296 100V15Q283 6 259 0T203 -7Z" />
<glyph unicode="&#x164;" glyph-name="Tcaron" horiz-adv-x="476" d="M290 731H185L97 854H191L237 805L285 854H378L290 731ZM168 586H14V693H462V586H308V0H168V586Z" />
<glyph unicode="&#x165;" glyph-name="tcaron" horiz-adv-x="316" d="M238 582L245 735H340L312 582H238ZM203 -7Q140 -7 105 21T69 121V428H11V524H69V645H198V524H293V428H198V143Q198 114 209 104T249 93Q263 93 275 95T296 100V15Q283 6 259 0T203 -7Z" />
<glyph unicode="&#x166;" glyph-name="Tbar" horiz-adv-x="476" d="M59 417H167V586H13V693H461V586H307V417H416V335H307V0H167V335H59V417Z" />
<glyph unicode="&#x167;" glyph-name="tbar" horiz-adv-x="316" d="M11 349H69V428H11V524H69V645H198V524H293V428H198V349H293V276H198V143Q198 114 209 104T249 93Q263 93 275 95T296 100V15Q283 6 259 0T203 -7Q140 -7 105 21T69 121V276H11V349Z" />
<glyph unicode="&#x168;" glyph-name="Utilde" horiz-adv-x="570" d="M287 -10Q161 -10 105 47T48 216V693H188V222Q188 156 211 127T291 98Q346 98 368 127T391 222V693H522V218Q522 105 465 48T287 -10ZM139 736Q144 800 171 826T234 852Q251 852 264 848T289
838T311 829T332 824Q353 824 359 852H437Q432 790 405 763T341 735Q325 735 312 739T287 749T265 758T245 763Q222 763 216 736H139Z" />
<glyph unicode="&#x169;" glyph-name="utilde" horiz-adv-x="482" d="M176 -8Q108 -8 75 28T42 133V524H170V150Q170 123 182 110T231 96Q254 96 275 103T311 119V524H439V0H328L318 43H314Q288 24 255 8T176 -8ZM91 594Q95 658 123 687T189 716Q207 716 220 711T244
700T266 689T287 684Q310 684 316 717H392Q387 656 359 626T293 595Q276 595 263 600T238 610T216 621T196 626Q173 626 168 594H91Z" />
<glyph unicode="&#x16a;" glyph-name="Umacron" horiz-adv-x="570" d="M287 -10Q161 -10 105 47T48 216V693H188V222Q188 156 211 127T291 98Q346 98 368 127T391 222V693H522V218Q522 105 465 48T287 -10ZM169 824H405V736H169V824Z" />
<glyph unicode="&#x16b;" glyph-name="umacron" horiz-adv-x="482" d="M176 -8Q108 -8 75 28T42 133V524H170V150Q170 123 182 110T231 96Q254 96 275 103T311 119V524H439V0H328L318 43H314Q288 24 255 8T176 -8ZM126 690H359V600H126V690Z" />
<glyph unicode="&#x16c;" glyph-name="Ubreve" horiz-adv-x="570" d="M287 -10Q161 -10 105 47T48 216V693H188V222Q188 156 211 127T291 98Q346 98 368 127T391 222V693H522V218Q522 105 465 48T287 -10ZM287 728Q256 728 232 738T192 765T166 805T155 855H240Q246
809 287 809Q328 809 334 855H420Q417 801 383 765T287 728Z" />
<glyph unicode="&#x16d;" glyph-name="ubreve" horiz-adv-x="482" d="M176 -8Q108 -8 75 28T42 133V524H170V150Q170 123 182 110T231 96Q254 96 275 103T311 119V524H439V0H328L318 43H314Q288 24 255 8T176 -8ZM242 585Q181 585 147 621T110 715H195Q201 669
242 669Q283 669 289 715H375Q373 658 338 622T242 585Z" />
<glyph unicode="&#x16e;" glyph-name="Uring" horiz-adv-x="570" d="M287 -10Q161 -10 105 47T48 216V693H188V222Q188 156 211 127T291 98Q346 98 368 127T391 222V693H522V218Q522 105 465 48T287 -10ZM287 964Q243 964 215 991T187 1061Q187 1104 214 1131T287
1159Q331 1159 359 1132T387 1062Q387 1019 359 992T287 964ZM287 1018Q305 1018 316 1030T327 1062Q327 1082 316 1093T287 1105Q269 1105 258 1094T247 1062Q247 1042 258 1030T287 1018Z" />
<glyph unicode="&#x16f;" glyph-name="uring" horiz-adv-x="482" d="M242 576Q198 576 170 602T142 672Q142 714 170 741T242 768Q285 768 313 742T341 673Q341 629 313 603T242 576ZM242 628Q260 628 271 640T282 672Q282 691 271 703T242 715Q224 715 214 704T203
672Q203 652 213 640T242 628ZM176 -8Q108 -8 75 28T42 133V524H170V150Q170 123 182 110T231 96Q254 96 275 103T311 119V524H439V0H328L318 43H314Q288 24 255 8T176 -8Z" />
<glyph unicode="&#x170;" glyph-name="Uhungarumlaut" horiz-adv-x="570" d="M351 858H472L415 731H315L351 858ZM189 858H308L252 731H152L189 858ZM287 -10Q161 -10 105 47T48 216V693H188V222Q188 156 211 127T291 98Q346 98 368 127T391 222V693H522V218Q522
105 465 48T287 -10Z" />
<glyph unicode="&#x171;" glyph-name="uhungarumlaut" horiz-adv-x="482" d="M176 -8Q108 -8 75 28T42 133V524H170V150Q170 123 182 110T231 96Q254 96 275 103T311 119V524H439V0H328L318 43H314Q288 24 255 8T176 -8ZM308 728H428L368 583H269L308 728ZM147
728H266L207 583H108L147 728Z" />
<glyph unicode="&#x172;" glyph-name="Uogonek" horiz-adv-x="570" d="M392 -1Q363 -16 341 -38T318 -88Q318 -108 330 -114T359 -121Q375 -121 383 -117V-187Q374 -192 358 -195T322 -199Q271 -199 244 -177T216 -114Q216 -79 236 -53T280 -10H268Q153 -5 101
52T49 216V693H188V220Q188 154 212 125T292 96Q346 96 369 125T392 221V693H523V219Q523 171 514 136T487 76T445 32T392 -1Z" />
<glyph unicode="&#x173;" glyph-name="uogonek" horiz-adv-x="482" d="M440 3Q417 -17 399 -40T380 -86Q380 -105 391 -111T419 -118Q435 -118 445 -116V-186Q436 -191 419 -193T384 -196Q333 -196 305 -174T277 -112Q277 -72 301 -45T353 0H328L318 43H314Q288
24 254 8T175 -8Q107 -8 74 28T41 133V524H170V150Q170 123 182 110T231 96Q254 96 275 103T311 119V524H440V3Z" />
<glyph unicode="&#x174;" glyph-name="Wcircumflex" horiz-adv-x="778" d="M341 854H446L534 731H441L392 780L347 731H253L341 854ZM13 693H151L219 310Q221 293 224 273T231 235Q235 214 237 194H240Q242 214 246 234Q248 251 251 272T259 311L338 693H456L532
312Q535 294 538 274T545 235L552 193H555Q557 211 560 230Q562 247 565 268T573 312L641 693H765L629 0H483L412 354Q408 374 405 396T399 437Q395 458 393 479H390Q387 458 383 436Q380 417 377 395T369 354L297 0H148L13 693Z" />
<glyph unicode="&#x175;" glyph-name="wcircumflex" horiz-adv-x="661" d="M283 727H391L481 583H388L336 646L286 583H192L283 727ZM9 524H139L187 279Q192 254 195 234T201 199Q204 181 207 167H209Q212 180 216 198Q219 213 223 233T232 279L285 524H392L446
279Q451 253 455 233L462 198Q466 180 468 167H471Q472 181 476 199Q478 214 482 234L491 279L538 524H652L534 0H407L358 211Q352 234 348 257T339 297Q335 317 332 335H329Q326 316 322 296Q319 279 314 257T304 211L254 0H129L9 524Z" />
<glyph unicode="&#x176;" glyph-name="Ycircumflex" horiz-adv-x="516" d="M190 258L2 693H151L222 512Q232 485 240 464T254 426Q261 408 266 393H269Q273 407 279 425Q284 441 292 462T311 512L381 693H514L330 260V0H190V258ZM216 854H321L409 731H316L267
780L222 731H128L216 854Z" />
<glyph unicode="&#x177;" glyph-name="ycircumflex" horiz-adv-x="455" d="M111 -196Q91 -196 70 -192T34 -183V-94Q44 -96 57 -97T82 -99Q113 -99 131 -85T161 -34L172 1L5 524H141L214 262Q219 242 223 225T229 196Q232 182 234 170H238Q240 184 244 199Q247
212 250 228T258 261L327 524H450L279 -52Q268 -89 254 -116T220 -161T174 -187T111 -196ZM179 727H287L377 583H284L232 646L182 583H88L179 727Z" />
<glyph unicode="&#x178;" glyph-name="Ydieresis" horiz-adv-x="516" d="M190 258L2 693H151L222 512Q232 485 240 464T254 426Q261 408 266 393H269Q273 407 279 425Q284 441 292 462T311 512L381 693H514L330 260V0H190V258ZM297 842H411V735H297V842ZM126 842H240V735H126V842Z"
/>
<glyph unicode="&#x179;" glyph-name="Zacute" horiz-adv-x="471" d="M237 858H369L290 731H186L237 858ZM24 98L287 583V586H41V693H445V594L181 110V107H442V0H24V98Z" />
<glyph unicode="&#x17a;" glyph-name="zacute" horiz-adv-x="403" d="M209 728H341L250 583H146L209 728ZM23 92L228 426V429H32V524H380V439L170 100V97H377V0H23V92Z" />
<glyph unicode="&#x17b;" glyph-name="Zdotaccent" horiz-adv-x="471" d="M24 98L287 583V586H41V693H445V594L181 110V107H442V0H24V98ZM182 844H307V736H182V844Z" />
<glyph unicode="&#x17c;" glyph-name="zdotaccent" horiz-adv-x="403" d="M23 92L228 426V429H32V524H380V439L170 100V97H377V0H23V92ZM144 712H274V598H144V712Z" />
<glyph unicode="&#x17d;" glyph-name="Zcaron" horiz-adv-x="471" d="M298 731H193L105 854H199L245 805L293 854H386L298 731ZM24 98L287 583V586H41V693H445V594L181 110V107H442V0H24V98Z" />
<glyph unicode="&#x17e;" glyph-name="zcaron" horiz-adv-x="403" d="M265 583H157L66 727H160L211 664L261 727H354L265 583ZM23 92L228 426V429H32V524H380V439L170 100V97H377V0H23V92Z" />
<glyph unicode="&#x192;" glyph-name="florin" horiz-adv-x="384" d="M26 442H102L118 555Q130 646 176 686T297 726Q326 726 347 722T380 711V621Q369 623 358 624T333 626Q300 626 280 608T253 539L240 442H333V343H227L180 -13Q168 -103 127 -142T10 -181Q-19
-181 -39 -176T-70 -165V-76Q-64 -78 -53 -79T-30 -81Q-4 -81 15 -66T41 -7L88 343H26V442Z" />
<glyph unicode="&#x1fa;" glyph-name="Aringacute" horiz-adv-x="557" d="M196 693H359L551 0H410L368 156H174L135 0H6L196 693ZM269 547Q266 531 262 513Q259 498 256 480T247 442L199 254H343L294 442Q290 461 286 479T279 513Q275 531 272 547H269ZM280 1062H412L333
935H229L280 1062ZM277 720Q233 720 205 747T177 817Q177 860 204 887T277 915Q321 915 349 888T377 818Q377 775 349 748T277 720ZM277 774Q295 774 306 786T317 818Q317 838 306 849T277 861Q259 861 248 850T237 818Q237 798 248 786T277 774Z" />
<glyph unicode="&#x1fb;" glyph-name="aringacute" horiz-adv-x="441" d="M167 -8Q99 -8 59 29T18 142Q18 218 59 255T178 304L272 319V352Q272 397 251 414T176 431Q141 431 111 426T59 413V503Q88 516 129 524T225 532Q314 532 357 495T401 376V0H294L284 36H279Q263
17 235 5T167 -8ZM210 81Q230 81 246 86T272 100V235L213 228Q178 225 163 208T147 156Q147 117 162 99T210 81ZM223 576Q179 576 151 602T123 672Q123 714 151 741T223 768Q266 768 294 742T322 673Q322 629 294 603T223 576ZM223 628Q241 628 252 640T263 672Q263
691 252 703T223 715Q205 715 195 704T184 672Q184 652 194 640T223 628ZM222 929H354L275 802H171L222 929Z" />
<glyph unicode="&#x1fc;" glyph-name="AEacute" horiz-adv-x="776" d="M501 858H633L554 731H450L501 858ZM290 693H742V586H503V408H692V303H503V107H748V0H366V162H194L127 0H-2L290 693ZM234 262H366V581H362L234 262Z" />
<glyph unicode="&#x1fd;" glyph-name="aeacute" horiz-adv-x="701" d="M369 728H501L410 583H306L369 728ZM505 -8Q382 -8 325 61Q298 29 260 11T167 -8Q99 -8 59 29T18 141Q18 215 60 251T180 299L272 311V352Q272 397 251 414T175 431Q140 431 110 426T59 413V503Q88
516 128 524T220 532Q315 532 349 478Q398 532 485 532Q588 532 633 471T679 280V229H399Q401 153 432 122T528 90Q569 90 603 100T663 123V37Q640 20 600 6T505 -8ZM291 119Q282 142 278 170T271 231L214 226Q179 223 162 206T145 154Q145 116 161 99T208 81Q255
81 291 119ZM479 440Q444 440 423 410T399 309H554Q554 381 537 410T479 440Z" />
<glyph unicode="&#x1fe;" glyph-name="Oslashacute" horiz-adv-x="596" d="M297 -10Q246 -10 205 5T132 49L98 0H7L83 109Q31 196 31 322V369Q31 536 104 619T303 703Q351 703 390 689T462 648L493 693H583L512 592Q539 550 553 496T568 376V325Q568 241 549 179T495
74T409 11T297 -10ZM300 95Q366 95 395 147T424 303V405Q424 435 421 461L202 148Q231 95 300 95ZM175 391V265Q175 253 177 242L393 551Q363 598 298 598Q232 599 204 545T175 391ZM291 858H423L344 731H240L291 858Z" />
<glyph unicode="&#x1ff;" glyph-name="oslashacute" horiz-adv-x="487" d="M244 -8Q161 -8 109 32L85 0H5L64 79Q23 141 23 243V277Q23 400 82 466T243 532Q319 532 373 495L395 524H476L420 449Q441 418 452 377T464 283V249Q464 125 405 59T244 -8ZM245 84Q291
84 313 123T335 234V298Q335 307 335 316T333 333L173 118Q185 99 202 92T245 84ZM152 290V211Q152 205 153 198L310 410Q289 441 243 441Q195 441 174 402T152 290ZM240 728H372L281 583H177L240 728Z" />
<glyph unicode="&#x218;" glyph-name="Scommaaccent" horiz-adv-x="450" d="M156 -39H275L233 -179H144L156 -39ZM198 -10Q141 -10 97 0T24 27V135Q56 121 96 110T180 99Q237 99 263 121T289 192Q289 213 284 227T269 252T244 271T207 288L161 307Q96 334 60 379T24
504Q24 598 79 650T243 703Q304 703 338 694T396 673V567Q370 578 335 586T254 595Q158 595 158 516Q158 480 175 463T230 430L276 411Q310 397 337 382T385 343T416 288T427 208Q427 108 372 49T198 -10Z" />
<glyph unicode="&#x219;" glyph-name="scommaaccent" horiz-adv-x="371" d="M382 -39H501L459 -179H370L382 -39ZM163 -8Q119 -8 83 0T20 22V116Q45 106 74 98T145 89Q227 89 227 145Q227 171 214 183T168 207L128 222Q73 242 47 278T20 375Q20 451 66 491T202
532Q247 532 276 526T327 508V414Q307 422 278 429T214 436Q179 436 160 426T140 389Q140 367 152 356T194 334L232 320Q263 309 285 296T323 264T345 221T352 163Q352 78 304 35T163 -8Z" />
<glyph unicode="&#x21a;" glyph-name="uni021A" horiz-adv-x="476" d="M180 -39H299L257 -179H168L180 -39ZM168 586H14V693H462V586H308V0H168V586Z" />
<glyph unicode="&#x21b;" glyph-name="uni021B" horiz-adv-x="316" d="M386 -39H505L463 -179H374L386 -39ZM203 -7Q140 -7 105 21T69 121V428H11V524H69V645H198V524H293V428H198V143Q198 114 209 104T249 93Q263 93 275 95T296 100V15Q283 6 259 0T203 -7Z" />
<glyph unicode="&#x237;" glyph-name="uni0237" horiz-adv-x="217" d="M26 -196Q-2 -196 -22 -192T-54 -179V-95Q-47 -97 -37 -98T-16 -99Q14 -99 29 -84T45 -31V524H173V-41Q173 -111 140 -153T26 -196Z" />
<glyph unicode="&#x2c6;" glyph-name="circumflex" horiz-adv-x="421" d="M156 727H264L354 583H261L209 646L159 583H65L156 727Z" />
<glyph unicode="&#x2c7;" glyph-name="caron" horiz-adv-x="421" d="M265 583H157L66 727H160L211 664L261 727H354L265 583Z" />
<glyph unicode="&#x2d8;" glyph-name="breve" horiz-adv-x="421" d="M210 585Q149 585 115 621T78 715H163Q169 669 210 669Q251 669 257 715H343Q341 658 306 622T210 585Z" />
<glyph unicode="&#x2d9;" glyph-name="dotaccent" horiz-adv-x="421" d="M144 712H274V598H144V712Z" />
<glyph unicode="&#x2da;" glyph-name="ring" horiz-adv-x="421" d="M210 576Q166 576 138 602T110 672Q110 714 138 741T210 768Q253 768 281 742T309 673Q309 629 281 603T210 576ZM210 628Q228 628 239 640T250 672Q250 691 239 703T210 715Q192 715 182 704T171
672Q171 652 181 640T210 628Z" />
<glyph unicode="&#x2db;" glyph-name="ogonek" horiz-adv-x="421" d="M215 -199Q164 -199 137 -177T110 -114Q110 -93 117 -76T136 -44T162 -19T189 0H267Q247 -21 230 -42T212 -88Q212 -108 223 -114T252 -121Q267 -121 277 -117V-187Q267 -192 251 -195T215 -199Z" />
<glyph unicode="&#x2dc;" glyph-name="tilde" horiz-adv-x="421" d="M58 594Q62 658 90 687T156 716Q174 716 187 711T211 700T233 689T254 684Q277 684 283 717H359Q354 656 326 626T260 595Q243 595 230 600T205 610T183 621T163 626Q140 626 135 594H58Z" />
<glyph unicode="&#x2dd;" glyph-name="hungarumlaut" horiz-adv-x="421" d="M271 728H391L331 583H232L271 728ZM110 728H229L170 583H71L110 728Z" />
</font>
</defs>
</svg>
