<?xml version="1.0" standalone="no"?> <!DOCTYPE svg PUBLIC "-//W3C//DTD SVG 1.0//EN" "http://www.w3.org/TR/2001/REC-SVG-20010904/DTD/svg10.dtd" > <svg xmlns="http://www.w3.org/2000/svg" width="100%" height="100%">
<defs >
<font horiz-adv-x="583" ><font-face
    font-family=""
    units-per-em="1000"
    panose-1="2 6 10 3 5 5 3 13 8 3"
    ascent="790"
    descent="-210"
    alphabetic="0" />
<missing-glyph horiz-adv-x="500" />
<glyph unicode=" " glyph-name="space" horiz-adv-x="165" />
<glyph unicode="!" glyph-name="exclam" horiz-adv-x="282" d="M144 693H362L197 224H63L144 693ZM95 -12Q72 -12 55 -5T25 15T7 42T0 72Q0 96 8 115T31 149T65 172T108 180Q130 180 147 173T177 153T195 126T202 96Q202 48 171 18T95 -12Z" />
<glyph unicode="&quot;" glyph-name="quotedbl" horiz-adv-x="464" d="M331 693L244 457H117L152 693H331ZM538 693L451 457H324L359 693H538Z" />
<glyph unicode="#" glyph-name="numbersign" horiz-adv-x="545" d="M119 549H211L258 693H366L319 549H405L452 693H560L513 549H595L555 391H463L438 313H518L479 155H387L338 0H230L279 155H193L144 0H36L85 155H3L42 313H136L161 391H79L119 549ZM244 313H330L355
391H269L244 313Z" />
<glyph unicode="$" glyph-name="dollar" horiz-adv-x="592" d="M228 -9L187 -117H91L134 -3Q83 2 41 13T-25 37L12 205H144L149 128Q159 122 181 119L241 274L219 282Q146 307 114 348T82 462Q82 508 100 551T157 629T253 683T392 704H405L429 765H524L498 698Q544
693 578 685T633 667L608 511H480L475 571Q468 574 452 577L396 430L413 425Q454 411 483 396T531 360T559 313T568 250Q568 196 544 149T475 66T368 11T229 -9H228ZM361 192Q361 209 353 220T324 242L276 117Q314 123 337 141T361 192ZM276 511Q276 493 283 482T312
460L359 583Q315 578 296 558T276 511Z" />
<glyph unicode="%" glyph-name="percent" horiz-adv-x="940" d="M681 -12Q645 -12 614 -3T559 25T522 72T509 138Q509 197 530 244T586 324T664 375T750 393Q786 393 817 384T872 357T909 312T922 246Q922 187 901 140T846 58T769 6T681 -12ZM241 300Q205 300
174 309T119 337T82 384T69 450Q69 509 90 556T146 636T224 687T310 705Q346 705 377 696T432 669T469 624T482 558Q482 499 461 452T405 370T327 318T241 300ZM741 713H855L237 -40H123L741 713ZM249 387Q260 387 268 394T284 413Q291 425 299 446T313 491T324
541T328 587Q328 618 301 618Q289 618 281 610T265 588Q258 575 250 553T236 506T225 458T221 421Q221 387 249 387ZM689 75Q700 75 708 82T724 101Q731 113 739 134T753 179T764 229T768 275Q768 306 741 306Q729 306 721 298T705 276Q698 263 690 241T676 194T665
146T661 109Q661 75 689 75Z" />
<glyph unicode="&amp;" glyph-name="ampersand" horiz-adv-x="760" d="M254 -12Q133 -12 71 37T9 166Q9 213 23 249T63 312T123 358T196 392Q181 421 173 445T165 495Q165 541 184 580T237 646T318 689T424 705Q478 705 516 694T578 664T613 620T625 567Q626 499
580 454T449 376L549 243Q568 269 581 294L548 305L574 409H792L766 304L721 292Q701 255 675 221T616 154L634 130L701 111L673 0H470L445 34Q398 12 350 0T254 -12ZM260 295Q240 272 233 248T225 199Q225 164 248 139T323 114Q353 114 383 122L261 294Q260 294
260 295ZM454 549Q454 568 445 579T419 591Q394 591 379 571T364 519Q364 499 372 482T393 447Q431 470 442 497T454 549Z" />
<glyph unicode="&apos;" glyph-name="quotesingle" horiz-adv-x="257" d="M331 693L244 457H117L152 693H331Z" />
<glyph unicode="(" glyph-name="parenleft" horiz-adv-x="371" d="M188 -150Q156 -119 127 -83T76 -4T40 91T26 205Q26 301 58 384T143 536T265 660T408 755L467 686Q338 576 273 450T207 160Q207 85 224 25T272 -92L188 -150V-150Z" />
<glyph unicode=")" glyph-name="parenright" horiz-adv-x="371" d="M-67 -82Q62 28 127 154T193 444Q193 519 176 579T128 696L212 754Q243 723 272 687T324 608T360 512T374 399Q374 303 342 220T257 68T135 -56T-8 -151L-67 -82Z" />
<glyph unicode="*" glyph-name="asterisk" horiz-adv-x="412" d="M231 467L121 384L84 505L207 522L95 554L188 667L255 571L244 693H386L317 567L427 650L464 529L341 512L453 480L360 367L293 463L304 341H162L231 467Z" />
<glyph unicode="+" glyph-name="plus" horiz-adv-x="544" d="M63 406H225V575H361V406H523V274H361V105H225V274H63V406Z" />
<glyph unicode="," glyph-name="comma" horiz-adv-x="265" d="M-44 -75Q-33 -47 -24 -19T-5 40T11 104T26 176H217Q203 102 171 38T95 -75H-44V-75Z" />
<glyph unicode="-" glyph-name="hyphen" horiz-adv-x="336" d="M60 359H334L296 208H22L60 359Z" />
<glyph unicode="." glyph-name="period" horiz-adv-x="267" d="M89 -13Q65 -13 47 -6T16 15T-3 44T-10 78Q-10 102 -2 122T22 158T57 181T101 190Q125 190 143 182T174 162T193 133T200 101Q200 50 169 19T89 -13Z" />
<glyph unicode="/" glyph-name="slash" horiz-adv-x="396" d="M351 733H502L55 -120H-96L351 733Z" />
<glyph unicode="0" glyph-name="zero" horiz-adv-x="677" d="M451 705Q509 705 555 688T633 640T682 563T699 462Q699 365 667 279T578 128T443 25T273 -13Q217 -13 172 3T95 50T46 126T28 230Q28 329 60 415T148 566T282 668T451 705ZM421 571Q394 571 374 555T334
501Q319 472 305 435T281 357T264 275T258 196Q258 160 268 141T303 121Q312 121 322 123T344 132T367 153T391 190Q406 218 419 255T444 334T461 416T468 495Q468 530 458 550T421 571Z" />
<glyph unicode="1" glyph-name="one" horiz-adv-x="433" d="M-6 111L80 128L171 494L71 486L99 599L336 699H451L309 128L384 111L356 0H-34L-6 111Z" />
<glyph unicode="2" glyph-name="two" horiz-adv-x="549" d="M292 561Q282 561 273 560T255 554L236 480H117Q98 494 91 513T83 549Q83 577 99 605T149 655T234 690T356 704Q413 704 456 691T528 655T573 599T589 530Q589 482 572 439T521 356T434 278T313 202L217
149V147H503L454 0H-41L-10 124L176 268Q226 307 259 337T312 394T340 445T348 495Q348 561 292 561Z" />
<glyph unicode="3" glyph-name="three" horiz-adv-x="548" d="M396 360Q450 350 484 318T519 230Q519 181 499 138T440 61T341 9T203 -10Q155 -10 118 -5T53 10T6 29T-27 48L4 171Q28 161 64 151T150 141Q221 141 250 167T280 235Q280 291 196 291H126L157 417H221Q289
417 317 442T346 512Q346 539 330 555T282 572Q271 572 264 571T249 567L231 496H123Q104 510 97 527T90 561Q90 589 105 615T153 661T235 692T351 704Q462 704 518 663T574 547Q574 474 526 428T396 364V360Z" />
<glyph unicode="4" glyph-name="four" horiz-adv-x="607" d="M198 111L271 126L290 201H5L31 305L446 694H634L540 318H604L575 201H511L492 126L553 111L525 0H170L198 111ZM319 318L358 475H354L194 321V318H319Z" />
<glyph unicode="5" glyph-name="five" horiz-adv-x="544" d="M180 -10Q135 -10 102 -6T43 6T-1 23T-34 41L-3 163Q24 154 59 147T139 139Q216 139 249 168T283 246Q283 281 254 295T166 310Q137 310 112 307T60 299L169 693H587L536 535H263L235 433Q250 438 274
441T327 444Q421 444 472 399T523 272Q523 218 502 167T438 77T331 14T180 -10Z" />
<glyph unicode="6" glyph-name="six" horiz-adv-x="622" d="M282 -12Q217 -12 170 5T92 54T45 130T30 227Q30 285 44 344T83 456T142 553T219 626Q249 647 278 661T338 685T402 699T474 704Q550 704 592 689T659 655L623 529Q600 537 569 542T496 548Q423 548
373 515T290 403Q304 413 323 421T364 436T405 445T442 449Q528 449 566 407T605 295Q605 244 588 190T533 91T433 17T282 -12ZM292 120Q313 120 329 132T355 164T371 209T377 261Q377 287 367 301T330 315Q314 315 295 309T262 292Q254 266 249 237T243 180Q243
120 292 120Z" />
<glyph unicode="7" glyph-name="seven" horiz-adv-x="543" d="M442 530V535H236L196 465H71L131 693H637L606 571L288 0H33L442 530Z" />
<glyph unicode="8" glyph-name="eight" horiz-adv-x="623" d="M275 -13Q198 -13 145 1T59 40T12 95T-2 162Q-2 191 9 219T42 273T99 318T182 351Q137 372 120 406T103 477Q103 522 123 563T184 635T283 686T418 705Q485 705 531 692T605 658T646 608T659 549Q659
489 617 442T485 373Q543 349 571 316T600 228Q600 175 576 131T509 55T406 5T275 -13ZM278 114Q322 114 347 137T373 195Q373 223 349 242T266 280Q223 261 208 233T193 176Q193 147 213 131T278 114ZM386 437Q424 451 443 473T463 532Q463 555 447 567T403 579Q360
579 341 557T321 505Q321 484 333 468T386 437Z" />
<glyph unicode="9" glyph-name="nine" horiz-adv-x="622" d="M390 704Q454 704 501 687T580 640T627 566T642 469Q642 411 629 351T592 236T534 136T459 60Q427 37 397 23T336 2T270 -9T198 -12Q122 -12 78 3T9 38L43 164Q66 156 101 150T176 144Q258 144 307
175T383 289Q369 278 350 270T309 255T268 246T231 243Q146 243 107 285T67 397Q67 448 84 502T139 601T239 675T390 704ZM380 572Q359 572 343 560T317 528T301 483T295 431Q295 405 305 391T342 377Q358 377 377 383T410 400Q418 426 423 455T429 512Q429 572
380 572Z" />
<glyph unicode=":" glyph-name="colon" horiz-adv-x="273" d="M164 279Q140 279 122 286T91 307T72 336T65 370Q65 394 73 414T97 450T132 473T176 482Q200 482 218 474T249 454T268 425T275 393Q275 342 244 311T164 279ZM92 -13Q68 -13 50 -6T19 15T0 44T-7
78Q-7 102 1 122T25 158T60 181T104 190Q128 190 146 182T177 162T196 133T203 101Q203 50 172 19T92 -13Z" />
<glyph unicode=";" glyph-name="semicolon" horiz-adv-x="273" d="M-40 -75Q-29 -47 -20 -19T-1 40T15 104T30 176H221Q207 102 175 38T99 -75H-40ZM164 279Q140 279 122 286T91 307T72 336T65 370Q65 394 73 414T97 450T132 473T176 482Q200 482 218 474T249
454T268 425T275 393Q275 342 244 311T164 279Z" />
<glyph unicode="&lt;" glyph-name="less" horiz-adv-x="498" d="M466 561V413L219 324L466 234V86L54 259V388L466 561Z" />
<glyph unicode="=" glyph-name="equal" horiz-adv-x="544" d="M64 472H524V340H64V472ZM64 262H524V130H64V262Z" />
<glyph unicode="&gt;" glyph-name="greater" horiz-adv-x="498" d="M67 86V234L314 323L67 413V561L479 388V259L67 86Z" />
<glyph unicode="?" glyph-name="question" horiz-adv-x="480" d="M126 513Q113 525 105 540T97 577Q97 603 110 626T149 666T213 694T304 704Q413 704 473 661T532 540Q532 504 520 475T487 420T438 374T376 334Q342 315 320 302T283 277T261 253T252 224H135Q130
238 130 261Q130 311 156 346T226 411Q248 427 265 440T295 467T313 496T319 533Q319 559 301 574T238 587L225 513H126ZM164 -12Q141 -12 124 -5T94 15T76 42T70 72Q70 96 78 115T101 149T135 172T178 180Q200 180 217 173T247 153T265 126T272 96Q272 48 241
18T164 -12Z" />
<glyph unicode="@" glyph-name="at" horiz-adv-x="896" d="M415 -155Q323 -155 252 -130T133 -59T60 50T35 189Q35 292 72 382T175 538T329 642T520 680Q607 680 673 655T783 587T851 484T874 356Q874 269 852 208T793 108T710 51T614 33Q554 33 525 54T482 113H476Q442
78 406 60T328 41Q275 41 245 79T215 185Q215 255 237 308T294 399T374 455T466 474Q509 474 536 464T584 440L610 465H711L633 175Q625 147 631 135T661 122Q678 122 699 132T740 169T772 240T785 351Q785 405 770 450T723 529T639 581T515 600Q432 600 361 570T239
485T158 356T129 190Q129 129 145 80T198 -3T290 -56T426 -75Q460 -75 493 -72T557 -64T612 -53T653 -42L641 -115Q596 -132 540 -143T415 -155ZM416 155Q432 155 447 166T472 190L513 352Q508 364 501 374T478 384Q463 384 447 369T417 329T395 269T386 196Q386
174 394 165T416 155Z" />
<glyph unicode="A" glyph-name="A" horiz-adv-x="743" d="M-23 111L33 128L391 693H606L651 128L700 111L672 0H322L350 111L416 128L412 200H236L195 128L252 111L224 0H-51L-23 111ZM298 308H407L400 477H395L298 308Z" />
<glyph unicode="B" glyph-name="B" horiz-adv-x="671" d="M-17 111L51 128L160 565L100 582L128 693H453Q566 693 624 653T683 537Q683 508 676 480T649 428T599 384T518 354V349Q587 335 615 305T644 220Q644 177 627 138T573 68T478 19T339 0H-45L-17 111ZM315
125Q413 125 413 239Q413 297 355 297H317L274 125H315ZM375 406Q415 406 439 434T464 516Q464 544 453 556T415 568H385L344 406H375Z" />
<glyph unicode="C" glyph-name="C" horiz-adv-x="651" d="M323 -13Q180 -13 105 48T30 234Q30 362 76 458T199 616Q256 662 324 683T467 704Q551 704 608 692T695 662L657 457H520L513 548Q501 554 487 558T450 562Q415 562 389 549T342 507Q323 482 308 446T282
370T266 295T260 235Q259 176 282 153T349 129Q371 129 389 134T421 146L472 241H611L553 28Q508 11 450 -1T323 -13Z" />
<glyph unicode="D" glyph-name="D" horiz-adv-x="733" d="M-17 111L51 128L160 565L101 582L129 693H465Q531 693 584 679T674 635T732 559T753 449Q753 359 724 278T641 135T510 37T334 0H-45L-17 111ZM332 133Q368 133 396 145T448 192Q462 211 475 244T498
316T515 392T521 459Q521 516 497 538T426 560H388L281 133H332Z" />
<glyph unicode="E" glyph-name="E" horiz-adv-x="634" d="M-17 111L51 128L160 565L100 582L128 693H693L661 473H535L525 568H385L346 412H381L408 469H508L453 234H359L354 293H316L274 125H425L492 241H621L556 0H-45L-17 111Z" />
<glyph unicode="F" glyph-name="F" horiz-adv-x="640" d="M-17 111L51 128L160 565L100 582L128 693H713L680 455H553L544 561H388L348 401H393L420 460H522L467 225H369L365 281H318L279 126L348 111L320 0H-45L-17 111Z" />
<glyph unicode="G" glyph-name="G" horiz-adv-x="715" d="M337 -12Q189 -12 111 53T32 239Q32 351 74 449T210 621Q264 664 336 684T497 705Q569 705 623 694T706 668L677 459H537L529 549Q518 555 506 558T467 562Q431 562 402 548T351 507Q333 486 317 453T288
381T268 304T260 231Q260 172 286 149T356 126Q370 126 382 128T402 134L425 225L375 240L403 351H716L688 240L638 225L589 28Q545 14 481 1T337 -12Z" />
<glyph unicode="H" glyph-name="H" horiz-adv-x="772" d="M-17 111L51 128L160 565L100 582L128 693H467L439 582L389 567L352 417H507L544 567L501 582L529 693H868L840 582L772 565L663 128L723 111L695 0H356L384 111L434 126L476 293H321L279 126L322 111L294
0H-45L-17 111Z" />
<glyph unicode="I" glyph-name="I" horiz-adv-x="392" d="M-17 111L53 128L162 565L100 582L128 693H488L460 582L390 565L281 128L343 111L315 0H-45L-17 111Z" />
<glyph unicode="J" glyph-name="J" horiz-adv-x="527" d="M118 102Q134 102 148 106T174 124T198 163T220 231L303 565L243 582L271 693H624L596 582L532 565L447 224Q429 152 397 107T326 35T243 -1T158 -11Q104 -11 68 -3T11 21T-20 56T-30 101Q-30 132 -13
157T24 195H136L118 102Z" />
<glyph unicode="K" glyph-name="K" horiz-adv-x="746" d="M-17 111L51 128L160 565L100 582L128 693H468L440 582L389 567L345 393L542 568L500 582L528 693H827L799 582L741 563L537 396L645 126L697 111L669 0H448L353 258L304 229L279 126L328 111L300 0H-45L-17 111Z" />
<glyph unicode="L" glyph-name="L" horiz-adv-x="605" d="M-17 111L51 128L160 565L100 582L128 693H491L463 582L389 567L280 129H393L472 268H605L529 0H-45L-17 111Z" />
<glyph unicode="M" glyph-name="M" horiz-adv-x="952" d="M-17 111L51 128L160 565L100 582L128 693H482L480 311H484L671 693H1048L1020 582L951 565L842 128L903 111L875 0H542L570 111L620 126L715 505H711L451 0H297L293 498H289L196 126L240 111L212 0H-45L-17 111Z" />
<glyph unicode="N" glyph-name="N" horiz-adv-x="733" d="M-17 111L51 128L160 565L100 582L128 693H426L527 312H532L595 565L534 582L562 693H831L803 582L743 565L602 0H397L282 445H277L198 126L261 111L233 0H-45L-17 111Z" />
<glyph unicode="O" glyph-name="O" horiz-adv-x="713" d="M301 -13Q242 -13 192 3T106 52T50 130T30 238Q30 333 61 418T150 566T286 667T459 705Q520 705 570 688T657 639T713 560T733 453Q733 358 701 273T612 125T475 24T301 -13ZM329 126Q382 126 420 188Q437
216 451 252T477 327T494 406T501 484Q501 528 484 547T434 566Q379 566 342 502Q325 473 311 439T285 366T268 287T261 207Q261 163 279 145T329 126Z" />
<glyph unicode="P" glyph-name="P" horiz-adv-x="656" d="M-17 111L51 128L160 565L100 582L128 693H461Q584 693 643 647T703 513Q703 451 682 404T623 324T532 274T416 257Q381 257 357 259T314 267L279 126L350 111L322 0H-45L-17 111ZM342 378Q361 375 385
375Q407 375 425 385T455 412T473 452T480 502Q480 534 463 547T413 560H388L342 378Z" />
<glyph unicode="Q" glyph-name="Q" horiz-adv-x="713" d="M240 -12Q200 1 163 19T96 65T48 135T30 238Q30 333 61 418T150 566T286 667T459 705Q520 705 570 688T657 639T713 560T733 453Q733 293 660 193T456 60V56L659 34L603 -130L240 -12ZM329 123Q383 123
420 184Q437 212 451 248T477 324T494 405T501 484Q501 528 484 547T434 566Q379 566 342 502Q325 473 311 438T285 365T268 285T261 205Q261 161 279 142T329 123Z" />
<glyph unicode="R" glyph-name="R" horiz-adv-x="716" d="M-17 111L52 128L161 564L101 582L129 693H471Q540 693 587 680T664 644T707 589T720 520Q720 445 680 396T563 323V319L629 124L672 111L644 0H432L355 267H316L280 125L328 111L300 0H-45L-17 111ZM400
386Q422 386 438 395T466 421T483 458T489 503Q489 534 473 548T420 563H389L345 386H400Z" />
<glyph unicode="S" glyph-name="S" horiz-adv-x="556" d="M214 -9Q135 -9 73 5T-25 37L12 217H154L159 140Q171 134 184 130T219 126Q307 126 307 189Q307 213 287 230T228 269L203 283Q177 298 155 314T116 352T90 400T80 463Q80 509 96 552T147 628T241 682T383
703Q426 703 459 700T517 693T562 681T596 667L571 501H433L428 558Q417 564 404 567T369 571Q327 571 310 555T293 516Q293 493 311 478T368 442L393 428Q422 412 447 395T492 358T523 311T535 248Q535 191 513 144T450 63T350 10T214 -9Z" />
<glyph unicode="T" glyph-name="T" horiz-adv-x="672" d="M122 111L196 128L305 564H253L199 449H63L130 693H760L711 449H580L579 564H533L424 128L490 111L462 0H94L122 111Z" />
<glyph unicode="U" glyph-name="U" horiz-adv-x="719" d="M344 -12Q206 -12 135 37T64 177Q64 210 73 246L153 565L98 582L126 693H465L437 582L382 567L301 241Q295 218 295 200Q295 158 320 139T386 119Q435 119 459 146T498 230L582 567L534 582L562 693H817L789
582L728 565L641 215Q629 168 611 127T559 55T474 6T344 -12Z" />
<glyph unicode="V" glyph-name="V" horiz-adv-x="719" d="M145 565L98 582L126 693H457L429 582L370 565L385 215H390L572 565L520 582L548 693H817L789 582L734 565L405 0H191L145 565Z" />
<glyph unicode="W" glyph-name="W" horiz-adv-x="995" d="M141 565L98 582L126 693H441L413 582L360 565L346 252H351L558 693H726L720 270H725L855 565L805 582L833 693H1093L1065 582L1013 565L749 0H531L542 384H538L359 0H134L141 565Z" />
<glyph unicode="X" glyph-name="X" horiz-adv-x="703" d="M-17 111L33 124L241 354L152 565L102 582L130 693H466L438 582L396 569L439 442L536 569L499 582L523 693H795L767 582L717 565L515 342L605 128L654 111L626 0H293L321 111L368 123L322 261L216 123L252
111L224 0H-45L-17 111Z" />
<glyph unicode="Y" glyph-name="Y" horiz-adv-x="676" d="M122 111L195 128L232 277L145 565L97 582L125 693H446L418 582L372 568L412 400H416L537 568L498 582L526 693H775L747 582L692 565L457 265L423 128L488 111L460 0H94L122 111Z" />
<glyph unicode="Z" glyph-name="Z" horiz-adv-x="614" d="M-7 137L410 559V563H280L218 458H83L148 693H704L670 556L252 134V130H393L468 259H600L528 0H-41L-7 137Z" />
<glyph unicode="[" glyph-name="bracketleft" horiz-adv-x="361" d="M167 733H461L433 622L330 605L181 8L276 -9L248 -120H-46L167 733Z" />
<glyph unicode="\" glyph-name="backslash" horiz-adv-x="396" d="M128 733H262L320 -120H186L128 733Z" />
<glyph unicode="]" glyph-name="bracketright" horiz-adv-x="361" d="M-41 -9L62 8L211 605L116 622L144 733H438L225 -120H-69L-41 -9Z" />
<glyph unicode="^" glyph-name="asciicircum" horiz-adv-x="444" d="M275 693H393L472 436H358L295 537L182 436H68L275 693Z" />
<glyph unicode="_" glyph-name="underscore" horiz-adv-x="352" d="M-75 -42H285L254 -164H-106L-75 -42Z" />
<glyph unicode="`" glyph-name="grave" horiz-adv-x="500" d="M167 648L237 782L446 665L397 578L167 648Z" />
<glyph unicode="a" glyph-name="a" horiz-adv-x="617" d="M139 -13Q111 -13 87 -5T44 21T15 70T4 145Q4 224 32 295T109 420T220 505T351 537Q383 537 406 528T442 507H447L478 539H636L508 109H583L552 19Q522 5 475 -4T381 -13Q343 -13 330 4T316 48Q316 63
319 80L320 86H315Q278 36 234 12T139 -13ZM250 121Q269 121 289 136T324 168L393 403Q379 420 351 420Q331 420 308 402T266 351T233 271T219 167Q219 121 250 121Z" />
<glyph unicode="b" glyph-name="b" horiz-adv-x="612" d="M243 -13Q193 -13 154 -10T83 1T29 17T-13 38L150 594L90 602L122 712L378 752L394 743L310 458H316Q354 499 395 525T490 551Q549 551 581 511T614 397Q614 307 590 232T519 103T402 18T243 -13ZM263
108Q297 108 322 129T363 184T388 255T397 328Q397 354 389 369T361 385Q342 385 321 372T277 336L211 119Q222 114 232 111T263 108Z" />
<glyph unicode="c" glyph-name="c" horiz-adv-x="493" d="M354 352L368 432Q339 430 313 412T267 362T235 291T223 208Q223 164 242 145T306 126Q325 126 363 132T444 155L417 46Q386 23 339 5T230 -13Q125 -13 68 38T11 182Q11 264 41 332T122 449T242 524T385
551Q464 551 496 525T529 460Q529 444 524 428T510 397T492 370T473 352H354Z" />
<glyph unicode="d" glyph-name="d" horiz-adv-x="634" d="M147 -13Q118 -13 92 -5T47 22T16 71T4 146Q4 232 34 306T116 434T235 520T376 551Q397 551 415 547T449 537L466 597L407 607L437 712L680 751L697 742L525 109H600L569 19Q556 13 537 7T494 -3T446 -10T398
-13Q374 -13 361 -6T340 14T333 42T335 76L336 82H331Q294 35 246 11T147 -13ZM259 126Q268 126 279 130T302 140T324 155T342 173L409 414Q396 430 373 430Q349 430 322 411T273 359T235 279T220 177Q220 148 232 137T259 126Z" />
<glyph unicode="e" glyph-name="e" horiz-adv-x="535" d="M229 -13Q122 -13 67 39T11 184Q11 266 41 334T121 450T236 524T371 551Q412 551 447 543T507 517T547 475T562 415Q562 377 546 343T490 282T383 236T212 207Q213 169 233 148T307 126Q343 126 387 135T473
158L446 49Q409 21 355 4T229 -13ZM340 437Q324 437 307 426T275 396T247 352T225 298Q271 304 299 316T342 343T363 376T368 410Q368 437 340 437Z" />
<glyph unicode="f" glyph-name="f" horiz-adv-x="384" d="M72 515L138 538Q154 594 182 634T248 700T331 738T428 751Q457 751 482 747T526 732T556 705T567 665Q567 638 553 616T525 581H423L433 643Q425 647 413 647Q388 647 371 623T338 539H435L400 418H308L223
81Q187 -62 119 -130T-66 -199Q-90 -199 -111 -195T-149 -180T-175 -152T-185 -111Q-185 -101 -181 -89T-171 -67T-156 -47T-139 -33H-51L-62 -97Q-42 -95 -26 -80T-1 -30L109 418H46L72 515Z" />
<glyph unicode="g" glyph-name="g" horiz-adv-x="521" d="M181 -203Q110 -203 60 -194T-23 -168T-70 -128T-86 -79Q-86 -37 -49 -6T49 45Q44 73 49 97T68 141T98 179T133 212Q93 229 69 261T45 345Q45 404 70 443T132 506T213 540T293 550Q354 550 396 534L594
554L561 438L484 451Q492 438 496 424T501 391Q501 334 477 296T415 234T336 200T256 190Q244 190 233 190T211 192Q207 184 207 174Q207 168 211 164T225 155T252 146T298 135Q350 124 384 111T438 81T466 43T475 -4Q475 -55 454 -92T393 -154T300 -191T181 -203ZM216
-15Q182 -8 159 -3T117 8Q96 -13 96 -38Q96 -49 100 -58T115 -75T146 -86T200 -90Q242 -90 265 -79T289 -50Q289 -35 272 -29T216 -15ZM259 288Q288 288 306 320T325 403Q325 423 317 437T286 451Q257 451 239 420T221 338Q221 318 228 303T259 288Z" />
<glyph unicode="h" glyph-name="h" horiz-adv-x="611" d="M333 -13Q295 -13 270 3T244 49Q244 70 256 88T278 115L342 103Q370 181 388 247T407 347Q407 371 399 381T367 391Q349 391 330 378T287 344L185 0H-15L161 594L101 602L133 712L390 752L406 743L319
455H325Q367 499 410 525T506 551Q559 551 587 515T616 410Q616 372 609 328T587 240T551 152T504 70Q472 23 428 5T333 -13Z" />
<glyph unicode="i" glyph-name="i" horiz-adv-x="340" d="M95 -13Q59 -13 33 1T7 51Q7 65 13 85L116 418H45L73 521L339 550L354 542L222 109H306L275 19Q244 5 197 -4T95 -13ZM258 573Q213 573 185 596T156 660Q156 685 166 704T192 737T229 756T272 763Q317
763 345 740T374 676Q374 650 365 631T339 599T301 580T258 573Z" />
<glyph unicode="j" glyph-name="j" horiz-adv-x="326" d="M-88 -100Q-75 -100 -64 -96T-41 -80T-19 -44T3 18L116 418H45L73 521L339 550L354 542L218 65Q197 -8 165 -58T93 -140T8 -185T-84 -199Q-150 -199 -181 -174T-213 -110Q-213 -84 -200 -64T-172 -33H-76L-88
-100ZM258 573Q213 573 185 596T156 660Q156 685 166 704T192 737T229 756T272 763Q317 763 345 740T374 676Q374 650 365 631T339 599T301 580T258 573Z" />
<glyph unicode="k" glyph-name="k" horiz-adv-x="601" d="M161 594L101 602L133 712L390 752L406 743L185 0H-15L161 594ZM550 418Q528 403 502 378T447 315L506 109H576L545 19Q526 8 496 -2T421 -13Q378 -13 352 11T313 87L280 234L302 308Q350 380 383 426T445
501T500 540T563 551Q595 551 616 539T648 513L621 418H550Z" />
<glyph unicode="l" glyph-name="l" horiz-adv-x="340" d="M95 -13Q59 -13 33 1T7 51Q7 65 13 85L162 594L98 602L130 712L391 752L407 743L222 109H306L275 19Q244 5 197 -4T95 -13Z" />
<glyph unicode="m" glyph-name="m" horiz-adv-x="932" d="M693 -13Q657 -13 631 1T605 51Q605 65 611 85L690 334Q698 360 696 372T678 385Q655 385 632 367T588 327L490 0H290L389 334Q397 360 395 372T377 385Q354 385 331 365T285 322L185 0H-15L110 418H45L73
521L310 550L325 542L296 432H301Q346 489 402 520T508 551Q551 551 579 525T609 441H615Q660 492 709 521T809 551Q828 551 847 546T881 528T906 495T916 445Q916 415 904 375L820 109H898L867 19Q836 5 788 -4T693 -13Z" />
<glyph unicode="n" glyph-name="n" horiz-adv-x="642" d="M403 -13Q367 -13 341 1T315 51Q315 65 321 85L400 334Q408 360 407 372T388 385Q363 385 335 365T283 316L185 0H-15L110 418H45L73 521L310 550L325 542L294 426H299Q345 488 403 519T515 551Q534 551
554 546T590 528T616 495T626 444Q626 415 614 375L530 109H608L577 19Q546 5 498 -4T403 -13Z" />
<glyph unicode="o" glyph-name="o" horiz-adv-x="604" d="M247 -13Q136 -13 74 44T12 202Q12 230 19 266T44 342T88 418T154 485T245 533T364 551Q422 551 466 535T540 491T585 423T600 336Q600 308 593 272T568 196T524 120T457 53T366 5T247 -13ZM268 107Q302
107 325 137T361 208T381 292T387 358Q387 387 377 409T343 431Q320 431 303 417T272 380T249 329T234 273T226 220T223 179Q223 150 233 129T268 107Z" />
<glyph unicode="p" glyph-name="p" horiz-adv-x="623" d="M-107 -98L-39 -84L110 418H45L73 521L310 550L325 542L299 436H304Q346 487 396 519T501 551Q560 551 592 511T625 397Q625 308 602 233T534 104T426 18T284 -13Q274 -13 261 -12T233 -9T206 -4T187 5L161
-84L235 -98L204 -200H-138L-107 -98ZM274 108Q308 108 333 129T374 184T399 255T408 328Q408 354 400 369T372 385Q350 385 331 372T288 336L222 119Q233 114 243 111T274 108Z" />
<glyph unicode="q" glyph-name="q" horiz-adv-x="620" d="M188 -98L268 -84L314 61H309Q280 26 239 7T148 -13Q118 -13 92 -5T46 22T15 71T4 146Q4 232 31 306T111 434T240 520T412 551Q495 551 551 538T641 507L467 -84L529 -98L498 -200H157L188 -98ZM260 126Q284
126 305 139T341 170L414 419Q408 424 399 427T376 430Q352 430 325 411T274 359T236 279T220 177Q220 148 230 137T260 126Z" />
<glyph unicode="r" glyph-name="r" horiz-adv-x="519" d="M110 418H45L73 521L310 550L325 542L292 419H297Q314 447 334 471T378 513T427 541T477 551Q519 551 539 529T559 474Q559 435 540 400T499 339H387L396 396Q367 390 335 361T277 296L185 0H-15L110 418Z" />
<glyph unicode="s" glyph-name="s" horiz-adv-x="463" d="M173 -13Q135 -13 100 -7T38 13T-5 46T-21 93Q-21 109 -16 122T-4 146T11 164T25 174H146L131 110Q139 107 151 104T180 101Q216 101 231 112T246 143Q246 162 231 175T175 207Q150 218 129 232T93 264T68
305T59 357Q59 397 77 432T129 494T207 536T308 551Q347 551 380 545T437 526T475 495T489 452Q489 429 477 409T450 374H333L344 431Q326 441 299 441Q268 441 255 429T242 398Q242 387 246 380T260 365T288 349T333 327Q356 316 375 304T407 277T428 241T436
193Q436 142 416 104T360 39T276 0T173 -13Z" />
<glyph unicode="t" glyph-name="t" horiz-adv-x="378" d="M72 515L144 538L180 658H372L339 539H435L400 418H306L233 152Q227 131 233 121T263 111Q280 111 294 113T328 120L295 15Q269 4 232 -4T136 -13Q81 -13 49 8T17 77Q17 101 26 133L109 418H46L72 515Z" />
<glyph unicode="u" glyph-name="u" horiz-adv-x="637" d="M129 -13Q108 -13 88 -8T53 9T28 40T18 89Q18 121 31 163L106 418H45L73 521L329 550L344 542L242 196Q234 170 235 156T254 141Q279 141 302 158T349 195L455 539H655L527 109H603L572 19Q542 5 494 -4T400
-13Q364 -13 349 3T334 47Q334 66 340 90L341 94H336Q291 44 237 16T129 -13Z" />
<glyph unicode="v" glyph-name="v" horiz-adv-x="561" d="M82 0Q90 126 94 233T99 418H32L60 521Q98 535 134 543T207 551Q251 551 274 532T297 464Q297 389 293 321T280 180H284Q305 205 326 234T368 293T405 356T434 418H362L390 513Q419 532 449 541T517 551Q548
551 570 535T592 484Q592 448 577 406T536 319T477 229T407 141T333 63T262 0H82V0Z" />
<glyph unicode="w" glyph-name="w" horiz-adv-x="837" d="M82 0Q90 126 94 233T99 418H32L60 521Q98 535 134 543T207 551Q249 551 272 532T295 464Q295 388 291 323T278 188H282Q311 224 341 265T399 352Q399 369 399 385T400 418H337L365 521Q403 535 430 543T493
551Q537 551 560 532T583 464Q583 385 579 321T564 188H568Q587 209 608 236T648 294T683 355T711 418H643L671 513Q700 532 728 541T794 551Q825 551 846 535T867 481Q867 426 836 361T757 230T649 104T533 0H380L392 185Q322 83 245 0H82V0Z" />
<glyph unicode="x" glyph-name="x" horiz-adv-x="575" d="M56 -13Q29 -13 12 -6T-15 12T-29 37T-33 64Q-33 82 -28 94T-18 115L64 105Q95 134 126 176T183 265L128 418H61L89 521L290 550L305 542L350 374Q370 413 390 446T431 502T478 538T533 551Q560 551 577
545T603 528T617 506T621 480Q621 462 613 443T600 415L520 424Q490 395 461 353T407 264L462 109H545L514 19Q485 2 454 -5T376 -13Q349 -13 329 -8T293 12T267 52T248 117L240 158Q220 120 200 89T158 35T111 0T56 -13Z" />
<glyph unicode="y" glyph-name="y" horiz-adv-x="561" d="M26 -84Q51 -79 73 -67T113 -44Q114 -21 114 0T114 45Q114 103 113 158T108 262T102 351T95 418H30L58 521Q93 534 128 542T199 551Q243 551 263 535T291 481Q296 449 298 407T301 320Q301 270 299 220T294
122H298Q322 158 344 198T385 277T417 353T435 418H363L391 513Q417 530 447 540T515 551Q544 551 564 534T585 471Q585 415 561 346T496 206T402 69T291 -49Q206 -123 133 -161T-7 -199Q-40 -199 -61 -193T-96 -174T-116 -145T-122 -107Q-122 -78 -107 -54T-76
-18H40L26 -84Z" />
<glyph unicode="z" glyph-name="z" horiz-adv-x="544" d="M82 -9Q28 -8 2 12T-25 61Q-25 90 -6 113T41 158L282 353Q247 371 219 393T177 428L153 349H61Q56 357 53 368T49 391Q49 428 62 457T97 508T150 540T215 551Q268 551 321 533T429 481L469 548Q488 547
506 544T539 533T562 515T571 489Q571 463 557 443T510 398L244 187Q292 179 329 168T399 146L396 210H517Q515 166 502 126T467 54T413 5T341 -13Q314 -13 284 -4T225 18T171 46T126 73H121L82 -9V-9Z" />
<glyph unicode="{" glyph-name="braceleft" horiz-adv-x="405" d="M292 -120Q224 -116 178 -106T103 -78T62 -39T49 13Q49 40 59 67T83 119T106 165T117 201Q117 221 100 233T35 255L68 383Q97 386 117 390T149 402T169 418T180 439Q184 454 184 478Q184 492 184
506T183 537Q183 562 186 586T201 633Q214 658 237 676T297 706T385 724T505 733L477 622Q425 616 405 600T378 560Q375 549 373 531T368 493T364 455T359 426Q347 378 309 355T203 316V311Q251 295 276 275T301 215Q301 198 293 175T276 127T258 80T250 42Q250
22 265 10T320 -9L292 -120V-120Z" />
<glyph unicode="|" glyph-name="bar" horiz-adv-x="260" d="M79 733H211V-120H79V733Z" />
<glyph unicode="}" glyph-name="braceright" horiz-adv-x="405" d="M-41 -9Q11 -3 31 13T58 53Q61 64 63 82T68 120T72 158T77 187Q83 211 95 228T127 257T173 279T233 297V302Q185 318 160 338T135 398Q135 415 143 438T160 486T178 533T186 571Q186 591 171
603T116 622L144 733Q211 729 257 719T333 691T374 651T387 600Q387 573 377 546T353 494T330 448T319 412Q319 392 336 380T401 358L368 230Q339 227 319 223T287 211T267 195T256 174Q252 159 252 135Q252 121 252 107T253 76Q253 51 250 27T235 -20Q222 -45
199 -63T139 -93T51 -111T-69 -120L-41 -9Z" />
<glyph unicode="~" glyph-name="asciitilde" horiz-adv-x="500" d="M23 275Q59 333 104 369T203 406Q226 406 246 400T284 386T317 372T348 366Q370 366 388 378T423 411L509 339Q474 281 428 245T328 208Q305 208 285 214T247 227T214 241T183 248Q161 248 143
236T108 203L23 275Z" />
<glyph unicode="&#xa0;" glyph-name="uni00A0" horiz-adv-x="165" />
<glyph unicode="&#xa1;" glyph-name="exclamdown" horiz-adv-x="282" d="M106 349H240L159 -120H-59L106 349ZM195 393Q172 393 155 400T125 420T107 447T101 477Q101 525 132 555T208 585Q230 585 248 578T278 558T296 531T303 501Q303 477 295 458T272 424T237
401T195 393Z" />
<glyph unicode="&#xa2;" glyph-name="cent" horiz-adv-x="553" d="M181 -8Q102 6 57 54T11 180Q11 277 57 351T178 475Q223 505 276 524T390 549L415 615H511L486 548Q545 540 568 516T592 460Q592 444 587 428T573 397T555 370T536 352H446L459 435L444 438L323
114Q361 115 406 123T489 145L459 38Q428 18 384 5T275 -12L235 -120H139L181 -8ZM212 200Q212 180 217 164T235 136L343 423Q313 408 289 384T247 329T221 265T212 200Z" />
<glyph unicode="&#xa3;" glyph-name="sterling" horiz-adv-x="560" d="M324 391H487L458 272H293Q278 218 251 193T184 151L183 147H513L461 0H-39L-10 115Q25 129 51 155T88 237L94 272H37L66 391H115L127 460Q149 585 229 644T434 704Q537 704 583 672T629 592Q629
563 612 540T580 503H461L473 575H471Q422 575 391 552T344 467L324 391Z" />
<glyph unicode="&#xa5;" glyph-name="yen" horiz-adv-x="663" d="M111 392H214L144 565L97 582L125 693H453L425 582L381 570L423 431H427L528 570L491 582L519 693H762L734 582L678 565L528 392H639L616 300H463L451 252H604L581 160H428L420 128L485 111L457
0H97L125 111L198 128L206 160H53L76 252H228L240 300H88L111 392Z" />
<glyph unicode="&#xa6;" glyph-name="brokenbar" horiz-adv-x="260" d="M79 279H211V-120H79V279ZM79 733H211V371H79V733Z" />
<glyph unicode="&#xa7;" glyph-name="section" horiz-adv-x="573" d="M192 -132Q121 -132 73 -120T-5 -94L24 47H148L153 -4Q161 -9 172 -11T206 -14Q241 -14 256 -1T271 34Q271 49 258 58T214 81L156 105Q90 133 58 167T25 251Q25 317 64 351T179 399Q154 420
141 446T127 509Q127 601 200 653T405 705Q476 705 524 692T602 662L566 529H445L442 572Q435 578 424 583T388 589Q362 589 343 578T324 543Q324 526 335 516T380 492L438 468Q503 442 536 409T569 324Q568 255 528 221T415 173Q440 153 453 130T467 74Q467 29
449 -9T395 -74T308 -116T192 -132ZM274 343Q220 337 220 300Q220 285 233 275T270 253L318 229Q374 236 374 275Q374 286 366 294T337 313L274 343Z" />
<glyph unicode="&#xa8;" glyph-name="dieresis" horiz-adv-x="500" d="M248 578Q208 578 183 599T158 657Q158 679 166 696T189 726T222 744T261 750Q302 750 326 729T351 671Q351 648 343 631T320 602T288 584T248 578ZM467 578Q427 578 402 599T377 657Q377
679 385 696T408 726T441 744T480 750Q521 750 545 729T570 671Q570 648 562 631T539 602T507 584T467 578Z" />
<glyph unicode="&#xa9;" glyph-name="copyright" horiz-adv-x="768" d="M408 -14Q333 -14 268 14T156 91T81 205T54 344Q54 418 81 483T155 596T268 672T408 700Q483 700 548 672T661 596T736 483T764 344Q764 270 737 205T661 91T548 14T408 -14ZM408 61Q468
61 517 84T602 145T658 234T678 344Q678 402 658 453T603 542T518 602T408 625Q348 625 299 603T214 542T160 453T140 344Q140 286 159 235T214 145T298 84T408 61ZM415 158Q374 158 340 168T280 201T240 260T225 346Q225 398 241 434T285 492T349 525T425 535Q462
535 496 531T547 519L551 400H464L450 444Q443 447 438 448T422 450Q405 450 395 444T379 425T372 396T370 356Q370 319 372 297T381 264T397 249T425 245Q445 245 456 252L470 296H555L550 180Q530 171 497 165T415 158Z" />
<glyph unicode="&#xaa;" glyph-name="ordfeminine" horiz-adv-x="551" d="M170 218Q146 218 124 225T86 249T61 292T51 356Q51 422 76 483T142 590T238 663T352 691Q379 691 399 684T430 665H434L461 692H597L499 333H563L533 245Q507 235 466 227T385 218Q344
218 332 240T325 296H321Q284 256 248 237T170 218ZM276 342Q292 342 306 353T332 382L385 564Q373 579 349 579Q332 579 314 563T281 519T257 454T247 377Q247 357 255 350T276 342Z" />
<glyph unicode="&#xab;" glyph-name="guillemotleft" horiz-adv-x="501" d="M232 231L244 282L389 455H529L398 245L433 50H303L232 231ZM14 231L26 282L171 455H311L180 245L215 50H85L14 231Z" />
<glyph unicode="&#xae;" glyph-name="registered" horiz-adv-x="486" d="M301 263Q253 263 212 280T141 327T94 397T77 482Q77 527 94 567T141 636T212 683T301 700Q348 700 389 683T460 637T508 567T526 482Q526 437 509 397T461 327T389 280T301 263ZM301 314Q338
314 369 327T422 363T456 416T469 482Q469 517 457 547T422 600T369 636T301 649Q264 649 233 636T180 601T146 548T134 482Q134 447 146 417T180 363T233 327T301 314ZM195 425L211 431V539L195 543V584H315Q359 584 379 566T400 521Q400 502 393 493T372 479V477L401
429L413 425V385H341L302 457H291V430L301 425V385H195V425ZM305 497Q323 497 323 516Q323 537 304 537H291V497H305Z" />
<glyph unicode="&#xaf;" glyph-name="macron" horiz-adv-x="500" d="M224 716H512L482 594H194L224 716Z" />
<glyph unicode="&#xb0;" glyph-name="degree" horiz-adv-x="385" d="M259 381Q223 381 194 393T145 426T113 474T101 530Q101 567 115 598T152 653T207 689T275 702Q310 702 339 690T388 657T420 609T432 553Q432 517 418 486T381 431T326 394T259 381ZM262 460Q298
460 318 485T339 550Q339 579 324 601T272 623Q236 623 216 598T195 533Q195 506 210 483T262 460Z" />
<glyph unicode="&#xb4;" glyph-name="acute" horiz-adv-x="500" d="M178 665L415 782L454 642L201 578L178 665Z" />
<glyph unicode="&#xb6;" glyph-name="paragraph" horiz-adv-x="624" d="M257 314Q255 313 252 313H238Q204 313 175 323T123 352T89 400T76 465Q76 520 96 562T152 634T238 678T351 693H720L692 582L625 565L454 -120H337L509 570H438L266 -120H149L257 314Z" />
<glyph unicode="&#xb7;" glyph-name="periodcentered" horiz-adv-x="267" d="M151 237Q127 237 109 244T78 265T59 294T52 328Q52 352 60 372T84 408T119 431T163 440Q187 440 205 432T236 412T255 383T262 351Q262 300 231 269T151 237Z" />
<glyph unicode="&#xb8;" glyph-name="cedilla" horiz-adv-x="500" d="M80 -162Q138 -157 163 -149T188 -122Q188 -110 175 -103T123 -93L146 0H222L213 -38Q273 -41 296 -59T320 -107Q320 -163 259 -190T64 -223L80 -162Z" />
<glyph unicode="&#xba;" glyph-name="ordmasculine" horiz-adv-x="527" d="M269 218Q174 218 118 267T62 403Q62 429 69 461T91 527T129 592T187 648T264 688T364 703Q413 703 452 690T517 651T558 592T572 518Q572 493 565 461T543 396T504 331T447 274T369 234T269
218ZM289 334Q311 334 328 357T358 413T376 478T382 531Q382 587 344 587Q321 587 304 564T276 508T258 441T252 387Q252 334 289 334Z" />
<glyph unicode="&#xbb;" glyph-name="guillemotright" horiz-adv-x="500" d="M324 260L289 455H419L490 274L478 223L333 50H193L324 260ZM106 260L71 455H201L272 274L260 223L115 50H-25L106 260Z" />
<glyph unicode="&#xbc;" glyph-name="onequarter" horiz-adv-x="909" d="M73 358L132 369L180 560L112 556L131 631L293 704H379L296 369L352 358L333 282H54L73 358ZM737 713H847L218 -40H108L737 713ZM648 95H468L487 173L752 419H881L821 180H870L849 95H800L776
0H624L648 95ZM669 180L693 275H690L600 183V180H669Z" />
<glyph unicode="&#xbd;" glyph-name="onehalf" horiz-adv-x="948" d="M73 358L132 369L180 560L112 556L131 631L293 704H379L296 369L352 358L333 282H54L73 358ZM737 713H847L218 -40H108L737 713ZM542 88L650 167Q709 209 734 238T760 292Q760 323 726 323Q719
323 711 322T697 318L684 266H608Q595 275 590 290T585 316Q585 337 596 356T630 391T686 415T764 425Q839 425 884 396T929 310Q929 257 891 216T768 132L714 105V102H885L850 0H520L542 88Z" />
<glyph unicode="&#xbe;" glyph-name="threequarters" horiz-adv-x="942" d="M210 277Q147 277 111 287T55 312L76 397Q94 390 119 384T177 377Q207 377 226 388T246 424Q245 452 199 452H149L170 538H215Q250 538 268 547T287 579Q287 594 277 603T247 613Q236
613 230 612T218 608L211 571H135Q115 586 115 611Q115 630 125 647T157 678T212 698T293 706Q362 706 397 679T433 609Q433 584 425 566T403 536T369 515T326 501V498Q371 491 393 472T415 414Q415 382 399 357T355 314T290 287T210 277ZM764 713H874L245 -40H135L764
713ZM681 95H501L520 173L785 419H914L854 180H903L882 95H833L809 0H657L681 95ZM702 180L726 275H723L633 183V180H702Z" />
<glyph unicode="&#xbf;" glyph-name="questiondown" horiz-adv-x="480" d="M276 60H375Q388 48 396 33T404 -4Q404 -30 391 -53T352 -93T288 -121T197 -131Q88 -131 28 -88T-31 33Q-31 69 -19 98T14 153T63 199T125 239Q159 258 181 271T218 296T240 320T249 349H366Q371
335 371 312Q371 262 345 227T275 162Q253 146 236 133T206 106T188 77T182 40Q182 13 199 -2T262 -14L276 60ZM323 393Q300 393 283 400T253 420T235 447T229 477Q229 525 260 555T337 585Q359 585 376 578T406 558T424 531T431 501Q431 477 423 458T400 424T365
401T323 393Z" />
<glyph unicode="&#xc0;" glyph-name="Agrave" horiz-adv-x="743" d="M-23 111L33 128L391 693H606L651 128L700 111L672 0H322L350 111L416 128L412 200H236L195 128L252 111L224 0H-51L-23 111ZM298 308H407L400 477H395L298 308ZM367 777L429 914L645 810L601
720L367 777Z" />
<glyph unicode="&#xc1;" glyph-name="Aacute" horiz-adv-x="743" d="M-23 111L33 128L391 693H606L651 128L700 111L672 0H322L350 111L416 128L412 200H236L195 128L252 111L224 0H-51L-23 111ZM298 308H407L400 477H395L298 308ZM377 810L620 913L651 771L395
722L377 810Z" />
<glyph unicode="&#xc2;" glyph-name="Acircumflex" horiz-adv-x="743" d="M-23 111L33 128L391 693H606L651 128L700 111L672 0H322L350 111L416 128L412 200H236L195 128L252 111L224 0H-51L-23 111ZM298 308H407L400 477H395L298 308ZM337 777L486 899H582L669
769L620 720L514 772L372 720L337 777Z" />
<glyph unicode="&#xc3;" glyph-name="Atilde" horiz-adv-x="743" d="M-23 111L33 128L391 693H606L651 128L700 111L672 0H322L350 111L416 128L412 200H236L195 128L252 111L224 0H-51L-23 111ZM298 308H407L400 477H395L298 308ZM327 782Q356 827 395 857T479
887Q496 887 510 883T538 873T562 863T586 858Q620 858 646 889L713 836Q685 791 646 761T561 731Q544 731 530 735T502 745T478 755T454 760Q420 760 394 729L327 782Z" />
<glyph unicode="&#xc4;" glyph-name="Adieresis" horiz-adv-x="743" d="M-23 111L33 128L391 693H606L651 128L700 111L672 0H322L350 111L416 128L412 200H236L195 128L252 111L224 0H-51L-23 111ZM298 308H407L400 477H395L298 308ZM401 726Q361 726 336 747T311
805Q311 827 319 844T342 874T375 892T414 898Q455 898 479 877T504 819Q504 796 496 779T473 750T441 732T401 726ZM620 726Q580 726 555 747T530 805Q530 827 538 844T561 874T594 892T633 898Q674 898 698 877T723 819Q723 796 715 779T692 750T660 732T620
726Z" />
<glyph unicode="&#xc5;" glyph-name="Aring" horiz-adv-x="743" d="M-23 111L33 128L391 693H606L651 128L700 111L672 0H322L350 111L416 128L412 200H236L195 128L252 111L224 0H-51L-23 111ZM298 308H407L400 477H395L298 308ZM505 711Q478 711 457 719T420
743T397 777T388 820Q388 846 398 868T426 906T467 932T518 942Q572 942 603 911T634 835Q634 809 624 786T597 747T556 721T505 711ZM508 777Q530 777 543 791T557 833Q557 850 547 863T514 876Q492 876 479 862T465 822Q465 803 475 790T508 777Z" />
<glyph unicode="&#xc6;" glyph-name="AE" horiz-adv-x="1001" d="M-23 111L35 129L438 576L373 582L401 693H1060L1028 473H902L892 568H752L713 412H748L775 469H875L820 234H726L721 293H683L641 125H792L859 241H988L923 0H322L350 111L418 128L434 192H253L200
129L275 111L247 0H-51L-23 111ZM461 300L509 492L345 300H461Z" />
<glyph unicode="&#xc7;" glyph-name="Ccedilla" horiz-adv-x="651" d="M164 -162Q222 -157 247 -149T272 -122Q272 -110 259 -103T207 -93L229 -5Q131 13 81 72T30 234Q30 362 76 458T199 616Q256 662 324 683T467 704Q551 704 608 692T695 662L657 457H520L513
548Q501 554 487 558T450 562Q415 562 389 549T342 507Q323 482 308 446T282 370T266 295T260 235Q259 176 282 153T349 129Q371 129 389 134T421 146L472 241H611L553 28Q508 11 450 -1T323 -13H303L297 -38Q357 -41 380 -59T404 -107Q404 -163 343 -190T148 -223L164
-162Z" />
<glyph unicode="&#xc8;" glyph-name="Egrave" horiz-adv-x="634" d="M-17 111L51 128L160 565L100 582L128 693H693L661 473H535L525 568H385L346 412H381L408 469H508L453 234H359L354 293H316L274 125H425L492 241H621L556 0H-45L-17 111ZM293 777L355 914L571
810L527 720L293 777Z" />
<glyph unicode="&#xc9;" glyph-name="Eacute" horiz-adv-x="634" d="M-17 111L51 128L160 565L100 582L128 693H693L661 473H535L525 568H385L346 412H381L408 469H508L453 234H359L354 293H316L274 125H425L492 241H621L556 0H-45L-17 111ZM311 810L554 913L585
771L329 722L311 810Z" />
<glyph unicode="&#xca;" glyph-name="Ecircumflex" horiz-adv-x="634" d="M-17 111L51 128L160 565L100 582L128 693H693L661 473H535L525 568H385L346 412H381L408 469H508L453 234H359L354 293H316L274 125H425L492 241H621L556 0H-45L-17 111ZM267 777L416
899H512L599 769L550 720L444 772L302 720L267 777Z" />
<glyph unicode="&#xcb;" glyph-name="Edieresis" horiz-adv-x="634" d="M-17 111L51 128L160 565L100 582L128 693H693L661 473H535L525 568H385L346 412H381L408 469H508L453 234H359L354 293H316L274 125H425L492 241H621L556 0H-45L-17 111ZM332 726Q292 726
267 747T242 805Q242 827 250 844T273 874T306 892T345 898Q386 898 410 877T435 819Q435 796 427 779T404 750T372 732T332 726ZM551 726Q511 726 486 747T461 805Q461 827 469 844T492 874T525 892T564 898Q605 898 629 877T654 819Q654 796 646 779T623 750T591
732T551 726Z" />
<glyph unicode="&#xcc;" glyph-name="Igrave" horiz-adv-x="392" d="M-17 111L53 128L162 565L100 582L128 693H488L460 582L390 565L281 128L343 111L315 0H-45L-17 111ZM430 777L492 914L708 810L664 720L430 777Z" />
<glyph unicode="&#xcd;" glyph-name="Iacute" horiz-adv-x="392" d="M-17 111L53 128L162 565L100 582L128 693H488L460 582L390 565L281 128L343 111L315 0H-45L-17 111ZM444 810L687 913L718 771L462 722L444 810Z" />
<glyph unicode="&#xce;" glyph-name="Icircumflex" horiz-adv-x="392" d="M-17 111L53 128L162 565L100 582L128 693H488L460 582L390 565L281 128L343 111L315 0H-45L-17 111ZM408 777L557 899H653L740 769L691 720L585 772L443 720L408 777Z" />
<glyph unicode="&#xcf;" glyph-name="Idieresis" horiz-adv-x="392" d="M-17 111L53 128L162 565L100 582L128 693H488L460 582L390 565L281 128L343 111L315 0H-45L-17 111ZM476 726Q436 726 411 747T386 805Q386 827 394 844T417 874T450 892T489 898Q530 898
554 877T579 819Q579 796 571 779T548 750T516 732T476 726ZM695 726Q655 726 630 747T605 805Q605 827 613 844T636 874T669 892T708 898Q749 898 773 877T798 819Q798 796 790 779T767 750T735 732T695 726Z" />
<glyph unicode="&#xd0;" glyph-name="Eth" horiz-adv-x="730" d="M68 423H124L160 565L101 582L129 693H465Q531 693 583 679T673 635T730 559T750 449Q750 359 722 278T640 135T509 37T334 0H-45L-17 111L51 128L91 289H35L68 423ZM332 133Q368 133 396 145T448
192Q462 211 475 244T498 316T515 392T521 459Q521 516 497 538T426 560H388L353 423H453L420 289H320L281 133H332Z" />
<glyph unicode="&#xd1;" glyph-name="Ntilde" horiz-adv-x="733" d="M-17 111L51 128L160 565L100 582L128 693H426L527 312H532L595 565L534 582L562 693H831L803 582L743 565L602 0H397L282 445H277L198 126L261 111L233 0H-45L-17 111ZM322 782Q351 827 390
857T474 887Q491 887 505 883T533 873T557 863T581 858Q615 858 641 889L708 836Q680 791 641 761T556 731Q539 731 525 735T497 745T473 755T449 760Q415 760 389 729L322 782Z" />
<glyph unicode="&#xd2;" glyph-name="Ograve" horiz-adv-x="713" d="M301 -13Q242 -13 192 3T106 52T50 130T30 238Q30 333 61 418T150 566T286 667T459 705Q520 705 570 688T657 639T713 560T733 453Q733 358 701 273T612 125T475 24T301 -13ZM329 126Q382 126
420 188Q437 216 451 252T477 327T494 406T501 484Q501 528 484 547T434 566Q379 566 342 502Q325 473 311 439T285 366T268 287T261 207Q261 163 279 145T329 126ZM331 777L393 914L609 810L565 720L331 777Z" />
<glyph unicode="&#xd3;" glyph-name="Oacute" horiz-adv-x="713" d="M301 -13Q242 -13 192 3T106 52T50 130T30 238Q30 333 61 418T150 566T286 667T459 705Q520 705 570 688T657 639T713 560T733 453Q733 358 701 273T612 125T475 24T301 -13ZM329 126Q382 126
420 188Q437 216 451 252T477 327T494 406T501 484Q501 528 484 547T434 566Q379 566 342 502Q325 473 311 439T285 366T268 287T261 207Q261 163 279 145T329 126ZM349 810L592 913L623 771L367 722L349 810Z" />
<glyph unicode="&#xd4;" glyph-name="Ocircumflex" horiz-adv-x="713" d="M301 -13Q242 -13 192 3T106 52T50 130T30 238Q30 333 61 418T150 566T286 667T459 705Q520 705 570 688T657 639T713 560T733 453Q733 358 701 273T612 125T475 24T301 -13ZM329 126Q382
126 420 188Q437 216 451 252T477 327T494 406T501 484Q501 528 484 547T434 566Q379 566 342 502Q325 473 311 439T285 366T268 287T261 207Q261 163 279 145T329 126ZM305 777L454 899H550L637 769L588 720L482 772L340 720L305 777Z" />
<glyph unicode="&#xd5;" glyph-name="Otilde" horiz-adv-x="713" d="M301 -13Q242 -13 192 3T106 52T50 130T30 238Q30 333 61 418T150 566T286 667T459 705Q520 705 570 688T657 639T713 560T733 453Q733 358 701 273T612 125T475 24T301 -13ZM329 126Q382 126
420 188Q437 216 451 252T477 327T494 406T501 484Q501 528 484 547T434 566Q379 566 342 502Q325 473 311 439T285 366T268 287T261 207Q261 163 279 145T329 126ZM291 782Q320 827 359 857T443 887Q460 887 474 883T502 873T526 863T550 858Q584 858 610 889L677
836Q649 791 610 761T525 731Q508 731 494 735T466 745T442 755T418 760Q384 760 358 729L291 782Z" />
<glyph unicode="&#xd6;" glyph-name="Odieresis" horiz-adv-x="713" d="M301 -13Q242 -13 192 3T106 52T50 130T30 238Q30 333 61 418T150 566T286 667T459 705Q520 705 570 688T657 639T713 560T733 453Q733 358 701 273T612 125T475 24T301 -13ZM329 126Q382
126 420 188Q437 216 451 252T477 327T494 406T501 484Q501 528 484 547T434 566Q379 566 342 502Q325 473 311 439T285 366T268 287T261 207Q261 163 279 145T329 126ZM370 726Q330 726 305 747T280 805Q280 827 288 844T311 874T344 892T383 898Q424 898 448
877T473 819Q473 796 465 779T442 750T410 732T370 726ZM589 726Q549 726 524 747T499 805Q499 827 507 844T530 874T563 892T602 898Q643 898 667 877T692 819Q692 796 684 779T661 750T629 732T589 726Z" />
<glyph unicode="&#xd7;" glyph-name="multiply" horiz-adv-x="544" d="M67 187L206 329L67 471L155 559L293 418L431 559L519 471L380 329L519 187L431 99L293 240L155 99L67 187Z" />
<glyph unicode="&#xd8;" glyph-name="Oslash" horiz-adv-x="713" d="M301 -13Q201 -13 133 31L66 -40L-3 12L72 90Q52 119 41 156T30 238Q30 333 61 418T150 566T286 667T459 705Q553 705 621 665L678 725L747 673L685 608Q733 546 733 453Q733 358 701 273T612
125T475 24T301 -13ZM325 126Q354 126 378 140T423 185Q452 230 474 293T505 420L259 162Q275 126 325 126ZM338 505Q310 460 288 403T257 284L498 537Q481 566 437 566Q408 566 383 551T338 505Z" />
<glyph unicode="&#xd9;" glyph-name="Ugrave" horiz-adv-x="719" d="M344 -12Q206 -12 135 37T64 177Q64 210 73 246L153 565L98 582L126 693H465L437 582L382 567L301 241Q295 218 295 200Q295 158 320 139T386 119Q435 119 459 146T498 230L582 567L534 582L562
693H817L789 582L728 565L641 215Q629 168 611 127T559 55T474 6T344 -12ZM370 777L432 914L648 810L604 720L370 777Z" />
<glyph unicode="&#xda;" glyph-name="Uacute" horiz-adv-x="719" d="M344 -12Q206 -12 135 37T64 177Q64 210 73 246L153 565L98 582L126 693H465L437 582L382 567L301 241Q295 218 295 200Q295 158 320 139T386 119Q435 119 459 146T498 230L582 567L534 582L562
693H817L789 582L728 565L641 215Q629 168 611 127T559 55T474 6T344 -12ZM388 810L631 913L662 771L406 722L388 810Z" />
<glyph unicode="&#xdb;" glyph-name="Ucircumflex" horiz-adv-x="719" d="M344 -12Q206 -12 135 37T64 177Q64 210 73 246L153 565L98 582L126 693H465L437 582L382 567L301 241Q295 218 295 200Q295 158 320 139T386 119Q435 119 459 146T498 230L582 567L534
582L562 693H817L789 582L728 565L641 215Q629 168 611 127T559 55T474 6T344 -12ZM344 777L493 899H589L676 769L627 720L521 772L379 720L344 777Z" />
<glyph unicode="&#xdc;" glyph-name="Udieresis" horiz-adv-x="719" d="M344 -12Q206 -12 135 37T64 177Q64 210 73 246L153 565L98 582L126 693H465L437 582L382 567L301 241Q295 218 295 200Q295 158 320 139T386 119Q435 119 459 146T498 230L582 567L534 582L562
693H817L789 582L728 565L641 215Q629 168 611 127T559 55T474 6T344 -12ZM399 726Q359 726 334 747T309 805Q309 827 317 844T340 874T373 892T412 898Q453 898 477 877T502 819Q502 796 494 779T471 750T439 732T399 726ZM618 726Q578 726 553 747T528 805Q528
827 536 844T559 874T592 892T631 898Q672 898 696 877T721 819Q721 796 713 779T690 750T658 732T618 726Z" />
<glyph unicode="&#xdd;" glyph-name="Yacute" horiz-adv-x="676" d="M122 111L195 128L232 277L145 565L97 582L125 693H446L418 582L372 568L412 400H416L537 568L498 582L526 693H775L747 582L692 565L457 265L423 128L488 111L460 0H94L122 111ZM361 810L604
913L635 771L379 722L361 810Z" />
<glyph unicode="&#xde;" glyph-name="Thorn" horiz-adv-x="658" d="M-17 111L51 128L160 565L100 582L128 693H472L444 582L389 567L383 541H437Q505 541 550 530T622 498T660 448T671 381Q671 280 602 222T395 163Q333 163 291 174L279 126L350 111L322 0H-45L-17
111ZM319 285Q330 283 342 282T366 281Q411 281 430 304T449 372Q449 397 435 407T391 418H352L319 285Z" />
<glyph unicode="&#xdf;" glyph-name="germandbls" horiz-adv-x="663" d="M-62 -97Q-42 -95 -26 -80T-1 -30L134 521Q149 582 174 625T237 697T326 738T446 751Q500 751 542 739T612 707T654 661T669 605Q669 578 657 555T626 512T586 476T546 445T516 418T503
395Q503 380 520 364T561 328Q574 317 588 302T615 268T635 227T643 179Q643 138 627 103T582 42T511 2T421 -13Q346 -13 303 8T260 82Q260 95 264 107T274 130T286 148T298 159H385L376 105Q381 101 391 99T411 97Q433 97 443 109T453 140Q453 160 439 176T388
225Q363 247 346 273T329 332Q329 355 339 378T364 425T397 472T430 516T455 555T465 587Q465 625 421 625Q408 625 396 622T373 608T353 580T337 534L223 81Q187 -62 119 -130T-66 -199Q-90 -199 -111 -195T-149 -180T-175 -152T-185 -111Q-185 -101 -181 -89T-171
-67T-156 -47T-139 -33H-51L-62 -97Z" />
<glyph unicode="&#xe0;" glyph-name="agrave" horiz-adv-x="617" d="M139 -13Q111 -13 87 -5T44 21T15 70T4 145Q4 224 32 295T109 420T220 505T351 537Q383 537 406 528T442 507H447L478 539H636L508 109H583L552 19Q522 5 475 -4T381 -13Q343 -13 330 4T316
48Q316 63 319 80L320 86H315Q278 36 234 12T139 -13ZM250 121Q269 121 289 136T324 168L393 403Q379 420 351 420Q331 420 308 402T266 351T233 271T219 167Q219 121 250 121ZM256 648L326 782L535 665L486 578L256 648Z" />
<glyph unicode="&#xe1;" glyph-name="aacute" horiz-adv-x="617" d="M139 -13Q111 -13 87 -5T44 21T15 70T4 145Q4 224 32 295T109 420T220 505T351 537Q383 537 406 528T442 507H447L478 539H636L508 109H583L552 19Q522 5 475 -4T381 -13Q343 -13 330 4T316
48Q316 63 319 80L320 86H315Q278 36 234 12T139 -13ZM250 121Q269 121 289 136T324 168L393 403Q379 420 351 420Q331 420 308 402T266 351T233 271T219 167Q219 121 250 121ZM267 665L504 782L543 642L290 578L267 665Z" />
<glyph unicode="&#xe2;" glyph-name="acircumflex" horiz-adv-x="617" d="M139 -13Q111 -13 87 -5T44 21T15 70T4 145Q4 224 32 295T109 420T220 505T351 537Q383 537 406 528T442 507H447L478 539H636L508 109H583L552 19Q522 5 475 -4T381 -13Q343 -13 330 4T316
48Q316 63 319 80L320 86H315Q278 36 234 12T139 -13ZM250 121Q269 121 289 136T324 168L393 403Q379 420 351 420Q331 420 308 402T266 351T233 271T219 167Q219 121 250 121ZM236 633L388 769H484L568 625L519 576L413 639L271 576L236 633Z" />
<glyph unicode="&#xe3;" glyph-name="atilde" horiz-adv-x="617" d="M139 -13Q111 -13 87 -5T44 21T15 70T4 145Q4 224 32 295T109 420T220 505T351 537Q383 537 406 528T442 507H447L478 539H636L508 109H583L552 19Q522 5 475 -4T381 -13Q343 -13 330 4T316
48Q316 63 319 80L320 86H315Q278 36 234 12T139 -13ZM250 121Q269 121 289 136T324 168L393 403Q379 420 351 420Q331 420 308 402T266 351T233 271T219 167Q219 121 250 121ZM218 635Q247 680 286 710T370 740Q387 740 401 736T429 726T453 716T477 711Q511 711
537 742L604 689Q576 644 537 614T452 584Q435 584 421 588T393 598T369 608T345 613Q311 613 285 582L218 635Z" />
<glyph unicode="&#xe4;" glyph-name="adieresis" horiz-adv-x="617" d="M139 -13Q111 -13 87 -5T44 21T15 70T4 145Q4 224 32 295T109 420T220 505T351 537Q383 537 406 528T442 507H447L478 539H636L508 109H583L552 19Q522 5 475 -4T381 -13Q343 -13 330 4T316
48Q316 63 319 80L320 86H315Q278 36 234 12T139 -13ZM250 121Q269 121 289 136T324 168L393 403Q379 420 351 420Q331 420 308 402T266 351T233 271T219 167Q219 121 250 121ZM294 578Q254 578 229 599T204 657Q204 679 212 696T235 726T268 744T307 750Q348 750
372 729T397 671Q397 648 389 631T366 602T334 584T294 578ZM513 578Q473 578 448 599T423 657Q423 679 431 696T454 726T487 744T526 750Q567 750 591 729T616 671Q616 648 608 631T585 602T553 584T513 578Z" />
<glyph unicode="&#xe5;" glyph-name="aring" horiz-adv-x="617" d="M139 -13Q111 -13 87 -5T44 21T15 70T4 145Q4 224 32 295T109 420T220 505T351 537Q383 537 406 528T442 507H447L478 539H636L508 109H583L552 19Q522 5 475 -4T381 -13Q343 -13 330 4T316 48Q316
63 319 80L320 86H315Q278 36 234 12T139 -13ZM250 121Q269 121 289 136T324 168L393 403Q379 420 351 420Q331 420 308 402T266 351T233 271T219 167Q219 121 250 121ZM413 577Q386 577 365 585T328 609T305 643T296 686Q296 712 306 734T334 772T375 798T426
808Q480 808 511 777T542 701Q542 675 532 652T505 613T464 587T413 577ZM416 643Q438 643 451 657T465 699Q465 716 455 729T422 742Q400 742 387 728T373 688Q373 669 383 656T416 643Z" />
<glyph unicode="&#xe6;" glyph-name="ae" horiz-adv-x="812" d="M137 -13Q99 -13 72 -4T28 22T2 61T-6 109Q-6 154 7 186T48 241T118 277T221 299L309 310L317 342Q322 365 322 378Q322 407 307 419T265 432Q250 432 243 430T229 426L210 360H101Q89 368 78 383T67
416Q67 473 124 512T301 551Q361 551 401 535T464 491Q538 551 645 551Q686 551 721 543T781 517T821 475T836 415Q836 377 820 344T764 285T657 242T486 218V213Q486 173 506 150T581 126Q617 126 661 135T747 158L720 49Q683 21 629 4T503 -13Q432 -13 384 10T310
77Q273 31 226 9T137 -13ZM614 437Q599 437 583 427T553 400T525 359T503 310Q548 313 575 322T617 346T637 377T642 410Q642 437 614 437ZM285 184Q285 195 285 204T287 224L251 223Q188 220 188 147Q188 104 226 104Q238 104 255 111T289 135Q285 155 285 184Z"
/>
<glyph unicode="&#xe7;" glyph-name="ccedilla" horiz-adv-x="493" d="M71 -162Q129 -157 154 -149T179 -122Q179 -110 166 -103T114 -93L137 0H138Q76 20 44 66T11 182Q11 264 41 332T122 449T242 524T385 551Q464 551 496 525T529 460Q529 444 524 428T510 397T492
370T473 352H354L368 432Q339 430 313 412T267 362T235 291T223 208Q223 164 242 145T306 126Q325 126 363 132T444 155L417 46Q386 23 339 5T230 -13Q225 -13 221 -13T210 -12L204 -38Q264 -41 287 -59T311 -107Q311 -163 250 -190T55 -223L71 -162Z" />
<glyph unicode="&#xe8;" glyph-name="egrave" horiz-adv-x="535" d="M229 -13Q122 -13 67 39T11 184Q11 266 41 334T121 450T236 524T371 551Q412 551 447 543T507 517T547 475T562 415Q562 377 546 343T490 282T383 236T212 207Q213 169 233 148T307 126Q343
126 387 135T473 158L446 49Q409 21 355 4T229 -13ZM340 437Q324 437 307 426T275 396T247 352T225 298Q271 304 299 316T342 343T363 376T368 410Q368 437 340 437ZM234 648L304 782L513 665L464 578L234 648Z" />
<glyph unicode="&#xe9;" glyph-name="eacute" horiz-adv-x="535" d="M229 -13Q122 -13 67 39T11 184Q11 266 41 334T121 450T236 524T371 551Q412 551 447 543T507 517T547 475T562 415Q562 377 546 343T490 282T383 236T212 207Q213 169 233 148T307 126Q343
126 387 135T473 158L446 49Q409 21 355 4T229 -13ZM340 437Q324 437 307 426T275 396T247 352T225 298Q271 304 299 316T342 343T363 376T368 410Q368 437 340 437ZM242 665L479 782L518 642L265 578L242 665Z" />
<glyph unicode="&#xea;" glyph-name="ecircumflex" horiz-adv-x="535" d="M229 -13Q122 -13 67 39T11 184Q11 266 41 334T121 450T236 524T371 551Q412 551 447 543T507 517T547 475T562 415Q562 377 546 343T490 282T383 236T212 207Q213 169 233 148T307 126Q343
126 387 135T473 158L446 49Q409 21 355 4T229 -13ZM340 437Q324 437 307 426T275 396T247 352T225 298Q271 304 299 316T342 343T363 376T368 410Q368 437 340 437ZM208 633L360 769H456L540 625L491 576L385 639L243 576L208 633Z" />
<glyph unicode="&#xeb;" glyph-name="edieresis" horiz-adv-x="535" d="M229 -13Q122 -13 67 39T11 184Q11 266 41 334T121 450T236 524T371 551Q412 551 447 543T507 517T547 475T562 415Q562 377 546 343T490 282T383 236T212 207Q213 169 233 148T307 126Q343
126 387 135T473 158L446 49Q409 21 355 4T229 -13ZM340 437Q324 437 307 426T275 396T247 352T225 298Q271 304 299 316T342 343T363 376T368 410Q368 437 340 437ZM269 578Q229 578 204 599T179 657Q179 679 187 696T210 726T243 744T282 750Q323 750 347 729T372
671Q372 648 364 631T341 602T309 584T269 578ZM488 578Q448 578 423 599T398 657Q398 679 406 696T429 726T462 744T501 750Q542 750 566 729T591 671Q591 648 583 631T560 602T528 584T488 578Z" />
<glyph unicode="&#xec;" glyph-name="igrave" horiz-adv-x="340" d="M95 -13Q59 -13 33 1T7 51Q7 65 13 85L116 418H45L73 521L339 550L354 542L222 109H306L275 19Q244 5 197 -4T95 -13ZM360 648L430 782L639 665L590 578L360 648Z" />
<glyph unicode="&#xed;" glyph-name="iacute" horiz-adv-x="340" d="M95 -13Q59 -13 33 1T7 51Q7 65 13 85L116 418H45L73 521L339 550L354 542L222 109H306L275 19Q244 5 197 -4T95 -13ZM371 665L608 782L647 642L394 578L371 665Z" />
<glyph unicode="&#xee;" glyph-name="icircumflex" horiz-adv-x="340" d="M95 -13Q59 -13 33 1T7 51Q7 65 13 85L116 418H45L73 521L339 550L354 542L222 109H306L275 19Q244 5 197 -4T95 -13ZM340 633L492 769H588L672 625L623 576L517 639L375 576L340 633Z" />
<glyph unicode="&#xef;" glyph-name="idieresis" horiz-adv-x="340" d="M95 -13Q59 -13 33 1T7 51Q7 65 13 85L116 418H45L73 521L339 550L354 542L222 109H306L275 19Q244 5 197 -4T95 -13ZM397 578Q357 578 332 599T307 657Q307 679 315 696T338 726T371 744T410
750Q451 750 475 729T500 671Q500 648 492 631T469 602T437 584T397 578ZM616 578Q576 578 551 599T526 657Q526 679 534 696T557 726T590 744T629 750Q670 750 694 729T719 671Q719 648 711 631T688 602T656 584T616 578Z" />
<glyph unicode="&#xf0;" glyph-name="eth" horiz-adv-x="593" d="M489 639Q543 591 572 529T602 385Q602 302 575 230T501 103T388 18T247 -13Q186 -13 141 3T67 46T24 110T9 188Q9 267 33 327T97 429T185 491T286 512Q316 512 334 508T363 495H367Q347 534 311
568L179 516L157 578L251 615Q237 624 224 633T196 650L285 753Q364 725 428 685L532 727L554 665L489 639ZM267 108Q292 108 313 132T349 195T372 278T381 367Q381 373 381 378T380 390Q369 398 360 401T331 405Q304 405 283 380T246 319T224 243T216 170Q216
139 229 124T267 108Z" />
<glyph unicode="&#xf1;" glyph-name="ntilde" horiz-adv-x="642" d="M403 -13Q367 -13 341 1T315 51Q315 65 321 85L400 334Q408 360 407 372T388 385Q363 385 335 365T283 316L185 0H-15L110 418H45L73 521L310 550L325 542L294 426H299Q345 488 403 519T515
551Q534 551 554 546T590 528T616 495T626 444Q626 415 614 375L530 109H608L577 19Q546 5 498 -4T403 -13ZM229 635Q258 680 297 710T381 740Q398 740 412 736T440 726T464 716T488 711Q522 711 548 742L615 689Q587 644 548 614T463 584Q446 584 432 588T404
598T380 608T356 613Q322 613 296 582L229 635Z" />
<glyph unicode="&#xf2;" glyph-name="ograve" horiz-adv-x="604" d="M247 -13Q136 -13 74 44T12 202Q12 230 19 266T44 342T88 418T154 485T245 533T364 551Q422 551 466 535T540 491T585 423T600 336Q600 308 593 272T568 196T524 120T457 53T366 5T247 -13ZM268
107Q302 107 325 137T361 208T381 292T387 358Q387 387 377 409T343 431Q320 431 303 417T272 380T249 329T234 273T226 220T223 179Q223 150 233 129T268 107ZM234 648L304 782L513 665L464 578L234 648Z" />
<glyph unicode="&#xf3;" glyph-name="oacute" horiz-adv-x="604" d="M247 -13Q136 -13 74 44T12 202Q12 230 19 266T44 342T88 418T154 485T245 533T364 551Q422 551 466 535T540 491T585 423T600 336Q600 308 593 272T568 196T524 120T457 53T366 5T247 -13ZM268
107Q302 107 325 137T361 208T381 292T387 358Q387 387 377 409T343 431Q320 431 303 417T272 380T249 329T234 273T226 220T223 179Q223 150 233 129T268 107ZM245 665L482 782L521 642L268 578L245 665Z" />
<glyph unicode="&#xf4;" glyph-name="ocircumflex" horiz-adv-x="604" d="M247 -13Q136 -13 74 44T12 202Q12 230 19 266T44 342T88 418T154 485T245 533T364 551Q422 551 466 535T540 491T585 423T600 336Q600 308 593 272T568 196T524 120T457 53T366 5T247
-13ZM268 107Q302 107 325 137T361 208T381 292T387 358Q387 387 377 409T343 431Q320 431 303 417T272 380T249 329T234 273T226 220T223 179Q223 150 233 129T268 107ZM214 633L366 769H462L546 625L497 576L391 639L249 576L214 633Z" />
<glyph unicode="&#xf5;" glyph-name="otilde" horiz-adv-x="604" d="M247 -13Q136 -13 74 44T12 202Q12 230 19 266T44 342T88 418T154 485T245 533T364 551Q422 551 466 535T540 491T585 423T600 336Q600 308 593 272T568 196T524 120T457 53T366 5T247 -13ZM268
107Q302 107 325 137T361 208T381 292T387 358Q387 387 377 409T343 431Q320 431 303 417T272 380T249 329T234 273T226 220T223 179Q223 150 233 129T268 107ZM195 635Q224 680 263 710T347 740Q364 740 378 736T406 726T430 716T454 711Q488 711 514 742L581
689Q553 644 514 614T429 584Q412 584 398 588T370 598T346 608T322 613Q288 613 262 582L195 635Z" />
<glyph unicode="&#xf6;" glyph-name="odieresis" horiz-adv-x="604" d="M247 -13Q136 -13 74 44T12 202Q12 230 19 266T44 342T88 418T154 485T245 533T364 551Q422 551 466 535T540 491T585 423T600 336Q600 308 593 272T568 196T524 120T457 53T366 5T247 -13ZM268
107Q302 107 325 137T361 208T381 292T387 358Q387 387 377 409T343 431Q320 431 303 417T272 380T249 329T234 273T226 220T223 179Q223 150 233 129T268 107ZM267 578Q227 578 202 599T177 657Q177 679 185 696T208 726T241 744T280 750Q321 750 345 729T370
671Q370 648 362 631T339 602T307 584T267 578ZM486 578Q446 578 421 599T396 657Q396 679 404 696T427 726T460 744T499 750Q540 750 564 729T589 671Q589 648 581 631T558 602T526 584T486 578Z" />
<glyph unicode="&#xf7;" glyph-name="divide" horiz-adv-x="544" d="M65 406H525V274H65V406ZM295 35Q250 35 222 63T194 130Q194 149 201 166T222 197T254 218T295 226Q340 226 368 198T396 130Q396 111 389 94T368 64T336 43T295 35ZM295 454Q273 454 255 461T223
482T202 512T194 549Q194 568 201 585T222 616T254 637T295 645Q317 645 336 637T368 616T388 586T396 549Q396 530 389 513T368 482T336 462T295 454Z" />
<glyph unicode="&#xf8;" glyph-name="oslash" horiz-adv-x="604" d="M247 -13Q164 -13 105 21L43 -40L-13 12L49 73Q12 125 12 202Q12 230 19 266T44 342T88 418T154 485T245 533T364 551Q406 551 440 543T501 519L554 571L612 519L560 467Q600 413 600 336Q600
308 593 272T568 196T524 120T457 53T366 5T247 -13ZM268 105Q296 105 317 124T354 173T379 238T393 304L220 133Q227 120 239 113T268 105ZM343 433Q315 433 294 414T257 366T231 303T216 237L387 406Q380 418 369 425T343 433Z" />
<glyph unicode="&#xf9;" glyph-name="ugrave" horiz-adv-x="637" d="M129 -13Q108 -13 88 -8T53 9T28 40T18 89Q18 121 31 163L106 418H45L73 521L329 550L344 542L242 196Q234 170 235 156T254 141Q279 141 302 158T349 195L455 539H655L527 109H603L572 19Q542
5 494 -4T400 -13Q364 -13 349 3T334 47Q334 66 340 90L341 94H336Q291 44 237 16T129 -13ZM267 648L337 782L546 665L497 578L267 648Z" />
<glyph unicode="&#xfa;" glyph-name="uacute" horiz-adv-x="637" d="M129 -13Q108 -13 88 -8T53 9T28 40T18 89Q18 121 31 163L106 418H45L73 521L329 550L344 542L242 196Q234 170 235 156T254 141Q279 141 302 158T349 195L455 539H655L527 109H603L572 19Q542
5 494 -4T400 -13Q364 -13 349 3T334 47Q334 66 340 90L341 94H336Q291 44 237 16T129 -13ZM278 665L515 782L554 642L301 578L278 665Z" />
<glyph unicode="&#xfb;" glyph-name="ucircumflex" horiz-adv-x="637" d="M129 -13Q108 -13 88 -8T53 9T28 40T18 89Q18 121 31 163L106 418H45L73 521L329 550L344 542L242 196Q234 170 235 156T254 141Q279 141 302 158T349 195L455 539H655L527 109H603L572
19Q542 5 494 -4T400 -13Q364 -13 349 3T334 47Q334 66 340 90L341 94H336Q291 44 237 16T129 -13ZM247 633L399 769H495L579 625L530 576L424 639L282 576L247 633Z" />
<glyph unicode="&#xfc;" glyph-name="udieresis" horiz-adv-x="637" d="M129 -13Q108 -13 88 -8T53 9T28 40T18 89Q18 121 31 163L106 418H45L73 521L329 550L344 542L242 196Q234 170 235 156T254 141Q279 141 302 158T349 195L455 539H655L527 109H603L572 19Q542
5 494 -4T400 -13Q364 -13 349 3T334 47Q334 66 340 90L341 94H336Q291 44 237 16T129 -13ZM304 578Q264 578 239 599T214 657Q214 679 222 696T245 726T278 744T317 750Q358 750 382 729T407 671Q407 648 399 631T376 602T344 584T304 578ZM523 578Q483 578 458
599T433 657Q433 679 441 696T464 726T497 744T536 750Q577 750 601 729T626 671Q626 648 618 631T595 602T563 584T523 578Z" />
<glyph unicode="&#xfd;" glyph-name="yacute" horiz-adv-x="561" d="M26 -84Q51 -79 73 -67T113 -44Q114 -21 114 0T114 45Q114 103 113 158T108 262T102 351T95 418H30L58 521Q93 534 128 542T199 551Q243 551 263 535T291 481Q296 449 298 407T301 320Q301 270
299 220T294 122H298Q322 158 344 198T385 277T417 353T435 418H363L391 513Q417 530 447 540T515 551Q544 551 564 534T585 471Q585 415 561 346T496 206T402 69T291 -49Q206 -123 133 -161T-7 -199Q-40 -199 -61 -193T-96 -174T-116 -145T-122 -107Q-122 -78
-107 -54T-76 -18H40L26 -84ZM229 665L466 782L505 642L252 578L229 665Z" />
<glyph unicode="&#xfe;" glyph-name="thorn" horiz-adv-x="613" d="M-117 -98L-49 -84L151 594L91 602L123 712L379 752L395 743L309 450H315Q353 495 395 523T491 551Q550 551 582 511T615 397Q615 308 592 233T524 104T416 18T274 -13Q264 -13 251 -12T223 -9T196
-4T177 5L151 -84L225 -98L194 -200H-148L-117 -98ZM264 108Q298 108 323 129T364 184T389 255T398 328Q398 354 390 369T362 385Q340 385 319 368T274 324L212 119Q223 114 233 111T264 108Z" />
<glyph unicode="&#xff;" glyph-name="ydieresis" horiz-adv-x="561" d="M26 -84Q51 -79 73 -67T113 -44Q114 -21 114 0T114 45Q114 103 113 158T108 262T102 351T95 418H30L58 521Q93 534 128 542T199 551Q243 551 263 535T291 481Q296 449 298 407T301 320Q301
270 299 220T294 122H298Q322 158 344 198T385 277T417 353T435 418H363L391 513Q417 530 447 540T515 551Q544 551 564 534T585 471Q585 415 561 346T496 206T402 69T291 -49Q206 -123 133 -161T-7 -199Q-40 -199 -61 -193T-96 -174T-116 -145T-122 -107Q-122
-78 -107 -54T-76 -18H40L26 -84ZM255 578Q215 578 190 599T165 657Q165 679 173 696T196 726T229 744T268 750Q309 750 333 729T358 671Q358 648 350 631T327 602T295 584T255 578ZM474 578Q434 578 409 599T384 657Q384 679 392 696T415 726T448 744T487 750Q528
750 552 729T577 671Q577 648 569 631T546 602T514 584T474 578Z" />
<glyph unicode="&#x100;" glyph-name="Amacron" horiz-adv-x="743" d="M-23 111L33 128L391 693H606L651 128L700 111L672 0H322L350 111L416 128L412 200H236L195 128L252 111L224 0H-51L-23 111ZM298 308H407L400 477H395L298 308ZM381 854H681L651 732H351L381 854Z" />
<glyph unicode="&#x101;" glyph-name="amacron" horiz-adv-x="617" d="M280 716H568L538 594H250L280 716ZM139 -13Q111 -13 87 -5T44 21T15 70T4 145Q4 224 32 295T109 420T220 505T351 537Q383 537 406 528T442 507H447L478 539H636L508 109H583L552 19Q522
5 475 -4T381 -13Q343 -13 330 4T316 48Q316 63 319 80L320 86H315Q278 36 234 12T139 -13ZM250 121Q269 121 289 136T324 168L393 403Q379 420 351 420Q331 420 308 402T266 351T233 271T219 167Q219 121 250 121Z" />
<glyph unicode="&#x102;" glyph-name="Abreve" horiz-adv-x="743" d="M505 722Q464 722 435 734T388 766T362 814T356 870H471Q471 856 481 847T514 838Q534 838 549 846T569 870H686Q672 805 627 764T505 722ZM-23 111L33 128L391 693H606L651 128L700 111L672
0H322L350 111L416 128L412 200H236L195 128L252 111L224 0H-51L-23 111ZM298 308H407L400 477H395L298 308Z" />
<glyph unicode="&#x103;" glyph-name="abreve" horiz-adv-x="617" d="M139 -13Q111 -13 87 -5T44 21T15 70T4 145Q4 224 32 295T109 420T220 505T351 537Q383 537 406 528T442 507H447L478 539H636L508 109H583L552 19Q522 5 475 -4T381 -13Q343 -13 330 4T316
48Q316 63 319 80L320 86H315Q278 36 234 12T139 -13ZM250 121Q269 121 289 136T324 168L393 403Q379 420 351 420Q331 420 308 402T266 351T233 271T219 167Q219 121 250 121ZM407 586Q366 586 337 599T290 633T265 683T260 741H375Q375 726 386 717T418 707Q438
707 453 716T473 741H590Q583 708 568 680T530 631T477 598T407 586Z" />
<glyph unicode="&#x104;" glyph-name="Aogonek" horiz-adv-x="743" d="M604 -180Q588 -188 565 -192T518 -196Q458 -196 427 -174T397 -116Q397 -94 408 -76T436 -43T474 -18T517 0H322L350 111L416 128L412 200H236L195 128L252 111L224 0H-51L-23 111L33 128L391
693H606L651 128L700 111L672 0H627Q619 -6 609 -14T589 -33T573 -55T566 -80Q566 -93 575 -98T599 -104Q606 -104 611 -104T623 -102L604 -180ZM298 308H407L400 477H395L298 308Z" />
<glyph unicode="&#x105;" glyph-name="aogonek" horiz-adv-x="617" d="M472 -180Q456 -188 433 -192T386 -196Q326 -196 295 -174T265 -116Q265 -97 273 -81T294 -52T325 -29T361 -11Q335 -6 326 9T316 48Q316 63 319 80L320 86H315Q278 36 234 12T139 -13Q111
-13 87 -5T44 21T15 70T4 145Q4 224 32 295T109 420T220 505T351 537Q383 537 406 528T442 507H447L478 539H636L508 109H583L552 19Q524 8 506 1T471 -20Q455 -32 445 -47T434 -80Q434 -93 443 -98T467 -104Q474 -104 479 -104T491 -102L472 -180ZM250 121Q269
121 289 136T324 168L393 403Q379 420 351 420Q331 420 308 402T266 351T233 271T219 167Q219 121 250 121Z" />
<glyph unicode="&#x106;" glyph-name="Cacute" horiz-adv-x="651" d="M323 -13Q180 -13 105 48T30 234Q30 362 76 458T199 616Q256 662 324 683T467 704Q551 704 608 692T695 662L657 457H520L513 548Q501 554 487 558T450 562Q415 562 389 549T342 507Q323 482
308 446T282 370T266 295T260 235Q259 176 282 153T349 129Q371 129 389 134T421 146L472 241H611L553 28Q508 11 450 -1T323 -13ZM342 810L585 913L616 771L360 722L342 810Z" />
<glyph unicode="&#x107;" glyph-name="cacute" horiz-adv-x="493" d="M354 352L368 432Q339 430 313 412T267 362T235 291T223 208Q223 164 242 145T306 126Q325 126 363 132T444 155L417 46Q386 23 339 5T230 -13Q125 -13 68 38T11 182Q11 264 41 332T122 449T242
524T385 551Q464 551 496 525T529 460Q529 444 524 428T510 397T492 370T473 352H354ZM243 665L480 782L519 642L266 578L243 665Z" />
<glyph unicode="&#x108;" glyph-name="Ccircumflex" horiz-adv-x="651" d="M298 777L447 899H543L630 769L581 720L475 772L333 720L298 777ZM323 -13Q180 -13 105 48T30 234Q30 362 76 458T199 616Q256 662 324 683T467 704Q551 704 608 692T695 662L657 457H520L513
548Q501 554 487 558T450 562Q415 562 389 549T342 507Q323 482 308 446T282 370T266 295T260 235Q259 176 282 153T349 129Q371 129 389 134T421 146L472 241H611L553 28Q508 11 450 -1T323 -13Z" />
<glyph unicode="&#x109;" glyph-name="ccircumflex" horiz-adv-x="493" d="M354 352L368 432Q339 430 313 412T267 362T235 291T223 208Q223 164 242 145T306 126Q325 126 363 132T444 155L417 46Q386 23 339 5T230 -13Q125 -13 68 38T11 182Q11 264 41 332T122
449T242 524T385 551Q464 551 496 525T529 460Q529 444 524 428T510 397T492 370T473 352H354ZM212 633L364 769H460L544 625L495 576L389 639L247 576L212 633Z" />
<glyph unicode="&#x10a;" glyph-name="Cdotaccent" horiz-adv-x="651" d="M471 724Q426 724 398 747T369 811Q369 836 379 855T405 888T442 907T485 914Q530 914 558 891T587 827Q587 801 578 782T552 750T514 731T471 724ZM323 -13Q180 -13 105 48T30 234Q30
362 76 458T199 616Q256 662 324 683T467 704Q551 704 608 692T695 662L657 457H520L513 548Q501 554 487 558T450 562Q415 562 389 549T342 507Q323 482 308 446T282 370T266 295T260 235Q259 176 282 153T349 129Q371 129 389 134T421 146L472 241H611L553 28Q508
11 450 -1T323 -13Z" />
<glyph unicode="&#x10b;" glyph-name="cdotaccent" horiz-adv-x="493" d="M354 352L368 432Q339 430 313 412T267 362T235 291T223 208Q223 164 242 145T306 126Q325 126 363 132T444 155L417 46Q386 23 339 5T230 -13Q125 -13 68 38T11 182Q11 264 41 332T122
449T242 524T385 551Q464 551 496 525T529 460Q529 444 524 428T510 397T492 370T473 352H354ZM381 573Q336 573 308 596T279 660Q279 685 289 704T315 737T352 756T395 763Q440 763 468 740T497 676Q497 650 488 631T462 599T424 580T381 573Z" />
<glyph unicode="&#x10c;" glyph-name="Ccaron" horiz-adv-x="651" d="M650 845L501 723H405L318 853L367 902L473 850L615 902L650 845ZM323 -13Q180 -13 105 48T30 234Q30 362 76 458T199 616Q256 662 324 683T467 704Q551 704 608 692T695 662L657 457H520L513
548Q501 554 487 558T450 562Q415 562 389 549T342 507Q323 482 308 446T282 370T266 295T260 235Q259 176 282 153T349 129Q371 129 389 134T421 146L472 241H611L553 28Q508 11 450 -1T323 -13Z" />
<glyph unicode="&#x10d;" glyph-name="ccaron" horiz-adv-x="493" d="M235 727L284 776L390 713L532 776L567 719L415 583H319L235 727ZM354 352L368 432Q339 430 313 412T267 362T235 291T223 208Q223 164 242 145T306 126Q325 126 363 132T444 155L417 46Q386
23 339 5T230 -13Q125 -13 68 38T11 182Q11 264 41 332T122 449T242 524T385 551Q464 551 496 525T529 460Q529 444 524 428T510 397T492 370T473 352H354Z" />
<glyph unicode="&#x10e;" glyph-name="Dcaron" horiz-adv-x="733" d="M626 845L477 723H381L294 853L343 902L449 850L591 902L626 845ZM-17 111L51 128L160 565L101 582L129 693H465Q531 693 584 679T674 635T732 559T753 449Q753 359 724 278T641 135T510 37T334
0H-45L-17 111ZM332 133Q368 133 396 145T448 192Q462 211 475 244T498 316T515 392T521 459Q521 516 497 538T426 560H388L281 133H332Z" />
<glyph unicode="&#x10f;" glyph-name="dcaron" horiz-adv-x="634" d="M147 -13Q118 -13 92 -5T47 22T16 71T4 146Q4 232 34 306T116 434T235 520T376 551Q397 551 415 547T449 537L466 597L407 607L437 712L680 751L697 742L525 109H600L569 19Q556 13 537 7T494
-3T446 -10T398 -13Q374 -13 361 -6T340 14T333 42T335 76L336 82H331Q294 35 246 11T147 -13ZM259 126Q268 126 279 130T302 140T324 155T342 173L409 414Q396 430 373 430Q349 430 322 411T273 359T235 279T220 177Q220 148 232 137T259 126ZM738 751L887 728L777
552L677 571L738 751Z" />
<glyph unicode="&#x110;" glyph-name="Dcroat" horiz-adv-x="730" d="M68 423H124L160 565L101 582L129 693H465Q531 693 583 679T673 635T730 559T750 449Q750 359 722 278T640 135T509 37T334 0H-45L-17 111L51 128L91 289H35L68 423ZM332 133Q368 133 396 145T448
192Q462 211 475 244T498 316T515 392T521 459Q521 516 497 538T426 560H388L353 423H453L420 289H320L281 133H332Z" />
<glyph unicode="&#x111;" glyph-name="dcroat" horiz-adv-x="634" d="M337 621H472L476 635L416 642L437 712L680 751L697 742L664 621H719L706 572H651L525 109H600L569 19Q556 13 537 7T494 -3T446 -10T398 -13Q374 -13 361 -6T340 14T333 42T335 76L336 82H331Q294
35 246 11T147 -13Q118 -13 92 -5T47 22T16 71T4 146Q4 232 34 306T116 434T235 520T376 551Q397 551 415 547T449 537L458 572H324L337 621ZM259 126Q268 126 279 130T302 140T324 155T342 173L409 414Q396 430 373 430Q349 430 322 411T273 359T235 279T220 177Q220
148 232 137T259 126Z" />
<glyph unicode="&#x112;" glyph-name="Emacron" horiz-adv-x="634" d="M-17 111L51 128L160 565L100 582L128 693H693L661 473H535L525 568H385L346 412H381L408 469H508L453 234H359L354 293H316L274 125H425L492 241H621L556 0H-45L-17 111ZM307 854H607L577
732H277L307 854Z" />
<glyph unicode="&#x113;" glyph-name="emacron" horiz-adv-x="535" d="M229 -13Q122 -13 67 39T11 184Q11 266 41 334T121 450T236 524T371 551Q412 551 447 543T507 517T547 475T562 415Q562 377 546 343T490 282T383 236T212 207Q213 169 233 148T307 126Q343
126 387 135T473 158L446 49Q409 21 355 4T229 -13ZM340 437Q324 437 307 426T275 396T247 352T225 298Q271 304 299 316T342 343T363 376T368 410Q368 437 340 437ZM254 716H542L512 594H224L254 716Z" />
<glyph unicode="&#x114;" glyph-name="Ebreve" horiz-adv-x="634" d="M-17 111L51 128L160 565L100 582L128 693H693L661 473H535L525 568H385L346 412H381L408 469H508L453 234H359L354 293H316L274 125H425L492 241H621L556 0H-45L-17 111ZM435 722Q394 722
365 734T318 766T292 814T286 870H401Q401 856 411 847T444 838Q464 838 479 846T499 870H616Q602 805 557 764T435 722Z" />
<glyph unicode="&#x115;" glyph-name="ebreve" horiz-adv-x="535" d="M378 586Q337 586 308 599T261 633T236 683T231 741H346Q346 726 357 717T389 707Q409 707 424 716T444 741H561Q554 708 539 680T501 631T448 598T378 586ZM229 -13Q122 -13 67 39T11 184Q11
266 41 334T121 450T236 524T371 551Q412 551 447 543T507 517T547 475T562 415Q562 377 546 343T490 282T383 236T212 207Q213 169 233 148T307 126Q343 126 387 135T473 158L446 49Q409 21 355 4T229 -13ZM340 437Q324 437 307 426T275 396T247 352T225 298Q271
304 299 316T342 343T363 376T368 410Q368 437 340 437Z" />
<glyph unicode="&#x116;" glyph-name="Edotaccent" horiz-adv-x="634" d="M441 724Q396 724 368 747T339 811Q339 836 349 855T375 888T412 907T455 914Q500 914 528 891T557 827Q557 801 548 782T522 750T484 731T441 724ZM-17 111L51 128L160 565L100 582L128
693H693L661 473H535L525 568H385L346 412H381L408 469H508L453 234H359L354 293H316L274 125H425L492 241H621L556 0H-45L-17 111Z" />
<glyph unicode="&#x117;" glyph-name="edotaccent" horiz-adv-x="535" d="M379 573Q334 573 306 596T277 660Q277 685 287 704T313 737T350 756T393 763Q438 763 466 740T495 676Q495 650 486 631T460 599T422 580T379 573ZM229 -13Q122 -13 67 39T11 184Q11 266
41 334T121 450T236 524T371 551Q412 551 447 543T507 517T547 475T562 415Q562 377 546 343T490 282T383 236T212 207Q213 169 233 148T307 126Q343 126 387 135T473 158L446 49Q409 21 355 4T229 -13ZM340 437Q324 437 307 426T275 396T247 352T225 298Q271 304
299 316T342 343T363 376T368 410Q368 437 340 437Z" />
<glyph unicode="&#x118;" glyph-name="Eogonek" horiz-adv-x="634" d="M-17 111L51 128L160 565L100 582L128 693H693L661 473H535L525 568H385L346 412H381L408 469H508L453 234H359L354 293H316L274 125H425L492 241H621L556 0H499Q491 -6 481 -14T461 -33T445
-55T438 -80Q438 -93 447 -98T471 -104Q478 -104 483 -104T495 -102L476 -180Q460 -188 437 -192T390 -196Q330 -196 299 -174T269 -116Q269 -94 279 -76T305 -44T342 -19T383 0H-45L-17 111Z" />
<glyph unicode="&#x119;" glyph-name="eogonek" horiz-adv-x="535" d="M224 -13Q122 -13 67 39T11 184Q11 266 41 334T121 450T236 524T371 551Q412 551 447 543T507 517T547 475T562 415Q562 377 546 343T490 282T383 236T212 207Q213 169 233 148T307 126Q343
126 387 135T473 158L446 49Q423 33 399 22T350 -5Q343 -10 334 -17T315 -34T300 -55T294 -80Q294 -93 303 -98T327 -104Q334 -104 339 -104T351 -102L332 -180Q316 -188 293 -192T246 -196Q186 -196 155 -174T125 -116Q125 -97 134 -81T158 -53T190 -30T225 -13H224ZM340
437Q324 437 307 426T275 396T247 352T225 298Q271 304 299 316T342 343T363 376T368 410Q368 437 340 437Z" />
<glyph unicode="&#x11a;" glyph-name="Ecaron" horiz-adv-x="634" d="M618 845L469 723H373L286 853L335 902L441 850L583 902L618 845ZM-17 111L51 128L160 565L100 582L128 693H693L661 473H535L525 568H385L346 412H381L408 469H508L453 234H359L354 293H316L274
125H425L492 241H621L556 0H-45L-17 111Z" />
<glyph unicode="&#x11b;" glyph-name="ecaron" horiz-adv-x="535" d="M229 -13Q122 -13 67 39T11 184Q11 266 41 334T121 450T236 524T371 551Q412 551 447 543T507 517T547 475T562 415Q562 377 546 343T490 282T383 236T212 207Q213 169 233 148T307 126Q343
126 387 135T473 158L446 49Q409 21 355 4T229 -13ZM340 437Q324 437 307 426T275 396T247 352T225 298Q271 304 299 316T342 343T363 376T368 410Q368 437 340 437ZM235 727L284 776L390 713L532 776L567 719L415 583H319L235 727Z" />
<glyph unicode="&#x11c;" glyph-name="Gcircumflex" horiz-adv-x="715" d="M337 -12Q189 -12 111 53T32 239Q32 351 74 449T210 621Q264 664 336 684T497 705Q569 705 623 694T706 668L677 459H537L529 549Q518 555 506 558T467 562Q431 562 402 548T351 507Q333
486 317 453T288 381T268 304T260 231Q260 172 286 149T356 126Q370 126 382 128T402 134L425 225L375 240L403 351H716L688 240L638 225L589 28Q545 14 481 1T337 -12ZM323 777L472 899H568L655 769L606 720L500 772L358 720L323 777Z" />
<glyph unicode="&#x11d;" glyph-name="gcircumflex" horiz-adv-x="521" d="M430 633L582 769H678L762 625L713 576L607 639L465 576L430 633ZM181 -203Q110 -203 60 -194T-23 -168T-70 -128T-86 -79Q-86 -37 -49 -6T49 45Q44 73 49 97T68 141T98 179T133 212Q93
229 69 261T45 345Q45 404 70 443T132 506T213 540T293 550Q354 550 396 534L594 554L561 438L484 451Q492 438 496 424T501 391Q501 334 477 296T415 234T336 200T256 190Q244 190 233 190T211 192Q207 184 207 174Q207 168 211 164T225 155T252 146T298 135Q350
124 384 111T438 81T466 43T475 -4Q475 -55 454 -92T393 -154T300 -191T181 -203ZM216 -15Q182 -8 159 -3T117 8Q96 -13 96 -38Q96 -49 100 -58T115 -75T146 -86T200 -90Q242 -90 265 -79T289 -50Q289 -35 272 -29T216 -15ZM259 288Q288 288 306 320T325 403Q325
423 317 437T286 451Q257 451 239 420T221 338Q221 318 228 303T259 288Z" />
<glyph unicode="&#x11e;" glyph-name="Gbreve" horiz-adv-x="715" d="M337 -12Q189 -12 111 53T32 239Q32 351 74 449T210 621Q264 664 336 684T497 705Q569 705 623 694T706 668L677 459H537L529 549Q518 555 506 558T467 562Q431 562 402 548T351 507Q333 486
317 453T288 381T268 304T260 231Q260 172 286 149T356 126Q370 126 382 128T402 134L425 225L375 240L403 351H716L688 240L638 225L589 28Q545 14 481 1T337 -12ZM491 722Q450 722 421 734T374 766T348 814T342 870H457Q457 856 467 847T500 838Q520 838 535
846T555 870H672Q658 805 613 764T491 722Z" />
<glyph unicode="&#x11f;" glyph-name="gbreve" horiz-adv-x="521" d="M181 -203Q110 -203 60 -194T-23 -168T-70 -128T-86 -79Q-86 -37 -49 -6T49 45Q44 73 49 97T68 141T98 179T133 212Q93 229 69 261T45 345Q45 404 70 443T132 506T213 540T293 550Q354 550
396 534L594 554L561 438L484 451Q492 438 496 424T501 391Q501 334 477 296T415 234T336 200T256 190Q244 190 233 190T211 192Q207 184 207 174Q207 168 211 164T225 155T252 146T298 135Q350 124 384 111T438 81T466 43T475 -4Q475 -55 454 -92T393 -154T300
-191T181 -203ZM216 -15Q182 -8 159 -3T117 8Q96 -13 96 -38Q96 -49 100 -58T115 -75T146 -86T200 -90Q242 -90 265 -79T289 -50Q289 -35 272 -29T216 -15ZM259 288Q288 288 306 320T325 403Q325 423 317 437T286 451Q257 451 239 420T221 338Q221 318 228 303T259
288ZM601 586Q560 586 531 599T484 633T459 683T454 741H569Q569 726 580 717T612 707Q632 707 647 716T667 741H784Q777 708 762 680T724 631T671 598T601 586Z" />
<glyph unicode="&#x120;" glyph-name="Gdotaccent" horiz-adv-x="715" d="M337 -12Q189 -12 111 53T32 239Q32 351 74 449T210 621Q264 664 336 684T497 705Q569 705 623 694T706 668L677 459H537L529 549Q518 555 506 558T467 562Q431 562 402 548T351 507Q333
486 317 453T288 381T268 304T260 231Q260 172 286 149T356 126Q370 126 382 128T402 134L425 225L375 240L403 351H716L688 240L638 225L589 28Q545 14 481 1T337 -12ZM497 724Q452 724 424 747T395 811Q395 836 405 855T431 888T468 907T511 914Q556 914 584
891T613 827Q613 801 604 782T578 750T540 731T497 724Z" />
<glyph unicode="&#x121;" glyph-name="gdotaccent" horiz-adv-x="521" d="M585 573Q540 573 512 596T483 660Q483 685 493 704T519 737T556 756T599 763Q644 763 672 740T701 676Q701 650 692 631T666 599T628 580T585 573ZM181 -203Q110 -203 60 -194T-23 -168T-70
-128T-86 -79Q-86 -37 -49 -6T49 45Q44 73 49 97T68 141T98 179T133 212Q93 229 69 261T45 345Q45 404 70 443T132 506T213 540T293 550Q354 550 396 534L594 554L561 438L484 451Q492 438 496 424T501 391Q501 334 477 296T415 234T336 200T256 190Q244 190 233
190T211 192Q207 184 207 174Q207 168 211 164T225 155T252 146T298 135Q350 124 384 111T438 81T466 43T475 -4Q475 -55 454 -92T393 -154T300 -191T181 -203ZM216 -15Q182 -8 159 -3T117 8Q96 -13 96 -38Q96 -49 100 -58T115 -75T146 -86T200 -90Q242 -90 265
-79T289 -50Q289 -35 272 -29T216 -15ZM259 288Q288 288 306 320T325 403Q325 423 317 437T286 451Q257 451 239 420T221 338Q221 318 228 303T259 288Z" />
<glyph unicode="&#x122;" glyph-name="Gcommaaccent" horiz-adv-x="715" d="M337 -12Q189 -12 111 53T32 239Q32 351 74 449T210 621Q264 664 336 684T497 705Q569 705 623 694T706 668L677 459H537L529 549Q518 555 506 558T467 562Q431 562 402 548T351 507Q333
486 317 453T288 381T268 304T260 231Q260 172 286 149T356 126Q370 126 382 128T402 134L425 225L375 240L403 351H716L688 240L638 225L589 28Q545 14 481 1T337 -12ZM392 -35Q378 -77 357 -118T306 -191H159Q173 -156 184 -119T204 -35H392Z" />
<glyph unicode="&#x123;" glyph-name="gcommaaccent" horiz-adv-x="521" d="M181 -203Q110 -203 60 -194T-23 -168T-70 -128T-86 -79Q-86 -37 -49 -6T49 45Q44 73 49 97T68 141T98 179T133 212Q93 229 69 261T45 345Q45 404 70 443T132 506T213 540T293 550Q354
550 396 534L594 554L561 438L484 451Q492 438 496 424T501 391Q501 334 477 296T415 234T336 200T256 190Q244 190 233 190T211 192Q207 184 207 174Q207 168 211 164T225 155T252 146T298 135Q350 124 384 111T438 81T466 43T475 -4Q475 -55 454 -92T393 -154T300
-191T181 -203ZM216 -15Q182 -8 159 -3T117 8Q96 -13 96 -38Q96 -49 100 -58T115 -75T146 -86T200 -90Q242 -90 265 -79T289 -50Q289 -35 272 -29T216 -15ZM259 288Q288 288 306 320T325 403Q325 423 317 437T286 451Q257 451 239 420T221 338Q221 318 228 303T259
288ZM487 590Q501 632 522 673T573 746H704Q690 711 679 674T659 590H487Z" />
<glyph unicode="&#x124;" glyph-name="Hcircumflex" horiz-adv-x="772" d="M10 111L78 128L187 565L127 582L155 693H494L466 582L416 567L379 417H534L571 567L528 582L556 693H895L867 582L799 565L690 128L750 111L722 0H383L411 111L461 126L503 293H348L306
126L349 111L321 0H-18L10 111ZM347 777L496 899H592L679 769L630 720L524 772L382 720L347 777Z" />
<glyph unicode="&#x125;" glyph-name="hcircumflex" horiz-adv-x="611" d="M333 -13Q295 -13 270 3T244 49Q244 70 256 88T278 115L342 103Q370 181 388 247T407 347Q407 371 399 381T367 391Q349 391 330 378T287 344L185 0H-15L161 594L101 602L133 712L390
752L406 743L319 455H325Q367 499 410 525T506 551Q559 551 587 515T616 410Q616 372 609 328T587 240T551 152T504 70Q472 23 428 5T333 -13ZM288 818L437 940H533L620 810L571 761L465 813L323 761L288 818Z" />
<glyph unicode="&#x126;" glyph-name="Hbar" horiz-adv-x="772" d="M81 525H150L160 565L100 582L128 693H467L439 582L389 567L379 525H534L544 567L501 582L529 693H868L840 582L772 565L762 525H833L814 452H744L663 128L723 111L695 0H356L384 111L434 126L476
293H321L279 126L322 111L294 0H-45L-17 111L51 128L132 452H62L81 525ZM504 403L516 452H361L349 403H504Z" />
<glyph unicode="&#x127;" glyph-name="hbar" horiz-adv-x="611" d="M107 621H168L172 634L112 642L133 712L390 752L406 743L369 621H489L476 572H354L319 455H325Q367 499 410 525T506 551Q559 551 587 515T616 410Q616 372 609 328T587 240T551 152T504 70Q472
23 428 5T333 -13Q295 -13 270 3T244 49Q244 70 256 88T278 115L342 103Q370 181 388 247T407 347Q407 371 399 381T367 391Q349 391 330 378T287 344L185 0H-15L153 572H94L107 621Z" />
<glyph unicode="&#x128;" glyph-name="Itilde" horiz-adv-x="392" d="M-17 111L53 128L162 565L100 582L128 693H488L460 582L390 565L281 128L343 111L315 0H-45L-17 111ZM393 782Q422 827 461 857T545 887Q562 887 576 883T604 873T628 863T652 858Q686 858
712 889L779 836Q751 791 712 761T627 731Q610 731 596 735T568 745T544 755T520 760Q486 760 460 729L393 782Z" />
<glyph unicode="&#x129;" glyph-name="itilde" horiz-adv-x="340" d="M95 -13Q59 -13 33 1T7 51Q7 65 13 85L116 418H45L73 521L339 550L354 542L222 109H306L275 19Q244 5 197 -4T95 -13ZM321 635Q350 680 389 710T473 740Q490 740 504 736T532 726T556 716T580
711Q614 711 640 742L707 689Q679 644 640 614T555 584Q538 584 524 588T496 598T472 608T448 613Q414 613 388 582L321 635Z" />
<glyph unicode="&#x12a;" glyph-name="Imacron" horiz-adv-x="392" d="M451 854H751L721 732H421L451 854ZM-17 111L53 128L162 565L100 582L128 693H488L460 582L390 565L281 128L343 111L315 0H-45L-17 111Z" />
<glyph unicode="&#x12b;" glyph-name="imacron" horiz-adv-x="340" d="M95 -13Q59 -13 33 1T7 51Q7 65 13 85L116 418H45L73 521L339 550L354 542L222 109H306L275 19Q244 5 197 -4T95 -13ZM122 716H410L380 594H92L122 716Z" />
<glyph unicode="&#x12c;" glyph-name="Ibreve" horiz-adv-x="392" d="M574 722Q533 722 504 734T457 766T431 814T425 870H540Q540 856 550 847T583 838Q603 838 618 846T638 870H755Q741 805 696 764T574 722ZM-17 111L53 128L162 565L100 582L128 693H488L460
582L390 565L281 128L343 111L315 0H-45L-17 111Z" />
<glyph unicode="&#x12d;" glyph-name="ibreve" horiz-adv-x="340" d="M95 -13Q59 -13 33 1T7 51Q7 65 13 85L116 418H45L73 521L339 550L354 542L222 109H306L275 19Q244 5 197 -4T95 -13ZM510 586Q469 586 440 599T393 633T368 683T363 741H478Q478 726 489 717T521
707Q541 707 556 716T576 741H693Q686 708 671 680T633 631T580 598T510 586Z" />
<glyph unicode="&#x12e;" glyph-name="Iogonek" horiz-adv-x="392" d="M-17 111L53 128L162 565L100 582L128 693H488L460 582L390 565L281 128L343 111L315 0H244Q236 -6 226 -14T206 -33T190 -55T183 -80Q183 -93 192 -98T216 -104Q223 -104 228 -104T240 -102L221
-180Q205 -188 182 -192T135 -196Q75 -196 44 -174T14 -116Q14 -94 24 -76T52 -43T90 -18T132 0H-45L-17 111Z" />
<glyph unicode="&#x12f;" glyph-name="iogonek" horiz-adv-x="340" d="M197 -180Q181 -188 158 -192T111 -196Q51 -196 20 -174T-10 -116Q-10 -78 19 -53T84 -12Q52 -10 30 4T7 51Q7 65 13 85L116 418H45L73 521L339 550L354 542L222 109H306L275 19Q247 9 228
1T189 -26Q181 -34 170 -48T159 -80Q159 -93 168 -98T192 -104Q199 -104 204 -104T216 -102L197 -180ZM258 573Q213 573 185 596T156 660Q156 685 166 704T192 737T229 756T272 763Q317 763 345 740T374 676Q374 650 365 631T339 599T301 580T258 573Z" />
<glyph unicode="&#x130;" glyph-name="Idotaccent" horiz-adv-x="392" d="M-17 111L53 128L162 565L100 582L128 693H488L460 582L390 565L281 128L343 111L315 0H-45L-17 111ZM579 724Q534 724 506 747T477 811Q477 836 487 855T513 888T550 907T593 914Q638
914 666 891T695 827Q695 801 686 782T660 750T622 731T579 724Z" />
<glyph unicode="&#x131;" glyph-name="dotlessi" horiz-adv-x="340" d="M95 -13Q59 -13 33 1T7 51Q7 65 13 85L116 418H45L73 521L339 550L354 542L222 109H306L275 19Q244 5 197 -4T95 -13Z" />
<glyph unicode="&#x132;" glyph-name="IJ" horiz-adv-x="906" d="M507 102Q521 103 533 107T556 124T578 163T599 231L682 565L622 582L650 693H1003L975 582L911 565L826 224Q808 152 777 107T707 35T627 -1T545 -11Q495 -11 460 -3T402 21T370 56T360 101Q360
132 377 157T414 195H525L507 102ZM-17 111L53 128L162 565L100 582L128 693H488L460 582L390 565L281 128L343 111L315 0H-45L-17 111Z" />
<glyph unicode="&#x133;" glyph-name="ij" horiz-adv-x="656" d="M95 -13Q59 -13 33 1T7 51Q7 65 13 85L116 418H45L73 521L339 550L354 542L222 109H306L275 19Q244 5 197 -4T95 -13ZM258 573Q213 573 185 596T156 660Q156 685 166 704T192 737T229 756T272 763Q317
763 345 740T374 676Q374 650 365 631T339 599T301 580T258 573ZM242 -100Q255 -100 266 -96T289 -80T311 -44T333 18L446 418H375L403 521L669 550L684 542L548 65Q527 -8 495 -58T423 -140T338 -185T246 -199Q180 -199 149 -174T117 -110Q117 -84 130 -64T158
-33H254L242 -100ZM588 573Q543 573 515 596T486 660Q486 685 496 704T522 737T559 756T602 763Q647 763 675 740T704 676Q704 650 695 631T669 599T631 580T588 573Z" />
<glyph unicode="&#x134;" glyph-name="Jcircumflex" horiz-adv-x="527" d="M118 102Q134 102 148 106T174 124T198 163T220 231L303 565L243 582L271 693H624L596 582L532 565L447 224Q429 152 397 107T326 35T243 -1T158 -11Q104 -11 68 -3T11 21T-20 56T-30
101Q-30 132 -13 157T24 195H136L118 102ZM289 777L438 899H534L621 769L572 720L466 772L324 720L289 777Z" />
<glyph unicode="&#x135;" glyph-name="jcircumflex" horiz-adv-x="326" d="M-88 -100Q-75 -100 -64 -96T-41 -80T-19 -44T3 18L116 418H45L73 521L339 550L354 542L218 65Q197 -8 165 -58T93 -140T8 -185T-84 -199Q-150 -199 -181 -174T-213 -110Q-213 -84 -200
-64T-172 -33H-76L-88 -100ZM341 633L493 769H589L673 625L624 576L518 639L376 576L341 633Z" />
<glyph unicode="&#x136;" glyph-name="Kcommaaccent" horiz-adv-x="746" d="M-17 111L51 128L160 565L100 582L128 693H468L440 582L389 567L345 393L542 568L500 582L528 693H827L799 582L741 563L537 396L645 126L697 111L669 0H448L353 258L304 229L279 126L328
111L300 0H-45L-17 111ZM421 -35Q407 -77 386 -118T335 -191H188Q202 -156 213 -119T233 -35H421Z" />
<glyph unicode="&#x137;" glyph-name="kcommaaccent" horiz-adv-x="601" d="M161 594L101 602L133 712L390 752L406 743L185 0H-15L161 594ZM550 418Q528 403 502 378T447 315L506 109H576L545 19Q526 8 496 -2T421 -13Q378 -13 352 11T313 87L280 234L302 308Q350
380 383 426T445 501T500 540T563 551Q595 551 616 539T648 513L621 418H550ZM343 -35Q329 -77 308 -118T257 -191H110Q124 -156 135 -119T155 -35H343Z" />
<glyph unicode="&#x139;" glyph-name="Lacute" horiz-adv-x="605" d="M-17 111L51 128L160 565L100 582L128 693H491L463 582L389 567L280 129H393L472 268H605L529 0H-45L-17 111ZM467 810L710 913L741 771L485 722L467 810Z" />
<glyph unicode="&#x13a;" glyph-name="lacute" horiz-adv-x="340" d="M95 -13Q59 -13 33 1T7 51Q7 65 13 85L162 594L98 602L130 712L391 752L407 743L222 109H306L275 19Q244 5 197 -4T95 -13ZM451 851L694 954L725 812L469 763L451 851Z" />
<glyph unicode="&#x13b;" glyph-name="Lcommaaccent" horiz-adv-x="605" d="M-17 111L51 128L160 565L100 582L128 693H491L463 582L389 567L280 129H393L472 268H605L529 0H-45L-17 111ZM342 -35Q328 -77 307 -118T256 -191H109Q123 -156 134 -119T154 -35H342Z" />
<glyph unicode="&#x13c;" glyph-name="lcommaaccent" horiz-adv-x="340" d="M95 -13Q59 -13 33 1T7 51Q7 65 13 85L162 594L98 602L130 712L391 752L407 743L222 109H306L275 19Q244 5 197 -4T95 -13ZM452 -35Q438 -77 417 -118T366 -191H219Q233 -156 244 -119T264
-35H452Z" />
<glyph unicode="&#x13d;" glyph-name="Lcaron" horiz-adv-x="618" d="M550 713L699 690L591 512L491 531L550 713ZM-17 111L51 128L160 565L100 582L128 693H491L463 582L389 567L280 129H393L472 268H605L529 0H-45L-17 111Z" />
<glyph unicode="&#x13e;" glyph-name="lcaron" horiz-adv-x="340" d="M95 -13Q59 -13 33 1T7 51Q7 65 13 85L162 594L98 602L130 712L391 752L407 743L222 109H306L275 19Q244 5 197 -4T95 -13ZM448 751L597 728L487 552L387 571L448 751Z" />
<glyph unicode="&#x13f;" glyph-name="Ldot" horiz-adv-x="605" d="M-17 111L51 128L160 565L100 582L128 693H491L463 582L389 567L280 129H393L472 268H605L529 0H-45L-17 111ZM549 300Q506 300 483 325T460 382Q460 425 488 454T560 483Q581 483 598 476T626
458T643 432T649 402Q649 356 621 328T549 300Z" />
<glyph unicode="&#x140;" glyph-name="ldot" horiz-adv-x="442" d="M413 281Q456 281 484 309T513 384Q513 399 507 413T490 438T462 457T424 464Q381 464 353 436T324 363Q324 332 347 307T413 281ZM95 -13Q59 -13 33 1T7 51Q7 65 13 85L162 594L98 602L130 712L391
752L407 743L222 109H306L275 19Q244 5 197 -4T95 -13Z" />
<glyph unicode="&#x141;" glyph-name="Lslash" horiz-adv-x="605" d="M37 337L108 358L160 565L100 582L128 693H491L463 582L389 567L355 429L501 472L468 340L322 297L280 129H393L472 268H605L529 0H-45L-17 111L51 128L75 226L4 205L37 337Z" />
<glyph unicode="&#x142;" glyph-name="lslash" horiz-adv-x="340" d="M39 371L105 400L162 594L98 602L130 712L391 752L407 743L336 502L402 531L370 409L300 378L222 109H306L275 19Q244 5 197 -4T95 -13Q59 -13 33 1T7 51Q7 65 13 85L69 276L8 249L39 371Z" />
<glyph unicode="&#x143;" glyph-name="Nacute" horiz-adv-x="733" d="M-17 111L51 128L160 565L100 582L128 693H426L527 312H532L595 565L534 582L562 693H831L803 582L743 565L602 0H397L282 445H277L198 126L261 111L233 0H-45L-17 111ZM391 810L634 913L665
771L409 722L391 810Z" />
<glyph unicode="&#x144;" glyph-name="nacute" horiz-adv-x="642" d="M403 -13Q367 -13 341 1T315 51Q315 65 321 85L400 334Q408 360 407 372T388 385Q363 385 335 365T283 316L185 0H-15L110 418H45L73 521L310 550L325 542L294 426H299Q345 488 403 519T515
551Q534 551 554 546T590 528T616 495T626 444Q626 415 614 375L530 109H608L577 19Q546 5 498 -4T403 -13ZM278 665L515 782L554 642L301 578L278 665Z" />
<glyph unicode="&#x145;" glyph-name="Ncommaaccent" horiz-adv-x="733" d="M-17 111L51 128L160 565L100 582L128 693H426L527 312H532L595 565L534 582L562 693H831L803 582L743 565L602 0H397L282 445H277L198 126L261 111L233 0H-45L-17 111ZM406 -35Q392
-77 371 -118T320 -191H173Q187 -156 198 -119T218 -35H406Z" />
<glyph unicode="&#x146;" glyph-name="ncommaaccent" horiz-adv-x="642" d="M403 -13Q367 -13 341 1T315 51Q315 65 321 85L400 334Q408 360 407 372T388 385Q363 385 335 365T283 316L185 0H-15L110 418H45L73 521L310 550L325 542L294 426H299Q345 488 403 519T515
551Q534 551 554 546T590 528T616 495T626 444Q626 415 614 375L530 109H608L577 19Q546 5 498 -4T403 -13ZM348 -35Q334 -77 313 -118T262 -191H115Q129 -156 140 -119T160 -35H348Z" />
<glyph unicode="&#x147;" glyph-name="Ncaron" horiz-adv-x="733" d="M-17 111L51 128L160 565L100 582L128 693H426L527 312H532L595 565L534 582L562 693H831L803 582L743 565L602 0H397L282 445H277L198 126L261 111L233 0H-45L-17 111ZM700 845L551 723H455L368
853L417 902L523 850L665 902L700 845Z" />
<glyph unicode="&#x148;" glyph-name="ncaron" horiz-adv-x="642" d="M403 -13Q367 -13 341 1T315 51Q315 65 321 85L400 334Q408 360 407 372T388 385Q363 385 335 365T283 316L185 0H-15L110 418H45L73 521L310 550L325 542L294 426H299Q345 488 403 519T515
551Q534 551 554 546T590 528T616 495T626 444Q626 415 614 375L530 109H608L577 19Q546 5 498 -4T403 -13ZM269 727L318 776L424 713L566 776L601 719L449 583H353L269 727Z" />
<glyph unicode="&#x149;" glyph-name="napostrophe" horiz-adv-x="770" d="M531 -13Q495 -13 469 1T443 51Q443 65 449 85L528 334Q536 360 535 372T516 385Q491 385 463 365T411 316L313 0H113L238 418H173L201 521L438 550L453 542L422 426H427Q473 488 531
519T643 551Q662 551 682 546T718 528T744 495T754 444Q754 415 742 375L658 109H736L705 19Q674 5 626 -4T531 -13ZM259 464Q281 519 296 571T326 693H511Q497 630 466 572T392 464H259V464Z" />
<glyph unicode="&#x14a;" glyph-name="Eng" horiz-adv-x="733" d="M360 -86Q386 -85 400 -74T423 -40L282 445H277L198 126L261 111L233 0H-45L-17 111L51 128L160 565L100 582L128 693H426L529 321H534L595 565L534 582L562 693H831L803 582L743 565L621 75Q602
-2 576 -52T519 -131T450 -173T372 -185Q303 -185 269 -160T235 -96Q235 -70 247 -51T275 -20H372L360 -86Z" />
<glyph unicode="&#x14b;" glyph-name="eng" horiz-adv-x="611" d="M264 -200Q217 -200 191 -184T164 -138Q164 -117 176 -99T198 -72L274 -84Q287 -57 301 -21T330 57T358 140T381 223T398 297T404 357Q404 387 379 387Q360 387 336 371T288 333L185 0H-15L110
418H45L73 521L309 551L325 542L294 426H299Q345 485 397 518T503 551Q556 551 584 515T613 407Q613 332 593 252T544 99T481 -32T421 -121Q385 -164 347 -182T264 -200Z" />
<glyph unicode="&#x14c;" glyph-name="Omacron" horiz-adv-x="713" d="M301 -13Q242 -13 192 3T106 52T50 130T30 238Q30 333 61 418T150 566T286 667T459 705Q520 705 570 688T657 639T713 560T733 453Q733 358 701 273T612 125T475 24T301 -13ZM329 126Q382
126 420 188Q437 216 451 252T477 327T494 406T501 484Q501 528 484 547T434 566Q379 566 342 502Q325 473 311 439T285 366T268 287T261 207Q261 163 279 145T329 126ZM345 854H645L615 732H315L345 854Z" />
<glyph unicode="&#x14d;" glyph-name="omacron" horiz-adv-x="604" d="M247 -13Q136 -13 74 44T12 202Q12 230 19 266T44 342T88 418T154 485T245 533T364 551Q422 551 466 535T540 491T585 423T600 336Q600 308 593 272T568 196T524 120T457 53T366 5T247 -13ZM268
107Q302 107 325 137T361 208T381 292T387 358Q387 387 377 409T343 431Q320 431 303 417T272 380T249 329T234 273T226 220T223 179Q223 150 233 129T268 107ZM257 716H545L515 594H227L257 716Z" />
<glyph unicode="&#x14e;" glyph-name="Obreve" horiz-adv-x="713" d="M301 -13Q242 -13 192 3T106 52T50 130T30 238Q30 333 61 418T150 566T286 667T459 705Q520 705 570 688T657 639T713 560T733 453Q733 358 701 273T612 125T475 24T301 -13ZM329 126Q382 126
420 188Q437 216 451 252T477 327T494 406T501 484Q501 528 484 547T434 566Q379 566 342 502Q325 473 311 439T285 366T268 287T261 207Q261 163 279 145T329 126ZM467 722Q426 722 397 734T350 766T324 814T318 870H433Q433 856 443 847T476 838Q496 838 511
846T531 870H648Q634 805 589 764T467 722Z" />
<glyph unicode="&#x14f;" glyph-name="obreve" horiz-adv-x="604" d="M384 586Q343 586 314 599T267 633T242 683T237 741H352Q352 726 363 717T395 707Q415 707 430 716T450 741H567Q560 708 545 680T507 631T454 598T384 586ZM247 -13Q136 -13 74 44T12 202Q12
230 19 266T44 342T88 418T154 485T245 533T364 551Q422 551 466 535T540 491T585 423T600 336Q600 308 593 272T568 196T524 120T457 53T366 5T247 -13ZM268 107Q302 107 325 137T361 208T381 292T387 358Q387 387 377 409T343 431Q320 431 303 417T272 380T249
329T234 273T226 220T223 179Q223 150 233 129T268 107Z" />
<glyph unicode="&#x150;" glyph-name="Ohungarumlaut" horiz-adv-x="713" d="M620 931L731 843L571 720L504 772L620 931ZM412 930L531 854L383 719L312 765L412 930ZM301 -13Q242 -13 192 3T106 52T50 130T30 238Q30 333 61 418T150 566T286 667T459 705Q520
705 570 688T657 639T713 560T733 453Q733 358 701 273T612 125T475 24T301 -13ZM329 126Q382 126 420 188Q437 216 451 252T477 327T494 406T501 484Q501 528 484 547T434 566Q379 566 342 502Q325 473 311 439T285 366T268 287T261 207Q261 163 279 145T329 126Z"
/>
<glyph unicode="&#x151;" glyph-name="ohungarumlaut" horiz-adv-x="604" d="M413 627L553 800L657 698L468 573L413 627ZM206 619L331 800L443 709L265 571L206 619ZM247 -13Q136 -13 74 44T12 202Q12 230 19 266T44 342T88 418T154 485T245 533T364 551Q422
551 466 535T540 491T585 423T600 336Q600 308 593 272T568 196T524 120T457 53T366 5T247 -13ZM268 107Q302 107 325 137T361 208T381 292T387 358Q387 387 377 409T343 431Q320 431 303 417T272 380T249 329T234 273T226 220T223 179Q223 150 233 129T268 107Z"
/>
<glyph unicode="&#x152;" glyph-name="OE" horiz-adv-x="975" d="M316 0Q250 0 198 14T108 58T51 134T31 244Q31 334 59 415T141 558T272 656T447 693H1034L1002 473H876L866 568H726L687 412H722L749 469H849L794 234H700L695 293H657L615 125H766L833 241H962L897
0H316ZM393 133L500 560H449Q413 560 385 548T333 501Q319 482 306 449T283 377T266 301T260 234Q260 177 284 155T355 133H393Z" />
<glyph unicode="&#x153;" glyph-name="oe" horiz-adv-x="894" d="M247 -13Q136 -13 74 44T12 202Q12 230 19 266T43 342T86 418T150 485T238 533T353 551Q418 551 461 530T528 471Q570 509 621 530T730 551Q771 551 806 543T866 517T906 475T921 415Q921 377 905
343T849 282T742 236T571 207Q572 169 592 148T666 126Q702 126 746 135T832 158L805 49Q768 21 718 4T609 -13Q548 -13 506 6T440 61Q405 28 357 8T247 -13ZM268 107Q302 107 325 137T361 208T381 292T387 358Q387 387 377 409T343 431Q320 431 303 417T272 380T249
329T234 273T226 220T223 179Q223 150 233 129T268 107ZM699 437Q683 437 666 426T634 396T606 352T584 298Q630 304 658 316T701 343T722 376T727 410Q727 437 699 437Z" />
<glyph unicode="&#x154;" glyph-name="Racute" horiz-adv-x="716" d="M334 810L577 913L608 771L352 722L334 810ZM-17 111L52 128L161 564L101 582L129 693H471Q540 693 587 680T664 644T707 589T720 520Q720 445 680 396T563 323V319L629 124L672 111L644 0H432L355
267H316L280 125L328 111L300 0H-45L-17 111ZM400 386Q422 386 438 395T466 421T483 458T489 503Q489 534 473 548T420 563H389L345 386H400Z" />
<glyph unicode="&#x155;" glyph-name="racute" horiz-adv-x="519" d="M110 418H45L73 521L310 550L325 542L292 419H297Q314 447 334 471T378 513T427 541T477 551Q519 551 539 529T559 474Q559 435 540 400T499 339H387L396 396Q367 390 335 361T277 296L185
0H-15L110 418ZM221 665L458 782L497 642L244 578L221 665Z" />
<glyph unicode="&#x156;" glyph-name="Rcommaaccent" horiz-adv-x="716" d="M-17 111L52 128L161 564L101 582L129 693H471Q540 693 587 680T664 644T707 589T720 520Q720 445 680 396T563 323V319L629 124L672 111L644 0H432L355 267H316L280 125L328 111L300
0H-45L-17 111ZM400 386Q422 386 438 395T466 421T483 458T489 503Q489 534 473 548T420 563H389L345 386H400ZM410 -35Q396 -77 375 -118T324 -191H177Q191 -156 202 -119T222 -35H410Z" />
<glyph unicode="&#x157;" glyph-name="rcommaaccent" horiz-adv-x="519" d="M110 418H45L73 521L310 550L325 542L292 419H297Q314 447 334 471T378 513T427 541T477 551Q519 551 539 529T559 474Q559 435 540 400T499 339H387L396 396Q367 390 335 361T277 296L185
0H-15L110 418ZM420 -35Q406 -77 385 -118T334 -191H187Q201 -156 212 -119T232 -35H420Z" />
<glyph unicode="&#x158;" glyph-name="Rcaron" horiz-adv-x="716" d="M-17 111L52 128L161 564L101 582L129 693H471Q540 693 587 680T664 644T707 589T720 520Q720 445 680 396T563 323V319L629 124L672 111L644 0H432L355 267H316L280 125L328 111L300 0H-45L-17
111ZM400 386Q422 386 438 395T466 421T483 458T489 503Q489 534 473 548T420 563H389L345 386H400ZM643 845L494 723H398L311 853L360 902L466 850L608 902L643 845Z" />
<glyph unicode="&#x159;" glyph-name="rcaron" horiz-adv-x="519" d="M212 727L261 776L367 713L509 776L544 719L392 583H296L212 727ZM110 418H45L73 521L310 550L325 542L292 419H297Q314 447 334 471T378 513T427 541T477 551Q519 551 539 529T559 474Q559
435 540 400T499 339H387L396 396Q367 390 335 361T277 296L185 0H-15L110 418Z" />
<glyph unicode="&#x15a;" glyph-name="Sacute" horiz-adv-x="556" d="M214 -9Q135 -9 73 5T-25 37L12 217H154L159 140Q171 134 184 130T219 126Q307 126 307 189Q307 213 287 230T228 269L203 283Q177 298 155 314T116 352T90 400T80 463Q80 509 96 552T147 628T241
682T383 703Q426 703 459 700T517 693T562 681T596 667L571 501H433L428 558Q417 564 404 567T369 571Q327 571 310 555T293 516Q293 493 311 478T368 442L393 428Q422 412 447 395T492 358T523 311T535 248Q535 191 513 144T450 63T350 10T214 -9ZM269 810L512
913L543 771L287 722L269 810Z" />
<glyph unicode="&#x15b;" glyph-name="sacute" horiz-adv-x="463" d="M173 -13Q135 -13 100 -7T38 13T-5 46T-21 93Q-21 109 -16 122T-4 146T11 164T25 174H146L131 110Q139 107 151 104T180 101Q216 101 231 112T246 143Q246 162 231 175T175 207Q150 218 129
232T93 264T68 305T59 357Q59 397 77 432T129 494T207 536T308 551Q347 551 380 545T437 526T475 495T489 452Q489 429 477 409T450 374H333L344 431Q326 441 299 441Q268 441 255 429T242 398Q242 387 246 380T260 365T288 349T333 327Q356 316 375 304T407 277T428
241T436 193Q436 142 416 104T360 39T276 0T173 -13ZM185 665L422 782L461 642L208 578L185 665Z" />
<glyph unicode="&#x15c;" glyph-name="Scircumflex" horiz-adv-x="556" d="M224 777L373 899H469L556 769L507 720L401 772L259 720L224 777ZM214 -9Q135 -9 73 5T-25 37L12 217H154L159 140Q171 134 184 130T219 126Q307 126 307 189Q307 213 287 230T228 269L203
283Q177 298 155 314T116 352T90 400T80 463Q80 509 96 552T147 628T241 682T383 703Q426 703 459 700T517 693T562 681T596 667L571 501H433L428 558Q417 564 404 567T369 571Q327 571 310 555T293 516Q293 493 311 478T368 442L393 428Q422 412 447 395T492 358T523
311T535 248Q535 191 513 144T450 63T350 10T214 -9Z" />
<glyph unicode="&#x15d;" glyph-name="scircumflex" horiz-adv-x="463" d="M173 -13Q135 -13 100 -7T38 13T-5 46T-21 93Q-21 109 -16 122T-4 146T11 164T25 174H146L131 110Q139 107 151 104T180 101Q216 101 231 112T246 143Q246 162 231 175T175 207Q150 218
129 232T93 264T68 305T59 357Q59 397 77 432T129 494T207 536T308 551Q347 551 380 545T437 526T475 495T489 452Q489 429 477 409T450 374H333L344 431Q326 441 299 441Q268 441 255 429T242 398Q242 387 246 380T260 365T288 349T333 327Q356 316 375 304T407
277T428 241T436 193Q436 142 416 104T360 39T276 0T173 -13ZM411 633L563 769H659L743 625L694 576L588 639L446 576L411 633Z" />
<glyph unicode="&#x15e;" glyph-name="Scedilla" horiz-adv-x="556" d="M85 -162Q143 -157 168 -149T193 -122Q193 -110 180 -103T128 -93L149 -6Q92 -1 47 11T-25 37L12 217H154L159 140Q171 134 184 130T219 126Q307 126 307 189Q307 213 287 230T228 269L203
283Q177 298 155 314T116 352T90 400T80 463Q80 509 96 552T147 628T241 682T383 703Q426 703 459 700T517 693T562 681T596 667L571 501H433L428 558Q417 564 404 567T369 571Q327 571 310 555T293 516Q293 493 311 478T368 442L393 428Q422 412 447 395T492 358T523
311T535 248Q535 192 514 146T453 65T356 12T225 -9L218 -38Q278 -41 301 -59T325 -107Q325 -163 264 -190T69 -223L85 -162Z" />
<glyph unicode="&#x15f;" glyph-name="scedilla" horiz-adv-x="463" d="M46 -162Q104 -157 129 -149T154 -122Q154 -110 141 -103T89 -93L110 -8Q83 -4 59 4T17 25T-11 55T-21 93Q-21 109 -16 122T-4 146T11 164T25 174H146L131 110Q139 107 151 104T180 101Q216
101 231 112T246 143Q246 162 231 175T175 207Q150 218 129 232T93 264T68 305T59 357Q59 397 77 432T129 494T207 536T308 551Q347 551 380 545T437 526T475 495T489 452Q489 429 477 409T450 374H333L344 431Q326 441 299 441Q268 441 255 429T242 398Q242 387
246 380T260 365T288 349T333 327Q356 316 375 304T407 277T428 241T436 193Q436 143 417 106T363 42T283 2T185 -13L179 -38Q239 -41 262 -59T286 -107Q286 -163 225 -190T30 -223L46 -162Z" />
<glyph unicode="&#x160;" glyph-name="Scaron" horiz-adv-x="556" d="M214 -9Q135 -9 73 5T-25 37L12 217H154L159 140Q171 134 184 130T219 126Q307 126 307 189Q307 213 287 230T228 269L203 283Q177 298 155 314T116 352T90 400T80 463Q80 509 96 552T147 628T241
682T383 703Q426 703 459 700T517 693T562 681T596 667L571 501H433L428 558Q417 564 404 567T369 571Q327 571 310 555T293 516Q293 493 311 478T368 442L393 428Q422 412 447 395T492 358T523 311T535 248Q535 191 513 144T450 63T350 10T214 -9ZM578 845L429
723H333L246 853L295 902L401 850L543 902L578 845Z" />
<glyph unicode="&#x161;" glyph-name="scaron" horiz-adv-x="463" d="M173 -13Q135 -13 100 -7T38 13T-5 46T-21 93Q-21 109 -16 122T-4 146T11 164T25 174H146L131 110Q139 107 151 104T180 101Q216 101 231 112T246 143Q246 162 231 175T175 207Q150 218 129
232T93 264T68 305T59 357Q59 397 77 432T129 494T207 536T308 551Q347 551 380 545T437 526T475 495T489 452Q489 429 477 409T450 374H333L344 431Q326 441 299 441Q268 441 255 429T242 398Q242 387 246 380T260 365T288 349T333 327Q356 316 375 304T407 277T428
241T436 193Q436 142 416 104T360 39T276 0T173 -13ZM433 727L482 776L588 713L730 776L765 719L613 583H517L433 727Z" />
<glyph unicode="&#x162;" glyph-name="Tcommaaccent" horiz-adv-x="672" d="M122 111L196 128L305 564H253L199 449H63L130 693H760L711 449H580L579 564H533L424 128L490 111L462 0H94L122 111ZM364 -35Q350 -77 329 -118T278 -191H131Q145 -156 156 -119T176 -35H364Z" />
<glyph unicode="&#x163;" glyph-name="tcommaaccent" horiz-adv-x="378" d="M72 515L144 538L180 658H372L339 539H435L400 418H306L233 152Q227 131 233 121T263 111Q280 111 294 113T328 120L295 15Q269 4 232 -4T136 -13Q81 -13 49 8T17 77Q17 101 26 133L109
418H46L72 515ZM466 -35Q452 -77 431 -118T380 -191H233Q247 -156 258 -119T278 -35H466Z" />
<glyph unicode="&#x164;" glyph-name="Tcaron" horiz-adv-x="672" d="M122 111L196 128L305 564H253L199 449H63L130 693H760L711 449H580L579 564H533L424 128L490 111L462 0H94L122 111ZM640 845L491 723H395L308 853L357 902L463 850L605 902L640 845Z" />
<glyph unicode="&#x165;" glyph-name="tcaron" horiz-adv-x="378" d="M72 515L144 538L180 658H372L339 539H435L400 418H306L233 152Q227 131 233 121T263 111Q280 111 294 113T328 120L295 15Q269 4 232 -4T136 -13Q81 -13 49 8T17 77Q17 101 26 133L109 418H46L72
515ZM439 751L588 728L478 552L378 571L439 751Z" />
<glyph unicode="&#x166;" glyph-name="Tbar" horiz-adv-x="672" d="M140 396H263L305 564H253L199 449H63L130 693H760L711 449H580L579 564H533L491 396H616L591 295H466L424 128L490 111L462 0H94L122 111L196 128L237 295H115L140 396Z" />
<glyph unicode="&#x167;" glyph-name="tbar" horiz-adv-x="378" d="M72 515L144 538L180 658H372L339 539H435L400 418H306L292 369H388L369 295H272L233 152Q227 131 233 121T263 111Q280 111 294 113T328 120L295 15Q269 4 232 -4T136 -13Q81 -13 49 8T17 77Q17
101 26 133L73 295H16L35 369H94L109 418H46L72 515Z" />
<glyph unicode="&#x168;" glyph-name="Utilde" horiz-adv-x="719" d="M330 782Q359 827 398 857T482 887Q499 887 513 883T541 873T565 863T589 858Q623 858 649 889L716 836Q688 791 649 761T564 731Q547 731 533 735T505 745T481 755T457 760Q423 760 397 729L330
782ZM344 -12Q206 -12 135 37T64 177Q64 210 73 246L153 565L98 582L126 693H465L437 582L382 567L301 241Q295 218 295 200Q295 158 320 139T386 119Q435 119 459 146T498 230L582 567L534 582L562 693H817L789 582L728 565L641 215Q629 168 611 127T559 55T474
6T344 -12Z" />
<glyph unicode="&#x169;" glyph-name="utilde" horiz-adv-x="637" d="M129 -13Q108 -13 88 -8T53 9T28 40T18 89Q18 121 31 163L106 418H45L73 521L329 550L344 542L242 196Q234 170 235 156T254 141Q279 141 302 158T349 195L455 539H655L527 109H603L572 19Q542
5 494 -4T400 -13Q364 -13 349 3T334 47Q334 66 340 90L341 94H336Q291 44 237 16T129 -13ZM228 635Q257 680 296 710T380 740Q397 740 411 736T439 726T463 716T487 711Q521 711 547 742L614 689Q586 644 547 614T462 584Q445 584 431 588T403 598T379 608T355
613Q321 613 295 582L228 635Z" />
<glyph unicode="&#x16a;" glyph-name="Umacron" horiz-adv-x="719" d="M344 -12Q206 -12 135 37T64 177Q64 210 73 246L153 565L98 582L126 693H465L437 582L382 567L301 241Q295 218 295 200Q295 158 320 139T386 119Q435 119 459 146T498 230L582 567L534 582L562
693H817L789 582L728 565L641 215Q629 168 611 127T559 55T474 6T344 -12ZM384 854H684L654 732H354L384 854Z" />
<glyph unicode="&#x16b;" glyph-name="umacron" horiz-adv-x="637" d="M129 -13Q108 -13 88 -8T53 9T28 40T18 89Q18 121 31 163L106 418H45L73 521L329 550L344 542L242 196Q234 170 235 156T254 141Q279 141 302 158T349 195L455 539H655L527 109H603L572 19Q542
5 494 -4T400 -13Q364 -13 349 3T334 47Q334 66 340 90L341 94H336Q291 44 237 16T129 -13ZM290 716H578L548 594H260L290 716Z" />
<glyph unicode="&#x16c;" glyph-name="Ubreve" horiz-adv-x="719" d="M344 -12Q206 -12 135 37T64 177Q64 210 73 246L153 565L98 582L126 693H465L437 582L382 567L301 241Q295 218 295 200Q295 158 320 139T386 119Q435 119 459 146T498 230L582 567L534 582L562
693H817L789 582L728 565L641 215Q629 168 611 127T559 55T474 6T344 -12ZM504 722Q463 722 434 734T387 766T361 814T355 870H470Q470 856 480 847T513 838Q533 838 548 846T568 870H685Q671 805 626 764T504 722Z" />
<glyph unicode="&#x16d;" glyph-name="ubreve" horiz-adv-x="637" d="M129 -13Q108 -13 88 -8T53 9T28 40T18 89Q18 121 31 163L106 418H45L73 521L329 550L344 542L242 196Q234 170 235 156T254 141Q279 141 302 158T349 195L455 539H655L527 109H603L572 19Q542
5 494 -4T400 -13Q364 -13 349 3T334 47Q334 66 340 90L341 94H336Q291 44 237 16T129 -13ZM407 586Q366 586 337 599T290 633T265 683T260 741H375Q375 726 386 717T418 707Q438 707 453 716T473 741H590Q583 708 568 680T530 631T477 598T407 586Z" />
<glyph unicode="&#x16e;" glyph-name="Uring" horiz-adv-x="719" d="M344 -12Q206 -12 135 37T64 177Q64 210 73 246L153 565L98 582L126 693H465L437 582L382 567L301 241Q295 218 295 200Q295 158 320 139T386 119Q435 119 459 146T498 230L582 567L534 582L562
693H817L789 582L728 565L641 215Q629 168 611 127T559 55T474 6T344 -12ZM510 711Q483 711 462 719T425 743T402 777T393 820Q393 846 403 868T431 906T472 932T523 942Q577 942 608 911T639 835Q639 809 629 786T602 747T561 721T510 711ZM513 777Q535 777 548
791T562 833Q562 850 552 863T519 876Q497 876 484 862T470 822Q470 803 480 790T513 777Z" />
<glyph unicode="&#x16f;" glyph-name="uring" horiz-adv-x="637" d="M415 577Q388 577 367 585T330 609T307 643T298 686Q298 712 308 734T336 772T377 798T428 808Q482 808 513 777T544 701Q544 675 534 652T507 613T466 587T415 577ZM418 643Q440 643 453 657T467
699Q467 716 457 729T424 742Q402 742 389 728T375 688Q375 669 385 656T418 643ZM129 -13Q108 -13 88 -8T53 9T28 40T18 89Q18 121 31 163L106 418H45L73 521L329 550L344 542L242 196Q234 170 235 156T254 141Q279 141 302 158T349 195L455 539H655L527 109H603L572
19Q542 5 494 -4T400 -13Q364 -13 349 3T334 47Q334 66 340 90L341 94H336Q291 44 237 16T129 -13Z" />
<glyph unicode="&#x170;" glyph-name="Uhungarumlaut" horiz-adv-x="719" d="M653 931L764 843L604 720L537 772L653 931ZM445 930L564 854L416 719L345 765L445 930ZM344 -12Q206 -12 135 37T64 177Q64 210 73 246L153 565L98 582L126 693H465L437 582L382 567L301
241Q295 218 295 200Q295 158 320 139T386 119Q435 119 459 146T498 230L582 567L534 582L562 693H817L789 582L728 565L641 215Q629 168 611 127T559 55T474 6T344 -12Z" />
<glyph unicode="&#x171;" glyph-name="uhungarumlaut" horiz-adv-x="637" d="M446 627L586 800L690 698L501 573L446 627ZM239 619L364 800L476 709L298 571L239 619ZM129 -13Q108 -13 88 -8T53 9T28 40T18 89Q18 121 31 163L106 418H45L73 521L329 550L344 542L242
196Q234 170 235 156T254 141Q279 141 302 158T349 195L455 539H655L527 109H603L572 19Q542 5 494 -4T400 -13Q364 -13 349 3T334 47Q334 66 340 90L341 94H336Q291 44 237 16T129 -13Z" />
<glyph unicode="&#x172;" glyph-name="Uogonek" horiz-adv-x="719" d="M403 -180Q387 -188 364 -192T317 -196Q257 -196 226 -174T196 -116Q196 -96 204 -80T227 -50T259 -27T296 -10Q181 -2 123 46T64 177Q64 210 73 246L153 565L98 582L126 693H465L437 582L382
567L301 241Q295 218 295 200Q295 158 320 139T386 119Q435 119 459 146T498 230L582 567L534 582L562 693H817L789 582L728 565L641 215Q632 179 619 146T586 86T536 37T461 1Q443 -5 426 -12T396 -29T374 -51T365 -80Q365 -93 374 -98T398 -104Q405 -104 410
-104T422 -102L403 -180V-180Z" />
<glyph unicode="&#x173;" glyph-name="uogonek" horiz-adv-x="637" d="M491 -180Q475 -188 452 -192T405 -196Q345 -196 314 -174T284 -116Q284 -97 292 -81T314 -52T345 -29T381 -11Q355 -7 345 8T334 47Q334 66 340 90L341 94H336Q291 44 237 16T129 -13Q108
-13 88 -8T53 9T28 40T18 89Q18 121 31 163L106 418H45L73 521L329 550L344 542L242 196Q234 170 235 156T254 141Q279 141 302 158T349 195L455 539H655L527 109H603L572 19Q544 9 525 1T490 -20Q475 -32 464 -47T453 -80Q453 -93 462 -98T486 -104Q493 -104 498
-104T510 -102L491 -180V-180Z" />
<glyph unicode="&#x174;" glyph-name="Wcircumflex" horiz-adv-x="995" d="M488 777L637 899H733L820 769L771 720L665 772L523 720L488 777ZM141 565L98 582L126 693H441L413 582L360 565L346 252H351L558 693H726L720 270H725L855 565L805 582L833 693H1093L1065
582L1013 565L749 0H531L542 384H538L359 0H134L141 565Z" />
<glyph unicode="&#x175;" glyph-name="wcircumflex" horiz-adv-x="837" d="M342 633L494 769H590L674 625L625 576L519 639L377 576L342 633ZM82 0Q90 126 94 233T99 418H32L60 521Q98 535 134 543T207 551Q249 551 272 532T295 464Q295 388 291 323T278 188H282Q311
224 341 265T399 352Q399 369 399 385T400 418H337L365 521Q403 535 430 543T493 551Q537 551 560 532T583 464Q583 385 579 321T564 188H568Q587 209 608 236T648 294T683 355T711 418H643L671 513Q700 532 728 541T794 551Q825 551 846 535T867 481Q867 426 836
361T757 230T649 104T533 0H380L392 185Q322 83 245 0H82V0Z" />
<glyph unicode="&#x176;" glyph-name="Ycircumflex" horiz-adv-x="676" d="M122 111L195 128L232 277L145 565L97 582L125 693H446L418 582L372 568L412 400H416L537 568L498 582L526 693H775L747 582L692 565L457 265L423 128L488 111L460 0H94L122 111ZM317
777L466 899H562L649 769L600 720L494 772L352 720L317 777Z" />
<glyph unicode="&#x177;" glyph-name="ycircumflex" horiz-adv-x="561" d="M26 -84Q51 -79 73 -67T113 -44Q114 -21 114 0T114 45Q114 103 113 158T108 262T102 351T95 418H30L58 521Q93 534 128 542T199 551Q243 551 263 535T291 481Q296 449 298 407T301 320Q301
270 299 220T294 122H298Q322 158 344 198T385 277T417 353T435 418H363L391 513Q417 530 447 540T515 551Q544 551 564 534T585 471Q585 415 561 346T496 206T402 69T291 -49Q206 -123 133 -161T-7 -199Q-40 -199 -61 -193T-96 -174T-116 -145T-122 -107Q-122
-78 -107 -54T-76 -18H40L26 -84ZM198 633L350 769H446L530 625L481 576L375 639L233 576L198 633Z" />
<glyph unicode="&#x178;" glyph-name="Ydieresis" horiz-adv-x="676" d="M122 111L195 128L232 277L145 565L97 582L125 693H446L418 582L372 568L412 400H416L537 568L498 582L526 693H775L747 582L692 565L457 265L423 128L488 111L460 0H94L122 111ZM382 726Q342
726 317 747T292 805Q292 827 300 844T323 874T356 892T395 898Q436 898 460 877T485 819Q485 796 477 779T454 750T422 732T382 726ZM601 726Q561 726 536 747T511 805Q511 827 519 844T542 874T575 892T614 898Q655 898 679 877T704 819Q704 796 696 779T673
750T641 732T601 726Z" />
<glyph unicode="&#x179;" glyph-name="Zacute" horiz-adv-x="614" d="M-7 137L410 559V563H280L218 458H83L148 693H704L670 556L252 134V130H393L468 259H600L528 0H-41L-7 137ZM312 810L555 913L586 771L330 722L312 810Z" />
<glyph unicode="&#x17a;" glyph-name="zacute" horiz-adv-x="544" d="M82 -9Q28 -8 2 12T-25 61Q-25 90 -6 113T41 158L282 353Q247 371 219 393T177 428L153 349H61Q56 357 53 368T49 391Q49 428 62 457T97 508T150 540T215 551Q268 551 321 533T429 481L469
548Q488 547 506 544T539 533T562 515T571 489Q571 463 557 443T510 398L244 187Q292 179 329 168T399 146L396 210H517Q515 166 502 126T467 54T413 5T341 -13Q314 -13 284 -4T225 18T171 46T126 73H121L82 -9V-9ZM220 665L457 782L496 642L243 578L220 665Z"
/>
<glyph unicode="&#x17b;" glyph-name="Zdotaccent" horiz-adv-x="614" d="M442 724Q397 724 369 747T340 811Q340 836 350 855T376 888T413 907T456 914Q501 914 529 891T558 827Q558 801 549 782T523 750T485 731T442 724ZM-7 137L410 559V563H280L218 458H83L148
693H704L670 556L252 134V130H393L468 259H600L528 0H-41L-7 137Z" />
<glyph unicode="&#x17c;" glyph-name="zdotaccent" horiz-adv-x="544" d="M358 573Q313 573 285 596T256 660Q256 685 266 704T292 737T329 756T372 763Q417 763 445 740T474 676Q474 650 465 631T439 599T401 580T358 573ZM82 -9Q28 -8 2 12T-25 61Q-25 90 -6
113T41 158L282 353Q247 371 219 393T177 428L153 349H61Q56 357 53 368T49 391Q49 428 62 457T97 508T150 540T215 551Q268 551 321 533T429 481L469 548Q488 547 506 544T539 533T562 515T571 489Q571 463 557 443T510 398L244 187Q292 179 329 168T399 146L396
210H517Q515 166 502 126T467 54T413 5T341 -13Q314 -13 284 -4T225 18T171 46T126 73H121L82 -9V-9Z" />
<glyph unicode="&#x17d;" glyph-name="Zcaron" horiz-adv-x="614" d="M-7 137L410 559V563H280L218 458H83L148 693H704L670 556L252 134V130H393L468 259H600L528 0H-41L-7 137ZM621 845L472 723H376L289 853L338 902L444 850L586 902L621 845Z" />
<glyph unicode="&#x17e;" glyph-name="zcaron" horiz-adv-x="544" d="M82 -9Q28 -8 2 12T-25 61Q-25 90 -6 113T41 158L282 353Q247 371 219 393T177 428L153 349H61Q56 357 53 368T49 391Q49 428 62 457T97 508T150 540T215 551Q268 551 321 533T429 481L469
548Q488 547 506 544T539 533T562 515T571 489Q571 463 557 443T510 398L244 187Q292 179 329 168T399 146L396 210H517Q515 166 502 126T467 54T413 5T341 -13Q314 -13 284 -4T225 18T171 46T126 73H121L82 -9V-9ZM211 727L260 776L366 713L508 776L543 719L391
583H295L211 727Z" />
<glyph unicode="&#x192;" glyph-name="florin" horiz-adv-x="452" d="M72 414H145L170 515Q195 615 252 657T399 699Q450 699 478 692T524 673L503 551Q492 554 483 556T460 558Q422 558 406 543T380 492L360 414H463L435 295H331L250 -30Q231 -107 178 -145T49
-183Q7 -183 -23 -175T-63 -161L-43 -41Q-32 -46 -16 -46Q10 -46 23 -34T43 5L115 295H44L72 414Z" />
<glyph unicode="&#x1fa;" glyph-name="Aringacute" horiz-adv-x="743" d="M-23 111L33 128L391 693H606L651 128L700 111L672 0H322L350 111L416 128L412 200H236L195 128L252 111L224 0H-51L-23 111ZM298 308H407L400 477H395L298 308ZM505 711Q478 711 457 719T420
743T397 777T388 820Q388 846 398 868T426 906T467 932T518 942Q572 942 603 911T634 835Q634 809 624 786T597 747T556 721T505 711ZM508 777Q530 777 543 791T557 833Q557 850 547 863T514 876Q492 876 479 862T465 822Q465 803 475 790T508 777ZM400 1033L643
1136L674 994L418 945L400 1033Z" />
<glyph unicode="&#x1fb;" glyph-name="aringacute" horiz-adv-x="617" d="M139 -13Q111 -13 87 -5T44 21T15 70T4 145Q4 224 32 295T109 420T220 505T351 537Q383 537 406 528T442 507H447L478 539H636L508 109H583L552 19Q522 5 475 -4T381 -13Q343 -13 330 4T316
48Q316 63 319 80L320 86H315Q278 36 234 12T139 -13ZM250 121Q269 121 289 136T324 168L393 403Q379 420 351 420Q331 420 308 402T266 351T233 271T219 167Q219 121 250 121ZM413 577Q386 577 365 585T328 609T305 643T296 686Q296 712 306 734T334 772T375 798T426
808Q480 808 511 777T542 701Q542 675 532 652T505 613T464 587T413 577ZM416 643Q438 643 451 657T465 699Q465 716 455 729T422 742Q400 742 387 728T373 688Q373 669 383 656T416 643ZM313 899L556 1002L587 860L331 811L313 899Z" />
<glyph unicode="&#x1fc;" glyph-name="AEacute" horiz-adv-x="1001" d="M-23 111L35 129L438 576L373 582L401 693H1060L1028 473H902L892 568H752L713 412H748L775 469H875L820 234H726L721 293H683L641 125H792L859 241H988L923 0H322L350 111L418 128L434 192H253L200
129L275 111L247 0H-51L-23 111ZM461 300L509 492L345 300H461ZM632 810L875 913L906 771L650 722L632 810Z" />
<glyph unicode="&#x1fd;" glyph-name="aeacute" horiz-adv-x="812" d="M137 -13Q99 -13 72 -4T28 22T2 61T-6 109Q-6 154 7 186T48 241T118 277T221 299L309 310L317 342Q322 365 322 378Q322 407 307 419T265 432Q250 432 243 430T229 426L210 360H101Q89 368
78 383T67 416Q67 473 124 512T301 551Q361 551 401 535T464 491Q538 551 645 551Q686 551 721 543T781 517T821 475T836 415Q836 377 820 344T764 285T657 242T486 218V213Q486 173 506 150T581 126Q617 126 661 135T747 158L720 49Q683 21 629 4T503 -13Q432
-13 384 10T310 77Q273 31 226 9T137 -13ZM614 437Q599 437 583 427T553 400T525 359T503 310Q548 313 575 322T617 346T637 377T642 410Q642 437 614 437ZM285 184Q285 195 285 204T287 224L251 223Q188 220 188 147Q188 104 226 104Q238 104 255 111T289 135Q285
155 285 184ZM383 665L620 782L659 642L406 578L383 665Z" />
<glyph unicode="&#x1fe;" glyph-name="Oslashacute" horiz-adv-x="713" d="M301 -13Q201 -13 133 31L66 -40L-3 12L72 90Q52 119 41 156T30 238Q30 333 61 418T150 566T286 667T459 705Q553 705 621 665L678 725L747 673L685 608Q733 546 733 453Q733 358 701
273T612 125T475 24T301 -13ZM325 126Q354 126 378 140T423 185Q452 230 474 293T505 420L259 162Q275 126 325 126ZM338 505Q310 460 288 403T257 284L498 537Q481 566 437 566Q408 566 383 551T338 505ZM349 810L592 913L623 771L367 722L349 810Z" />
<glyph unicode="&#x1ff;" glyph-name="oslashacute" horiz-adv-x="604" d="M247 -13Q164 -13 105 21L43 -40L-13 12L49 73Q12 125 12 202Q12 230 19 266T44 342T88 418T154 485T245 533T364 551Q406 551 440 543T501 519L554 571L612 519L560 467Q600 413 600
336Q600 308 593 272T568 196T524 120T457 53T366 5T247 -13ZM268 105Q296 105 317 124T354 173T379 238T393 304L220 133Q227 120 239 113T268 105ZM343 433Q315 433 294 414T257 366T231 303T216 237L387 406Q380 418 369 425T343 433ZM245 665L482 782L521 642L268
578L245 665Z" />
<glyph unicode="&#x218;" glyph-name="Scommaaccent" horiz-adv-x="556" d="M214 -9Q135 -9 73 5T-25 37L12 217H154L159 140Q171 134 184 130T219 126Q307 126 307 189Q307 213 287 230T228 269L203 283Q177 298 155 314T116 352T90 400T80 463Q80 509 96 552T147
628T241 682T383 703Q426 703 459 700T517 693T562 681T596 667L571 501H433L428 558Q417 564 404 567T369 571Q327 571 310 555T293 516Q293 493 311 478T368 442L393 428Q422 412 447 395T492 358T523 311T535 248Q535 191 513 144T450 63T350 10T214 -9ZM303
-35Q289 -77 268 -118T217 -191H70Q84 -156 95 -119T115 -35H303Z" />
<glyph unicode="&#x219;" glyph-name="scommaaccent" horiz-adv-x="463" d="M173 -13Q135 -13 100 -7T38 13T-5 46T-21 93Q-21 109 -16 122T-4 146T11 164T25 174H146L131 110Q139 107 151 104T180 101Q216 101 231 112T246 143Q246 162 231 175T175 207Q150 218
129 232T93 264T68 305T59 357Q59 397 77 432T129 494T207 536T308 551Q347 551 380 545T437 526T475 495T489 452Q489 429 477 409T450 374H333L344 431Q326 441 299 441Q268 441 255 429T242 398Q242 387 246 380T260 365T288 349T333 327Q356 316 375 304T407
277T428 241T436 193Q436 142 416 104T360 39T276 0T173 -13ZM512 -35Q498 -77 477 -118T426 -191H279Q293 -156 304 -119T324 -35H512Z" />
<glyph unicode="&#x21a;" glyph-name="uni021A" horiz-adv-x="672" d="M122 111L196 128L305 564H253L199 449H63L130 693H760L711 449H580L579 564H533L424 128L490 111L462 0H94L122 111ZM364 -35Q350 -77 329 -118T278 -191H131Q145 -156 156 -119T176 -35H364Z" />
<glyph unicode="&#x21b;" glyph-name="uni021B" horiz-adv-x="378" d="M72 515L144 538L180 658H372L339 539H435L400 418H306L233 152Q227 131 233 121T263 111Q280 111 294 113T328 120L295 15Q269 4 232 -4T136 -13Q81 -13 49 8T17 77Q17 101 26 133L109 418H46L72
515ZM466 -35Q452 -77 431 -118T380 -191H233Q247 -156 258 -119T278 -35H466Z" />
<glyph unicode="&#x237;" glyph-name="uni0237" horiz-adv-x="326" d="M-88 -100Q-75 -100 -64 -96T-41 -80T-19 -44T3 18L116 418H45L73 521L339 550L354 542L218 65Q197 -8 165 -58T93 -140T8 -185T-84 -199Q-150 -199 -181 -174T-213 -110Q-213 -84 -200 -64T-172
-33H-76L-88 -100Z" />
<glyph unicode="&#x2c6;" glyph-name="circumflex" horiz-adv-x="500" d="M180 633L332 769H428L512 625L463 576L357 639L215 576L180 633Z" />
<glyph unicode="&#x2c7;" glyph-name="caron" horiz-adv-x="500" d="M203 727L252 776L358 713L500 776L535 719L383 583H287L203 727Z" />
<glyph unicode="&#x2d8;" glyph-name="breve" horiz-adv-x="500" d="M354 586Q313 586 284 599T237 633T212 683T207 741H322Q322 726 333 717T365 707Q385 707 400 716T420 741H537Q530 708 515 680T477 631T424 598T354 586Z" />
<glyph unicode="&#x2d9;" glyph-name="dotaccent" horiz-adv-x="500" d="M348 573Q303 573 275 596T246 660Q246 685 256 704T282 737T319 756T362 763Q407 763 435 740T464 676Q464 650 455 631T429 599T391 580T348 573Z" />
<glyph unicode="&#x2da;" glyph-name="ring" horiz-adv-x="500" d="M356 577Q329 577 308 585T271 609T248 643T239 686Q239 712 249 734T277 772T318 798T369 808Q423 808 454 777T485 701Q485 675 475 652T448 613T407 587T356 577ZM359 643Q381 643 394 657T408
699Q408 716 398 729T365 742Q343 742 330 728T316 688Q316 669 326 656T359 643Z" />
<glyph unicode="&#x2db;" glyph-name="ogonek" horiz-adv-x="550" d="M270 -180Q254 -188 231 -192T184 -196Q124 -196 93 -174T63 -116Q63 -92 75 -73T107 -40T150 -16T195 0H293Q285 -6 275 -14T255 -33T239 -55T232 -80Q232 -93 241 -98T265 -104Q272 -104
277 -104T289 -102L270 -180V-180Z" />
<glyph unicode="&#x2dc;" glyph-name="tilde" horiz-adv-x="500" d="M162 635Q191 680 230 710T314 740Q331 740 345 736T373 726T397 716T421 711Q455 711 481 742L548 689Q520 644 481 614T396 584Q379 584 365 588T337 598T313 608T289 613Q255 613 229 582L162 635Z" />
<glyph unicode="&#x2dd;" glyph-name="hungarumlaut" horiz-adv-x="500" d="M391 627L531 800L635 698L446 573L391 627ZM184 619L309 800L421 709L243 571L184 619Z" />
</font>
</defs>
</svg>
