<?xml version="1.0" standalone="no"?> <!DOCTYPE svg PUBLIC "-//W3C//DTD SVG 1.0//EN" "http://www.w3.org/TR/2001/REC-SVG-20010904/DTD/svg10.dtd" > <svg xmlns="http://www.w3.org/2000/svg" width="100%" height="100%">
<defs >
<font horiz-adv-x="374" ><font-face
    font-family=""
    units-per-em="1000"
    panose-1="2 11 11 3 3 2 2 6 2 3"
    ascent="809"
    descent="-191"
    alphabetic="0" />
<missing-glyph horiz-adv-x="417" />
<glyph unicode=" " glyph-name="space" horiz-adv-x="155" />
<glyph unicode="!" glyph-name="exclam" horiz-adv-x="154" d="M71 154V693H83V154H71ZM83 42V0H71V42H83Z" />
<glyph unicode="&quot;" glyph-name="quotedbl" horiz-adv-x="170" d="M45 562V693H58L57 562H45ZM113 562L112 693H125V562H113Z" />
<glyph unicode="#" glyph-name="numbersign" horiz-adv-x="389" d="M364 453H290L264 262H336V251H262L229 0H217L250 251H106L73 0H61L94 251H22V262H96L121 453H49V465H123L154 693H166L135 465H279L310 693H322L291 465H364V453ZM108 262H252L277 453H134L108 262Z" />
<glyph unicode="$" glyph-name="dollar" horiz-adv-x="395" d="M236 766L230 698Q256 696 278 690Q312 681 332 669V656Q312 668 278 678Q255 684 229 687L204 365L216 361Q249 349 275 334T320 298T349 247T359 175Q359 89 317 42T179 -6H174L165 -117H153L162
-5Q126 -4 95 5Q57 16 31 32V44Q60 27 97 16Q127 7 163 5L191 357L177 363Q138 377 112 393T71 430T48 477T41 540Q41 574 50 603T79 653T129 687T201 699H219L224 766H236ZM179 5Q267 5 307 49T347 175Q347 216 338 244T311 291T268 324T212 350L203 353L175 5H179ZM201
688Q162 688 134 677T88 646T62 599T53 541Q53 506 59 481T80 436T119 402T180 374L192 369L218 687Q209 688 201 688Z" />
<glyph unicode="%" glyph-name="percent" horiz-adv-x="595" d="M268 526Q268 444 235 402T147 360Q93 360 60 401T26 526V532Q26 614 59 656T147 699Q201 699 234 657T268 532V526ZM255 533Q255 609 226 648T147 687Q98 687 69 648T39 533V526Q39 449 68 410T147
371Q196 371 225 410T255 526V533ZM568 160Q568 77 535 36T447 -6Q393 -6 360 35T327 160V166Q327 248 360 290T447 332Q502 332 535 291T568 166V160ZM556 166Q556 243 527 282T447 321Q399 321 370 282T340 166V160Q340 83 369 44T447 5Q497 5 526 44T556 160V166ZM498
713L107 -40H93L484 713H498Z" />
<glyph unicode="&amp;" glyph-name="ampersand" horiz-adv-x="479" d="M445 303Q442 239 427 183Q416 138 395 102L470 0H455L389 91L385 85Q357 43 314 19T212 -6Q127 -6 78 42T28 178Q28 217 38 247T69 303T117 351Q142 370 172 389L155 413Q130 448 113 485T95
564Q95 632 129 665T218 699Q275 699 305 665T336 570Q336 532 323 505T288 455T240 416Q214 400 189 385L387 113Q405 146 416 187Q430 241 433 303H445ZM128 346Q102 326 83 302T52 247T41 178Q40 98 85 52T212 5Q268 5 308 28T375 92Q378 97 381 101L179 380Q152
364 128 346ZM232 424Q258 441 278 461T311 508T324 570Q324 624 297 656T218 688Q170 688 139 658T108 564Q108 524 124 489T165 419L182 394Q208 409 232 424Z" />
<glyph unicode="&apos;" glyph-name="quotesingle" horiz-adv-x="103" d="M45 562V693H58L57 562H45Z" />
<glyph unicode="(" glyph-name="parenleft" horiz-adv-x="210" d="M57 297Q57 230 68 171T99 59T144 -38T197 -120H183Q156 -84 131 -40T87 57T57 169T45 298V316Q45 384 56 444T87 556T131 653T183 734H197Q169 697 144 652T100 555T69 444T57 317V297Z" />
<glyph unicode=")" glyph-name="parenright" horiz-adv-x="210" d="M152 316Q152 383 141 442T110 554T66 652T13 734H27Q54 697 79 653T123 557T153 444T165 316V297Q165 229 154 169T123 57T79 -40T27 -120H13Q41 -83 66 -39T110 58T140 170T152 297V316Z" />
<glyph unicode="*" glyph-name="asterisk" horiz-adv-x="265" d="M138 460H126V566L36 512L30 522L121 577L30 632L36 642L126 587V693H138V587L228 642L234 632L143 577L234 522L228 512L138 566V460Z" />
<glyph unicode="+" glyph-name="plus" horiz-adv-x="384" d="M198 192H186V347H45V359H186V511H198V359H339V347H198V192Z" />
<glyph unicode="," glyph-name="comma" horiz-adv-x="112" d="M73 38L44 -93H32L60 38H73Z" />
<glyph unicode="-" glyph-name="hyphen" horiz-adv-x="235" d="M45 268H188V257H45V268Z" />
<glyph unicode="." glyph-name="period" horiz-adv-x="117" d="M65 42V0H52V42H65Z" />
<glyph unicode="/" glyph-name="slash" horiz-adv-x="243" d="M224 733L14 -120H1L212 733H224Z" />
<glyph unicode="0" glyph-name="zero" horiz-adv-x="492" d="M453 317Q453 155 400 75T246 -6Q146 -6 93 74T39 318V375Q39 538 92 618T246 699Q346 699 399 619T453 376V317ZM441 377Q441 532 391 610T246 688Q151 688 101 610T51 376V317Q51 161 101 83T246
5Q341 5 391 83T441 316V377Z" />
<glyph unicode="1" glyph-name="one" horiz-adv-x="228" d="M128 0V682L15 644V655L133 696H141V0H128Z" />
<glyph unicode="2" glyph-name="two" horiz-adv-x="385" d="M350 0H24V11L189 237Q218 273 244 307T289 376T320 445T331 519Q331 688 177 688Q131 688 98 676T39 648V660Q63 675 96 687T177 699Q259 699 301 654T344 519Q344 479 333 443T302 373T256 303T199
230L40 12V11H350V0Z" />
<glyph unicode="3" glyph-name="three" horiz-adv-x="390" d="M113 375H166Q195 375 221 384T267 412T298 460T310 532Q310 609 273 648T161 688Q121 688 92 679T42 657V668Q61 680 90 689T161 699Q241 699 282 657T323 532Q323 494 314 467T290 420T254 388T212
371V370Q239 366 263 354T306 321T336 267T347 191Q347 95 300 45T161 -6Q110 -6 78 3T22 27V39Q51 25 82 15T161 5Q249 5 292 55T335 191Q335 283 289 323T165 363H113V375Z" />
<glyph unicode="4" glyph-name="four" horiz-adv-x="421" d="M300 0V204H17V215L300 693H312V216H404V204H312V0H300ZM31 217V216H300V666H298L31 217Z" />
<glyph unicode="5" glyph-name="five" horiz-adv-x="383" d="M321 682H82L64 396Q78 400 101 403T150 406Q195 406 231 396T291 363T329 301T342 206Q342 105 297 50T159 -6Q117 -6 81 3T22 28V40Q81 5 159 5Q244 5 286 56T329 206Q329 259 317 295T282 354T226
385T150 395Q118 395 94 391T50 381L71 693H321V682Z" />
<glyph unicode="6" glyph-name="six" horiz-adv-x="440" d="M374 664Q355 674 327 680T267 687Q214 687 174 668T107 607T66 498T51 336Q77 360 121 381T226 403Q308 403 357 357T406 211Q406 105 362 50T235 -6Q183 -6 146 16T85 78T50 173T39 294V335Q39 433
53 502T97 615T168 679T267 699Q301 699 328 693T374 676V664ZM225 391Q165 391 123 370T51 323V294Q51 232 61 179T93 88T150 28T235 6Q311 6 352 57T394 211Q394 304 349 347T225 391Z" />
<glyph unicode="7" glyph-name="seven" horiz-adv-x="358" d="M78 1L328 680V682H14V693H342V680L92 -1L78 1Z" />
<glyph unicode="8" glyph-name="eight" horiz-adv-x="433" d="M377 546Q377 509 364 481T329 431T281 393T230 365Q266 349 297 331T351 290T387 237T400 167Q400 129 388 98T353 43T295 7T218 -6Q172 -6 138 7T80 43T45 97T33 166Q33 206 47 236T86 291T140 333T201
365Q128 397 91 439T54 546Q54 614 97 656T215 699Q290 699 333 659T377 546ZM387 167Q387 206 374 235T338 286T283 325T215 359Q184 345 154 328T99 287T60 234T45 166Q45 131 56 102T88 51T142 17T218 5Q258 5 289 17T343 51T376 102T387 167ZM67 546Q67 482
104 443T217 371Q241 383 267 398T314 434T350 482T365 546Q365 614 324 651T215 688Q147 688 107 649T67 546Z" />
<glyph unicode="9" glyph-name="nine" horiz-adv-x="439" d="M67 30Q87 20 116 13T181 5Q232 5 271 23T335 83T374 191T388 355Q362 329 318 309T217 288Q132 288 83 336T34 483Q34 587 80 643T210 699Q260 699 296 677T355 615T390 520T401 399V358Q401 257 387
188T345 75T276 13T181 -6Q143 -6 114 1T67 18V30ZM218 300Q275 300 317 321T388 369V399Q388 461 378 514T347 605T292 666T210 688Q132 688 89 636T46 483Q46 390 91 345T218 300Z" />
<glyph unicode=":" glyph-name="colon" horiz-adv-x="123" d="M68 44V0H55V44H68ZM68 357V313H55V357H68Z" />
<glyph unicode=";" glyph-name="semicolon" horiz-adv-x="123" d="M68 357V313H56V357H68ZM68 38L39 -93H27L55 38H68Z" />
<glyph unicode="&lt;" glyph-name="less" horiz-adv-x="370" d="M322 157L41 310V323L322 476V462L53 316L322 171V157Z" />
<glyph unicode="=" glyph-name="equal" horiz-adv-x="405" d="M51 394H355V383H51V394ZM355 235H51V246H355V235Z" />
<glyph unicode="&gt;" glyph-name="greater" horiz-adv-x="370" d="M48 170L317 316L48 462V476L329 323V310L48 157V170Z" />
<glyph unicode="?" glyph-name="question" horiz-adv-x="322" d="M116 154V229Q116 254 120 272T134 307T159 341T196 383Q217 405 232 423T257 461T273 500T278 547Q278 615 246 651T142 688Q107 688 78 680T25 659V671Q47 684 76 691T142 699Q219 699 255 659T291
547Q291 519 286 498T269 456T242 417T204 374Q183 352 169 336T145 304T132 271T128 229V154H116ZM128 42V0H116V42H128Z" />
<glyph unicode="@" glyph-name="at" horiz-adv-x="729" d="M555 -96Q540 -104 519 -111T472 -125T417 -135T359 -139Q201 -139 121 -51T40 215Q40 307 63 389T132 533T245 631T401 667Q476 667 531 644T622 577T675 474T692 340Q692 265 678 209T640 116T585 60T519
41Q478 41 462 63T448 112H446Q426 87 395 64T320 41Q263 41 236 80T209 194Q209 252 222 303T259 393T316 453T391 475Q431 475 456 462T495 434H496L502 468H514L462 137Q456 101 467 77T519 52Q550 52 579 69T630 123T666 213T679 340Q679 411 663 469T613 568T527
633T401 656Q317 656 252 621T143 526T76 386T53 215Q53 41 130 -43T359 -128Q422 -128 474 -113T555 -84V-96ZM494 421Q478 438 454 450T391 463Q353 463 322 442T269 385T234 299T222 194Q222 125 245 89T320 52Q342 52 361 59T397 79T427 105T449 132L494 421Z"
/>
<glyph unicode="A" glyph-name="A" horiz-adv-x="470" d="M235 668H234L107 258H362L235 668ZM27 0H14L228 693H240L455 0H442L365 247H104L27 0Z" />
<glyph unicode="B" glyph-name="B" horiz-adv-x="448" d="M384 525Q384 456 353 415T270 363V362Q299 358 325 347T370 316T401 265T413 191Q413 0 237 0H65V693H213Q301 693 342 653T384 525ZM78 355V11H237Q401 11 401 191Q401 236 389 267T353 317T296 346T221
355H78ZM78 366H221Q293 366 332 408T371 525Q371 606 334 644T213 682H78V366Z" />
<glyph unicode="C" glyph-name="C" horiz-adv-x="447" d="M404 658Q380 671 349 679T274 688Q165 688 108 611T50 367V330Q50 163 102 84T269 5Q320 5 352 16T408 42V30Q388 17 356 6T269 -6Q148 -6 93 76T38 330V367Q38 538 98 618T274 699Q319 699 349 691T404
669V658Z" />
<glyph unicode="D" glyph-name="D" horiz-adv-x="506" d="M65 693H198Q333 693 401 614T469 359V337Q469 161 403 81T200 0H65V693ZM78 11H200Q330 11 393 89T457 337V360Q457 529 392 605T198 682H78V11Z" />
<glyph unicode="E" glyph-name="E" horiz-adv-x="406" d="M380 0H65V693H379V682H78V365H314V353H78V11H380V0Z" />
<glyph unicode="F" glyph-name="F" horiz-adv-x="392" d="M78 0H65V693H370V682H78V359H308V348H78V0Z" />
<glyph unicode="G" glyph-name="G" horiz-adv-x="494" d="M420 658Q398 669 366 678T281 688Q227 688 185 670T112 614T66 514T50 367V329Q50 251 63 191T104 89T178 27T288 5Q332 5 366 13T427 31V303H287V315H439V24Q410 11 372 3T288 -6Q220 -6 173 16T95 81T52
186T38 330V366Q38 456 55 519T103 622T180 680T281 699Q336 699 367 690T420 670V658Z" />
<glyph unicode="H" glyph-name="H" horiz-adv-x="515" d="M78 0H65V693H78V367H437V693H449V0H437V356H78V0Z" />
<glyph unicode="I" glyph-name="I" horiz-adv-x="147" d="M80 693V0H67V693H80Z" />
<glyph unicode="J" glyph-name="J" horiz-adv-x="278" d="M11 19Q24 14 45 10T87 6Q147 6 176 36T205 132V693H218V132Q218 -5 87 -5Q64 -5 43 -1T11 8V19Z" />
<glyph unicode="K" glyph-name="K" horiz-adv-x="427" d="M398 693L138 356L409 0H395L124 355L383 693H398ZM78 693V0H65V693H78Z" />
<glyph unicode="L" glyph-name="L" horiz-adv-x="386" d="M78 693V11H365V0H65V693H78Z" />
<glyph unicode="M" glyph-name="M" horiz-adv-x="628" d="M550 0V672H549L321 0H307L79 672H78V0H65V693H85L313 17H314L543 693H562V0H550Z" />
<glyph unicode="N" glyph-name="N" horiz-adv-x="518" d="M452 693V0H437L79 669H78V0H65V693H81L438 25H439V693H452Z" />
<glyph unicode="O" glyph-name="O" horiz-adv-x="537" d="M268 -6Q157 -6 98 79T38 336V358Q38 528 97 613T268 699Q379 699 439 614T499 358V335Q499 167 440 81T268 -6ZM268 5Q374 5 430 88T487 335V358Q487 524 430 606T268 688Q162 688 106 606T50 358V336Q50
170 107 88T268 5Z" />
<glyph unicode="P" glyph-name="P" horiz-adv-x="412" d="M65 0V693H191Q297 693 340 645T384 503Q384 312 198 312H78V0H65ZM198 323Q372 323 372 503Q372 591 332 636T191 682H78V323H198Z" />
<glyph unicode="Q" glyph-name="Q" horiz-adv-x="537" d="M216 -1Q176 9 143 34T87 100T51 199T38 336V358Q38 528 97 613T268 699Q379 699 439 614T499 358V335Q499 173 442 85T276 -5L522 -68L519 -80L216 -1ZM50 336Q50 170 108 88T269 5Q375 5 431 88T487
335V358Q487 524 430 606T268 688Q162 688 106 606T50 358V336Z" />
<glyph unicode="R" glyph-name="R" horiz-adv-x="436" d="M78 0H65V693H213Q302 693 342 647T383 512Q383 435 353 388T250 330V329L420 0H407L236 328Q233 327 225 327H78V0ZM217 338Q259 338 288 351T335 387T362 442T370 512Q370 595 333 638T213 682H78V338H217Z" />
<glyph unicode="S" glyph-name="S" horiz-adv-x="398" d="M29 46Q58 29 96 17T182 5Q270 5 309 51T348 176Q348 215 338 243T310 291T267 324T212 350L177 364Q139 378 113 394T71 431T47 479T39 542Q39 575 48 603T78 653T128 687T200 699Q245 699 278 690T332
669V657Q312 669 279 678T200 688Q161 688 133 677T87 646T61 600T52 543Q52 508 58 483T80 438T121 404T182 375L216 361Q249 348 276 333T321 297T350 247T361 176Q361 93 318 44T181 -6Q134 -6 95 6T29 34V46Z" />
<glyph unicode="T" glyph-name="T" horiz-adv-x="412" d="M212 0H200V682H14V693H399V682H212V0Z" />
<glyph unicode="U" glyph-name="U" horiz-adv-x="505" d="M253 -6Q158 -6 110 45T62 206V693H74V206Q74 102 119 54T253 5Q342 5 386 54T431 206V693H444V206Q444 -6 253 -6Z" />
<glyph unicode="V" glyph-name="V" horiz-adv-x="458" d="M14 693H27L228 22H229L432 693H445L235 0H222L14 693Z" />
<glyph unicode="W" glyph-name="W" horiz-adv-x="686" d="M17 693H30L178 23H179L337 693H351L508 23H509L656 693H669L516 0H501L345 668H344L186 0H171L17 693Z" />
<glyph unicode="X" glyph-name="X" horiz-adv-x="435" d="M30 0H17L212 360L34 693H47L219 372L393 693H406L225 360L419 0H405L219 348L30 0Z" />
<glyph unicode="Y" glyph-name="Y" horiz-adv-x="424" d="M206 300L10 693H24L212 316H213L400 693H414L218 300V0H206V300Z" />
<glyph unicode="Z" glyph-name="Z" horiz-adv-x="420" d="M28 10L374 682H50V693H389V683L43 12V11H390V0H28V10Z" />
<glyph unicode="[" glyph-name="bracketleft" horiz-adv-x="221" d="M196 722H77V-109H196V-120H65V734H196V722Z" />
<glyph unicode="\" glyph-name="backslash" horiz-adv-x="240" d="M28 734L238 -120H226L16 734H28Z" />
<glyph unicode="]" glyph-name="bracketright" horiz-adv-x="221" d="M25 -109H144V722H25V734H156V-120H25V-109Z" />
<glyph unicode="^" glyph-name="asciicircum" horiz-adv-x="336" d="M38 459L162 693H175L298 459H284L168 679L52 459H38Z" />
<glyph unicode="_" glyph-name="underscore" horiz-adv-x="255" d="M253 -80H2V-69H253V-80Z" />
<glyph unicode="`" glyph-name="grave" horiz-adv-x="384" d="M186 586L119 709H132L199 586H186Z" />
<glyph unicode="a" glyph-name="a" horiz-adv-x="356" d="M289 0V39H288Q275 26 244 10T161 -6Q98 -6 62 29T26 130Q26 192 57 224T154 267L289 289V374Q289 441 261 468T174 496Q143 496 115 490T64 472V484Q87 494 115 500T175 507Q238 507 270 477T302 374V0H289ZM161
5Q209 5 240 21T289 54V278L156 256Q95 245 67 216T39 130Q39 70 71 38T161 5Z" />
<glyph unicode="b" glyph-name="b" horiz-adv-x="415" d="M69 734V457H70Q96 474 132 490T220 507Q257 507 287 496T338 458T370 386T382 271V250Q382 119 335 57T194 -6Q152 -6 118 1T57 20V734H69ZM220 496Q171 496 134 480T69 443V28Q92 18 122 12T194 5Q281
5 325 64T370 249V271Q370 336 360 379T330 449T282 485T220 496Z" />
<glyph unicode="c" glyph-name="c" horiz-adv-x="349" d="M322 467Q299 482 273 489T210 496Q174 496 143 484T90 445T56 373T43 265V237Q43 129 82 67T210 5Q255 5 283 17T328 41V28Q311 17 284 6T210 -6Q116 -6 74 59T31 238V264Q31 331 44 377T80 452T137 494T211
507Q282 507 322 479V467Z" />
<glyph unicode="d" glyph-name="d" horiz-adv-x="413" d="M344 0V47H343Q320 28 287 11T199 -6Q163 -6 132 7T79 50T44 126T31 241V262Q31 389 78 448T214 507Q260 507 291 496T344 470V734H356V0H344ZM200 5Q252 5 287 24T344 62V457Q323 472 292 484T214 496Q132
496 88 440T44 263V241Q44 177 55 132T87 59T136 18T200 5Z" />
<glyph unicode="e" glyph-name="e" horiz-adv-x="388" d="M43 263V244Q43 5 221 5Q261 5 293 14T346 35V23Q329 14 296 4T220 -6Q126 -6 79 55T31 245V264Q31 328 43 374T78 450T133 493T203 507Q284 507 322 449T360 275V263H43ZM347 275Q347 386 312 441T203
496Q133 496 90 444T44 275H347Z" />
<glyph unicode="f" glyph-name="f" horiz-adv-x="223" d="M210 489H98V0H85V489H15V500H85V602Q85 664 113 701T199 738Q222 738 237 735T262 726V715Q251 720 236 723T199 726Q148 726 123 694T98 602V500H210V489Z" />
<glyph unicode="g" glyph-name="g" horiz-adv-x="386" d="M377 491H264Q296 475 314 443T333 361V344Q333 272 293 235T188 197Q144 197 113 215Q94 196 84 178T73 138Q73 115 89 99T138 82H246Q276 82 301 75T344 53T372 14T383 -44Q383 -111 337 -152T192 -194Q145
-194 112 -183T57 -154T26 -111T16 -61Q16 -9 45 22T115 73V74Q89 79 75 95T60 138Q60 160 71 180T104 220Q77 237 62 268T46 345V360Q46 431 86 469T188 507Q200 507 211 506T233 502H377V491ZM136 71Q114 62 95 50T60 22T37 -14T28 -61Q28 -85 37 -107T65 -146T116
-173T192 -183Q284 -183 327 -145T371 -44Q371 -12 362 10T336 45T296 65T246 71H136ZM188 208Q248 208 284 242T320 344V361Q320 431 284 463T188 496Q131 496 95 462T58 361V344Q58 277 95 243T188 208Z" />
<glyph unicode="h" glyph-name="h" horiz-adv-x="412" d="M69 734V452H70Q107 475 149 491T237 507Q358 507 358 395V0H345V395Q345 496 237 496Q192 496 150 480T69 438V0H57V734H69Z" />
<glyph unicode="i" glyph-name="i" horiz-adv-x="126" d="M69 500V0H57V500H69ZM69 658V617H57V658H69Z" />
<glyph unicode="j" glyph-name="j" horiz-adv-x="128" d="M71 658V617H59V658H71ZM71 500V-90Q71 -145 50 -169T-18 -194Q-41 -194 -59 -188V-177Q-51 -179 -41 -181T-19 -183Q23 -183 41 -162T59 -90V500H71Z" />
<glyph unicode="k" glyph-name="k" horiz-adv-x="339" d="M69 734V0H57V734H69ZM309 500L118 265L328 0H312L103 265L294 500H309Z" />
<glyph unicode="l" glyph-name="l" horiz-adv-x="126" d="M69 734V0H57V734H69Z" />
<glyph unicode="m" glyph-name="m" horiz-adv-x="648" d="M69 500V452H70Q108 476 146 491T224 507Q300 507 323 450H324Q366 478 404 492T482 507Q536 507 565 480T594 394V0H581V394Q581 446 556 471T482 496Q443 496 406 481T326 439Q328 431 330 420T332 394V0H319V394Q319
447 296 471T224 496Q184 496 146 480T69 439V0H57V500H69Z" />
<glyph unicode="n" glyph-name="n" horiz-adv-x="412" d="M69 500V451H70Q108 475 150 491T237 507Q358 507 358 395V0H345V395Q345 496 237 496Q192 496 150 480T69 438V0H57V500H69Z" />
<glyph unicode="o" glyph-name="o" horiz-adv-x="416" d="M373 265Q373 325 361 368T327 440T274 482T206 496Q134 496 89 438T43 261V236Q43 177 55 134T88 62T140 19T208 5Q281 5 327 62T373 240V265ZM386 240Q386 177 373 131T336 55T280 9T208 -6Q169 -6 136
8T80 52T43 128T30 237V261Q30 324 43 370T79 447T135 492T206 507Q246 507 279 493T336 449T373 373T386 264V240Z" />
<glyph unicode="p" glyph-name="p" horiz-adv-x="414" d="M69 500V454H70Q100 475 135 491T221 507Q258 507 288 496T339 457T371 384T382 270V250Q382 117 336 56T198 -6Q159 -6 127 4T69 32V-191H57V500H69ZM221 496Q173 496 136 480T69 441V45Q95 27 127 16T198
5Q284 5 327 63T370 249V271Q370 335 360 378T331 447T284 485T221 496Z" />
<glyph unicode="q" glyph-name="q" horiz-adv-x="411" d="M342 -191V44H341Q317 24 284 9T199 -6Q162 -6 132 6T79 47T44 120T31 232V254Q31 386 77 446T216 507Q262 507 297 498T355 476V-191H342ZM200 5Q250 5 284 21T342 58V468Q319 480 288 488T216 496Q131
496 88 438T44 255V232Q44 169 55 126T87 56T136 17T200 5Z" />
<glyph unicode="r" glyph-name="r" horiz-adv-x="241" d="M69 500V438H70Q93 463 127 484T205 506Q212 506 218 506T229 504V493Q224 494 218 494T205 495Q184 495 165 489T129 472T97 449T69 423V0H57V500H69Z" />
<glyph unicode="s" glyph-name="s" horiz-adv-x="315" d="M266 472Q246 483 219 489T160 496Q103 496 75 467T47 391Q47 368 51 351T66 320T93 297T132 278L181 260Q233 240 259 212T286 126Q286 100 279 76T255 34T213 5T151 -6Q105 -6 76 4T27 25V37Q49 26 78
16T151 5Q184 5 207 15T245 41T267 80T274 126Q274 153 268 172T250 205T220 229T176 249L127 268Q79 286 57 312T34 391Q34 442 66 474T159 507Q196 507 222 500T266 483V472Z" />
<glyph unicode="t" glyph-name="t" horiz-adv-x="249" d="M173 -3Q125 -3 105 18T85 85V489H17V500H85V620H98V500H224V489H98V86Q98 45 114 27T173 8Q188 8 203 11T229 18V7Q220 3 205 0T173 -3Z" />
<glyph unicode="u" glyph-name="u" horiz-adv-x="410" d="M340 0V49H339Q304 26 262 10T177 -6Q56 -6 56 108V500H68V108Q68 5 178 5Q221 5 264 22T340 62V500H353V0H340Z" />
<glyph unicode="v" glyph-name="v" horiz-adv-x="369" d="M28 500L184 19H185L340 500H353L191 0H178L16 500H28Z" />
<glyph unicode="w" glyph-name="w" horiz-adv-x="566" d="M29 500L149 23H150L278 500H290L415 23H416L537 500H549L422 0H408L285 475H284L156 0H143L17 500H29Z" />
<glyph unicode="x" glyph-name="x" horiz-adv-x="346" d="M27 0H14L167 258L23 500H36L173 268L310 500H323L179 258L332 0H319L173 247L27 0Z" />
<glyph unicode="y" glyph-name="y" horiz-adv-x="369" d="M28 500L192 23H193L344 500H357L167 -95Q152 -145 132 -170T67 -195Q55 -195 44 -193T26 -189V-177Q34 -179 45 -181T67 -183Q105 -183 123 -162T155 -94L186 2L16 500H28Z" />
<glyph unicode="z" glyph-name="z" horiz-adv-x="332" d="M311 0H21V10L296 488V489H34V500H311V490L36 12V11H311V0Z" />
<glyph unicode="{" glyph-name="braceleft" horiz-adv-x="243" d="M217 726Q185 724 165 713T133 685T117 646T112 598V416Q112 354 87 331Q69 314 44 308Q52 307 59 304Q75 299 87 287T105 254T112 202V20Q112 -5 116 -27T132 -67T164 -95T217 -108V-120Q180
-117 157 -105T122 -74T105 -31T100 20V202Q100 232 94 250T77 280T51 296T16 302V315Q35 316 50 321T77 337T94 367T100 416V598Q100 625 104 649T121 692T157 723T217 738V726Z" />
<glyph unicode="|" glyph-name="bar" horiz-adv-x="182" d="M97 734V-120H85V734H97Z" />
<glyph unicode="}" glyph-name="braceright" horiz-adv-x="243" d="M26 738Q63 735 86 723T122 692T139 649T144 598V416Q144 386 150 368T167 338T193 322T227 316V303Q208 301 193 297T167 281T150 251T144 202V20Q144 -7 140 -31T122 -74T86 -105T26 -120V-108Q58
-106 78 -95T110 -67T126 -28T131 20V202Q131 233 137 253T156 287T184 305Q191 308 198 309Q191 311 184 313Q168 319 156 331T138 364T131 416V598Q131 623 127 645T112 685T80 713T26 726V738Z" />
<glyph unicode="~" glyph-name="asciitilde" horiz-adv-x="363" d="M250 260Q230 260 213 268T180 287T148 307T113 316Q87 316 74 301T57 261H45Q49 290 66 308T113 327Q133 327 150 318T184 299T216 280T250 271Q276 271 289 286T306 325H318Q315 296 298 278T250 260Z" />
<glyph unicode="&#xa0;" glyph-name="uni00A0" horiz-adv-x="155" />
<glyph unicode="&#xa1;" glyph-name="exclamdown" horiz-adv-x="154" d="M71 -120V418H83V-120H71ZM71 527V571H83V527H71Z" />
<glyph unicode="&#xa2;" glyph-name="cent" horiz-adv-x="359" d="M252 581L243 505Q262 503 278 499Q306 491 325 479V466Q302 481 275 488Q260 493 241 495L183 6Q196 5 211 5Q256 5 286 17T334 43V30Q316 18 287 6T210 -6Q195 -6 182 -4L170 -107H158L170 -2Q107
9 74 59Q31 124 31 238V264Q31 330 44 376T81 452T138 494T212 507Q222 507 231 506L240 581H252ZM211 496Q175 496 144 484T91 444T56 372T43 265V237Q43 128 83 66Q113 19 171 8L229 495Q220 496 211 496Z" />
<glyph unicode="&#xa3;" glyph-name="sterling" horiz-adv-x="419" d="M387 0H39V10Q58 20 73 33T99 67T114 115T120 183V336H44V347H120V509Q120 562 132 598T165 656T214 689T276 699Q311 699 337 692T378 676V665Q357 676 333 682T276 688Q244 688 218 679T172
648T143 593T132 509V347H316V336H132V183Q132 107 113 69T62 12V11H387V0Z" />
<glyph unicode="&#xa5;" glyph-name="yen" horiz-adv-x="420" d="M32 693L210 317H211L389 693H403L220 309H364V298H217V187H364V176H217V0H204V176H55V187H204V298H55V309H201L18 693H32Z" />
<glyph unicode="&#xa6;" glyph-name="brokenbar" horiz-adv-x="185" d="M99 272V-120H86V272H99ZM99 734V352H86V734H99Z" />
<glyph unicode="&#xa7;" glyph-name="section" horiz-adv-x="392" d="M313 664Q298 672 274 680T211 688Q145 688 115 654T84 566Q84 515 104 487T170 440L238 413Q266 402 289 391T328 363T352 325T361 272Q361 217 332 184T251 138Q286 118 302 90T319 13Q319
-51 283 -91T178 -131Q133 -131 104 -121T58 -99V-87Q75 -97 104 -108T178 -119Q241 -119 273 -83T306 13Q306 41 300 61T282 97T250 124T203 147L139 171Q85 191 59 223T32 311Q32 360 59 393T139 441Q105 459 89 488T72 566Q72 625 105 662T211 699Q249 699 274
692T313 676V664ZM208 157L223 151Q233 147 237 145Q287 156 318 187T349 272Q349 301 341 321T318 355T282 380T234 402L167 429Q159 431 154 433Q101 422 73 391T44 311Q44 259 68 230T144 181L208 157Z" />
<glyph unicode="&#xa8;" glyph-name="dieresis" horiz-adv-x="379" d="M249 654V617H237V654H249ZM128 617V654H141V617H128Z" />
<glyph unicode="&#xa9;" glyph-name="copyright" horiz-adv-x="647" d="M324 699Q388 699 441 675T532 606T592 495T614 346Q614 263 593 198T533 87T441 18T324 -6Q260 -6 207 18T116 87T56 197T35 346Q35 429 56 494T115 605T207 675T324 699ZM324 688Q263 688
212 665T125 597T68 490T47 346Q47 266 67 203T124 95T212 28T324 5Q385 5 436 28T523 95T580 202T601 346Q601 426 581 489T524 597T436 664T324 688ZM335 157Q191 157 191 339V361Q191 454 228 498T333 542Q363 542 382 537T413 524V512Q401 519 382 524T333
530Q271 530 237 489T203 361V339Q203 168 335 168Q366 168 385 175T416 190V178Q405 171 386 164T335 157Z" />
<glyph unicode="&#xaa;" glyph-name="ordfeminine" horiz-adv-x="333" d="M266 245V276H265Q251 264 223 251T153 238Q96 238 63 268T29 354Q29 413 57 441T145 479L266 497V571Q266 634 241 659T162 685Q132 685 107 679T64 664V675Q82 684 107 690T162 697Q221
697 249 669T278 571V245H266ZM153 250Q193 250 221 263T266 290V485L147 468Q91 459 66 433T41 354Q41 304 70 277T153 250Z" />
<glyph unicode="&#xab;" glyph-name="guillemotleft" horiz-adv-x="306" d="M141 67L42 249V257L141 438H153L53 253L153 67H141ZM248 67L150 249V257L248 438H261L160 253L260 67H248Z" />
<glyph unicode="&#xae;" glyph-name="registered" horiz-adv-x="350" d="M314 519Q314 601 275 644T175 688Q115 688 76 645T36 519Q36 478 46 447T76 394T120 361T175 350Q205 350 230 361T274 394T303 447T314 519ZM326 519Q326 476 315 443T283 386T235 350T175
338Q143 338 116 350T68 385T35 442T23 519Q23 562 34 596T66 652T115 687T175 699Q207 699 234 687T282 653T314 596T326 519ZM139 519H179Q218 519 218 560Q218 582 208 591T174 600H139V519ZM139 508V428H126V611H174Q200 611 215 600T230 560Q230 520 196 511V510L239
428H225L183 508H139Z" />
<glyph unicode="&#xaf;" glyph-name="macron" horiz-adv-x="400" d="M120 636H280V624H120V636Z" />
<glyph unicode="&#xb0;" glyph-name="degree" horiz-adv-x="276" d="M139 501Q179 501 203 527T228 594Q228 636 204 662T138 688Q98 688 73 662T48 594Q48 553 73 527T139 501ZM139 489Q93 489 65 518T36 594Q36 640 64 669T138 699Q184 699 212 670T240 594Q240
549 212 519T139 489Z" />
<glyph unicode="&#xb4;" glyph-name="acute" horiz-adv-x="384" d="M265 709L198 586H185L251 709H265Z" />
<glyph unicode="&#xb6;" glyph-name="paragraph" horiz-adv-x="429" d="M239 365H203Q170 365 139 373T85 401T47 453T33 532Q33 565 41 594T69 645T121 680T201 693H364V-115H351V682H251V-115H239V365Z" />
<glyph unicode="&#xb7;" glyph-name="periodcentered" horiz-adv-x="118" d="M65 332V288H53V332H65Z" />
<glyph unicode="&#xb8;" glyph-name="cedilla" horiz-adv-x="400" d="M202 0V-59Q218 -60 233 -63T259 -74T278 -94T285 -123Q285 -158 257 -178T174 -200V-189Q272 -183 272 -124Q272 -95 251 -83T190 -70V0H202Z" />
<glyph unicode="&#xba;" glyph-name="ordmasculine" horiz-adv-x="383" d="M339 480Q339 587 298 636T189 685Q125 685 85 634T44 476V455Q44 349 84 300T192 250Q224 250 251 262T297 300T328 365T339 458V480ZM352 459Q352 403 340 362T307 293T256 252T192
238Q121 238 76 290T31 455V476Q31 533 43 574T76 643T126 683T189 697Q225 697 254 684T306 645T340 577T352 480V459Z" />
<glyph unicode="&#xbb;" glyph-name="guillemotright" horiz-adv-x="306" d="M153 67L253 253L152 438H165L263 257V249L165 67H153ZM46 67L146 253L45 438H58L156 257V249L58 67H46Z" />
<glyph unicode="&#xbc;" glyph-name="onequarter" horiz-adv-x="544" d="M25 664L103 698H112V306H99V684L25 653V664ZM455 713L44 -39H31L442 713H455ZM446 127V364H445L292 128V127H446ZM458 115V0H446V115H276V125L448 390H458V127H512V115H458Z" />
<glyph unicode="&#xbd;" glyph-name="onehalf" horiz-adv-x="573" d="M456 713L45 -39H32L443 713H456ZM25 664L103 698H112V306H99V684L25 653V664ZM355 371Q366 378 387 385T434 393Q485 393 510 366T535 286Q535 244 513 207T452 126L358 12V11H537V0H342V10L444
134Q481 178 501 213T522 286Q522 333 501 357T434 382Q409 382 388 375T355 360V371Z" />
<glyph unicode="&#xbe;" glyph-name="threequarters" horiz-adv-x="602" d="M89 517H121Q156 517 178 539T201 603Q201 688 113 688Q91 688 74 683T42 670V682Q54 688 72 693T113 699Q213 699 213 603Q213 567 197 545T154 513V512Q187 505 206 481T226 413Q226
357 197 329T114 300Q86 300 66 306T31 319V331Q45 324 66 318T114 311Q162 311 188 337T214 413Q214 462 189 484T122 506H89V517ZM512 711L101 -41H88L499 711H512ZM504 127V364H503L350 128V127H504ZM516 115V0H504V115H334V125L506 390H516V127H570V115H516Z"
/>
<glyph unicode="&#xbf;" glyph-name="questiondown" horiz-adv-x="318" d="M202 418V342Q202 316 198 298T184 264T159 230T122 188Q101 166 86 148T61 111T45 72T40 25Q40 -43 72 -80T176 -117Q211 -117 240 -109T293 -88V-100Q271 -112 242 -120T176 -128Q99
-128 64 -88T28 25Q28 53 33 74T48 115T75 154T113 196Q134 218 148 235T172 267T186 300T190 342V418H202ZM190 527V571H202V527H190Z" />
<glyph unicode="&#xc0;" glyph-name="Agrave" horiz-adv-x="470" d="M235 668H234L107 258H362L235 668ZM27 0H14L228 693H240L455 0H442L365 247H104L27 0ZM226 733L177 835H191L239 733H226Z" />
<glyph unicode="&#xc1;" glyph-name="Aacute" horiz-adv-x="470" d="M235 668H234L107 258H362L235 668ZM27 0H14L228 693H240L455 0H442L365 247H104L27 0ZM225 733L274 835H287L238 733H225Z" />
<glyph unicode="&#xc2;" glyph-name="Acircumflex" horiz-adv-x="470" d="M235 668H234L107 258H362L235 668ZM27 0H14L228 693H240L455 0H442L365 247H104L27 0ZM300 730L233 809L165 730H151L228 821H238L314 730H300Z" />
<glyph unicode="&#xc3;" glyph-name="Atilde" horiz-adv-x="470" d="M235 668H234L107 258H362L235 668ZM27 0H14L228 693H240L455 0H442L365 247H104L27 0ZM133 742Q135 768 149 782T183 796Q199 796 211 790T235 775T258 761T284 754Q300 754 310 765T322 796H334Q331
771 317 757T283 742Q268 742 256 748T232 763T208 777T183 784Q168 784 157 773T144 742H133Z" />
<glyph unicode="&#xc4;" glyph-name="Adieresis" horiz-adv-x="470" d="M235 668H234L107 258H362L235 668ZM27 0H14L228 693H240L455 0H442L365 247H104L27 0ZM298 775V740H285V775H298ZM168 740V775H181V740H168Z" />
<glyph unicode="&#xc5;" glyph-name="Aring" horiz-adv-x="470" d="M235 668H234L107 258H362L235 668ZM27 0H14L228 693H240L455 0H442L365 247H104L27 0ZM232 854Q261 854 279 835T298 786Q298 757 280 738T232 718Q203 718 185 737T167 786Q167 815 185 834T232
854ZM232 843Q208 843 194 827T179 786Q179 761 193 745T232 729Q257 729 271 745T286 786Q286 810 272 826T232 843Z" />
<glyph unicode="&#xc6;" glyph-name="AE" horiz-adv-x="691" d="M360 693H665V682H378V365H600V353H378V11H665V0H365V222H128L13 0H0L360 693ZM364 674L134 234H365V674H364Z" />
<glyph unicode="&#xc7;" glyph-name="Ccedilla" horiz-adv-x="447" d="M323 -123Q323 -195 212 -200V-189Q311 -183 311 -124Q311 -95 290 -83T228 -70V-4Q129 10 84 92T38 330V367Q38 538 98 618T274 699Q319 699 349 691T404 669V658Q380 671 349 679T274 688Q165
688 108 611T50 367V330Q50 163 102 84T269 5Q320 5 352 16T408 42V30Q388 17 356 6T269 -6H255Q250 -6 240 -5V-59Q273 -61 298 -74T323 -123Z" />
<glyph unicode="&#xc8;" glyph-name="Egrave" horiz-adv-x="406" d="M226 733L177 835H191L239 733H226ZM380 0H65V693H379V682H78V365H314V353H78V11H380V0Z" />
<glyph unicode="&#xc9;" glyph-name="Eacute" horiz-adv-x="406" d="M209 733L258 835H271L222 733H209ZM380 0H65V693H379V682H78V365H314V353H78V11H380V0Z" />
<glyph unicode="&#xca;" glyph-name="Ecircumflex" horiz-adv-x="406" d="M293 730L226 809L158 730H144L221 821H231L307 730H293ZM380 0H65V693H379V682H78V365H314V353H78V11H380V0Z" />
<glyph unicode="&#xcb;" glyph-name="Edieresis" horiz-adv-x="406" d="M380 0H65V693H379V682H78V365H314V353H78V11H380V0ZM291 775V740H278V775H291ZM161 740V775H174V740H161Z" />
<glyph unicode="&#xcc;" glyph-name="Igrave" horiz-adv-x="147" d="M80 693V0H67V693H80ZM322 733L273 835H287L335 733H322Z" />
<glyph unicode="&#xcd;" glyph-name="Iacute" horiz-adv-x="147" d="M80 693V0H67V693H80ZM321 733L370 835H383L334 733H321Z" />
<glyph unicode="&#xce;" glyph-name="Icircumflex" horiz-adv-x="147" d="M80 693V0H67V693H80ZM396 730L329 809L261 730H247L324 821H334L410 730H396Z" />
<glyph unicode="&#xcf;" glyph-name="Idieresis" horiz-adv-x="147" d="M126 773V740H114V773H126ZM20 740V773H32V740H20ZM80 693V0H67V693H80Z" />
<glyph unicode="&#xd0;" glyph-name="Eth" horiz-adv-x="504" d="M11 358H64V693H197Q331 693 399 614T467 359V337Q467 161 401 81T198 0H64V347H11V358ZM198 11Q329 11 392 89T455 337V360Q455 529 391 605T197 682H76V358H248V347H76V11H198Z" />
<glyph unicode="&#xd1;" glyph-name="Ntilde" horiz-adv-x="518" d="M167 742Q169 768 183 782T217 796Q233 796 245 790T269 775T292 761T318 754Q334 754 344 765T356 796H368Q365 771 351 757T317 742Q302 742 290 748T266 763T242 777T217 784Q202 784 191
773T178 742H167ZM452 693V0H437L79 669H78V0H65V693H81L438 25H439V693H452Z" />
<glyph unicode="&#xd2;" glyph-name="Ograve" horiz-adv-x="537" d="M267 733L218 835H232L280 733H267ZM268 -6Q157 -6 98 79T38 336V358Q38 528 97 613T268 699Q379 699 439 614T499 358V335Q499 167 440 81T268 -6ZM268 5Q374 5 430 88T487 335V358Q487 524
430 606T268 688Q162 688 106 606T50 358V336Q50 170 107 88T268 5Z" />
<glyph unicode="&#xd3;" glyph-name="Oacute" horiz-adv-x="537" d="M254 733L303 835H316L267 733H254ZM268 -6Q157 -6 98 79T38 336V358Q38 528 97 613T268 699Q379 699 439 614T499 358V335Q499 167 440 81T268 -6ZM268 5Q374 5 430 88T487 335V358Q487 524
430 606T268 688Q162 688 106 606T50 358V336Q50 170 107 88T268 5Z" />
<glyph unicode="&#xd4;" glyph-name="Ocircumflex" horiz-adv-x="537" d="M335 730L268 809L200 730H186L263 821H273L349 730H335ZM268 -6Q157 -6 98 79T38 336V358Q38 528 97 613T268 699Q379 699 439 614T499 358V335Q499 167 440 81T268 -6ZM268 5Q374 5 430
88T487 335V358Q487 524 430 606T268 688Q162 688 106 606T50 358V336Q50 170 107 88T268 5Z" />
<glyph unicode="&#xd5;" glyph-name="Otilde" horiz-adv-x="537" d="M167 742Q169 768 183 782T217 796Q233 796 245 790T269 775T292 761T318 754Q334 754 344 765T356 796H368Q365 771 351 757T317 742Q302 742 290 748T266 763T242 777T217 784Q202 784 191
773T178 742H167ZM268 -6Q157 -6 98 79T38 336V358Q38 528 97 613T268 699Q379 699 439 614T499 358V335Q499 167 440 81T268 -6ZM268 5Q374 5 430 88T487 335V358Q487 524 430 606T268 688Q162 688 106 606T50 358V336Q50 170 107 88T268 5Z" />
<glyph unicode="&#xd6;" glyph-name="Odieresis" horiz-adv-x="537" d="M332 775V740H319V775H332ZM202 740V775H215V740H202ZM268 -6Q157 -6 98 79T38 336V358Q38 528 97 613T268 699Q379 699 439 614T499 358V335Q499 167 440 81T268 -6ZM268 5Q374 5 430 88T487
335V358Q487 524 430 606T268 688Q162 688 106 606T50 358V336Q50 170 107 88T268 5Z" />
<glyph unicode="&#xd7;" glyph-name="multiply" horiz-adv-x="380" d="M190 335L66 206L58 214L182 344L58 473L66 482L190 352L314 482L322 473L198 344L322 214L314 206L190 335Z" />
<glyph unicode="&#xd8;" glyph-name="Oslash" horiz-adv-x="537" d="M268 -6Q161 -6 102 73L57 0H43L95 83Q38 168 38 336V358Q38 528 97 613T268 699Q371 699 431 625L473 693H487L438 615L439 614Q499 529 499 358V335Q499 167 440 81T268 -6ZM268 5Q374 5 430
88T487 335V358Q487 522 431 604L109 84Q166 5 268 5ZM268 688Q162 688 106 606T50 358V336Q50 177 102 95L424 614Q367 688 268 688Z" />
<glyph unicode="&#xd9;" glyph-name="Ugrave" horiz-adv-x="505" d="M254 733L205 835H219L267 733H254ZM253 -6Q158 -6 110 45T62 206V693H74V206Q74 102 119 54T253 5Q342 5 386 54T431 206V693H444V206Q444 -6 253 -6Z" />
<glyph unicode="&#xda;" glyph-name="Uacute" horiz-adv-x="505" d="M236 733L285 835H298L249 733H236ZM253 -6Q158 -6 110 45T62 206V693H74V206Q74 102 119 54T253 5Q342 5 386 54T431 206V693H444V206Q444 -6 253 -6Z" />
<glyph unicode="&#xdb;" glyph-name="Ucircumflex" horiz-adv-x="505" d="M321 730L254 809L186 730H172L249 821H259L335 730H321ZM253 -6Q158 -6 110 45T62 206V693H74V206Q74 102 119 54T253 5Q342 5 386 54T431 206V693H444V206Q444 -6 253 -6Z" />
<glyph unicode="&#xdc;" glyph-name="Udieresis" horiz-adv-x="505" d="M253 -6Q158 -6 110 45T62 206V693H74V206Q74 102 119 54T253 5Q342 5 386 54T431 206V693H444V206Q444 -6 253 -6ZM319 775V740H306V775H319ZM189 740V775H202V740H189Z" />
<glyph unicode="&#xdd;" glyph-name="Yacute" horiz-adv-x="424" d="M206 300L10 693H24L212 316H213L400 693H414L218 300V0H206V300ZM198 733L247 835H260L211 733H198Z" />
<glyph unicode="&#xde;" glyph-name="Thorn" horiz-adv-x="408" d="M65 693H78V547H184Q239 547 277 535T338 498T371 440T382 361Q382 265 332 221T194 176H78V0H65V693ZM195 187Q274 188 322 228T370 361Q370 457 321 496T184 536H78V187H195Z" />
<glyph unicode="&#xdf;" glyph-name="germandbls" horiz-adv-x="420" d="M182 28Q198 20 220 13T275 5Q332 5 358 37T385 118Q385 162 365 188T308 239L279 260Q244 284 223 307T201 368Q201 401 221 429T265 485T310 545T330 615Q330 669 299 696T212 724Q143
724 106 681T69 558V0H57V558Q57 643 97 689T212 735Q274 735 308 705T343 615Q343 575 323 543T279 483T234 427T214 369Q214 335 233 314T286 270L315 249Q351 224 374 195T398 118Q398 65 368 30T275 -6Q240 -6 218 1T182 16V28Z" />
<glyph unicode="&#xe0;" glyph-name="agrave" horiz-adv-x="356" d="M289 0V39H288Q275 26 244 10T161 -6Q98 -6 62 29T26 130Q26 192 57 224T154 267L289 289V374Q289 441 261 468T174 496Q143 496 115 490T64 472V484Q87 494 115 500T175 507Q238 507 270 477T302
374V0H289ZM161 5Q209 5 240 21T289 54V278L156 256Q95 245 67 216T39 130Q39 70 71 38T161 5ZM433 586L366 709H379L446 586H433Z" />
<glyph unicode="&#xe1;" glyph-name="aacute" horiz-adv-x="356" d="M289 0V39H288Q275 26 244 10T161 -6Q98 -6 62 29T26 130Q26 192 57 224T154 267L289 289V374Q289 441 261 468T174 496Q143 496 115 490T64 472V484Q87 494 115 500T175 507Q238 507 270 477T302
374V0H289ZM161 5Q209 5 240 21T289 54V278L156 256Q95 245 67 216T39 130Q39 70 71 38T161 5ZM499 709L432 586H419L485 709H499Z" />
<glyph unicode="&#xe2;" glyph-name="acircumflex" horiz-adv-x="356" d="M289 0V39H288Q275 26 244 10T161 -6Q98 -6 62 29T26 130Q26 192 57 224T154 267L289 289V374Q289 441 261 468T174 496Q143 496 115 490T64 472V484Q87 494 115 500T175 507Q238 507 270
477T302 374V0H289ZM161 5Q209 5 240 21T289 54V278L156 256Q95 245 67 216T39 130Q39 70 71 38T161 5ZM502 586L432 680L361 586H347L427 693H437L516 586H502Z" />
<glyph unicode="&#xe3;" glyph-name="atilde" horiz-adv-x="356" d="M289 0V39H288Q275 26 244 10T161 -6Q98 -6 62 29T26 130Q26 192 57 224T154 267L289 289V374Q289 441 261 468T174 496Q143 496 115 490T64 472V484Q87 494 115 500T175 507Q238 507 270 477T302
374V0H289ZM161 5Q209 5 240 21T289 54V278L156 256Q95 245 67 216T39 130Q39 70 71 38T161 5ZM329 608Q331 634 345 647T379 661Q395 661 407 655T431 641T454 627T480 620Q496 620 506 631T518 661H530Q527 637 513 623T479 608Q464 608 452 614T428 629T404
643T379 650Q364 650 353 639T340 608H329Z" />
<glyph unicode="&#xe4;" glyph-name="adieresis" horiz-adv-x="356" d="M289 0V39H288Q275 26 244 10T161 -6Q98 -6 62 29T26 130Q26 192 57 224T154 267L289 289V374Q289 441 261 468T174 496Q143 496 115 490T64 472V484Q87 494 115 500T175 507Q238 507 270
477T302 374V0H289ZM161 5Q209 5 240 21T289 54V278L156 256Q95 245 67 216T39 130Q39 70 71 38T161 5ZM490 654V617H478V654H490ZM369 617V654H382V617H369Z" />
<glyph unicode="&#xe5;" glyph-name="aring" horiz-adv-x="356" d="M289 0V39H288Q275 26 244 10T161 -6Q98 -6 62 29T26 130Q26 192 57 224T154 267L289 289V374Q289 441 261 468T174 496Q143 496 115 490T64 472V484Q87 494 115 500T175 507Q238 507 270 477T302
374V0H289ZM161 5Q209 5 240 21T289 54V278L156 256Q95 245 67 216T39 130Q39 70 71 38T161 5ZM431 714Q460 714 478 695T497 646Q497 617 479 598T431 579Q402 579 384 598T365 646Q365 675 383 694T431 714ZM431 703Q406 703 392 687T377 646Q377 622 391 606T431
590Q456 590 470 606T485 646Q485 671 471 687T431 703Z" />
<glyph unicode="&#xe6;" glyph-name="ae" horiz-adv-x="643" d="M477 -6Q368 -6 323 73Q299 42 262 18T169 -6Q102 -6 64 29T26 128Q26 191 60 224T160 264L289 278V372Q289 441 261 468T172 496Q141 496 114 490T62 473V484Q85 495 113 501T173 507Q236 507 267
478T301 382V374Q318 443 360 475T459 507Q539 507 577 450T615 279V267H301V244Q301 123 343 64T477 5Q517 5 548 14T601 36V24Q582 13 550 4T477 -6ZM162 254Q99 247 69 216T39 128Q39 70 73 38T169 5Q196 5 219 12T260 30T292 55T317 83Q289 143 289 245V267L162
254ZM459 496Q391 496 348 444T302 279H603Q603 496 459 496Z" />
<glyph unicode="&#xe7;" glyph-name="ccedilla" horiz-adv-x="349" d="M256 -123Q256 -195 145 -200V-189Q244 -183 244 -124Q244 -95 223 -83T161 -70V-1Q93 16 62 77T31 238V264Q31 331 44 377T80 452T137 494T211 507Q282 507 322 479V467Q299 482 273 489T210
496Q174 496 143 484T90 445T56 373T43 265V237Q43 129 82 67T210 5Q255 5 283 17T328 41V28Q311 17 284 6T210 -6Q200 -6 191 -6T173 -4V-59Q206 -61 231 -74T256 -123Z" />
<glyph unicode="&#xe8;" glyph-name="egrave" horiz-adv-x="388" d="M43 263V244Q43 5 221 5Q261 5 293 14T346 35V23Q329 14 296 4T220 -6Q126 -6 79 55T31 245V264Q31 328 43 374T78 450T133 493T203 507Q284 507 322 449T360 275V263H43ZM347 275Q347 386 312
441T203 496Q133 496 90 444T44 275H347ZM203 586L136 709H149L216 586H203Z" />
<glyph unicode="&#xe9;" glyph-name="eacute" horiz-adv-x="388" d="M517 709L450 586H437L503 709H517ZM43 263V244Q43 5 221 5Q261 5 293 14T346 35V23Q329 14 296 4T220 -6Q126 -6 79 55T31 245V264Q31 328 43 374T78 450T133 493T203 507Q284 507 322 449T360
275V263H43ZM347 275Q347 386 312 441T203 496Q133 496 90 444T44 275H347Z" />
<glyph unicode="&#xea;" glyph-name="ecircumflex" horiz-adv-x="388" d="M271 586L201 680L130 586H116L196 693H206L285 586H271ZM43 263V244Q43 5 221 5Q261 5 293 14T346 35V23Q329 14 296 4T220 -6Q126 -6 79 55T31 245V264Q31 328 43 374T78 450T133 493T203
507Q284 507 322 449T360 275V263H43ZM347 275Q347 386 312 441T203 496Q133 496 90 444T44 275H347Z" />
<glyph unicode="&#xeb;" glyph-name="edieresis" horiz-adv-x="388" d="M261 654V617H249V654H261ZM140 617V654H153V617H140ZM43 263V244Q43 5 221 5Q261 5 293 14T346 35V23Q329 14 296 4T220 -6Q126 -6 79 55T31 245V264Q31 328 43 374T78 450T133 493T203
507Q284 507 322 449T360 275V263H43ZM347 275Q347 386 312 441T203 496Q133 496 90 444T44 275H347Z" />
<glyph unicode="&#xec;" glyph-name="igrave" horiz-adv-x="126" d="M69 500V0H57V500H69ZM320 586L253 709H266L333 586H320Z" />
<glyph unicode="&#xed;" glyph-name="iacute" horiz-adv-x="126" d="M130 709L63 586H50L116 709H130ZM69 500V0H57V500H69Z" />
<glyph unicode="&#xee;" glyph-name="icircumflex" horiz-adv-x="126" d="M119 586L63 679L7 586H-6L58 693H68L132 586H119ZM69 500V0H57V500H69Z" />
<glyph unicode="&#xef;" glyph-name="idieresis" horiz-adv-x="126" d="M105 650V617H93V650H105ZM21 617V650H33V617H21ZM69 500V0H57V500H69Z" />
<glyph unicode="&#xf0;" glyph-name="eth" horiz-adv-x="419" d="M123 591L227 646Q210 664 191 680Q160 708 126 734H145Q193 697 236 654L238 652L317 695L322 685L246 644Q283 605 313 556Q347 502 367 434T387 277V250Q387 119 341 56T209 -7Q170 -7 137 7T81
52T44 130T30 244V267Q30 389 79 448T211 507Q255 507 286 496T342 470Q325 515 302 552T251 621Q243 630 234 638L128 582L123 591ZM374 277Q374 374 348 452Q322 470 290 483T211 496Q133 496 88 440T43 267V244Q43 181 55 136T90 62T142 19T209 5Q288 5 331
65T374 250V277Z" />
<glyph unicode="&#xf1;" glyph-name="ntilde" horiz-adv-x="412" d="M69 500V451H70Q108 475 150 491T237 507Q358 507 358 395V0H345V395Q345 496 237 496Q192 496 150 480T69 438V0H57V500H69ZM106 608Q108 634 122 647T156 661Q172 661 184 655T208 641T231
627T257 620Q273 620 283 631T295 661H307Q304 637 290 623T256 608Q241 608 229 614T205 629T181 643T156 650Q141 650 130 639T117 608H106Z" />
<glyph unicode="&#xf2;" glyph-name="ograve" horiz-adv-x="416" d="M373 265Q373 325 361 368T327 440T274 482T206 496Q134 496 89 438T43 261V236Q43 177 55 134T88 62T140 19T208 5Q281 5 327 62T373 240V265ZM386 240Q386 177 373 131T336 55T280 9T208 -6Q169
-6 136 8T80 52T43 128T30 237V261Q30 324 43 370T79 447T135 492T206 507Q246 507 279 493T336 449T373 373T386 264V240ZM208 586L141 709H154L221 586H208Z" />
<glyph unicode="&#xf3;" glyph-name="oacute" horiz-adv-x="416" d="M273 709L206 586H193L259 709H273ZM373 265Q373 325 361 368T327 440T274 482T206 496Q134 496 89 438T43 261V236Q43 177 55 134T88 62T140 19T208 5Q281 5 327 62T373 240V265ZM386 240Q386
177 373 131T336 55T280 9T208 -6Q169 -6 136 8T80 52T43 128T30 237V261Q30 324 43 370T79 447T135 492T206 507Q246 507 279 493T336 449T373 373T386 264V240Z" />
<glyph unicode="&#xf4;" glyph-name="ocircumflex" horiz-adv-x="416" d="M277 586L207 680L136 586H122L202 693H212L291 586H277ZM373 265Q373 325 361 368T327 440T274 482T206 496Q134 496 89 438T43 261V236Q43 177 55 134T88 62T140 19T208 5Q281 5 327
62T373 240V265ZM386 240Q386 177 373 131T336 55T280 9T208 -6Q169 -6 136 8T80 52T43 128T30 237V261Q30 324 43 370T79 447T135 492T206 507Q246 507 279 493T336 449T373 373T386 264V240Z" />
<glyph unicode="&#xf5;" glyph-name="otilde" horiz-adv-x="416" d="M373 265Q373 325 361 368T327 440T274 482T206 496Q134 496 89 438T43 261V236Q43 177 55 134T88 62T140 19T208 5Q281 5 327 62T373 240V265ZM386 240Q386 177 373 131T336 55T280 9T208 -6Q169
-6 136 8T80 52T43 128T30 237V261Q30 324 43 370T79 447T135 492T206 507Q246 507 279 493T336 449T373 373T386 264V240ZM106 608Q108 634 122 647T156 661Q172 661 184 655T208 641T231 627T257 620Q273 620 283 631T295 661H307Q304 637 290 623T256 608Q241
608 229 614T205 629T181 643T156 650Q141 650 130 639T117 608H106Z" />
<glyph unicode="&#xf6;" glyph-name="odieresis" horiz-adv-x="416" d="M266 654V617H254V654H266ZM145 617V654H158V617H145ZM373 265Q373 325 361 368T327 440T274 482T206 496Q134 496 89 438T43 261V236Q43 177 55 134T88 62T140 19T208 5Q281 5 327 62T373
240V265ZM386 240Q386 177 373 131T336 55T280 9T208 -6Q169 -6 136 8T80 52T43 128T30 237V261Q30 324 43 370T79 447T135 492T206 507Q246 507 279 493T336 449T373 373T386 264V240Z" />
<glyph unicode="&#xf7;" glyph-name="divide" horiz-adv-x="394" d="M349 347H45V359H349V347ZM203 248V205H191V248H203ZM203 498V455H191V498H203Z" />
<glyph unicode="&#xf8;" glyph-name="oslash" horiz-adv-x="416" d="M386 240Q386 177 373 131T336 55T280 9T208 -6Q169 -6 136 8T79 52Q78 54 77 55L39 0H26L70 65Q53 91 43 128Q30 174 30 237V261Q30 324 43 370T79 447T135 492T206 507Q246 507 279 492Q310
479 333 451L367 500H381L341 442Q361 414 373 373Q386 327 386 264V240ZM373 265Q373 325 361 368Q351 405 334 431L84 66L88 61Q110 33 140 19T208 5Q281 5 327 62T373 240V265ZM274 482Q243 496 206 496Q134 496 89 438T43 261V236Q43 177 55 133Q64 101 78
77L326 441Q304 469 274 482Z" />
<glyph unicode="&#xf9;" glyph-name="ugrave" horiz-adv-x="410" d="M340 0V49H339Q304 26 262 10T177 -6Q56 -6 56 108V500H68V108Q68 5 178 5Q221 5 264 22T340 62V500H353V0H340ZM208 586L141 709H154L221 586H208Z" />
<glyph unicode="&#xfa;" glyph-name="uacute" horiz-adv-x="410" d="M271 709L204 586H191L257 709H271ZM340 0V49H339Q304 26 262 10T177 -6Q56 -6 56 108V500H68V108Q68 5 178 5Q221 5 264 22T340 62V500H353V0H340Z" />
<glyph unicode="&#xfb;" glyph-name="ucircumflex" horiz-adv-x="410" d="M275 586L205 680L134 586H120L200 693H210L289 586H275ZM340 0V49H339Q304 26 262 10T177 -6Q56 -6 56 108V500H68V108Q68 5 178 5Q221 5 264 22T340 62V500H353V0H340Z" />
<glyph unicode="&#xfc;" glyph-name="udieresis" horiz-adv-x="410" d="M264 654V617H252V654H264ZM143 617V654H156V617H143ZM340 0V49H339Q304 26 262 10T177 -6Q56 -6 56 108V500H68V108Q68 5 178 5Q221 5 264 22T340 62V500H353V0H340Z" />
<glyph unicode="&#xfd;" glyph-name="yacute" horiz-adv-x="369" d="M28 500L192 23H193L344 500H357L167 -95Q152 -145 132 -170T67 -195Q55 -195 44 -193T26 -189V-177Q34 -179 45 -181T67 -183Q105 -183 123 -162T155 -94L186 2L16 500H28ZM508 709L441 586H428L494
709H508Z" />
<glyph unicode="&#xfe;" glyph-name="thorn" horiz-adv-x="414" d="M69 734V454H70Q100 475 135 491T221 507Q258 507 288 496T339 457T371 384T382 270V250Q382 117 336 56T198 -6Q159 -6 127 4T69 32V-191H57V734H69ZM221 495Q173 495 136 479T69 440V46Q95
28 127 17T198 6Q284 6 327 64T370 249V271Q370 335 360 378T331 447T284 484T221 495Z" />
<glyph unicode="&#xff;" glyph-name="ydieresis" horiz-adv-x="369" d="M28 500L192 23H193L344 500H357L167 -95Q152 -145 132 -170T67 -195Q55 -195 44 -193T26 -189V-177Q34 -179 45 -181T67 -183Q105 -183 123 -162T155 -94L186 2L16 500H28ZM249 654V617H237V654H249ZM128
617V654H141V617H128Z" />
<glyph unicode="&#x100;" glyph-name="Amacron" horiz-adv-x="470" d="M235 668H234L107 258H362L235 668ZM27 0H14L228 693H240L455 0H442L365 247H104L27 0ZM152 760H314V748H152V760Z" />
<glyph unicode="&#x101;" glyph-name="amacron" horiz-adv-x="356" d="M289 0V39H288Q275 26 244 10T161 -6Q98 -6 62 29T26 130Q26 192 57 224T154 267L289 289V374Q289 441 261 468T174 496Q143 496 115 490T64 472V484Q87 494 115 500T175 507Q238 507 270
477T302 374V0H289ZM161 5Q209 5 240 21T289 54V278L156 256Q95 245 67 216T39 130Q39 70 71 38T161 5ZM349 636H509V624H349V636Z" />
<glyph unicode="&#x102;" glyph-name="Abreve" horiz-adv-x="470" d="M235 668H234L107 258H362L235 668ZM27 0H14L228 693H240L455 0H442L365 247H104L27 0ZM156 810Q159 779 179 760T233 741Q266 741 286 760T310 810H322Q318 773 295 752T233 730Q195 730 172
751T144 810H156Z" />
<glyph unicode="&#x103;" glyph-name="abreve" horiz-adv-x="356" d="M289 0V39H288Q275 26 244 10T161 -6Q98 -6 62 29T26 130Q26 192 57 224T154 267L289 289V374Q289 441 261 468T174 496Q143 496 115 490T64 472V484Q87 494 115 500T175 507Q238 507 270 477T302
374V0H289ZM161 5Q209 5 240 21T289 54V278L156 256Q95 245 67 216T39 130Q39 70 71 38T161 5ZM353 669Q356 637 376 618T430 599Q463 599 483 618T507 669H519Q515 631 492 610T430 588Q392 588 369 609T341 669H353Z" />
<glyph unicode="&#x104;" glyph-name="Aogonek" horiz-adv-x="470" d="M97 247H103L27 0H14L228 693H240L455 -1Q441 -13 427 -27T402 -57T384 -89T377 -123Q377 -149 392 -166T438 -183Q448 -183 457 -181T471 -177V-188Q466 -190 458 -192T438 -195Q402 -195
384 -175T365 -124Q365 -105 372 -88T390 -54T414 -24T441 2L365 247H372V258H362L235 668H234L107 258H97V247ZM103 247H365L362 258H107L103 247Z" />
<glyph unicode="&#x105;" glyph-name="aogonek" horiz-adv-x="356" d="M161 5Q209 5 240 21T289 54V278L156 256Q95 245 67 216T39 130Q39 70 71 38T161 5ZM289 39H288Q275 26 244 10T161 -6Q98 -6 62 29T26 130Q26 192 57 224T154 267L289 289V374Q289 441 261
468T174 496Q143 496 115 490T64 472V484Q87 494 115 500T175 507Q238 507 270 477T302 374V-1Q288 -14 275 -28T250 -58T232 -89T225 -123Q225 -149 240 -166T287 -183Q297 -183 305 -181T319 -177V-188Q314 -190 306 -192T287 -195Q250 -195 232 -175T213 -124Q213
-105 220 -87T239 -53T263 -24T289 1V39Z" />
<glyph unicode="&#x106;" glyph-name="Cacute" horiz-adv-x="447" d="M404 658Q380 671 349 679T274 688Q165 688 108 611T50 367V330Q50 163 102 84T269 5Q320 5 352 16T408 42V30Q388 17 356 6T269 -6Q148 -6 93 76T38 330V367Q38 538 98 618T274 699Q319 699
349 691T404 669V658ZM255 733L304 835H317L268 733H255Z" />
<glyph unicode="&#x107;" glyph-name="cacute" horiz-adv-x="349" d="M265 709L198 586H185L251 709H265ZM322 467Q299 482 273 489T210 496Q174 496 143 484T90 445T56 373T43 265V237Q43 129 82 67T210 5Q255 5 283 17T328 41V28Q311 17 284 6T210 -6Q116 -6
74 59T31 238V264Q31 331 44 377T80 452T137 494T211 507Q282 507 322 479V467Z" />
<glyph unicode="&#x108;" glyph-name="Ccircumflex" horiz-adv-x="447" d="M330 730L263 809L195 730H181L258 821H268L344 730H330ZM404 658Q380 671 349 679T274 688Q165 688 108 611T50 367V330Q50 163 102 84T269 5Q320 5 352 16T408 42V30Q388 17 356 6T269
-6Q148 -6 93 76T38 330V367Q38 538 98 618T274 699Q319 699 349 691T404 669V658Z" />
<glyph unicode="&#x109;" glyph-name="ccircumflex" horiz-adv-x="349" d="M273 586L203 680L132 586H118L198 693H208L287 586H273ZM322 467Q299 482 273 489T210 496Q174 496 143 484T90 445T56 373T43 265V237Q43 129 82 67T210 5Q255 5 283 17T328 41V28Q311
17 284 6T210 -6Q116 -6 74 59T31 238V264Q31 331 44 377T80 452T137 494T211 507Q282 507 322 479V467Z" />
<glyph unicode="&#x10a;" glyph-name="Cdotaccent" horiz-adv-x="447" d="M404 658Q380 671 349 679T274 688Q165 688 108 611T50 367V330Q50 163 102 84T269 5Q320 5 352 16T408 42V30Q388 17 356 6T269 -6Q148 -6 93 76T38 330V367Q38 538 98 618T274 699Q319
699 349 691T404 669V658ZM275 779V743H262V779H275Z" />
<glyph unicode="&#x10b;" glyph-name="cdotaccent" horiz-adv-x="349" d="M322 467Q299 482 273 489T210 496Q174 496 143 484T90 445T56 373T43 265V237Q43 129 82 67T210 5Q255 5 283 17T328 41V28Q311 17 284 6T210 -6Q116 -6 74 59T31 238V264Q31 331 44 377T80
452T137 494T211 507Q282 507 322 479V467ZM208 655V617H196V655H208Z" />
<glyph unicode="&#x10c;" glyph-name="Ccaron" horiz-adv-x="447" d="M197 821L264 741L332 821H346L269 729H259L183 821H197ZM404 658Q380 671 349 679T274 688Q165 688 108 611T50 367V330Q50 163 102 84T269 5Q320 5 352 16T408 42V30Q388 17 356 6T269 -6Q148
-6 93 76T38 330V367Q38 538 98 618T274 699Q319 699 349 691T404 669V658Z" />
<glyph unicode="&#x10d;" glyph-name="ccaron" horiz-adv-x="349" d="M287 691L208 583H198L119 691H132L203 596L273 691H287ZM322 467Q299 482 273 489T210 496Q174 496 143 484T90 445T56 373T43 265V237Q43 129 82 67T210 5Q255 5 283 17T328 41V28Q311 17
284 6T210 -6Q116 -6 74 59T31 238V264Q31 331 44 377T80 452T137 494T211 507Q282 507 322 479V467Z" />
<glyph unicode="&#x10e;" glyph-name="Dcaron" horiz-adv-x="506" d="M163 821L230 741L298 821H312L235 729H225L149 821H163ZM65 693H198Q333 693 401 614T469 359V337Q469 161 403 81T200 0H65V693ZM78 11H200Q330 11 393 89T457 337V360Q457 529 392 605T198
682H78V11Z" />
<glyph unicode="&#x10f;" glyph-name="dcaron" horiz-adv-x="413" d="M419 734L410 614H398L406 734H419ZM344 0V47H343Q320 28 287 11T199 -6Q163 -6 132 7T79 50T44 126T31 241V262Q31 389 78 448T214 507Q260 507 291 496T344 470V734H356V0H344ZM200 5Q252
5 287 24T344 62V457Q323 472 292 484T214 496Q132 496 88 440T44 263V241Q44 177 55 132T87 59T136 18T200 5Z" />
<glyph unicode="&#x110;" glyph-name="Dcroat" horiz-adv-x="506" d="M11 358H64V693H197Q331 693 399 614T467 359V337Q467 161 401 81T198 0H64V347H11V358ZM198 11Q329 11 392 89T455 337V360Q455 529 391 605T197 682H76V358H248V347H76V11H198Z" />
<glyph unicode="&#x111;" glyph-name="dcroat" horiz-adv-x="413" d="M412 612H211V623H412V612ZM344 0V47H343Q320 28 287 11T199 -6Q163 -6 132 7T79 50T44 126T31 241V262Q31 389 78 448T214 507Q260 507 291 496T344 470V734H356V0H344ZM200 5Q252 5 287 24T344
62V457Q323 472 292 484T214 496Q132 496 88 440T44 263V241Q44 177 55 132T87 59T136 18T200 5Z" />
<glyph unicode="&#x112;" glyph-name="Emacron" horiz-adv-x="406" d="M380 0H65V693H379V682H78V365H314V353H78V11H380V0ZM143 760H305V748H143V760Z" />
<glyph unicode="&#x113;" glyph-name="emacron" horiz-adv-x="388" d="M43 263V244Q43 5 221 5Q261 5 293 14T346 35V23Q329 14 296 4T220 -6Q126 -6 79 55T31 245V264Q31 328 43 374T78 450T133 493T203 507Q284 507 322 449T360 275V263H43ZM347 275Q347 386
312 441T203 496Q133 496 90 444T44 275H347ZM121 636H281V624H121V636Z" />
<glyph unicode="&#x114;" glyph-name="Ebreve" horiz-adv-x="406" d="M380 0H65V693H379V682H78V365H314V353H78V11H380V0ZM145 810Q148 779 168 760T222 741Q255 741 275 760T299 810H311Q307 773 284 752T222 730Q184 730 161 751T133 810H145Z" />
<glyph unicode="&#x115;" glyph-name="ebreve" horiz-adv-x="388" d="M43 263V244Q43 5 221 5Q261 5 293 14T346 35V23Q329 14 296 4T220 -6Q126 -6 79 55T31 245V264Q31 328 43 374T78 450T133 493T203 507Q284 507 322 449T360 275V263H43ZM347 275Q347 386
312 441T203 496Q133 496 90 444T44 275H347ZM123 669Q126 637 146 618T200 599Q233 599 253 618T277 669H289Q285 631 262 610T200 588Q162 588 139 609T111 669H123Z" />
<glyph unicode="&#x116;" glyph-name="Edotaccent" horiz-adv-x="406" d="M229 779V743H216V779H229ZM380 0H65V693H379V682H78V365H314V353H78V11H380V0Z" />
<glyph unicode="&#x117;" glyph-name="edotaccent" horiz-adv-x="388" d="M43 263V244Q43 5 221 5Q261 5 293 14T346 35V23Q329 14 296 4T220 -6Q126 -6 79 55T31 245V264Q31 328 43 374T78 450T133 493T203 507Q284 507 322 449T360 275V263H43ZM347 275Q347
386 312 441T203 496Q133 496 90 444T44 275H347ZM206 655V617H194V655H206Z" />
<glyph unicode="&#x118;" glyph-name="Eogonek" horiz-adv-x="406" d="M65 0V693H379V682H78V365H314V353H78V11H380V0H340Q326 -13 312 -27T287 -56T269 -88T262 -123Q262 -149 276 -166T323 -183Q333 -183 341 -181T355 -177V-188Q351 -190 343 -192T323 -195Q286
-195 268 -175T249 -124Q249 -105 256 -88T274 -55T299 -26T324 0H65Z" />
<glyph unicode="&#x119;" glyph-name="eogonek" horiz-adv-x="388" d="M271 -195Q235 -195 217 -175T198 -124Q198 -88 222 -57T283 1Q268 -3 252 -4T220 -6Q126 -6 79 55T31 245V264Q31 328 43 374T78 450T133 493T203 507Q284 507 322 449T360 275V263H43V244Q43
5 221 5Q261 5 293 14T346 35V23Q329 15 316 9T292 -5T272 -20T252 -38Q229 -61 220 -81T210 -123Q210 -149 225 -166T271 -183Q281 -183 290 -181T304 -177V-188Q299 -190 291 -192T271 -195ZM347 275Q347 386 312 441T203 496Q133 496 90 444T44 275H347Z" />
<glyph unicode="&#x11a;" glyph-name="Ecaron" horiz-adv-x="406" d="M156 821L223 741L291 821H305L228 729H218L142 821H156ZM380 0H65V693H379V682H78V365H314V353H78V11H380V0Z" />
<glyph unicode="&#x11b;" glyph-name="ecaron" horiz-adv-x="388" d="M285 691L206 583H196L117 691H130L201 596L271 691H285ZM43 263V244Q43 5 221 5Q261 5 293 14T346 35V23Q329 14 296 4T220 -6Q126 -6 79 55T31 245V264Q31 328 43 374T78 450T133 493T203
507Q284 507 322 449T360 275V263H43ZM347 275Q347 386 312 441T203 496Q133 496 90 444T44 275H347Z" />
<glyph unicode="&#x11c;" glyph-name="Gcircumflex" horiz-adv-x="494" d="M340 730L273 809L205 730H191L268 821H278L354 730H340ZM420 658Q398 669 366 678T281 688Q227 688 185 670T112 614T66 514T50 367V329Q50 251 63 191T104 89T178 27T288 5Q332 5 366
13T427 31V303H287V315H439V24Q410 11 372 3T288 -6Q220 -6 173 16T95 81T52 186T38 330V366Q38 456 55 519T103 622T180 680T281 699Q336 699 367 690T420 670V658Z" />
<glyph unicode="&#x11d;" glyph-name="gcircumflex" horiz-adv-x="386" d="M516 586L446 680L375 586H361L441 693H451L530 586H516ZM377 491H264Q296 475 314 443T333 361V344Q333 272 293 235T188 197Q144 197 113 215Q94 196 84 178T73 138Q73 115 89 99T138
82H246Q276 82 301 75T344 53T372 14T383 -44Q383 -111 337 -152T192 -194Q145 -194 112 -183T57 -154T26 -111T16 -61Q16 -9 45 22T115 73V74Q89 79 75 95T60 138Q60 160 71 180T104 220Q77 237 62 268T46 345V360Q46 431 86 469T188 507Q200 507 211 506T233
502H377V491ZM136 71Q114 62 95 50T60 22T37 -14T28 -61Q28 -85 37 -107T65 -146T116 -173T192 -183Q284 -183 327 -145T371 -44Q371 -12 362 10T336 45T296 65T246 71H136ZM188 208Q248 208 284 242T320 344V361Q320 431 284 463T188 496Q131 496 95 462T58 361V344Q58
277 95 243T188 208Z" />
<glyph unicode="&#x11e;" glyph-name="Gbreve" horiz-adv-x="494" d="M195 810Q198 779 218 760T272 741Q305 741 325 760T349 810H361Q357 773 334 752T272 730Q234 730 211 751T183 810H195ZM420 658Q398 669 366 678T281 688Q227 688 185 670T112 614T66 514T50
367V329Q50 251 63 191T104 89T178 27T288 5Q332 5 366 13T427 31V303H287V315H439V24Q410 11 372 3T288 -6Q220 -6 173 16T95 81T52 186T38 330V366Q38 456 55 519T103 622T180 680T281 699Q336 699 367 690T420 670V658Z" />
<glyph unicode="&#x11f;" glyph-name="gbreve" horiz-adv-x="386" d="M377 491H264Q296 475 314 443T333 361V344Q333 272 293 235T188 197Q144 197 113 215Q94 196 84 178T73 138Q73 115 89 99T138 82H246Q276 82 301 75T344 53T372 14T383 -44Q383 -111 337
-152T192 -194Q145 -194 112 -183T57 -154T26 -111T16 -61Q16 -9 45 22T115 73V74Q89 79 75 95T60 138Q60 160 71 180T104 220Q77 237 62 268T46 345V360Q46 431 86 469T188 507Q200 507 211 506T233 502H377V491ZM136 71Q114 62 95 50T60 22T37 -14T28 -61Q28
-85 37 -107T65 -146T116 -173T192 -183Q284 -183 327 -145T371 -44Q371 -12 362 10T336 45T296 65T246 71H136ZM188 208Q248 208 284 242T320 344V361Q320 431 284 463T188 496Q131 496 95 462T58 361V344Q58 277 95 243T188 208ZM369 669Q372 637 392 618T446
599Q479 599 499 618T523 669H535Q531 631 508 610T446 588Q408 588 385 609T357 669H369Z" />
<glyph unicode="&#x120;" glyph-name="Gdotaccent" horiz-adv-x="494" d="M279 779V743H266V779H279ZM420 658Q398 669 366 678T281 688Q227 688 185 670T112 614T66 514T50 367V329Q50 251 63 191T104 89T178 27T288 5Q332 5 366 13T427 31V303H287V315H439V24Q410
11 372 3T288 -6Q220 -6 173 16T95 81T52 186T38 330V366Q38 456 55 519T103 622T180 680T281 699Q336 699 367 690T420 670V658Z" />
<glyph unicode="&#x121;" glyph-name="gdotaccent" horiz-adv-x="386" d="M377 491H264Q296 475 314 443T333 361V344Q333 272 293 235T188 197Q144 197 113 215Q94 196 84 178T73 138Q73 115 89 99T138 82H246Q276 82 301 75T344 53T372 14T383 -44Q383 -111
337 -152T192 -194Q145 -194 112 -183T57 -154T26 -111T16 -61Q16 -9 45 22T115 73V74Q89 79 75 95T60 138Q60 160 71 180T104 220Q77 237 62 268T46 345V360Q46 431 86 469T188 507Q200 507 211 506T233 502H377V491ZM136 71Q114 62 95 50T60 22T37 -14T28 -61Q28
-85 37 -107T65 -146T116 -173T192 -183Q284 -183 327 -145T371 -44Q371 -12 362 10T336 45T296 65T246 71H136ZM188 208Q248 208 284 242T320 344V361Q320 431 284 463T188 496Q131 496 95 462T58 361V344Q58 277 95 243T188 208ZM452 655V617H440V655H452Z" />
<glyph unicode="&#x122;" glyph-name="Gcommaaccent" horiz-adv-x="492" d="M281 -42L265 -150H254L269 -42H281ZM420 658Q398 669 366 678T281 688Q227 688 185 670T112 614T66 514T50 367V329Q50 251 63 191T104 89T178 27T288 5Q332 5 366 13T427 31V303H287V315H439V24Q410
11 372 3T288 -6Q220 -6 173 16T95 81T52 186T38 330V366Q38 456 55 519T103 622T180 680T281 699Q336 699 367 690T420 670V658Z" />
<glyph unicode="&#x123;" glyph-name="gcommaaccent" horiz-adv-x="385" d="M436 584L452 692H463L448 584H436ZM377 491H264Q296 475 314 443T333 361V344Q333 272 293 235T188 197Q144 197 113 215Q94 196 84 178T73 138Q73 115 89 99T138 82H246Q276 82 301
75T344 53T372 14T383 -44Q383 -111 337 -152T192 -194Q145 -194 112 -183T57 -154T26 -111T16 -61Q16 -9 45 22T115 73V74Q89 79 75 95T60 138Q60 160 71 180T104 220Q77 237 62 268T46 345V360Q46 431 86 469T188 507Q200 507 211 506T233 502H377V491ZM136 71Q114
62 95 50T60 22T37 -14T28 -61Q28 -85 37 -107T65 -146T116 -173T192 -183Q284 -183 327 -145T371 -44Q371 -12 362 10T336 45T296 65T246 71H136ZM188 208Q248 208 284 242T320 344V361Q320 431 284 463T188 496Q131 496 95 462T58 361V344Q58 277 95 243T188
208Z" />
<glyph unicode="&#x124;" glyph-name="Hcircumflex" horiz-adv-x="515" d="M78 0H65V693H78V367H437V693H449V0H437V356H78V0ZM323 730L256 809L188 730H174L251 821H261L337 730H323Z" />
<glyph unicode="&#x125;" glyph-name="hcircumflex" horiz-adv-x="412" d="M69 734V452H70Q107 475 149 491T237 507Q358 507 358 395V0H345V395Q345 496 237 496Q192 496 150 480T69 438V0H57V734H69ZM275 772L208 851L140 772H126L203 863H213L289 772H275Z" />
<glyph unicode="&#x126;" glyph-name="Hbar" horiz-adv-x="518" d="M13 518V530H508V518H13ZM81 0H68V693H81V367H440V693H452V0H440V356H81V0Z" />
<glyph unicode="&#x127;" glyph-name="hbar" horiz-adv-x="412" d="M1 621H198V609H1V621ZM69 734V452H70Q107 475 149 491T237 507Q358 507 358 395V0H345V395Q345 496 237 496Q192 496 150 480T69 438V0H57V734H69Z" />
<glyph unicode="&#x128;" glyph-name="Itilde" horiz-adv-x="147" d="M80 693V0H67V693H80ZM228 742Q230 768 244 782T278 796Q294 796 306 790T330 775T353 761T379 754Q395 754 405 765T417 796H429Q426 771 412 757T378 742Q363 742 351 748T327 763T303 777T278
784Q263 784 252 773T239 742H228Z" />
<glyph unicode="&#x129;" glyph-name="itilde" horiz-adv-x="126" d="M67 500V0H55V500H67ZM-30 608Q-29 634 -16 647T15 661Q29 661 41 655T64 641T85 627T108 620Q122 620 131 631T141 661H153Q151 636 139 622T108 608Q94 608 83 614T60 629T38 643T15 650Q-16
650 -19 608H-30Z" />
<glyph unicode="&#x12a;" glyph-name="Imacron" horiz-adv-x="147" d="M12 760H134V748H12V760ZM80 693V0H67V693H80Z" />
<glyph unicode="&#x12b;" glyph-name="imacron" horiz-adv-x="126" d="M6 636H119V624H6V636ZM69 500V0H57V500H69Z" />
<glyph unicode="&#x12c;" glyph-name="Ibreve" horiz-adv-x="147" d="M80 693V0H67V693H80ZM251 810Q254 779 274 760T328 741Q361 741 381 760T405 810H417Q413 773 390 752T328 730Q290 730 267 751T239 810H251Z" />
<glyph unicode="&#x12d;" glyph-name="ibreve" horiz-adv-x="126" d="M-8 669Q-6 637 12 618T63 599Q95 599 113 618T134 669H145Q143 631 121 610T63 588Q26 588 5 609T-19 669H-8ZM69 500V0H57V500H69Z" />
<glyph unicode="&#x12e;" glyph-name="Iogonek" horiz-adv-x="147" d="M97 -188Q93 -190 85 -192T66 -195Q31 -195 14 -176T-4 -125Q-4 -106 2 -88T19 -54T42 -24T67 2V693H80V-1Q67 -14 54 -28T31 -58T15 -90T8 -125Q8 -151 22 -167T66 -183Q76 -183 84 -181T97
-177V-188Z" />
<glyph unicode="&#x12f;" glyph-name="iogonek" horiz-adv-x="126" d="M69 655V617H57V655H69ZM61 -195Q26 -195 9 -176T-9 -125Q-9 -87 12 -55T57 1V500H69V-2Q45 -25 25 -57T4 -125Q4 -151 18 -167T61 -183Q72 -183 79 -181T92 -177V-188Q88 -190 80 -192T61 -195Z" />
<glyph unicode="&#x130;" glyph-name="Idotaccent" horiz-adv-x="147" d="M80 693V0H67V693H80ZM335 779V743H322V779H335Z" />
<glyph unicode="&#x131;" glyph-name="dotlessi" horiz-adv-x="126" d="M69 500V0H57V500H69Z" />
<glyph unicode="&#x132;" glyph-name="IJ" horiz-adv-x="412" d="M67 693H80V0H67V693ZM157 18Q169 14 188 10T225 6Q284 6 312 36T340 132V693H352V132Q352 64 322 30T225 -5Q205 -5 187 -1T157 7V18Z" />
<glyph unicode="&#x133;" glyph-name="ij" horiz-adv-x="256" d="M69 500V0H57V500H69ZM69 658V617H57V658H69ZM197 658V617H185V658H197ZM197 500V-90Q197 -145 176 -169T108 -194Q85 -194 67 -188V-177Q75 -179 85 -181T107 -183Q149 -183 167 -162T185 -90V500H197Z" />
<glyph unicode="&#x134;" glyph-name="Jcircumflex" horiz-adv-x="278" d="M280 730L213 809L145 730H131L208 821H218L294 730H280ZM11 19Q24 14 45 10T87 6Q147 6 176 36T205 132V693H218V132Q218 -5 87 -5Q64 -5 43 -1T11 8V19Z" />
<glyph unicode="&#x135;" glyph-name="jcircumflex" horiz-adv-x="128" d="M122 586L66 679L10 586H-3L61 693H71L135 586H122ZM71 500V-88Q71 -142 50 -166T-18 -191Q-39 -191 -59 -186V-174Q-51 -176 -41 -178T-19 -180Q23 -180 41 -159T59 -88V500H71Z" />
<glyph unicode="&#x136;" glyph-name="Kcommaaccent" horiz-adv-x="428" d="M233 -42L217 -150H206L221 -42H233ZM398 693L138 356L409 0H395L124 355L383 693H398ZM78 693V0H65V693H78Z" />
<glyph unicode="&#x137;" glyph-name="kcommaaccent" horiz-adv-x="343" d="M446 -42L430 -150H419L434 -42H446ZM69 734V0H57V734H69ZM309 500L118 265L328 0H312L103 265L294 500H309Z" />
<glyph unicode="&#x139;" glyph-name="Lacute" horiz-adv-x="386" d="M320 733L369 835H382L333 733H320ZM78 693V11H365V0H65V693H78Z" />
<glyph unicode="&#x13a;" glyph-name="lacute" horiz-adv-x="126" d="M57 775L106 877H119L70 775H57ZM69 734V0H57V734H69Z" />
<glyph unicode="&#x13b;" glyph-name="Lcommaaccent" horiz-adv-x="388" d="M226 -42L210 -150H199L214 -42H226ZM78 693V11H365V0H65V693H78Z" />
<glyph unicode="&#x13c;" glyph-name="lcommaaccent" horiz-adv-x="123" d="M326 -42L310 -150H299L314 -42H326ZM69 734V0H57V734H69Z" />
<glyph unicode="&#x13d;" glyph-name="Lcaron" horiz-adv-x="386" d="M443 950L434 830H422L430 950H443ZM78 693V11H365V0H65V693H78Z" />
<glyph unicode="&#x13e;" glyph-name="lcaron" horiz-adv-x="126" d="M389 734L380 614H368L376 734H389ZM69 734V0H57V734H69Z" />
<glyph unicode="&#x13f;" glyph-name="Ldot" horiz-adv-x="386" d="M288 362H300V318H288V362ZM78 693V11H365V0H65V693H78Z" />
<glyph unicode="&#x140;" glyph-name="ldot" horiz-adv-x="128" d="M69 734V0H57V734H69ZM135 383V339H123V383H135Z" />
<glyph unicode="&#x141;" glyph-name="Lslash" horiz-adv-x="389" d="M65 693H77V292L288 402V389L77 279V11H365V0H65V273L5 242V255L65 286V693Z" />
<glyph unicode="&#x142;" glyph-name="lslash" horiz-adv-x="141" d="M140 486L77 439V0H64V429L7 387V400L64 442V734H77V452L140 499V486Z" />
<glyph unicode="&#x143;" glyph-name="Nacute" horiz-adv-x="518" d="M258 733L307 835H320L271 733H258ZM452 693V0H437L79 669H78V0H65V693H81L438 25H439V693H452Z" />
<glyph unicode="&#x144;" glyph-name="nacute" horiz-adv-x="412" d="M273 709L206 586H193L259 709H273ZM69 500V451H70Q108 475 150 491T237 507Q358 507 358 395V0H345V395Q345 496 237 496Q192 496 150 480T69 438V0H57V500H69Z" />
<glyph unicode="&#x145;" glyph-name="Ncommaaccent" horiz-adv-x="514" d="M266 -42L250 -150H239L254 -42H266ZM452 693V0H437L79 669H78V0H65V693H81L438 25H439V693H452Z" />
<glyph unicode="&#x146;" glyph-name="ncommaaccent" horiz-adv-x="410" d="M213 -42L197 -150H186L201 -42H213ZM69 500V451H70Q108 475 150 491T237 507Q358 507 358 395V0H345V395Q345 496 237 496Q192 496 150 480T69 438V0H57V500H69Z" />
<glyph unicode="&#x147;" glyph-name="Ncaron" horiz-adv-x="518" d="M203 821L270 741L338 821H352L275 729H265L189 821H203ZM452 693V0H437L79 669H78V0H65V693H81L438 25H439V693H452Z" />
<glyph unicode="&#x148;" glyph-name="ncaron" horiz-adv-x="412" d="M290 691L211 583H201L122 691H135L206 596L276 691H290ZM69 500V451H70Q108 475 150 491T237 507Q358 507 358 395V0H345V395Q345 496 237 496Q192 496 150 480T69 438V0H57V500H69Z" />
<glyph unicode="&#x149;" glyph-name="napostrophe" horiz-adv-x="410" d="M261 562L288 693H301L273 562H261ZM69 500V451H70Q108 475 150 491T237 507Q358 507 358 395V0H345V395Q345 496 237 496Q192 496 150 480T69 438V0H57V500H69Z" />
<glyph unicode="&#x14a;" glyph-name="Eng" horiz-adv-x="517" d="M65 693H81L437 31H438V693H451V-41Q451 -172 328 -172Q306 -172 287 -168T257 -160V-149Q265 -151 286 -156T328 -161Q384 -161 411 -132T438 -41V2L79 669H78V0H65V693Z" />
<glyph unicode="&#x14b;" glyph-name="eng" horiz-adv-x="412" d="M358 -88Q358 -142 337 -166T268 -191Q245 -191 228 -186V-174Q236 -176 246 -178T268 -180Q310 -180 327 -159T345 -88V395Q345 447 318 471T237 495Q192 495 150 479T69 438V0H57V500H69V452H70Q108
476 150 491T237 507Q358 507 358 395V-88Z" />
<glyph unicode="&#x14c;" glyph-name="Omacron" horiz-adv-x="537" d="M186 760H348V748H186V760ZM268 -6Q157 -6 98 79T38 336V358Q38 528 97 613T268 699Q379 699 439 614T499 358V335Q499 167 440 81T268 -6ZM268 5Q374 5 430 88T487 335V358Q487 524 430 606T268
688Q162 688 106 606T50 358V336Q50 170 107 88T268 5Z" />
<glyph unicode="&#x14d;" glyph-name="omacron" horiz-adv-x="416" d="M126 636H286V624H126V636ZM373 265Q373 325 361 368T327 440T274 482T206 496Q134 496 89 438T43 261V236Q43 177 55 134T88 62T140 19T208 5Q281 5 327 62T373 240V265ZM386 240Q386 177
373 131T336 55T280 9T208 -6Q169 -6 136 8T80 52T43 128T30 237V261Q30 324 43 370T79 447T135 492T206 507Q246 507 279 493T336 449T373 373T386 264V240Z" />
<glyph unicode="&#x14e;" glyph-name="Obreve" horiz-adv-x="537" d="M190 810Q193 779 213 760T267 741Q300 741 320 760T344 810H356Q352 773 329 752T267 730Q229 730 206 751T178 810H190ZM268 -6Q157 -6 98 79T38 336V358Q38 528 97 613T268 699Q379 699
439 614T499 358V335Q499 167 440 81T268 -6ZM268 5Q374 5 430 88T487 335V358Q487 524 430 606T268 688Q162 688 106 606T50 358V336Q50 170 107 88T268 5Z" />
<glyph unicode="&#x14f;" glyph-name="obreve" horiz-adv-x="416" d="M373 265Q373 325 361 368T327 440T274 482T206 496Q134 496 89 438T43 261V236Q43 177 55 134T88 62T140 19T208 5Q281 5 327 62T373 240V265ZM386 240Q386 177 373 131T336 55T280 9T208
-6Q169 -6 136 8T80 52T43 128T30 237V261Q30 324 43 370T79 447T135 492T206 507Q246 507 279 493T336 449T373 373T386 264V240ZM129 669Q132 637 152 618T206 599Q239 599 259 618T283 669H295Q291 631 268 610T206 588Q168 588 145 609T117 669H129Z" />
<glyph unicode="&#x150;" glyph-name="Ohungarumlaut" horiz-adv-x="537" d="M296 733L333 835H347L309 733H296ZM211 733L248 835H262L224 733H211ZM268 -6Q157 -6 98 79T38 336V358Q38 528 97 613T268 699Q379 699 439 614T499 358V335Q499 167 440 81T268 -6ZM268
5Q374 5 430 88T487 335V358Q487 524 430 606T268 688Q162 688 106 606T50 358V336Q50 170 107 88T268 5Z" />
<glyph unicode="&#x151;" glyph-name="ohungarumlaut" horiz-adv-x="416" d="M209 709L163 586H150L195 709H209ZM294 709L248 586H235L280 709H294ZM373 265Q373 325 361 368T327 440T274 482T206 496Q134 496 89 438T43 261V236Q43 177 55 134T88 62T140 19T208
5Q281 5 327 62T373 240V265ZM386 240Q386 177 373 131T336 55T280 9T208 -6Q169 -6 136 8T80 52T43 128T30 237V261Q30 324 43 370T79 447T135 492T206 507Q246 507 279 493T336 449T373 373T386 264V240Z" />
<glyph unicode="&#x152;" glyph-name="OE" horiz-adv-x="737" d="M50 334Q50 170 109 91T303 11H409V682H302Q168 682 109 601T50 360V334ZM303 0Q163 0 101 82T38 335V359Q38 527 100 610T302 693H710V682H421V365H645V353H421V11H711V0H303Z" />
<glyph unicode="&#x153;" glyph-name="oe" horiz-adv-x="731" d="M690 275Q690 386 655 441T546 496Q476 496 433 444T387 275H690ZM208 5Q281 5 327 62T373 240V265Q373 325 361 368T327 440T274 482T206 496Q134 496 89 438T43 261V236Q43 177 55 134T88 62T140
19T208 5ZM689 23Q672 14 639 4T563 -6Q485 -6 439 35T379 166Q365 77 319 36T208 -6Q169 -6 136 8T80 52T43 128T30 237V261Q30 324 43 370T79 447T135 492T206 507Q272 507 318 467T380 340Q394 428 437 467T546 507Q627 507 665 449T703 275V263H386V244Q386
5 564 5Q604 5 636 14T689 35V23Z" />
<glyph unicode="&#x154;" glyph-name="Racute" horiz-adv-x="436" d="M196 733L245 835H258L209 733H196ZM78 0H65V693H213Q302 693 342 647T383 512Q383 435 353 388T250 330V329L420 0H407L236 328Q233 327 225 327H78V0ZM217 338Q259 338 288 351T335 387T362
442T370 512Q370 595 333 638T213 682H78V338H217Z" />
<glyph unicode="&#x155;" glyph-name="racute" horiz-adv-x="241" d="M464 709L397 586H384L450 709H464ZM69 500V438H70Q93 463 127 484T205 506Q212 506 218 506T229 504V493Q224 494 218 494T205 495Q184 495 165 489T129 472T97 449T69 423V0H57V500H69Z" />
<glyph unicode="&#x156;" glyph-name="Rcommaaccent" horiz-adv-x="436" d="M238 -42L222 -150H211L226 -42H238ZM78 0H65V693H213Q302 693 342 647T383 512Q383 435 353 388T250 330V329L420 0H407L236 328Q233 327 225 327H78V0ZM217 338Q259 338 288 351T335
387T362 442T370 512Q370 595 333 638T213 682H78V338H217Z" />
<glyph unicode="&#x157;" glyph-name="rcommaaccent" horiz-adv-x="240" d="M324 -42L308 -150H297L312 -42H324ZM69 500V438H70Q93 463 127 484T205 506Q212 506 218 506T229 504V493Q224 494 218 494T205 495Q184 495 165 489T129 472T97 449T69 423V0H57V500H69Z" />
<glyph unicode="&#x158;" glyph-name="Rcaron" horiz-adv-x="436" d="M136 821L203 741L271 821H285L208 729H198L122 821H136ZM78 0H65V693H213Q302 693 342 647T383 512Q383 435 353 388T250 330V329L420 0H407L236 328Q233 327 225 327H78V0ZM217 338Q259 338
288 351T335 387T362 442T370 512Q370 595 333 638T213 682H78V338H217Z" />
<glyph unicode="&#x159;" glyph-name="rcaron" horiz-adv-x="241" d="M479 691L400 583H390L311 691H324L395 596L465 691H479ZM69 500V438H70Q93 463 127 484T205 506Q212 506 218 506T229 504V493Q224 494 218 494T205 495Q184 495 165 489T129 472T97 449T69
423V0H57V500H69Z" />
<glyph unicode="&#x15a;" glyph-name="Sacute" horiz-adv-x="398" d="M29 46Q58 29 96 17T182 5Q270 5 309 51T348 176Q348 215 338 243T310 291T267 324T212 350L177 364Q139 378 113 394T71 431T47 479T39 542Q39 575 48 603T78 653T128 687T200 699Q245 699
278 690T332 669V657Q312 669 279 678T200 688Q161 688 133 677T87 646T61 600T52 543Q52 508 58 483T80 438T121 404T182 375L216 361Q249 348 276 333T321 297T350 247T361 176Q361 93 318 44T181 -6Q134 -6 95 6T29 34V46ZM441 733L490 835H503L454 733H441Z"
/>
<glyph unicode="&#x15b;" glyph-name="sacute" horiz-adv-x="315" d="M485 709L418 586H405L471 709H485ZM266 472Q246 483 219 489T160 496Q103 496 75 467T47 391Q47 368 51 351T66 320T93 297T132 278L181 260Q233 240 259 212T286 126Q286 100 279 76T255
34T213 5T151 -6Q105 -6 76 4T27 25V37Q49 26 78 16T151 5Q184 5 207 15T245 41T267 80T274 126Q274 153 268 172T250 205T220 229T176 249L127 268Q79 286 57 312T34 391Q34 442 66 474T159 507Q196 507 222 500T266 483V472Z" />
<glyph unicode="&#x15c;" glyph-name="Scircumflex" horiz-adv-x="398" d="M263 730L196 809L128 730H114L191 821H201L277 730H263ZM29 46Q58 29 96 17T182 5Q270 5 309 51T348 176Q348 215 338 243T310 291T267 324T212 350L177 364Q139 378 113 394T71 431T47
479T39 542Q39 575 48 603T78 653T128 687T200 699Q245 699 278 690T332 669V657Q312 669 279 678T200 688Q161 688 133 677T87 646T61 600T52 543Q52 508 58 483T80 438T121 404T182 375L216 361Q249 348 276 333T321 297T350 247T361 176Q361 93 318 44T181 -6Q134
-6 95 6T29 34V46Z" />
<glyph unicode="&#x15d;" glyph-name="scircumflex" horiz-adv-x="315" d="M482 586L412 680L341 586H327L407 693H417L496 586H482ZM266 472Q246 483 219 489T160 496Q103 496 75 467T47 391Q47 368 51 351T66 320T93 297T132 278L181 260Q233 240 259 212T286
126Q286 100 279 76T255 34T213 5T151 -6Q105 -6 76 4T27 25V37Q49 26 78 16T151 5Q184 5 207 15T245 41T267 80T274 126Q274 153 268 172T250 205T220 229T176 249L127 268Q79 286 57 312T34 391Q34 442 66 474T159 507Q196 507 222 500T266 483V472Z" />
<glyph unicode="&#x15e;" glyph-name="Scedilla" horiz-adv-x="398" d="M255 -123Q255 -195 144 -200V-189Q243 -183 243 -124Q243 -95 222 -83T160 -70V-6Q118 -2 86 9T29 34V46Q58 29 96 17T182 5Q270 5 309 51T348 176Q348 215 338 243T310 291T267 324T212
350L177 364Q139 378 113 394T71 431T47 479T39 542Q39 575 48 603T78 653T128 687T200 699Q245 699 278 690T332 669V657Q312 669 279 678T200 688Q161 688 133 677T87 646T61 600T52 543Q52 508 58 483T80 438T121 404T182 375L216 361Q249 348 276 333T321 297T350
247T361 176Q361 93 318 44T181 -6H172V-59Q205 -61 230 -74T255 -123Z" />
<glyph unicode="&#x15f;" glyph-name="scedilla" horiz-adv-x="315" d="M220 -123Q220 -158 192 -178T109 -200V-189Q208 -183 208 -124Q208 -95 187 -83T125 -70V-5Q90 -2 67 7T27 25V37Q49 26 78 16T151 5Q184 5 207 15T245 41T267 80T274 126Q274 153 268 172T250
205T220 229T176 249L127 268Q79 286 57 312T34 391Q34 442 66 474T159 507Q196 507 222 500T266 483V472Q246 483 219 489T160 496Q103 496 75 467T47 391Q47 368 51 351T66 320T93 297T132 278L181 260Q233 240 259 212T286 126Q286 100 279 76T255 34T213 5T151
-6H137V-59Q170 -61 195 -74T220 -123Z" />
<glyph unicode="&#x160;" glyph-name="Scaron" horiz-adv-x="398" d="M129 821L196 741L264 821H278L201 729H191L115 821H129ZM29 46Q58 29 96 17T182 5Q270 5 309 51T348 176Q348 215 338 243T310 291T267 324T212 350L177 364Q139 378 113 394T71 431T47 479T39
542Q39 575 48 603T78 653T128 687T200 699Q245 699 278 690T332 669V657Q312 669 279 678T200 688Q161 688 133 677T87 646T61 600T52 543Q52 508 58 483T80 438T121 404T182 375L216 361Q249 348 276 333T321 297T350 247T361 176Q361 93 318 44T181 -6Q134 -6
95 6T29 34V46Z" />
<glyph unicode="&#x161;" glyph-name="scaron" horiz-adv-x="315" d="M492 691L413 583H403L324 691H337L408 596L478 691H492ZM266 472Q246 483 219 489T160 496Q103 496 75 467T47 391Q47 368 51 351T66 320T93 297T132 278L181 260Q233 240 259 212T286 126Q286
100 279 76T255 34T213 5T151 -6Q105 -6 76 4T27 25V37Q49 26 78 16T151 5Q184 5 207 15T245 41T267 80T274 126Q274 153 268 172T250 205T220 229T176 249L127 268Q79 286 57 312T34 391Q34 442 66 474T159 507Q196 507 222 500T266 483V472Z" />
<glyph unicode="&#x162;" glyph-name="Tcommaaccent" horiz-adv-x="413" d="M211 -42L195 -150H184L199 -42H211ZM212 0H200V682H14V693H399V682H212V0Z" />
<glyph unicode="&#x163;" glyph-name="tcommaaccent" horiz-adv-x="251" d="M424 -42L408 -150H397L412 -42H424ZM173 -3Q125 -3 105 18T85 85V489H17V500H85V620H98V500H224V489H98V86Q98 45 114 27T173 8Q188 8 203 11T229 18V7Q220 3 205 0T173 -3Z" />
<glyph unicode="&#x164;" glyph-name="Tcaron" horiz-adv-x="412" d="M137 821L204 741L272 821H286L209 729H199L123 821H137ZM212 0H200V682H14V693H399V682H212V0Z" />
<glyph unicode="&#x165;" glyph-name="tcaron" horiz-adv-x="249" d="M455 734L446 614H434L442 734H455ZM173 -3Q125 -3 105 18T85 85V489H17V500H85V620H98V500H224V489H98V86Q98 45 114 27T173 8Q188 8 203 11T229 18V7Q220 3 205 0T173 -3Z" />
<glyph unicode="&#x166;" glyph-name="Tbar" horiz-adv-x="412" d="M76 417H338V406H76V417ZM212 0H200V682H14V693H399V682H212V0Z" />
<glyph unicode="&#x167;" glyph-name="tbar" horiz-adv-x="249" d="M20 354H228V343H20V354ZM173 -3Q125 -3 105 18T85 85V489H17V500H85V620H98V500H224V489H98V86Q98 45 114 27T173 8Q188 8 203 11T229 18V7Q220 3 205 0T173 -3Z" />
<glyph unicode="&#x168;" glyph-name="Utilde" horiz-adv-x="505" d="M253 -6Q158 -6 110 45T62 206V693H74V206Q74 102 119 54T253 5Q342 5 386 54T431 206V693H444V206Q444 -6 253 -6ZM154 742Q156 768 170 782T204 796Q220 796 232 790T256 775T279 761T305
754Q321 754 331 765T343 796H355Q352 771 338 757T304 742Q289 742 277 748T253 763T229 777T204 784Q189 784 178 773T165 742H154Z" />
<glyph unicode="&#x169;" glyph-name="utilde" horiz-adv-x="410" d="M340 0V49H339Q304 26 262 10T177 -6Q56 -6 56 108V500H68V108Q68 5 178 5Q221 5 264 22T340 62V500H353V0H340ZM104 608Q106 634 120 647T154 661Q170 661 182 655T206 641T229 627T255 620Q271
620 281 631T293 661H305Q302 637 288 623T254 608Q239 608 227 614T203 629T179 643T154 650Q139 650 128 639T115 608H104Z" />
<glyph unicode="&#x16a;" glyph-name="Umacron" horiz-adv-x="505" d="M253 -6Q158 -6 110 45T62 206V693H74V206Q74 102 119 54T253 5Q342 5 386 54T431 206V693H444V206Q444 -6 253 -6ZM173 760H335V748H173V760Z" />
<glyph unicode="&#x16b;" glyph-name="umacron" horiz-adv-x="410" d="M340 0V49H339Q304 26 262 10T177 -6Q56 -6 56 108V500H68V108Q68 5 178 5Q221 5 264 22T340 62V500H353V0H340ZM124 636H284V624H124V636Z" />
<glyph unicode="&#x16c;" glyph-name="Ubreve" horiz-adv-x="505" d="M253 -6Q158 -6 110 45T62 206V693H74V206Q74 102 119 54T253 5Q342 5 386 54T431 206V693H444V206Q444 -6 253 -6ZM177 810Q180 779 200 760T254 741Q287 741 307 760T331 810H343Q339 773
316 752T254 730Q216 730 193 751T165 810H177Z" />
<glyph unicode="&#x16d;" glyph-name="ubreve" horiz-adv-x="410" d="M340 0V49H339Q304 26 262 10T177 -6Q56 -6 56 108V500H68V108Q68 5 178 5Q221 5 264 22T340 62V500H353V0H340ZM127 669Q130 637 150 618T204 599Q237 599 257 618T281 669H293Q289 631 266
610T204 588Q166 588 143 609T115 669H127Z" />
<glyph unicode="&#x16e;" glyph-name="Uring" horiz-adv-x="505" d="M253 -6Q158 -6 110 45T62 206V693H74V206Q74 102 119 54T253 5Q342 5 386 54T431 206V693H444V206Q444 -6 253 -6ZM253 1100Q282 1100 300 1081T319 1032Q319 1003 301 984T253 964Q224 964
206 983T188 1032Q188 1061 206 1080T253 1100ZM253 1089Q229 1089 215 1073T200 1032Q200 1007 214 991T253 975Q278 975 292 991T307 1032Q307 1056 293 1072T253 1089Z" />
<glyph unicode="&#x16f;" glyph-name="uring" horiz-adv-x="410" d="M461 714Q490 714 508 695T527 646Q527 617 509 598T461 579Q432 579 414 598T395 646Q395 675 413 694T461 714ZM461 703Q436 703 422 687T407 646Q407 622 421 606T461 590Q486 590 500 606T515
646Q515 671 501 687T461 703ZM340 0V49H339Q304 26 262 10T177 -6Q56 -6 56 108V500H68V108Q68 5 178 5Q221 5 264 22T340 62V500H353V0H340Z" />
<glyph unicode="&#x170;" glyph-name="Uhungarumlaut" horiz-adv-x="505" d="M280 733L317 835H331L293 733H280ZM195 733L232 835H246L208 733H195ZM253 -6Q158 -6 110 45T62 206V693H74V206Q74 102 119 54T253 5Q342 5 386 54T431 206V693H444V206Q444 -6 253 -6Z" />
<glyph unicode="&#x171;" glyph-name="uhungarumlaut" horiz-adv-x="410" d="M340 0V49H339Q304 26 262 10T177 -6Q56 -6 56 108V500H68V108Q68 5 178 5Q221 5 264 22T340 62V500H353V0H340ZM212 709L166 586H153L198 709H212ZM297 709L251 586H238L283 709H297Z" />
<glyph unicode="&#x172;" glyph-name="Uogonek" horiz-adv-x="505" d="M231 -124Q231 -106 237 -89T253 -57T275 -27Q287 -13 299 -2Q283 -6 253 -6Q158 -6 110 45T62 206V693H74V206Q74 102 119 54T253 5Q342 5 386 54T431 206V693H444V206Q444 124 414 71T318
1Q290 -23 267 -55T244 -123Q244 -149 258 -166T305 -183Q315 -183 323 -181T338 -177V-188Q333 -190 325 -192T305 -195Q268 -195 250 -175T231 -124Z" />
<glyph unicode="&#x173;" glyph-name="uogonek" horiz-adv-x="410" d="M340 49H339Q304 26 262 10T177 -6Q56 -6 56 108V500H68V108Q68 5 178 5Q221 5 264 22T340 62V500H353V-1Q339 -14 325 -28T300 -58T283 -89T276 -123Q276 -149 291 -166T337 -183Q347 -183
356 -181T370 -177V-188Q365 -190 357 -192T337 -195Q301 -195 283 -175T264 -124Q264 -105 271 -88T289 -54T313 -25T340 1V49Z" />
<glyph unicode="&#x174;" glyph-name="Wcircumflex" horiz-adv-x="686" d="M410 730L343 809L275 730H261L338 821H348L424 730H410ZM17 693H30L178 23H179L337 693H351L508 23H509L656 693H669L516 0H501L345 668H344L186 0H171L17 693Z" />
<glyph unicode="&#x175;" glyph-name="wcircumflex" horiz-adv-x="566" d="M354 586L284 680L213 586H199L279 693H289L368 586H354ZM29 500L149 23H150L278 500H290L415 23H416L537 500H549L422 0H408L285 475H284L156 0H143L17 500H29Z" />
<glyph unicode="&#x176;" glyph-name="Ycircumflex" horiz-adv-x="424" d="M206 300L10 693H24L212 316H213L400 693H414L218 300V0H206V300ZM278 730L211 809L143 730H129L206 821H216L292 730H278Z" />
<glyph unicode="&#x177;" glyph-name="ycircumflex" horiz-adv-x="369" d="M28 500L192 23H193L344 500H357L167 -95Q152 -145 132 -170T67 -195Q55 -195 44 -193T26 -189V-177Q34 -179 45 -181T67 -183Q105 -183 123 -162T155 -94L186 2L16 500H28ZM515 586L445
680L374 586H360L440 693H450L529 586H515Z" />
<glyph unicode="&#x178;" glyph-name="Ydieresis" horiz-adv-x="424" d="M206 300L10 693H24L212 316H213L400 693H414L218 300V0H206V300ZM282 775V740H269V775H282ZM152 740V775H165V740H152Z" />
<glyph unicode="&#x179;" glyph-name="Zacute" horiz-adv-x="420" d="M206 733L255 835H268L219 733H206ZM28 10L374 682H50V693H389V683L43 12V11H390V0H28V10Z" />
<glyph unicode="&#x17a;" glyph-name="zacute" horiz-adv-x="332" d="M485 709L418 586H405L471 709H485ZM311 0H21V10L296 488V489H34V500H311V490L36 12V11H311V0Z" />
<glyph unicode="&#x17b;" glyph-name="Zdotaccent" horiz-adv-x="420" d="M28 10L374 682H50V693H389V683L43 12V11H390V0H28V10ZM222 779V743H209V779H222Z" />
<glyph unicode="&#x17c;" glyph-name="zdotaccent" horiz-adv-x="332" d="M311 0H21V10L296 488V489H34V500H311V490L36 12V11H311V0ZM432 655V617H420V655H432Z" />
<glyph unicode="&#x17d;" glyph-name="Zcaron" horiz-adv-x="420" d="M153 821L220 741L288 821H302L225 729H215L139 821H153ZM28 10L374 682H50V693H389V683L43 12V11H390V0H28V10Z" />
<glyph unicode="&#x17e;" glyph-name="zcaron" horiz-adv-x="332" d="M507 691L428 583H418L339 691H352L423 596L493 691H507ZM311 0H21V10L296 488V489H34V500H311V490L36 12V11H311V0Z" />
<glyph unicode="&#x192;" glyph-name="florin" horiz-adv-x="328" d="M-80 -156Q-72 -161 -60 -164T-33 -167Q-14 -167 1 -161T28 -141T49 -103T63 -42L129 432H50V444H130L151 595Q162 674 192 707T277 741Q296 741 309 738T329 731V720Q321 724 308 726T277
729Q226 729 200 697T163 593L143 444H250V432H141L75 -44Q64 -121 37 -149T-33 -178Q-48 -178 -60 -175T-80 -168V-156Z" />
<glyph unicode="&#x1fa;" glyph-name="Aringacute" horiz-adv-x="470" d="M235 668H234L107 258H362L235 668ZM27 0H14L228 693H240L455 0H442L365 247H104L27 0ZM220 875L269 977H282L233 875H220ZM232 854Q261 854 279 835T298 786Q298 757 280 738T232 718Q203
718 185 737T167 786Q167 815 185 834T232 854ZM232 843Q208 843 194 827T179 786Q179 761 193 745T232 729Q257 729 271 745T286 786Q286 810 272 826T232 843Z" />
<glyph unicode="&#x1fb;" glyph-name="aringacute" horiz-adv-x="356" d="M289 0V39H288Q275 26 244 10T161 -6Q98 -6 62 29T26 130Q26 192 57 224T154 267L289 289V374Q289 441 261 468T174 496Q143 496 115 490T64 472V484Q87 494 115 500T175 507Q238 507 270
477T302 374V0H289ZM161 5Q209 5 240 21T289 54V278L156 256Q95 245 67 216T39 130Q39 70 71 38T161 5ZM433 967Q462 967 480 948T499 899Q499 870 481 851T433 832Q404 832 386 851T367 899Q367 928 385 947T433 967ZM433 956Q408 956 394 940T379 899Q379 875
393 859T433 843Q458 843 472 859T487 899Q487 924 473 940T433 956ZM419 746L468 848H481L432 746H419Z" />
<glyph unicode="&#x1fc;" glyph-name="AEacute" horiz-adv-x="691" d="M496 733L545 835H558L509 733H496ZM360 693H665V682H378V365H600V353H378V11H665V0H365V222H128L13 0H0L360 693ZM364 674L134 234H365V674H364Z" />
<glyph unicode="&#x1fd;" glyph-name="aeacute" horiz-adv-x="643" d="M387 709L320 586H307L373 709H387ZM477 -6Q368 -6 323 73Q299 42 262 18T169 -6Q102 -6 64 29T26 128Q26 191 60 224T160 264L289 278V372Q289 441 261 468T172 496Q141 496 114 490T62 473V484Q85
495 113 501T173 507Q236 507 267 478T301 382V374Q318 443 360 475T459 507Q539 507 577 450T615 279V267H301V244Q301 123 343 64T477 5Q517 5 548 14T601 36V24Q582 13 550 4T477 -6ZM162 254Q99 247 69 216T39 128Q39 70 73 38T169 5Q196 5 219 12T260 30T292
55T317 83Q289 143 289 245V267L162 254ZM459 496Q391 496 348 444T302 279H603Q603 496 459 496Z" />
<glyph unicode="&#x1fe;" glyph-name="Oslashacute" horiz-adv-x="537" d="M251 733L300 835H313L264 733H251Z" />
<glyph unicode="&#x1ff;" glyph-name="oslashacute" horiz-adv-x="416" d="M520 709L453 586H440L506 709H520Z" />
<glyph unicode="&#x218;" glyph-name="Scommaaccent" horiz-adv-x="395" d="M198 -42L182 -150H171L186 -42H198ZM29 46Q58 29 96 17T182 5Q270 5 309 51T348 176Q348 215 338 243T310 291T267 324T212 350L177 364Q139 378 113 394T71 431T47 479T39 542Q39 575
48 603T78 653T128 687T200 699Q245 699 278 690T332 669V657Q312 669 279 678T200 688Q161 688 133 677T87 646T61 600T52 543Q52 508 58 483T80 438T121 404T182 375L216 361Q249 348 276 333T321 297T350 247T361 176Q361 93 318 44T181 -6Q134 -6 95 6T29 34V46Z"
/>
<glyph unicode="&#x219;" glyph-name="scommaaccent" horiz-adv-x="314" d="M421 -42L405 -150H394L409 -42H421ZM266 472Q246 483 219 489T160 496Q103 496 75 467T47 391Q47 368 51 351T66 320T93 297T132 278L181 260Q233 240 259 212T286 126Q286 100 279
76T255 34T213 5T151 -6Q105 -6 76 4T27 25V37Q49 26 78 16T151 5Q184 5 207 15T245 41T267 80T274 126Q274 153 268 172T250 205T220 229T176 249L127 268Q79 286 57 312T34 391Q34 442 66 474T159 507Q196 507 222 500T266 483V472Z" />
<glyph unicode="&#x21a;" glyph-name="uni021A" horiz-adv-x="413" d="M211 -42L195 -150H184L199 -42H211ZM212 0H200V682H14V693H399V682H212V0Z" />
<glyph unicode="&#x21b;" glyph-name="uni021B" horiz-adv-x="251" d="M424 -42L408 -150H397L412 -42H424ZM173 -3Q125 -3 105 18T85 85V489H17V500H85V620H98V500H224V489H98V86Q98 45 114 27T173 8Q188 8 203 11T229 18V7Q220 3 205 0T173 -3Z" />
<glyph unicode="&#x237;" glyph-name="uni0237" horiz-adv-x="128" d="M71 500V-88Q71 -142 50 -166T-18 -191Q-39 -191 -59 -186V-174Q-51 -176 -41 -178T-19 -180Q23 -180 41 -159T59 -88V500H71Z" />
<glyph unicode="&#x2c6;" glyph-name="circumflex" horiz-adv-x="387" d="M263 586L193 680L122 586H108L188 693H198L277 586H263Z" />
<glyph unicode="&#x2c7;" glyph-name="caron" horiz-adv-x="387" d="M278 691L199 583H189L110 691H123L194 596L264 691H278Z" />
<glyph unicode="&#x2d8;" glyph-name="breve" horiz-adv-x="399" d="M122 669Q125 637 145 618T199 599Q232 599 252 618T276 669H288Q284 631 261 610T199 588Q161 588 138 609T110 669H122Z" />
<glyph unicode="&#x2d9;" glyph-name="dotaccent" horiz-adv-x="389" d="M200 655V617H188V655H200Z" />
<glyph unicode="&#x2da;" glyph-name="ring" horiz-adv-x="406" d="M221 714Q250 714 268 695T287 646Q287 617 269 598T221 579Q192 579 174 598T155 646Q155 675 173 694T221 714ZM221 703Q196 703 182 687T167 646Q167 622 181 606T221 590Q246 590 260 606T275
646Q275 671 261 687T221 703Z" />
<glyph unicode="&#x2db;" glyph-name="ogonek" horiz-adv-x="406" d="M225 0Q211 -13 197 -27T172 -56T154 -88T147 -123Q147 -149 162 -166T208 -183Q218 -183 226 -181T241 -177V-188Q236 -190 228 -192T208 -195Q171 -195 153 -175T134 -124Q134 -105 141 -88T159
-55T184 -26T209 0H225Z" />
<glyph unicode="&#x2dc;" glyph-name="tilde" horiz-adv-x="392" d="M94 608Q96 634 110 647T144 661Q160 661 172 655T196 641T219 627T245 620Q261 620 271 631T283 661H295Q292 637 278 623T244 608Q229 608 217 614T193 629T169 643T144 650Q129 650 118 639T105
608H94Z" />
<glyph unicode="&#x2dd;" glyph-name="hungarumlaut" horiz-adv-x="367" d="M191 709L145 586H132L177 709H191ZM276 709L230 586H217L262 709H276Z" />
</font>
</defs>
</svg>
