<?xml version="1.0" standalone="no"?> <!DOCTYPE svg PUBLIC "-//W3C//DTD SVG 1.0//EN" "http://www.w3.org/TR/2001/REC-SVG-20010904/DTD/svg10.dtd" > <svg xmlns="http://www.w3.org/2000/svg" width="100%" height="100%">
<defs >
<font horiz-adv-x="496" ><font-face
    font-family=""
    units-per-em="1000"
    panose-1="2 6 2 3 5 5 3 6 8 3"
    ascent="790"
    descent="-210"
    alphabetic="0" />
<missing-glyph horiz-adv-x="495" />
<glyph unicode=" " glyph-name="space" horiz-adv-x="200" />
<glyph unicode="!" glyph-name="exclam" horiz-adv-x="170" d="M78 693H92L90 166H80L78 693ZM85 -4Q71 -4 71 10Q71 24 85 24Q99 24 99 10Q99 -4 85 -4Z" />
<glyph unicode="&quot;" glyph-name="quotedbl" horiz-adv-x="184" d="M118 693H134L132 544H120L118 693ZM50 693H66L64 544H52L50 693Z" />
<glyph unicode="#" glyph-name="numbersign" horiz-adv-x="449" d="M63 447H154L193 693H205L166 447H311L350 693H362L323 447H412V436H321L294 267H385V256H292L252 0H240L280 256H135L95 0H83L123 256H37V267H125L152 436H63V447ZM137 267H282L309 436H164L137 267Z" />
<glyph unicode="$" glyph-name="dollar" horiz-adv-x="498" d="M196 -7Q153 -3 114 8T48 35L43 144H53L59 43Q82 29 119 18T197 4L233 358L228 360Q142 390 101 431T60 543Q60 576 71 605T105 655T163 689T248 701Q253 701 257 701T267 700L274 765H287L280 699Q322
695 355 684T405 664L411 567H401L394 657Q380 663 350 673T279 688L246 367L255 364Q304 347 338 331T395 293T428 241T439 168Q439 87 389 39T227 -9Q222 -9 218 -9T209 -8L198 -117H185L196 -7ZM245 354L210 3H227Q332 3 379 46T426 168Q426 209 416 236T385
284T331 320T251 352L245 354ZM73 544Q73 479 110 440T232 372L234 371L266 689Q261 690 257 690T248 690Q158 690 116 649T73 544Z" />
<glyph unicode="%" glyph-name="percent" horiz-adv-x="739" d="M182 357Q120 357 82 401T43 527Q43 569 53 601T83 656T127 690T183 702Q212 702 237 691T281 657T310 603T321 530Q321 448 283 403T182 357ZM557 -6Q495 -6 457 38T418 164Q418 206 428 238T458
293T502 327T558 339Q587 339 612 328T656 294T685 240T696 167Q696 85 658 40T557 -6ZM182 368Q239 368 273 411T308 530Q308 607 273 649T183 691Q127 691 92 648T56 527Q56 452 90 410T182 368ZM557 5Q614 5 648 48T683 167Q683 244 648 286T558 328Q502 328
467 285T431 164Q431 89 465 47T557 5ZM614 713H628L116 -40H102L614 713Z" />
<glyph unicode="&amp;" glyph-name="ampersand" horiz-adv-x="638" d="M228 -9Q186 -9 150 4T87 40T45 94T30 164Q30 200 41 230T74 286T130 335T209 382Q197 397 184 415T161 453T143 498T136 550Q136 589 149 617T184 664T233 692T288 702Q315 702 339 693T381
666T409 623T419 566Q419 530 405 504T366 456T306 416T228 378L440 123Q458 150 471 178T494 235T511 288T523 334L444 335V345H606V335L535 334Q530 313 523 287T506 231T481 172T447 114L533 11L622 10V0H526L440 103Q405 56 353 24T228 -9ZM228 2Q299 2 349
33T433 112L216 374Q130 330 87 282T43 164Q43 129 57 99T96 48T155 14T228 2ZM149 550Q149 523 155 499T172 455T196 418T221 386Q262 406 296 423T354 461T392 506T406 566Q406 626 372 658T288 691Q263 691 238 683T194 657T162 613T149 550Z" />
<glyph unicode="&apos;" glyph-name="quotesingle" horiz-adv-x="116" d="M50 693H66L64 544H52L50 693Z" />
<glyph unicode="(" glyph-name="parenleft" horiz-adv-x="284" d="M240 -133Q215 -110 182 -72T118 19T67 143T46 302Q46 383 67 452T118 576T181 673T240 737L247 730Q223 706 191 666T129 572T80 449T59 302Q59 215 79 146T129 25T190 -65T247 -126L240 -133V-133Z" />
<glyph unicode=")" glyph-name="parenright" horiz-adv-x="284" d="M37 -126Q61 -102 93 -62T155 32T204 155T225 302Q225 389 205 458T155 579T94 669T37 730L44 737Q69 714 102 676T166 585T217 461T238 302Q238 221 217 152T166 28T103 -69T44 -133L37 -126Z" />
<glyph unicode="*" glyph-name="asterisk" horiz-adv-x="276" d="M133 559L35 499L29 510L128 568L28 627L34 638L133 577L132 693H145L144 577L242 638L248 627L148 568L247 510L241 499L144 559L145 444H132L133 559Z" />
<glyph unicode="+" glyph-name="plus" horiz-adv-x="483" d="M63 310H235V486H248V310H420V299H248V123H235V299H63V310Z" />
<glyph unicode="," glyph-name="comma" horiz-adv-x="116" d="M35 -116Q55 -57 55 23H71Q71 -18 64 -52T46 -116H35V-116Z" />
<glyph unicode="-" glyph-name="hyphen" horiz-adv-x="240" d="M28 272H212V261H28V272Z" />
<glyph unicode="." glyph-name="period" horiz-adv-x="116" d="M58 -4Q44 -4 44 10Q44 24 58 24Q72 24 72 10Q72 -4 58 -4Z" />
<glyph unicode="/" glyph-name="slash" horiz-adv-x="304" d="M255 733H268L28 -120H15L255 733Z" />
<glyph unicode="0" glyph-name="zero" horiz-adv-x="610" d="M305 -9Q243 -9 195 15T115 85T66 197T49 347Q49 430 65 496T114 607T195 677T305 702Q367 702 415 678T495 608T544 497T561 347Q561 263 545 197T496 86T415 16T305 -9ZM305 2Q424 2 485 93T547 347Q547
510 486 600T305 691Q186 691 125 601T63 347Q63 185 124 94T305 2Z" />
<glyph unicode="1" glyph-name="one" horiz-adv-x="320" d="M47 10L160 11V686L27 641V650L165 700H173V11L287 10V0H47V10Z" />
<glyph unicode="2" glyph-name="two" horiz-adv-x="483" d="M24 11L199 180Q239 219 276 257T341 336T385 418T402 507Q402 592 361 641T225 691Q174 691 135 680T58 649V660Q96 680 136 691T225 702Q323 702 369 650T415 507Q415 459 397 415T350 329T283 249T205
171L39 12V11H419L425 113H435L430 0H24V11Z" />
<glyph unicode="3" glyph-name="three" horiz-adv-x="481" d="M223 -9Q157 -9 113 2T31 33V44Q73 24 117 13T223 2Q276 2 314 15T376 53T411 111T423 188Q423 276 370 321T211 366H154V377H208Q247 377 280 387T337 418T375 469T389 537Q389 612 345 651T216 691Q167
691 131 681T59 656V667Q91 682 129 692T216 702Q306 702 354 659T402 538Q402 497 388 467T352 417T304 387T253 373V372Q287 370 319 360T378 328T420 272T436 188Q436 98 384 45T223 -9Z" />
<glyph unicode="4" glyph-name="four" horiz-adv-x="515" d="M270 10L365 11V215H15V226L367 693H378V226H502V215H378V11L473 10V0H270V10ZM365 226V671H364L29 227V226H365Z" />
<glyph unicode="5" glyph-name="five" horiz-adv-x="472" d="M199 -9Q142 -9 102 1T25 30V41Q64 22 104 12T199 2Q257 2 298 18T364 61T401 125T413 204Q413 312 358 358T195 404Q156 404 121 397T62 382L88 693H414L413 682H98L75 396Q84 399 98 402T128 409T162
413T197 415Q307 415 366 366T426 204Q426 159 414 121T374 53T303 8T199 -9Z" />
<glyph unicode="6" glyph-name="six" horiz-adv-x="536" d="M290 -9Q171 -9 110 74T49 305Q49 411 71 486T133 610T225 680T339 702Q387 702 414 694T460 675V664Q439 675 410 683T339 691Q280 691 230 670T143 603T85 488T62 321Q97 351 150 376T280 402Q326
402 365 391T433 355T478 295T494 208Q494 153 478 112T435 44T370 4T290 -9ZM290 2Q331 2 366 15T426 53T466 117T481 207Q481 301 426 346T280 391Q241 391 209 384T151 365T102 339T62 309V304Q62 160 118 81T290 2Z" />
<glyph unicode="7" glyph-name="seven" horiz-adv-x="469" d="M439 681V682H36L30 586H20L25 693H452V682L147 0H133L439 681Z" />
<glyph unicode="8" glyph-name="eight" horiz-adv-x="546" d="M273 -12Q163 -12 104 38T45 174Q45 219 64 251T114 307T181 344T252 368Q216 378 183 392T125 427T85 479T70 552Q70 585 84 613T125 661T188 693T266 705Q308 705 344 695T409 666T453 617T469 550Q469
508 454 478T414 427T357 392T291 366Q328 355 365 341T433 305T482 249T501 167Q501 125 485 92T439 36T367 1T273 -12ZM273 -1Q373 -1 430 44T488 166Q488 214 469 245T419 299T348 335T267 362Q234 353 197 339T129 303T78 249T58 174Q58 135 72 103T113 48T180
12T273 -1ZM278 372Q310 384 342 397T399 430T441 479T457 550Q457 586 442 613T400 658T339 685T266 694Q227 694 194 684T136 654T97 609T83 552Q83 510 97 481T138 432T200 398T278 372Z" />
<glyph unicode="9" glyph-name="nine" horiz-adv-x="536" d="M210 -9Q158 -9 127 -1T77 17V28Q98 17 131 10T210 2Q274 2 322 23T404 89T455 205T474 376Q456 360 435 345T386 317T327 298T257 290Q210 290 171 302T103 340T58 403T42 492Q42 546 59 586T104 651T171
689T253 702Q312 702 356 681T429 620T472 523T487 392Q487 282 469 206T415 82T328 13T210 -9ZM257 301Q296 301 328 308T386 328T434 356T474 388V393Q474 533 421 612T253 691Q212 691 176 679T113 643T71 581T55 493Q55 398 111 350T257 301Z" />
<glyph unicode=":" glyph-name="colon" horiz-adv-x="126" d="M63 -4Q49 -4 49 10Q49 24 63 24Q77 24 77 10Q77 -4 63 -4ZM63 324Q49 324 49 338Q49 352 63 352Q77 352 77 338Q77 324 63 324Z" />
<glyph unicode=";" glyph-name="semicolon" horiz-adv-x="126" d="M37 -116Q57 -57 57 23H73Q73 -18 66 -52T48 -116H37ZM63 324Q49 324 49 338Q49 352 63 352Q77 352 77 338Q77 324 63 324Z" />
<glyph unicode="&lt;" glyph-name="less" horiz-adv-x="451" d="M58 302V315L384 470V457L70 309L384 159V146L58 302Z" />
<glyph unicode="=" glyph-name="equal" horiz-adv-x="451" d="M63 385H388V374H63V385ZM63 255H388V244H63V255Z" />
<glyph unicode="&gt;" glyph-name="greater" horiz-adv-x="451" d="M67 159L381 307L67 457V470L393 314V301L67 146V159Z" />
<glyph unicode="?" glyph-name="question" horiz-adv-x="374" d="M141 166Q133 183 127 202T120 247Q120 288 144 317T220 381Q241 396 259 412T292 447T315 491T323 547Q323 589 310 617T275 661T228 684T174 691Q131 691 99 682T28 655V666Q65 685 97 693T174
702Q203 702 232 695T284 670T321 622T336 547Q336 513 328 488T304 442T269 404T227 372Q203 355 185 341T156 312T138 282T132 247Q132 222 138 202T152 166H141ZM150 -4Q136 -4 136 10Q136 24 150 24Q164 24 164 10Q164 -4 150 -4Z" />
<glyph unicode="@" glyph-name="at" horiz-adv-x="833" d="M419 -133Q234 -133 140 -43T45 223Q45 311 74 391T158 533T289 630T458 666Q533 666 594 644T698 578T764 472T788 329Q788 259 773 206T729 118T663 65T578 47Q540 47 524 65T506 113H505Q464 72 429
60T362 47Q339 47 319 55T283 81T258 125T248 190Q248 240 261 291T301 383T365 451T455 478Q497 478 523 464T572 430L583 467H591L521 133Q518 119 518 106T525 82T544 65T578 58Q621 58 657 75T720 127T760 212T775 329Q775 406 753 466T689 569T590 633T458
655Q368 655 294 620T168 524T87 386T58 223Q58 52 149 -35T419 -122Q482 -122 536 -110T635 -77V-88Q593 -108 539 -120T419 -133ZM362 58Q394 58 430 72T508 129L569 419Q546 439 521 453T455 467Q407 467 371 442T310 376T273 287T261 190Q261 155 269 130T291
89T323 66T362 58Z" />
<glyph unicode="A" glyph-name="A" horiz-adv-x="620" d="M-5 10L59 11L304 693H316L561 11L625 10V0H456V10L546 11L466 234H152L72 11L162 10V0H-5V10ZM463 245L310 672H309L155 245H463Z" />
<glyph unicode="B" glyph-name="B" horiz-adv-x="586" d="M39 10L128 11V682L39 683V693H294Q409 693 458 655T508 530Q508 464 479 420T375 364V363Q463 355 505 309T547 185Q547 148 536 115T500 56T433 15T329 0H39V10ZM328 11Q425 11 478 54T532 185Q532 231
518 263T476 317T411 347T326 357H141V11H328ZM325 368Q407 368 450 407T494 528Q494 576 480 606T438 653T374 676T292 682H141V368H325Z" />
<glyph unicode="C" glyph-name="C" horiz-adv-x="601" d="M350 -11Q197 -11 123 81T49 345Q49 519 124 611T351 704Q390 704 418 701T469 693T507 680T539 666L546 535H536L526 657Q494 673 454 682T350 692Q205 692 134 602T63 347Q63 180 134 91T350 1Q415 1
458 11T532 38L541 158H551L545 29Q530 21 513 14T472 1T419 -8T350 -11Z" />
<glyph unicode="D" glyph-name="D" horiz-adv-x="649" d="M30 10L119 11V682L30 683V693H273Q365 693 427 670T528 603T583 494T600 348Q600 265 584 201T529 92T428 24T274 0H30V10ZM275 11Q439 11 512 93T586 347Q586 432 569 495T513 600T416 661T274 682H132V11H275Z" />
<glyph unicode="E" glyph-name="E" horiz-adv-x="561" d="M30 10L119 11V682L30 683V693H502L510 551H500L490 682H132V360H358L360 456H370V255H360L358 350H132V11H504L514 154H524L517 0H30V10Z" />
<glyph unicode="F" glyph-name="F" horiz-adv-x="538" d="M30 10L119 11V682L30 683V693H499L506 550H496L487 682H132V354H346L348 450H358V248H348L346 343H132V11L240 10V0H30V10Z" />
<glyph unicode="G" glyph-name="G" horiz-adv-x="662" d="M366 -10Q213 -10 131 82T49 345Q49 519 128 611T359 704Q399 704 429 702T482 694T523 683T557 669L563 545H553L545 660Q517 674 475 683T358 692Q212 692 138 603T63 347Q63 179 141 91T366 2Q420 2
462 8T549 30V265L448 266V277H645V266L563 265V22Q545 15 525 9T482 -1T430 -7T366 -10Z" />
<glyph unicode="H" glyph-name="H" horiz-adv-x="702" d="M30 10L119 11V682L30 683V693H230V683L132 682V366H569V682L471 683V693H672V683L583 682V11L672 10V0H471V10L569 11V355H132V11L230 10V0H30V10Z" />
<glyph unicode="I" glyph-name="I" horiz-adv-x="260" d="M30 10L123 11V682L30 683V693H230V683L137 682V11L230 10V0H30V10Z" />
<glyph unicode="J" glyph-name="J" horiz-adv-x="362" d="M117 -3Q89 -3 59 4T7 21V33Q33 22 62 16T116 9Q156 9 181 20T221 51T240 97T245 154V682L152 683V693H347V683L258 682V154Q258 122 252 94T230 44T187 10T117 -3Z" />
<glyph unicode="K" glyph-name="K" horiz-adv-x="609" d="M198 340V347L496 682L411 683V693H576V683L512 682L211 344L512 11L594 10V0H505L198 340ZM30 10L119 11V682L30 683V693H231V683L132 682V11L231 10V0H30V10Z" />
<glyph unicode="L" glyph-name="L" horiz-adv-x="527" d="M30 10L119 11V682L30 683V693H231V683L132 682V11H484L493 145H503L496 0H30V10Z" />
<glyph unicode="M" glyph-name="M" horiz-adv-x="818" d="M30 10L119 11V682L30 683V693H143L409 68H411L675 693H788V683L699 682V11L788 10V0H588V10L686 11V683H685L414 46H404L133 683H132V11L230 10V0H30V10Z" />
<glyph unicode="N" glyph-name="N" horiz-adv-x="696" d="M30 10L119 11V682L30 683V693H141L573 22H574V682L476 683V693H671V683L587 682V0H572L133 682H132V11L244 10V0H30V10Z" />
<glyph unicode="O" glyph-name="O" horiz-adv-x="681" d="M340 -9Q276 -9 223 14T131 83T71 195T49 347Q49 432 70 498T130 610T222 678T340 702Q404 702 458 679T550 610T610 498T632 347Q632 261 611 195T550 84T458 15T340 -9ZM340 2Q398 2 449 24T537 89T596
197T618 346Q618 432 597 496T538 604T449 669T340 691Q282 691 232 669T144 604T85 497T63 348Q63 262 84 198T143 90T231 24T340 2Z" />
<glyph unicode="P" glyph-name="P" horiz-adv-x="531" d="M30 10L119 11V682L30 683V693H275Q338 693 380 680T447 641T482 581T493 501Q493 410 438 363T293 316Q257 316 233 319T186 327V337Q209 332 234 330T292 327Q384 327 431 373T479 501Q479 542 470 575T438
632T375 669T275 682H132V11L231 10V0H30V10Z" />
<glyph unicode="Q" glyph-name="Q" horiz-adv-x="681" d="M285 -6Q173 19 111 108T49 347Q49 432 70 498T130 610T222 678T340 702Q404 702 458 679T550 610T610 498T632 347Q632 263 612 198T554 88T466 19T353 -8V-9L653 -75L650 -88L285 -6ZM340 2Q398 2 449
24T537 89T596 197T618 346Q618 432 597 496T538 604T449 669T340 691Q282 691 232 669T144 604T85 497T63 348Q63 262 84 198T143 90T231 24T340 2Z" />
<glyph unicode="R" glyph-name="R" horiz-adv-x="599" d="M30 10L119 11V682L30 683V693H282Q346 693 388 680T454 644T488 588T498 516Q498 483 490 453T462 400T410 360T332 339V338L520 11L595 10V0H512L318 337H132V11L222 10V0H30V10ZM296 348Q392 348 438
392T484 516Q484 552 476 582T445 635T383 669T281 682H132V348H296Z" />
<glyph unicode="S" glyph-name="S" horiz-adv-x="518" d="M240 -9Q187 -9 136 4T53 35L48 157H58L64 43Q92 27 140 15T240 3Q297 3 336 14T400 46T436 98T447 168Q447 209 437 236T405 284T348 319T264 352L241 360Q196 376 163 393T108 432T76 481T65 543Q65
576 75 605T108 655T168 689T261 701Q321 701 363 689T426 666L432 553H422L415 659Q399 667 358 678T261 690Q211 690 177 679T120 649T88 602T78 544Q78 479 118 441T245 372L268 364Q319 346 355 330T415 292T449 241T460 168Q460 127 449 95T411 39T343 4T240
-9Z" />
<glyph unicode="T" glyph-name="T" horiz-adv-x="563" d="M176 10L275 11V682H36L28 551H18L25 693H538L545 551H535L527 682H288V11L387 10V0H176V10Z" />
<glyph unicode="U" glyph-name="U" horiz-adv-x="680" d="M338 -9Q221 -9 165 45T108 213V682L24 683V693H219V683L121 682V214Q121 103 175 53T339 3Q448 3 504 53T561 214V682L472 683V693H656V683L572 682V213Q572 99 514 45T338 -9Z" />
<glyph unicode="V" glyph-name="V" horiz-adv-x="622" d="M67 682L3 683V693H178V683L81 682L311 22H312L541 682L445 683V693H619V683L555 682L317 0H304L67 682Z" />
<glyph unicode="W" glyph-name="W" horiz-adv-x="888" d="M69 682L5 683V693H173V683L83 682L250 23H251L436 693H449L635 23H636L805 682L715 683V693H883V683L819 682L642 0H628L443 667H442L257 0H243L69 682Z" />
<glyph unicode="X" glyph-name="X" horiz-adv-x="671" d="M23 10L100 11L326 366L124 682L48 683V693H228V683L138 682L336 374L533 682L443 683V693H623V683L547 682L345 366L571 11L648 10V0H464V10L556 11L335 357L114 11L206 10V0H23V10Z" />
<glyph unicode="Y" glyph-name="Y" horiz-adv-x="598" d="M204 10L293 11V319L76 682L12 683V693H178V683L91 682L299 332H300L507 682L420 683V693H586V683L522 682L306 319V11L396 10V0H204V10Z" />
<glyph unicode="Z" glyph-name="Z" horiz-adv-x="542" d="M29 10L494 680V682H74L67 544H57L62 693H512V683L46 12V11H486L496 143H507L499 0H29V10Z" />
<glyph unicode="[" glyph-name="bracketleft" horiz-adv-x="267" d="M81 734H228V724L94 723V-109L228 -110V-120H81V734Z" />
<glyph unicode="\" glyph-name="backslash" horiz-adv-x="304" d="M36 733H49L289 -120H276L36 733Z" />
<glyph unicode="]" glyph-name="bracketright" horiz-adv-x="267" d="M39 -110L173 -109V723L39 724V734H186V-120H39V-110Z" />
<glyph unicode="^" glyph-name="asciicircum" horiz-adv-x="349" d="M169 693H181L316 486H304L175 680L45 486H33L169 693Z" />
<glyph unicode="_" glyph-name="underscore" horiz-adv-x="293" d="M-9 -109H302V-120H-9V-109Z" />
<glyph unicode="`" glyph-name="grave" horiz-adv-x="490" d="M158 696L165 706L318 612L313 604L158 696Z" />
<glyph unicode="a" glyph-name="a" horiz-adv-x="456" d="M188 -6Q117 -6 78 28T39 122Q39 185 78 217T192 255L347 266V371Q347 436 319 468T220 500Q175 500 137 492T69 472V483Q99 494 137 502T221 511Q293 511 326 477T360 372V71Q360 34 374 21T414 8Q425
8 434 10T449 14V4Q444 2 433 0T412 -3Q380 -3 365 13T348 65H347Q322 32 280 13T188 -6ZM189 5Q237 5 279 24T347 80V255L194 245Q51 236 51 123Q51 65 88 35T189 5Z" />
<glyph unicode="b" glyph-name="b" horiz-adv-x="514" d="M265 -5Q201 -5 155 10T78 46V723L-15 724V734L88 735L91 734V440H92Q133 469 175 490T272 511Q314 511 351 499T416 459T461 382T478 262Q478 124 421 60T265 -5ZM265 6Q310 6 347 20T410 66T450 145T465
261Q465 330 450 375T409 449T347 488T270 500Q220 500 178 480T91 427V52Q118 32 161 19T265 6Z" />
<glyph unicode="c" glyph-name="c" horiz-adv-x="451" d="M268 -6Q209 -6 166 12T94 64T51 145T36 251Q36 319 54 368T104 449T177 496T263 511Q305 511 338 506T401 487V386H391L389 480Q363 491 332 495T262 500Q219 500 181 486T113 441T66 364T49 252Q49 138
103 72T269 5Q317 5 354 17T416 43V32Q392 18 356 6T268 -6Z" />
<glyph unicode="d" glyph-name="d" horiz-adv-x="534" d="M244 -6Q203 -6 165 6T99 49T53 127T36 248Q36 317 52 366T98 448T167 496T256 511Q319 511 356 497T423 461V723L325 724V734L434 735L436 733V11L518 10V0L425 -1L423 1V66H422Q402 51 382 38T340 16T295
0T244 -6ZM246 5Q296 5 337 26T423 79V448Q390 472 353 486T256 500Q211 500 174 486T108 442T65 364T49 249Q49 180 64 134T107 59T169 18T246 5Z" />
<glyph unicode="e" glyph-name="e" horiz-adv-x="468" d="M261 -6Q193 -6 150 15T81 71T46 153T36 251Q36 314 51 362T94 444T158 494T241 511Q328 511 380 455T433 280H50Q47 218 56 167T91 80T157 25T261 5Q320 5 357 17T420 45V34Q395 19 357 7T261 -6ZM420
291Q418 397 372 448T241 500Q199 500 165 485T107 443T69 377T51 291H420Z" />
<glyph unicode="f" glyph-name="f" horiz-adv-x="270" d="M16 10L98 11V493H13V503L98 504V598Q98 638 109 664T140 707T184 729T238 736Q260 736 274 734T302 727V716Q288 720 274 722T238 725Q212 725 189 720T149 700T122 661T111 598V504H252V493H111V11L208
10V0H16V10Z" />
<glyph unicode="g" glyph-name="g" horiz-adv-x="470" d="M51 351Q51 384 63 413T97 463T152 497T225 510Q254 510 278 504L433 505V495L303 496Q351 477 379 439T407 351Q407 318 394 289T357 239T300 205T225 192Q164 192 120 220Q102 203 89 185T76 140Q76
115 95 100T144 84H309Q370 84 410 59T450 -29Q450 -57 439 -86T400 -140T325 -179T205 -195Q156 -195 120 -185T60 -157T25 -116T13 -66Q13 -14 47 19T132 74V75Q103 77 84 95T64 139Q64 166 78 186T112 225Q83 247 67 279T51 351ZM206 -184Q276 -184 321 -169T391
-131T427 -81T437 -30Q437 27 402 50T308 73H151Q97 51 62 19T26 -66Q26 -89 36 -110T69 -147T125 -174T206 -184ZM225 203Q263 203 294 214T347 245T382 292T394 351Q394 382 382 409T348 456T294 487T225 499Q187 499 157 488T107 457T75 410T64 351Q64 319 75
292T106 246T157 215T225 203Z" />
<glyph unicode="h" glyph-name="h" horiz-adv-x="555" d="M16 10L98 11V723L6 724V734L109 735L111 733V441H112Q158 470 210 490T318 511Q395 511 427 478T460 382V11L542 10V0H361V10L447 11V380Q447 440 418 470T316 500Q265 500 212 480T111 429V11L198 10V0H16V10Z" />
<glyph unicode="i" glyph-name="i" horiz-adv-x="216" d="M16 10L103 11V493L13 494V504L114 505L116 503V11L203 10V0H16V10ZM103 645Q98 645 94 648T89 659Q89 666 93 669T103 673Q108 673 112 670T117 659Q117 652 113 649T103 645Z" />
<glyph unicode="j" glyph-name="j" horiz-adv-x="204" d="M14 -192Q-3 -192 -12 -191T-35 -185V-175Q-23 -178 -13 -179T14 -181Q57 -181 80 -158T103 -78V493L13 494V504L114 505L116 503V-78Q116 -138 89 -165T14 -192ZM103 645Q98 645 94 648T89 659Q89 666
93 669T103 673Q108 673 112 670T117 659Q117 652 113 649T103 645Z" />
<glyph unicode="k" glyph-name="k" horiz-adv-x="475" d="M16 10L98 11V723L6 724V734L109 735L111 733V11L198 10V0H16V10ZM163 263V267L382 494L315 495V505H450V495L398 494L177 265L396 11L469 10V0H390L163 263Z" />
<glyph unicode="l" glyph-name="l" horiz-adv-x="216" d="M16 10L103 11V723L6 724V734L114 735L116 733V11L203 10V0H16V10Z" />
<glyph unicode="m" glyph-name="m" horiz-adv-x="861" d="M16 10L98 11V493L13 494V504L109 505L111 503V443H112Q158 472 204 491T305 511Q356 511 385 494T429 440H430Q478 470 527 490T630 511Q761 511 761 390V11L848 10V0H662V10L749 11V389Q749 446 721
473T629 500Q578 500 531 481T432 429Q434 421 435 411T436 388V11L523 10V0H337V10L424 11V387Q424 444 396 472T304 500Q253 500 207 482T111 431V11L198 10V0H16V10Z" />
<glyph unicode="n" glyph-name="n" horiz-adv-x="555" d="M16 10L98 11V493L13 494V504L109 505L111 503V441H112Q158 470 210 490T318 511Q395 511 427 478T460 382V11L542 10V0H361V10L447 11V380Q447 440 418 470T316 500Q265 500 212 480T111 429V11L198 10V0H16V10Z" />
<glyph unicode="o" glyph-name="o" horiz-adv-x="512" d="M256 -6Q212 -6 172 9T102 55T53 134T35 249Q35 316 53 365T101 446T172 495T256 511Q300 511 340 496T410 449T459 369T477 253Q477 186 459 138T411 57T340 10T256 -6ZM256 5Q296 5 333 18T400 62T446
139T464 253Q464 320 447 367T400 443T334 486T256 500Q215 500 178 486T111 441T65 363T48 250Q48 184 65 138T112 62T178 19T256 5Z" />
<glyph unicode="p" glyph-name="p" horiz-adv-x="534" d="M16 -182L98 -181V493L13 494V504L109 505L111 503V440H112Q153 469 195 490T292 511Q334 511 371 499T436 459T481 382T498 262Q498 124 441 60T285 -5Q221 -5 181 8T111 37V-181L198 -182V-192H16V-182ZM285
6Q330 6 367 20T430 66T470 145T485 261Q485 330 470 375T429 449T367 488T290 500Q240 500 198 480T111 427V50Q144 31 184 19T285 6Z" />
<glyph unicode="q" glyph-name="q" horiz-adv-x="523" d="M337 -183L424 -182V63H423Q382 34 340 14T243 -6Q202 -6 165 6T99 49T53 127T36 248Q36 317 52 366T97 448T167 496T255 511Q288 511 313 508T360 498T400 484T437 465V-182L520 -183V-192H337V-183ZM245
5Q295 5 337 25T424 78V458Q410 467 394 474T357 487T312 496T255 500Q210 500 173 486T108 442T65 364T49 249Q49 180 64 134T107 59T169 18T245 5Z" />
<glyph unicode="r" glyph-name="r" horiz-adv-x="332" d="M16 10L98 11V493L13 494V504L109 505L111 503V431H112Q141 468 180 488T271 508Q277 508 287 507T303 504V493Q297 495 287 496T270 497Q221 497 181 476T111 416V11L198 10V0H16V10Z" />
<glyph unicode="s" glyph-name="s" horiz-adv-x="410" d="M194 -6Q148 -6 109 2T46 22L41 117H51L58 30Q84 19 120 12T194 5Q277 5 314 37T352 121Q352 150 345 170T324 205T289 228T239 246L166 265Q108 280 76 309T44 389Q44 446 82 478T197 511Q246 511 279
506T338 490L340 401H330L326 480Q306 490 272 495T196 500Q130 500 94 471T57 390Q57 344 84 318T168 277L241 258Q272 250 295 240T333 213T357 175T365 122Q365 65 324 30T194 -6Z" />
<glyph unicode="t" glyph-name="t" horiz-adv-x="288" d="M193 -5Q172 -5 154 -1T121 15T99 46T91 97V493H14V503L91 504V628H104V504H254V493H104V98Q104 69 110 52T129 24T157 10T194 6Q214 6 232 10T267 22V11Q252 4 232 0T193 -5Z" />
<glyph unicode="u" glyph-name="u" horiz-adv-x="545" d="M235 -5Q203 -5 178 1T134 22T105 65T95 133V493L13 494V504L106 505L108 503V135Q108 96 116 71T141 32T182 12T237 6Q288 6 337 22T437 66V493L355 494V504L448 505L450 503V11L532 10V0L439 -1L437
1V55H436Q385 26 335 11T235 -5Z" />
<glyph unicode="v" glyph-name="v" horiz-adv-x="522" d="M63 493L8 494V504H155V494L76 493L261 19H263L447 493L368 494V504H514V494L459 493L267 0H256L63 493Z" />
<glyph unicode="w" glyph-name="w" horiz-adv-x="748" d="M65 493L8 494V504H156V494L78 493L212 22H213L369 504H380L535 22H536L670 493L592 494V504H740V494L683 493L541 0H529L375 479H374L218 0H206L65 493Z" />
<glyph unicode="x" glyph-name="x" horiz-adv-x="494" d="M13 10L72 11L238 261L77 493L23 494V504H169V494L92 493L247 269H248L403 493L326 494V504H466V494L416 493L256 261L422 11L481 10V0H330V10L407 11L247 252H246L86 11L163 10V0H13V10Z" />
<glyph unicode="y" glyph-name="y" horiz-adv-x="520" d="M119 -192Q107 -192 95 -191T72 -186V-175Q96 -181 118 -181Q141 -181 157 -174T185 -154T205 -125T221 -88L260 13L63 493L8 494V504H155V494L76 493L266 29H267L444 493L365 494V504H512V494L457 493L232
-93Q224 -114 215 -132T192 -164T162 -184T119 -192Z" />
<glyph unicode="z" glyph-name="z" horiz-adv-x="435" d="M30 12L385 493V494H61L55 404H45L49 505H400V493L45 12V11H373L382 114H392L385 0H30V12Z" />
<glyph unicode="{" glyph-name="braceleft" horiz-adv-x="331" d="M292 -120Q247 -118 217 -111T169 -90T144 -59T136 -17Q136 5 140 34T150 93T159 152T164 204Q164 220 161 235T145 262T108 284T40 299V314Q83 319 107 328T144 350T160 378T164 409Q164 432
160 461T150 520T141 578T136 630Q136 654 143 672T169 703T217 723T292 733V723Q249 720 222 714T178 696T156 668T149 630Q149 608 153 580T163 521T172 462T177 409Q177 393 174 378T160 348T125 324T60 307V306Q101 300 124 290T159 265T174 236T177 204Q177
181 173 152T163 92T154 34T149 -17Q149 -39 155 -55T178 -82T221 -100T292 -110V-120V-120Z" />
<glyph unicode="|" glyph-name="bar" horiz-adv-x="191" d="M89 733H102V-120H89V733Z" />
<glyph unicode="}" glyph-name="braceright" horiz-adv-x="331" d="M39 -110Q82 -107 109 -101T153 -83T175 -55T182 -17Q182 5 178 33T168 92T159 151T154 204Q154 220 157 235T171 265T206 289T271 306V307Q230 313 207 323T172 348T157 377T154 409Q154 432
158 461T168 521T177 579T182 630Q182 652 176 668T153 695T110 713T39 723V733Q84 731 114 724T162 703T187 672T195 630Q195 607 191 579T181 520T172 461T167 409Q167 393 170 378T186 351T223 329T291 314V299Q248 294 224 285T187 263T171 235T167 204Q167
181 171 152T181 93T190 34T195 -17Q195 -41 188 -59T162 -90T114 -110T39 -120V-110Z" />
<glyph unicode="~" glyph-name="asciitilde" horiz-adv-x="344" d="M34 268Q48 297 67 312T116 327Q130 327 144 321T173 307T202 293T229 286Q255 286 271 299T300 337L310 332Q296 302 277 288T227 274Q213 274 199 280T170 294T141 308T114 315Q88 315 72 301T44
263L34 268Z" />
<glyph unicode="&#xa0;" glyph-name="uni00A0" horiz-adv-x="200" />
<glyph unicode="&#xa1;" glyph-name="exclamdown" horiz-adv-x="170" d="M80 407H90L92 -120H78L80 407ZM85 549Q71 549 71 563Q71 577 85 577Q99 577 99 563Q99 549 85 549Z" />
<glyph unicode="&#xa2;" glyph-name="cent" horiz-adv-x="451" d="M216 -2Q125 13 81 80T36 251Q36 319 54 368T104 449T177 496T263 511H279L287 580H300L291 510Q323 508 349 503T401 487V386H391L389 480Q347 498 290 499L229 7Q239 6 248 6T269 5Q317 5 354
17T416 43V32Q392 18 356 6T268 -6Q246 -6 228 -3L214 -118H202L216 -2ZM49 252Q49 152 90 88T217 9L277 500H262Q219 500 181 486T113 441T66 364T49 252Z" />
<glyph unicode="&#xa3;" glyph-name="sterling" horiz-adv-x="480" d="M41 349H122V488Q122 546 138 586T181 652T242 690T314 702Q360 702 390 694T445 674V662Q422 675 390 683T314 691Q279 691 247 680T189 645T150 582T135 488V349H354V338H135V197Q135 125
112 81T46 12V11H453L452 0H26V10Q75 39 98 81T122 197V338H41V349Z" />
<glyph unicode="&#xa5;" glyph-name="yen" horiz-adv-x="558" d="M89 339H268L66 682L12 683V693H168V683L81 682L279 345H280L477 682L390 683V693H546V683L492 682L290 339H472V328H286V239H472V228H286V11L376 10V0H183V10L273 11V228H89V239H273V328H89V339Z" />
<glyph unicode="&#xa6;" glyph-name="brokenbar" horiz-adv-x="194" d="M89 279H105V-120H89V279ZM89 733H105V371H89V733Z" />
<glyph unicode="&#xa7;" glyph-name="section" horiz-adv-x="470" d="M228 -122Q199 -122 178 -120T140 -114T109 -105T80 -94L71 5H81L90 -86Q103 -91 116 -95T145 -103T181 -109T228 -111Q294 -111 335 -80T377 9Q377 54 346 87T267 137L171 172Q143 182 118
195T73 226T43 265T31 314Q31 370 68 403T166 449Q131 469 111 499T91 573Q91 603 103 627T136 667T185 693T247 702Q292 702 319 695T372 678V586H362L361 671Q339 679 314 685T247 691Q184 691 144 660T104 573Q104 522 133 491T210 442L295 411Q323 401 349
390T395 363T427 327T439 277Q439 216 398 184T292 139Q337 119 363 86T390 9Q390 -53 345 -87T228 -122ZM206 431Q194 435 180 442Q120 431 82 400T44 314Q44 289 55 269T84 233T125 205T175 183L271 148Q273 146 276 146Q308 152 335 162T383 188T414 225T426
277Q426 304 415 323T384 356T341 380T291 400L206 431Z" />
<glyph unicode="&#xa8;" glyph-name="dieresis" horiz-adv-x="490" d="M305 645Q300 645 296 648T291 659Q291 666 295 669T305 673Q310 673 314 670T319 659Q319 652 315 649T305 645ZM185 645Q180 645 176 648T171 659Q171 666 175 669T185 673Q190 673 194
670T199 659Q199 652 195 649T185 645Z" />
<glyph unicode="&#xa9;" glyph-name="copyright" horiz-adv-x="806" d="M401 -9Q326 -9 262 19T151 95T78 207T51 346Q51 420 77 485T150 598T261 674T401 702Q476 702 540 674T653 598T728 485T755 346Q755 272 728 208T653 95T541 19T401 -9ZM401 2Q473 2 535
28T643 101T715 211T742 346Q742 418 716 481T644 590T536 664T401 691Q329 691 267 664T160 591T90 481T64 346Q64 274 89 211T160 102T267 29T401 2ZM412 158Q373 158 340 168T284 201T248 258T235 340Q235 393 249 430T288 491T346 526T417 537Q448 537 472
532T517 519L523 445H513L506 510Q475 526 417 526Q381 526 350 516T297 484T261 426T248 340Q248 252 292 211T412 169Q442 169 466 173T508 185L516 256H526L519 177Q496 169 470 164T412 158Z" />
<glyph unicode="&#xaa;" glyph-name="ordfeminine" horiz-adv-x="436" d="M177 237Q111 237 75 270T38 356Q38 413 75 442T180 477L321 487V576Q321 691 201 691Q159 691 126 684T66 665V676Q94 687 126 694T201 702Q334 702 334 576V309Q334 279 346 265T382
251Q394 251 400 251T414 254V244Q408 242 401 241T382 240Q356 240 340 255T322 306H321Q291 269 255 253T177 237ZM177 248Q218 248 255 264T321 319V477L180 467Q118 462 85 435T51 356Q51 308 83 278T177 248Z" />
<glyph unicode="&#xab;" glyph-name="guillemotleft" horiz-adv-x="336" d="M171 247V258L276 437H289L183 253L289 68H276L171 247ZM45 247V258L150 437H163L57 253L163 68H150L45 247Z" />
<glyph unicode="&#xae;" glyph-name="registered" horiz-adv-x="402" d="M200 355Q163 355 132 368T79 405T43 459T30 527Q30 563 43 594T78 649T132 686T200 700Q236 700 267 687T322 650T359 595T372 527Q372 491 359 460T323 405T268 369T200 355ZM200 366Q235
366 264 378T314 412T347 463T359 527Q359 560 347 589T314 641T264 676T200 689Q165 689 136 676T87 641T55 590T43 527Q43 493 54 464T86 413T136 379T200 366ZM124 449L151 450V611L124 612V622H203Q230 622 248 610T266 572Q266 528 220 520V519L263 450L290
449V439H254L205 518H164V450L188 449V439H124V449ZM207 529Q230 529 241 540T253 572Q253 593 240 602T203 611H164V529H207Z" />
<glyph unicode="&#xaf;" glyph-name="macron" horiz-adv-x="490" d="M143 662H347V651H143V662Z" />
<glyph unicode="&#xb0;" glyph-name="degree" horiz-adv-x="295" d="M148 469Q122 469 100 478T63 504T38 542T29 589Q29 613 38 634T62 672T100 698T148 708Q173 708 195 699T233 673T258 635T267 589Q267 564 258 543T233 505T195 479T148 469ZM148 480Q171
480 190 488T224 512T246 546T254 589Q254 610 246 629T224 664T191 688T148 697Q124 697 105 688T71 664T50 630T42 589Q42 566 49 547T71 512T104 489T148 480Z" />
<glyph unicode="&#xb4;" glyph-name="acute" horiz-adv-x="490" d="M172 612L325 706L332 696L177 604L172 612Z" />
<glyph unicode="&#xb6;" glyph-name="paragraph" horiz-adv-x="530" d="M299 382Q280 379 261 378T228 376Q186 376 151 385T91 415T52 465T38 538Q38 618 88 655T255 693H500V683L423 682V-120H410V682H312V-120H299V382Z" />
<glyph unicode="&#xb7;" glyph-name="periodcentered" horiz-adv-x="116" d="M58 294Q44 294 44 308Q44 322 58 322Q72 322 72 308Q72 294 58 294Z" />
<glyph unicode="&#xb8;" glyph-name="cedilla" horiz-adv-x="490" d="M222 -177Q284 -171 313 -156T342 -113Q342 -88 317 -77T245 -65V0H257V-54Q302 -56 328 -70T355 -113Q355 -143 323 -162T222 -188V-177Z" />
<glyph unicode="&#xba;" glyph-name="ordmasculine" horiz-adv-x="483" d="M241 237Q202 237 167 250T104 291T62 362T46 465Q46 525 61 569T104 643T166 686T241 701Q280 701 315 687T378 645T421 573T437 469Q437 409 421 365T378 293T316 251T241 237ZM241
248Q278 248 311 261T369 301T409 370T424 469Q424 526 409 567T369 636T311 676T241 690Q204 690 171 676T113 635T74 565T59 465Q59 408 73 367T113 300T171 261T241 248Z" />
<glyph unicode="&#xbb;" glyph-name="guillemotright" horiz-adv-x="336" d="M279 252L173 437H186L291 258V247L186 68H173L279 252ZM153 252L47 437H60L165 258V247L60 68H47L153 252Z" />
<glyph unicode="&#xbc;" glyph-name="onequarter" horiz-adv-x="679" d="M51 306V316L124 317V683L40 649V660L128 698H137V317L210 316V306H51ZM493 0V10L562 11V123H365V132L565 387H575V134H647V123H575V11L639 10V0H493ZM382 134H562V364H561L382 135V134ZM601
713H615L63 -40H49L601 713Z" />
<glyph unicode="&#xbd;" glyph-name="onehalf" horiz-adv-x="730" d="M60 306V316L133 317V683L49 649V660L137 698H146V317L219 316V306H60ZM592 713H606L54 -40H40L592 713ZM443 0V10L555 115Q600 157 631 197T662 282Q662 383 560 383Q532 383 505 374T458
354V365Q478 377 504 385T560 394Q616 394 645 365T675 282Q675 234 642 192T560 105L459 12V11H674L679 66H689L685 0H443Z" />
<glyph unicode="&#xbe;" glyph-name="threequarters" horiz-adv-x="709" d="M145 300Q107 300 82 307T36 324V335Q57 325 83 318T145 311Q204 311 232 339T261 415Q261 459 232 484T154 509H111V520H151Q193 520 219 542T246 607Q246 649 219 669T144 689Q115
689 93 683T49 665V677Q72 688 93 694T144 700Q197 700 228 677T259 607Q259 570 239 547T187 516V515Q226 507 250 482T274 415Q274 362 242 331T145 300ZM523 0V10L592 11V123H395V132L595 387H605V134H677V123H605V11L669 10V0H523ZM412 134H592V364H591L412
135V134ZM638 713H652L100 -40H86L638 713Z" />
<glyph unicode="&#xbf;" glyph-name="questiondown" horiz-adv-x="374" d="M233 407Q241 390 247 371T254 326Q254 285 230 256T154 192Q133 177 115 161T82 126T59 82T51 26Q51 -16 64 -44T99 -88T146 -111T200 -118Q243 -118 275 -109T346 -82V-93Q327 -102
311 -109T277 -120T241 -127T200 -129Q171 -129 142 -122T90 -97T53 -49T38 26Q38 60 46 85T70 131T105 169T147 201Q171 218 189 232T218 261T236 290T242 326Q242 351 236 371T222 407H233ZM224 577Q238 577 238 563Q238 549 224 549Q210 549 210 563Q210 577
224 577Z" />
<glyph unicode="&#xc0;" glyph-name="Agrave" horiz-adv-x="620" d="M217 810L223 821L384 742L380 734L217 810ZM-5 10L59 11L304 693H316L561 11L625 10V0H456V10L546 11L466 234H152L72 11L162 10V0H-5V10ZM463 245L310 672H309L155 245H463Z" />
<glyph unicode="&#xc1;" glyph-name="Aacute" horiz-adv-x="620" d="M-5 10L59 11L304 693H316L561 11L625 10V0H456V10L546 11L466 234H152L72 11L162 10V0H-5V10ZM463 245L310 672H309L155 245H463ZM243 734L239 742L400 821L406 810L243 734Z" />
<glyph unicode="&#xc2;" glyph-name="Acircumflex" horiz-adv-x="620" d="M-5 10L59 11L304 693H316L561 11L625 10V0H456V10L546 11L466 234H152L72 11L162 10V0H-5V10ZM463 245L310 672H309L155 245H463ZM204 733L305 806H315L416 733L411 725L310 794L209 725L204
733Z" />
<glyph unicode="&#xc3;" glyph-name="Atilde" horiz-adv-x="620" d="M-5 10L59 11L304 693H316L561 11L625 10V0H456V10L546 11L466 234H152L72 11L162 10V0H-5V10ZM463 245L310 672H309L155 245H463ZM194 747Q216 797 257 797Q270 797 284 792T312 780T339 769T365
763Q398 763 419 804L427 801Q406 752 364 752Q351 752 338 757T310 769T282 780T256 786Q224 786 202 744L194 747Z" />
<glyph unicode="&#xc4;" glyph-name="Adieresis" horiz-adv-x="620" d="M-5 10L59 11L304 693H316L561 11L625 10V0H456V10L546 11L466 234H152L72 11L162 10V0H-5V10ZM463 245L310 672H309L155 245H463ZM376 755Q371 755 367 758T362 769Q362 776 366 779T376
783Q381 783 385 780T390 769Q390 762 386 759T376 755ZM244 755Q239 755 235 758T230 769Q230 776 234 779T244 783Q249 783 253 780T258 769Q258 762 254 759T244 755Z" />
<glyph unicode="&#xc5;" glyph-name="Aring" horiz-adv-x="620" d="M-5 10L59 11L304 693H316L561 11L625 10V0H456V10L546 11L466 234H152L72 11L162 10V0H-5V10ZM463 245L310 672H309L155 245H463ZM310 732Q282 732 264 751T245 797Q245 824 263 843T310 862Q338
862 356 843T375 797Q375 770 357 751T310 732ZM310 743Q334 743 348 758T362 797Q362 820 348 835T310 851Q286 851 272 836T258 797Q258 774 272 759T310 743Z" />
<glyph unicode="&#xc6;" glyph-name="AE" horiz-adv-x="914" d="M9 10L68 11L432 682L345 683V693H855L863 551H853L843 682H497V360H711L713 456H723V255H713L711 350H497V11H857L867 154H877L870 0H395V10L484 11V213H190L81 11L161 10V0H9V10ZM445 682L196
224H484V682H445Z" />
<glyph unicode="&#xc7;" glyph-name="Ccedilla" horiz-adv-x="601" d="M275 -177Q337 -171 366 -156T395 -113Q395 -88 370 -77T298 -65V-8Q171 7 110 98T49 345Q49 519 124 611T351 704Q390 704 418 701T469 693T507 680T539 666L546 535H536L526 657Q494 673
454 682T350 692Q205 692 134 602T63 347Q63 180 134 91T350 1Q415 1 458 11T532 38L541 158H551L545 29Q530 21 513 14T472 1T419 -8T350 -11Q339 -11 329 -11T310 -9V-54Q355 -56 381 -70T408 -113Q408 -143 376 -162T275 -188V-177Z" />
<glyph unicode="&#xc8;" glyph-name="Egrave" horiz-adv-x="561" d="M30 10L119 11V682L30 683V693H502L510 551H500L490 682H132V360H358L360 456H370V255H360L358 350H132V11H504L514 154H524L517 0H30V10ZM199 810L205 821L366 742L362 734L199 810Z" />
<glyph unicode="&#xc9;" glyph-name="Eacute" horiz-adv-x="561" d="M30 10L119 11V682L30 683V693H502L510 551H500L490 682H132V360H358L360 456H370V255H360L358 350H132V11H504L514 154H524L517 0H30V10ZM225 734L221 742L382 821L388 810L225 734Z" />
<glyph unicode="&#xca;" glyph-name="Ecircumflex" horiz-adv-x="561" d="M186 733L287 806H297L398 733L393 725L292 794L191 725L186 733ZM30 10L119 11V682L30 683V693H502L510 551H500L490 682H132V360H358L360 456H370V255H360L358 350H132V11H504L514 154H524L517
0H30V10Z" />
<glyph unicode="&#xcb;" glyph-name="Edieresis" horiz-adv-x="561" d="M358 755Q353 755 349 758T344 769Q344 776 348 779T358 783Q363 783 367 780T372 769Q372 762 368 759T358 755ZM226 755Q221 755 217 758T212 769Q212 776 216 779T226 783Q231 783 235
780T240 769Q240 762 236 759T226 755ZM30 10L119 11V682L30 683V693H502L510 551H500L490 682H132V360H358L360 456H370V255H360L358 350H132V11H504L514 154H524L517 0H30V10Z" />
<glyph unicode="&#xcc;" glyph-name="Igrave" horiz-adv-x="260" d="M30 10L123 11V682L30 683V693H230V683L137 682V11L230 10V0H30V10ZM294 810L300 821L461 742L457 734L294 810Z" />
<glyph unicode="&#xcd;" glyph-name="Iacute" horiz-adv-x="260" d="M320 734L316 742L477 821L483 810L320 734ZM30 10L123 11V682L30 683V693H230V683L137 682V11L230 10V0H30V10Z" />
<glyph unicode="&#xce;" glyph-name="Icircumflex" horiz-adv-x="260" d="M30 10L123 11V682L30 683V693H230V683L137 682V11L230 10V0H30V10ZM281 733L382 806H392L493 733L488 725L387 794L286 725L281 733Z" />
<glyph unicode="&#xcf;" glyph-name="Idieresis" horiz-adv-x="260" d="M453 755Q448 755 444 758T439 769Q439 776 443 779T453 783Q458 783 462 780T467 769Q467 762 463 759T453 755ZM321 755Q316 755 312 758T307 769Q307 776 311 779T321 783Q326 783 330
780T335 769Q335 762 331 759T321 755ZM30 10L123 11V682L30 683V693H230V683L137 682V11L230 10V0H30V10Z" />
<glyph unicode="&#xd0;" glyph-name="Eth" horiz-adv-x="649" d="M25 353H119V682L30 683V693H273Q365 693 427 670T528 603T583 494T600 348Q600 265 584 201T529 92T428 24T274 0H30V10L119 11V342H25V353ZM275 11Q439 11 512 93T586 347Q586 432 569 495T513
600T416 661T274 682H132V353H319V342H132V11H275Z" />
<glyph unicode="&#xd1;" glyph-name="Ntilde" horiz-adv-x="696" d="M30 10L119 11V682L30 683V693H141L573 22H574V682L476 683V693H671V683L587 682V0H572L133 682H132V11L244 10V0H30V10ZM249 747Q271 797 312 797Q325 797 339 792T367 780T394 769T420 763Q453
763 474 804L482 801Q461 752 419 752Q406 752 393 757T365 769T337 780T311 786Q279 786 257 744L249 747Z" />
<glyph unicode="&#xd2;" glyph-name="Ograve" horiz-adv-x="681" d="M247 810L253 821L414 742L410 734L247 810ZM340 -9Q276 -9 223 14T131 83T71 195T49 347Q49 432 70 498T130 610T222 678T340 702Q404 702 458 679T550 610T610 498T632 347Q632 261 611 195T550
84T458 15T340 -9ZM340 2Q398 2 449 24T537 89T596 197T618 346Q618 432 597 496T538 604T449 669T340 691Q282 691 232 669T144 604T85 497T63 348Q63 262 84 198T143 90T231 24T340 2Z" />
<glyph unicode="&#xd3;" glyph-name="Oacute" horiz-adv-x="681" d="M273 734L269 742L430 821L436 810L273 734ZM340 -9Q276 -9 223 14T131 83T71 195T49 347Q49 432 70 498T130 610T222 678T340 702Q404 702 458 679T550 610T610 498T632 347Q632 261 611 195T550
84T458 15T340 -9ZM340 2Q398 2 449 24T537 89T596 197T618 346Q618 432 597 496T538 604T449 669T340 691Q282 691 232 669T144 604T85 497T63 348Q63 262 84 198T143 90T231 24T340 2Z" />
<glyph unicode="&#xd4;" glyph-name="Ocircumflex" horiz-adv-x="681" d="M234 733L335 806H345L446 733L441 725L340 794L239 725L234 733ZM340 -9Q276 -9 223 14T131 83T71 195T49 347Q49 432 70 498T130 610T222 678T340 702Q404 702 458 679T550 610T610 498T632
347Q632 261 611 195T550 84T458 15T340 -9ZM340 2Q398 2 449 24T537 89T596 197T618 346Q618 432 597 496T538 604T449 669T340 691Q282 691 232 669T144 604T85 497T63 348Q63 262 84 198T143 90T231 24T340 2Z" />
<glyph unicode="&#xd5;" glyph-name="Otilde" horiz-adv-x="681" d="M224 747Q246 797 287 797Q300 797 314 792T342 780T369 769T395 763Q428 763 449 804L457 801Q436 752 394 752Q381 752 368 757T340 769T312 780T286 786Q254 786 232 744L224 747ZM340 -9Q276
-9 223 14T131 83T71 195T49 347Q49 432 70 498T130 610T222 678T340 702Q404 702 458 679T550 610T610 498T632 347Q632 261 611 195T550 84T458 15T340 -9ZM340 2Q398 2 449 24T537 89T596 197T618 346Q618 432 597 496T538 604T449 669T340 691Q282 691 232
669T144 604T85 497T63 348Q63 262 84 198T143 90T231 24T340 2Z" />
<glyph unicode="&#xd6;" glyph-name="Odieresis" horiz-adv-x="681" d="M406 755Q401 755 397 758T392 769Q392 776 396 779T406 783Q411 783 415 780T420 769Q420 762 416 759T406 755ZM274 755Q269 755 265 758T260 769Q260 776 264 779T274 783Q279 783 283
780T288 769Q288 762 284 759T274 755ZM340 -9Q276 -9 223 14T131 83T71 195T49 347Q49 432 70 498T130 610T222 678T340 702Q404 702 458 679T550 610T610 498T632 347Q632 261 611 195T550 84T458 15T340 -9ZM340 2Q398 2 449 24T537 89T596 197T618 346Q618
432 597 496T538 604T449 669T340 691Q282 691 232 669T144 604T85 497T63 348Q63 262 84 198T143 90T231 24T340 2Z" />
<glyph unicode="&#xd7;" glyph-name="multiply" horiz-adv-x="471" d="M85 157L227 305L85 453L93 461L235 313L378 461L386 453L243 305L386 157L378 149L235 296L93 149L85 157Z" />
<glyph unicode="&#xd8;" glyph-name="Oslash" horiz-adv-x="677" d="M340 -9Q214 -9 136 77L61 -17L51 -10L128 87Q90 132 70 197T49 347Q49 432 70 498T130 610T222 678T340 702Q468 702 547 614L616 700L626 693L555 604Q591 559 611 495T632 347Q632 261 611
195T550 84T458 15T340 -9ZM63 348Q63 266 82 204T136 98L539 603Q501 648 450 669T340 691Q282 691 232 669T144 604T85 497T63 348ZM340 2Q398 2 449 24T537 89T596 197T618 346Q618 427 599 488T546 593L144 88Q182 45 232 24T340 2Z" />
<glyph unicode="&#xd9;" glyph-name="Ugrave" horiz-adv-x="680" d="M338 -9Q221 -9 165 45T108 213V682L24 683V693H219V683L121 682V214Q121 103 175 53T339 3Q448 3 504 53T561 214V682L472 683V693H656V683L572 682V213Q572 99 514 45T338 -9ZM258 810L264
821L425 742L421 734L258 810Z" />
<glyph unicode="&#xda;" glyph-name="Uacute" horiz-adv-x="680" d="M338 -9Q221 -9 165 45T108 213V682L24 683V693H219V683L121 682V214Q121 103 175 53T339 3Q448 3 504 53T561 214V682L472 683V693H656V683L572 682V213Q572 99 514 45T338 -9ZM284 734L280
742L441 821L447 810L284 734Z" />
<glyph unicode="&#xdb;" glyph-name="Ucircumflex" horiz-adv-x="680" d="M245 733L346 806H356L457 733L452 725L351 794L250 725L245 733ZM338 -9Q221 -9 165 45T108 213V682L24 683V693H219V683L121 682V214Q121 103 175 53T339 3Q448 3 504 53T561 214V682L472
683V693H656V683L572 682V213Q572 99 514 45T338 -9Z" />
<glyph unicode="&#xdc;" glyph-name="Udieresis" horiz-adv-x="680" d="M417 755Q412 755 408 758T403 769Q403 776 407 779T417 783Q422 783 426 780T431 769Q431 762 427 759T417 755ZM285 755Q280 755 276 758T271 769Q271 776 275 779T285 783Q290 783 294
780T299 769Q299 762 295 759T285 755ZM338 -9Q221 -9 165 45T108 213V682L24 683V693H219V683L121 682V214Q121 103 175 53T339 3Q448 3 504 53T561 214V682L472 683V693H656V683L572 682V213Q572 99 514 45T338 -9Z" />
<glyph unicode="&#xdd;" glyph-name="Yacute" horiz-adv-x="598" d="M204 10L293 11V319L76 682L12 683V693H178V683L91 682L299 332H300L507 682L420 683V693H586V683L522 682L306 319V11L396 10V0H204V10ZM235 734L231 742L392 821L398 810L235 734Z" />
<glyph unicode="&#xde;" glyph-name="Thorn" horiz-adv-x="531" d="M30 10L119 11V682L30 683V693H231V683L132 682V547H275Q338 547 380 535T447 498T482 441T493 365Q493 278 438 234T293 190Q257 190 233 193T186 201V211Q209 206 234 204T292 201Q384 201
431 243T479 365Q479 404 470 436T438 490T375 524T275 536H132V11L231 10V0H30V10Z" />
<glyph unicode="&#xdf;" glyph-name="germandbls" horiz-adv-x="527" d="M337 -6Q305 -6 276 -2T216 15L210 93H220L226 24Q250 12 279 9T337 5Q374 5 400 14T444 40T469 78T477 123Q477 150 468 169T444 204T409 230T368 254L320 281Q282 303 264 322T246 371Q246
403 273 433T334 495T394 558T422 626Q422 651 411 669T381 700T338 719T286 725Q248 725 216 715T160 685T123 637T110 571V0H15V10L97 11V493H12V503L97 504V571Q97 611 111 641T150 693T210 725T286 736Q316 736 343 730T390 710T423 675T435 626Q435 600 422
577T389 533T347 491T304 451T271 412T258 372Q258 345 275 328T325 292L373 265Q396 252 417 239T454 211T480 174T490 123Q490 97 481 74T453 33T405 5T337 -6Z" />
<glyph unicode="&#xe0;" glyph-name="agrave" horiz-adv-x="456" d="M392 696L399 706L552 612L547 604L392 696ZM188 -6Q117 -6 78 28T39 122Q39 185 78 217T192 255L347 266V371Q347 436 319 468T220 500Q175 500 137 492T69 472V483Q99 494 137 502T221 511Q293
511 326 477T360 372V71Q360 34 374 21T414 8Q425 8 434 10T449 14V4Q444 2 433 0T412 -3Q380 -3 365 13T348 65H347Q322 32 280 13T188 -6ZM189 5Q237 5 279 24T347 80V255L194 245Q51 236 51 123Q51 65 88 35T189 5Z" />
<glyph unicode="&#xe1;" glyph-name="aacute" horiz-adv-x="456" d="M188 -6Q117 -6 78 28T39 122Q39 185 78 217T192 255L347 266V371Q347 436 319 468T220 500Q175 500 137 492T69 472V483Q99 494 137 502T221 511Q293 511 326 477T360 372V71Q360 34 374 21T414
8Q425 8 434 10T449 14V4Q444 2 433 0T412 -3Q380 -3 365 13T348 65H347Q322 32 280 13T188 -6ZM189 5Q237 5 279 24T347 80V255L194 245Q51 236 51 123Q51 65 88 35T189 5ZM417 612L570 706L577 696L422 604L417 612Z" />
<glyph unicode="&#xe2;" glyph-name="acircumflex" horiz-adv-x="456" d="M374 602L476 700H486L588 602L582 595L481 688L380 595L374 602ZM188 -6Q117 -6 78 28T39 122Q39 185 78 217T192 255L347 266V371Q347 436 319 468T220 500Q175 500 137 492T69 472V483Q99
494 137 502T221 511Q293 511 326 477T360 372V71Q360 34 374 21T414 8Q425 8 434 10T449 14V4Q444 2 433 0T412 -3Q380 -3 365 13T348 65H347Q322 32 280 13T188 -6ZM189 5Q237 5 279 24T347 80V255L194 245Q51 236 51 123Q51 65 88 35T189 5Z" />
<glyph unicode="&#xe3;" glyph-name="atilde" horiz-adv-x="456" d="M365 618Q387 668 428 668Q441 668 455 663T483 651T510 640T536 634Q569 634 590 675L598 672Q577 623 535 623Q522 623 509 628T481 640T453 651T427 657Q395 657 373 615L365 618ZM188 -6Q117
-6 78 28T39 122Q39 185 78 217T192 255L347 266V371Q347 436 319 468T220 500Q175 500 137 492T69 472V483Q99 494 137 502T221 511Q293 511 326 477T360 372V71Q360 34 374 21T414 8Q425 8 434 10T449 14V4Q444 2 433 0T412 -3Q380 -3 365 13T348 65H347Q322
32 280 13T188 -6ZM189 5Q237 5 279 24T347 80V255L194 245Q51 236 51 123Q51 65 88 35T189 5Z" />
<glyph unicode="&#xe4;" glyph-name="adieresis" horiz-adv-x="456" d="M541 645Q536 645 532 648T527 659Q527 666 531 669T541 673Q546 673 550 670T555 659Q555 652 551 649T541 645ZM421 645Q416 645 412 648T407 659Q407 666 411 669T421 673Q426 673 430
670T435 659Q435 652 431 649T421 645ZM188 -6Q117 -6 78 28T39 122Q39 185 78 217T192 255L347 266V371Q347 436 319 468T220 500Q175 500 137 492T69 472V483Q99 494 137 502T221 511Q293 511 326 477T360 372V71Q360 34 374 21T414 8Q425 8 434 10T449 14V4Q444
2 433 0T412 -3Q380 -3 365 13T348 65H347Q322 32 280 13T188 -6ZM189 5Q237 5 279 24T347 80V255L194 245Q51 236 51 123Q51 65 88 35T189 5Z" />
<glyph unicode="&#xe5;" glyph-name="aring" horiz-adv-x="456" d="M188 -6Q117 -6 78 28T39 122Q39 185 78 217T192 255L347 266V371Q347 436 319 468T220 500Q175 500 137 492T69 472V483Q99 494 137 502T221 511Q293 511 326 477T360 372V71Q360 34 374 21T414
8Q425 8 434 10T449 14V4Q444 2 433 0T412 -3Q380 -3 365 13T348 65H347Q322 32 280 13T188 -6ZM189 5Q237 5 279 24T347 80V255L194 245Q51 236 51 123Q51 65 88 35T189 5ZM477 592Q449 592 431 611T412 657Q412 684 430 703T477 722Q505 722 523 703T542 657Q542
630 524 611T477 592ZM477 603Q501 603 515 618T529 657Q529 680 515 695T477 711Q453 711 439 696T425 657Q425 634 439 619T477 603Z" />
<glyph unicode="&#xe6;" glyph-name="ae" horiz-adv-x="779" d="M382 93Q370 73 350 55T304 24T249 2T188 -6Q117 -6 78 28T38 127Q38 195 78 228T192 266L351 277V371Q351 436 320 468T213 500Q175 500 137 492T69 472V483Q99 494 137 502T215 511Q294 511 329
477T364 372V343Q384 427 431 469T548 511Q635 511 684 453T734 267H365Q363 210 371 162T403 79T465 25T565 5Q622 5 658 17T721 45V34Q696 19 658 7T565 -6Q490 -6 448 21T382 93ZM194 256Q51 247 51 128Q51 68 88 37T189 5Q219 5 247 13T300 34T344 66T376 104Q362
139 356 179T351 266L194 256ZM721 278Q719 393 674 446T548 500Q466 500 420 441T366 278H721Z" />
<glyph unicode="&#xe7;" glyph-name="ccedilla" horiz-adv-x="451" d="M187 -177Q249 -171 278 -156T307 -113Q307 -88 282 -77T210 -65V-1Q122 16 79 82T36 251Q36 319 54 368T104 449T177 496T263 511Q305 511 338 506T401 487V386H391L389 480Q363 491 332
495T262 500Q219 500 181 486T113 441T66 364T49 252Q49 138 103 72T269 5Q317 5 354 17T416 43V32Q392 18 356 6T268 -6Q243 -6 222 -3V-54Q267 -56 293 -70T320 -113Q320 -143 288 -162T187 -188V-177Z" />
<glyph unicode="&#xe8;" glyph-name="egrave" horiz-adv-x="468" d="M261 -6Q193 -6 150 15T81 71T46 153T36 251Q36 314 51 362T94 444T158 494T241 511Q328 511 380 455T433 280H50Q47 218 56 167T91 80T157 25T261 5Q320 5 357 17T420 45V34Q395 19 357 7T261
-6ZM420 291Q418 397 372 448T241 500Q199 500 165 485T107 443T69 377T51 291H420ZM160 696L167 706L320 612L315 604L160 696Z" />
<glyph unicode="&#xe9;" glyph-name="eacute" horiz-adv-x="468" d="M183 612L336 706L343 696L188 604L183 612ZM261 -6Q193 -6 150 15T81 71T46 153T36 251Q36 314 51 362T94 444T158 494T241 511Q328 511 380 455T433 280H50Q47 218 56 167T91 80T157 25T261
5Q320 5 357 17T420 45V34Q395 19 357 7T261 -6ZM420 291Q418 397 372 448T241 500Q199 500 165 485T107 443T69 377T51 291H420Z" />
<glyph unicode="&#xea;" glyph-name="ecircumflex" horiz-adv-x="468" d="M142 602L244 700H254L356 602L350 595L249 688L148 595L142 602ZM261 -6Q193 -6 150 15T81 71T46 153T36 251Q36 314 51 362T94 444T158 494T241 511Q328 511 380 455T433 280H50Q47 218
56 167T91 80T157 25T261 5Q320 5 357 17T420 45V34Q395 19 357 7T261 -6ZM420 291Q418 397 372 448T241 500Q199 500 165 485T107 443T69 377T51 291H420Z" />
<glyph unicode="&#xeb;" glyph-name="edieresis" horiz-adv-x="468" d="M261 -6Q193 -6 150 15T81 71T46 153T36 251Q36 314 51 362T94 444T158 494T241 511Q328 511 380 455T433 280H50Q47 218 56 167T91 80T157 25T261 5Q320 5 357 17T420 45V34Q395 19 357
7T261 -6ZM420 291Q418 397 372 448T241 500Q199 500 165 485T107 443T69 377T51 291H420ZM560 645Q555 645 551 648T546 659Q546 666 550 669T560 673Q565 673 569 670T574 659Q574 652 570 649T560 645ZM440 645Q435 645 431 648T426 659Q426 666 430 669T440
673Q445 673 449 670T454 659Q454 652 450 649T440 645Z" />
<glyph unicode="&#xec;" glyph-name="igrave" horiz-adv-x="216" d="M16 10L103 11V493L13 494V504L114 505L116 503V11L203 10V0H16V10ZM11 696L18 706L171 612L166 604L11 696Z" />
<glyph unicode="&#xed;" glyph-name="iacute" horiz-adv-x="216" d="M16 10L103 11V493L13 494V504L114 505L116 503V11L203 10V0H16V10ZM43 612L196 706L203 696L48 604L43 612Z" />
<glyph unicode="&#xee;" glyph-name="icircumflex" horiz-adv-x="216" d="M16 10L103 11V493L13 494V504L114 505L116 503V11L203 10V0H16V10ZM-7 602L95 700H105L207 602L201 595L100 688L-1 595L-7 602Z" />
<glyph unicode="&#xef;" glyph-name="idieresis" horiz-adv-x="216" d="M160 645Q155 645 151 648T146 659Q146 666 150 669T160 673Q165 673 169 670T174 659Q174 652 170 649T160 645ZM40 645Q35 645 31 648T26 659Q26 666 30 669T40 673Q45 673 49 670T54 659Q54
652 50 649T40 645ZM16 10L103 11V493L13 494V504L114 505L116 503V11L203 10V0H16V10Z" />
<glyph unicode="&#xf0;" glyph-name="eth" horiz-adv-x="515" d="M273 658Q318 625 355 585T419 496T461 392T476 272Q476 198 459 146T413 60T343 10T255 -6Q208 -6 168 10T98 60T52 141T35 254Q35 316 53 364T102 444T174 494T260 511Q321 511 363 492T433 443Q404
509 361 560T261 653L138 603L134 613L250 660Q221 680 191 696T128 727L132 738Q167 722 199 704T262 665L379 713L383 703L273 658ZM255 6Q300 6 338 21T404 69T447 152T463 272Q463 313 457 353T440 423Q406 461 363 480T260 500Q217 500 179 484T111 437T65
359T48 254Q48 193 63 147T106 69T172 22T255 6Z" />
<glyph unicode="&#xf1;" glyph-name="ntilde" horiz-adv-x="555" d="M16 10L98 11V493L13 494V504L109 505L111 503V441H112Q158 470 210 490T318 511Q395 511 427 478T460 382V11L542 10V0H361V10L447 11V380Q447 440 418 470T316 500Q265 500 212 480T111 429V11L198
10V0H16V10ZM161 618Q183 668 224 668Q237 668 251 663T279 651T306 640T332 634Q365 634 386 675L394 672Q373 623 331 623Q318 623 305 628T277 640T249 651T223 657Q191 657 169 615L161 618Z" />
<glyph unicode="&#xf2;" glyph-name="ograve" horiz-adv-x="512" d="M256 -6Q212 -6 172 9T102 55T53 134T35 249Q35 316 53 365T101 446T172 495T256 511Q300 511 340 496T410 449T459 369T477 253Q477 186 459 138T411 57T340 10T256 -6ZM256 5Q296 5 333 18T400
62T446 139T464 253Q464 320 447 367T400 443T334 486T256 500Q215 500 178 486T111 441T65 363T48 250Q48 184 65 138T112 62T178 19T256 5ZM167 696L174 706L327 612L322 604L167 696Z" />
<glyph unicode="&#xf3;" glyph-name="oacute" horiz-adv-x="512" d="M199 612L352 706L359 696L204 604L199 612ZM256 -6Q212 -6 172 9T102 55T53 134T35 249Q35 316 53 365T101 446T172 495T256 511Q300 511 340 496T410 449T459 369T477 253Q477 186 459 138T411
57T340 10T256 -6ZM256 5Q296 5 333 18T400 62T446 139T464 253Q464 320 447 367T400 443T334 486T256 500Q215 500 178 486T111 441T65 363T48 250Q48 184 65 138T112 62T178 19T256 5Z" />
<glyph unicode="&#xf4;" glyph-name="ocircumflex" horiz-adv-x="512" d="M149 602L251 700H261L363 602L357 595L256 688L155 595L149 602ZM256 -6Q212 -6 172 9T102 55T53 134T35 249Q35 316 53 365T101 446T172 495T256 511Q300 511 340 496T410 449T459 369T477
253Q477 186 459 138T411 57T340 10T256 -6ZM256 5Q296 5 333 18T400 62T446 139T464 253Q464 320 447 367T400 443T334 486T256 500Q215 500 178 486T111 441T65 363T48 250Q48 184 65 138T112 62T178 19T256 5Z" />
<glyph unicode="&#xf5;" glyph-name="otilde" horiz-adv-x="512" d="M140 618Q162 668 203 668Q216 668 230 663T258 651T285 640T311 634Q344 634 365 675L373 672Q352 623 310 623Q297 623 284 628T256 640T228 651T202 657Q170 657 148 615L140 618ZM256 -6Q212
-6 172 9T102 55T53 134T35 249Q35 316 53 365T101 446T172 495T256 511Q300 511 340 496T410 449T459 369T477 253Q477 186 459 138T411 57T340 10T256 -6ZM256 5Q296 5 333 18T400 62T446 139T464 253Q464 320 447 367T400 443T334 486T256 500Q215 500 178 486T111
441T65 363T48 250Q48 184 65 138T112 62T178 19T256 5Z" />
<glyph unicode="&#xf6;" glyph-name="odieresis" horiz-adv-x="512" d="M256 -6Q212 -6 172 9T102 55T53 134T35 249Q35 316 53 365T101 446T172 495T256 511Q300 511 340 496T410 449T459 369T477 253Q477 186 459 138T411 57T340 10T256 -6ZM256 5Q296 5 333
18T400 62T446 139T464 253Q464 320 447 367T400 443T334 486T256 500Q215 500 178 486T111 441T65 363T48 250Q48 184 65 138T112 62T178 19T256 5ZM316 645Q311 645 307 648T302 659Q302 666 306 669T316 673Q321 673 325 670T330 659Q330 652 326 649T316 645ZM196
645Q191 645 187 648T182 659Q182 666 186 669T196 673Q201 673 205 670T210 659Q210 652 206 649T196 645Z" />
<glyph unicode="&#xf7;" glyph-name="divide" horiz-adv-x="483" d="M63 310H420V299H63V310ZM241 173Q226 173 226 187Q226 202 241 202Q256 202 256 187Q256 173 241 173ZM241 407Q226 407 226 421Q226 436 241 436Q256 436 256 421Q256 407 241 407Z" />
<glyph unicode="&#xf8;" glyph-name="oslash" horiz-adv-x="512" d="M256 -6Q211 -6 171 9T99 56L43 -11L34 -4L92 65Q66 96 51 141T35 249Q35 316 53 365T101 446T172 495T256 511Q301 511 341 496T412 448L462 508L471 501L419 439Q446 407 461 361T477 253Q477
186 459 138T411 57T340 10T256 -6ZM256 5Q296 5 333 18T400 62T446 139T464 253Q464 313 450 356T412 430L107 66Q136 34 175 20T256 5ZM48 250Q48 190 62 147T100 74L404 439Q375 471 337 485T256 500Q215 500 178 486T111 441T65 363T48 250Z" />
<glyph unicode="&#xf9;" glyph-name="ugrave" horiz-adv-x="545" d="M177 696L184 706L337 612L332 604L177 696ZM235 -5Q203 -5 178 1T134 22T105 65T95 133V493L13 494V504L106 505L108 503V135Q108 96 116 71T141 32T182 12T237 6Q288 6 337 22T437 66V493L355
494V504L448 505L450 503V11L532 10V0L439 -1L437 1V55H436Q385 26 335 11T235 -5Z" />
<glyph unicode="&#xfa;" glyph-name="uacute" horiz-adv-x="545" d="M235 -5Q203 -5 178 1T134 22T105 65T95 133V493L13 494V504L106 505L108 503V135Q108 96 116 71T141 32T182 12T237 6Q288 6 337 22T437 66V493L355 494V504L448 505L450 503V11L532 10V0L439
-1L437 1V55H436Q385 26 335 11T235 -5ZM209 612L362 706L369 696L214 604L209 612Z" />
<glyph unicode="&#xfb;" glyph-name="ucircumflex" horiz-adv-x="545" d="M235 -5Q203 -5 178 1T134 22T105 65T95 133V493L13 494V504L106 505L108 503V135Q108 96 116 71T141 32T182 12T237 6Q288 6 337 22T437 66V493L355 494V504L448 505L450 503V11L532 10V0L439
-1L437 1V55H436Q385 26 335 11T235 -5ZM159 602L261 700H271L373 602L367 595L266 688L165 595L159 602Z" />
<glyph unicode="&#xfc;" glyph-name="udieresis" horiz-adv-x="545" d="M326 645Q321 645 317 648T312 659Q312 666 316 669T326 673Q331 673 335 670T340 659Q340 652 336 649T326 645ZM206 645Q201 645 197 648T192 659Q192 666 196 669T206 673Q211 673 215
670T220 659Q220 652 216 649T206 645ZM235 -5Q203 -5 178 1T134 22T105 65T95 133V493L13 494V504L106 505L108 503V135Q108 96 116 71T141 32T182 12T237 6Q288 6 337 22T437 66V493L355 494V504L448 505L450 503V11L532 10V0L439 -1L437 1V55H436Q385 26 335
11T235 -5Z" />
<glyph unicode="&#xfd;" glyph-name="yacute" horiz-adv-x="520" d="M119 -192Q107 -192 95 -191T72 -186V-175Q96 -181 118 -181Q141 -181 157 -174T185 -154T205 -125T221 -88L260 13L63 493L8 494V504H155V494L76 493L266 29H267L444 493L365 494V504H512V494L457
493L232 -93Q224 -114 215 -132T192 -164T162 -184T119 -192ZM215 612L368 706L375 696L220 604L215 612Z" />
<glyph unicode="&#xfe;" glyph-name="thorn" horiz-adv-x="534" d="M16 -182L98 -181V723L5 724V734L108 735L111 734V440H112Q153 469 195 490T292 511Q334 511 371 499T436 459T481 382T498 262Q498 124 441 60T285 -5Q221 -5 181 8T111 37V-181L198 -182V-192H16V-182ZM285
6Q330 6 367 20T430 66T470 145T485 261Q485 330 470 375T429 449T367 488T290 500Q240 500 198 480T111 427V50Q144 31 184 19T285 6Z" />
<glyph unicode="&#xff;" glyph-name="ydieresis" horiz-adv-x="520" d="M119 -192Q107 -192 95 -191T72 -186V-175Q96 -181 118 -181Q141 -181 157 -174T185 -154T205 -125T221 -88L260 13L63 493L8 494V504H155V494L76 493L266 29H267L444 493L365 494V504H512V494L457
493L232 -93Q224 -114 215 -132T192 -164T162 -184T119 -192ZM332 645Q327 645 323 648T318 659Q318 666 322 669T332 673Q337 673 341 670T346 659Q346 652 342 649T332 645ZM212 645Q207 645 203 648T198 659Q198 666 202 669T212 673Q217 673 221 670T226 659Q226
652 222 649T212 645Z" />
<glyph unicode="&#x100;" glyph-name="Amacron" horiz-adv-x="620" d="M-5 10L59 11L304 693H316L561 11L625 10V0H456V10L546 11L466 234H152L72 11L162 10V0H-5V10ZM463 245L310 672H309L155 245H463ZM208 766H412V755H208V766Z" />
<glyph unicode="&#x101;" glyph-name="amacron" horiz-adv-x="456" d="M372 662H576V651H372V662ZM188 -6Q117 -6 78 28T39 122Q39 185 78 217T192 255L347 266V371Q347 436 319 468T220 500Q175 500 137 492T69 472V483Q99 494 137 502T221 511Q293 511 326 477T360
372V71Q360 34 374 21T414 8Q425 8 434 10T449 14V4Q444 2 433 0T412 -3Q380 -3 365 13T348 65H347Q322 32 280 13T188 -6ZM189 5Q237 5 279 24T347 80V255L194 245Q51 236 51 123Q51 65 88 35T189 5Z" />
<glyph unicode="&#x102;" glyph-name="Abreve" horiz-adv-x="620" d="M310 737Q269 737 240 758T202 815H212Q220 787 246 768T310 748Q348 748 374 767T408 815H418Q410 780 381 759T310 737ZM-5 10L59 11L304 693H316L561 11L625 10V0H456V10L546 11L466 234H152L72
11L162 10V0H-5V10ZM463 245L310 672H309L155 245H463Z" />
<glyph unicode="&#x103;" glyph-name="abreve" horiz-adv-x="456" d="M188 -6Q117 -6 78 28T39 122Q39 185 78 217T192 255L347 266V371Q347 436 319 468T220 500Q175 500 137 492T69 472V483Q99 494 137 502T221 511Q293 511 326 477T360 372V71Q360 34 374 21T414
8Q425 8 434 10T449 14V4Q444 2 433 0T412 -3Q380 -3 365 13T348 65H347Q322 32 280 13T188 -6ZM189 5Q237 5 279 24T347 80V255L194 245Q51 236 51 123Q51 65 88 35T189 5ZM481 593Q440 593 409 617T371 684H381Q387 648 416 626T481 604Q517 604 546 626T581
684H591Q585 641 554 617T481 593Z" />
<glyph unicode="&#x104;" glyph-name="Aogonek" horiz-adv-x="620" d="M542 -195Q504 -195 485 -178T465 -129Q465 -111 472 -94T490 -60T515 -29T544 0H456V10L546 11L466 234H152L72 11L162 10V0H-5V10L59 11L304 693H316L561 11L625 10V0H560Q527 -32 503 -63T478
-129Q478 -155 493 -169T542 -184Q557 -184 566 -183T584 -180V-190Q576 -192 567 -193T542 -195ZM463 245L310 672H309L155 245H463Z" />
<glyph unicode="&#x105;" glyph-name="aogonek" horiz-adv-x="456" d="M390 -195Q352 -195 333 -178T313 -129Q313 -93 340 -60T409 -3Q378 -1 364 15T348 65H347Q322 32 280 13T188 -6Q117 -6 78 28T39 122Q39 185 78 217T192 255L347 266V371Q347 436 319 468T220
500Q175 500 137 492T69 472V483Q99 494 137 502T221 511Q293 511 326 477T360 372V71Q360 34 374 21T414 8Q425 8 434 10T449 14V4Q432 -1 423 -6T397 -22Q363 -45 345 -74T326 -129Q326 -155 341 -169T390 -184Q405 -184 414 -183T432 -180V-190Q424 -192 415
-193T390 -195ZM189 5Q237 5 279 24T347 80V255L194 245Q51 236 51 123Q51 65 88 35T189 5Z" />
<glyph unicode="&#x106;" glyph-name="Cacute" horiz-adv-x="601" d="M350 -11Q197 -11 123 81T49 345Q49 519 124 611T351 704Q390 704 418 701T469 693T507 680T539 666L546 535H536L526 657Q494 673 454 682T350 692Q205 692 134 602T63 347Q63 180 134 91T350
1Q415 1 458 11T532 38L541 158H551L545 29Q530 21 513 14T472 1T419 -8T350 -11ZM274 734L270 742L431 821L437 810L274 734Z" />
<glyph unicode="&#x107;" glyph-name="cacute" horiz-adv-x="451" d="M268 -6Q209 -6 166 12T94 64T51 145T36 251Q36 319 54 368T104 449T177 496T263 511Q305 511 338 506T401 487V386H391L389 480Q363 491 332 495T262 500Q219 500 181 486T113 441T66 364T49
252Q49 138 103 72T269 5Q317 5 354 17T416 43V32Q392 18 356 6T268 -6ZM200 612L353 706L360 696L205 604L200 612Z" />
<glyph unicode="&#x108;" glyph-name="Ccircumflex" horiz-adv-x="601" d="M235 733L336 806H346L447 733L442 725L341 794L240 725L235 733ZM350 -11Q197 -11 123 81T49 345Q49 519 124 611T351 704Q390 704 418 701T469 693T507 680T539 666L546 535H536L526
657Q494 673 454 682T350 692Q205 692 134 602T63 347Q63 180 134 91T350 1Q415 1 458 11T532 38L541 158H551L545 29Q530 21 513 14T472 1T419 -8T350 -11Z" />
<glyph unicode="&#x109;" glyph-name="ccircumflex" horiz-adv-x="451" d="M268 -6Q209 -6 166 12T94 64T51 145T36 251Q36 319 54 368T104 449T177 496T263 511Q305 511 338 506T401 487V386H391L389 480Q363 491 332 495T262 500Q219 500 181 486T113 441T66
364T49 252Q49 138 103 72T269 5Q317 5 354 17T416 43V32Q392 18 356 6T268 -6ZM156 602L258 700H268L370 602L364 595L263 688L162 595L156 602Z" />
<glyph unicode="&#x10a;" glyph-name="Cdotaccent" horiz-adv-x="601" d="M341 755Q336 755 332 758T327 769Q327 776 331 779T341 783Q346 783 350 780T355 769Q355 762 351 759T341 755ZM350 -11Q197 -11 123 81T49 345Q49 519 124 611T351 704Q390 704 418
701T469 693T507 680T539 666L546 535H536L526 657Q494 673 454 682T350 692Q205 692 134 602T63 347Q63 180 134 91T350 1Q415 1 458 11T532 38L541 158H551L545 29Q530 21 513 14T472 1T419 -8T350 -11Z" />
<glyph unicode="&#x10b;" glyph-name="cdotaccent" horiz-adv-x="451" d="M268 -6Q209 -6 166 12T94 64T51 145T36 251Q36 319 54 368T104 449T177 496T263 511Q305 511 338 506T401 487V386H391L389 480Q363 491 332 495T262 500Q219 500 181 486T113 441T66
364T49 252Q49 138 103 72T269 5Q317 5 354 17T416 43V32Q392 18 356 6T268 -6ZM263 645Q258 645 254 648T249 659Q249 666 253 669T263 673Q268 673 272 670T277 659Q277 652 273 649T263 645Z" />
<glyph unicode="&#x10c;" glyph-name="Ccaron" horiz-adv-x="601" d="M447 801L346 728H336L235 801L240 809L341 740L442 809L447 801ZM350 -11Q197 -11 123 81T49 345Q49 519 124 611T351 704Q390 704 418 701T469 693T507 680T539 666L546 535H536L526 657Q494
673 454 682T350 692Q205 692 134 602T63 347Q63 180 134 91T350 1Q415 1 458 11T532 38L541 158H551L545 29Q530 21 513 14T472 1T419 -8T350 -11Z" />
<glyph unicode="&#x10d;" glyph-name="ccaron" horiz-adv-x="451" d="M156 687L162 694L263 601L364 694L370 687L268 589H258L156 687ZM268 -6Q209 -6 166 12T94 64T51 145T36 251Q36 319 54 368T104 449T177 496T263 511Q305 511 338 506T401 487V386H391L389
480Q363 491 332 495T262 500Q219 500 181 486T113 441T66 364T49 252Q49 138 103 72T269 5Q317 5 354 17T416 43V32Q392 18 356 6T268 -6Z" />
<glyph unicode="&#x10e;" glyph-name="Dcaron" horiz-adv-x="649" d="M407 801L306 728H296L195 801L200 809L301 740L402 809L407 801ZM30 10L119 11V682L30 683V693H273Q365 693 427 670T528 603T583 494T600 348Q600 265 584 201T529 92T428 24T274 0H30V10ZM275
11Q439 11 512 93T586 347Q586 432 569 495T513 600T416 661T274 682H132V11H275Z" />
<glyph unicode="&#x10f;" glyph-name="dcaron" horiz-adv-x="534" d="M244 -6Q203 -6 165 6T99 49T53 127T36 248Q36 317 52 366T98 448T167 496T256 511Q319 511 356 497T423 461V723L325 724V734L434 735L436 733V11L518 10V0L425 -1L423 1V66H422Q402 51 382
38T340 16T295 0T244 -6ZM246 5Q296 5 337 26T423 79V448Q390 472 353 486T256 500Q211 500 174 486T108 442T65 364T49 249Q49 180 64 134T107 59T169 18T246 5ZM498 736L513 735L501 578L490 579L498 736Z" />
<glyph unicode="&#x110;" glyph-name="Dcroat" horiz-adv-x="649" d="M25 353H119V682L30 683V693H273Q365 693 427 670T528 603T583 494T600 348Q600 265 584 201T529 92T428 24T274 0H30V10L119 11V342H25V353ZM275 11Q439 11 512 93T586 347Q586 432 569 495T513
600T416 661T274 682H132V353H319V342H132V11H275Z" />
<glyph unicode="&#x111;" glyph-name="dcroat" horiz-adv-x="534" d="M423 628V723L325 724V734L434 735L436 733V628H519V617H436V11L518 10V0L425 -1L423 1V66H422Q402 51 382 38T340 16T295 0T244 -6Q203 -6 165 6T99 49T53 127T36 248Q36 317 52 366T98 448T167
496T256 511Q319 511 356 497T423 461V617H249V628H423ZM246 5Q296 5 337 26T423 79V448Q390 472 353 486T256 500Q211 500 174 486T108 442T65 364T49 249Q49 180 64 134T107 59T169 18T246 5Z" />
<glyph unicode="&#x112;" glyph-name="Emacron" horiz-adv-x="561" d="M30 10L119 11V682L30 683V693H502L510 551H500L490 682H132V360H358L360 456H370V255H360L358 350H132V11H504L514 154H524L517 0H30V10ZM190 766H394V755H190V766Z" />
<glyph unicode="&#x113;" glyph-name="emacron" horiz-adv-x="468" d="M261 -6Q193 -6 150 15T81 71T46 153T36 251Q36 314 51 362T94 444T158 494T241 511Q328 511 380 455T433 280H50Q47 218 56 167T91 80T157 25T261 5Q320 5 357 17T420 45V34Q395 19 357 7T261
-6ZM420 291Q418 397 372 448T241 500Q199 500 165 485T107 443T69 377T51 291H420ZM143 662H347V651H143V662Z" />
<glyph unicode="&#x114;" glyph-name="Ebreve" horiz-adv-x="561" d="M30 10L119 11V682L30 683V693H502L510 551H500L490 682H132V360H358L360 456H370V255H360L358 350H132V11H504L514 154H524L517 0H30V10ZM292 737Q251 737 222 758T184 815H194Q202 787 228
768T292 748Q330 748 356 767T390 815H400Q392 780 363 759T292 737Z" />
<glyph unicode="&#x115;" glyph-name="ebreve" horiz-adv-x="468" d="M500 593Q459 593 428 617T390 684H400Q406 648 435 626T500 604Q536 604 565 626T600 684H610Q604 641 573 617T500 593ZM261 -6Q193 -6 150 15T81 71T46 153T36 251Q36 314 51 362T94 444T158
494T241 511Q328 511 380 455T433 280H50Q47 218 56 167T91 80T157 25T261 5Q320 5 357 17T420 45V34Q395 19 357 7T261 -6ZM420 291Q418 397 372 448T241 500Q199 500 165 485T107 443T69 377T51 291H420Z" />
<glyph unicode="&#x116;" glyph-name="Edotaccent" horiz-adv-x="561" d="M292 755Q287 755 283 758T278 769Q278 776 282 779T292 783Q297 783 301 780T306 769Q306 762 302 759T292 755ZM30 10L119 11V682L30 683V693H502L510 551H500L490 682H132V360H358L360
456H370V255H360L358 350H132V11H504L514 154H524L517 0H30V10Z" />
<glyph unicode="&#x117;" glyph-name="edotaccent" horiz-adv-x="468" d="M498 645Q493 645 489 648T484 659Q484 666 488 669T498 673Q503 673 507 670T512 659Q512 652 508 649T498 645ZM261 -6Q193 -6 150 15T81 71T46 153T36 251Q36 314 51 362T94 444T158
494T241 511Q328 511 380 455T433 280H50Q47 218 56 167T91 80T157 25T261 5Q320 5 357 17T420 45V34Q395 19 357 7T261 -6ZM420 291Q418 397 372 448T241 500Q199 500 165 485T107 443T69 377T51 291H420Z" />
<glyph unicode="&#x118;" glyph-name="Eogonek" horiz-adv-x="561" d="M30 10L119 11V682L30 683V693H502L510 551H500L490 682H132V360H358L360 456H370V255H360L358 350H132V11H504L514 154H524L517 0H463Q422 -32 397 -63T372 -129Q372 -155 387 -169T436 -184Q451
-184 460 -183T478 -180V-190Q470 -192 461 -193T436 -195Q398 -195 379 -178T359 -129Q359 -92 385 -61T448 0H30V10Z" />
<glyph unicode="&#x119;" glyph-name="eogonek" horiz-adv-x="468" d="M300 -195Q262 -195 243 -178T224 -129Q224 -112 232 -94T254 -58T286 -26T325 0Q311 -2 295 -4T261 -6Q193 -6 150 15T81 71T46 153T36 251Q36 314 51 362T94 444T158 494T241 511Q328 511
380 455T433 280H50Q47 218 56 167T91 80T157 25T261 5Q320 5 357 17T420 45V34Q398 20 375 12T328 -10Q289 -32 263 -65T237 -129Q237 -155 251 -169T300 -184Q315 -184 324 -183T342 -180V-190Q334 -192 325 -193T300 -195ZM420 291Q418 397 372 448T241 500Q199
500 165 485T107 443T69 377T51 291H420Z" />
<glyph unicode="&#x11a;" glyph-name="Ecaron" horiz-adv-x="561" d="M398 801L297 728H287L186 801L191 809L292 740L393 809L398 801ZM30 10L119 11V682L30 683V693H502L510 551H500L490 682H132V360H358L360 456H370V255H360L358 350H132V11H504L514 154H524L517
0H30V10Z" />
<glyph unicode="&#x11b;" glyph-name="ecaron" horiz-adv-x="468" d="M261 -6Q193 -6 150 15T81 71T46 153T36 251Q36 314 51 362T94 444T158 494T241 511Q328 511 380 455T433 280H50Q47 218 56 167T91 80T157 25T261 5Q320 5 357 17T420 45V34Q395 19 357 7T261
-6ZM420 291Q418 397 372 448T241 500Q199 500 165 485T107 443T69 377T51 291H420ZM393 687L399 694L500 601L601 694L607 687L505 589H495L393 687Z" />
<glyph unicode="&#x11c;" glyph-name="Gcircumflex" horiz-adv-x="662" d="M366 -10Q213 -10 131 82T49 345Q49 519 128 611T359 704Q399 704 429 702T482 694T523 683T557 669L563 545H553L545 660Q517 674 475 683T358 692Q212 692 138 603T63 347Q63 179 141
91T366 2Q420 2 462 8T549 30V265L448 266V277H645V266L563 265V22Q545 15 525 9T482 -1T430 -7T366 -10ZM248 733L349 806H359L460 733L455 725L354 794L253 725L248 733Z" />
<glyph unicode="&#x11d;" glyph-name="gcircumflex" horiz-adv-x="470" d="M388 602L490 700H500L602 602L596 595L495 688L394 595L388 602ZM51 351Q51 384 63 413T97 463T152 497T225 510Q254 510 278 504L433 505V495L303 496Q351 477 379 439T407 351Q407
318 394 289T357 239T300 205T225 192Q164 192 120 220Q102 203 89 185T76 140Q76 115 95 100T144 84H309Q370 84 410 59T450 -29Q450 -57 439 -86T400 -140T325 -179T205 -195Q156 -195 120 -185T60 -157T25 -116T13 -66Q13 -14 47 19T132 74V75Q103 77 84 95T64
139Q64 166 78 186T112 225Q83 247 67 279T51 351ZM206 -184Q276 -184 321 -169T391 -131T427 -81T437 -30Q437 27 402 50T308 73H151Q97 51 62 19T26 -66Q26 -89 36 -110T69 -147T125 -174T206 -184ZM225 203Q263 203 294 214T347 245T382 292T394 351Q394 382
382 409T348 456T294 487T225 499Q187 499 157 488T107 457T75 410T64 351Q64 319 75 292T106 246T157 215T225 203Z" />
<glyph unicode="&#x11e;" glyph-name="Gbreve" horiz-adv-x="662" d="M366 -10Q213 -10 131 82T49 345Q49 519 128 611T359 704Q399 704 429 702T482 694T523 683T557 669L563 545H553L545 660Q517 674 475 683T358 692Q212 692 138 603T63 347Q63 179 141 91T366
2Q420 2 462 8T549 30V265L448 266V277H645V266L563 265V22Q545 15 525 9T482 -1T430 -7T366 -10ZM354 737Q313 737 284 758T246 815H256Q264 787 290 768T354 748Q392 748 418 767T452 815H462Q454 780 425 759T354 737Z" />
<glyph unicode="&#x11f;" glyph-name="gbreve" horiz-adv-x="470" d="M51 351Q51 384 63 413T97 463T152 497T225 510Q254 510 278 504L433 505V495L303 496Q351 477 379 439T407 351Q407 318 394 289T357 239T300 205T225 192Q164 192 120 220Q102 203 89 185T76
140Q76 115 95 100T144 84H309Q370 84 410 59T450 -29Q450 -57 439 -86T400 -140T325 -179T205 -195Q156 -195 120 -185T60 -157T25 -116T13 -66Q13 -14 47 19T132 74V75Q103 77 84 95T64 139Q64 166 78 186T112 225Q83 247 67 279T51 351ZM206 -184Q276 -184 321
-169T391 -131T427 -81T437 -30Q437 27 402 50T308 73H151Q97 51 62 19T26 -66Q26 -89 36 -110T69 -147T125 -174T206 -184ZM225 203Q263 203 294 214T347 245T382 292T394 351Q394 382 382 409T348 456T294 487T225 499Q187 499 157 488T107 457T75 410T64 351Q64
319 75 292T106 246T157 215T225 203ZM495 593Q454 593 423 617T385 684H395Q401 648 430 626T495 604Q531 604 560 626T595 684H605Q599 641 568 617T495 593Z" />
<glyph unicode="&#x120;" glyph-name="Gdotaccent" horiz-adv-x="662" d="M366 -10Q213 -10 131 82T49 345Q49 519 128 611T359 704Q399 704 429 702T482 694T523 683T557 669L563 545H553L545 660Q517 674 475 683T358 692Q212 692 138 603T63 347Q63 179 141
91T366 2Q420 2 462 8T549 30V265L448 266V277H645V266L563 265V22Q545 15 525 9T482 -1T430 -7T366 -10ZM354 755Q349 755 345 758T340 769Q340 776 344 779T354 783Q359 783 363 780T368 769Q368 762 364 759T354 755Z" />
<glyph unicode="&#x121;" glyph-name="gdotaccent" horiz-adv-x="470" d="M495 645Q490 645 486 648T481 659Q481 666 485 669T495 673Q500 673 504 670T509 659Q509 652 505 649T495 645ZM51 351Q51 384 63 413T97 463T152 497T225 510Q254 510 278 504L433 505V495L303
496Q351 477 379 439T407 351Q407 318 394 289T357 239T300 205T225 192Q164 192 120 220Q102 203 89 185T76 140Q76 115 95 100T144 84H309Q370 84 410 59T450 -29Q450 -57 439 -86T400 -140T325 -179T205 -195Q156 -195 120 -185T60 -157T25 -116T13 -66Q13 -14
47 19T132 74V75Q103 77 84 95T64 139Q64 166 78 186T112 225Q83 247 67 279T51 351ZM206 -184Q276 -184 321 -169T391 -131T427 -81T437 -30Q437 27 402 50T308 73H151Q97 51 62 19T26 -66Q26 -89 36 -110T69 -147T125 -174T206 -184ZM225 203Q263 203 294 214T347
245T382 292T394 351Q394 382 382 409T348 456T294 487T225 499Q187 499 157 488T107 457T75 410T64 351Q64 319 75 292T106 246T157 215T225 203Z" />
<glyph unicode="&#x122;" glyph-name="Gcommaaccent" horiz-adv-x="662" d="M366 -10Q213 -10 131 82T49 345Q49 519 128 611T359 704Q399 704 429 702T482 694T523 683T557 669L563 545H553L545 660Q517 674 475 683T358 692Q212 692 138 603T63 347Q63 179 141
91T366 2Q420 2 462 8T549 30V265L448 266V277H645V266L563 265V22Q545 15 525 9T482 -1T430 -7T366 -10ZM331 -171Q339 -142 343 -112T348 -42H362Q362 -83 357 -113T342 -171H331V-171Z" />
<glyph unicode="&#x123;" glyph-name="gcommaaccent" horiz-adv-x="470" d="M51 351Q51 384 63 413T97 463T152 497T225 510Q254 510 278 504L433 505V495L303 496Q351 477 379 439T407 351Q407 318 394 289T357 239T300 205T225 192Q164 192 120 220Q102 203
89 185T76 140Q76 115 95 100T144 84H309Q370 84 410 59T450 -29Q450 -57 439 -86T400 -140T325 -179T205 -195Q156 -195 120 -185T60 -157T25 -116T13 -66Q13 -14 47 19T132 74V75Q103 77 84 95T64 139Q64 166 78 186T112 225Q83 247 67 279T51 351ZM206 -184Q276
-184 321 -169T391 -131T427 -81T437 -30Q437 27 402 50T308 73H151Q97 51 62 19T26 -66Q26 -89 36 -110T69 -147T125 -174T206 -184ZM225 203Q263 203 294 214T347 245T382 292T394 351Q394 382 382 409T348 456T294 487T225 499Q187 499 157 488T107 457T75 410T64
351Q64 319 75 292T106 246T157 215T225 203ZM518 736Q510 707 506 677T501 607H487Q487 648 492 678T507 736H518V736Z" />
<glyph unicode="&#x124;" glyph-name="Hcircumflex" horiz-adv-x="702" d="M30 10L119 11V682L30 683V693H230V683L132 682V366H569V682L471 683V693H672V683L583 682V11L672 10V0H471V10L569 11V355H132V11L230 10V0H30V10ZM245 733L346 806H356L457 733L452
725L351 794L250 725L245 733Z" />
<glyph unicode="&#x125;" glyph-name="hcircumflex" horiz-adv-x="555" d="M16 10L98 11V723L6 724V734L109 735L111 733V441H112Q158 470 210 490T318 511Q395 511 427 478T460 382V11L542 10V0H361V10L447 11V380Q447 440 418 470T316 500Q265 500 212 480T111
429V11L198 10V0H16V10ZM178 773L279 846H289L390 773L385 765L284 834L183 765L178 773Z" />
<glyph unicode="&#x126;" glyph-name="Hbar" horiz-adv-x="702" d="M27 524H119V682L30 683V693H230V683L132 682V524H569V682L471 683V693H672V683L583 682V524H675V513H583V11L672 10V0H471V10L569 11V355H132V11L230 10V0H30V10L119 11V513H27V524ZM569 366V513H132V366H569Z"
/>
<glyph unicode="&#x127;" glyph-name="hbar" horiz-adv-x="555" d="M98 628V723L6 724V734L109 735L111 733V628H276V617H111V441H112Q158 470 210 490T318 511Q395 511 427 478T460 382V11L542 10V0H361V10L447 11V380Q447 440 418 470T316 500Q265 500 212 480T111
429V11L198 10V0H16V10L98 11V617H6V628H98Z" />
<glyph unicode="&#x128;" glyph-name="Itilde" horiz-adv-x="260" d="M30 10L123 11V682L30 683V693H230V683L137 682V11L230 10V0H30V10ZM271 747Q293 797 334 797Q347 797 361 792T389 780T416 769T442 763Q475 763 496 804L504 801Q483 752 441 752Q428 752
415 757T387 769T359 780T333 786Q301 786 279 744L271 747Z" />
<glyph unicode="&#x129;" glyph-name="itilde" horiz-adv-x="216" d="M16 10L103 11V493L13 494V504L114 505L116 503V11L203 10V0H16V10ZM-16 618Q6 668 47 668Q60 668 74 663T102 651T129 640T155 634Q188 634 209 675L217 672Q196 623 154 623Q141 623 128
628T100 640T72 651T46 657Q14 657 -8 615L-16 618Z" />
<glyph unicode="&#x12a;" glyph-name="Imacron" horiz-adv-x="260" d="M285 766H489V755H285V766ZM30 10L123 11V682L30 683V693H230V683L137 682V11L230 10V0H30V10Z" />
<glyph unicode="&#x12b;" glyph-name="imacron" horiz-adv-x="216" d="M5 662H157V651H5V662ZM16 10L103 11V493L13 494V504L114 505L116 503V11L203 10V0H16V10Z" />
<glyph unicode="&#x12c;" glyph-name="Ibreve" horiz-adv-x="260" d="M387 737Q346 737 317 758T279 815H289Q297 787 323 768T387 748Q425 748 451 767T485 815H495Q487 780 458 759T387 737ZM30 10L123 11V682L30 683V693H230V683L137 682V11L230 10V0H30V10Z" />
<glyph unicode="&#x12d;" glyph-name="ibreve" horiz-adv-x="216" d="M16 10L103 11V493L13 494V504L114 505L116 503V11L203 10V0H16V10ZM100 593Q59 593 28 617T-10 684H0Q6 648 35 626T100 604Q136 604 165 626T200 684H210Q204 641 173 617T100 593Z" />
<glyph unicode="&#x12e;" glyph-name="Iogonek" horiz-adv-x="260" d="M30 10L123 11V682L30 683V693H230V683L137 682V11L230 10V0H172Q139 -32 114 -63T89 -129Q89 -155 104 -169T153 -184Q168 -184 177 -183T195 -180V-190Q187 -192 178 -193T153 -195Q115
-195 96 -178T76 -129Q76 -111 83 -94T101 -60T127 -29T157 0H30V10Z" />
<glyph unicode="&#x12f;" glyph-name="iogonek" horiz-adv-x="216" d="M16 10L103 11V493L13 494V504L114 505L116 503V11L203 10V0H148Q115 -32 93 -63T71 -129Q71 -155 86 -169T135 -184Q150 -184 159 -183T177 -180V-190Q169 -192 160 -193T135 -195Q97 -195
78 -178T58 -129Q58 -92 81 -61T133 0H16V10ZM103 645Q98 645 94 648T89 659Q89 666 93 669T103 673Q108 673 112 670T117 659Q117 652 113 649T103 645Z" />
<glyph unicode="&#x130;" glyph-name="Idotaccent" horiz-adv-x="260" d="M30 10L123 11V682L30 683V693H230V683L137 682V11L230 10V0H30V10ZM387 755Q382 755 378 758T373 769Q373 776 377 779T387 783Q392 783 396 780T401 769Q401 762 397 759T387 755Z" />
<glyph unicode="&#x131;" glyph-name="dotlessi" horiz-adv-x="216" d="M16 10L103 11V493L13 494V504L114 505L116 503V11L203 10V0H16V10Z" />
<glyph unicode="&#x132;" glyph-name="IJ" horiz-adv-x="622" d="M30 10L123 11V682L30 683V693H230V683L137 682V11L230 10V0H30V10ZM377 -3Q349 -3 319 4T267 21V33Q293 22 322 16T376 9Q416 9 441 20T481 51T500 97T505 154V682L412 683V693H607V683L518 682V154Q518
122 512 94T490 44T447 10T377 -3Z" />
<glyph unicode="&#x133;" glyph-name="ij" horiz-adv-x="410" d="M16 10L103 11V493L13 494V504L114 505L116 503V11L203 10V0H16V10ZM103 645Q98 645 94 648T89 659Q89 666 93 669T103 673Q108 673 112 670T117 659Q117 652 113 649T103 645ZM220 -192Q203 -192
194 -191T171 -185V-175Q183 -178 193 -179T220 -181Q263 -181 286 -158T309 -78V493L219 494V504L320 505L322 503V-78Q322 -138 295 -165T220 -192ZM309 645Q304 645 300 648T295 659Q295 666 299 669T309 673Q314 673 318 670T323 659Q323 652 319 649T309 645Z"
/>
<glyph unicode="&#x134;" glyph-name="Jcircumflex" horiz-adv-x="362" d="M117 -3Q89 -3 59 4T7 21V33Q33 22 62 16T116 9Q156 9 181 20T221 51T240 97T245 154V682L152 683V693H347V683L258 682V154Q258 122 252 94T230 44T187 10T117 -3ZM145 733L246 806H256L357
733L352 725L251 794L150 725L145 733Z" />
<glyph unicode="&#x135;" glyph-name="jcircumflex" horiz-adv-x="204" d="M14 -192Q-3 -192 -12 -191T-35 -185V-175Q-23 -178 -13 -179T14 -181Q57 -181 80 -158T103 -78V493L13 494V504L114 505L116 503V-78Q116 -138 89 -165T14 -192ZM-12 602L90 700H100L202
602L196 595L95 688L-6 595L-12 602Z" />
<glyph unicode="&#x136;" glyph-name="Kcommaaccent" horiz-adv-x="609" d="M198 340V347L496 682L411 683V693H576V683L512 682L211 344L512 11L594 10V0H505L198 340ZM30 10L119 11V682L30 683V693H231V683L132 682V11L231 10V0H30V10ZM294 -171Q302 -142 306
-112T311 -42H325Q325 -83 320 -113T305 -171H294V-171Z" />
<glyph unicode="&#x137;" glyph-name="kcommaaccent" horiz-adv-x="475" d="M16 10L98 11V723L6 724V734L109 735L111 733V11L198 10V0H16V10ZM163 263V267L382 494L315 495V505H450V495L398 494L177 265L396 11L469 10V0H390L163 263ZM224 -171Q232 -142 236
-112T241 -42H255Q255 -83 250 -113T235 -171H224V-171Z" />
<glyph unicode="&#x139;" glyph-name="Lacute" horiz-adv-x="527" d="M30 10L119 11V682L30 683V693H231V683L132 682V11H484L493 145H503L496 0H30V10ZM317 734L313 742L474 821L480 810L317 734Z" />
<glyph unicode="&#x13a;" glyph-name="lacute" horiz-adv-x="216" d="M16 10L103 11V723L6 724V734L114 735L116 733V11L203 10V0H16V10ZM38 774L34 782L195 861L201 850L38 774Z" />
<glyph unicode="&#x13b;" glyph-name="Lcommaaccent" horiz-adv-x="527" d="M30 10L119 11V682L30 683V693H231V683L132 682V11H484L493 145H503L496 0H30V10ZM265 -171Q273 -142 277 -112T282 -42H296Q296 -83 291 -113T276 -171H265V-171Z" />
<glyph unicode="&#x13c;" glyph-name="lcommaaccent" horiz-adv-x="216" d="M16 10L103 11V723L6 724V734L114 735L116 733V11L203 10V0H16V10ZM82 -171Q90 -142 94 -112T99 -42H113Q113 -83 108 -113T93 -171H82V-171Z" />
<glyph unicode="&#x13d;" glyph-name="Lcaron" horiz-adv-x="527" d="M30 10L119 11V682L30 683V693H231V683L132 682V11H484L493 145H503L496 0H30V10ZM348 706L363 705L351 548L340 549L348 706Z" />
<glyph unicode="&#x13e;" glyph-name="lcaron" horiz-adv-x="216" d="M16 10L103 11V723L6 724V734L114 735L116 733V11L203 10V0H16V10ZM435 736L450 735L438 578L427 579L435 736Z" />
<glyph unicode="&#x13f;" glyph-name="Ldot" horiz-adv-x="527" d="M30 10L119 11V682L30 683V693H231V683L132 682V11H484L493 145H503L496 0H30V10ZM430 353Q416 353 416 367Q416 381 430 381Q444 381 444 367Q444 353 430 353Z" />
<glyph unicode="&#x140;" glyph-name="ldot" horiz-adv-x="216" d="M16 10L103 11V723L6 724V734L114 735L116 733V11L203 10V0H16V10ZM218 363Q213 363 209 366T204 377Q204 384 208 387T218 391Q223 391 227 388T232 377Q232 370 228 367T218 363Z" />
<glyph unicode="&#x141;" glyph-name="Lslash" horiz-adv-x="527" d="M30 244L119 289V682L30 683V693H231V683L132 682V295L356 408V396L132 283V11H484L493 145H503L496 0H30V10L119 11V277L30 232V244Z" />
<glyph unicode="&#x142;" glyph-name="lslash" horiz-adv-x="216" d="M4 350L103 414V723L6 724V734L114 735L116 733V423L218 489V476L116 410V11L203 10V0H16V10L103 11V401L4 337V350Z" />
<glyph unicode="&#x143;" glyph-name="Nacute" horiz-adv-x="696" d="M30 10L119 11V682L30 683V693H141L573 22H574V682L476 683V693H671V683L587 682V0H572L133 682H132V11L244 10V0H30V10ZM298 734L294 742L455 821L461 810L298 734Z" />
<glyph unicode="&#x144;" glyph-name="nacute" horiz-adv-x="555" d="M16 10L98 11V493L13 494V504L109 505L111 503V441H112Q158 470 210 490T318 511Q395 511 427 478T460 382V11L542 10V0H361V10L447 11V380Q447 440 418 470T316 500Q265 500 212 480T111 429V11L198
10V0H16V10ZM220 612L373 706L380 696L225 604L220 612Z" />
<glyph unicode="&#x145;" glyph-name="Ncommaaccent" horiz-adv-x="696" d="M30 10L119 11V682L30 683V693H141L573 22H574V682L476 683V693H671V683L587 682V0H572L133 682H132V11L244 10V0H30V10ZM342 -171Q350 -142 354 -112T359 -42H373Q373 -83 368 -113T353
-171H342V-171Z" />
<glyph unicode="&#x146;" glyph-name="ncommaaccent" horiz-adv-x="555" d="M16 10L98 11V493L13 494V504L109 505L111 503V441H112Q158 470 210 490T318 511Q395 511 427 478T460 382V11L542 10V0H361V10L447 11V380Q447 440 418 470T316 500Q265 500 212 480T111
429V11L198 10V0H16V10ZM254 -171Q262 -142 266 -112T271 -42H285Q285 -83 280 -113T265 -171H254V-171Z" />
<glyph unicode="&#x147;" glyph-name="Ncaron" horiz-adv-x="696" d="M30 10L119 11V682L30 683V693H141L573 22H574V682L476 683V693H671V683L587 682V0H572L133 682H132V11L244 10V0H30V10ZM471 801L370 728H360L259 801L264 809L365 740L466 809L471 801Z" />
<glyph unicode="&#x148;" glyph-name="ncaron" horiz-adv-x="555" d="M16 10L98 11V493L13 494V504L109 505L111 503V441H112Q158 470 210 490T318 511Q395 511 427 478T460 382V11L542 10V0H361V10L447 11V380Q447 440 418 470T316 500Q265 500 212 480T111 429V11L198
10V0H16V10ZM170 687L176 694L277 601L378 694L384 687L282 589H272L170 687Z" />
<glyph unicode="&#x149;" glyph-name="napostrophe" horiz-adv-x="555" d="M16 10L98 11V493L13 494V504L109 505L111 503V441H112Q158 470 210 490T318 511Q395 511 427 478T460 382V11L542 10V0H361V10L447 11V380Q447 440 418 470T316 500Q265 500 212 480T111
429V11L198 10V0H16V10ZM239 554Q259 613 259 693H275Q275 652 268 618T250 554H239V554Z" />
<glyph unicode="&#x14a;" glyph-name="Eng" horiz-adv-x="696" d="M30 10L119 11V682L30 683V693H141L573 22H574V682L476 683V693H671V683L587 682V-18Q587 -50 581 -77T559 -125T517 -157T452 -169Q426 -169 399 -163T351 -147V-136Q374 -146 401 -151T451 -157Q488
-157 512 -147T550 -118T569 -74T574 -18V-3L133 682H132V11L244 10V0H30V10Z" />
<glyph unicode="&#x14b;" glyph-name="eng" horiz-adv-x="548" d="M447 380Q447 440 418 470T316 500Q265 500 212 480T111 429V11L198 10V0H16V10L98 11V493L13 494V504L109 505L111 503V441H112Q158 470 210 490T318 511Q395 511 427 478T460 382V-78Q460 -138
431 -165T355 -192Q338 -192 328 -191T304 -185V-175Q316 -178 327 -179T355 -181Q398 -181 422 -158T447 -78V380Z" />
<glyph unicode="&#x14c;" glyph-name="Omacron" horiz-adv-x="681" d="M340 -9Q276 -9 223 14T131 83T71 195T49 347Q49 432 70 498T130 610T222 678T340 702Q404 702 458 679T550 610T610 498T632 347Q632 261 611 195T550 84T458 15T340 -9ZM340 2Q398 2 449
24T537 89T596 197T618 346Q618 432 597 496T538 604T449 669T340 691Q282 691 232 669T144 604T85 497T63 348Q63 262 84 198T143 90T231 24T340 2ZM238 766H442V755H238V766Z" />
<glyph unicode="&#x14d;" glyph-name="omacron" horiz-adv-x="512" d="M256 -6Q212 -6 172 9T102 55T53 134T35 249Q35 316 53 365T101 446T172 495T256 511Q300 511 340 496T410 449T459 369T477 253Q477 186 459 138T411 57T340 10T256 -6ZM256 5Q296 5 333
18T400 62T446 139T464 253Q464 320 447 367T400 443T334 486T256 500Q215 500 178 486T111 441T65 363T48 250Q48 184 65 138T112 62T178 19T256 5ZM154 662H358V651H154V662Z" />
<glyph unicode="&#x14e;" glyph-name="Obreve" horiz-adv-x="681" d="M340 -9Q276 -9 223 14T131 83T71 195T49 347Q49 432 70 498T130 610T222 678T340 702Q404 702 458 679T550 610T610 498T632 347Q632 261 611 195T550 84T458 15T340 -9ZM340 2Q398 2 449
24T537 89T596 197T618 346Q618 432 597 496T538 604T449 669T340 691Q282 691 232 669T144 604T85 497T63 348Q63 262 84 198T143 90T231 24T340 2ZM340 737Q299 737 270 758T232 815H242Q250 787 276 768T340 748Q378 748 404 767T438 815H448Q440 780 411 759T340
737Z" />
<glyph unicode="&#x14f;" glyph-name="obreve" horiz-adv-x="512" d="M256 593Q215 593 184 617T146 684H156Q162 648 191 626T256 604Q292 604 321 626T356 684H366Q360 641 329 617T256 593ZM256 -6Q212 -6 172 9T102 55T53 134T35 249Q35 316 53 365T101 446T172
495T256 511Q300 511 340 496T410 449T459 369T477 253Q477 186 459 138T411 57T340 10T256 -6ZM256 5Q296 5 333 18T400 62T446 139T464 253Q464 320 447 367T400 443T334 486T256 500Q215 500 178 486T111 441T65 363T48 250Q48 184 65 138T112 62T178 19T256
5Z" />
<glyph unicode="&#x150;" glyph-name="Ohungarumlaut" horiz-adv-x="681" d="M285 742L356 870L367 864L295 737L285 742ZM387 742L458 870L469 864L397 737L387 742ZM340 -9Q276 -9 223 14T131 83T71 195T49 347Q49 432 70 498T130 610T222 678T340 702Q404 702
458 679T550 610T610 498T632 347Q632 261 611 195T550 84T458 15T340 -9ZM340 2Q398 2 449 24T537 89T596 197T618 346Q618 432 597 496T538 604T449 669T340 691Q282 691 232 669T144 604T85 497T63 348Q63 262 84 198T143 90T231 24T340 2Z" />
<glyph unicode="&#x151;" glyph-name="ohungarumlaut" horiz-adv-x="512" d="M305 593L403 734L414 727L314 587L305 593ZM203 593L301 734L312 727L212 587L203 593ZM256 -6Q212 -6 172 9T102 55T53 134T35 249Q35 316 53 365T101 446T172 495T256 511Q300 511
340 496T410 449T459 369T477 253Q477 186 459 138T411 57T340 10T256 -6ZM256 5Q296 5 333 18T400 62T446 139T464 253Q464 320 447 367T400 443T334 486T256 500Q215 500 178 486T111 441T65 363T48 250Q48 184 65 138T112 62T178 19T256 5Z" />
<glyph unicode="&#x152;" glyph-name="OE" horiz-adv-x="933" d="M376 0Q284 0 221 23T120 90T66 199T49 345Q49 428 65 492T120 601T221 669T375 693H874L882 551H872L862 682H514V360H733L735 456H745V255H735L733 350H514V11H876L886 154H896L889 0H376ZM501
11V682H374Q210 682 137 600T63 346Q63 260 80 197T136 93T233 32T375 11H501Z" />
<glyph unicode="&#x153;" glyph-name="oe" horiz-adv-x="890" d="M253 -6Q210 -6 171 9T101 55T53 134T35 249Q35 316 53 365T101 446T170 495T253 511Q290 511 324 500T387 465T435 406T464 321Q481 413 535 462T666 511Q756 511 805 455T855 280H472Q469 218
478 167T513 80T579 25T683 5Q742 5 779 17T842 45V34Q817 19 779 7T683 -6Q627 -6 588 8T523 48T483 107T463 180Q454 132 434 97T386 39T324 5T253 -6ZM253 5Q292 5 329 18T394 62T440 139T458 253Q458 320 441 367T395 443T329 486T253 500Q213 500 176 486T111
441T65 363T48 250Q48 184 65 138T111 62T177 19T253 5ZM842 291Q840 397 795 448T666 500Q624 500 590 485T531 443T491 377T473 291H842Z" />
<glyph unicode="&#x154;" glyph-name="Racute" horiz-adv-x="599" d="M216 734L212 742L373 821L379 810L216 734ZM30 10L119 11V682L30 683V693H282Q346 693 388 680T454 644T488 588T498 516Q498 483 490 453T462 400T410 360T332 339V338L520 11L595 10V0H512L318
337H132V11L222 10V0H30V10ZM296 348Q392 348 438 392T484 516Q484 552 476 582T445 635T383 669T281 682H132V348H296Z" />
<glyph unicode="&#x155;" glyph-name="racute" horiz-adv-x="332" d="M16 10L98 11V493L13 494V504L109 505L111 503V431H112Q141 468 180 488T271 508Q277 508 287 507T303 504V493Q297 495 287 496T270 497Q221 497 181 476T111 416V11L198 10V0H16V10ZM380
612L533 706L540 696L385 604L380 612Z" />
<glyph unicode="&#x156;" glyph-name="Rcommaaccent" horiz-adv-x="599" d="M30 10L119 11V682L30 683V693H282Q346 693 388 680T454 644T488 588T498 516Q498 483 490 453T462 400T410 360T332 339V338L520 11L595 10V0H512L318 337H132V11L222 10V0H30V10ZM296
348Q392 348 438 392T484 516Q484 552 476 582T445 635T383 669T281 682H132V348H296ZM290 -171Q298 -142 302 -112T307 -42H321Q321 -83 316 -113T301 -171H290V-171Z" />
<glyph unicode="&#x157;" glyph-name="rcommaaccent" horiz-adv-x="332" d="M16 10L98 11V493L13 494V504L109 505L111 503V431H112Q141 468 180 488T271 508Q277 508 287 507T303 504V493Q297 495 287 496T270 497Q221 497 181 476T111 416V11L198 10V0H16V10ZM83
-171Q91 -142 95 -112T100 -42H114Q114 -83 109 -113T94 -171H83V-171Z" />
<glyph unicode="&#x158;" glyph-name="Rcaron" horiz-adv-x="599" d="M30 10L119 11V682L30 683V693H282Q346 693 388 680T454 644T488 588T498 516Q498 483 490 453T462 400T410 360T332 339V338L520 11L595 10V0H512L318 337H132V11L222 10V0H30V10ZM296 348Q392
348 438 392T484 516Q484 552 476 582T445 635T383 669T281 682H132V348H296ZM389 801L288 728H278L177 801L182 809L283 740L384 809L389 801Z" />
<glyph unicode="&#x159;" glyph-name="rcaron" horiz-adv-x="332" d="M325 687L331 694L432 601L533 694L539 687L437 589H427L325 687ZM16 10L98 11V493L13 494V504L109 505L111 503V431H112Q141 468 180 488T271 508Q277 508 287 507T303 504V493Q297 495 287
496T270 497Q221 497 181 476T111 416V11L198 10V0H16V10Z" />
<glyph unicode="&#x15a;" glyph-name="Sacute" horiz-adv-x="518" d="M240 -9Q187 -9 136 4T53 35L48 157H58L64 43Q92 27 140 15T240 3Q297 3 336 14T400 46T436 98T447 168Q447 209 437 236T405 284T348 319T264 352L241 360Q196 376 163 393T108 432T76 481T65
543Q65 576 75 605T108 655T168 689T261 701Q321 701 363 689T426 666L432 553H422L415 659Q399 667 358 678T261 690Q211 690 177 679T120 649T88 602T78 544Q78 479 118 441T245 372L268 364Q319 346 355 330T415 292T449 241T460 168Q460 127 449 95T411 39T343
4T240 -9ZM191 734L187 742L348 821L354 810L191 734Z" />
<glyph unicode="&#x15b;" glyph-name="sacute" horiz-adv-x="410" d="M194 -6Q148 -6 109 2T46 22L41 117H51L58 30Q84 19 120 12T194 5Q277 5 314 37T352 121Q352 150 345 170T324 205T289 228T239 246L166 265Q108 280 76 309T44 389Q44 446 82 478T197 511Q246
511 279 506T338 490L340 401H330L326 480Q306 490 272 495T196 500Q130 500 94 471T57 390Q57 344 84 318T168 277L241 258Q272 250 295 240T333 213T357 175T365 122Q365 65 324 30T194 -6ZM403 612L556 706L563 696L408 604L403 612Z" />
<glyph unicode="&#x15c;" glyph-name="Scircumflex" horiz-adv-x="518" d="M152 733L253 806H263L364 733L359 725L258 794L157 725L152 733ZM240 -9Q187 -9 136 4T53 35L48 157H58L64 43Q92 27 140 15T240 3Q297 3 336 14T400 46T436 98T447 168Q447 209 437
236T405 284T348 319T264 352L241 360Q196 376 163 393T108 432T76 481T65 543Q65 576 75 605T108 655T168 689T261 701Q321 701 363 689T426 666L432 553H422L415 659Q399 667 358 678T261 690Q211 690 177 679T120 649T88 602T78 544Q78 479 118 441T245 372L268
364Q319 346 355 330T415 292T449 241T460 168Q460 127 449 95T411 39T343 4T240 -9Z" />
<glyph unicode="&#x15d;" glyph-name="scircumflex" horiz-adv-x="410" d="M194 -6Q148 -6 109 2T46 22L41 117H51L58 30Q84 19 120 12T194 5Q277 5 314 37T352 121Q352 150 345 170T324 205T289 228T239 246L166 265Q108 280 76 309T44 389Q44 446 82 478T197
511Q246 511 279 506T338 490L340 401H330L326 480Q306 490 272 495T196 500Q130 500 94 471T57 390Q57 344 84 318T168 277L241 258Q272 250 295 240T333 213T357 175T365 122Q365 65 324 30T194 -6ZM353 602L455 700H465L567 602L561 595L460 688L359 595L353
602Z" />
<glyph unicode="&#x15e;" glyph-name="Scedilla" horiz-adv-x="518" d="M191 -177Q253 -171 282 -156T311 -113Q311 -88 286 -77T214 -65V-8Q166 -5 124 7T53 35L48 157H58L64 43Q92 27 140 15T240 3Q297 3 336 14T400 46T436 98T447 168Q447 209 437 236T405
284T348 319T264 352L241 360Q196 376 163 393T108 432T76 481T65 543Q65 576 75 605T108 655T168 689T261 701Q321 701 363 689T426 666L432 553H422L415 659Q399 667 358 678T261 690Q211 690 177 679T120 649T88 602T78 544Q78 479 118 441T245 372L268 364Q319
346 355 330T415 292T449 241T460 168Q460 127 449 95T411 39T343 4T240 -9H226V-54Q271 -56 297 -70T324 -113Q324 -143 292 -162T191 -188V-177Z" />
<glyph unicode="&#x15f;" glyph-name="scedilla" horiz-adv-x="410" d="M139 -177Q201 -171 230 -156T259 -113Q259 -88 234 -77T162 -65V-5Q125 -2 95 5T46 22L41 117H51L58 30Q84 19 120 12T194 5Q277 5 314 37T352 121Q352 150 345 170T324 205T289 228T239
246L166 265Q108 280 76 309T44 389Q44 446 82 478T197 511Q246 511 279 506T338 490L340 401H330L326 480Q306 490 272 495T196 500Q130 500 94 471T57 390Q57 344 84 318T168 277L241 258Q272 250 295 240T333 213T357 175T365 122Q365 65 324 30T194 -6H174V-54Q219
-56 245 -70T272 -113Q272 -143 240 -162T139 -188V-177Z" />
<glyph unicode="&#x160;" glyph-name="Scaron" horiz-adv-x="518" d="M240 -9Q187 -9 136 4T53 35L48 157H58L64 43Q92 27 140 15T240 3Q297 3 336 14T400 46T436 98T447 168Q447 209 437 236T405 284T348 319T264 352L241 360Q196 376 163 393T108 432T76 481T65
543Q65 576 75 605T108 655T168 689T261 701Q321 701 363 689T426 666L432 553H422L415 659Q399 667 358 678T261 690Q211 690 177 679T120 649T88 602T78 544Q78 479 118 441T245 372L268 364Q319 346 355 330T415 292T449 241T460 168Q460 127 449 95T411 39T343
4T240 -9ZM364 801L263 728H253L152 801L157 809L258 740L359 809L364 801Z" />
<glyph unicode="&#x161;" glyph-name="scaron" horiz-adv-x="410" d="M194 -6Q148 -6 109 2T46 22L41 117H51L58 30Q84 19 120 12T194 5Q277 5 314 37T352 121Q352 150 345 170T324 205T289 228T239 246L166 265Q108 280 76 309T44 389Q44 446 82 478T197 511Q246
511 279 506T338 490L340 401H330L326 480Q306 490 272 495T196 500Q130 500 94 471T57 390Q57 344 84 318T168 277L241 258Q272 250 295 240T333 213T357 175T365 122Q365 65 324 30T194 -6ZM353 687L359 694L460 601L561 694L567 687L465 589H455L353 687Z" />
<glyph unicode="&#x162;" glyph-name="Tcommaaccent" horiz-adv-x="563" d="M176 10L275 11V682H36L28 551H18L25 693H538L545 551H535L527 682H288V11L387 10V0H176V10ZM258 -171Q266 -142 270 -112T275 -42H289Q289 -83 284 -113T269 -171H258V-171Z" />
<glyph unicode="&#x163;" glyph-name="tcommaaccent" horiz-adv-x="288" d="M193 -5Q172 -5 154 -1T121 15T99 46T91 97V493H14V503L91 504V628H104V504H254V493H104V98Q104 69 110 52T129 24T157 10T194 6Q214 6 232 10T267 22V11Q252 4 232 0T193 -5ZM402 -171Q410
-142 414 -112T419 -42H433Q433 -83 428 -113T413 -171H402V-171Z" />
<glyph unicode="&#x164;" glyph-name="Tcaron" horiz-adv-x="563" d="M176 10L275 11V682H36L28 551H18L25 693H538L545 551H535L527 682H288V11L387 10V0H176V10ZM387 801L286 728H276L175 801L180 809L281 740L382 809L387 801Z" />
<glyph unicode="&#x165;" glyph-name="tcaron" horiz-adv-x="288" d="M193 -5Q172 -5 154 -1T121 15T99 46T91 97V493H14V503L91 504V628H104V504H254V493H104V98Q104 69 110 52T129 24T157 10T194 6Q214 6 232 10T267 22V11Q252 4 232 0T193 -5ZM454 736L469
735L457 578L446 579L454 736Z" />
<glyph unicode="&#x166;" glyph-name="Tbar" horiz-adv-x="563" d="M116 409H275V682H36L28 551H18L25 693H538L545 551H535L527 682H288V409H447V398H288V11L387 10V0H176V10L275 11V398H116V409Z" />
<glyph unicode="&#x167;" glyph-name="tbar" horiz-adv-x="288" d="M91 368V493H14V503L91 504V628H104V504H254V493H104V368H254V357H104V98Q104 69 110 52T129 24T157 10T194 6Q214 6 232 10T267 22V11Q252 4 232 0T193 -5Q172 -5 154 -1T121 15T99 46T91 97V357H14V368H91Z"
/>
<glyph unicode="&#x168;" glyph-name="Utilde" horiz-adv-x="680" d="M235 747Q257 797 298 797Q311 797 325 792T353 780T380 769T406 763Q439 763 460 804L468 801Q447 752 405 752Q392 752 379 757T351 769T323 780T297 786Q265 786 243 744L235 747ZM338 -9Q221
-9 165 45T108 213V682L24 683V693H219V683L121 682V214Q121 103 175 53T339 3Q448 3 504 53T561 214V682L472 683V693H656V683L572 682V213Q572 99 514 45T338 -9Z" />
<glyph unicode="&#x169;" glyph-name="utilde" horiz-adv-x="545" d="M235 -5Q203 -5 178 1T134 22T105 65T95 133V493L13 494V504L106 505L108 503V135Q108 96 116 71T141 32T182 12T237 6Q288 6 337 22T437 66V493L355 494V504L448 505L450 503V11L532 10V0L439
-1L437 1V55H436Q385 26 335 11T235 -5ZM150 618Q172 668 213 668Q226 668 240 663T268 651T295 640T321 634Q354 634 375 675L383 672Q362 623 320 623Q307 623 294 628T266 640T238 651T212 657Q180 657 158 615L150 618Z" />
<glyph unicode="&#x16a;" glyph-name="Umacron" horiz-adv-x="680" d="M338 -9Q221 -9 165 45T108 213V682L24 683V693H219V683L121 682V214Q121 103 175 53T339 3Q448 3 504 53T561 214V682L472 683V693H656V683L572 682V213Q572 99 514 45T338 -9ZM249 766H453V755H249V766Z"
/>
<glyph unicode="&#x16b;" glyph-name="umacron" horiz-adv-x="545" d="M235 -5Q203 -5 178 1T134 22T105 65T95 133V493L13 494V504L106 505L108 503V135Q108 96 116 71T141 32T182 12T237 6Q288 6 337 22T437 66V493L355 494V504L448 505L450 503V11L532 10V0L439
-1L437 1V55H436Q385 26 335 11T235 -5ZM164 662H368V651H164V662Z" />
<glyph unicode="&#x16c;" glyph-name="Ubreve" horiz-adv-x="680" d="M338 -9Q221 -9 165 45T108 213V682L24 683V693H219V683L121 682V214Q121 103 175 53T339 3Q448 3 504 53T561 214V682L472 683V693H656V683L572 682V213Q572 99 514 45T338 -9ZM351 737Q310
737 281 758T243 815H253Q261 787 287 768T351 748Q389 748 415 767T449 815H459Q451 780 422 759T351 737Z" />
<glyph unicode="&#x16d;" glyph-name="ubreve" horiz-adv-x="545" d="M235 -5Q203 -5 178 1T134 22T105 65T95 133V493L13 494V504L106 505L108 503V135Q108 96 116 71T141 32T182 12T237 6Q288 6 337 22T437 66V493L355 494V504L448 505L450 503V11L532 10V0L439
-1L437 1V55H436Q385 26 335 11T235 -5ZM260 593Q219 593 188 617T150 684H160Q166 648 195 626T260 604Q296 604 325 626T360 684H370Q364 641 333 617T260 593Z" />
<glyph unicode="&#x16e;" glyph-name="Uring" horiz-adv-x="680" d="M338 -9Q221 -9 165 45T108 213V682L24 683V693H219V683L121 682V214Q121 103 175 53T339 3Q448 3 504 53T561 214V682L472 683V693H656V683L572 682V213Q572 99 514 45T338 -9ZM351 959Q323
959 305 978T286 1024Q286 1051 304 1070T351 1089Q379 1089 397 1070T416 1024Q416 997 398 978T351 959ZM351 970Q375 970 389 985T403 1024Q403 1047 389 1062T351 1078Q327 1078 313 1063T299 1024Q299 1001 313 986T351 970Z" />
<glyph unicode="&#x16f;" glyph-name="uring" horiz-adv-x="545" d="M262 592Q234 592 216 611T197 657Q197 684 215 703T262 722Q290 722 308 703T327 657Q327 630 309 611T262 592ZM262 603Q286 603 300 618T314 657Q314 680 300 695T262 711Q238 711 224 696T210
657Q210 634 224 619T262 603ZM235 -5Q203 -5 178 1T134 22T105 65T95 133V493L13 494V504L106 505L108 503V135Q108 96 116 71T141 32T182 12T237 6Q288 6 337 22T437 66V493L355 494V504L448 505L450 503V11L532 10V0L439 -1L437 1V55H436Q385 26 335 11T235
-5Z" />
<glyph unicode="&#x170;" glyph-name="Uhungarumlaut" horiz-adv-x="680" d="M296 742L367 870L378 864L306 737L296 742ZM398 742L469 870L480 864L408 737L398 742ZM338 -9Q221 -9 165 45T108 213V682L24 683V693H219V683L121 682V214Q121 103 175 53T339 3Q448
3 504 53T561 214V682L472 683V693H656V683L572 682V213Q572 99 514 45T338 -9Z" />
<glyph unicode="&#x171;" glyph-name="uhungarumlaut" horiz-adv-x="545" d="M295 593L393 734L404 727L304 587L295 593ZM193 593L291 734L302 727L202 587L193 593ZM235 -5Q203 -5 178 1T134 22T105 65T95 133V493L13 494V504L106 505L108 503V135Q108 96 116
71T141 32T182 12T237 6Q288 6 337 22T437 66V493L355 494V504L448 505L450 503V11L532 10V0L439 -1L437 1V55H436Q385 26 335 11T235 -5Z" />
<glyph unicode="&#x172;" glyph-name="Uogonek" horiz-adv-x="680" d="M369 -195Q331 -195 312 -178T292 -129Q292 -94 314 -65T370 -8Q362 -8 354 -8T338 -9Q221 -9 165 45T108 213V682L24 683V693H219V683L121 682V214Q121 103 175 53T339 3Q448 3 504 53T561
214V682L472 683V693H656V683L572 682V213Q572 112 526 59T388 -6Q350 -36 328 -66T305 -129Q305 -155 320 -169T369 -184Q384 -184 393 -183T411 -180V-190Q403 -192 394 -193T369 -195Z" />
<glyph unicode="&#x173;" glyph-name="uogonek" horiz-adv-x="545" d="M426 -195Q388 -195 369 -178T349 -129Q349 -92 374 -60T437 0V55H436Q385 26 335 11T235 -5Q203 -5 178 1T134 22T105 65T95 133V493L13 494V504L106 505L108 503V135Q108 96 116 71T141
32T182 12T237 6Q288 6 337 22T437 66V493L355 494V504L448 505L450 503V11L532 10V0L452 -1Q410 -31 386 -62T362 -129Q362 -155 377 -169T426 -184Q441 -184 450 -183T468 -180V-190Q460 -192 451 -193T426 -195Z" />
<glyph unicode="&#x174;" glyph-name="Wcircumflex" horiz-adv-x="888" d="M338 733L439 806H449L550 733L545 725L444 794L343 725L338 733ZM69 682L5 683V693H173V683L83 682L250 23H251L436 693H449L635 23H636L805 682L715 683V693H883V683L819 682L642 0H628L443
667H442L257 0H243L69 682Z" />
<glyph unicode="&#x175;" glyph-name="wcircumflex" horiz-adv-x="748" d="M268 602L370 700H380L482 602L476 595L375 688L274 595L268 602ZM65 493L8 494V504H156V494L78 493L212 22H213L369 504H380L535 22H536L670 493L592 494V504H740V494L683 493L541 0H529L375
479H374L218 0H206L65 493Z" />
<glyph unicode="&#x176;" glyph-name="Ycircumflex" horiz-adv-x="598" d="M204 10L293 11V319L76 682L12 683V693H178V683L91 682L299 332H300L507 682L420 683V693H586V683L522 682L306 319V11L396 10V0H204V10ZM196 733L297 806H307L408 733L403 725L302 794L201
725L196 733Z" />
<glyph unicode="&#x177;" glyph-name="ycircumflex" horiz-adv-x="520" d="M119 -192Q107 -192 95 -191T72 -186V-175Q96 -181 118 -181Q141 -181 157 -174T185 -154T205 -125T221 -88L260 13L63 493L8 494V504H155V494L76 493L266 29H267L444 493L365 494V504H512V494L457
493L232 -93Q224 -114 215 -132T192 -164T162 -184T119 -192ZM165 602L267 700H277L379 602L373 595L272 688L171 595L165 602Z" />
<glyph unicode="&#x178;" glyph-name="Ydieresis" horiz-adv-x="598" d="M368 755Q363 755 359 758T354 769Q354 776 358 779T368 783Q373 783 377 780T382 769Q382 762 378 759T368 755ZM236 755Q231 755 227 758T222 769Q222 776 226 779T236 783Q241 783 245
780T250 769Q250 762 246 759T236 755ZM204 10L293 11V319L76 682L12 683V693H178V683L91 682L299 332H300L507 682L420 683V693H586V683L522 682L306 319V11L396 10V0H204V10Z" />
<glyph unicode="&#x179;" glyph-name="Zacute" horiz-adv-x="542" d="M29 10L494 680V682H74L67 544H57L62 693H512V683L46 12V11H486L496 143H507L499 0H29V10ZM216 734L212 742L373 821L379 810L216 734Z" />
<glyph unicode="&#x17a;" glyph-name="zacute" horiz-adv-x="435" d="M30 12L385 493V494H61L55 404H45L49 505H400V493L45 12V11H373L382 114H392L385 0H30V12ZM427 612L580 706L587 696L432 604L427 612Z" />
<glyph unicode="&#x17b;" glyph-name="Zdotaccent" horiz-adv-x="542" d="M283 755Q278 755 274 758T269 769Q269 776 273 779T283 783Q288 783 292 780T297 769Q297 762 293 759T283 755ZM29 10L494 680V682H74L67 544H57L62 693H512V683L46 12V11H486L496 143H507L499
0H29V10Z" />
<glyph unicode="&#x17c;" glyph-name="zdotaccent" horiz-adv-x="435" d="M484 645Q479 645 475 648T470 659Q470 666 474 669T484 673Q489 673 493 670T498 659Q498 652 494 649T484 645ZM30 12L385 493V494H61L55 404H45L49 505H400V493L45 12V11H373L382 114H392L385
0H30V12Z" />
<glyph unicode="&#x17d;" glyph-name="Zcaron" horiz-adv-x="542" d="M29 10L494 680V682H74L67 544H57L62 693H512V683L46 12V11H486L496 143H507L499 0H29V10ZM389 801L288 728H278L177 801L182 809L283 740L384 809L389 801Z" />
<glyph unicode="&#x17e;" glyph-name="zcaron" horiz-adv-x="435" d="M30 12L385 493V494H61L55 404H45L49 505H400V493L45 12V11H373L382 114H392L385 0H30V12ZM377 687L383 694L484 601L585 694L591 687L489 589H479L377 687Z" />
<glyph unicode="&#x192;" glyph-name="florin" horiz-adv-x="361" d="M52 412H138L162 559Q168 600 181 627T213 671T252 695T297 702Q322 702 338 698T367 689V678Q355 683 338 687T297 691Q276 691 257 685T221 663T192 621T174 557L151 412H282V401H149L76
-59Q68 -112 41 -133T-24 -154Q-44 -154 -57 -150T-80 -141V-130Q-72 -135 -57 -139T-24 -143Q10 -143 33 -124T64 -57L137 401H52V412Z" />
<glyph unicode="&#x1fa;" glyph-name="Aringacute" horiz-adv-x="620" d="M-5 10L59 11L304 693H316L561 11L625 10V0H456V10L546 11L466 234H152L72 11L162 10V0H-5V10ZM463 245L310 672H309L155 245H463ZM310 732Q282 732 264 751T245 797Q245 824 263 843T310
862Q338 862 356 843T375 797Q375 770 357 751T310 732ZM310 743Q334 743 348 758T362 797Q362 820 348 835T310 851Q286 851 272 836T258 797Q258 774 272 759T310 743ZM232 874L228 882L389 961L395 950L232 874Z" />
<glyph unicode="&#x1fb;" glyph-name="aringacute" horiz-adv-x="456" d="M188 -6Q117 -6 78 28T39 122Q39 185 78 217T192 255L347 266V371Q347 436 319 468T220 500Q175 500 137 492T69 472V483Q99 494 137 502T221 511Q293 511 326 477T360 372V71Q360 34 374
21T414 8Q425 8 434 10T449 14V4Q444 2 433 0T412 -3Q380 -3 365 13T348 65H347Q322 32 280 13T188 -6ZM189 5Q237 5 279 24T347 80V255L194 245Q51 236 51 123Q51 65 88 35T189 5ZM481 592Q453 592 435 611T416 657Q416 684 434 703T481 722Q509 722 527 703T546
657Q546 630 528 611T481 592ZM481 603Q505 603 519 618T533 657Q533 680 519 695T481 711Q457 711 443 696T429 657Q429 634 443 619T481 603ZM412 744L408 752L569 831L575 820L412 744Z" />
<glyph unicode="&#x1fc;" glyph-name="AEacute" horiz-adv-x="914" d="M9 10L68 11L432 682L345 683V693H855L863 551H853L843 682H497V360H711L713 456H723V255H713L711 350H497V11H857L867 154H877L870 0H395V10L484 11V213H190L81 11L161 10V0H9V10ZM445 682L196
224H484V682H445ZM544 734L540 742L701 821L707 810L544 734Z" />
<glyph unicode="&#x1fd;" glyph-name="aeacute" horiz-adv-x="779" d="M382 93Q370 73 350 55T304 24T249 2T188 -6Q117 -6 78 28T38 127Q38 195 78 228T192 266L351 277V371Q351 436 320 468T213 500Q175 500 137 492T69 472V483Q99 494 137 502T215 511Q294
511 329 477T364 372V343Q384 427 431 469T548 511Q635 511 684 453T734 267H365Q363 210 371 162T403 79T465 25T565 5Q622 5 658 17T721 45V34Q696 19 658 7T565 -6Q490 -6 448 21T382 93ZM194 256Q51 247 51 128Q51 68 88 37T189 5Q219 5 247 13T300 34T344
66T376 104Q362 139 356 179T351 266L194 256ZM721 278Q719 393 674 446T548 500Q466 500 420 441T366 278H721ZM339 612L492 706L499 696L344 604L339 612Z" />
<glyph unicode="&#x1fe;" glyph-name="Oslashacute" horiz-adv-x="677" d="M340 -9Q214 -9 136 77L61 -17L51 -10L128 87Q90 132 70 197T49 347Q49 432 70 498T130 610T222 678T340 702Q468 702 547 614L616 700L626 693L555 604Q591 559 611 495T632 347Q632
261 611 195T550 84T458 15T340 -9ZM63 348Q63 266 82 204T136 98L539 603Q501 648 450 669T340 691Q282 691 232 669T144 604T85 497T63 348ZM340 2Q398 2 449 24T537 89T596 197T618 346Q618 427 599 488T546 593L144 88Q182 45 232 24T340 2ZM271 734L267 742L428
821L434 810L271 734Z" />
<glyph unicode="&#x1ff;" glyph-name="oslashacute" horiz-adv-x="512" d="M256 -6Q211 -6 171 9T99 56L43 -11L34 -4L92 65Q66 96 51 141T35 249Q35 316 53 365T101 446T172 495T256 511Q301 511 341 496T412 448L462 508L471 501L419 439Q446 407 461 361T477
253Q477 186 459 138T411 57T340 10T256 -6ZM256 5Q296 5 333 18T400 62T446 139T464 253Q464 313 450 356T412 430L107 66Q136 34 175 20T256 5ZM48 250Q48 190 62 147T100 74L404 439Q375 471 337 485T256 500Q215 500 178 486T111 441T65 363T48 250ZM197 612L350
706L357 696L202 604L197 612Z" />
<glyph unicode="&#x218;" glyph-name="Scommaaccent" horiz-adv-x="518" d="M240 -9Q187 -9 136 4T53 35L48 157H58L64 43Q92 27 140 15T240 3Q297 3 336 14T400 46T436 98T447 168Q447 209 437 236T405 284T348 319T264 352L241 360Q196 376 163 393T108 432T76
481T65 543Q65 576 75 605T108 655T168 689T261 701Q321 701 363 689T426 666L432 553H422L415 659Q399 667 358 678T261 690Q211 690 177 679T120 649T88 602T78 544Q78 479 118 441T245 372L268 364Q319 346 355 330T415 292T449 241T460 168Q460 127 449 95T411
39T343 4T240 -9ZM235 -171Q243 -142 247 -112T252 -42H266Q266 -83 261 -113T246 -171H235V-171Z" />
<glyph unicode="&#x219;" glyph-name="scommaaccent" horiz-adv-x="410" d="M194 -6Q148 -6 109 2T46 22L41 117H51L58 30Q84 19 120 12T194 5Q277 5 314 37T352 121Q352 150 345 170T324 205T289 228T239 246L166 265Q108 280 76 309T44 389Q44 446 82 478T197
511Q246 511 279 506T338 490L340 401H330L326 480Q306 490 272 495T196 500Q130 500 94 471T57 390Q57 344 84 318T168 277L241 258Q272 250 295 240T333 213T357 175T365 122Q365 65 324 30T194 -6ZM431 -171Q439 -142 443 -112T448 -42H462Q462 -83 457 -113T442
-171H431V-171Z" />
<glyph unicode="&#x237;" glyph-name="uni0237" horiz-adv-x="204" d="M14 -192Q-3 -192 -12 -191T-35 -185V-175Q-23 -178 -13 -179T14 -181Q57 -181 80 -158T103 -78V493L13 494V504L114 505L116 503V-78Q116 -138 89 -165T14 -192Z" />
<glyph unicode="&#x2c6;" glyph-name="circumflex" horiz-adv-x="490" d="M138 602L240 700H250L352 602L346 595L245 688L144 595L138 602Z" />
<glyph unicode="&#x2c7;" glyph-name="caron" horiz-adv-x="490" d="M138 687L144 694L245 601L346 694L352 687L250 589H240L138 687Z" />
<glyph unicode="&#x2d8;" glyph-name="breve" horiz-adv-x="490" d="M245 593Q204 593 173 617T135 684H145Q151 648 180 626T245 604Q281 604 310 626T345 684H355Q349 641 318 617T245 593Z" />
<glyph unicode="&#x2d9;" glyph-name="dotaccent" horiz-adv-x="490" d="M245 645Q240 645 236 648T231 659Q231 666 235 669T245 673Q250 673 254 670T259 659Q259 652 255 649T245 645Z" />
<glyph unicode="&#x2da;" glyph-name="ring" horiz-adv-x="490" d="M245 592Q217 592 199 611T180 657Q180 684 198 703T245 722Q273 722 291 703T310 657Q310 630 292 611T245 592ZM245 603Q269 603 283 618T297 657Q297 680 283 695T245 711Q221 711 207 696T193
657Q193 634 207 619T245 603Z" />
<glyph unicode="&#x2db;" glyph-name="ogonek" horiz-adv-x="490" d="M257 -195Q219 -195 200 -178T180 -129Q180 -92 206 -61T269 0H284Q243 -32 218 -63T193 -129Q193 -155 208 -169T257 -184Q272 -184 281 -183T299 -180V-190Q291 -192 282 -193T257 -195Z" />
<glyph unicode="&#x2dc;" glyph-name="tilde" horiz-adv-x="490" d="M128 618Q150 668 191 668Q204 668 218 663T246 651T273 640T299 634Q332 634 353 675L361 672Q340 623 298 623Q285 623 272 628T244 640T216 651T190 657Q158 657 136 615L128 618Z" />
<glyph unicode="&#x2dd;" glyph-name="hungarumlaut" horiz-adv-x="490" d="M279 593L377 734L388 727L288 587L279 593ZM177 593L275 734L286 727L186 587L177 593Z" />
</font>
</defs>
</svg>
