<?xml version="1.0" standalone="no"?> <!DOCTYPE svg PUBLIC "-//W3C//DTD SVG 1.0//EN" "http://www.w3.org/TR/2001/REC-SVG-20010904/DTD/svg10.dtd" > <svg xmlns="http://www.w3.org/2000/svg" width="100%" height="100%">
<defs >
<font horiz-adv-x="386" ><font-face
    font-family=""
    units-per-em="1000"
    panose-1="2 11 3 3 3 2 2 6 2 3"
    ascent="809"
    descent="-191"
    alphabetic="0" />
<missing-glyph horiz-adv-x="417" />
<glyph unicode=" " glyph-name="space" horiz-adv-x="155" />
<glyph unicode="!" glyph-name="exclam" horiz-adv-x="183" d="M144 693H178L91 161H64L144 693ZM44 54H78L70 0H35L44 54Z" />
<glyph unicode="&quot;" glyph-name="quotedbl" horiz-adv-x="225" d="M215 693H249L218 546H190L215 693ZM124 693H158L127 546H99L124 693Z" />
<glyph unicode="#" glyph-name="numbersign" horiz-adv-x="413" d="M90 473H161L217 693H244L188 473H318L373 693H400L344 473H412L408 447H337L294 270H362L358 243H287L226 0H199L260 243H130L69 0H43L103 243H35L40 270H111L155 447H85L90 473ZM137 270H267L311
447H182L137 270Z" />
<glyph unicode="$" glyph-name="dollar" horiz-adv-x="404" d="M306 766H333L316 698Q340 694 356 687Q386 673 403 661L398 633Q379 647 348 661Q331 668 309 672L235 371L245 365Q269 350 289 334T325 299T348 255T357 200Q357 189 356 172T351 137Q344 106
329 79T290 33T234 2T161 -9Q150 -9 141 -8L114 -117H87L114 -5L103 -3Q78 2 58 10T24 28T-1 44L4 73Q28 55 66 36Q90 25 121 20L204 355L193 363Q139 395 113 431T87 522Q87 537 88 555T98 594Q116 645 161 673T269 701Q280 701 290 700L306 766ZM162 18Q231 18
269 52T320 142Q326 172 326 199Q326 224 319 244T299 281T269 312T230 339L227 340L147 18H162ZM268 675Q216 675 180 652T128 589Q122 572 120 554T118 523Q118 476 139 446T208 388L211 386L283 675H268Z" />
<glyph unicode="%" glyph-name="percent" horiz-adv-x="629" d="M172 380Q217 380 244 413T283 507Q290 541 290 580Q290 627 270 652T212 677Q167 677 139 643T99 549Q96 532 95 513T93 478Q93 380 172 380ZM440 16Q485 16 513 50T552 144Q555 162 557 179T559
216Q559 264 539 288T481 312Q436 312 408 279T368 185Q365 168 364 149T362 115Q362 66 382 41T440 16ZM60 -40L555 713H584L89 -40H60ZM171 356Q121 356 93 388T65 480Q65 517 73 556T98 627T143 680T212 701Q262 701 290 670T319 578Q319 543 312 504T287 432T241
378T171 356ZM440 -8Q390 -8 362 24T334 116Q334 153 341 192T366 263T412 315T481 336Q531 336 559 305T587 214Q587 179 580 140T555 68T509 14T440 -8Z" />
<glyph unicode="&amp;" glyph-name="ampersand" horiz-adv-x="499" d="M191 -8Q151 -8 120 4T67 39T34 92T22 159Q22 201 35 235T72 296T128 346T198 390Q176 432 162 469T147 545Q147 578 156 606T184 656T229 689T288 701Q336 701 368 670T401 579Q401 511 357
466T237 382L375 133Q396 170 411 214T437 310H466Q455 252 436 201T390 107L450 0H417L370 81Q336 39 292 16T191 -8ZM192 18Q245 18 285 41T357 106L211 368Q178 350 150 330T100 286T67 230T55 160Q55 97 91 58T192 18ZM226 403Q255 419 280 435T325 471T356
517T368 579Q368 624 346 649T287 675Q238 675 209 640T180 547Q180 509 193 476T226 403Z" />
<glyph unicode="&apos;" glyph-name="quotesingle" horiz-adv-x="126" d="M111 693H144L117 546H91L111 693Z" />
<glyph unicode="(" glyph-name="parenleft" horiz-adv-x="234" d="M140 -120Q126 -98 111 -65T84 10T63 102T54 211Q54 304 73 382T123 524T190 641T264 734H294Q253 686 216 632T150 513T104 375T86 212Q86 102 110 20T166 -120H140Z" />
<glyph unicode=")" glyph-name="parenright" horiz-adv-x="243" d="M-36 -120Q4 -72 41 -18T108 100T154 238T172 402Q172 512 148 593T91 733H118Q131 711 146 678T174 603T195 511T203 402Q203 310 184 232T135 90T67 -27T-7 -120H-36Z" />
<glyph unicode="*" glyph-name="asterisk" horiz-adv-x="282" d="M173 550L80 504L70 525L167 570L84 630L99 649L179 588L195 693H219L202 586L297 633L306 613L209 567L292 506L278 488L195 550L179 444H156L173 550Z" />
<glyph unicode="+" glyph-name="plus" horiz-adv-x="396" d="M196 340H54L58 365H200L225 519H253L228 365H370L366 340H224L199 183H171L196 340Z" />
<glyph unicode="," glyph-name="comma" horiz-adv-x="149" d="M34 54H70L20 -93H-5L34 54Z" />
<glyph unicode="-" glyph-name="hyphen" horiz-adv-x="250" d="M51 277H207L203 252H48L51 277Z" />
<glyph unicode="." glyph-name="period" horiz-adv-x="146" d="M25 54H61L53 0H17L25 54Z" />
<glyph unicode="/" glyph-name="slash" horiz-adv-x="262" d="M287 733H316L-24 -120H-53L287 733Z" />
<glyph unicode="0" glyph-name="zero" horiz-adv-x="505" d="M218 -9Q133 -9 89 46T44 203Q44 232 48 273T63 381Q72 431 88 487T134 591T208 670T316 701Q401 701 444 645T488 486Q488 455 485 415T471 313Q461 253 443 195T395 92T322 19T218 -9ZM219 18Q274
18 312 47T375 122T416 220T439 320Q449 383 452 421T456 485Q456 575 422 624T315 674Q259 674 221 645T158 571T117 474T94 375Q83 309 80 270T77 203Q77 115 112 67T219 18Z" />
<glyph unicode="1" glyph-name="one" horiz-adv-x="236" d="M184 662L71 632L74 652L209 700H221L112 0H80L184 662Z" />
<glyph unicode="2" glyph-name="two" horiz-adv-x="407" d="M-8 25L188 244Q227 286 259 322T314 393T349 463T362 540Q362 603 331 638T238 674Q193 674 162 663T100 635L103 662Q131 678 162 689T241 701Q318 701 356 657T394 541Q394 498 380 459T342 383T284
308T210 228L31 28V26H329L325 0H-12L-8 25Z" />
<glyph unicode="3" glyph-name="three" d="M125 -8Q77 -8 44 4T-10 30L-6 56Q20 40 50 30T125 19Q191 19 232 49T294 135Q301 155 305 177T309 222Q309 291 272 322T165 354H124L129 380H178Q223 380 259 400T316 462Q336 502 336 549Q336 674 215 674Q182 674
153 666T99 646L103 673Q126 686 156 693T219 701Q294 702 331 661T369 550Q369 516 359 486T331 431T289 390T236 368V367Q257 363 276 353T309 325T332 282T341 224Q341 174 327 132T286 58T218 10T125 -8Z" />
<glyph unicode="4" glyph-name="four" horiz-adv-x="421" d="M275 194H5L9 218L357 693H384L310 221H405L400 194H306L275 0H244L275 194ZM279 221L343 627H341L42 222V221H279Z" />
<glyph unicode="5" glyph-name="five" horiz-adv-x="396" d="M121 -8Q82 -8 48 3T-7 30L-3 54Q26 37 56 28T121 19Q190 19 233 49T296 137Q304 162 309 189T314 245Q314 317 277 351T170 386Q138 386 112 382T69 373L130 693H394L390 666H152L101 402Q112 405
134 408T181 412Q260 412 303 369T346 246Q346 202 335 157T298 75T229 15T121 -8Z" />
<glyph unicode="6" glyph-name="six" horiz-adv-x="434" d="M200 -8Q116 -8 76 49T35 200Q35 224 38 258T49 341Q60 408 77 465T116 564Q153 632 205 666T331 701Q371 701 397 693T438 675L434 649Q417 659 391 666T329 674Q270 674 224 646T144 554Q124 516 109
465T82 347Q113 373 152 391T243 410Q313 410 354 368T396 246Q396 198 385 153T349 71T288 14T200 -8ZM200 18Q244 18 276 38T329 94Q348 126 356 166T364 244Q364 313 332 348T238 383Q185 383 147 365T78 322Q73 290 70 259T67 200Q67 139 86 92Q101 57 128
38T200 18Z" />
<glyph unicode="7" glyph-name="seven" horiz-adv-x="372" d="M379 663V666H79L83 693H416L412 665L75 0H42L379 663Z" />
<glyph unicode="8" glyph-name="eight" horiz-adv-x="445" d="M198 -9Q157 -9 124 3T68 36T32 86T19 151Q19 195 36 229T80 288T142 332T209 364Q157 398 127 437T96 530Q96 566 108 597T144 652T200 688T274 701Q348 701 388 660T428 552Q428 520 416 493T382
441T330 398T265 362Q292 344 316 325T357 285T384 237T394 179Q394 139 381 105T342 46T281 6T198 -9ZM199 18Q279 18 321 62T363 178Q363 205 355 227T331 269T289 310T229 352Q199 338 167 321T110 281T68 226T51 152Q51 92 91 55T199 18ZM245 375Q273 388 300
404T349 442T383 490T396 551Q397 608 364 641T272 675Q240 675 214 665T168 635T139 590T128 532Q127 480 157 446T245 375Z" />
<glyph unicode="9" glyph-name="nine" horiz-adv-x="438" d="M132 -7Q95 -7 68 1T24 20L29 45Q47 35 72 28T133 20Q193 20 241 48T323 141Q345 183 359 235T383 347Q356 323 314 303T221 283Q149 283 107 325T65 448Q65 497 78 542T118 623T181 680T265 701Q350
701 389 644T429 486Q429 452 424 405T408 309T384 212T352 131Q317 63 264 28T132 -7ZM224 310Q278 310 319 330T387 373Q391 398 394 431T397 487Q397 529 390 563T366 622Q350 648 326 661T265 675Q234 675 208 663T162 630T128 581T106 521Q97 485 97 448Q98
377 131 344T224 310Z" />
<glyph unicode=":" glyph-name="colon" horiz-adv-x="154" d="M78 364H113L105 310H69L78 364ZM29 54H65L56 0H21L29 54Z" />
<glyph unicode=";" glyph-name="semicolon" horiz-adv-x="157" d="M34 54H69L19 -93H-5L34 54ZM82 364H117L109 310H73L82 364Z" />
<glyph unicode="&lt;" glyph-name="less" horiz-adv-x="381" d="M47 305L51 330L372 490L367 458L79 316L321 174L317 146L47 305Z" />
<glyph unicode="=" glyph-name="equal" horiz-adv-x="413" d="M70 401H390L386 375H66L70 401ZM45 246H365L361 220H41L45 246Z" />
<glyph unicode="&gt;" glyph-name="greater" horiz-adv-x="381" d="M33 176L321 318L79 460L83 489L353 330L349 305L28 145L33 176Z" />
<glyph unicode="?" glyph-name="question" horiz-adv-x="319" d="M97 231Q101 255 107 274T126 311T157 349T207 396Q235 420 254 440T286 479T303 519T309 567Q309 616 280 645T192 675Q156 675 130 668T77 647L81 674Q106 685 132 693T196 702Q266 702 303 666T341
568Q341 538 335 514T314 469T278 425T225 375Q199 351 182 334T153 300T137 267T128 229L117 161H87L97 231ZM69 54H104L95 0H60L69 54Z" />
<glyph unicode="@" glyph-name="at" horiz-adv-x="743" d="M340 -142Q189 -142 110 -59T30 182Q30 277 60 365T144 521T274 629T442 670Q512 670 564 649T650 588T702 494T720 370Q720 289 703 227T656 123T591 60T516 38Q474 38 459 58T443 105H441Q419 79 387
59T315 38Q264 38 237 73T210 168Q210 215 222 259T255 341Q284 400 330 438T434 476Q467 476 495 468T537 452L473 138Q466 106 473 85T517 63Q549 63 580 82T637 140T677 236T693 370Q693 432 678 483T632 570T554 626T441 646Q357 646 287 609T166 507T87 360T59
183Q59 37 130 -40T341 -118Q403 -118 459 -103T551 -70L547 -94Q532 -102 509 -110T458 -126T400 -137T340 -142ZM320 64Q359 64 390 85T442 132L503 434Q492 440 475 445T433 451Q385 451 346 416T280 327Q263 292 253 252T242 169Q242 120 262 92T320 64Z" />
<glyph unicode="A" glyph-name="A" horiz-adv-x="473" d="M297 693H332L420 0H389L360 235H115L6 0H-25L297 693ZM308 649Q296 624 285 602Q276 583 268 565T256 537L128 262H356L322 536Q321 544 319 562T315 600Q312 623 309 649H308Z" />
<glyph unicode="B" glyph-name="B" horiz-adv-x="461" d="M133 693H272Q355 693 396 652T437 539Q437 521 433 498T420 457Q402 413 370 391T303 361V359Q324 356 344 347T381 321T408 281T418 225Q418 182 406 142Q387 74 334 37T198 0H25L133 693ZM199 27Q265
27 309 56T373 145Q386 182 386 226Q386 285 347 315T235 346H110L61 27H199ZM234 373Q345 373 386 457Q395 475 399 496T404 538Q404 666 268 666H160L114 373H234Z" />
<glyph unicode="C" glyph-name="C" horiz-adv-x="462" d="M249 -8Q199 -8 161 8T96 55T57 127T43 221Q43 254 46 292T57 370T74 449T99 522Q137 616 199 658T341 701Q395 701 425 689T476 663L472 635Q451 651 420 663T340 675Q272 675 217 636T127 510Q115 479
106 443T90 368T80 292T76 221Q76 128 120 74T252 19Q300 19 334 31T392 57L388 28Q368 17 333 5T249 -8Z" />
<glyph unicode="D" glyph-name="D" horiz-adv-x="507" d="M133 693H264Q373 693 433 635T493 453Q493 426 490 387T482 317Q458 159 383 80T168 0H25L133 693ZM169 27Q295 27 361 100T450 320Q456 357 458 393T461 453Q461 565 409 615T258 666H161L61 27H169Z" />
<glyph unicode="E" glyph-name="E" horiz-adv-x="415" d="M133 693H445L440 666H161L114 372H337L332 345H110L60 27H346L341 0H25L133 693Z" />
<glyph unicode="F" glyph-name="F" horiz-adv-x="399" d="M134 693H440L435 666H161L114 365H330L326 338H109L56 0H25L134 693Z" />
<glyph unicode="G" glyph-name="G" horiz-adv-x="496" d="M43 225Q43 261 46 301T58 383T77 464T106 539Q146 623 207 662T348 701Q402 701 435 689T487 662L483 634Q464 648 430 661T348 675Q278 675 224 640T135 529Q120 496 109 458T91 380T80 300T76 225Q76
181 86 143T119 77T175 34T258 18Q294 18 324 24T381 40L421 296H288L292 324H457L410 24Q376 10 340 1T256 -8Q201 -8 161 9T95 58T56 132T43 225Z" />
<glyph unicode="H" glyph-name="H" horiz-adv-x="515" d="M134 693H164L115 374H438L488 693H519L411 0H380L434 347H111L56 0H25L134 693Z" />
<glyph unicode="I" glyph-name="I" horiz-adv-x="164" d="M135 693H167L58 0H27L135 693Z" />
<glyph unicode="J" glyph-name="J" horiz-adv-x="293" d="M73 -5Q44 -5 22 0T-14 14L-10 40Q7 32 26 28T72 23Q168 23 186 145L271 693H303L217 142Q195 -5 73 -5Z" />
<glyph unicode="K" glyph-name="K" horiz-adv-x="436" d="M146 356L440 693H476L181 356L378 0H344L146 356ZM134 693H165L56 0H25L134 693Z" />
<glyph unicode="L" glyph-name="L" horiz-adv-x="380" d="M133 693H164L61 27H327L322 0H25L133 693Z" />
<glyph unicode="M" glyph-name="M" horiz-adv-x="632" d="M133 693H183L261 181Q271 114 276 74Q279 52 281 36H283Q290 52 300 74Q308 93 321 121T351 187L586 693H637L528 0H498L576 506Q585 565 592 604T602 660H601Q596 647 586 627Q578 610 565 582T532 512L293
0H259L180 513Q175 547 171 573T164 620Q160 642 158 660H157Q155 642 151 619Q148 599 143 571T133 506L54 0H25L133 693Z" />
<glyph unicode="N" glyph-name="N" horiz-adv-x="515" d="M133 693H174L340 200Q351 165 360 136L377 87Q385 62 390 42H391Q393 61 396 85Q398 105 402 133T411 193L490 693H519L411 0H376L207 501Q197 530 188 557T172 606Q164 632 157 655H156Q152 627 148
600Q144 577 140 551T133 501L55 0H25L133 693Z" />
<glyph unicode="O" glyph-name="O" horiz-adv-x="543" d="M238 -9Q142 -9 93 55T43 228Q43 283 55 360Q65 418 86 479T141 589T222 669T333 701Q427 701 478 638T529 467Q529 415 517 331Q506 273 485 213T430 103T349 23T238 -9ZM239 18Q292 18 333 46T404 119T453
220T483 334Q496 411 496 468Q496 513 486 551T456 616T406 659T334 675Q280 675 239 647T167 572T118 470T88 357Q82 318 79 287T76 227Q76 180 85 142T115 76T166 33T239 18Z" />
<glyph unicode="P" glyph-name="P" horiz-adv-x="421" d="M132 693H263Q353 693 393 651T434 530Q434 491 426 456Q407 377 355 340T218 303H103L55 0H24L132 693ZM220 330Q292 330 334 360T393 458Q397 474 399 491T401 528Q401 595 368 630T259 666H159L107 330H220Z" />
<glyph unicode="Q" glyph-name="Q" horiz-adv-x="543" d="M186 -3Q117 17 81 75T44 228Q44 257 47 292T57 370Q70 449 95 510T156 614T237 679T334 701Q428 701 479 638T530 467Q530 441 527 405T516 323Q490 176 424 90Q361 8 268 -4L484 -62L473 -90L186 -3ZM240
18Q329 19 393 96T483 322Q491 371 494 405T497 468Q497 513 487 551T457 616T407 659T335 675Q245 675 181 598T90 371Q83 326 80 292T77 228Q77 181 86 142T116 76T167 33T240 18Z" />
<glyph unicode="R" glyph-name="R" horiz-adv-x="441" d="M134 693H269Q352 693 391 650T430 536Q430 487 415 442Q396 388 358 360T269 324V322L389 0H357L238 319H106L56 0H25L134 693ZM224 345Q282 345 323 370T382 445Q398 488 398 535Q398 595 367 630T266
666H160L110 345H224Z" />
<glyph unicode="S" glyph-name="S" horiz-adv-x="404" d="M159 -9Q127 -9 102 -4T57 10T23 28T-1 44L4 74Q28 55 65 37T160 19Q229 19 266 54T314 145Q316 159 317 172T319 197Q319 247 293 279T225 338L188 362Q135 395 110 431T84 523Q84 540 87 560T99 602Q117
649 159 675T261 701Q289 701 310 697T347 687T374 674T394 661L390 633Q370 647 340 661T260 675Q209 675 176 654T128 595Q120 576 118 558T115 523Q115 478 136 448T204 389L240 366Q264 350 284 334T318 298T341 254T350 198Q350 187 349 172T345 141Q339 109
325 82T287 34T233 3T159 -9Z" />
<glyph unicode="T" glyph-name="T" horiz-adv-x="420" d="M257 666H79L83 693H469L465 666H288L184 0H152L257 666Z" />
<glyph unicode="U" glyph-name="U" horiz-adv-x="506" d="M227 -9Q140 -9 95 34T50 156Q50 170 51 185T55 215L129 693H160L86 215Q84 200 83 186T81 157Q81 87 119 53T227 18Q307 18 350 66T408 212L484 693H514L439 210Q422 107 372 49T227 -9Z" />
<glyph unicode="V" glyph-name="V" horiz-adv-x="466" d="M89 693H120L187 148Q188 137 189 120T193 86Q195 67 197 45H199Q208 66 217 85L231 119Q238 136 242 147L486 693H517L207 0H174L89 693Z" />
<glyph unicode="W" glyph-name="W" horiz-adv-x="688" d="M89 693H120L145 193Q147 158 148 131T150 83Q151 60 151 42H152Q158 59 167 82Q182 121 209 193L399 693H433L467 194Q469 159 470 131T474 83Q475 59 476 42H477Q483 60 491 82Q498 101 507 127T527
185L709 693H740L489 0H451L416 495Q414 526 413 553T410 601Q409 625 409 645H407Q400 626 392 602Q385 582 375 555T354 497L164 0H126L89 693Z" />
<glyph unicode="X" glyph-name="X" horiz-adv-x="449" d="M225 361L104 693H135L222 454L246 388H247L290 453L455 693H487L258 358L388 0H356L262 261L237 331L191 263L13 0H-20L225 361Z" />
<glyph unicode="Y" glyph-name="Y" horiz-adv-x="415" d="M200 293L81 693H113L190 434Q193 420 198 402T208 367Q213 348 220 327H221Q233 346 244 364Q254 380 264 398T282 430L443 693H475L232 295L186 0H154L200 293Z" />
<glyph unicode="Z" glyph-name="Z" horiz-adv-x="421" d="M-5 25L414 664V666H110L114 693H455L451 669L31 29V27H359L355 0H-9L-5 25Z" />
<glyph unicode="[" glyph-name="bracketleft" horiz-adv-x="246" d="M141 734H290L286 708H167L41 -95H160L156 -120H8L141 734Z" />
<glyph unicode="\" glyph-name="backslash" horiz-adv-x="252" d="M92 734H119L192 -120H165L92 734Z" />
<glyph unicode="]" glyph-name="bracketright" horiz-adv-x="246" d="M-25 -95H93L220 708H101L105 734H253L120 -120H-28L-25 -95Z" />
<glyph unicode="^" glyph-name="asciicircum" horiz-adv-x="356" d="M233 693H261L345 458H318L244 664L104 458H75L233 693Z" />
<glyph unicode="_" glyph-name="underscore" horiz-adv-x="267" d="M-48 -63H216L212 -87H-52L-48 -63Z" />
<glyph unicode="`" glyph-name="grave" horiz-adv-x="394" d="M151 712H182L230 585H204L151 712Z" />
<glyph unicode="a" glyph-name="a" horiz-adv-x="392" d="M142 -7Q84 -7 52 32T19 146Q19 187 27 235T51 329Q83 418 141 464T269 510Q304 510 330 504T376 489L299 0H275L280 56H279Q270 46 256 35T224 15T186 -1T142 -7ZM147 19Q169 19 189 25T227 41T259 62T283
85L343 472Q330 477 313 481T268 486Q205 486 157 443T80 320Q66 280 58 235T50 145Q50 82 75 51T147 19Z" />
<glyph unicode="b" glyph-name="b" horiz-adv-x="407" d="M155 -7Q117 -7 81 0T19 20L131 734H160L117 457H118Q145 478 180 494T260 510Q316 510 351 475T386 358Q386 331 384 304T376 249Q366 189 349 142T305 61T241 11T155 -7ZM159 19Q239 19 282 78T345 249Q350
275 352 303T355 358Q355 425 328 454T252 484Q206 484 172 467T113 430L52 38Q70 29 99 24T159 19Z" />
<glyph unicode="c" glyph-name="c" horiz-adv-x="347" d="M174 -7Q102 -7 63 38T23 169Q23 194 26 224T36 285T53 348T78 405Q109 459 152 484T250 510Q285 510 309 502T350 483L346 457Q328 469 305 477T248 485Q203 485 167 463T104 394Q92 371 83 342T67 283T57
224T54 169Q54 95 86 57T177 18Q218 18 246 30T294 54L290 28Q272 15 243 4T174 -7Z" />
<glyph unicode="d" glyph-name="d" horiz-adv-x="403" d="M155 -7Q92 -7 56 31T20 149Q20 168 22 195T31 260Q41 317 60 363T108 442T171 492T249 510Q287 510 312 500T354 478L394 734H423L309 0H284L289 53H288Q267 31 233 12T155 -7ZM159 19Q204 19 237 38T292
79L350 452Q333 465 308 474T249 484Q176 484 128 423T61 260Q54 222 53 196T52 150Q52 81 79 50T159 19Z" />
<glyph unicode="e" glyph-name="e" horiz-adv-x="376" d="M180 -7Q103 -7 63 36T22 167Q22 199 26 238T41 316Q90 510 234 510Q270 510 297 497T339 455T359 381T352 271L349 255H59Q58 247 57 240Q52 202 52 168Q52 19 182 19Q224 19 258 31T313 58L309 31Q290
17 256 5T180 -7ZM323 281Q326 301 328 321T330 359Q330 486 233 486Q171 486 133 443T72 317Q67 299 63 281H323Z" />
<glyph unicode="f" glyph-name="f" horiz-adv-x="238" d="M117 478H51L55 503H121L134 587Q147 668 182 702T274 737Q297 737 313 733T338 723L334 699Q325 704 310 708T273 712Q231 712 204 684T164 584L152 503H257L253 478H148L44 -191H13L117 478Z" />
<glyph unicode="g" glyph-name="g" horiz-adv-x="404" d="M115 -194Q70 -194 36 -184T-17 -162L-13 -138Q8 -149 40 -159T115 -169Q187 -169 225 -138T276 -27L291 65H289Q271 45 236 26T154 6Q93 6 58 44T23 160Q23 180 25 207T33 265Q42 312 61 356T108 435T176
489T264 510Q338 510 386 485L306 -29Q299 -75 283 -106T243 -157T187 -185T115 -194ZM159 31Q202 31 237 50T295 94L353 468Q338 475 316 480T264 485Q221 485 188 467T131 419T90 348T64 262Q59 236 57 210T54 160Q54 94 81 63T159 31Z" />
<glyph unicode="h" glyph-name="h" horiz-adv-x="411" d="M130 734H160L116 450H117Q149 473 191 491T281 510Q335 510 357 485T380 417Q380 408 379 400T377 383L317 0H287L347 383Q348 390 348 398T349 415Q349 448 333 466T273 485Q228 485 187 467T112 425L46
0H15L130 734Z" />
<glyph unicode="i" glyph-name="i" horiz-adv-x="140" d="M96 503H125L47 0H17L96 503ZM120 662H151L144 617H113L120 662Z" />
<glyph unicode="j" glyph-name="j" horiz-adv-x="142" d="M-73 -194Q-90 -194 -103 -191T-124 -182L-121 -160Q-111 -163 -101 -165T-77 -168Q-40 -168 -22 -148T5 -79L96 503H127L35 -80Q27 -137 1 -165T-73 -194ZM121 662H152L144 617H113L121 662Z" />
<glyph unicode="k" glyph-name="k" horiz-adv-x="345" d="M131 734H161L46 0H15L131 734ZM113 268L326 502L362 503L147 267L294 0H260L113 268Z" />
<glyph unicode="l" glyph-name="l" horiz-adv-x="142" d="M132 734H162L47 0H17L132 734Z" />
<glyph unicode="m" glyph-name="m" horiz-adv-x="644" d="M94 503H123L115 450H116Q148 473 186 491T268 510Q310 510 331 493T358 445H359Q396 472 436 491T520 510Q571 510 592 485T613 416Q613 401 610 383L551 0H520L579 383Q582 398 582 414Q582 447 567
466T514 485Q472 485 434 467T361 424Q361 405 358 383L298 0H268L327 383Q330 398 330 415Q330 447 315 466T262 485Q219 485 182 467T112 425L46 0H15L94 503Z" />
<glyph unicode="n" glyph-name="n" horiz-adv-x="411" d="M94 503H123L115 450H116Q149 473 191 491T281 510Q335 510 357 485T380 416Q380 405 377 383L317 0H287L347 383Q348 391 348 398T349 413Q349 445 332 465T273 485Q228 485 187 467T112 425L46 0H15L94 503Z" />
<glyph unicode="o" glyph-name="o" horiz-adv-x="408" d="M168 -7Q97 -7 59 37T21 170Q21 209 30 271Q50 390 105 450T239 510Q310 510 348 466T386 337Q386 318 384 293T377 233Q357 115 302 54T168 -7ZM169 17Q236 17 282 73T346 233Q352 271 353 294T355 336Q355
413 325 449T238 486Q172 486 126 431T61 270Q56 235 54 212T52 171Q52 93 82 55T169 17Z" />
<glyph unicode="p" glyph-name="p" horiz-adv-x="406" d="M95 503H124L115 447H116Q142 470 178 490T259 510Q317 510 351 473T386 359Q386 329 383 300T375 242Q356 126 305 60T162 -7Q123 -7 96 4T51 27L16 -191H-14L95 503ZM161 18Q239 18 282 76T344 243Q349
271 352 300T355 358Q354 422 328 453T252 485Q229 485 209 479T171 464T138 443T111 422L55 53Q70 41 98 30T161 18Z" />
<glyph unicode="q" glyph-name="q" horiz-adv-x="404" d="M287 51H286Q266 31 233 12T155 -7Q92 -7 56 30T20 145Q20 169 22 194T30 253Q50 375 108 442T256 510Q302 510 333 502T385 483L279 -191H249L287 51ZM158 19Q203 19 236 38T292 79L352 466Q336 474 311
479T255 485Q213 485 181 468T126 419T86 346T61 253Q55 217 54 191T52 146Q52 19 158 19Z" />
<glyph unicode="r" glyph-name="r" horiz-adv-x="249" d="M94 503H123L113 439H115Q140 465 172 487T246 510Q265 510 271 506L267 478Q262 480 255 480T243 481Q203 481 172 463T110 415L46 0H15L94 503Z" />
<glyph unicode="s" glyph-name="s" horiz-adv-x="315" d="M114 -7Q66 -7 37 5T-10 29L-6 55Q13 43 41 31T115 18Q169 18 196 44T232 105Q235 120 235 136Q235 177 218 198T167 239L125 263Q93 281 71 308T49 378Q49 404 57 428Q70 466 103 488T191 510Q232 510
257 501T297 480L292 454Q274 467 250 476T189 485Q148 485 122 468T85 420Q78 402 78 380Q78 349 94 327T140 289L182 265Q224 241 244 214T265 138Q265 117 261 98Q250 55 215 24T114 -7Z" />
<glyph unicode="t" glyph-name="t" horiz-adv-x="256" d="M137 -6Q85 -6 66 26T55 111L113 478H50L54 503H117L136 622H167L148 503H265L261 478H144L86 113Q79 70 91 45T143 20Q158 20 173 23T200 31L196 8Q186 3 171 -1T137 -6Z" />
<glyph unicode="u" glyph-name="u" horiz-adv-x="407" d="M132 -7Q79 -7 55 18T31 88Q31 103 34 118L93 503H124L64 119Q63 111 63 104T62 89Q62 56 79 37T137 18Q182 18 221 36T295 78L361 503H392L313 0H288L292 53H291Q258 30 219 12T132 -7Z" />
<glyph unicode="v" glyph-name="v" horiz-adv-x="367" d="M56 503H87L133 145Q134 136 136 119T140 84Q143 64 145 42H147Q157 64 166 83Q174 100 181 116T193 144L360 503H390L156 0H123L56 503Z" />
<glyph unicode="w" glyph-name="w" horiz-adv-x="571" d="M59 503H89L116 148Q118 130 118 111T120 75Q121 56 121 38H123Q130 57 137 75Q143 91 150 109T164 145L313 503H342L370 145Q372 123 372 104T374 70Q375 52 376 38H377Q382 52 389 70Q395 85 402 104T419
145L564 503H593L387 0H354L325 362Q323 382 322 399T321 429Q320 443 321 455H319Q314 443 309 429Q304 417 298 400T283 363L133 0H99L59 503Z" />
<glyph unicode="x" glyph-name="x" horiz-adv-x="353" d="M165 261L63 503H94L161 345Q163 338 167 328L175 308Q179 297 185 285H186L202 307Q209 316 216 326T228 344L342 503H373L197 257L303 0H273L198 179Q196 183 193 192T185 210Q181 221 176 232Q168 222
161 212Q155 204 149 195L139 180L10 0H-20L165 261Z" />
<glyph unicode="y" glyph-name="y" horiz-adv-x="368" d="M-7 -196Q-19 -196 -30 -193T-50 -185L-47 -162Q-29 -170 -7 -170Q26 -170 46 -151T89 -84L132 10L48 503H78L139 138Q140 130 142 116L146 88Q149 71 152 53H154Q162 72 170 89Q176 103 182 116T191 136L361
503H391L116 -89Q91 -143 65 -169T-7 -196Z" />
<glyph unicode="z" glyph-name="z" horiz-adv-x="345" d="M-10 23L317 476V477H69L73 503H359L355 480L26 28V26H283L279 0H-14L-10 23Z" />
<glyph unicode="{" glyph-name="braceleft" horiz-adv-x="264" d="M178 -124Q115 -121 90 -91T65 -18Q65 -13 65 -7T67 9T70 35T76 76Q78 92 81 114T88 157T94 193T97 212Q102 255 84 274T25 295L29 323Q50 324 67 328T96 342T118 372T132 422L159 601Q164 635
173 661T199 704T243 730T314 741L310 715Q278 713 257 707T223 687T202 652T189 601L162 421Q153 362 129 339T66 309V307Q98 300 115 279T128 213Q128 210 126 194T120 157T113 114T107 74Q100 29 98 11T96 -17Q96 -54 116 -74T182 -98L178 -124Z" />
<glyph unicode="|" glyph-name="bar" horiz-adv-x="213" d="M103 734H132V-120H103V734Z" />
<glyph unicode="}" glyph-name="braceright" horiz-adv-x="264" d="M-29 -98Q3 -97 24 -90T58 -70T79 -35T91 17L119 196Q127 256 152 279T215 309V310Q183 317 166 339T153 405Q153 408 155 423T161 460T168 503T174 543Q181 588 183 606T186 634Q186 672 166
692T98 715L102 741Q166 738 191 709T216 635Q216 630 216 625T214 609T211 583T205 542Q203 525 199 503T192 460T186 424T183 405Q179 363 197 344T256 322L252 294Q231 293 215 289T185 275T163 245T149 195L122 16Q117 -18 108 -43T82 -86T38 -113T-33 -124L-29
-98Z" />
<glyph unicode="~" glyph-name="asciitilde" horiz-adv-x="363" d="M44 255Q51 294 73 313T126 333Q146 333 161 325T191 308T219 290T249 282Q293 282 305 333H330Q322 291 299 274T247 256Q228 256 212 264T182 281T154 298T124 306Q104 306 89 294T69 255H44Z" />
<glyph unicode="&#xa0;" glyph-name="uni00A0" horiz-adv-x="155" />
<glyph unicode="&#xa1;" glyph-name="exclamdown" horiz-adv-x="184" d="M103 412H130L50 -120H17L103 412ZM124 573H159L151 519H116L124 573Z" />
<glyph unicode="&#xa2;" glyph-name="cent" horiz-adv-x="348" d="M281 586H307L285 507Q298 505 309 502Q334 494 350 483L346 457Q328 469 304 477Q293 481 279 483L153 19Q165 18 177 18Q218 18 246 30T294 54L290 28Q272 15 243 4T174 -7Q160 -7 147 -5L118
-112H92L122 0Q86 11 62 38Q23 84 23 169Q23 192 26 219T35 274T49 330T69 382Q99 450 145 480T250 510H260L281 586ZM159 457Q122 430 97 371Q86 348 78 322T65 268T57 216T54 170Q54 95 86 56Q104 35 129 25L253 485H248Q197 485 159 457Z" />
<glyph unicode="&#xa3;" glyph-name="sterling" horiz-adv-x="395" d="M51 356H123L147 507Q156 562 173 599T215 659T269 691T332 701Q368 701 390 694T425 679L421 653Q406 661 385 667T332 674Q270 674 232 636T179 506L155 356H321L317 330H151L131 198Q125
159 116 132T94 85T68 52T36 28V26H338L334 0H-7L-4 24Q17 36 33 50T62 84T84 131T99 198L119 330H47L51 356Z" />
<glyph unicode="&#xa5;" glyph-name="yen" horiz-adv-x="416" d="M174 162H35L38 187H178L194 293H55L59 318H191L74 693H106L178 466Q182 450 188 428T201 386Q208 362 216 336H217Q232 360 246 383Q258 403 271 425T294 464L436 693H468L236 318H367L364 293H226L209
187H347L343 162H205L180 0H149L174 162Z" />
<glyph unicode="&#xa6;" glyph-name="brokenbar" horiz-adv-x="210" d="M103 279H129V-120H103V279ZM103 734H129V348H103V734Z" />
<glyph unicode="&#xa7;" glyph-name="section" horiz-adv-x="398" d="M292 33Q292 -2 281 -31T249 -83T197 -117T126 -130Q81 -130 52 -117T5 -92L9 -64Q28 -78 56 -90T126 -103Q155 -103 178 -95T218 -72Q240 -54 251 -28T262 31Q262 67 245 93T186 141L132 168Q92
188 66 219T40 299Q40 357 74 392T168 439Q140 462 129 489T117 550Q117 583 128 610T159 658T208 689T276 701Q318 701 342 692T383 671L379 645Q362 656 337 665T276 675Q241 675 215 664T172 632Q147 599 147 550Q147 512 166 486T217 443L271 414Q292 403 310
391T341 363T363 327T371 282Q371 224 337 190T241 141Q269 119 280 93T292 33ZM257 389Q248 395 237 400T215 411T197 419T188 424Q132 413 101 383T69 300Q69 262 91 237T147 194Q151 191 162 186T186 174T208 163T221 156Q278 169 309 197T341 280Q341 321 317
345T257 389Z" />
<glyph unicode="&#xa8;" glyph-name="dieresis" horiz-adv-x="391" d="M271 660H303L296 617H264L271 660ZM157 660H189L182 617H150L157 660Z" />
<glyph unicode="&#xa9;" glyph-name="copyright" horiz-adv-x="667" d="M347 -9Q282 -9 229 15T137 84T77 196T55 345Q55 429 76 494T136 606T228 676T347 700Q412 700 466 676T559 606T619 495T641 345Q641 262 620 196T559 85T466 15T347 -9ZM347 12Q407 12
457 34T542 99T596 204T616 345Q616 424 597 486T542 591T458 656T347 679Q287 679 238 657T153 591T98 486T79 345Q79 266 98 204T153 100T237 35T347 12ZM359 154Q209 154 209 344V355Q209 453 249 497T359 542Q387 542 407 537T440 524V498Q426 506 406 511T360
517Q297 517 269 476T240 357V343Q240 262 269 221T361 180Q390 180 410 187T444 203V178Q430 170 410 162T359 154Z" />
<glyph unicode="&#xaa;" glyph-name="ordfeminine" horiz-adv-x="359" d="M162 232Q110 232 80 268T50 374Q50 411 57 454T79 537Q108 618 160 659T272 700Q307 700 332 695T376 681L306 239H281L286 289H285Q268 271 236 252T162 232ZM166 258Q205 258 238 277T289
315L344 664Q332 669 315 672T271 676Q217 676 175 639T107 530Q95 495 88 455T80 374Q80 314 102 286T166 258Z" />
<glyph unicode="&#xab;" glyph-name="guillemotleft" horiz-adv-x="329" d="M160 244L163 259L287 442H317L190 249L258 63H228L160 244ZM42 244L44 259L169 442H199L71 249L139 63H109L42 244Z" />
<glyph unicode="&#xae;" glyph-name="registered" horiz-adv-x="360" d="M220 333Q187 333 159 345T110 381T77 439T65 517Q65 562 77 596T110 654T159 690T220 702Q253 702 281 690T331 655T364 597T376 517Q376 473 364 439T331 382T282 346T220 333ZM220 350Q280
350 318 393T356 517Q356 598 318 641T220 685Q160 685 122 642T84 517Q84 437 122 394T220 350ZM168 612H221Q250 612 265 599T280 557Q280 536 271 524T248 508V507L287 426H265L227 503H189V426H168V612ZM224 521Q242 521 250 530T258 557Q258 577 250 585T221
593H189V521H224Z" />
<glyph unicode="&#xaf;" glyph-name="macron" horiz-adv-x="408" d="M149 651H326L322 625H145L149 651Z" />
<glyph unicode="&#xb0;" glyph-name="degree" horiz-adv-x="272" d="M178 478Q130 478 103 507T75 580Q75 607 84 629T109 667T146 693T192 702Q240 702 267 673T295 599Q295 573 286 551T262 513T225 487T178 478ZM180 501Q219 501 243 528T268 599Q268 633 248
656T191 679Q153 679 127 653T101 580Q101 548 121 525T180 501Z" />
<glyph unicode="&#xb4;" glyph-name="acute" horiz-adv-x="394" d="M287 712H321L233 585H204L287 712Z" />
<glyph unicode="&#xb6;" glyph-name="paragraph" horiz-adv-x="445" d="M255 358H232Q199 358 170 366T120 393T85 439T72 508Q72 544 83 577T117 636T178 677T268 693H447L319 -120H293L417 670H329L205 -120H180L255 358Z" />
<glyph unicode="&#xb7;" glyph-name="periodcentered" horiz-adv-x="142" d="M66 341H101L93 287H57L66 341Z" />
<glyph unicode="&#xb8;" glyph-name="cedilla" horiz-adv-x="408" d="M134 -182Q189 -179 213 -164T237 -120Q237 -76 166 -76L178 0H201L192 -56Q221 -58 243 -72T265 -119Q265 -157 233 -179T131 -204L134 -182Z" />
<glyph unicode="&#xba;" glyph-name="ordmasculine" horiz-adv-x="368" d="M186 233Q123 233 88 272T52 387Q52 437 61 485Q78 590 127 645T248 701Q312 701 347 661T383 543Q383 519 381 494T373 442Q356 341 307 287T186 233ZM187 258Q244 258 285 304T342 439Q347
466 350 493T353 543Q353 612 325 644T248 676Q189 676 148 628T91 484Q86 455 85 430T83 388Q83 322 111 290T187 258Z" />
<glyph unicode="&#xbb;" glyph-name="guillemotright" horiz-adv-x="329" d="M258 256L190 442H219L287 261L284 246L160 63H130L258 256ZM139 256L71 442H101L169 261L166 246L41 63H11L139 256Z" />
<glyph unicode="&#xbc;" glyph-name="onequarter" horiz-adv-x="605" d="M173 662L94 643L97 664L192 697H208L146 296H115L173 662ZM527 713H554L58 -40H31L527 713ZM454 111H295L298 133L502 397H529L488 137H540L536 111H483L466 0H436L454 111ZM458 137L490
339H489L333 138V137H458Z" />
<glyph unicode="&#xbd;" glyph-name="onehalf" horiz-adv-x="640" d="M522 713H549L53 -40H26L522 713ZM173 662L94 643L97 664L192 697H208L146 296H115L173 662ZM360 20L475 142Q497 164 514 183T544 221T564 261T571 307Q571 339 554 358T500 377Q478 377 459
371T422 356L425 381Q440 389 460 396T506 403Q555 403 579 377T604 308Q604 282 597 260T575 216T542 174T498 130L400 27V25H567L563 0H357L360 20Z" />
<glyph unicode="&#xbe;" glyph-name="threequarters" horiz-adv-x="655" d="M504 111H345L348 133L552 397H579L538 137H590L586 111H533L516 0H486L504 111ZM508 137L540 339H539L383 138V137H508ZM128 290Q99 290 77 298T42 314L46 339Q61 330 81 323T127 316Q175
316 201 345T227 425Q227 460 206 476T149 493H124L129 518H156Q192 518 217 541T243 610Q243 674 176 674Q154 674 138 670T107 659L110 683Q124 691 141 695T183 699Q228 699 251 677T275 612Q275 569 253 542T199 508V506Q224 500 241 480T259 427Q259 364 224
327T128 290ZM576 711H603L107 -42H80L576 711Z" />
<glyph unicode="&#xbf;" glyph-name="questiondown" horiz-adv-x="323" d="M141 -129Q70 -129 33 -93T-5 5Q-5 35 1 59T22 104T58 148T111 198Q137 222 154 239T183 273T199 306T208 344L219 412H249L239 342Q235 318 229 299T210 262T179 224T129 177Q101 153
82 133T50 94T33 54T27 6Q27 -43 56 -72T144 -102Q180 -102 206 -95T259 -74L256 -101Q231 -112 205 -120T141 -129ZM242 573H277L268 519H233L242 573Z" />
<glyph unicode="&#xc0;" glyph-name="Agrave" horiz-adv-x="473" d="M297 693H332L420 0H389L360 235H115L6 0H-25L297 693ZM308 649Q296 624 285 602Q276 583 268 565T256 537L128 262H356L322 536Q321 544 319 562T315 600Q312 623 309 649H308ZM261 842H292L330
732H304L261 842Z" />
<glyph unicode="&#xc1;" glyph-name="Aacute" horiz-adv-x="473" d="M297 693H332L420 0H389L360 235H115L6 0H-25L297 693ZM308 649Q296 624 285 602Q276 583 268 565T256 537L128 262H356L322 536Q321 544 319 562T315 600Q312 623 309 649H308ZM373 842H407L333
732H305L373 842Z" />
<glyph unicode="&#xc2;" glyph-name="Acircumflex" horiz-adv-x="473" d="M297 693H332L420 0H389L360 235H115L6 0H-25L297 693ZM308 649Q296 624 285 602Q276 583 268 565T256 537L128 262H356L322 536Q321 544 319 562T315 600Q312 623 309 649H308ZM316 825H343L404
729H377L328 801L255 729H226L316 825Z" />
<glyph unicode="&#xc3;" glyph-name="Atilde" horiz-adv-x="473" d="M297 693H332L420 0H389L360 235H115L6 0H-25L297 693ZM308 649Q296 624 285 602Q276 583 268 565T256 537L128 262H356L322 536Q321 544 319 562T315 600Q312 623 309 649H308ZM217 741Q221
772 238 788T280 805Q295 805 307 799T329 786T350 773T372 767Q403 767 411 806H434Q429 774 412 758T372 742Q357 742 345 748T322 761T301 774T279 780Q248 780 239 741H217Z" />
<glyph unicode="&#xc4;" glyph-name="Adieresis" horiz-adv-x="473" d="M297 693H332L420 0H389L360 235H115L6 0H-25L297 693ZM308 649Q296 624 285 602Q276 583 268 565T256 537L128 262H356L322 536Q321 544 319 562T315 600Q312 623 309 649H308ZM367 782H400L393
739H360L367 782ZM253 782H286L279 739H246L253 782Z" />
<glyph unicode="&#xc5;" glyph-name="Aring" horiz-adv-x="473" d="M297 693H332L420 0H389L360 235H115L6 0H-25L297 693ZM308 649Q296 624 285 602Q276 583 268 565T256 537L128 262H356L322 536Q321 544 319 562T315 600Q312 623 309 649H308ZM320 718Q288
718 269 737T250 788Q250 820 271 842T325 864Q357 864 375 845T394 796Q394 762 373 740T320 718ZM320 739Q343 739 356 754T370 796Q370 815 358 829T324 843Q301 843 288 827T274 788Q274 768 285 754T320 739Z" />
<glyph unicode="&#xc6;" glyph-name="AE" horiz-adv-x="712" d="M413 693H742L738 667H461L415 372H633L629 345H411L361 26H642L638 0H326L360 216H139L0 0H-34L413 693ZM364 242L430 665H428L155 242H364Z" />
<glyph unicode="&#xc7;" glyph-name="Ccedilla" horiz-adv-x="462" d="M269 -119Q269 -157 237 -179T135 -204L139 -181Q193 -178 217 -163T241 -120Q241 -76 170 -76L182 1Q113 21 78 78T43 221Q43 254 46 292T57 370T74 449T99 522Q137 616 199 658T341 701Q395
701 425 689T476 663L472 635Q451 651 420 663T340 675Q272 675 217 636T127 510Q115 479 106 443T90 368T80 292T76 221Q76 128 120 74T252 19Q300 19 334 31T392 57L388 28Q368 17 333 5T249 -8Q224 -8 205 -4L197 -56Q226 -58 247 -72T269 -119Z" />
<glyph unicode="&#xc8;" glyph-name="Egrave" horiz-adv-x="415" d="M245 842H276L314 732H288L245 842ZM133 693H445L440 666H161L114 372H337L332 345H110L60 27H346L341 0H25L133 693Z" />
<glyph unicode="&#xc9;" glyph-name="Eacute" horiz-adv-x="415" d="M343 842H377L303 732H275L343 842ZM133 693H445L440 666H161L114 372H337L332 345H110L60 27H346L341 0H25L133 693Z" />
<glyph unicode="&#xca;" glyph-name="Ecircumflex" horiz-adv-x="415" d="M297 825H324L385 729H358L309 801L236 729H207L297 825ZM133 693H445L440 666H161L114 372H337L332 345H110L60 27H346L341 0H25L133 693Z" />
<glyph unicode="&#xcb;" glyph-name="Edieresis" horiz-adv-x="415" d="M133 693H445L440 666H161L114 372H337L332 345H110L60 27H346L341 0H25L133 693ZM344 782H377L370 739H337L344 782ZM230 782H263L256 739H223L230 782Z" />
<glyph unicode="&#xcc;" glyph-name="Igrave" horiz-adv-x="164" d="M135 693H167L58 0H27L135 693ZM357 842H388L426 732H400L357 842Z" />
<glyph unicode="&#xcd;" glyph-name="Iacute" horiz-adv-x="164" d="M135 693H167L58 0H27L135 693ZM469 842H503L429 732H401L469 842Z" />
<glyph unicode="&#xce;" glyph-name="Icircumflex" horiz-adv-x="164" d="M135 693H167L58 0H27L135 693ZM412 825H439L500 729H473L424 801L351 729H322L412 825Z" />
<glyph unicode="&#xcf;" glyph-name="Idieresis" horiz-adv-x="164" d="M135 693H167L58 0H27L135 693ZM464 782H497L490 739H457L464 782ZM350 782H383L376 739H343L350 782Z" />
<glyph unicode="&#xd0;" glyph-name="Eth" horiz-adv-x="502" d="M24 365H77L128 693H259Q368 693 428 635T488 453Q488 440 488 423T486 388T482 352T477 319Q454 159 379 80T163 0H19L72 338H19L24 365ZM164 27Q289 27 355 100T445 320Q450 357 452 393T455
453Q455 565 403 615T253 666H155L108 365H272L268 338H103L55 27H164Z" />
<glyph unicode="&#xd1;" glyph-name="Ntilde" horiz-adv-x="515" d="M232 741Q236 772 253 788T295 805Q310 805 322 799T344 786T365 773T387 767Q418 767 426 806H449Q444 774 427 758T387 742Q372 742 360 748T337 761T316 774T294 780Q263 780 254 741H232ZM133
693H174L340 200Q351 165 360 136L377 87Q385 62 390 42H391Q393 61 396 85Q398 105 402 133T411 193L490 693H519L411 0H376L207 501Q197 530 188 557T172 606Q164 632 157 655H156Q152 627 148 600Q144 577 140 551T133 501L55 0H25L133 693Z" />
<glyph unicode="&#xd2;" glyph-name="Ograve" horiz-adv-x="543" d="M285 842H316L354 732H328L285 842ZM238 -9Q142 -9 93 55T43 228Q43 283 55 360Q65 418 86 479T141 589T222 669T333 701Q427 701 478 638T529 467Q529 415 517 331Q506 273 485 213T430 103T349
23T238 -9ZM239 18Q292 18 333 46T404 119T453 220T483 334Q496 411 496 468Q496 513 486 551T456 616T406 659T334 675Q280 675 239 647T167 572T118 470T88 357Q82 318 79 287T76 227Q76 180 85 142T115 76T166 33T239 18Z" />
<glyph unicode="&#xd3;" glyph-name="Oacute" horiz-adv-x="543" d="M390 842H424L350 732H322L390 842ZM238 -9Q142 -9 93 55T43 228Q43 283 55 360Q65 418 86 479T141 589T222 669T333 701Q427 701 478 638T529 467Q529 415 517 331Q506 273 485 213T430 103T349
23T238 -9ZM239 18Q292 18 333 46T404 119T453 220T483 334Q496 411 496 468Q496 513 486 551T456 616T406 659T334 675Q280 675 239 647T167 572T118 470T88 357Q82 318 79 287T76 227Q76 180 85 142T115 76T166 33T239 18Z" />
<glyph unicode="&#xd4;" glyph-name="Ocircumflex" horiz-adv-x="543" d="M341 825H368L429 729H402L353 801L280 729H251L341 825ZM238 -9Q142 -9 93 55T43 228Q43 283 55 360Q65 418 86 479T141 589T222 669T333 701Q427 701 478 638T529 467Q529 415 517 331Q506
273 485 213T430 103T349 23T238 -9ZM239 18Q292 18 333 46T404 119T453 220T483 334Q496 411 496 468Q496 513 486 551T456 616T406 659T334 675Q280 675 239 647T167 572T118 470T88 357Q82 318 79 287T76 227Q76 180 85 142T115 76T166 33T239 18Z" />
<glyph unicode="&#xd5;" glyph-name="Otilde" horiz-adv-x="543" d="M240 741Q244 772 261 788T303 805Q318 805 330 799T352 786T373 773T395 767Q426 767 434 806H457Q452 774 435 758T395 742Q380 742 368 748T345 761T324 774T302 780Q271 780 262 741H240ZM238
-9Q142 -9 93 55T43 228Q43 283 55 360Q65 418 86 479T141 589T222 669T333 701Q427 701 478 638T529 467Q529 415 517 331Q506 273 485 213T430 103T349 23T238 -9ZM239 18Q292 18 333 46T404 119T453 220T483 334Q496 411 496 468Q496 513 486 551T456 616T406
659T334 675Q280 675 239 647T167 572T118 470T88 357Q82 318 79 287T76 227Q76 180 85 142T115 76T166 33T239 18Z" />
<glyph unicode="&#xd6;" glyph-name="Odieresis" horiz-adv-x="543" d="M388 782H421L414 739H381L388 782ZM274 782H307L300 739H267L274 782ZM238 -9Q142 -9 93 55T43 228Q43 283 55 360Q65 418 86 479T141 589T222 669T333 701Q427 701 478 638T529 467Q529
415 517 331Q506 273 485 213T430 103T349 23T238 -9ZM239 18Q292 18 333 46T404 119T453 220T483 334Q496 411 496 468Q496 513 486 551T456 616T406 659T334 675Q280 675 239 647T167 572T118 470T88 357Q82 318 79 287T76 227Q76 180 85 142T115 76T166 33T239
18Z" />
<glyph unicode="&#xd7;" glyph-name="multiply" horiz-adv-x="390" d="M43 212L189 345L86 477L108 495L210 364L354 495L371 476L226 343L329 211L308 193L205 325L60 192L43 212Z" />
<glyph unicode="&#xd8;" glyph-name="Oslash" horiz-adv-x="543" d="M238 -9Q143 -9 93 55L84 67L34 0H1L70 92Q44 148 44 228Q44 257 47 292T57 370Q70 449 95 510T156 614T237 679T334 701Q428 701 479 638Q480 636 482 635L526 693H559L497 612Q530 554 530
467Q530 439 527 404T516 323Q490 164 417 78T238 -9ZM239 18Q329 19 394 96T483 322Q491 371 494 404T497 468Q497 513 487 551Q482 568 475 583L104 93Q110 84 116 75Q136 48 166 33T239 18ZM457 616Q437 644 407 659T335 675Q244 675 180 598T90 371Q83 326
80 292T77 228Q77 181 86 142Q89 131 92 121L462 609Q459 613 457 616Z" />
<glyph unicode="&#xd9;" glyph-name="Ugrave" horiz-adv-x="506" d="M273 842H304L342 732H316L273 842ZM227 -9Q140 -9 95 34T50 156Q50 170 51 185T55 215L129 693H160L86 215Q84 200 83 186T81 157Q81 87 119 53T227 18Q307 18 350 66T408 212L484 693H514L439
210Q422 107 372 49T227 -9Z" />
<glyph unicode="&#xda;" glyph-name="Uacute" horiz-adv-x="506" d="M371 842H405L331 732H303L371 842ZM227 -9Q140 -9 95 34T50 156Q50 170 51 185T55 215L129 693H160L86 215Q84 200 83 186T81 157Q81 87 119 53T227 18Q307 18 350 66T408 212L484 693H514L439
210Q422 107 372 49T227 -9Z" />
<glyph unicode="&#xdb;" glyph-name="Ucircumflex" horiz-adv-x="506" d="M326 825H353L414 729H387L338 801L265 729H236L326 825ZM227 -9Q140 -9 95 34T50 156Q50 170 51 185T55 215L129 693H160L86 215Q84 200 83 186T81 157Q81 87 119 53T227 18Q307 18 350
66T408 212L484 693H514L439 210Q422 107 372 49T227 -9Z" />
<glyph unicode="&#xdc;" glyph-name="Udieresis" horiz-adv-x="506" d="M227 -9Q140 -9 95 34T50 156Q50 170 51 185T55 215L129 693H160L86 215Q84 200 83 186T81 157Q81 87 119 53T227 18Q307 18 350 66T408 212L484 693H514L439 210Q422 107 372 49T227 -9ZM376
782H409L402 739H369L376 782ZM262 782H295L288 739H255L262 782Z" />
<glyph unicode="&#xdd;" glyph-name="Yacute" horiz-adv-x="415" d="M200 293L81 693H113L190 434Q193 420 198 402T208 367Q213 348 220 327H221Q233 346 244 364Q254 380 264 398T282 430L443 693H475L232 295L186 0H154L200 293ZM326 842H360L286 732H258L326 842Z" />
<glyph unicode="&#xde;" glyph-name="Thorn" horiz-adv-x="423" d="M133 693H165L143 552H242Q332 552 372 510T413 392Q413 374 411 355T406 320Q388 241 337 205T199 169H83L57 0H25L133 693ZM200 196Q272 196 313 225T372 321Q377 336 378 353T380 391Q380
455 347 490T238 525H139L88 196H200Z" />
<glyph unicode="&#xdf;" glyph-name="germandbls" horiz-adv-x="425" d="M104 555Q118 646 163 691T280 737Q337 737 371 708T406 628Q406 603 399 582T379 542T351 507T320 474Q290 445 268 418T245 357Q245 331 259 314T294 278L322 254Q348 231 366 204T385
132Q385 116 382 100T372 70Q357 36 325 14T244 -8Q205 -8 181 1T143 20L148 46Q165 35 187 27T244 18Q282 18 306 34T343 77Q354 104 354 131Q354 166 339 189T301 232L274 255Q250 276 233 298T216 355Q216 392 239 421T292 480Q307 496 321 512T348 546T367
584T374 627Q374 665 350 688T278 711Q215 711 181 670T135 553L18 -191H-13L104 555Z" />
<glyph unicode="&#xe0;" glyph-name="agrave" horiz-adv-x="392" d="M142 -7Q84 -7 52 32T19 146Q19 187 27 235T51 329Q83 418 141 464T269 510Q304 510 330 504T376 489L299 0H275L280 56H279Q270 46 256 35T224 15T186 -1T142 -7ZM147 19Q169 19 189 25T227
41T259 62T283 85L343 472Q330 477 313 481T268 486Q205 486 157 443T80 320Q66 280 58 235T50 145Q50 82 75 51T147 19ZM204 712H235L283 585H257L204 712Z" />
<glyph unicode="&#xe1;" glyph-name="aacute" horiz-adv-x="392" d="M142 -7Q84 -7 52 32T19 146Q19 187 27 235T51 329Q83 418 141 464T269 510Q304 510 330 504T376 489L299 0H275L280 56H279Q270 46 256 35T224 15T186 -1T142 -7ZM147 19Q169 19 189 25T227
41T259 62T283 85L343 472Q330 477 313 481T268 486Q205 486 157 443T80 320Q66 280 58 235T50 145Q50 82 75 51T147 19ZM325 712H359L271 585H242L325 712Z" />
<glyph unicode="&#xe2;" glyph-name="acircumflex" horiz-adv-x="392" d="M142 -7Q84 -7 52 32T19 146Q19 187 27 235T51 329Q83 418 141 464T269 510Q304 510 330 504T376 489L299 0H275L280 56H279Q270 46 256 35T224 15T186 -1T142 -7ZM147 19Q169 19 189 25T227
41T259 62T283 85L343 472Q330 477 313 481T268 486Q205 486 157 443T80 320Q66 280 58 235T50 145Q50 82 75 51T147 19ZM267 699H293L355 585H330L278 674L198 585H170L267 699Z" />
<glyph unicode="&#xe3;" glyph-name="atilde" horiz-adv-x="392" d="M142 -7Q84 -7 52 32T19 146Q19 187 27 235T51 329Q83 418 141 464T269 510Q304 510 330 504T376 489L299 0H275L280 56H279Q270 46 256 35T224 15T186 -1T142 -7ZM147 19Q169 19 189 25T227
41T259 62T283 85L343 472Q330 477 313 481T268 486Q205 486 157 443T80 320Q66 280 58 235T50 145Q50 82 75 51T147 19ZM161 603Q166 634 182 651T224 669Q239 669 250 663T273 649T294 635T316 629Q347 629 355 669H378Q373 637 356 620T316 603Q301 603 289
609T266 622T245 636T223 643Q192 643 183 603H161Z" />
<glyph unicode="&#xe4;" glyph-name="adieresis" horiz-adv-x="392" d="M142 -7Q84 -7 52 32T19 146Q19 187 27 235T51 329Q83 418 141 464T269 510Q304 510 330 504T376 489L299 0H275L280 56H279Q270 46 256 35T224 15T186 -1T142 -7ZM147 19Q169 19 189 25T227
41T259 62T283 85L343 472Q330 477 313 481T268 486Q205 486 157 443T80 320Q66 280 58 235T50 145Q50 82 75 51T147 19ZM314 660H346L339 617H307L314 660ZM200 660H232L225 617H193L200 660Z" />
<glyph unicode="&#xe5;" glyph-name="aring" horiz-adv-x="392" d="M142 -7Q84 -7 52 32T19 146Q19 187 27 235T51 329Q83 418 141 464T269 510Q304 510 330 504T376 489L299 0H275L280 56H279Q270 46 256 35T224 15T186 -1T142 -7ZM147 19Q169 19 189 25T227
41T259 62T283 85L343 472Q330 477 313 481T268 486Q205 486 157 443T80 320Q66 280 58 235T50 145Q50 82 75 51T147 19ZM270 577Q238 577 219 596T200 647Q200 679 221 701T275 723Q307 723 325 704T344 655Q344 622 323 600T270 577ZM270 598Q293 598 307 614T321
655Q321 675 309 688T275 702Q252 702 238 687T224 647Q224 627 235 613T270 598Z" />
<glyph unicode="&#xe6;" glyph-name="ae" horiz-adv-x="617" d="M422 -7Q346 -7 305 36Q291 50 282 70Q271 58 258 46Q243 32 224 20T182 1T131 -7Q67 -7 38 28T10 116Q10 160 26 192Q58 257 162 270L276 283L289 366Q292 388 292 400Q292 442 270 463T200 484Q168
484 142 479T91 463L95 487Q142 510 208 510Q272 510 300 475Q320 450 320 408Q327 421 335 433Q359 467 393 488T476 510Q553 510 583 453T595 281Q594 276 593 270T591 259H301Q299 249 298 238Q294 200 294 168Q294 19 424 19Q466 19 500 31T555 58L551 31Q532
17 498 5T422 -7ZM54 185Q40 158 40 116Q40 69 63 43T135 17Q181 17 218 41Q250 62 274 88Q264 121 264 166Q264 203 271 258L166 246Q81 236 54 185ZM565 284Q575 344 570 391T538 463Q513 486 475 486Q413 486 374 440T312 311Q308 298 305 284H565Z" />
<glyph unicode="&#xe7;" glyph-name="ccedilla" horiz-adv-x="347" d="M208 -119Q208 -157 176 -179T74 -204L78 -181Q132 -178 156 -163T180 -120Q180 -76 109 -76L121 1Q73 15 48 58T23 169Q23 194 26 224T36 285T53 348T78 405Q109 459 152 484T250 510Q285
510 309 502T350 483L346 457Q328 469 305 477T248 485Q203 485 167 463T104 394Q92 371 83 342T67 283T57 224T54 169Q54 95 86 57T177 18Q218 18 246 30T294 54L290 28Q272 15 243 4T174 -7Q165 -7 158 -7T143 -5L135 -56Q164 -58 186 -72T208 -119Z" />
<glyph unicode="&#xe8;" glyph-name="egrave" horiz-adv-x="376" d="M180 -7Q103 -7 63 36T22 167Q22 199 26 238T41 316Q90 510 234 510Q270 510 297 497T339 455T359 381T352 271L349 255H59Q58 247 57 240Q52 202 52 168Q52 19 182 19Q224 19 258 31T313 58L309
31Q290 17 256 5T180 -7ZM323 281Q326 301 328 321T330 359Q330 486 233 486Q171 486 133 443T72 317Q67 299 63 281H323ZM182 712H213L261 585H235L182 712Z" />
<glyph unicode="&#xe9;" glyph-name="eacute" horiz-adv-x="376" d="M299 712H333L245 585H216L299 712ZM180 -7Q103 -7 63 36T22 167Q22 199 26 238T41 316Q90 510 234 510Q270 510 297 497T339 455T359 381T352 271L349 255H59Q58 247 57 240Q52 202 52 168Q52
19 182 19Q224 19 258 31T313 58L309 31Q290 17 256 5T180 -7ZM323 281Q326 301 328 321T330 359Q330 486 233 486Q171 486 133 443T72 317Q67 299 63 281H323Z" />
<glyph unicode="&#xea;" glyph-name="ecircumflex" horiz-adv-x="376" d="M244 699H270L332 585H307L255 674L175 585H147L244 699ZM180 -7Q103 -7 63 36T22 167Q22 199 26 238T41 316Q90 510 234 510Q270 510 297 497T339 455T359 381T352 271L349 255H59Q58
247 57 240Q52 202 52 168Q52 19 182 19Q224 19 258 31T313 58L309 31Q290 17 256 5T180 -7ZM323 281Q326 301 328 321T330 359Q330 486 233 486Q171 486 133 443T72 317Q67 299 63 281H323Z" />
<glyph unicode="&#xeb;" glyph-name="edieresis" horiz-adv-x="376" d="M294 660H326L319 617H287L294 660ZM180 660H212L205 617H173L180 660ZM180 -7Q103 -7 63 36T22 167Q22 199 26 238T41 316Q90 510 234 510Q270 510 297 497T339 455T359 381T352 271L349
255H59Q58 247 57 240Q52 202 52 168Q52 19 182 19Q224 19 258 31T313 58L309 31Q290 17 256 5T180 -7ZM323 281Q326 301 328 321T330 359Q330 486 233 486Q171 486 133 443T72 317Q67 299 63 281H323Z" />
<glyph unicode="&#xec;" glyph-name="igrave" horiz-adv-x="140" d="M96 503H125L47 0H17L96 503ZM313 712H344L392 585H366L313 712Z" />
<glyph unicode="&#xed;" glyph-name="iacute" horiz-adv-x="140" d="M448 712H482L394 585H365L448 712ZM96 503H125L47 0H17L96 503Z" />
<glyph unicode="&#xee;" glyph-name="icircumflex" horiz-adv-x="140" d="M96 503H125L47 0H17L96 503ZM126 699H151L206 585H182L136 674L63 585H35L126 699Z" />
<glyph unicode="&#xef;" glyph-name="idieresis" horiz-adv-x="140" d="M176 660H208L201 617H169L176 660ZM63 660H95L88 617H56L63 660ZM96 503H125L47 0H17L96 503Z" />
<glyph unicode="&#xf0;" glyph-name="eth" horiz-adv-x="415" d="M369 702L378 682L303 646Q325 616 343 583Q367 539 380 488T394 376Q394 336 389 292T375 206Q351 97 299 45T173 -8Q100 -8 61 37T22 170Q22 190 23 214T30 265Q39 317 57 362T101 440T163 491T244
510Q282 510 307 500T349 477H351Q350 480 350 483Q338 532 315 575Q298 605 277 634L168 582L159 602L263 651L259 656Q226 695 184 734H219Q256 702 288 664V663L369 702ZM309 474Q280 486 243 486Q204 486 174 469T121 421T84 350T61 263Q56 233 55 210T53 170Q53
16 174 16Q238 16 281 65T344 212Q352 247 357 289T362 376Q362 413 357 446Q335 464 309 474Z" />
<glyph unicode="&#xf1;" glyph-name="ntilde" horiz-adv-x="411" d="M94 503H123L115 450H116Q149 473 191 491T281 510Q335 510 357 485T380 416Q380 405 377 383L317 0H287L347 383Q348 391 348 398T349 413Q349 445 332 465T273 485Q228 485 187 467T112 425L46
0H15L94 503ZM148 603Q153 634 169 651T211 669Q226 669 237 663T260 649T281 635T303 629Q334 629 342 669H365Q360 637 343 620T303 603Q288 603 276 609T253 622T232 636T210 643Q179 643 170 603H148Z" />
<glyph unicode="&#xf2;" glyph-name="ograve" horiz-adv-x="408" d="M168 -7Q97 -7 59 37T21 170Q21 209 30 271Q50 390 105 450T239 510Q310 510 348 466T386 337Q386 318 384 293T377 233Q357 115 302 54T168 -7ZM169 17Q236 17 282 73T346 233Q352 271 353
294T355 336Q355 413 325 449T238 486Q172 486 126 431T61 270Q56 235 54 212T52 171Q52 93 82 55T169 17ZM194 712H225L273 585H247L194 712Z" />
<glyph unicode="&#xf3;" glyph-name="oacute" horiz-adv-x="408" d="M314 712H348L260 585H231L314 712ZM168 -7Q97 -7 59 37T21 170Q21 209 30 271Q50 390 105 450T239 510Q310 510 348 466T386 337Q386 318 384 293T377 233Q357 115 302 54T168 -7ZM169 17Q236
17 282 73T346 233Q352 271 353 294T355 336Q355 413 325 449T238 486Q172 486 126 431T61 270Q56 235 54 212T52 171Q52 93 82 55T169 17Z" />
<glyph unicode="&#xf4;" glyph-name="ocircumflex" horiz-adv-x="408" d="M260 699H286L348 585H323L271 674L191 585H163L260 699ZM168 -7Q97 -7 59 37T21 170Q21 209 30 271Q50 390 105 450T239 510Q310 510 348 466T386 337Q386 318 384 293T377 233Q357 115
302 54T168 -7ZM169 17Q236 17 282 73T346 233Q352 271 353 294T355 336Q355 413 325 449T238 486Q172 486 126 431T61 270Q56 235 54 212T52 171Q52 93 82 55T169 17Z" />
<glyph unicode="&#xf5;" glyph-name="otilde" horiz-adv-x="408" d="M168 -7Q97 -7 59 37T21 170Q21 209 30 271Q50 390 105 450T239 510Q310 510 348 466T386 337Q386 318 384 293T377 233Q357 115 302 54T168 -7ZM169 17Q236 17 282 73T346 233Q352 271 353
294T355 336Q355 413 325 449T238 486Q172 486 126 431T61 270Q56 235 54 212T52 171Q52 93 82 55T169 17ZM151 603Q156 634 172 651T214 669Q229 669 240 663T263 649T284 635T306 629Q337 629 345 669H368Q363 637 346 620T306 603Q291 603 279 609T256 622T235
636T213 643Q182 643 173 603H151Z" />
<glyph unicode="&#xf6;" glyph-name="odieresis" horiz-adv-x="408" d="M306 660H338L331 617H299L306 660ZM192 660H224L217 617H185L192 660ZM168 -7Q97 -7 59 37T21 170Q21 209 30 271Q50 390 105 450T239 510Q310 510 348 466T386 337Q386 318 384 293T377
233Q357 115 302 54T168 -7ZM169 17Q236 17 282 73T346 233Q352 271 353 294T355 336Q355 413 325 449T238 486Q172 486 126 431T61 270Q56 235 54 212T52 171Q52 93 82 55T169 17Z" />
<glyph unicode="&#xf7;" glyph-name="divide" horiz-adv-x="395" d="M59 366H371L366 339H54L59 366ZM179 253H213L205 199H170L179 253ZM219 502H253L245 448H210L219 502Z" />
<glyph unicode="&#xf8;" glyph-name="oslash" horiz-adv-x="408" d="M176 -7Q105 -7 67 37Q63 41 60 46L23 0H-8L47 69Q29 109 29 170Q29 190 31 216T39 275Q59 393 114 451T247 510Q318 510 356 465Q358 463 359 460L393 502H425L373 438Q394 397 394 337Q394
317 392 291T384 229Q364 112 309 53T176 -7ZM177 17Q243 17 290 73T354 233Q359 271 361 294T363 336Q363 380 352 411L80 71Q84 62 90 55Q121 17 177 17ZM332 449Q302 486 246 486Q180 486 134 431T69 270Q64 235 62 212T60 171Q60 128 69 96L341 437Q337 444
332 449Z" />
<glyph unicode="&#xf9;" glyph-name="ugrave" horiz-adv-x="407" d="M132 -7Q79 -7 55 18T31 88Q31 103 34 118L93 503H124L64 119Q63 111 63 104T62 89Q62 56 79 37T137 18Q182 18 221 36T295 78L361 503H392L313 0H288L292 53H291Q258 30 219 12T132 -7ZM192
712H223L271 585H245L192 712Z" />
<glyph unicode="&#xfa;" glyph-name="uacute" horiz-adv-x="407" d="M310 712H344L256 585H227L310 712ZM132 -7Q79 -7 55 18T31 88Q31 103 34 118L93 503H124L64 119Q63 111 63 104T62 89Q62 56 79 37T137 18Q182 18 221 36T295 78L361 503H392L313 0H288L292
53H291Q258 30 219 12T132 -7Z" />
<glyph unicode="&#xfb;" glyph-name="ucircumflex" horiz-adv-x="407" d="M255 699H281L343 585H318L266 674L186 585H158L255 699ZM132 -7Q79 -7 55 18T31 88Q31 103 34 118L93 503H124L64 119Q63 111 63 104T62 89Q62 56 79 37T137 18Q182 18 221 36T295 78L361
503H392L313 0H288L292 53H291Q258 30 219 12T132 -7Z" />
<glyph unicode="&#xfc;" glyph-name="udieresis" horiz-adv-x="407" d="M305 660H337L330 617H298L305 660ZM191 660H223L216 617H184L191 660ZM132 -7Q79 -7 55 18T31 88Q31 103 34 118L93 503H124L64 119Q63 111 63 104T62 89Q62 56 79 37T137 18Q182 18 221
36T295 78L361 503H392L313 0H288L292 53H291Q258 30 219 12T132 -7Z" />
<glyph unicode="&#xfd;" glyph-name="yacute" horiz-adv-x="368" d="M-7 -196Q-19 -196 -30 -193T-50 -185L-47 -162Q-29 -170 -7 -170Q26 -170 46 -151T89 -84L132 10L48 503H78L139 138Q140 130 142 116L146 88Q149 71 152 53H154Q162 72 170 89Q176 103 182
116T191 136L361 503H391L116 -89Q91 -143 65 -169T-7 -196ZM287 712H321L233 585H204L287 712Z" />
<glyph unicode="&#xfe;" glyph-name="thorn" horiz-adv-x="408" d="M132 734H161L116 447H117Q143 470 178 490T259 510Q318 510 352 473T386 359Q386 328 383 298T375 242Q356 126 305 60T162 -7Q123 -7 96 3T51 27L16 -191H-14L132 734ZM161 18Q239 18 282 76T344
243Q349 272 352 302T355 358Q355 422 328 453T252 485Q229 485 209 479T171 464T139 443T112 422L55 53Q70 41 98 30T161 18Z" />
<glyph unicode="&#xff;" glyph-name="ydieresis" horiz-adv-x="368" d="M-7 -196Q-19 -196 -30 -193T-50 -185L-47 -162Q-29 -170 -7 -170Q26 -170 46 -151T89 -84L132 10L48 503H78L139 138Q140 130 142 116L146 88Q149 71 152 53H154Q162 72 170 89Q176 103
182 116T191 136L361 503H391L116 -89Q91 -143 65 -169T-7 -196ZM281 660H313L306 617H274L281 660ZM167 660H199L192 617H160L167 660Z" />
<glyph unicode="&#x100;" glyph-name="Amacron" horiz-adv-x="473" d="M297 693H332L420 0H389L360 235H115L6 0H-25L297 693ZM308 649Q296 624 285 602Q276 583 268 565T256 537L128 262H356L322 536Q321 544 319 562T315 600Q312 623 309 649H308ZM235 771H413L410
745H231L235 771Z" />
<glyph unicode="&#x101;" glyph-name="amacron" horiz-adv-x="392" d="M142 -7Q84 -7 52 32T19 146Q19 187 27 235T51 329Q83 418 141 464T269 510Q304 510 330 504T376 489L299 0H275L280 56H279Q270 46 256 35T224 15T186 -1T142 -7ZM147 19Q169 19 189 25T227
41T259 62T283 85L343 472Q330 477 313 481T268 486Q205 486 157 443T80 320Q66 280 58 235T50 145Q50 82 75 51T147 19ZM184 651H361L357 625H180L184 651Z" />
<glyph unicode="&#x102;" glyph-name="Abreve" horiz-adv-x="473" d="M297 693H332L420 0H389L360 235H115L6 0H-25L297 693ZM308 649Q296 624 285 602Q276 583 268 565T256 537L128 262H356L322 536Q321 544 319 562T315 600Q312 623 309 649H308ZM321 729Q279
729 256 752T234 817H259Q259 785 275 770T322 754Q379 754 401 817H425Q415 775 388 752T321 729Z" />
<glyph unicode="&#x103;" glyph-name="abreve" horiz-adv-x="392" d="M142 -7Q84 -7 52 32T19 146Q19 187 27 235T51 329Q83 418 141 464T269 510Q304 510 330 504T376 489L299 0H275L280 56H279Q270 46 256 35T224 15T186 -1T142 -7ZM147 19Q169 19 189 25T227
41T259 62T283 85L343 472Q330 477 313 481T268 486Q205 486 157 443T80 320Q66 280 58 235T50 145Q50 82 75 51T147 19ZM268 583Q224 583 201 609T181 679H205Q203 645 219 626T269 607Q300 607 321 625T350 679H373Q366 634 338 609T268 583Z" />
<glyph unicode="&#x104;" glyph-name="Aogonek" horiz-adv-x="473" d="M368 -196Q333 -196 315 -178T297 -131Q297 -111 305 -93T327 -58T357 -27T389 0L360 235H115L6 0H-25L297 693H332L420 0Q384 -29 356 -62T327 -131Q327 -149 338 -161T371 -173Q382 -173
390 -171T406 -167L402 -188Q398 -190 389 -193T368 -196ZM308 649Q297 626 287 606Q279 589 271 571T260 544L128 262H356L321 543Q320 551 318 568T314 604Q311 625 309 649H308Z" />
<glyph unicode="&#x105;" glyph-name="aogonek" horiz-adv-x="392" d="M248 -196Q214 -196 196 -178T178 -131Q178 -112 187 -93T210 -56T241 -23T275 4L280 56H279Q270 46 256 35T224 15T186 -1T142 -7Q84 -7 52 32T19 146Q19 187 27 235T51 329Q83 418 141 464T269
510Q304 510 330 504T376 489L299 0Q282 -15 266 -30T236 -62T216 -96T208 -131Q208 -149 219 -161T251 -173Q262 -173 271 -171T286 -167L283 -188Q278 -190 269 -193T248 -196ZM147 19Q169 19 189 25T227 41T259 62T283 85L343 472Q330 477 313 481T268 486Q205
486 157 443T80 320Q66 280 58 235T50 145Q50 82 75 51T147 19Z" />
<glyph unicode="&#x106;" glyph-name="Cacute" horiz-adv-x="462" d="M249 -8Q199 -8 161 8T96 55T57 127T43 221Q43 254 46 292T57 370T74 449T99 522Q137 616 199 658T341 701Q395 701 425 689T476 663L472 635Q451 651 420 663T340 675Q272 675 217 636T127
510Q115 479 106 443T90 368T80 292T76 221Q76 128 120 74T252 19Q300 19 334 31T392 57L388 28Q368 17 333 5T249 -8ZM384 842H418L344 732H316L384 842Z" />
<glyph unicode="&#x107;" glyph-name="cacute" horiz-adv-x="347" d="M314 712H348L260 585H231L314 712ZM174 -7Q102 -7 63 38T23 169Q23 194 26 224T36 285T53 348T78 405Q109 459 152 484T250 510Q285 510 309 502T350 483L346 457Q328 469 305 477T248 485Q203
485 167 463T104 394Q92 371 83 342T67 283T57 224T54 169Q54 95 86 57T177 18Q218 18 246 30T294 54L290 28Q272 15 243 4T174 -7Z" />
<glyph unicode="&#x108;" glyph-name="Ccircumflex" horiz-adv-x="462" d="M334 825H361L422 729H395L346 801L273 729H244L334 825ZM249 -8Q199 -8 161 8T96 55T57 127T43 221Q43 254 46 292T57 370T74 449T99 522Q137 616 199 658T341 701Q395 701 425 689T476
663L472 635Q451 651 420 663T340 675Q272 675 217 636T127 510Q115 479 106 443T90 368T80 292T76 221Q76 128 120 74T252 19Q300 19 334 31T392 57L388 28Q368 17 333 5T249 -8Z" />
<glyph unicode="&#x109;" glyph-name="ccircumflex" horiz-adv-x="347" d="M250 699H276L338 585H313L261 674L181 585H153L250 699ZM174 -7Q102 -7 63 38T23 169Q23 194 26 224T36 285T53 348T78 405Q109 459 152 484T250 510Q285 510 309 502T350 483L346 457Q328
469 305 477T248 485Q203 485 167 463T104 394Q92 371 83 342T67 283T57 224T54 169Q54 95 86 57T177 18Q218 18 246 30T294 54L290 28Q272 15 243 4T174 -7Z" />
<glyph unicode="&#x10a;" glyph-name="Cdotaccent" horiz-adv-x="462" d="M249 -8Q199 -8 161 8T96 55T57 127T43 221Q43 254 46 292T57 370T74 449T99 522Q137 616 199 658T341 701Q395 701 425 689T476 663L472 635Q451 651 420 663T340 675Q272 675 217 636T127
510Q115 479 106 443T90 368T80 292T76 221Q76 128 120 74T252 19Q300 19 334 31T392 57L388 28Q368 17 333 5T249 -8ZM330 784H362L354 741H322L330 784Z" />
<glyph unicode="&#x10b;" glyph-name="cdotaccent" horiz-adv-x="347" d="M174 -7Q102 -7 63 38T23 169Q23 194 26 224T36 285T53 348T78 405Q109 459 152 484T250 510Q285 510 309 502T350 483L346 457Q328 469 305 477T248 485Q203 485 167 463T104 394Q92 371
83 342T67 283T57 224T54 169Q54 95 86 57T177 18Q218 18 246 30T294 54L290 28Q272 15 243 4T174 -7ZM242 660H273L266 616H235L242 660Z" />
<glyph unicode="&#x10c;" glyph-name="Ccaron" horiz-adv-x="462" d="M349 728H322L260 824H288L338 753L410 824H439L349 728ZM249 -8Q199 -8 161 8T96 55T57 127T43 221Q43 254 46 292T57 370T74 449T99 522Q137 616 199 658T341 701Q395 701 425 689T476 663L472
635Q451 651 420 663T340 675Q272 675 217 636T127 510Q115 479 106 443T90 368T80 292T76 221Q76 128 120 74T252 19Q300 19 334 31T392 57L388 28Q368 17 333 5T249 -8Z" />
<glyph unicode="&#x10d;" glyph-name="ccaron" horiz-adv-x="347" d="M175 697H200L252 607L332 697H359L263 583H236L175 697ZM174 -7Q102 -7 63 38T23 169Q23 194 26 224T36 285T53 348T78 405Q109 459 152 484T250 510Q285 510 309 502T350 483L346 457Q328
469 305 477T248 485Q203 485 167 463T104 394Q92 371 83 342T67 283T57 224T54 169Q54 95 86 57T177 18Q218 18 246 30T294 54L290 28Q272 15 243 4T174 -7Z" />
<glyph unicode="&#x10e;" glyph-name="Dcaron" horiz-adv-x="507" d="M315 728H288L226 824H254L304 753L376 824H405L315 728ZM133 693H264Q373 693 433 635T493 453Q493 426 490 387T482 317Q458 159 383 80T168 0H25L133 693ZM169 27Q295 27 361 100T450 320Q456
357 458 393T461 453Q461 565 409 615T258 666H161L61 27H169Z" />
<glyph unicode="&#x10f;" glyph-name="dcaron" horiz-adv-x="403" d="M442 611L470 735H501L465 611H442ZM155 -7Q92 -7 56 31T20 149Q20 168 22 195T31 260Q41 317 60 363T108 442T171 492T249 510Q287 510 312 500T354 478L394 734H423L309 0H284L289 53H288Q267
31 233 12T155 -7ZM159 19Q204 19 237 38T292 79L350 452Q333 465 308 474T249 484Q176 484 128 423T61 260Q54 222 53 196T52 150Q52 81 79 50T159 19Z" />
<glyph unicode="&#x110;" glyph-name="Dcroat" horiz-adv-x="507" d="M26 365H80L131 693H261Q370 693 430 635T491 453Q491 440 490 423T488 388T484 352T480 319Q456 159 381 80T165 0H22L75 338H22L26 365ZM167 27Q292 27 358 100T448 320Q453 357 455 393T458
453Q458 565 406 615T256 666H158L110 365H275L270 338H106L58 27H167Z" />
<glyph unicode="&#x111;" glyph-name="dcroat" horiz-adv-x="403" d="M250 628H463L459 604H246L250 628ZM156 -7Q93 -7 57 31T21 149Q21 168 23 195T32 260Q42 317 61 363T109 442T172 492T250 510Q288 510 313 500T355 478L395 734H424L310 0H285L290 53H289Q268
31 234 12T156 -7ZM160 19Q205 19 238 38T293 79L351 452Q334 465 309 474T250 484Q177 484 129 423T62 260Q55 222 54 196T53 150Q53 81 80 50T160 19Z" />
<glyph unicode="&#x112;" glyph-name="Emacron" horiz-adv-x="415" d="M133 693H445L440 666H161L114 372H337L332 345H110L60 27H346L341 0H25L133 693ZM211 771H389L386 745H207L211 771Z" />
<glyph unicode="&#x113;" glyph-name="emacron" horiz-adv-x="376" d="M180 -7Q103 -7 63 36T22 167Q22 199 26 238T41 316Q90 510 234 510Q270 510 297 497T339 455T359 381T352 271L349 255H59Q58 247 57 240Q52 202 52 168Q52 19 182 19Q224 19 258 31T313
58L309 31Q290 17 256 5T180 -7ZM323 281Q326 301 328 321T330 359Q330 486 233 486Q171 486 133 443T72 317Q67 299 63 281H323ZM163 651H340L336 625H159L163 651Z" />
<glyph unicode="&#x114;" glyph-name="Ebreve" horiz-adv-x="415" d="M133 693H445L440 666H161L114 372H337L332 345H110L60 27H346L341 0H25L133 693ZM299 729Q257 729 234 752T212 817H237Q237 785 253 770T300 754Q357 754 379 817H403Q393 775 366 752T299 729Z" />
<glyph unicode="&#x115;" glyph-name="ebreve" horiz-adv-x="376" d="M180 -7Q103 -7 63 36T22 167Q22 199 26 238T41 316Q90 510 234 510Q270 510 297 497T339 455T359 381T352 271L349 255H59Q58 247 57 240Q52 202 52 168Q52 19 182 19Q224 19 258 31T313 58L309
31Q290 17 256 5T180 -7ZM323 281Q326 301 328 321T330 359Q330 486 233 486Q171 486 133 443T72 317Q67 299 63 281H323ZM245 583Q201 583 178 609T158 679H182Q180 645 196 626T246 607Q277 607 298 625T327 679H350Q343 634 315 609T245 583Z" />
<glyph unicode="&#x116;" glyph-name="Edotaccent" horiz-adv-x="415" d="M286 784H318L310 741H278L286 784ZM133 693H445L440 666H161L114 372H337L332 345H110L60 27H346L341 0H25L133 693Z" />
<glyph unicode="&#x117;" glyph-name="edotaccent" horiz-adv-x="376" d="M180 -7Q103 -7 63 36T22 167Q22 199 26 238T41 316Q90 510 234 510Q270 510 297 497T339 455T359 381T352 271L349 255H59Q58 247 57 240Q52 202 52 168Q52 19 182 19Q224 19 258 31T313
58L309 31Q290 17 256 5T180 -7ZM323 281Q326 301 328 321T330 359Q330 486 233 486Q171 486 133 443T72 317Q67 299 63 281H323ZM236 660H267L260 616H229L236 660Z" />
<glyph unicode="&#x118;" glyph-name="Eogonek" horiz-adv-x="415" d="M133 693H445L440 666H161L114 372H337L332 345H110L60 27H346L341 0H302Q284 -14 268 -29T238 -61T217 -95T209 -131Q209 -149 220 -161T253 -173Q264 -173 272 -171T288 -167L284 -188Q279
-190 270 -193T250 -196Q215 -196 197 -178T179 -131Q179 -111 187 -93T209 -58T238 -27T270 0H25L133 693Z" />
<glyph unicode="&#x119;" glyph-name="eogonek" horiz-adv-x="376" d="M309 31Q298 23 285 17T252 -1Q233 -12 215 -27T184 -59T162 -94T154 -130Q154 -149 165 -161T197 -173Q208 -173 216 -171T232 -167L229 -188Q224 -190 215 -193T194 -196Q160 -196 142 -178T124
-131Q124 -112 132 -94T152 -59T180 -29T211 -5Q204 -6 196 -6T180 -7Q103 -7 63 36T22 167Q22 199 26 238T41 316Q90 510 234 510Q270 510 297 497T339 455T359 381T352 271L349 255H59Q58 247 57 240Q52 202 52 168Q52 19 182 19Q224 19 258 31T313 58L309 31ZM323
281Q326 301 328 321T330 359Q330 486 233 486Q171 486 133 443T72 317Q67 299 63 281H323Z" />
<glyph unicode="&#x11a;" glyph-name="Ecaron" horiz-adv-x="415" d="M308 728H281L219 824H247L297 753L369 824H398L308 728ZM133 693H445L440 666H161L114 372H337L332 345H110L60 27H346L341 0H25L133 693Z" />
<glyph unicode="&#x11b;" glyph-name="ecaron" horiz-adv-x="376" d="M167 697H192L244 607L324 697H351L255 583H228L167 697ZM180 -7Q103 -7 63 36T22 167Q22 199 26 238T41 316Q90 510 234 510Q270 510 297 497T339 455T359 381T352 271L349 255H59Q58 247
57 240Q52 202 52 168Q52 19 182 19Q224 19 258 31T313 58L309 31Q290 17 256 5T180 -7ZM323 281Q326 301 328 321T330 359Q330 486 233 486Q171 486 133 443T72 317Q67 299 63 281H323Z" />
<glyph unicode="&#x11c;" glyph-name="Gcircumflex" horiz-adv-x="496" d="M347 825H374L435 729H408L359 801L286 729H257L347 825ZM43 225Q43 261 46 301T58 383T77 464T106 539Q146 623 207 662T348 701Q402 701 435 689T487 662L483 634Q464 648 430 661T348
675Q278 675 224 640T135 529Q120 496 109 458T91 380T80 300T76 225Q76 181 86 143T119 77T175 34T258 18Q294 18 324 24T381 40L421 296H288L292 324H457L410 24Q376 10 340 1T256 -8Q201 -8 161 9T95 58T56 132T43 225Z" />
<glyph unicode="&#x11d;" glyph-name="gcircumflex" horiz-adv-x="404" d="M265 699H291L353 585H328L276 674L196 585H168L265 699ZM115 -194Q70 -194 36 -184T-17 -162L-13 -138Q8 -149 40 -159T115 -169Q187 -169 225 -138T276 -27L291 65H289Q271 45 236 26T154
6Q93 6 58 44T23 160Q23 180 25 207T33 265Q42 312 61 356T108 435T176 489T264 510Q338 510 386 485L306 -29Q299 -75 283 -106T243 -157T187 -185T115 -194ZM159 31Q202 31 237 50T295 94L353 468Q338 475 316 480T264 485Q221 485 188 467T131 419T90 348T64
262Q59 236 57 210T54 160Q54 94 81 63T159 31Z" />
<glyph unicode="&#x11e;" glyph-name="Gbreve" horiz-adv-x="496" d="M349 729Q307 729 284 752T262 817H287Q287 785 303 770T350 754Q407 754 429 817H453Q443 775 416 752T349 729ZM43 225Q43 261 46 301T58 383T77 464T106 539Q146 623 207 662T348 701Q402
701 435 689T487 662L483 634Q464 648 430 661T348 675Q278 675 224 640T135 529Q120 496 109 458T91 380T80 300T76 225Q76 181 86 143T119 77T175 34T258 18Q294 18 324 24T381 40L421 296H288L292 324H457L410 24Q376 10 340 1T256 -8Q201 -8 161 9T95 58T56
132T43 225Z" />
<glyph unicode="&#x11f;" glyph-name="gbreve" horiz-adv-x="404" d="M115 -194Q70 -194 36 -184T-17 -162L-13 -138Q8 -149 40 -159T115 -169Q187 -169 225 -138T276 -27L291 65H289Q271 45 236 26T154 6Q93 6 58 44T23 160Q23 180 25 207T33 265Q42 312 61 356T108
435T176 489T264 510Q338 510 386 485L306 -29Q299 -75 283 -106T243 -157T187 -185T115 -194ZM159 31Q202 31 237 50T295 94L353 468Q338 475 316 480T264 485Q221 485 188 467T131 419T90 348T64 262Q59 236 57 210T54 160Q54 94 81 63T159 31ZM266 583Q222 583
199 609T179 679H203Q201 645 217 626T267 607Q298 607 319 625T348 679H371Q364 634 336 609T266 583Z" />
<glyph unicode="&#x120;" glyph-name="Gdotaccent" horiz-adv-x="496" d="M341 784H373L365 741H333L341 784ZM43 225Q43 261 46 301T58 383T77 464T106 539Q146 623 207 662T348 701Q402 701 435 689T487 662L483 634Q464 648 430 661T348 675Q278 675 224 640T135
529Q120 496 109 458T91 380T80 300T76 225Q76 181 86 143T119 77T175 34T258 18Q294 18 324 24T381 40L421 296H288L292 324H457L410 24Q376 10 340 1T256 -8Q201 -8 161 9T95 58T56 132T43 225Z" />
<glyph unicode="&#x121;" glyph-name="gdotaccent" horiz-adv-x="404" d="M115 -194Q70 -194 36 -184T-17 -162L-13 -138Q8 -149 40 -159T115 -169Q187 -169 225 -138T276 -27L291 65H289Q271 45 236 26T154 6Q93 6 58 44T23 160Q23 180 25 207T33 265Q42 312
61 356T108 435T176 489T264 510Q338 510 386 485L306 -29Q299 -75 283 -106T243 -157T187 -185T115 -194ZM159 31Q202 31 237 50T295 94L353 468Q338 475 316 480T264 485Q221 485 188 467T131 419T90 348T64 262Q59 236 57 210T54 160Q54 94 81 63T159 31ZM254
660H285L278 616H247L254 660Z" />
<glyph unicode="&#x122;" glyph-name="Gcommaaccent" horiz-adv-x="496" d="M215 -42H247L210 -161H185L215 -42ZM43 225Q43 261 46 301T58 383T77 464T106 539Q146 623 207 662T348 701Q402 701 435 689T487 662L483 634Q464 648 430 661T348 675Q278 675 224
640T135 529Q120 496 109 458T91 380T80 300T76 225Q76 181 86 143T119 77T175 34T258 18Q294 18 324 24T381 40L421 296H288L292 324H457L410 24Q376 10 340 1T256 -8Q201 -8 161 9T95 58T56 132T43 225Z" />
<glyph unicode="&#x123;" glyph-name="gcommaaccent" horiz-adv-x="404" d="M115 -194Q70 -194 36 -184T-17 -162L-13 -138Q8 -149 40 -159T115 -169Q187 -169 225 -138T276 -27L291 65H289Q271 45 236 26T154 6Q93 6 58 44T23 160Q23 180 25 207T33 265Q42 312
61 356T108 435T176 489T264 510Q338 510 386 485L306 -29Q299 -75 283 -106T243 -157T187 -185T115 -194ZM159 31Q202 31 237 50T295 94L353 468Q338 475 316 480T264 485Q221 485 188 467T131 419T90 348T64 262Q59 236 57 210T54 160Q54 94 81 63T159 31ZM269
583H237L273 702H298L269 583Z" />
<glyph unicode="&#x124;" glyph-name="Hcircumflex" horiz-adv-x="515" d="M134 693H164L115 374H438L488 693H519L411 0H380L434 347H111L56 0H25L134 693ZM332 825H359L420 729H393L344 801L271 729H242L332 825Z" />
<glyph unicode="&#x125;" glyph-name="hcircumflex" horiz-adv-x="411" d="M130 734H160L116 450H117Q149 473 191 491T281 510Q335 510 357 485T380 417Q380 408 379 400T377 383L317 0H287L347 383Q348 390 348 398T349 415Q349 448 333 466T273 485Q228 485
187 467T112 425L46 0H15L130 734ZM279 870H306L367 774H340L291 846L218 774H189L279 870Z" />
<glyph unicode="&#x126;" glyph-name="Hbar" horiz-adv-x="516" d="M54 536H110L135 693H166L141 536H465L490 693H521L496 536H552L548 512H493L413 0H381L436 347H112L58 0H26L106 512H50L54 536ZM440 374L461 512H137L116 374H440Z" />
<glyph unicode="&#x127;" glyph-name="hbar" horiz-adv-x="417" d="M264 603H55L58 627H268L264 603ZM129 734H159L115 450H116Q148 473 190 491T280 510Q334 510 356 485T379 417Q379 408 378 400T376 383L316 0H286L346 383Q347 390 347 398T348 415Q348 448
332 466T272 485Q227 485 186 467T111 425L45 0H14L129 734Z" />
<glyph unicode="&#x128;" glyph-name="Itilde" horiz-adv-x="164" d="M135 693H167L58 0H27L135 693ZM311 741Q315 772 332 788T374 805Q389 805 401 799T423 786T444 773T466 767Q497 767 505 806H528Q523 774 506 758T466 742Q451 742 439 748T416 761T395 774T373
780Q342 780 333 741H311Z" />
<glyph unicode="&#x129;" glyph-name="itilde" horiz-adv-x="140" d="M30 604Q35 635 50 651T88 667Q102 667 113 661T133 649T152 636T172 630Q198 630 207 668H229Q224 636 209 620T171 604Q157 604 146 610T126 623T107 636T87 642Q61 642 52 604H30ZM96 503H125L47
0H17L96 503Z" />
<glyph unicode="&#x12a;" glyph-name="Imacron" horiz-adv-x="164" d="M135 693H167L58 0H27L135 693ZM85 771H237L233 745H81L85 771Z" />
<glyph unicode="&#x12b;" glyph-name="imacron" horiz-adv-x="140" d="M68 651H199L194 625H63L68 651ZM96 503H125L47 0H17L96 503Z" />
<glyph unicode="&#x12c;" glyph-name="Ibreve" horiz-adv-x="164" d="M135 693H167L58 0H27L135 693ZM417 729Q375 729 352 752T330 817H355Q355 785 371 770T418 754Q475 754 497 817H521Q511 775 484 752T417 729Z" />
<glyph unicode="&#x12d;" glyph-name="ibreve" horiz-adv-x="140" d="M126 583Q84 583 62 608T43 679H67Q65 645 80 626T127 607Q155 607 175 626T201 679H225Q220 634 192 609T126 583ZM96 503H125L47 0H17L96 503Z" />
<glyph unicode="&#x12e;" glyph-name="Iogonek" horiz-adv-x="164" d="M7 -196Q-26 -196 -44 -179T-62 -131Q-62 -112 -54 -93T-32 -58T-4 -26T27 1L135 693H167L58 0Q41 -15 25 -30T-4 -62T-24 -96T-32 -131Q-32 -150 -21 -161T10 -173Q21 -173 29 -171T44 -167L41
-188Q36 -190 27 -193T7 -196Z" />
<glyph unicode="&#x12f;" glyph-name="iogonek" horiz-adv-x="140" d="M-73 -132Q-73 -112 -65 -94T-44 -58T-15 -26T17 1L96 503H125L47 0Q11 -30 -16 -62T-43 -131Q-43 -149 -32 -161T0 -173Q11 -173 19 -171T34 -167L30 -188Q25 -190 16 -193T-4 -196Q-37 -196
-55 -179T-73 -132ZM120 662H151L144 617H113L120 662Z" />
<glyph unicode="&#x130;" glyph-name="Idotaccent" horiz-adv-x="164" d="M135 693H167L58 0H27L135 693ZM408 784H440L432 741H400L408 784Z" />
<glyph unicode="&#x131;" glyph-name="dotlessi" horiz-adv-x="140" d="M96 503H125L47 0H17L96 503Z" />
<glyph unicode="&#x132;" glyph-name="IJ" horiz-adv-x="448" d="M132 693H163L55 0H23L132 693ZM215 -5Q186 -5 164 0T127 14L131 40Q148 32 168 28T214 23Q309 23 328 145L413 693H444L359 142Q347 67 312 31T215 -5Z" />
<glyph unicode="&#x133;" glyph-name="ij" horiz-adv-x="214" d="M284 503H313L235 0H205L284 503ZM308 662H339L332 617H301L308 662ZM-1 -194Q-18 -194 -31 -191T-52 -182L-49 -160Q-39 -163 -29 -165T-5 -168Q32 -168 50 -148T77 -79L168 503H199L107 -80Q99
-137 73 -165T-1 -194ZM193 662H224L216 617H185L193 662Z" />
<glyph unicode="&#x134;" glyph-name="Jcircumflex" horiz-adv-x="293" d="M290 825H317L378 729H351L302 801L229 729H200L290 825ZM73 -5Q44 -5 22 0T-14 14L-10 40Q7 32 26 28T72 23Q168 23 186 145L271 693H303L217 142Q195 -5 73 -5Z" />
<glyph unicode="&#x135;" glyph-name="jcircumflex" horiz-adv-x="142" d="M128 699H153L208 585H184L138 674L65 585H37L128 699ZM-73 -194Q-90 -194 -103 -191T-124 -182L-120 -160Q-111 -163 -101 -165T-76 -168Q-40 -168 -21 -148T5 -79L97 503H127L36 -81Q27
-138 2 -166T-73 -194Z" />
<glyph unicode="&#x136;" glyph-name="Kcommaaccent" horiz-adv-x="436" d="M175 -42H207L170 -161H145L175 -42ZM146 356L440 693H476L181 356L378 0H344L146 356ZM134 693H165L56 0H25L134 693Z" />
<glyph unicode="&#x137;" glyph-name="kcommaaccent" horiz-adv-x="345" d="M388 -42H420L383 -161H358L388 -42ZM131 734H161L46 0H15L131 734ZM113 268L326 502L362 503L147 267L294 0H260L113 268Z" />
<glyph unicode="&#x139;" glyph-name="Lacute" horiz-adv-x="380" d="M467 842H501L427 732H399L467 842ZM133 693H164L61 27H327L322 0H25L133 693Z" />
<glyph unicode="&#x13a;" glyph-name="lacute" horiz-adv-x="142" d="M467 887H501L427 777H399L467 887ZM132 734H162L47 0H17L132 734Z" />
<glyph unicode="&#x13b;" glyph-name="Lcommaaccent" horiz-adv-x="380" d="M158 -42H190L153 -161H128L158 -42ZM133 693H164L61 27H327L322 0H25L133 693Z" />
<glyph unicode="&#x13c;" glyph-name="lcommaaccent" horiz-adv-x="142" d="M10 -42H42L5 -161H-20L10 -42ZM132 734H162L47 0H17L132 734Z" />
<glyph unicode="&#x13d;" glyph-name="Lcaron" horiz-adv-x="380" d="M133 693H164L60 27H332L328 0H25L133 693ZM257 693H288L248 560H225L257 693Z" />
<glyph unicode="&#x13e;" glyph-name="lcaron" horiz-adv-x="142" d="M439 610L467 734H498L462 610H439ZM132 734H162L47 0H17L132 734Z" />
<glyph unicode="&#x13f;" glyph-name="Ldot" horiz-adv-x="380" d="M382 693H413L310 27H576L571 0H274L382 693ZM296 371H331L323 317H287L296 371Z" />
<glyph unicode="&#x140;" glyph-name="ldot" horiz-adv-x="165" d="M164 392H198L189 338H155L164 392ZM141 734H171L56 0H26L141 734Z" />
<glyph unicode="&#x141;" glyph-name="Lslash" horiz-adv-x="380" d="M65 264L1 231L5 260L70 293L132 693H163L103 311L311 418L306 388L99 282L59 27H325L321 0H24L65 264Z" />
<glyph unicode="&#x142;" glyph-name="lslash" horiz-adv-x="153" d="M25 390L87 430L135 734H164L120 452L187 496L182 465L115 421L49 0H19L82 400L20 360L25 390Z" />
<glyph unicode="&#x143;" glyph-name="Nacute" horiz-adv-x="515" d="M386 842H420L346 732H318L386 842ZM133 693H174L340 200Q351 165 360 136L377 87Q385 62 390 42H391Q393 61 396 85Q398 105 402 133T411 193L490 693H519L411 0H376L207 501Q197 530 188
557T172 606Q164 632 157 655H156Q152 627 148 600Q144 577 140 551T133 501L55 0H25L133 693Z" />
<glyph unicode="&#x144;" glyph-name="nacute" horiz-adv-x="411" d="M316 712H350L262 585H233L316 712ZM94 503H123L115 450H116Q149 473 191 491T281 510Q335 510 357 485T380 416Q380 405 377 383L317 0H287L347 383Q348 391 348 398T349 413Q349 445 332
465T273 485Q228 485 187 467T112 425L46 0H15L94 503Z" />
<glyph unicode="&#x145;" glyph-name="Ncommaaccent" horiz-adv-x="515" d="M202 -42H234L197 -161H172L202 -42ZM133 693H174L340 200Q351 165 360 136L377 87Q385 62 390 42H391Q393 61 396 85Q398 105 402 133T411 193L490 693H519L411 0H376L207 501Q197 530
188 557T172 606Q164 632 157 655H156Q152 627 148 600Q144 577 140 551T133 501L55 0H25L133 693Z" />
<glyph unicode="&#x146;" glyph-name="ncommaaccent" horiz-adv-x="411" d="M405 -42H437L400 -161H375L405 -42ZM94 503H123L115 450H116Q149 473 191 491T281 510Q335 510 357 485T380 416Q380 405 377 383L317 0H287L347 383Q348 391 348 398T349 413Q349 445
332 465T273 485Q228 485 187 467T112 425L46 0H15L94 503Z" />
<glyph unicode="&#x147;" glyph-name="Ncaron" horiz-adv-x="515" d="M353 728H326L264 824H292L342 753L414 824H443L353 728ZM133 693H174L340 200Q351 165 360 136L377 87Q385 62 390 42H391Q393 61 396 85Q398 105 402 133T411 193L490 693H519L411 0H376L207
501Q197 530 188 557T172 606Q164 632 157 655H156Q152 627 148 600Q144 577 140 551T133 501L55 0H25L133 693Z" />
<glyph unicode="&#x148;" glyph-name="ncaron" horiz-adv-x="411" d="M175 697H200L252 607L332 697H359L263 583H236L175 697ZM94 503H123L115 450H116Q149 473 191 491T281 510Q335 510 357 485T380 416Q380 405 377 383L317 0H287L347 383Q348 391 348 398T349
413Q349 445 332 465T273 485Q228 485 187 467T112 425L46 0H15L94 503Z" />
<glyph unicode="&#x149;" glyph-name="napostrophe" horiz-adv-x="417" d="M323 693H356L311 551H285L323 693ZM94 503H123L115 450H116Q149 473 191 491T281 510Q335 510 357 485T380 416Q380 405 377 383L317 0H287L347 383Q348 391 348 398T349 413Q349 445
332 465T273 485Q228 485 187 467T112 425L46 0H15L94 503Z" />
<glyph unicode="&#x14a;" glyph-name="Eng" horiz-adv-x="519" d="M206 503Q196 531 188 558T172 607Q164 633 157 655H156Q152 627 148 600Q144 577 140 551T133 501L54 0H24L132 693H174L340 200Q352 164 361 135T377 86Q384 62 390 45H391Q393 63 396 86Q398
106 402 133T411 195L489 693H518L404 -32Q393 -101 362 -137T266 -174Q241 -174 221 -169T189 -158L193 -132Q208 -138 227 -142T266 -147Q316 -147 339 -121T375 -30L379 -8L206 503Z" />
<glyph unicode="&#x14b;" glyph-name="eng" horiz-adv-x="420" d="M105 503H134L126 450H127Q160 473 202 491T292 510Q346 510 369 485T391 415Q391 401 388 383L316 -81Q307 -138 282 -166T207 -194Q190 -194 177 -191T156 -182L160 -160Q169 -163 179 -165T204
-168Q240 -168 259 -148T285 -79L357 383Q360 398 360 413Q360 446 343 465T284 485Q239 485 198 467T123 425L57 0H26L105 503Z" />
<glyph unicode="&#x14c;" glyph-name="Omacron" horiz-adv-x="543" d="M258 771H436L433 745H254L258 771ZM238 -9Q142 -9 93 55T43 228Q43 283 55 360Q65 418 86 479T141 589T222 669T333 701Q427 701 478 638T529 467Q529 415 517 331Q506 273 485 213T430 103T349
23T238 -9ZM239 18Q292 18 333 46T404 119T453 220T483 334Q496 411 496 468Q496 513 486 551T456 616T406 659T334 675Q280 675 239 647T167 572T118 470T88 357Q82 318 79 287T76 227Q76 180 85 142T115 76T166 33T239 18Z" />
<glyph unicode="&#x14d;" glyph-name="omacron" horiz-adv-x="408" d="M176 651H353L349 625H172L176 651ZM168 -7Q97 -7 59 37T21 170Q21 209 30 271Q50 390 105 450T239 510Q310 510 348 466T386 337Q386 318 384 293T377 233Q357 115 302 54T168 -7ZM169 17Q236
17 282 73T346 233Q352 271 353 294T355 336Q355 413 325 449T238 486Q172 486 126 431T61 270Q56 235 54 212T52 171Q52 93 82 55T169 17Z" />
<glyph unicode="&#x14e;" glyph-name="Obreve" horiz-adv-x="543" d="M347 729Q305 729 282 752T260 817H285Q285 785 301 770T348 754Q405 754 427 817H451Q441 775 414 752T347 729ZM238 -9Q142 -9 93 55T43 228Q43 283 55 360Q65 418 86 479T141 589T222 669T333
701Q427 701 478 638T529 467Q529 415 517 331Q506 273 485 213T430 103T349 23T238 -9ZM239 18Q292 18 333 46T404 119T453 220T483 334Q496 411 496 468Q496 513 486 551T456 616T406 659T334 675Q280 675 239 647T167 572T118 470T88 357Q82 318 79 287T76 227Q76
180 85 142T115 76T166 33T239 18Z" />
<glyph unicode="&#x14f;" glyph-name="obreve" horiz-adv-x="408" d="M168 -7Q97 -7 59 37T21 170Q21 209 30 271Q50 390 105 450T239 510Q310 510 348 466T386 337Q386 318 384 293T377 233Q357 115 302 54T168 -7ZM169 17Q236 17 282 73T346 233Q352 271 353
294T355 336Q355 413 325 449T238 486Q172 486 126 431T61 270Q56 235 54 212T52 171Q52 93 82 55T169 17ZM257 583Q213 583 190 609T170 679H194Q192 645 208 626T258 607Q289 607 310 625T339 679H362Q355 634 327 609T257 583Z" />
<glyph unicode="&#x150;" glyph-name="Ohungarumlaut" horiz-adv-x="543" d="M326 842H359L299 732H273L326 842ZM424 842H456L397 732H370L424 842ZM238 -9Q142 -9 93 55T43 228Q43 283 55 360Q65 418 86 479T141 589T222 669T333 701Q427 701 478 638T529 467Q529
415 517 331Q506 273 485 213T430 103T349 23T238 -9ZM239 18Q292 18 333 46T404 119T453 220T483 334Q496 411 496 468Q496 513 486 551T456 616T406 659T334 675Q280 675 239 647T167 572T118 470T88 357Q82 318 79 287T76 227Q76 180 85 142T115 76T166 33T239
18Z" />
<glyph unicode="&#x151;" glyph-name="ohungarumlaut" horiz-adv-x="408" d="M251 711H283L216 585H189L251 711ZM349 711H381L314 585H287L349 711ZM168 -7Q97 -7 59 37T21 170Q21 209 30 271Q50 390 105 450T239 510Q310 510 348 466T386 337Q386 318 384 293T377
233Q357 115 302 54T168 -7ZM169 17Q236 17 282 73T346 233Q352 271 353 294T355 336Q355 413 325 449T238 486Q172 486 126 431T61 270Q56 235 54 212T52 171Q52 93 82 55T169 17Z" />
<glyph unicode="&#x152;" glyph-name="OE" horiz-adv-x="751" d="M265 0Q158 0 101 55T43 229Q43 256 45 290T55 367Q66 441 88 501T148 604T237 670T360 693H781L776 666H501L455 372H672L667 345H451L401 27H681L677 0H265ZM369 27L469 666H359Q296 666 250
645T171 584T118 490T88 367Q81 322 79 289T76 230Q76 126 123 77T268 27H369Z" />
<glyph unicode="&#x153;" glyph-name="oe" horiz-adv-x="715" d="M168 -7Q97 -7 59 37T21 170Q21 189 23 215T31 273Q51 391 106 450T239 510Q310 510 347 466Q375 432 382 375Q436 510 555 510Q591 510 618 497T661 456T680 381T672 269L670 255H380Q379 247
378 240Q374 202 374 168Q374 19 503 19Q545 19 579 31T634 58L630 31Q611 17 577 5T501 -7Q424 -7 384 36Q354 69 347 129Q328 83 300 53Q245 -7 168 -7ZM169 17Q236 17 282 73T346 233Q352 271 353 294T355 336Q355 413 325 449T238 486Q172 486 126 431T61 270Q56
235 54 212T52 171Q52 93 82 55T169 17ZM644 281Q647 301 649 321T651 359Q651 486 554 486Q492 486 454 443T393 317Q388 299 384 281H644Z" />
<glyph unicode="&#x154;" glyph-name="Racute" horiz-adv-x="441" d="M326 842H360L286 732H258L326 842ZM134 693H269Q352 693 391 650T430 536Q430 487 415 442Q396 388 358 360T269 324V322L389 0H357L238 319H106L56 0H25L134 693ZM224 345Q282 345 323 370T382
445Q398 488 398 535Q398 595 367 630T266 666H160L110 345H224Z" />
<glyph unicode="&#x155;" glyph-name="racute" horiz-adv-x="249" d="M510 712H544L456 585H427L510 712ZM94 503H123L113 439H115Q140 465 172 487T246 510Q265 510 271 506L267 478Q262 480 255 480T243 481Q203 481 172 463T110 415L46 0H15L94 503Z" />
<glyph unicode="&#x156;" glyph-name="Rcommaaccent" horiz-adv-x="441" d="M181 -42H213L176 -161H151L181 -42ZM134 693H269Q352 693 391 650T430 536Q430 487 415 442Q396 388 358 360T269 324V322L389 0H357L238 319H106L56 0H25L134 693ZM224 345Q282 345
323 370T382 445Q398 488 398 535Q398 595 367 630T266 666H160L110 345H224Z" />
<glyph unicode="&#x157;" glyph-name="rcommaaccent" horiz-adv-x="250" d="M10 -42H42L5 -161H-20L10 -42ZM94 503H123L113 439H115Q140 465 172 487T246 510Q265 510 271 506L267 478Q262 480 255 480T243 481Q203 481 172 463T110 415L46 0H15L94 503Z" />
<glyph unicode="&#x158;" glyph-name="Rcaron" horiz-adv-x="441" d="M287 728H260L198 824H226L276 753L348 824H377L287 728ZM134 693H269Q352 693 391 650T430 536Q430 487 415 442Q396 388 358 360T269 324V322L389 0H357L238 319H106L56 0H25L134 693ZM224
345Q282 345 323 370T382 445Q398 488 398 535Q398 595 367 630T266 666H160L110 345H224Z" />
<glyph unicode="&#x159;" glyph-name="rcaron" horiz-adv-x="249" d="M371 697H396L448 607L528 697H555L459 583H432L371 697ZM94 503H123L113 439H115Q140 465 172 487T246 510Q265 510 271 506L267 478Q262 480 255 480T243 481Q203 481 172 463T110 415L46
0H15L94 503Z" />
<glyph unicode="&#x15a;" glyph-name="Sacute" horiz-adv-x="404" d="M159 -9Q127 -9 102 -4T57 10T23 28T-1 44L4 74Q28 55 65 37T160 19Q229 19 266 54T314 145Q316 159 317 172T319 197Q319 247 293 279T225 338L188 362Q135 395 110 431T84 523Q84 540 87
560T99 602Q117 649 159 675T261 701Q289 701 310 697T347 687T374 674T394 661L390 633Q370 647 340 661T260 675Q209 675 176 654T128 595Q120 576 118 558T115 523Q115 478 136 448T204 389L240 366Q264 350 284 334T318 298T341 254T350 198Q350 187 349 172T345
141Q339 109 325 82T287 34T233 3T159 -9ZM317 842H351L277 732H249L317 842Z" />
<glyph unicode="&#x15b;" glyph-name="sacute" horiz-adv-x="315" d="M518 712H552L464 585H435L518 712ZM114 -7Q66 -7 37 5T-10 29L-6 55Q13 43 41 31T115 18Q169 18 196 44T232 105Q235 120 235 136Q235 177 218 198T167 239L125 263Q93 281 71 308T49 378Q49
404 57 428Q70 466 103 488T191 510Q232 510 257 501T297 480L292 454Q274 467 250 476T189 485Q148 485 122 468T85 420Q78 402 78 380Q78 349 94 327T140 289L182 265Q224 241 244 214T265 138Q265 117 261 98Q250 55 215 24T114 -7Z" />
<glyph unicode="&#x15c;" glyph-name="Scircumflex" horiz-adv-x="404" d="M265 825H292L353 729H326L277 801L204 729H175L265 825ZM159 -9Q127 -9 102 -4T57 10T23 28T-1 44L4 74Q28 55 65 37T160 19Q229 19 266 54T314 145Q316 159 317 172T319 197Q319 247
293 279T225 338L188 362Q135 395 110 431T84 523Q84 540 87 560T99 602Q117 649 159 675T261 701Q289 701 310 697T347 687T374 674T394 661L390 633Q370 647 340 661T260 675Q209 675 176 654T128 595Q120 576 118 558T115 523Q115 478 136 448T204 389L240 366Q264
350 284 334T318 298T341 254T350 198Q350 187 349 172T345 141Q339 109 325 82T287 34T233 3T159 -9Z" />
<glyph unicode="&#x15d;" glyph-name="scircumflex" horiz-adv-x="315" d="M461 699H487L549 585H524L472 674L392 585H364L461 699ZM114 -7Q66 -7 37 5T-10 29L-6 55Q13 43 41 31T115 18Q169 18 196 44T232 105Q235 120 235 136Q235 177 218 198T167 239L125
263Q93 281 71 308T49 378Q49 404 57 428Q70 466 103 488T191 510Q232 510 257 501T297 480L292 454Q274 467 250 476T189 485Q148 485 122 468T85 420Q78 402 78 380Q78 349 94 327T140 289L182 265Q224 241 244 214T265 138Q265 117 261 98Q250 55 215 24T114
-7Z" />
<glyph unicode="&#x15e;" glyph-name="Scedilla" horiz-adv-x="404" d="M198 -119Q198 -157 166 -179T64 -204L67 -182Q122 -179 146 -164T170 -120Q170 -76 99 -76L110 -5Q68 3 41 18T-1 44L4 74Q28 55 65 37T160 19Q229 19 266 54T314 145Q316 159 317 172T319
197Q319 247 293 279T225 338L188 362Q135 395 110 431T84 523Q84 540 87 560T99 602Q117 649 159 675T261 701Q289 701 310 697T347 687T374 674T394 661L390 633Q370 647 340 661T260 675Q209 675 176 654T128 595Q120 576 118 558T115 523Q115 478 136 448T204
389L240 366Q264 350 284 334T318 298T341 254T350 198Q350 187 349 172T345 141Q339 109 325 82T287 34T233 3T159 -9H147Q141 -9 133 -8L125 -56Q154 -58 176 -72T198 -119Z" />
<glyph unicode="&#x15f;" glyph-name="scedilla" horiz-adv-x="315" d="M160 -119Q160 -157 128 -179T26 -204L29 -182Q84 -179 108 -164T132 -120Q132 -76 61 -76L72 -4Q43 1 23 10T-10 29L-6 55Q13 43 41 31T115 18Q169 18 196 44T232 105Q235 120 235 136Q235
177 218 198T167 239L125 263Q93 281 71 308T49 378Q49 404 57 428Q70 466 103 488T191 510Q232 510 257 501T297 480L292 454Q274 467 250 476T189 485Q148 485 122 468T85 420Q78 402 78 380Q78 349 94 327T140 289L182 265Q224 241 244 214T265 138Q265 117
261 98Q250 55 215 24T114 -7H106Q102 -7 95 -6L87 -56Q116 -58 138 -72T160 -119Z" />
<glyph unicode="&#x160;" glyph-name="Scaron" horiz-adv-x="404" d="M279 728H252L190 824H218L268 753L340 824H369L279 728ZM159 -9Q127 -9 102 -4T57 10T23 28T-1 44L4 74Q28 55 65 37T160 19Q229 19 266 54T314 145Q316 159 317 172T319 197Q319 247 293
279T225 338L188 362Q135 395 110 431T84 523Q84 540 87 560T99 602Q117 649 159 675T261 701Q289 701 310 697T347 687T374 674T394 661L390 633Q370 647 340 661T260 675Q209 675 176 654T128 595Q120 576 118 558T115 523Q115 478 136 448T204 389L240 366Q264
350 284 334T318 298T341 254T350 198Q350 187 349 172T345 141Q339 109 325 82T287 34T233 3T159 -9Z" />
<glyph unicode="&#x161;" glyph-name="scaron" horiz-adv-x="315" d="M382 697H407L459 607L539 697H566L470 583H443L382 697ZM114 -7Q66 -7 37 5T-10 29L-6 55Q13 43 41 31T115 18Q169 18 196 44T232 105Q235 120 235 136Q235 177 218 198T167 239L125 263Q93
281 71 308T49 378Q49 404 57 428Q70 466 103 488T191 510Q232 510 257 501T297 480L292 454Q274 467 250 476T189 485Q148 485 122 468T85 420Q78 402 78 380Q78 349 94 327T140 289L182 265Q224 241 244 214T265 138Q265 117 261 98Q250 55 215 24T114 -7Z" />
<glyph unicode="&#x162;" glyph-name="Tcommaaccent" horiz-adv-x="420" d="M404 -42H436L399 -161H374L404 -42ZM257 666H79L83 693H469L465 666H288L184 0H152L257 666Z" />
<glyph unicode="&#x163;" glyph-name="tcommaaccent" horiz-adv-x="256" d="M350 -42H382L345 -161H320L350 -42ZM137 -6Q85 -6 66 26T55 111L113 478H50L54 503H117L136 622H167L148 503H265L261 478H144L86 113Q79 70 91 45T143 20Q158 20 173 23T200 31L196
8Q186 3 171 -1T137 -6Z" />
<glyph unicode="&#x164;" glyph-name="Tcaron" horiz-adv-x="420" d="M295 728H268L206 824H234L284 753L356 824H385L295 728ZM257 666H79L83 693H469L465 666H288L184 0H152L257 666Z" />
<glyph unicode="&#x165;" glyph-name="tcaron" horiz-adv-x="256" d="M224 610L252 734H283L247 610H224ZM137 -6Q85 -6 66 26T55 111L113 478H50L54 503H117L136 622H167L148 503H265L261 478H144L86 113Q79 70 91 45T143 20Q158 20 173 23T200 31L196 8Q186
3 171 -1T137 -6Z" />
<glyph unicode="&#x166;" glyph-name="Tbar" horiz-adv-x="420" d="M89 423H367L363 398H84L89 423ZM249 666H71L75 693H461L457 666H280L176 0H144L249 666Z" />
<glyph unicode="&#x167;" glyph-name="tbar" horiz-adv-x="256" d="M31 356H241L238 332H27L31 356ZM137 -6Q85 -6 66 26T55 111L113 478H50L54 503H117L136 622H167L148 503H265L261 478H144L86 113Q79 70 91 45T143 20Q158 20 173 23T200 31L196 8Q186 3 171
-1T137 -6Z" />
<glyph unicode="&#x168;" glyph-name="Utilde" horiz-adv-x="506" d="M227 -9Q140 -9 95 34T50 156Q50 170 51 185T55 215L129 693H160L86 215Q84 200 83 186T81 157Q81 87 119 53T227 18Q307 18 350 66T408 212L484 693H514L439 210Q422 107 372 49T227 -9ZM224
741Q228 772 245 788T287 805Q302 805 314 799T336 786T357 773T379 767Q410 767 418 806H441Q436 774 419 758T379 742Q364 742 352 748T329 761T308 774T286 780Q255 780 246 741H224Z" />
<glyph unicode="&#x169;" glyph-name="utilde" horiz-adv-x="407" d="M132 -7Q79 -7 55 18T31 88Q31 103 34 118L93 503H124L64 119Q63 111 63 104T62 89Q62 56 79 37T137 18Q182 18 221 36T295 78L361 503H392L313 0H288L292 53H291Q258 30 219 12T132 -7ZM150
603Q155 634 171 651T213 669Q228 669 239 663T262 649T283 635T305 629Q336 629 344 669H367Q362 637 345 620T305 603Q290 603 278 609T255 622T234 636T212 643Q181 643 172 603H150Z" />
<glyph unicode="&#x16a;" glyph-name="Umacron" horiz-adv-x="506" d="M227 -9Q140 -9 95 34T50 156Q50 170 51 185T55 215L129 693H160L86 215Q84 200 83 186T81 157Q81 87 119 53T227 18Q307 18 350 66T408 212L484 693H514L439 210Q422 107 372 49T227 -9ZM240
771H418L415 745H236L240 771Z" />
<glyph unicode="&#x16b;" glyph-name="umacron" horiz-adv-x="407" d="M132 -7Q79 -7 55 18T31 88Q31 103 34 118L93 503H124L64 119Q63 111 63 104T62 89Q62 56 79 37T137 18Q182 18 221 36T295 78L361 503H392L313 0H288L292 53H291Q258 30 219 12T132 -7ZM173
651H350L346 625H169L173 651Z" />
<glyph unicode="&#x16c;" glyph-name="Ubreve" horiz-adv-x="506" d="M227 -9Q140 -9 95 34T50 156Q50 170 51 185T55 215L129 693H160L86 215Q84 200 83 186T81 157Q81 87 119 53T227 18Q307 18 350 66T408 212L484 693H514L439 210Q422 107 372 49T227 -9ZM330
729Q288 729 265 752T243 817H268Q268 785 284 770T331 754Q388 754 410 817H434Q424 775 397 752T330 729Z" />
<glyph unicode="&#x16d;" glyph-name="ubreve" horiz-adv-x="407" d="M132 -7Q79 -7 55 18T31 88Q31 103 34 118L93 503H124L64 119Q63 111 63 104T62 89Q62 56 79 37T137 18Q182 18 221 36T295 78L361 503H392L313 0H288L292 53H291Q258 30 219 12T132 -7ZM253
583Q209 583 186 609T166 679H190Q188 645 204 626T254 607Q285 607 306 625T335 679H358Q351 634 323 609T253 583Z" />
<glyph unicode="&#x16e;" glyph-name="Uring" horiz-adv-x="506" d="M227 -9Q140 -9 95 34T50 156Q50 170 51 185T55 215L129 693H160L86 215Q84 200 83 186T81 157Q81 87 119 53T227 18Q307 18 350 66T408 212L484 693H514L439 210Q422 107 372 49T227 -9ZM327
965Q295 965 276 984T257 1035Q257 1067 278 1089T332 1111Q364 1111 382 1092T401 1043Q401 1009 380 987T327 965ZM327 986Q350 986 363 1001T377 1043Q377 1062 365 1076T331 1090Q308 1090 295 1074T281 1035Q281 1015 292 1001T327 986Z" />
<glyph unicode="&#x16f;" glyph-name="uring" horiz-adv-x="407" d="M258 577Q226 577 207 596T188 647Q188 679 209 701T263 723Q295 723 313 704T332 655Q332 622 311 600T258 577ZM258 598Q281 598 295 614T309 655Q309 675 297 688T263 702Q240 702 226 687T212
647Q212 627 223 613T258 598ZM132 -7Q79 -7 55 18T31 88Q31 103 34 118L93 503H124L64 119Q63 111 63 104T62 89Q62 56 79 37T137 18Q182 18 221 36T295 78L361 503H392L313 0H288L292 53H291Q258 30 219 12T132 -7Z" />
<glyph unicode="&#x170;" glyph-name="Uhungarumlaut" horiz-adv-x="506" d="M310 842H343L283 732H257L310 842ZM408 842H440L381 732H354L408 842ZM227 -9Q140 -9 95 34T50 156Q50 170 51 185T55 215L129 693H160L86 215Q84 200 83 186T81 157Q81 87 119 53T227
18Q307 18 350 66T408 212L484 693H514L439 210Q422 107 372 49T227 -9Z" />
<glyph unicode="&#x171;" glyph-name="uhungarumlaut" horiz-adv-x="407" d="M132 -7Q79 -7 55 18T31 88Q31 103 34 118L93 503H124L64 119Q63 111 63 104T62 89Q62 56 79 37T137 18Q182 18 221 36T295 78L361 503H392L313 0H288L292 53H291Q258 30 219 12T132
-7ZM247 711H279L212 585H185L247 711ZM345 711H377L310 585H283L345 711Z" />
<glyph unicode="&#x172;" glyph-name="Uogonek" horiz-adv-x="506" d="M217 -196Q182 -196 164 -178T146 -130Q146 -112 153 -95T173 -62T202 -33T235 -9H229Q141 -9 96 34T50 156Q50 170 51 185T55 215L129 693H160L86 215Q84 200 83 186T81 157Q81 87 119 53T227
18Q307 18 350 66T408 212L484 693H514L439 210Q430 158 415 123T381 63T338 24T291 -2Q234 -28 205 -62T176 -130Q176 -149 187 -161T220 -173Q231 -173 239 -171T255 -167L251 -188Q247 -190 238 -193T217 -196Z" />
<glyph unicode="&#x173;" glyph-name="uogonek" horiz-adv-x="407" d="M132 -7Q79 -7 55 18T31 88Q31 103 34 118L93 503H124L64 119Q63 111 63 104T62 89Q62 56 79 37T137 18Q182 18 221 36T295 78L361 503H392L313 0Q296 -14 280 -29T250 -61T230 -95T222 -131Q222
-149 233 -161T265 -173Q276 -173 284 -171T300 -167L296 -188Q292 -190 283 -193T262 -196Q227 -196 210 -178T192 -131Q192 -112 201 -93T223 -56T254 -23T288 5L292 53H291Q258 30 219 12T132 -7Z" />
<glyph unicode="&#x174;" glyph-name="Wcircumflex" horiz-adv-x="688" d="M418 825H445L506 729H479L430 801L357 729H328L418 825ZM89 693H120L145 193Q147 158 148 131T150 83Q151 60 151 42H152Q158 59 167 82Q182 121 209 193L399 693H433L467 194Q469 159
470 131T474 83Q475 59 476 42H477Q483 60 491 82Q498 101 507 127T527 185L709 693H740L489 0H451L416 495Q414 526 413 553T410 601Q409 625 409 645H407Q400 626 392 602Q385 582 375 555T354 497L164 0H126L89 693Z" />
<glyph unicode="&#x175;" glyph-name="wcircumflex" horiz-adv-x="571" d="M337 699H363L425 585H400L348 674L268 585H240L337 699ZM59 503H89L116 148Q118 130 118 111T120 75Q121 56 121 38H123Q130 57 137 75Q143 91 150 109T164 145L313 503H342L370 145Q372
123 372 104T374 70Q375 52 376 38H377Q382 52 389 70Q395 85 402 104T419 145L564 503H593L387 0H354L325 362Q323 382 322 399T321 429Q320 443 321 455H319Q314 443 309 429Q304 417 298 400T283 363L133 0H99L59 503Z" />
<glyph unicode="&#x176;" glyph-name="Ycircumflex" horiz-adv-x="415" d="M200 293L81 693H113L190 434Q193 420 198 402T208 367Q213 348 220 327H221Q233 346 244 364Q254 380 264 398T282 430L443 693H475L232 295L186 0H154L200 293ZM283 825H310L371 729H344L295
801L222 729H193L283 825Z" />
<glyph unicode="&#x177;" glyph-name="ycircumflex" horiz-adv-x="368" d="M-7 -196Q-19 -196 -30 -193T-50 -185L-47 -162Q-29 -170 -7 -170Q26 -170 46 -151T89 -84L132 10L48 503H78L139 138Q140 130 142 116L146 88Q149 71 152 53H154Q162 72 170 89Q176 103
182 116T191 136L361 503H391L116 -89Q91 -143 65 -169T-7 -196ZM232 699H258L320 585H295L243 674L163 585H135L232 699Z" />
<glyph unicode="&#x178;" glyph-name="Ydieresis" horiz-adv-x="415" d="M200 293L81 693H113L190 434Q193 420 198 402T208 367Q213 348 220 327H221Q233 346 244 364Q254 380 264 398T282 430L443 693H475L232 295L186 0H154L200 293ZM332 782H365L358 739H325L332
782ZM218 782H251L244 739H211L218 782Z" />
<glyph unicode="&#x179;" glyph-name="Zacute" horiz-adv-x="421" d="M327 842H361L287 732H259L327 842ZM-5 25L414 664V666H110L114 693H455L451 669L31 29V27H359L355 0H-9L-5 25Z" />
<glyph unicode="&#x17a;" glyph-name="zacute" horiz-adv-x="345" d="M529 712H563L475 585H446L529 712ZM-10 23L317 476V477H69L73 503H359L355 480L26 28V26H283L279 0H-14L-10 23Z" />
<glyph unicode="&#x17b;" glyph-name="Zdotaccent" horiz-adv-x="421" d="M-5 25L414 664V666H110L114 693H455L451 669L31 29V27H359L355 0H-9L-5 25ZM279 784H311L303 741H271L279 784Z" />
<glyph unicode="&#x17c;" glyph-name="zdotaccent" horiz-adv-x="345" d="M-10 23L317 476V477H69L73 503H359L355 480L26 28V26H283L279 0H-14L-10 23ZM470 660H501L494 616H463L470 660Z" />
<glyph unicode="&#x17d;" glyph-name="Zcaron" horiz-adv-x="421" d="M300 728H273L211 824H239L289 753L361 824H390L300 728ZM-5 25L414 664V666H110L114 693H455L451 669L31 29V27H359L355 0H-9L-5 25Z" />
<glyph unicode="&#x17e;" glyph-name="zcaron" horiz-adv-x="345" d="M144 697H169L221 607L301 697H328L232 583H205L144 697ZM-10 23L317 476V477H69L73 503H359L355 480L26 28V26H283L279 0H-14L-10 23Z" />
<glyph unicode="&#x192;" glyph-name="florin" horiz-adv-x="293" d="M63 447H139L162 593Q175 674 207 707T294 741Q314 741 329 738T353 730L349 705Q339 709 327 712T296 715Q254 715 229 688T193 591L170 447H276L271 420H166L93 -44Q87 -84 77 -110T52 -152T19
-174T-22 -181Q-40 -181 -54 -178T-76 -169L-72 -145Q-62 -150 -51 -152T-25 -155Q-9 -155 4 -151T29 -133T48 -99T62 -42L134 420H59L63 447Z" />
<glyph unicode="&#x1fa;" glyph-name="Aringacute" horiz-adv-x="473" d="M297 693H332L420 0H389L360 235H115L6 0H-25L297 693ZM308 649Q296 624 285 602Q276 583 268 565T256 537L128 262H356L322 536Q321 544 319 562T315 600Q312 623 309 649H308ZM390 998H424L350
888H322L390 998ZM320 718Q288 718 269 737T250 788Q250 820 271 842T325 864Q357 864 375 845T394 796Q394 762 373 740T320 718ZM320 739Q343 739 356 754T370 796Q370 815 358 829T324 843Q301 843 288 827T274 788Q274 768 285 754T320 739Z" />
<glyph unicode="&#x1fb;" glyph-name="aringacute" horiz-adv-x="392" d="M142 -7Q84 -7 52 32T19 146Q19 187 27 235T51 329Q83 418 141 464T269 510Q304 510 330 504T376 489L299 0H275L280 56H279Q270 46 256 35T224 15T186 -1T142 -7ZM147 19Q169 19 189 25T227
41T259 62T283 85L343 472Q330 477 313 481T268 486Q205 486 157 443T80 320Q66 280 58 235T50 145Q50 82 75 51T147 19ZM272 577Q240 577 221 596T202 647Q202 679 223 701T277 723Q309 723 327 704T346 655Q346 622 325 600T272 577ZM272 598Q295 598 309 614T323
655Q323 675 311 688T277 702Q254 702 240 687T226 647Q226 627 237 613T272 598ZM337 864H371L297 754H269L337 864Z" />
<glyph unicode="&#x1fc;" glyph-name="AEacute" horiz-adv-x="712" d="M606 842H640L566 732H538L606 842ZM662 693H991L987 667H710L664 372H882L878 345H660L610 26H891L887 0H575L609 216H388L249 0H215L662 693ZM613 242L679 665H677L404 242H613Z" />
<glyph unicode="&#x1fd;" glyph-name="aeacute" horiz-adv-x="617" d="M429 712H463L375 585H346L429 712ZM422 -7Q346 -7 305 36Q291 50 282 70Q271 58 258 46Q243 32 224 20T182 1T131 -7Q67 -7 38 28T10 116Q10 160 26 192Q58 257 162 270L276 283L289 366Q292
388 292 400Q292 442 270 463T200 484Q168 484 142 479T91 463L95 487Q142 510 208 510Q272 510 300 475Q320 450 320 408Q327 421 335 433Q359 467 393 488T476 510Q553 510 583 453T595 281Q594 276 593 270T591 259H301Q299 249 298 238Q294 200 294 168Q294
19 424 19Q466 19 500 31T555 58L551 31Q532 17 498 5T422 -7ZM54 185Q40 158 40 116Q40 69 63 43T135 17Q181 17 218 41Q250 62 274 88Q264 121 264 166Q264 203 271 258L166 246Q81 236 54 185ZM565 284Q575 344 570 391T538 463Q513 486 475 486Q413 486 374
440T312 311Q308 298 305 284H565Z" />
<glyph unicode="&#x1fe;" glyph-name="Oslashacute" horiz-adv-x="543" d="M238 -9Q143 -9 93 55L84 67L34 0H1L70 92Q44 148 44 228Q44 257 47 292T57 370Q70 449 95 510T156 614T237 679T334 701Q428 701 479 638Q480 636 482 635L526 693H559L497 612Q530 554
530 467Q530 439 527 404T516 323Q490 164 417 78T238 -9ZM239 18Q329 19 394 96T483 322Q491 371 494 404T497 468Q497 513 487 551Q482 568 475 583L104 93Q110 84 116 75Q136 48 166 33T239 18ZM457 616Q437 644 407 659T335 675Q244 675 180 598T90 371Q83
326 80 292T77 228Q77 181 86 142Q89 131 92 121L462 609Q459 613 457 616ZM374 842H408L334 732H306L374 842Z" />
<glyph unicode="&#x1ff;" glyph-name="oslashacute" horiz-adv-x="408" d="M431 -7Q360 -7 322 37Q318 41 315 46L278 0H247L302 69Q284 109 284 170Q284 190 286 216T294 275Q314 393 369 451T502 510Q573 510 611 465Q613 463 614 460L648 502H680L628 438Q649
397 649 337Q649 317 647 291T639 229Q619 112 564 53T431 -7ZM432 17Q498 17 545 73T609 233Q614 271 616 294T618 336Q618 380 607 411L335 71Q339 62 345 55Q376 17 432 17ZM587 449Q557 486 501 486Q435 486 389 431T324 270Q319 235 317 212T315 171Q315 128
324 96L596 437Q592 444 587 449ZM309 712H343L255 585H226L309 712Z" />
<glyph unicode="&#x218;" glyph-name="Scommaaccent" horiz-adv-x="404" d="M392 -42H424L387 -161H362L392 -42ZM159 -9Q127 -9 102 -4T57 10T23 28T-1 44L4 74Q28 55 65 37T160 19Q229 19 266 54T314 145Q316 159 317 172T319 197Q319 247 293 279T225 338L188
362Q135 395 110 431T84 523Q84 540 87 560T99 602Q117 649 159 675T261 701Q289 701 310 697T347 687T374 674T394 661L390 633Q370 647 340 661T260 675Q209 675 176 654T128 595Q120 576 118 558T115 523Q115 478 136 448T204 389L240 366Q264 350 284 334T318
298T341 254T350 198Q350 187 349 172T345 141Q339 109 325 82T287 34T233 3T159 -9Z" />
<glyph unicode="&#x219;" glyph-name="scommaaccent" horiz-adv-x="315" d="M346 -42H378L341 -161H316L346 -42ZM114 -7Q66 -7 37 5T-10 29L-6 55Q13 43 41 31T115 18Q169 18 196 44T232 105Q235 120 235 136Q235 177 218 198T167 239L125 263Q93 281 71 308T49
378Q49 404 57 428Q70 466 103 488T191 510Q232 510 257 501T297 480L292 454Q274 467 250 476T189 485Q148 485 122 468T85 420Q78 402 78 380Q78 349 94 327T140 289L182 265Q224 241 244 214T265 138Q265 117 261 98Q250 55 215 24T114 -7Z" />
<glyph unicode="&#x21a;" glyph-name="uni021A" horiz-adv-x="420" d="M404 -42H436L399 -161H374L404 -42ZM257 666H79L83 693H469L465 666H288L184 0H152L257 666Z" />
<glyph unicode="&#x21b;" glyph-name="uni021B" horiz-adv-x="256" d="M350 -42H382L345 -161H320L350 -42ZM137 -6Q85 -6 66 26T55 111L113 478H50L54 503H117L136 622H167L148 503H265L261 478H144L86 113Q79 70 91 45T143 20Q158 20 173 23T200 31L196 8Q186
3 171 -1T137 -6Z" />
<glyph unicode="&#x237;" glyph-name="uni0237" horiz-adv-x="142" d="M-73 -194Q-90 -194 -103 -191T-124 -182L-120 -160Q-111 -163 -101 -165T-76 -168Q-40 -168 -21 -148T5 -79L97 503H127L36 -81Q27 -138 2 -166T-73 -194Z" />
<glyph unicode="&#x2c6;" glyph-name="circumflex" horiz-adv-x="395" d="M224 699H250L312 585H287L235 674L155 585H127L224 699Z" />
<glyph unicode="&#x2c7;" glyph-name="caron" horiz-adv-x="395" d="M144 697H169L221 607L301 697H328L232 583H205L144 697Z" />
<glyph unicode="&#x2d8;" glyph-name="breve" horiz-adv-x="404" d="M230 583Q186 583 163 609T143 679H167Q165 645 181 626T231 607Q262 607 283 625T312 679H335Q328 634 300 609T230 583Z" />
<glyph unicode="&#x2d9;" glyph-name="dotaccent" horiz-adv-x="401" d="M218 660H249L242 616H211L218 660Z" />
<glyph unicode="&#x2da;" glyph-name="ring" horiz-adv-x="413" d="M253 577Q221 577 202 596T183 647Q183 679 204 701T258 723Q290 723 308 704T327 655Q327 622 306 600T253 577ZM253 598Q276 598 290 614T304 655Q304 675 292 688T258 702Q235 702 221 687T207
647Q207 627 218 613T253 598Z" />
<glyph unicode="&#x2db;" glyph-name="ogonek" horiz-adv-x="410" d="M174 -196Q139 -196 121 -178T103 -131Q103 -111 111 -93T133 -58T163 -27T194 0H226Q190 -29 162 -62T133 -131Q133 -149 144 -161T177 -173Q188 -173 196 -171T212 -167L208 -188Q203 -190
194 -193T174 -196Z" />
<glyph unicode="&#x2dc;" glyph-name="tilde" horiz-adv-x="397" d="M117 603Q122 634 138 651T180 669Q195 669 206 663T229 649T250 635T272 629Q303 629 311 669H334Q329 637 312 620T272 603Q257 603 245 609T222 622T201 636T179 643Q148 643 139 603H117Z" />
<glyph unicode="&#x2dd;" glyph-name="hungarumlaut" horiz-adv-x="382" d="M207 711H239L172 585H145L207 711ZM305 711H337L270 585H243L305 711Z" />
</font>
</defs>
</svg>
